<svg xmlns="http://www.w3.org/2000/svg" width="24" height="24" fill="none" viewBox="0 0 24 24"><path fill="#C1C1C4" fill-rule="evenodd" d="M11.39 3.176a1.5 1.5 0 0 1 1.22 0l7.768 3.453c1.188.528 1.188 2.214 0 2.742l-7.769 3.452a1.5 1.5 0 0 1-1.218 0L3.62 9.371c-1.187-.528-1.187-2.214 0-2.742l7.77-3.453Z" clip-rule="evenodd"/><path fill="#414245" fill-rule="evenodd" d="M3.084 12.1a1 1 0 0 1 1.317-.516l7.6 3.325 7.598-3.325a1 1 0 1 1 .802 1.832l-7.8 3.412a1.5 1.5 0 0 1-1.202 0l-7.8-3.412a1 1 0 0 1-.515-1.317Zm0 4a1 1 0 0 1 1.317-.516l7.6 3.325 7.598-3.325a1 1 0 1 1 .802 1.832l-7.8 3.412a1.5 1.5 0 0 1-1.202 0l-7.8-3.412a1 1 0 0 1-.515-1.317Z" clip-rule="evenodd"/></svg>