<svg xmlns="http://www.w3.org/2000/svg" width="24" height="24" fill="none" viewBox="0 0 24 24"><path fill="#4D505A" fill-rule="evenodd" d="M6.703 9.986a.75.75 0 0 1 .38-.103h9.834a.75.75 0 0 1 .38.103l2.332 1.367a.75.75 0 0 1 0 1.294l-1.455.853 1.455.853a.75.75 0 0 1 0 1.294l-7.25 4.25a.75.75 0 0 1-.758 0l-7.25-4.25a.75.75 0 0 1 0-1.294l1.455-.853-1.455-.853a.75.75 0 0 1 0-1.294zm.606 4.383L6.233 15 12 18.38 17.767 15l-1.076-.63-4.312 2.527a.75.75 0 0 1-.758 0z" clip-rule="evenodd"/><path fill="#C5C6CA" d="M12.38 4.103a.75.75 0 0 0-.76 0l-7.25 4.25a.75.75 0 0 0 0 1.294l7.25 4.25a.75.75 0 0 0 .76 0l7.25-4.25a.75.75 0 0 0 0-1.294z"/></svg>