<svg xmlns="http://www.w3.org/2000/svg" width="24" height="24" fill="none" viewBox="0 0 24 24"><path fill="#4D505A" d="M12 4a6.75 6.75 0 0 0-6.75 6.75v.933a.25.25 0 0 1-.046.144l-.59.837C3.326 14.486 4.63 17 6.86 17h1.39v.25A2.75 2.75 0 0 0 11 20h2a2.75 2.75 0 0 0 2.75-2.75V17h1.39c2.23 0 3.533-2.514 2.247-4.336l-.591-.837a.25.25 0 0 1-.046-.144v-.933A6.75 6.75 0 0 0 12 4"/><path fill="#C5C6CA" d="M12 4a6.75 6.75 0 0 0-6.75 6.75v.933a.25.25 0 0 1-.046.144l-.59.837C3.326 14.486 4.63 17 6.86 17h10.28c2.23 0 3.533-2.514 2.247-4.336l-.591-.837a.25.25 0 0 1-.046-.144v-.933A6.75 6.75 0 0 0 12 4"/></svg>