<svg xmlns="http://www.w3.org/2000/svg" width="24" height="24" fill="none" viewBox="0 0 24 24"><path fill="#0F1015" fill-rule="evenodd" d="M6.536 5.625A2.75 2.75 0 0 1 9.046 4h5.909a2.75 2.75 0 0 1 2.51 1.625l2.353 5.25a2.75 2.75 0 0 1 0 2.25l-2.354 5.25A2.75 2.75 0 0 1 14.954 20H9.046a2.75 2.75 0 0 1-2.51-1.625l-2.353-5.25a2.75 2.75 0 0 1 0-2.25zm2.51-.125c-.493 0-.94.29-1.141.739l-2.354 5.25a1.25 1.25 0 0 0 0 1.022l2.354 5.25c.201.45.648.739 1.14.739h5.91c.492 0 .94-.29 1.14-.739l2.354-5.25a1.25 1.25 0 0 0 0-1.022l-2.353-5.25a1.25 1.25 0 0 0-1.141-.739z" clip-rule="evenodd"/></svg>