<svg xmlns="http://www.w3.org/2000/svg" width="24" height="24" fill="none" viewBox="0 0 24 24"><path fill="#fff" fill-rule="evenodd" d="M21.788 10.5a3 3 0 0 1 0 3l-3.595 6.227a3 3 0 0 1-2.598 1.5h-7.19a3 3 0 0 1-2.599-1.5L2.211 13.5a3 3 0 0 1 0-3l3.595-6.227a3 3 0 0 1 2.599-1.5h7.19a3 3 0 0 1 2.598 1.5l3.595 6.227Zm-1.732 2a1 1 0 0 0 0-1l-3.595-6.227a1 1 0 0 0-.866-.5h-7.19a1 1 0 0 0-.866.5L3.943 11.5a1 1 0 0 0 0 1l3.595 6.227a1 1 0 0 0 .867.5h7.19a1 1 0 0 0 .866-.5l3.596-6.227Z" clip-rule="evenodd"/></svg>