<svg xmlns="http://www.w3.org/2000/svg" width="24" height="24" fill="none" viewBox="0 0 24 24"><path fill="#3D3D42" fill-rule="evenodd" d="M12 2C6.477 2 2 6.477 2 12s4.477 10 10 10 10-4.477 10-10S17.523 2 12 2Zm1.237 6.288a.75.75 0 0 1 .474.95l-2 6a.75.75 0 0 1-1.422-.475l2-6a.75.75 0 0 1 .948-.475Zm-5.944 3.005a1 1 0 0 0 0 1.414l1 1a1 1 0 0 0 1.414-1.414L9.414 12l.293-.293a1 1 0 0 0-1.414-1.414l-1 1Zm9.414 0a1 1 0 0 1 0 1.414l-1 1a1 1 0 0 1-1.414-1.414l.293-.293-.293-.293a1 1 0 0 1 1.414-1.414l1 1Z" clip-rule="evenodd"/></svg>