<svg xmlns="http://www.w3.org/2000/svg" width="24" height="24" fill="none" viewBox="0 0 24 24"><mask id="b" width="20" height="20" x="2" y="2" maskUnits="userSpaceOnUse" style="mask-type:alpha"><path fill="url(#a)" fill-rule="evenodd" d="M11.963 4.267v-.934c0-.737-.596-1.333-1.333-1.333H7.904A5.905 5.905 0 0 0 2 7.904v12.763C2 21.404 2.596 22 3.333 22h12.763A5.905 5.905 0 0 0 22 16.096v-2.74c0-.738-.596-1.334-1.333-1.334h-.934V12a7.733 7.733 0 0 0-7.77-7.733" clip-rule="evenodd"/></mask><g mask="url(#b)"><path fill="url(#c)" d="M12 19.733a7.733 7.733 0 1 0 0-15.466 7.733 7.733 0 0 0 0 15.466"/><path fill="url(#d)" d="M16.333 12.022V12A4.334 4.334 0 0 0 12 7.667h-.037V3.333c0-.737-.596-1.333-1.333-1.333H7.904A5.905 5.905 0 0 0 2 7.904v12.763C2 21.404 2.596 22 3.333 22h12.763A5.905 5.905 0 0 0 22 16.096v-2.74c0-.738-.596-1.334-1.333-1.334z"/><g opacity=".5"><g filter="url(#e)"><path fill="#092642" d="M11 20.733a7.733 7.733 0 1 0 0-15.466 7.733 7.733 0 0 0 0 15.466"/></g><g filter="url(#f)"><path fill="#FFE37D" d="M12 19.733a7.733 7.733 0 1 0 0-15.466 7.733 7.733 0 0 0 0 15.466"/></g></g></g><defs><linearGradient id="a" x1="11.937" x2="-4.689" y1="12.067" y2="29.637" gradientUnits="userSpaceOnUse"><stop stop-color="#00B9B7"/><stop offset="1" stop-color="#3122F6"/></linearGradient><linearGradient id="c" x1="12.689" x2="16.8" y1="11.426" y2="7.974" gradientUnits="userSpaceOnUse"><stop stop-color="#fff"/><stop offset="1" stop-color="#FFE37D"/></linearGradient><linearGradient id="d" x1="11.937" x2="-4.689" y1="12.067" y2="29.637" gradientUnits="userSpaceOnUse"><stop stop-color="#00B9B7"/><stop offset="1" stop-color="#3122F6"/></linearGradient><filter id="e" width="21.467" height="21.467" x=".267" y="2.267" color-interpolation-filters="sRGB" filterUnits="userSpaceOnUse"><feFlood flood-opacity="0" result="BackgroundImageFix"/><feBlend in="SourceGraphic" in2="BackgroundImageFix" result="shape"/><feGaussianBlur result="effect1_foregroundBlur_4150_91297" stdDeviation="1.5"/></filter><filter id="f" width="19.467" height="19.467" x="2.267" y="2.267" color-interpolation-filters="sRGB" filterUnits="userSpaceOnUse"><feFlood flood-opacity="0" result="BackgroundImageFix"/><feBlend in="SourceGraphic" in2="BackgroundImageFix" result="shape"/><feGaussianBlur result="effect1_foregroundBlur_4150_91297" stdDeviation="1"/></filter></defs></svg>