<svg xmlns="http://www.w3.org/2000/svg" width="24" height="24" fill="none" viewBox="0 0 24 24"><path fill="#C1C1C4" fill-rule="evenodd" d="M16.707 14.293a1 1 0 0 1 0 1.414l-3.93 3.93a1.1 1.1 0 0 1-1.555 0l-3.93-3.93a1 1 0 1 1 1.415-1.414L12 17.586l3.293-3.293a1 1 0 0 1 1.414 0Z" clip-rule="evenodd"/><path fill="#414245" fill-rule="evenodd" d="M16.707 9.707a1 1 0 0 1-1.414 0L12 6.414 8.707 9.707a1 1 0 1 1-1.414-1.414l3.93-3.93a1.1 1.1 0 0 1 1.555 0l3.93 3.93a1 1 0 0 1 0 1.414Z" clip-rule="evenodd"/></svg>