<svg xmlns="http://www.w3.org/2000/svg" width="24" height="24" fill="none" viewBox="0 0 24 24"><path fill="#C1C1C4" fill-rule="evenodd" d="M7.347 3.295c.37-1.108 1.936-1.108 2.305 0l.111.333a6.857 6.857 0 0 0 4.098 4.252c1.035.388 1.035 1.852 0 2.24a6.857 6.857 0 0 0-4.098 4.252l-.11.333c-.37 1.107-1.936 1.107-2.306 0l-.11-.333a6.857 6.857 0 0 0-4.098-4.252c-1.035-.388-1.035-1.852 0-2.24a6.857 6.857 0 0 0 4.097-4.252l.111-.333ZM19 16a1 1 0 0 1 1 1v1h1a1 1 0 1 1 0 2h-1v1a1 1 0 1 1-2 0v-1h-1a1 1 0 1 1 0-2h1v-1a1 1 0 0 1 1-1Z" clip-rule="evenodd"/><path fill="#414245" fill-rule="evenodd" d="M18.996 10a1 1 0 0 1 1.004.996v.01a1 1 0 1 1-2 .008v-.01A1 1 0 0 1 18.996 10ZM11 17.99a1 1 0 0 1 1 1V19a1 1 0 1 1-2 0v-.01a1 1 0 0 1 1-1Z" clip-rule="evenodd"/></svg>