<svg xmlns="http://www.w3.org/2000/svg" width="24" height="24" fill="none" viewBox="0 0 24 24"><path fill="#101116" fill-rule="evenodd" d="M10 4a.75.75 0 0 1 .75.75c0 1.101.535 2.231 1.402 3.098S14.149 9.25 15.25 9.25a.75.75 0 0 1 0 1.5c-1.101 0-2.231.535-3.098 1.402s-1.402 1.997-1.402 3.098a.75.75 0 0 1-1.5 0c0-1.101-.535-2.231-1.402-3.098S5.851 10.75 4.75 10.75a.75.75 0 0 1 0-1.5c1.101 0 2.231-.535 3.098-1.402S9.25 5.851 9.25 4.75A.75.75 0 0 1 10 4m0 3.477A6.7 6.7 0 0 1 8.909 8.91 6.7 6.7 0 0 1 7.477 10 6.7 6.7 0 0 1 10 12.523a6.7 6.7 0 0 1 1.091-1.432A6.7 6.7 0 0 1 12.523 10a6.7 6.7 0 0 1-1.432-1.091A6.7 6.7 0 0 1 10 7.477" clip-rule="evenodd"/><path fill="#101116" d="M19 11.25a.75.75 0 1 1-1.5 0 .75.75 0 0 1 1.5 0M11.25 19a.75.75 0 1 0 0-1.5.75.75 0 0 0 0 1.5M17 14a.75.75 0 0 1 .75.75v1.5h1.5a.75.75 0 0 1 0 1.5h-1.5v1.5a.75.75 0 0 1-1.5 0v-1.5h-1.5a.75.75 0 0 1 0-1.5h1.5v-1.5A.75.75 0 0 1 17 14"/></svg>