<svg xmlns="http://www.w3.org/2000/svg" width="24" height="24" fill="none" viewBox="0 0 24 24"><path fill="#000" fill-rule="evenodd" d="M10.9 4A1.1 1.1 0 0 1 12 2.9h6A3.1 3.1 0 0 1 21.1 6v12a3.1 3.1 0 0 1-3.1 3.1h-6a1.1 1.1 0 0 1 0-2.2h6a.9.9 0 0 0 .9-.9V6a.9.9 0 0 0-.9-.9h-6A1.1 1.1 0 0 1 10.9 4ZM7.778 8.222a1.1 1.1 0 0 1 0 1.556L6.655 10.9H16a1.1 1.1 0 0 1 0 2.2H6.655l1.123 1.122a1.1 1.1 0 1 1-1.556 1.556L3.576 13.13a1.6 1.6 0 0 1 0-2.262l2.646-2.647a1.1 1.1 0 0 1 1.556 0Z" clip-rule="evenodd"/></svg>