<svg width="342" height="40" viewBox="0 0 342 40" fill="none" xmlns="http://www.w3.org/2000/svg">
<rect width="341.333" height="40" fill="#586CEE"/>
<path d="M13.1186 25V14.8182H16.8473C17.5698 14.8182 18.1681 14.9375 18.642 15.1761C19.116 15.4115 19.4706 15.7313 19.706 16.1357C19.9413 16.5367 20.0589 16.9891 20.0589 17.4929C20.0589 17.9171 19.9811 18.2751 19.8253 18.5668C19.6695 18.8551 19.4607 19.0871 19.1989 19.2628C18.9403 19.4351 18.6553 19.5611 18.3438 19.6406V19.7401C18.6818 19.7566 19.0116 19.866 19.3331 20.0682C19.6579 20.267 19.9264 20.5504 20.1385 20.9183C20.3506 21.2862 20.4567 21.7337 20.4567 22.2607C20.4567 22.781 20.334 23.2483 20.0888 23.6626C19.8468 24.0736 19.4723 24.4001 18.9652 24.642C18.4581 24.8807 17.8101 25 17.0213 25H13.1186ZM14.6548 23.6825H16.8722C17.608 23.6825 18.1349 23.54 18.4531 23.255C18.7713 22.9699 18.9304 22.6136 18.9304 22.1861C18.9304 21.8646 18.8492 21.5696 18.6868 21.3011C18.5244 21.0327 18.2924 20.8189 17.9908 20.6598C17.6925 20.5007 17.3378 20.4212 16.9268 20.4212H14.6548V23.6825ZM14.6548 19.223H16.7131C17.0578 19.223 17.3677 19.1567 17.6428 19.0241C17.9212 18.8916 18.1416 18.706 18.304 18.4673C18.4697 18.2254 18.5526 17.9403 18.5526 17.6122C18.5526 17.1913 18.4051 16.8383 18.1101 16.5533C17.8151 16.2682 17.3627 16.1257 16.7528 16.1257H14.6548V19.223ZM23.646 14.8182V25H22.1594V14.8182H23.646ZM30.4831 21.8331V17.3636H31.9746V25H30.513V23.6776H30.4334C30.2578 24.0852 29.976 24.425 29.5882 24.6967C29.2038 24.9652 28.7248 25.0994 28.1515 25.0994C27.6609 25.0994 27.2267 24.9917 26.8489 24.7763C26.4744 24.5575 26.1794 24.2344 25.964 23.8068C25.7518 23.3793 25.6458 22.8506 25.6458 22.2209V17.3636H27.1323V22.0419C27.1323 22.5623 27.2765 22.9766 27.5648 23.2848C27.8532 23.593 28.2277 23.7472 28.6884 23.7472C28.9668 23.7472 29.2435 23.6776 29.5186 23.5384C29.7971 23.3991 30.0274 23.1887 30.2097 22.907C30.3953 22.6252 30.4864 22.2673 30.4831 21.8331ZM37.2631 25.1541C36.5108 25.1541 35.8628 24.9934 35.3192 24.6719C34.779 24.3471 34.3614 23.8913 34.0664 23.3047C33.7747 22.7147 33.6289 22.0237 33.6289 21.2315C33.6289 20.4493 33.7747 19.7599 34.0664 19.1634C34.3614 18.5668 34.7724 18.1011 35.2994 17.7663C35.8297 17.4316 36.4495 17.2642 37.1587 17.2642C37.5896 17.2642 38.0072 17.3355 38.4116 17.478C38.8159 17.6205 39.1789 17.8442 39.5004 18.1491C39.8219 18.4541 40.0754 18.8501 40.261 19.3374C40.4466 19.8213 40.5394 20.4096 40.5394 21.1023V21.6293H34.4691V20.5156H39.0827C39.0827 20.1245 39.0032 19.7782 38.8441 19.4766C38.685 19.1716 38.4613 18.9313 38.1729 18.7557C37.8879 18.58 37.5531 18.4922 37.1687 18.4922C36.7511 18.4922 36.3865 18.5949 36.0749 18.8004C35.7667 19.0026 35.5281 19.2678 35.359 19.5959C35.1933 19.9207 35.1104 20.2737 35.1104 20.6548V21.5249C35.1104 22.0353 35.1999 22.4695 35.3789 22.8274C35.5612 23.1854 35.8147 23.4588 36.1396 23.6477C36.4644 23.8333 36.8439 23.9261 37.2781 23.9261C37.5598 23.9261 37.8166 23.8864 38.0487 23.8068C38.2807 23.724 38.4812 23.6013 38.6502 23.4389C38.8192 23.2765 38.9485 23.076 39.038 22.8374L40.445 23.0909C40.3323 23.5052 40.1301 23.8681 39.8384 24.1797C39.5501 24.4879 39.1871 24.7282 38.7496 24.9006C38.3155 25.0696 37.82 25.1541 37.2631 25.1541ZM45.5297 25.1392C44.9065 25.1392 44.3464 25.0199 43.8493 24.7812C43.3554 24.5393 42.961 24.2079 42.666 23.7869C42.371 23.366 42.2136 22.8854 42.1937 22.3452H43.6852C43.7217 22.7827 43.9155 23.1423 44.2669 23.424C44.6182 23.7057 45.0391 23.8466 45.5297 23.8466C45.9208 23.8466 46.2671 23.7571 46.5687 23.5781C46.8736 23.3958 47.1123 23.1456 47.2846 22.8274C47.4603 22.5092 47.5481 22.1463 47.5481 21.7386C47.5481 21.3243 47.4586 20.9548 47.2797 20.63C47.1007 20.3052 46.8538 20.05 46.5389 19.8643C46.2273 19.6787 45.8694 19.5843 45.465 19.581C45.1568 19.581 44.8469 19.634 44.5353 19.7401C44.2238 19.8461 43.9719 19.9853 43.7797 20.1577L42.3727 19.9489L42.9444 14.8182H48.5424V16.1357H44.2221L43.899 18.9844H43.9586C44.1575 18.7921 44.421 18.6314 44.7491 18.5021C45.0806 18.3729 45.4352 18.3082 45.813 18.3082C46.4328 18.3082 46.9847 18.4557 47.4686 18.7507C47.9558 19.0457 48.3386 19.4484 48.617 19.9588C48.8987 20.4659 49.0379 21.0492 49.0346 21.7088C49.0379 22.3684 48.8888 22.9567 48.5872 23.4737C48.2889 23.9908 47.8746 24.3984 47.3443 24.6967C46.8173 24.9917 46.2124 25.1392 45.5297 25.1392ZM54.3952 25.169C53.6097 25.1657 52.9386 24.9586 52.3817 24.5476C51.8249 24.1366 51.399 23.5384 51.104 22.7528C50.8091 21.9673 50.6616 21.0211 50.6616 19.9141C50.6616 18.8104 50.8091 17.8674 51.104 17.0852C51.4023 16.303 51.8299 15.7064 52.3867 15.2955C52.9469 14.8845 53.6164 14.679 54.3952 14.679C55.1741 14.679 55.842 14.8861 56.3988 15.3004C56.9556 15.7114 57.3815 16.308 57.6765 17.0902C57.9748 17.8691 58.1239 18.8104 58.1239 19.9141C58.1239 21.0244 57.9764 21.9723 57.6815 22.7578C57.3865 23.54 56.9606 24.1383 56.4038 24.5526C55.8469 24.9635 55.1774 25.169 54.3952 25.169ZM54.3952 23.8416C55.0846 23.8416 55.6232 23.5052 56.011 22.8324C56.4021 22.1596 56.5977 21.1868 56.5977 19.9141C56.5977 19.0689 56.5082 18.3546 56.3292 17.7713C56.1535 17.1847 55.9 16.7405 55.5685 16.4389C55.2404 16.134 54.8493 15.9815 54.3952 15.9815C53.7092 15.9815 53.1706 16.3196 52.7795 16.9957C52.3884 17.6719 52.1912 18.6446 52.1879 19.9141C52.1879 20.7625 52.2757 21.4801 52.4513 22.0668C52.6303 22.6501 52.8839 23.0926 53.212 23.3942C53.5401 23.6925 53.9345 23.8416 54.3952 23.8416ZM63.4324 25.169C62.6468 25.1657 61.9757 24.9586 61.4189 24.5476C60.862 24.1366 60.4361 23.5384 60.1412 22.7528C59.8462 21.9673 59.6987 21.0211 59.6987 19.9141C59.6987 18.8104 59.8462 17.8674 60.1412 17.0852C60.4395 16.303 60.867 15.7064 61.4238 15.2955C61.984 14.8845 62.6535 14.679 63.4324 14.679C64.2112 14.679 64.8791 14.8861 65.4359 15.3004C65.9927 15.7114 66.4186 16.308 66.7136 17.0902C67.0119 17.8691 67.161 18.8104 67.161 19.9141C67.161 21.0244 67.0136 21.9723 66.7186 22.7578C66.4236 23.54 65.9977 24.1383 65.4409 24.5526C64.8841 24.9635 64.2145 25.169 63.4324 25.169ZM63.4324 23.8416C64.1217 23.8416 64.6603 23.5052 65.0481 22.8324C65.4392 22.1596 65.6348 21.1868 65.6348 19.9141C65.6348 19.0689 65.5453 18.3546 65.3663 17.7713C65.1906 17.1847 64.9371 16.7405 64.6056 16.4389C64.2775 16.134 63.8864 15.9815 63.4324 15.9815C62.7463 15.9815 62.2077 16.3196 61.8166 16.9957C61.4255 17.6719 61.2283 18.6446 61.225 19.9141C61.225 20.7625 61.3128 21.4801 61.4885 22.0668C61.6674 22.6501 61.921 23.0926 62.2491 23.3942C62.5772 23.6925 62.9717 23.8416 63.4324 23.8416Z" fill="white"/>
</svg>
