<svg width="342" height="40" viewBox="0 0 342 40" fill="none" xmlns="http://www.w3.org/2000/svg">
<rect width="341.333" height="40" fill="#1C2662"/>
<path d="M13.1186 25V14.8182H16.8473C17.5698 14.8182 18.1681 14.9375 18.642 15.1761C19.116 15.4115 19.4706 15.7313 19.706 16.1357C19.9413 16.5367 20.0589 16.9891 20.0589 17.4929C20.0589 17.9171 19.9811 18.2751 19.8253 18.5668C19.6695 18.8551 19.4607 19.0871 19.1989 19.2628C18.9403 19.4351 18.6553 19.5611 18.3438 19.6406V19.7401C18.6818 19.7566 19.0116 19.866 19.3331 20.0682C19.6579 20.267 19.9264 20.5504 20.1385 20.9183C20.3506 21.2862 20.4567 21.7337 20.4567 22.2607C20.4567 22.781 20.334 23.2483 20.0888 23.6626C19.8468 24.0736 19.4723 24.4001 18.9652 24.642C18.4581 24.8807 17.8101 25 17.0213 25H13.1186ZM14.6548 23.6825H16.8722C17.608 23.6825 18.1349 23.54 18.4531 23.255C18.7713 22.9699 18.9304 22.6136 18.9304 22.1861C18.9304 21.8646 18.8492 21.5696 18.6868 21.3011C18.5244 21.0327 18.2924 20.8189 17.9908 20.6598C17.6925 20.5007 17.3378 20.4212 16.9268 20.4212H14.6548V23.6825ZM14.6548 19.223H16.7131C17.0578 19.223 17.3677 19.1567 17.6428 19.0241C17.9212 18.8916 18.1416 18.706 18.304 18.4673C18.4697 18.2254 18.5526 17.9403 18.5526 17.6122C18.5526 17.1913 18.4051 16.8383 18.1101 16.5533C17.8151 16.2682 17.3627 16.1257 16.7528 16.1257H14.6548V19.223ZM23.646 14.8182V25H22.1594V14.8182H23.646ZM30.4831 21.8331V17.3636H31.9746V25H30.513V23.6776H30.4334C30.2578 24.0852 29.976 24.425 29.5882 24.6967C29.2038 24.9652 28.7248 25.0994 28.1515 25.0994C27.6609 25.0994 27.2267 24.9917 26.8489 24.7763C26.4744 24.5575 26.1794 24.2344 25.964 23.8068C25.7518 23.3793 25.6458 22.8506 25.6458 22.2209V17.3636H27.1323V22.0419C27.1323 22.5623 27.2765 22.9766 27.5648 23.2848C27.8532 23.593 28.2277 23.7472 28.6884 23.7472C28.9668 23.7472 29.2435 23.6776 29.5186 23.5384C29.7971 23.3991 30.0274 23.1887 30.2097 22.907C30.3953 22.6252 30.4864 22.2673 30.4831 21.8331ZM37.2631 25.1541C36.5108 25.1541 35.8628 24.9934 35.3192 24.6719C34.779 24.3471 34.3614 23.8913 34.0664 23.3047C33.7747 22.7147 33.6289 22.0237 33.6289 21.2315C33.6289 20.4493 33.7747 19.7599 34.0664 19.1634C34.3614 18.5668 34.7724 18.1011 35.2994 17.7663C35.8297 17.4316 36.4495 17.2642 37.1587 17.2642C37.5896 17.2642 38.0072 17.3355 38.4116 17.478C38.8159 17.6205 39.1789 17.8442 39.5004 18.1491C39.8219 18.4541 40.0754 18.8501 40.261 19.3374C40.4466 19.8213 40.5394 20.4096 40.5394 21.1023V21.6293H34.4691V20.5156H39.0827C39.0827 20.1245 39.0032 19.7782 38.8441 19.4766C38.685 19.1716 38.4613 18.9313 38.1729 18.7557C37.8879 18.58 37.5531 18.4922 37.1687 18.4922C36.7511 18.4922 36.3865 18.5949 36.0749 18.8004C35.7667 19.0026 35.5281 19.2678 35.359 19.5959C35.1933 19.9207 35.1104 20.2737 35.1104 20.6548V21.5249C35.1104 22.0353 35.1999 22.4695 35.3789 22.8274C35.5612 23.1854 35.8147 23.4588 36.1396 23.6477C36.4644 23.8333 36.8439 23.9261 37.2781 23.9261C37.5598 23.9261 37.8166 23.8864 38.0487 23.8068C38.2807 23.724 38.4812 23.6013 38.6502 23.4389C38.8192 23.2765 38.9485 23.076 39.038 22.8374L40.445 23.0909C40.3323 23.5052 40.1301 23.8681 39.8384 24.1797C39.5501 24.4879 39.1871 24.7282 38.7496 24.9006C38.3155 25.0696 37.82 25.1541 37.2631 25.1541ZM45.5545 14.679C46.0086 14.6823 46.456 14.7652 46.8968 14.9276C47.3377 15.09 47.7354 15.3551 48.09 15.723C48.448 16.0909 48.733 16.5881 48.9451 17.2145C49.1606 17.8376 49.2699 18.6132 49.2733 19.5412C49.2733 20.4328 49.1838 21.2266 49.0048 21.9226C48.8258 22.6153 48.569 23.2003 48.2342 23.6776C47.9028 24.1548 47.5001 24.5178 47.0261 24.7663C46.5521 25.0149 46.0185 25.1392 45.4252 25.1392C44.8187 25.1392 44.2801 25.0199 43.8095 24.7812C43.3388 24.5426 42.956 24.2128 42.661 23.7919C42.3661 23.3677 42.1821 22.8804 42.1092 22.3303H43.6255C43.725 22.7678 43.9271 23.1224 44.2321 23.3942C44.5403 23.6626 44.938 23.7969 45.4252 23.7969C46.171 23.7969 46.7527 23.4721 47.1703 22.8224C47.5879 22.1695 47.7984 21.258 47.8017 20.0881H47.7221C47.5498 20.3731 47.3343 20.6184 47.0758 20.8239C46.8206 21.0294 46.5339 21.1884 46.2157 21.3011C45.8976 21.4138 45.5578 21.4702 45.1966 21.4702C44.6099 21.4702 44.0763 21.326 43.5957 21.0376C43.1151 20.7493 42.7323 20.3532 42.4473 19.8494C42.1622 19.3456 42.0197 18.7706 42.0197 18.1243C42.0197 17.4813 42.1655 16.898 42.4572 16.3743C42.7522 15.8506 43.1632 15.4363 43.6902 15.1314C44.2205 14.8232 44.8419 14.6723 45.5545 14.679ZM45.5595 15.9716C45.1717 15.9716 44.822 16.0677 44.5105 16.2599C44.2022 16.4489 43.9586 16.7057 43.7797 17.0305C43.6007 17.352 43.5112 17.71 43.5112 18.1044C43.5112 18.4988 43.5974 18.8568 43.7697 19.1783C43.9454 19.4964 44.184 19.75 44.4856 19.9389C44.7905 20.1245 45.1386 20.2173 45.5297 20.2173C45.8213 20.2173 46.0931 20.161 46.345 20.0483C46.5969 19.9356 46.8173 19.7798 47.0062 19.581C47.1951 19.3788 47.3426 19.1501 47.4487 18.8949C47.5547 18.6397 47.6078 18.3712 47.6078 18.0895C47.6078 17.715 47.5183 17.367 47.3393 17.0455C47.1636 16.724 46.9217 16.4654 46.6135 16.2699C46.3052 16.071 45.9539 15.9716 45.5595 15.9716ZM54.614 25.169C53.8285 25.1657 53.1573 24.9586 52.6005 24.5476C52.0437 24.1366 51.6178 23.5384 51.3228 22.7528C51.0278 21.9673 50.8803 21.0211 50.8803 19.9141C50.8803 18.8104 51.0278 17.8674 51.3228 17.0852C51.6211 16.303 52.0487 15.7064 52.6055 15.2955C53.1656 14.8845 53.8351 14.679 54.614 14.679C55.3929 14.679 56.0607 14.8861 56.6175 15.3004C57.1744 15.7114 57.6003 16.308 57.8952 17.0902C58.1935 17.8691 58.3427 18.8104 58.3427 19.9141C58.3427 21.0244 58.1952 21.9723 57.9002 22.7578C57.6052 23.54 57.1793 24.1383 56.6225 24.5526C56.0657 24.9635 55.3962 25.169 54.614 25.169ZM54.614 23.8416C55.3034 23.8416 55.842 23.5052 56.2298 22.8324C56.6209 22.1596 56.8164 21.1868 56.8164 19.9141C56.8164 19.0689 56.7269 18.3546 56.5479 17.7713C56.3723 17.1847 56.1187 16.7405 55.7873 16.4389C55.4592 16.134 55.0681 15.9815 54.614 15.9815C53.9279 15.9815 53.3893 16.3196 52.9982 16.9957C52.6071 17.6719 52.4099 18.6446 52.4066 19.9141C52.4066 20.7625 52.4944 21.4801 52.6701 22.0668C52.8491 22.6501 53.1026 23.0926 53.4308 23.3942C53.7589 23.6925 54.1533 23.8416 54.614 23.8416ZM63.6511 25.169C62.8656 25.1657 62.1944 24.9586 61.6376 24.5476C61.0808 24.1366 60.6549 23.5384 60.3599 22.7528C60.0649 21.9673 59.9174 21.0211 59.9174 19.9141C59.9174 18.8104 60.0649 17.8674 60.3599 17.0852C60.6582 16.303 61.0858 15.7064 61.6426 15.2955C62.2027 14.8845 62.8722 14.679 63.6511 14.679C64.43 14.679 65.0978 14.8861 65.6547 15.3004C66.2115 15.7114 66.6374 16.308 66.9324 17.0902C67.2306 17.8691 67.3798 18.8104 67.3798 19.9141C67.3798 21.0244 67.2323 21.9723 66.9373 22.7578C66.6423 23.54 66.2164 24.1383 65.6596 24.5526C65.1028 24.9635 64.4333 25.169 63.6511 25.169ZM63.6511 23.8416C64.3405 23.8416 64.8791 23.5052 65.2669 22.8324C65.658 22.1596 65.8535 21.1868 65.8535 19.9141C65.8535 19.0689 65.764 18.3546 65.585 17.7713C65.4094 17.1847 65.1558 16.7405 64.8244 16.4389C64.4963 16.134 64.1052 15.9815 63.6511 15.9815C62.965 15.9815 62.4264 16.3196 62.0353 16.9957C61.6442 17.6719 61.447 18.6446 61.4437 19.9141C61.4437 20.7625 61.5315 21.4801 61.7072 22.0668C61.8862 22.6501 62.1397 23.0926 62.4679 23.3942C62.796 23.6925 63.1904 23.8416 63.6511 23.8416Z" fill="white"/>
</svg>
