<svg width="342" height="40" viewBox="0 0 342 40" fill="none" xmlns="http://www.w3.org/2000/svg">
<rect width="341.333" height="40" fill="#2A3BAC"/>
<path d="M13.1186 25V14.8182H16.8473C17.5698 14.8182 18.1681 14.9375 18.642 15.1761C19.116 15.4115 19.4706 15.7313 19.706 16.1357C19.9413 16.5367 20.0589 16.9891 20.0589 17.4929C20.0589 17.9171 19.9811 18.2751 19.8253 18.5668C19.6695 18.8551 19.4607 19.0871 19.1989 19.2628C18.9403 19.4351 18.6553 19.5611 18.3438 19.6406V19.7401C18.6818 19.7566 19.0116 19.866 19.3331 20.0682C19.6579 20.267 19.9264 20.5504 20.1385 20.9183C20.3506 21.2862 20.4567 21.7337 20.4567 22.2607C20.4567 22.781 20.334 23.2483 20.0888 23.6626C19.8468 24.0736 19.4723 24.4001 18.9652 24.642C18.4581 24.8807 17.8101 25 17.0213 25H13.1186ZM14.6548 23.6825H16.8722C17.608 23.6825 18.1349 23.54 18.4531 23.255C18.7713 22.9699 18.9304 22.6136 18.9304 22.1861C18.9304 21.8646 18.8492 21.5696 18.6868 21.3011C18.5244 21.0327 18.2924 20.8189 17.9908 20.6598C17.6925 20.5007 17.3378 20.4212 16.9268 20.4212H14.6548V23.6825ZM14.6548 19.223H16.7131C17.0578 19.223 17.3677 19.1567 17.6428 19.0241C17.9212 18.8916 18.1416 18.706 18.304 18.4673C18.4697 18.2254 18.5526 17.9403 18.5526 17.6122C18.5526 17.1913 18.4051 16.8383 18.1101 16.5533C17.8151 16.2682 17.3627 16.1257 16.7528 16.1257H14.6548V19.223ZM23.646 14.8182V25H22.1594V14.8182H23.646ZM30.4831 21.8331V17.3636H31.9746V25H30.513V23.6776H30.4334C30.2578 24.0852 29.976 24.425 29.5882 24.6967C29.2038 24.9652 28.7248 25.0994 28.1515 25.0994C27.6609 25.0994 27.2267 24.9917 26.8489 24.7763C26.4744 24.5575 26.1794 24.2344 25.964 23.8068C25.7518 23.3793 25.6458 22.8506 25.6458 22.2209V17.3636H27.1323V22.0419C27.1323 22.5623 27.2765 22.9766 27.5648 23.2848C27.8532 23.593 28.2277 23.7472 28.6884 23.7472C28.9668 23.7472 29.2435 23.6776 29.5186 23.5384C29.7971 23.3991 30.0274 23.1887 30.2097 22.907C30.3953 22.6252 30.4864 22.2673 30.4831 21.8331ZM37.2631 25.1541C36.5108 25.1541 35.8628 24.9934 35.3192 24.6719C34.779 24.3471 34.3614 23.8913 34.0664 23.3047C33.7747 22.7147 33.6289 22.0237 33.6289 21.2315C33.6289 20.4493 33.7747 19.7599 34.0664 19.1634C34.3614 18.5668 34.7724 18.1011 35.2994 17.7663C35.8297 17.4316 36.4495 17.2642 37.1587 17.2642C37.5896 17.2642 38.0072 17.3355 38.4116 17.478C38.8159 17.6205 39.1789 17.8442 39.5004 18.1491C39.8219 18.4541 40.0754 18.8501 40.261 19.3374C40.4466 19.8213 40.5394 20.4096 40.5394 21.1023V21.6293H34.4691V20.5156H39.0827C39.0827 20.1245 39.0032 19.7782 38.8441 19.4766C38.685 19.1716 38.4613 18.9313 38.1729 18.7557C37.8879 18.58 37.5531 18.4922 37.1687 18.4922C36.7511 18.4922 36.3865 18.5949 36.0749 18.8004C35.7667 19.0026 35.5281 19.2678 35.359 19.5959C35.1933 19.9207 35.1104 20.2737 35.1104 20.6548V21.5249C35.1104 22.0353 35.1999 22.4695 35.3789 22.8274C35.5612 23.1854 35.8147 23.4588 36.1396 23.6477C36.4644 23.8333 36.8439 23.9261 37.2781 23.9261C37.5598 23.9261 37.8166 23.8864 38.0487 23.8068C38.2807 23.724 38.4812 23.6013 38.6502 23.4389C38.8192 23.2765 38.9485 23.076 39.038 22.8374L40.445 23.0909C40.3323 23.5052 40.1301 23.8681 39.8384 24.1797C39.5501 24.4879 39.1871 24.7282 38.7496 24.9006C38.3155 25.0696 37.82 25.1541 37.2631 25.1541ZM45.6092 25.1392C44.8966 25.1392 44.2669 25.0166 43.72 24.7713C43.1764 24.526 42.7505 24.188 42.4423 23.7571C42.1341 23.3262 41.9816 22.8357 41.9849 22.2855C41.9816 21.8546 42.0694 21.4586 42.2484 21.0973C42.4307 20.7327 42.6776 20.4295 42.9892 20.1875C43.3007 19.9422 43.6487 19.7865 44.0332 19.7202V19.6605C43.5261 19.5379 43.1201 19.2661 42.8152 18.8452C42.5102 18.4242 42.3594 17.9403 42.3627 17.3935C42.3594 16.8731 42.497 16.4091 42.7754 16.0014C43.0571 15.5904 43.4432 15.2673 43.9338 15.032C44.4243 14.7966 44.9828 14.679 45.6092 14.679C46.229 14.679 46.7825 14.7983 47.2697 15.0369C47.7602 15.2723 48.1464 15.5954 48.4281 16.0064C48.7098 16.4141 48.8523 16.8764 48.8556 17.3935C48.8523 17.9403 48.6966 18.4242 48.3883 18.8452C48.0801 19.2661 47.679 19.5379 47.1852 19.6605V19.7202C47.5663 19.7865 47.9094 19.9422 48.2143 20.1875C48.5225 20.4295 48.7678 20.7327 48.9501 21.0973C49.1357 21.4586 49.2302 21.8546 49.2335 22.2855C49.2302 22.8357 49.0744 23.3262 48.7662 23.7571C48.4579 24.188 48.0304 24.526 47.4835 24.7713C46.9399 25.0166 46.3152 25.1392 45.6092 25.1392ZM45.6092 23.8814C46.0301 23.8814 46.3947 23.8118 46.7029 23.6726C47.0112 23.5301 47.2498 23.3329 47.4189 23.081C47.5879 22.8258 47.6741 22.5275 47.6774 22.1861C47.6741 21.8314 47.5813 21.5182 47.399 21.2464C47.22 20.9747 46.9764 20.7609 46.6681 20.6051C46.3599 20.4493 46.0069 20.3714 45.6092 20.3714C45.2082 20.3714 44.8519 20.4493 44.5403 20.6051C44.2288 20.7609 43.9835 20.9747 43.8045 21.2464C43.6255 21.5182 43.5377 21.8314 43.541 22.1861C43.5377 22.5275 43.6189 22.8258 43.7846 23.081C43.9537 23.3329 44.194 23.5301 44.5055 23.6726C44.8171 23.8118 45.185 23.8814 45.6092 23.8814ZM45.6092 19.1435C45.9473 19.1435 46.2472 19.0755 46.5091 18.9396C46.7709 18.8037 46.9764 18.6148 47.1255 18.3729C47.278 18.1309 47.3559 17.8475 47.3592 17.5227C47.3559 17.2045 47.2797 16.9261 47.1305 16.6875C46.9847 16.4489 46.7808 16.2649 46.519 16.1357C46.2572 16.0031 45.9539 15.9368 45.6092 15.9368C45.2579 15.9368 44.9496 16.0031 44.6845 16.1357C44.4226 16.2649 44.2188 16.4489 44.073 16.6875C43.9271 16.9261 43.8559 17.2045 43.8592 17.5227C43.8559 17.8475 43.9288 18.1309 44.0779 18.3729C44.2271 18.6148 44.4326 18.8037 44.6944 18.9396C44.9596 19.0755 45.2645 19.1435 45.6092 19.1435ZM54.5593 25.169C53.7738 25.1657 53.1026 24.9586 52.5458 24.5476C51.989 24.1366 51.5631 23.5384 51.2681 22.7528C50.9731 21.9673 50.8256 21.0211 50.8256 19.9141C50.8256 18.8104 50.9731 17.8674 51.2681 17.0852C51.5664 16.303 51.994 15.7064 52.5508 15.2955C53.1109 14.8845 53.7804 14.679 54.5593 14.679C55.3382 14.679 56.006 14.8861 56.5629 15.3004C57.1197 15.7114 57.5456 16.308 57.8406 17.0902C58.1388 17.8691 58.288 18.8104 58.288 19.9141C58.288 21.0244 58.1405 21.9723 57.8455 22.7578C57.5505 23.54 57.1246 24.1383 56.5678 24.5526C56.011 24.9635 55.3415 25.169 54.5593 25.169ZM54.5593 23.8416C55.2487 23.8416 55.7873 23.5052 56.1751 22.8324C56.5662 22.1596 56.7617 21.1868 56.7617 19.9141C56.7617 19.0689 56.6722 18.3546 56.4933 17.7713C56.3176 17.1847 56.064 16.7405 55.7326 16.4389C55.4045 16.134 55.0134 15.9815 54.5593 15.9815C53.8732 15.9815 53.3346 16.3196 52.9435 16.9957C52.5524 17.6719 52.3552 18.6446 52.3519 19.9141C52.3519 20.7625 52.4397 21.4801 52.6154 22.0668C52.7944 22.6501 53.0479 23.0926 53.3761 23.3942C53.7042 23.6925 54.0986 23.8416 54.5593 23.8416ZM63.5964 25.169C62.8109 25.1657 62.1397 24.9586 61.5829 24.5476C61.0261 24.1366 60.6002 23.5384 60.3052 22.7528C60.0102 21.9673 59.8627 21.0211 59.8627 19.9141C59.8627 18.8104 60.0102 17.8674 60.3052 17.0852C60.6035 16.303 61.0311 15.7064 61.5879 15.2955C62.148 14.8845 62.8175 14.679 63.5964 14.679C64.3753 14.679 65.0431 14.8861 65.6 15.3004C66.1568 15.7114 66.5827 16.308 66.8777 17.0902C67.176 17.8691 67.3251 18.8104 67.3251 19.9141C67.3251 21.0244 67.1776 21.9723 66.8826 22.7578C66.5877 23.54 66.1618 24.1383 65.6049 24.5526C65.0481 24.9635 64.3786 25.169 63.5964 25.169ZM63.5964 23.8416C64.2858 23.8416 64.8244 23.5052 65.2122 22.8324C65.6033 22.1596 65.7988 21.1868 65.7988 19.9141C65.7988 19.0689 65.7093 18.3546 65.5304 17.7713C65.3547 17.1847 65.1011 16.7405 64.7697 16.4389C64.4416 16.134 64.0505 15.9815 63.5964 15.9815C62.9103 15.9815 62.3717 16.3196 61.9806 16.9957C61.5895 17.6719 61.3923 18.6446 61.389 19.9141C61.389 20.7625 61.4769 21.4801 61.6525 22.0668C61.8315 22.6501 62.085 23.0926 62.4132 23.3942C62.7413 23.6925 63.1357 23.8416 63.5964 23.8416Z" fill="white"/>
</svg>
