<svg width="342" height="40" viewBox="0 0 342 40" fill="none" xmlns="http://www.w3.org/2000/svg">
<rect width="341.333" height="40" fill="#96A2F3"/>
<path d="M13.1186 25V14.8182H16.8473C17.5698 14.8182 18.1681 14.9375 18.642 15.1761C19.116 15.4115 19.4706 15.7313 19.706 16.1357C19.9413 16.5367 20.0589 16.9891 20.0589 17.4929C20.0589 17.9171 19.9811 18.2751 19.8253 18.5668C19.6695 18.8551 19.4607 19.0871 19.1989 19.2628C18.9403 19.4351 18.6553 19.5611 18.3438 19.6406V19.7401C18.6818 19.7566 19.0116 19.866 19.3331 20.0682C19.6579 20.267 19.9264 20.5504 20.1385 20.9183C20.3506 21.2862 20.4567 21.7337 20.4567 22.2607C20.4567 22.781 20.334 23.2483 20.0888 23.6626C19.8468 24.0736 19.4723 24.4001 18.9652 24.642C18.4581 24.8807 17.8101 25 17.0213 25H13.1186ZM14.6548 23.6825H16.8722C17.608 23.6825 18.1349 23.54 18.4531 23.255C18.7713 22.9699 18.9304 22.6136 18.9304 22.1861C18.9304 21.8646 18.8492 21.5696 18.6868 21.3011C18.5244 21.0327 18.2924 20.8189 17.9908 20.6598C17.6925 20.5007 17.3378 20.4212 16.9268 20.4212H14.6548V23.6825ZM14.6548 19.223H16.7131C17.0578 19.223 17.3677 19.1567 17.6428 19.0241C17.9212 18.8916 18.1416 18.706 18.304 18.4673C18.4697 18.2254 18.5526 17.9403 18.5526 17.6122C18.5526 17.1913 18.4051 16.8383 18.1101 16.5533C17.8151 16.2682 17.3627 16.1257 16.7528 16.1257H14.6548V19.223ZM23.646 14.8182V25H22.1594V14.8182H23.646ZM30.4831 21.8331V17.3636H31.9746V25H30.513V23.6776H30.4334C30.2578 24.0852 29.976 24.425 29.5882 24.6967C29.2038 24.9652 28.7248 25.0994 28.1515 25.0994C27.6609 25.0994 27.2267 24.9917 26.8489 24.7763C26.4744 24.5575 26.1794 24.2344 25.964 23.8068C25.7518 23.3793 25.6458 22.8506 25.6458 22.2209V17.3636H27.1323V22.0419C27.1323 22.5623 27.2765 22.9766 27.5648 23.2848C27.8532 23.593 28.2277 23.7472 28.6884 23.7472C28.9668 23.7472 29.2435 23.6776 29.5186 23.5384C29.7971 23.3991 30.0274 23.1887 30.2097 22.907C30.3953 22.6252 30.4864 22.2673 30.4831 21.8331ZM37.2631 25.1541C36.5108 25.1541 35.8628 24.9934 35.3192 24.6719C34.779 24.3471 34.3614 23.8913 34.0664 23.3047C33.7747 22.7147 33.6289 22.0237 33.6289 21.2315C33.6289 20.4493 33.7747 19.7599 34.0664 19.1634C34.3614 18.5668 34.7724 18.1011 35.2994 17.7663C35.8297 17.4316 36.4495 17.2642 37.1587 17.2642C37.5896 17.2642 38.0072 17.3355 38.4116 17.478C38.8159 17.6205 39.1789 17.8442 39.5004 18.1491C39.8219 18.4541 40.0754 18.8501 40.261 19.3374C40.4466 19.8213 40.5394 20.4096 40.5394 21.1023V21.6293H34.4691V20.5156H39.0827C39.0827 20.1245 39.0032 19.7782 38.8441 19.4766C38.685 19.1716 38.4613 18.9313 38.1729 18.7557C37.8879 18.58 37.5531 18.4922 37.1687 18.4922C36.7511 18.4922 36.3865 18.5949 36.0749 18.8004C35.7667 19.0026 35.5281 19.2678 35.359 19.5959C35.1933 19.9207 35.1104 20.2737 35.1104 20.6548V21.5249C35.1104 22.0353 35.1999 22.4695 35.3789 22.8274C35.5612 23.1854 35.8147 23.4588 36.1396 23.6477C36.4644 23.8333 36.8439 23.9261 37.2781 23.9261C37.5598 23.9261 37.8166 23.8864 38.0487 23.8068C38.2807 23.724 38.4812 23.6013 38.6502 23.4389C38.8192 23.2765 38.9485 23.076 39.038 22.8374L40.445 23.0909C40.3323 23.5052 40.1301 23.8681 39.8384 24.1797C39.5501 24.4879 39.1871 24.7282 38.7496 24.9006C38.3155 25.0696 37.82 25.1541 37.2631 25.1541ZM45.7136 25.1392C45.0308 25.1392 44.421 25.0215 43.8841 24.7862C43.3504 24.5509 42.9279 24.2244 42.6163 23.8068C42.3081 23.3859 42.1423 22.8987 42.1191 22.3452H43.6802C43.7001 22.6468 43.8012 22.9086 43.9835 23.1307C44.1691 23.3494 44.411 23.5185 44.7093 23.6378C45.0076 23.7571 45.3391 23.8168 45.7037 23.8168C46.1047 23.8168 46.4593 23.7472 46.7676 23.608C47.0791 23.4687 47.3227 23.2749 47.4984 23.0263C47.6741 22.7744 47.7619 22.4844 47.7619 22.1562C47.7619 21.8149 47.6741 21.5149 47.4984 21.2564C47.3261 20.9946 47.0725 20.7891 46.7377 20.6399C46.4063 20.4908 46.0053 20.4162 45.5346 20.4162H44.6745V19.1634H45.5346C45.9125 19.1634 46.2439 19.0954 46.5289 18.9595C46.8173 18.8236 47.0427 18.6347 47.2051 18.3928C47.3675 18.1475 47.4487 17.8608 47.4487 17.5327C47.4487 17.2178 47.3774 16.9444 47.2349 16.7124C47.0957 16.477 46.8968 16.2931 46.6383 16.1605C46.3831 16.0279 46.0815 15.9616 45.7335 15.9616C45.402 15.9616 45.0922 16.023 44.8038 16.1456C44.5188 16.2649 44.2868 16.4373 44.1078 16.6626C43.9288 16.8847 43.8327 17.1515 43.8194 17.4631H42.3329C42.3495 16.9129 42.5119 16.429 42.8201 16.0114C43.1317 15.5937 43.5427 15.2673 44.0531 15.032C44.5635 14.7966 45.1303 14.679 45.7534 14.679C46.4063 14.679 46.9698 14.8066 47.4437 15.0618C47.921 15.3137 48.2889 15.6501 48.5474 16.071C48.8092 16.492 48.9385 16.9527 48.9352 17.4531C48.9385 18.0232 48.7794 18.5071 48.4579 18.9048C48.1397 19.3026 47.7155 19.5694 47.1852 19.7053V19.7848C47.8613 19.8875 48.385 20.156 48.7562 20.5902C49.1307 21.0244 49.3163 21.563 49.313 22.206C49.3163 22.7661 49.1606 23.2682 48.8457 23.7124C48.5342 24.1565 48.1083 24.5062 47.568 24.7614C47.0278 25.0133 46.4096 25.1392 45.7136 25.1392ZM54.737 25.169C53.9515 25.1657 53.2804 24.9586 52.7235 24.5476C52.1667 24.1366 51.7408 23.5384 51.4458 22.7528C51.1509 21.9673 51.0034 21.0211 51.0034 19.9141C51.0034 18.8104 51.1509 17.8674 51.4458 17.0852C51.7441 16.303 52.1717 15.7064 52.7285 15.2955C53.2886 14.8845 53.9582 14.679 54.737 14.679C55.5159 14.679 56.1838 14.8861 56.7406 15.3004C57.2974 15.7114 57.7233 16.308 58.0183 17.0902C58.3166 17.8691 58.4657 18.8104 58.4657 19.9141C58.4657 21.0244 58.3182 21.9723 58.0233 22.7578C57.7283 23.54 57.3024 24.1383 56.7456 24.5526C56.1887 24.9635 55.5192 25.169 54.737 25.169ZM54.737 23.8416C55.4264 23.8416 55.965 23.5052 56.3528 22.8324C56.7439 22.1596 56.9395 21.1868 56.9395 19.9141C56.9395 19.0689 56.85 18.3546 56.671 17.7713C56.4953 17.1847 56.2418 16.7405 55.9103 16.4389C55.5822 16.134 55.1911 15.9815 54.737 15.9815C54.051 15.9815 53.5124 16.3196 53.1213 16.9957C52.7302 17.6719 52.533 18.6446 52.5297 19.9141C52.5297 20.7625 52.6175 21.4801 52.7931 22.0668C52.9721 22.6501 53.2257 23.0926 53.5538 23.3942C53.8819 23.6925 54.2763 23.8416 54.737 23.8416ZM63.7741 25.169C62.9886 25.1657 62.3175 24.9586 61.7607 24.5476C61.2038 24.1366 60.7779 23.5384 60.483 22.7528C60.188 21.9673 60.0405 21.0211 60.0405 19.9141C60.0405 18.8104 60.188 17.8674 60.483 17.0852C60.7813 16.303 61.2088 15.7064 61.7656 15.2955C62.3258 14.8845 62.9953 14.679 63.7741 14.679C64.553 14.679 65.2209 14.8861 65.7777 15.3004C66.3345 15.7114 66.7604 16.308 67.0554 17.0902C67.3537 17.8691 67.5028 18.8104 67.5028 19.9141C67.5028 21.0244 67.3554 21.9723 67.0604 22.7578C66.7654 23.54 66.3395 24.1383 65.7827 24.5526C65.2259 24.9635 64.5563 25.169 63.7741 25.169ZM63.7741 23.8416C64.4635 23.8416 65.0021 23.5052 65.3899 22.8324C65.781 22.1596 65.9766 21.1868 65.9766 19.9141C65.9766 19.0689 65.8871 18.3546 65.7081 17.7713C65.5324 17.1847 65.2789 16.7405 64.9474 16.4389C64.6193 16.134 64.2282 15.9815 63.7741 15.9815C63.0881 15.9815 62.5495 16.3196 62.1584 16.9957C61.7673 17.6719 61.5701 18.6446 61.5668 19.9141C61.5668 20.7625 61.6546 21.4801 61.8303 22.0668C62.0092 22.6501 62.2628 23.0926 62.5909 23.3942C62.919 23.6925 63.3134 23.8416 63.7741 23.8416Z" fill="#0A0A0B"/>
</svg>
