<svg width="342" height="40" viewBox="0 0 342 40" fill="none" xmlns="http://www.w3.org/2000/svg">
<rect width="341.333" height="40" fill="#3A4ECF"/>
<path d="M13.1186 25V14.8182H16.8473C17.5698 14.8182 18.1681 14.9375 18.642 15.1761C19.116 15.4115 19.4706 15.7313 19.706 16.1357C19.9413 16.5367 20.0589 16.9891 20.0589 17.4929C20.0589 17.9171 19.9811 18.2751 19.8253 18.5668C19.6695 18.8551 19.4607 19.0871 19.1989 19.2628C18.9403 19.4351 18.6553 19.5611 18.3438 19.6406V19.7401C18.6818 19.7566 19.0116 19.866 19.3331 20.0682C19.6579 20.267 19.9264 20.5504 20.1385 20.9183C20.3506 21.2862 20.4567 21.7337 20.4567 22.2607C20.4567 22.781 20.334 23.2483 20.0888 23.6626C19.8468 24.0736 19.4723 24.4001 18.9652 24.642C18.4581 24.8807 17.8101 25 17.0213 25H13.1186ZM14.6548 23.6825H16.8722C17.608 23.6825 18.1349 23.54 18.4531 23.255C18.7713 22.9699 18.9304 22.6136 18.9304 22.1861C18.9304 21.8646 18.8492 21.5696 18.6868 21.3011C18.5244 21.0327 18.2924 20.8189 17.9908 20.6598C17.6925 20.5007 17.3378 20.4212 16.9268 20.4212H14.6548V23.6825ZM14.6548 19.223H16.7131C17.0578 19.223 17.3677 19.1567 17.6428 19.0241C17.9212 18.8916 18.1416 18.706 18.304 18.4673C18.4697 18.2254 18.5526 17.9403 18.5526 17.6122C18.5526 17.1913 18.4051 16.8383 18.1101 16.5533C17.8151 16.2682 17.3627 16.1257 16.7528 16.1257H14.6548V19.223ZM23.646 14.8182V25H22.1594V14.8182H23.646ZM30.4831 21.8331V17.3636H31.9746V25H30.513V23.6776H30.4334C30.2578 24.0852 29.976 24.425 29.5882 24.6967C29.2038 24.9652 28.7248 25.0994 28.1515 25.0994C27.6609 25.0994 27.2267 24.9917 26.8489 24.7763C26.4744 24.5575 26.1794 24.2344 25.964 23.8068C25.7518 23.3793 25.6458 22.8506 25.6458 22.2209V17.3636H27.1323V22.0419C27.1323 22.5623 27.2765 22.9766 27.5648 23.2848C27.8532 23.593 28.2277 23.7472 28.6884 23.7472C28.9668 23.7472 29.2435 23.6776 29.5186 23.5384C29.7971 23.3991 30.0274 23.1887 30.2097 22.907C30.3953 22.6252 30.4864 22.2673 30.4831 21.8331ZM37.2631 25.1541C36.5108 25.1541 35.8628 24.9934 35.3192 24.6719C34.779 24.3471 34.3614 23.8913 34.0664 23.3047C33.7747 22.7147 33.6289 22.0237 33.6289 21.2315C33.6289 20.4493 33.7747 19.7599 34.0664 19.1634C34.3614 18.5668 34.7724 18.1011 35.2994 17.7663C35.8297 17.4316 36.4495 17.2642 37.1587 17.2642C37.5896 17.2642 38.0072 17.3355 38.4116 17.478C38.8159 17.6205 39.1789 17.8442 39.5004 18.1491C39.8219 18.4541 40.0754 18.8501 40.261 19.3374C40.4466 19.8213 40.5394 20.4096 40.5394 21.1023V21.6293H34.4691V20.5156H39.0827C39.0827 20.1245 39.0032 19.7782 38.8441 19.4766C38.685 19.1716 38.4613 18.9313 38.1729 18.7557C37.8879 18.58 37.5531 18.4922 37.1687 18.4922C36.7511 18.4922 36.3865 18.5949 36.0749 18.8004C35.7667 19.0026 35.5281 19.2678 35.359 19.5959C35.1933 19.9207 35.1104 20.2737 35.1104 20.6548V21.5249C35.1104 22.0353 35.1999 22.4695 35.3789 22.8274C35.5612 23.1854 35.8147 23.4588 36.1396 23.6477C36.4644 23.8333 36.8439 23.9261 37.2781 23.9261C37.5598 23.9261 37.8166 23.8864 38.0487 23.8068C38.2807 23.724 38.4812 23.6013 38.6502 23.4389C38.8192 23.2765 38.9485 23.076 39.038 22.8374L40.445 23.0909C40.3323 23.5052 40.1301 23.8681 39.8384 24.1797C39.5501 24.4879 39.1871 24.7282 38.7496 24.9006C38.3155 25.0696 37.82 25.1541 37.2631 25.1541ZM42.5119 25L46.9565 16.2102V16.1357H41.8159V14.8182H48.5474V16.1804L44.1177 25H42.5119ZM53.6023 25.169C52.8168 25.1657 52.1456 24.9586 51.5888 24.5476C51.032 24.1366 50.6061 23.5384 50.3111 22.7528C50.0161 21.9673 49.8686 21.0211 49.8686 19.9141C49.8686 18.8104 50.0161 17.8674 50.3111 17.0852C50.6094 16.303 51.0369 15.7064 51.5938 15.2955C52.1539 14.8845 52.8234 14.679 53.6023 14.679C54.3812 14.679 55.049 14.8861 55.6058 15.3004C56.1626 15.7114 56.5885 16.308 56.8835 17.0902C57.1818 17.8691 57.331 18.8104 57.331 19.9141C57.331 21.0244 57.1835 21.9723 56.8885 22.7578C56.5935 23.54 56.1676 24.1383 55.6108 24.5526C55.054 24.9635 54.3845 25.169 53.6023 25.169ZM53.6023 23.8416C54.2917 23.8416 54.8303 23.5052 55.218 22.8324C55.6091 22.1596 55.8047 21.1868 55.8047 19.9141C55.8047 19.0689 55.7152 18.3546 55.5362 17.7713C55.3606 17.1847 55.107 16.7405 54.7756 16.4389C54.4474 16.134 54.0563 15.9815 53.6023 15.9815C52.9162 15.9815 52.3776 16.3196 51.9865 16.9957C51.5954 17.6719 51.3982 18.6446 51.3949 19.9141C51.3949 20.7625 51.4827 21.4801 51.6584 22.0668C51.8374 22.6501 52.0909 23.0926 52.419 23.3942C52.7472 23.6925 53.1416 23.8416 53.6023 23.8416ZM62.6394 25.169C61.8539 25.1657 61.1827 24.9586 60.6259 24.5476C60.0691 24.1366 59.6432 23.5384 59.3482 22.7528C59.0532 21.9673 58.9057 21.0211 58.9057 19.9141C58.9057 18.8104 59.0532 17.8674 59.3482 17.0852C59.6465 16.303 60.074 15.7064 60.6309 15.2955C61.191 14.8845 61.8605 14.679 62.6394 14.679C63.4183 14.679 64.0861 14.8861 64.6429 15.3004C65.1998 15.7114 65.6257 16.308 65.9206 17.0902C66.2189 17.8691 66.3681 18.8104 66.3681 19.9141C66.3681 21.0244 66.2206 21.9723 65.9256 22.7578C65.6306 23.54 65.2047 24.1383 64.6479 24.5526C64.0911 24.9635 63.4216 25.169 62.6394 25.169ZM62.6394 23.8416C63.3288 23.8416 63.8674 23.5052 64.2551 22.8324C64.6462 22.1596 64.8418 21.1868 64.8418 19.9141C64.8418 19.0689 64.7523 18.3546 64.5733 17.7713C64.3977 17.1847 64.1441 16.7405 63.8127 16.4389C63.4846 16.134 63.0935 15.9815 62.6394 15.9815C61.9533 15.9815 61.4147 16.3196 61.0236 16.9957C60.6325 17.6719 60.4353 18.6446 60.432 19.9141C60.432 20.7625 60.5198 21.4801 60.6955 22.0668C60.8745 22.6501 61.128 23.0926 61.4561 23.3942C61.7843 23.6925 62.1787 23.8416 62.6394 23.8416Z" fill="white"/>
</svg>
