<svg width="342" height="40" viewBox="0 0 342 40" fill="none" xmlns="http://www.w3.org/2000/svg">
<rect width="341.333" height="40" fill="#7081F0"/>
<path d="M13.1186 25V14.8182H16.8473C17.5698 14.8182 18.1681 14.9375 18.642 15.1761C19.116 15.4115 19.4706 15.7313 19.706 16.1357C19.9413 16.5367 20.0589 16.9891 20.0589 17.4929C20.0589 17.9171 19.9811 18.2751 19.8253 18.5668C19.6695 18.8551 19.4607 19.0871 19.1989 19.2628C18.9403 19.4351 18.6553 19.5611 18.3438 19.6406V19.7401C18.6818 19.7566 19.0116 19.866 19.3331 20.0682C19.6579 20.267 19.9264 20.5504 20.1385 20.9183C20.3506 21.2862 20.4567 21.7337 20.4567 22.2607C20.4567 22.781 20.334 23.2483 20.0888 23.6626C19.8468 24.0736 19.4723 24.4001 18.9652 24.642C18.4581 24.8807 17.8101 25 17.0213 25H13.1186ZM14.6548 23.6825H16.8722C17.608 23.6825 18.1349 23.54 18.4531 23.255C18.7713 22.9699 18.9304 22.6136 18.9304 22.1861C18.9304 21.8646 18.8492 21.5696 18.6868 21.3011C18.5244 21.0327 18.2924 20.8189 17.9908 20.6598C17.6925 20.5007 17.3378 20.4212 16.9268 20.4212H14.6548V23.6825ZM14.6548 19.223H16.7131C17.0578 19.223 17.3677 19.1567 17.6428 19.0241C17.9212 18.8916 18.1416 18.706 18.304 18.4673C18.4697 18.2254 18.5526 17.9403 18.5526 17.6122C18.5526 17.1913 18.4051 16.8383 18.1101 16.5533C17.8151 16.2682 17.3627 16.1257 16.7528 16.1257H14.6548V19.223ZM23.646 14.8182V25H22.1594V14.8182H23.646ZM30.4831 21.8331V17.3636H31.9746V25H30.513V23.6776H30.4334C30.2578 24.0852 29.976 24.425 29.5882 24.6967C29.2038 24.9652 28.7248 25.0994 28.1515 25.0994C27.6609 25.0994 27.2267 24.9917 26.8489 24.7763C26.4744 24.5575 26.1794 24.2344 25.964 23.8068C25.7518 23.3793 25.6458 22.8506 25.6458 22.2209V17.3636H27.1323V22.0419C27.1323 22.5623 27.2765 22.9766 27.5648 23.2848C27.8532 23.593 28.2277 23.7472 28.6884 23.7472C28.9668 23.7472 29.2435 23.6776 29.5186 23.5384C29.7971 23.3991 30.0274 23.1887 30.2097 22.907C30.3953 22.6252 30.4864 22.2673 30.4831 21.8331ZM37.2631 25.1541C36.5108 25.1541 35.8628 24.9934 35.3192 24.6719C34.779 24.3471 34.3614 23.8913 34.0664 23.3047C33.7747 22.7147 33.6289 22.0237 33.6289 21.2315C33.6289 20.4493 33.7747 19.7599 34.0664 19.1634C34.3614 18.5668 34.7724 18.1011 35.2994 17.7663C35.8297 17.4316 36.4495 17.2642 37.1587 17.2642C37.5896 17.2642 38.0072 17.3355 38.4116 17.478C38.8159 17.6205 39.1789 17.8442 39.5004 18.1491C39.8219 18.4541 40.0754 18.8501 40.261 19.3374C40.4466 19.8213 40.5394 20.4096 40.5394 21.1023V21.6293H34.4691V20.5156H39.0827C39.0827 20.1245 39.0032 19.7782 38.8441 19.4766C38.685 19.1716 38.4613 18.9313 38.1729 18.7557C37.8879 18.58 37.5531 18.4922 37.1687 18.4922C36.7511 18.4922 36.3865 18.5949 36.0749 18.8004C35.7667 19.0026 35.5281 19.2678 35.359 19.5959C35.1933 19.9207 35.1104 20.2737 35.1104 20.6548V21.5249C35.1104 22.0353 35.1999 22.4695 35.3789 22.8274C35.5612 23.1854 35.8147 23.4588 36.1396 23.6477C36.4644 23.8333 36.8439 23.9261 37.2781 23.9261C37.5598 23.9261 37.8166 23.8864 38.0487 23.8068C38.2807 23.724 38.4812 23.6013 38.6502 23.4389C38.8192 23.2765 38.9485 23.076 39.038 22.8374L40.445 23.0909C40.3323 23.5052 40.1301 23.8681 39.8384 24.1797C39.5501 24.4879 39.1871 24.7282 38.7496 24.9006C38.3155 25.0696 37.82 25.1541 37.2631 25.1541ZM41.9551 23.0114V21.7685L46.3549 14.8182H47.3343V16.6477H46.7129L43.5659 21.6293V21.7088H49.5964V23.0114H41.9551ZM46.7825 25V22.6335L46.7924 22.0668V14.8182H48.2491V25H46.7825ZM54.8738 25.169C54.0882 25.1657 53.4171 24.9586 52.8603 24.5476C52.3034 24.1366 51.8775 23.5384 51.5826 22.7528C51.2876 21.9673 51.1401 21.0211 51.1401 19.9141C51.1401 18.8104 51.2876 17.8674 51.5826 17.0852C51.8809 16.303 52.3084 15.7064 52.8652 15.2955C53.4254 14.8845 54.0949 14.679 54.8738 14.679C55.6526 14.679 56.3205 14.8861 56.8773 15.3004C57.4341 15.7114 57.86 16.308 58.155 17.0902C58.4533 17.8691 58.6025 18.8104 58.6025 19.9141C58.6025 21.0244 58.455 21.9723 58.16 22.7578C57.865 23.54 57.4391 24.1383 56.8823 24.5526C56.3255 24.9635 55.656 25.169 54.8738 25.169ZM54.8738 23.8416C55.5632 23.8416 56.1017 23.5052 56.4895 22.8324C56.8806 22.1596 57.0762 21.1868 57.0762 19.9141C57.0762 19.0689 56.9867 18.3546 56.8077 17.7713C56.632 17.1847 56.3785 16.7405 56.0471 16.4389C55.7189 16.134 55.3278 15.9815 54.8738 15.9815C54.1877 15.9815 53.6491 16.3196 53.258 16.9957C52.8669 17.6719 52.6697 18.6446 52.6664 19.9141C52.6664 20.7625 52.7542 21.4801 52.9299 22.0668C53.1088 22.6501 53.3624 23.0926 53.6905 23.3942C54.0186 23.6925 54.4131 23.8416 54.8738 23.8416ZM63.9109 25.169C63.1254 25.1657 62.4542 24.9586 61.8974 24.5476C61.3406 24.1366 60.9147 23.5384 60.6197 22.7528C60.3247 21.9673 60.1772 21.0211 60.1772 19.9141C60.1772 18.8104 60.3247 17.8674 60.6197 17.0852C60.918 16.303 61.3455 15.7064 61.9023 15.2955C62.4625 14.8845 63.132 14.679 63.9109 14.679C64.6897 14.679 65.3576 14.8861 65.9144 15.3004C66.4712 15.7114 66.8971 16.308 67.1921 17.0902C67.4904 17.8691 67.6396 18.8104 67.6396 19.9141C67.6396 21.0244 67.4921 21.9723 67.1971 22.7578C66.9021 23.54 66.4762 24.1383 65.9194 24.5526C65.3626 24.9635 64.6931 25.169 63.9109 25.169ZM63.9109 23.8416C64.6003 23.8416 65.1388 23.5052 65.5266 22.8324C65.9177 22.1596 66.1133 21.1868 66.1133 19.9141C66.1133 19.0689 66.0238 18.3546 65.8448 17.7713C65.6692 17.1847 65.4156 16.7405 65.0842 16.4389C64.756 16.134 64.3649 15.9815 63.9109 15.9815C63.2248 15.9815 62.6862 16.3196 62.2951 16.9957C61.904 17.6719 61.7068 18.6446 61.7035 19.9141C61.7035 20.7625 61.7913 21.4801 61.967 22.0668C62.146 22.6501 62.3995 23.0926 62.7276 23.3942C63.0558 23.6925 63.4502 23.8416 63.9109 23.8416Z" fill="white"/>
</svg>
