<svg width="342" height="40" viewBox="0 0 342 40" fill="none" xmlns="http://www.w3.org/2000/svg">
<rect width="341.333" height="40" fill="#C9CFF8"/>
<path d="M13.1186 25V14.8182H16.8473C17.5698 14.8182 18.1681 14.9375 18.642 15.1761C19.116 15.4115 19.4706 15.7313 19.706 16.1357C19.9413 16.5367 20.0589 16.9891 20.0589 17.4929C20.0589 17.9171 19.9811 18.2751 19.8253 18.5668C19.6695 18.8551 19.4607 19.0871 19.1989 19.2628C18.9403 19.4351 18.6553 19.5611 18.3438 19.6406V19.7401C18.6818 19.7566 19.0116 19.866 19.3331 20.0682C19.6579 20.267 19.9264 20.5504 20.1385 20.9183C20.3506 21.2862 20.4567 21.7337 20.4567 22.2607C20.4567 22.781 20.334 23.2483 20.0888 23.6626C19.8468 24.0736 19.4723 24.4001 18.9652 24.642C18.4581 24.8807 17.8101 25 17.0213 25H13.1186ZM14.6548 23.6825H16.8722C17.608 23.6825 18.1349 23.54 18.4531 23.255C18.7713 22.9699 18.9304 22.6136 18.9304 22.1861C18.9304 21.8646 18.8492 21.5696 18.6868 21.3011C18.5244 21.0327 18.2924 20.8189 17.9908 20.6598C17.6925 20.5007 17.3378 20.4212 16.9268 20.4212H14.6548V23.6825ZM14.6548 19.223H16.7131C17.0578 19.223 17.3677 19.1567 17.6428 19.0241C17.9212 18.8916 18.1416 18.706 18.304 18.4673C18.4697 18.2254 18.5526 17.9403 18.5526 17.6122C18.5526 17.1913 18.4051 16.8383 18.1101 16.5533C17.8151 16.2682 17.3627 16.1257 16.7528 16.1257H14.6548V19.223ZM23.646 14.8182V25H22.1594V14.8182H23.646ZM30.4831 21.8331V17.3636H31.9746V25H30.513V23.6776H30.4334C30.2578 24.0852 29.976 24.425 29.5882 24.6967C29.2038 24.9652 28.7248 25.0994 28.1515 25.0994C27.6609 25.0994 27.2267 24.9917 26.8489 24.7763C26.4744 24.5575 26.1794 24.2344 25.964 23.8068C25.7518 23.3793 25.6458 22.8506 25.6458 22.2209V17.3636H27.1323V22.0419C27.1323 22.5623 27.2765 22.9766 27.5648 23.2848C27.8532 23.593 28.2277 23.7472 28.6884 23.7472C28.9668 23.7472 29.2435 23.6776 29.5186 23.5384C29.7971 23.3991 30.0274 23.1887 30.2097 22.907C30.3953 22.6252 30.4864 22.2673 30.4831 21.8331ZM37.2631 25.1541C36.5108 25.1541 35.8628 24.9934 35.3192 24.6719C34.779 24.3471 34.3614 23.8913 34.0664 23.3047C33.7747 22.7147 33.6289 22.0237 33.6289 21.2315C33.6289 20.4493 33.7747 19.7599 34.0664 19.1634C34.3614 18.5668 34.7724 18.1011 35.2994 17.7663C35.8297 17.4316 36.4495 17.2642 37.1587 17.2642C37.5896 17.2642 38.0072 17.3355 38.4116 17.478C38.8159 17.6205 39.1789 17.8442 39.5004 18.1491C39.8219 18.4541 40.0754 18.8501 40.261 19.3374C40.4466 19.8213 40.5394 20.4096 40.5394 21.1023V21.6293H34.4691V20.5156H39.0827C39.0827 20.1245 39.0032 19.7782 38.8441 19.4766C38.685 19.1716 38.4613 18.9313 38.1729 18.7557C37.8879 18.58 37.5531 18.4922 37.1687 18.4922C36.7511 18.4922 36.3865 18.5949 36.0749 18.8004C35.7667 19.0026 35.5281 19.2678 35.359 19.5959C35.1933 19.9207 35.1104 20.2737 35.1104 20.6548V21.5249C35.1104 22.0353 35.1999 22.4695 35.3789 22.8274C35.5612 23.1854 35.8147 23.4588 36.1396 23.6477C36.4644 23.8333 36.8439 23.9261 37.2781 23.9261C37.5598 23.9261 37.8166 23.8864 38.0487 23.8068C38.2807 23.724 38.4812 23.6013 38.6502 23.4389C38.8192 23.2765 38.9485 23.076 39.038 22.8374L40.445 23.0909C40.3323 23.5052 40.1301 23.8681 39.8384 24.1797C39.5501 24.4879 39.1871 24.7282 38.7496 24.9006C38.3155 25.0696 37.82 25.1541 37.2631 25.1541ZM42.1689 25V23.8864L45.6142 20.3168C45.9821 19.929 46.2853 19.5893 46.524 19.2976C46.7659 19.0026 46.9466 18.7225 47.0659 18.4574C47.1852 18.1922 47.2449 17.9105 47.2449 17.6122C47.2449 17.2741 47.1653 16.9825 47.0062 16.7372C46.8471 16.4886 46.63 16.2981 46.3549 16.1655C46.0798 16.0296 45.7699 15.9616 45.4252 15.9616C45.0607 15.9616 44.7425 16.0362 44.4707 16.1854C44.1989 16.3345 43.9901 16.545 43.8443 16.8168C43.6984 17.0885 43.6255 17.4067 43.6255 17.7713H42.1589C42.1589 17.1515 42.3014 16.6096 42.5865 16.1456C42.8715 15.6816 43.2626 15.322 43.7598 15.0668C44.2569 14.8082 44.822 14.679 45.4551 14.679C46.0948 14.679 46.6582 14.8066 47.1454 15.0618C47.6359 15.3137 48.0188 15.6584 48.2939 16.0959C48.569 16.5301 48.7065 17.0206 48.7065 17.5675C48.7065 17.9453 48.6352 18.3149 48.4927 18.6761C48.3535 19.0374 48.1099 19.4401 47.7619 19.8842C47.4139 20.325 46.93 20.8603 46.3102 21.4901L44.2868 23.608V23.6825H48.8706V25H42.1689ZM54.2995 25.169C53.514 25.1657 52.8429 24.9586 52.286 24.5476C51.7292 24.1366 51.3033 23.5384 51.0083 22.7528C50.7134 21.9673 50.5659 21.0211 50.5659 19.9141C50.5659 18.8104 50.7134 17.8674 51.0083 17.0852C51.3066 16.303 51.7342 15.7064 52.291 15.2955C52.8511 14.8845 53.5207 14.679 54.2995 14.679C55.0784 14.679 55.7463 14.8861 56.3031 15.3004C56.8599 15.7114 57.2858 16.308 57.5808 17.0902C57.8791 17.8691 58.0282 18.8104 58.0282 19.9141C58.0282 21.0244 57.8807 21.9723 57.5858 22.7578C57.2908 23.54 56.8649 24.1383 56.3081 24.5526C55.7512 24.9635 55.0817 25.169 54.2995 25.169ZM54.2995 23.8416C54.9889 23.8416 55.5275 23.5052 55.9153 22.8324C56.3064 22.1596 56.502 21.1868 56.502 19.9141C56.502 19.0689 56.4125 18.3546 56.2335 17.7713C56.0578 17.1847 55.8043 16.7405 55.4728 16.4389C55.1447 16.134 54.7536 15.9815 54.2995 15.9815C53.6135 15.9815 53.0749 16.3196 52.6838 16.9957C52.2927 17.6719 52.0955 18.6446 52.0922 19.9141C52.0922 20.7625 52.18 21.4801 52.3556 22.0668C52.5346 22.6501 52.7882 23.0926 53.1163 23.3942C53.4444 23.6925 53.8388 23.8416 54.2995 23.8416ZM63.3366 25.169C62.5511 25.1657 61.88 24.9586 61.3232 24.5476C60.7663 24.1366 60.3404 23.5384 60.0455 22.7528C59.7505 21.9673 59.603 21.0211 59.603 19.9141C59.603 18.8104 59.7505 17.8674 60.0455 17.0852C60.3438 16.303 60.7713 15.7064 61.3281 15.2955C61.8883 14.8845 62.5578 14.679 63.3366 14.679C64.1155 14.679 64.7834 14.8861 65.3402 15.3004C65.897 15.7114 66.3229 16.308 66.6179 17.0902C66.9162 17.8691 67.0653 18.8104 67.0653 19.9141C67.0653 21.0244 66.9179 21.9723 66.6229 22.7578C66.3279 23.54 65.902 24.1383 65.3452 24.5526C64.7884 24.9635 64.1188 25.169 63.3366 25.169ZM63.3366 23.8416C64.026 23.8416 64.5646 23.5052 64.9524 22.8324C65.3435 22.1596 65.5391 21.1868 65.5391 19.9141C65.5391 19.0689 65.4496 18.3546 65.2706 17.7713C65.0949 17.1847 64.8414 16.7405 64.5099 16.4389C64.1818 16.134 63.7907 15.9815 63.3366 15.9815C62.6506 15.9815 62.112 16.3196 61.7209 16.9957C61.3298 17.6719 61.1326 18.6446 61.1293 19.9141C61.1293 20.7625 61.2171 21.4801 61.3928 22.0668C61.5717 22.6501 61.8253 23.0926 62.1534 23.3942C62.4815 23.6925 62.8759 23.8416 63.3366 23.8416Z" fill="#0A0A0B"/>
</svg>
