<svg width="240" height="40" viewBox="0 0 240 40" fill="none" xmlns="http://www.w3.org/2000/svg">
<rect width="240" height="40" fill="#AAC8FC"/>
<path d="M13.1186 25V14.8182H16.8473C17.5698 14.8182 18.1681 14.9375 18.642 15.1761C19.116 15.4115 19.4706 15.7313 19.706 16.1357C19.9413 16.5367 20.0589 16.9891 20.0589 17.4929C20.0589 17.9171 19.9811 18.2751 19.8253 18.5668C19.6695 18.8551 19.4607 19.0871 19.1989 19.2628C18.9403 19.4351 18.6553 19.5611 18.3438 19.6406V19.7401C18.6818 19.7566 19.0116 19.866 19.3331 20.0682C19.6579 20.267 19.9264 20.5504 20.1385 20.9183C20.3506 21.2862 20.4567 21.7337 20.4567 22.2607C20.4567 22.781 20.334 23.2483 20.0888 23.6626C19.8468 24.0736 19.4723 24.4001 18.9652 24.642C18.4581 24.8807 17.8101 25 17.0213 25H13.1186ZM14.6548 23.6825H16.8722C17.608 23.6825 18.1349 23.54 18.4531 23.255C18.7713 22.9699 18.9304 22.6136 18.9304 22.1861C18.9304 21.8646 18.8492 21.5696 18.6868 21.3011C18.5244 21.0327 18.2924 20.8189 17.9908 20.6598C17.6925 20.5007 17.3378 20.4212 16.9268 20.4212H14.6548V23.6825ZM14.6548 19.223H16.7131C17.0578 19.223 17.3677 19.1567 17.6428 19.0241C17.9212 18.8916 18.1416 18.706 18.304 18.4673C18.4697 18.2254 18.5526 17.9403 18.5526 17.6122C18.5526 17.1913 18.4051 16.8383 18.1101 16.5533C17.8151 16.2682 17.3627 16.1257 16.7528 16.1257H14.6548V19.223ZM23.556 14.8182V25H22.0694V14.8182H23.556ZM30.3031 21.8331V17.3636H31.7946V25H30.333V23.6776H30.2534C30.0778 24.0852 29.796 24.425 29.4082 24.6967C29.0238 24.9652 28.5448 25.0994 27.9715 25.0994C27.4809 25.0994 27.0467 24.9917 26.6689 24.7763C26.2944 24.5575 25.9994 24.2344 25.784 23.8068C25.5718 23.3793 25.4658 22.8506 25.4658 22.2209V17.3636H26.9523V22.0419C26.9523 22.5623 27.0965 22.9766 27.3848 23.2848C27.6732 23.593 28.0477 23.7472 28.5084 23.7472C28.7868 23.7472 29.0635 23.6776 29.3386 23.5384C29.6171 23.3991 29.8474 23.1887 30.0297 22.907C30.2153 22.6252 30.3064 22.2673 30.3031 21.8331ZM36.9931 25.1541C36.2408 25.1541 35.5928 24.9934 35.0492 24.6719C34.509 24.3471 34.0914 23.8913 33.7964 23.3047C33.5047 22.7147 33.3589 22.0237 33.3589 21.2315C33.3589 20.4493 33.5047 19.7599 33.7964 19.1634C34.0914 18.5668 34.5024 18.1011 35.0294 17.7663C35.5597 17.4316 36.1795 17.2642 36.8887 17.2642C37.3196 17.2642 37.7372 17.3355 38.1416 17.478C38.5459 17.6205 38.9089 17.8442 39.2304 18.1491C39.5519 18.4541 39.8054 18.8501 39.991 19.3374C40.1766 19.8213 40.2694 20.4096 40.2694 21.1023V21.6293H34.1991V20.5156H38.8127C38.8127 20.1245 38.7332 19.7782 38.5741 19.4766C38.415 19.1716 38.1913 18.9313 37.9029 18.7557C37.6179 18.58 37.2831 18.4922 36.8987 18.4922C36.4811 18.4922 36.1165 18.5949 35.8049 18.8004C35.4967 19.0026 35.2581 19.2678 35.089 19.5959C34.9233 19.9207 34.8404 20.2737 34.8404 20.6548V21.5249C34.8404 22.0353 34.9299 22.4695 35.1089 22.8274C35.2912 23.1854 35.5447 23.4588 35.8696 23.6477C36.1944 23.8333 36.5739 23.9261 37.0081 23.9261C37.2898 23.9261 37.5466 23.8864 37.7787 23.8068C38.0107 23.724 38.2112 23.6013 38.3802 23.4389C38.5492 23.2765 38.6785 23.076 38.768 22.8374L40.175 23.0909C40.0623 23.5052 39.8601 23.8681 39.5684 24.1797C39.2801 24.4879 38.9171 24.7282 38.4796 24.9006C38.0455 25.0696 37.55 25.1541 36.9931 25.1541ZM45.3536 25.1392C44.6708 25.1392 44.061 25.0215 43.5241 24.7862C42.9904 24.5509 42.5679 24.2244 42.2563 23.8068C41.9481 23.3859 41.7823 22.8987 41.7591 22.3452H43.3202C43.3401 22.6468 43.4412 22.9086 43.6235 23.1307C43.8091 23.3494 44.051 23.5185 44.3493 23.6378C44.6476 23.7571 44.9791 23.8168 45.3437 23.8168C45.7447 23.8168 46.0993 23.7472 46.4076 23.608C46.7191 23.4687 46.9627 23.2749 47.1384 23.0263C47.3141 22.7744 47.4019 22.4844 47.4019 22.1562C47.4019 21.8149 47.3141 21.5149 47.1384 21.2564C46.9661 20.9946 46.7125 20.7891 46.3777 20.6399C46.0463 20.4908 45.6453 20.4162 45.1746 20.4162H44.3145V19.1634H45.1746C45.5525 19.1634 45.8839 19.0954 46.1689 18.9595C46.4573 18.8236 46.6827 18.6347 46.8451 18.3928C47.0075 18.1475 47.0887 17.8608 47.0887 17.5327C47.0887 17.2178 47.0174 16.9444 46.8749 16.7124C46.7357 16.477 46.5368 16.2931 46.2783 16.1605C46.0231 16.0279 45.7215 15.9616 45.3735 15.9616C45.042 15.9616 44.7322 16.023 44.4438 16.1456C44.1588 16.2649 43.9268 16.4373 43.7478 16.6626C43.5688 16.8847 43.4727 17.1515 43.4594 17.4631H41.9729C41.9895 16.9129 42.1519 16.429 42.4601 16.0114C42.7717 15.5937 43.1827 15.2673 43.6931 15.032C44.2035 14.7966 44.7703 14.679 45.3934 14.679C46.0463 14.679 46.6098 14.8066 47.0837 15.0618C47.561 15.3137 47.9289 15.6501 48.1874 16.071C48.4492 16.492 48.5785 16.9527 48.5752 17.4531C48.5785 18.0232 48.4194 18.5071 48.0979 18.9048C47.7797 19.3026 47.3555 19.5694 46.8252 19.7053V19.7848C47.5013 19.8875 48.025 20.156 48.3962 20.5902C48.7707 21.0244 48.9563 21.563 48.953 22.206C48.9563 22.7661 48.8006 23.2682 48.4857 23.7124C48.1741 24.1565 47.7482 24.5062 47.208 24.7614C46.6678 25.0133 46.0496 25.1392 45.3536 25.1392ZM54.287 25.169C53.5015 25.1657 52.8304 24.9586 52.2735 24.5476C51.7167 24.1366 51.2908 23.5384 50.9958 22.7528C50.7009 21.9673 50.5534 21.0211 50.5534 19.9141C50.5534 18.8104 50.7009 17.8674 50.9958 17.0852C51.2941 16.303 51.7217 15.7064 52.2785 15.2955C52.8386 14.8845 53.5082 14.679 54.287 14.679C55.0659 14.679 55.7338 14.8861 56.2906 15.3004C56.8474 15.7114 57.2733 16.308 57.5683 17.0902C57.8666 17.8691 58.0157 18.8104 58.0157 19.9141C58.0157 21.0244 57.8682 21.9723 57.5733 22.7578C57.2783 23.54 56.8524 24.1383 56.2956 24.5526C55.7387 24.9635 55.0692 25.169 54.287 25.169ZM54.287 23.8416C54.9764 23.8416 55.515 23.5052 55.9028 22.8324C56.2939 22.1596 56.4895 21.1868 56.4895 19.9141C56.4895 19.0689 56.4 18.3546 56.221 17.7713C56.0453 17.1847 55.7918 16.7405 55.4603 16.4389C55.1322 16.134 54.7411 15.9815 54.287 15.9815C53.601 15.9815 53.0624 16.3196 52.6713 16.9957C52.2802 17.6719 52.083 18.6446 52.0797 19.9141C52.0797 20.7625 52.1675 21.4801 52.3431 22.0668C52.5221 22.6501 52.7757 23.0926 53.1038 23.3942C53.4319 23.6925 53.8263 23.8416 54.287 23.8416ZM63.2341 25.169C62.4486 25.1657 61.7775 24.9586 61.2207 24.5476C60.6638 24.1366 60.2379 23.5384 59.943 22.7528C59.648 21.9673 59.5005 21.0211 59.5005 19.9141C59.5005 18.8104 59.648 17.8674 59.943 17.0852C60.2412 16.303 60.6688 15.7064 61.2256 15.2955C61.7858 14.8845 62.4553 14.679 63.2341 14.679C64.013 14.679 64.6809 14.8861 65.2377 15.3004C65.7945 15.7114 66.2204 16.308 66.5154 17.0902C66.8137 17.8691 66.9628 18.8104 66.9628 19.9141C66.9628 21.0244 66.8153 21.9723 66.5204 22.7578C66.2254 23.54 65.7995 24.1383 65.2427 24.5526C64.6859 24.9635 64.0163 25.169 63.2341 25.169ZM63.2341 23.8416C63.9235 23.8416 64.4621 23.5052 64.8499 22.8324C65.241 22.1596 65.4366 21.1868 65.4366 19.9141C65.4366 19.0689 65.3471 18.3546 65.1681 17.7713C64.9924 17.1847 64.7389 16.7405 64.4074 16.4389C64.0793 16.134 63.6882 15.9815 63.2341 15.9815C62.5481 15.9815 62.0095 16.3196 61.6184 16.9957C61.2273 17.6719 61.0301 18.6446 61.0268 19.9141C61.0268 20.7625 61.1146 21.4801 61.2903 22.0668C61.4692 22.6501 61.7228 23.0926 62.0509 23.3942C62.379 23.6925 62.7734 23.8416 63.2341 23.8416Z" fill="black"/>
</svg>
