<svg width="240" height="40" viewBox="0 0 240 40" fill="none" xmlns="http://www.w3.org/2000/svg">
<rect width="240" height="40" fill="#294DBE"/>
<path d="M13.1186 25V14.8182H16.8473C17.5698 14.8182 18.1681 14.9375 18.642 15.1761C19.116 15.4115 19.4706 15.7313 19.706 16.1357C19.9413 16.5367 20.0589 16.9891 20.0589 17.4929C20.0589 17.9171 19.9811 18.2751 19.8253 18.5668C19.6695 18.8551 19.4607 19.0871 19.1989 19.2628C18.9403 19.4351 18.6553 19.5611 18.3438 19.6406V19.7401C18.6818 19.7566 19.0116 19.866 19.3331 20.0682C19.6579 20.267 19.9264 20.5504 20.1385 20.9183C20.3506 21.2862 20.4567 21.7337 20.4567 22.2607C20.4567 22.781 20.334 23.2483 20.0888 23.6626C19.8468 24.0736 19.4723 24.4001 18.9652 24.642C18.4581 24.8807 17.8101 25 17.0213 25H13.1186ZM14.6548 23.6825H16.8722C17.608 23.6825 18.1349 23.54 18.4531 23.255C18.7713 22.9699 18.9304 22.6136 18.9304 22.1861C18.9304 21.8646 18.8492 21.5696 18.6868 21.3011C18.5244 21.0327 18.2924 20.8189 17.9908 20.6598C17.6925 20.5007 17.3378 20.4212 16.9268 20.4212H14.6548V23.6825ZM14.6548 19.223H16.7131C17.0578 19.223 17.3677 19.1567 17.6428 19.0241C17.9212 18.8916 18.1416 18.706 18.304 18.4673C18.4697 18.2254 18.5526 17.9403 18.5526 17.6122C18.5526 17.1913 18.4051 16.8383 18.1101 16.5533C17.8151 16.2682 17.3627 16.1257 16.7528 16.1257H14.6548V19.223ZM23.556 14.8182V25H22.0694V14.8182H23.556ZM30.3031 21.8331V17.3636H31.7946V25H30.333V23.6776H30.2534C30.0778 24.0852 29.796 24.425 29.4082 24.6967C29.0238 24.9652 28.5448 25.0994 27.9715 25.0994C27.4809 25.0994 27.0467 24.9917 26.6689 24.7763C26.2944 24.5575 25.9994 24.2344 25.784 23.8068C25.5718 23.3793 25.4658 22.8506 25.4658 22.2209V17.3636H26.9523V22.0419C26.9523 22.5623 27.0965 22.9766 27.3848 23.2848C27.6732 23.593 28.0477 23.7472 28.5084 23.7472C28.7868 23.7472 29.0635 23.6776 29.3386 23.5384C29.6171 23.3991 29.8474 23.1887 30.0297 22.907C30.2153 22.6252 30.3064 22.2673 30.3031 21.8331ZM36.9931 25.1541C36.2408 25.1541 35.5928 24.9934 35.0492 24.6719C34.509 24.3471 34.0914 23.8913 33.7964 23.3047C33.5047 22.7147 33.3589 22.0237 33.3589 21.2315C33.3589 20.4493 33.5047 19.7599 33.7964 19.1634C34.0914 18.5668 34.5024 18.1011 35.0294 17.7663C35.5597 17.4316 36.1795 17.2642 36.8887 17.2642C37.3196 17.2642 37.7372 17.3355 38.1416 17.478C38.5459 17.6205 38.9089 17.8442 39.2304 18.1491C39.5519 18.4541 39.8054 18.8501 39.991 19.3374C40.1766 19.8213 40.2694 20.4096 40.2694 21.1023V21.6293H34.1991V20.5156H38.8127C38.8127 20.1245 38.7332 19.7782 38.5741 19.4766C38.415 19.1716 38.1913 18.9313 37.9029 18.7557C37.6179 18.58 37.2831 18.4922 36.8987 18.4922C36.4811 18.4922 36.1165 18.5949 35.8049 18.8004C35.4967 19.0026 35.2581 19.2678 35.089 19.5959C34.9233 19.9207 34.8404 20.2737 34.8404 20.6548V21.5249C34.8404 22.0353 34.9299 22.4695 35.1089 22.8274C35.2912 23.1854 35.5447 23.4588 35.8696 23.6477C36.1944 23.8333 36.5739 23.9261 37.0081 23.9261C37.2898 23.9261 37.5466 23.8864 37.7787 23.8068C38.0107 23.724 38.2112 23.6013 38.3802 23.4389C38.5492 23.2765 38.6785 23.076 38.768 22.8374L40.175 23.0909C40.0623 23.5052 39.8601 23.8681 39.5684 24.1797C39.2801 24.4879 38.9171 24.7282 38.4796 24.9006C38.0455 25.0696 37.55 25.1541 36.9931 25.1541ZM42.1519 25L46.5965 16.2102V16.1357H41.4559V14.8182H48.1874V16.1804L43.7577 25H42.1519ZM53.1523 25.169C52.3668 25.1657 51.6956 24.9586 51.1388 24.5476C50.582 24.1366 50.1561 23.5384 49.8611 22.7528C49.5661 21.9673 49.4186 21.0211 49.4186 19.9141C49.4186 18.8104 49.5661 17.8674 49.8611 17.0852C50.1594 16.303 50.5869 15.7064 51.1437 15.2955C51.7039 14.8845 52.3734 14.679 53.1523 14.679C53.9312 14.679 54.599 14.8861 55.1558 15.3004C55.7126 15.7114 56.1385 16.308 56.4335 17.0902C56.7318 17.8691 56.881 18.8104 56.881 19.9141C56.881 21.0244 56.7335 21.9723 56.4385 22.7578C56.1435 23.54 55.7176 24.1383 55.1608 24.5526C54.604 24.9635 53.9345 25.169 53.1523 25.169ZM53.1523 23.8416C53.8417 23.8416 54.3803 23.5052 54.768 22.8324C55.1591 22.1596 55.3547 21.1868 55.3547 19.9141C55.3547 19.0689 55.2652 18.3546 55.0862 17.7713C54.9106 17.1847 54.657 16.7405 54.3256 16.4389C53.9974 16.134 53.6063 15.9815 53.1523 15.9815C52.4662 15.9815 51.9276 16.3196 51.5365 16.9957C51.1454 17.6719 50.9482 18.6446 50.9449 19.9141C50.9449 20.7625 51.0327 21.4801 51.2084 22.0668C51.3874 22.6501 51.6409 23.0926 51.969 23.3942C52.2972 23.6925 52.6916 23.8416 53.1523 23.8416ZM62.0994 25.169C61.3139 25.1657 60.6427 24.9586 60.0859 24.5476C59.5291 24.1366 59.1032 23.5384 58.8082 22.7528C58.5132 21.9673 58.3657 21.0211 58.3657 19.9141C58.3657 18.8104 58.5132 17.8674 58.8082 17.0852C59.1065 16.303 59.534 15.7064 60.0909 15.2955C60.651 14.8845 61.3205 14.679 62.0994 14.679C62.8783 14.679 63.5461 14.8861 64.1029 15.3004C64.6598 15.7114 65.0857 16.308 65.3806 17.0902C65.6789 17.8691 65.8281 18.8104 65.8281 19.9141C65.8281 21.0244 65.6806 21.9723 65.3856 22.7578C65.0906 23.54 64.6647 24.1383 64.1079 24.5526C63.5511 24.9635 62.8816 25.169 62.0994 25.169ZM62.0994 23.8416C62.7888 23.8416 63.3274 23.5052 63.7151 22.8324C64.1062 22.1596 64.3018 21.1868 64.3018 19.9141C64.3018 19.0689 64.2123 18.3546 64.0333 17.7713C63.8577 17.1847 63.6041 16.7405 63.2727 16.4389C62.9446 16.134 62.5535 15.9815 62.0994 15.9815C61.4133 15.9815 60.8747 16.3196 60.4836 16.9957C60.0925 17.6719 59.8953 18.6446 59.892 19.9141C59.892 20.7625 59.9798 21.4801 60.1555 22.0668C60.3345 22.6501 60.588 23.0926 60.9161 23.3942C61.2443 23.6925 61.6387 23.8416 62.0994 23.8416Z" fill="white"/>
</svg>
