<svg width="240" height="40" viewBox="0 0 240 40" fill="none" xmlns="http://www.w3.org/2000/svg">
<rect width="240" height="40" fill="#89ADFA"/>
<path d="M13.1186 25V14.8182H16.8473C17.5698 14.8182 18.1681 14.9375 18.642 15.1761C19.116 15.4115 19.4706 15.7313 19.706 16.1357C19.9413 16.5367 20.0589 16.9891 20.0589 17.4929C20.0589 17.9171 19.9811 18.2751 19.8253 18.5668C19.6695 18.8551 19.4607 19.0871 19.1989 19.2628C18.9403 19.4351 18.6553 19.5611 18.3438 19.6406V19.7401C18.6818 19.7566 19.0116 19.866 19.3331 20.0682C19.6579 20.267 19.9264 20.5504 20.1385 20.9183C20.3506 21.2862 20.4567 21.7337 20.4567 22.2607C20.4567 22.781 20.334 23.2483 20.0888 23.6626C19.8468 24.0736 19.4723 24.4001 18.9652 24.642C18.4581 24.8807 17.8101 25 17.0213 25H13.1186ZM14.6548 23.6825H16.8722C17.608 23.6825 18.1349 23.54 18.4531 23.255C18.7713 22.9699 18.9304 22.6136 18.9304 22.1861C18.9304 21.8646 18.8492 21.5696 18.6868 21.3011C18.5244 21.0327 18.2924 20.8189 17.9908 20.6598C17.6925 20.5007 17.3378 20.4212 16.9268 20.4212H14.6548V23.6825ZM14.6548 19.223H16.7131C17.0578 19.223 17.3677 19.1567 17.6428 19.0241C17.9212 18.8916 18.1416 18.706 18.304 18.4673C18.4697 18.2254 18.5526 17.9403 18.5526 17.6122C18.5526 17.1913 18.4051 16.8383 18.1101 16.5533C17.8151 16.2682 17.3627 16.1257 16.7528 16.1257H14.6548V19.223ZM23.556 14.8182V25H22.0694V14.8182H23.556ZM30.3031 21.8331V17.3636H31.7946V25H30.333V23.6776H30.2534C30.0778 24.0852 29.796 24.425 29.4082 24.6967C29.0238 24.9652 28.5448 25.0994 27.9715 25.0994C27.4809 25.0994 27.0467 24.9917 26.6689 24.7763C26.2944 24.5575 25.9994 24.2344 25.784 23.8068C25.5718 23.3793 25.4658 22.8506 25.4658 22.2209V17.3636H26.9523V22.0419C26.9523 22.5623 27.0965 22.9766 27.3848 23.2848C27.6732 23.593 28.0477 23.7472 28.5084 23.7472C28.7868 23.7472 29.0635 23.6776 29.3386 23.5384C29.6171 23.3991 29.8474 23.1887 30.0297 22.907C30.2153 22.6252 30.3064 22.2673 30.3031 21.8331ZM36.9931 25.1541C36.2408 25.1541 35.5928 24.9934 35.0492 24.6719C34.509 24.3471 34.0914 23.8913 33.7964 23.3047C33.5047 22.7147 33.3589 22.0237 33.3589 21.2315C33.3589 20.4493 33.5047 19.7599 33.7964 19.1634C34.0914 18.5668 34.5024 18.1011 35.0294 17.7663C35.5597 17.4316 36.1795 17.2642 36.8887 17.2642C37.3196 17.2642 37.7372 17.3355 38.1416 17.478C38.5459 17.6205 38.9089 17.8442 39.2304 18.1491C39.5519 18.4541 39.8054 18.8501 39.991 19.3374C40.1766 19.8213 40.2694 20.4096 40.2694 21.1023V21.6293H34.1991V20.5156H38.8127C38.8127 20.1245 38.7332 19.7782 38.5741 19.4766C38.415 19.1716 38.1913 18.9313 37.9029 18.7557C37.6179 18.58 37.2831 18.4922 36.8987 18.4922C36.4811 18.4922 36.1165 18.5949 35.8049 18.8004C35.4967 19.0026 35.2581 19.2678 35.089 19.5959C34.9233 19.9207 34.8404 20.2737 34.8404 20.6548V21.5249C34.8404 22.0353 34.9299 22.4695 35.1089 22.8274C35.2912 23.1854 35.5447 23.4588 35.8696 23.6477C36.1944 23.8333 36.5739 23.9261 37.0081 23.9261C37.2898 23.9261 37.5466 23.8864 37.7787 23.8068C38.0107 23.724 38.2112 23.6013 38.3802 23.4389C38.5492 23.2765 38.6785 23.076 38.768 22.8374L40.175 23.0909C40.0623 23.5052 39.8601 23.8681 39.5684 24.1797C39.2801 24.4879 38.9171 24.7282 38.4796 24.9006C38.0455 25.0696 37.55 25.1541 36.9931 25.1541ZM41.5951 23.0114V21.7685L45.9949 14.8182H46.9743V16.6477H46.3529L43.2059 21.6293V21.7088H49.2364V23.0114H41.5951ZM46.4225 25V22.6335L46.4324 22.0668V14.8182H47.8891V25H46.4225ZM54.4238 25.169C53.6382 25.1657 52.9671 24.9586 52.4103 24.5476C51.8534 24.1366 51.4275 23.5384 51.1326 22.7528C50.8376 21.9673 50.6901 21.0211 50.6901 19.9141C50.6901 18.8104 50.8376 17.8674 51.1326 17.0852C51.4309 16.303 51.8584 15.7064 52.4152 15.2955C52.9754 14.8845 53.6449 14.679 54.4238 14.679C55.2026 14.679 55.8705 14.8861 56.4273 15.3004C56.9841 15.7114 57.41 16.308 57.705 17.0902C58.0033 17.8691 58.1524 18.8104 58.1524 19.9141C58.1524 21.0244 58.005 21.9723 57.71 22.7578C57.415 23.54 56.9891 24.1383 56.4323 24.5526C55.8755 24.9635 55.206 25.169 54.4238 25.169ZM54.4238 23.8416C55.1132 23.8416 55.6517 23.5052 56.0395 22.8324C56.4306 22.1596 56.6262 21.1868 56.6262 19.9141C56.6262 19.0689 56.5367 18.3546 56.3577 17.7713C56.182 17.1847 55.9285 16.7405 55.5971 16.4389C55.2689 16.134 54.8778 15.9815 54.4238 15.9815C53.7377 15.9815 53.1991 16.3196 52.808 16.9957C52.4169 17.6719 52.2197 18.6446 52.2164 19.9141C52.2164 20.7625 52.3042 21.4801 52.4799 22.0668C52.6588 22.6501 52.9124 23.0926 53.2405 23.3942C53.5686 23.6925 53.9631 23.8416 54.4238 23.8416ZM63.3709 25.169C62.5854 25.1657 61.9142 24.9586 61.3574 24.5476C60.8006 24.1366 60.3747 23.5384 60.0797 22.7528C59.7847 21.9673 59.6372 21.0211 59.6372 19.9141C59.6372 18.8104 59.7847 17.8674 60.0797 17.0852C60.378 16.303 60.8055 15.7064 61.3623 15.2955C61.9225 14.8845 62.592 14.679 63.3709 14.679C64.1497 14.679 64.8176 14.8861 65.3744 15.3004C65.9312 15.7114 66.3571 16.308 66.6521 17.0902C66.9504 17.8691 67.0996 18.8104 67.0996 19.9141C67.0996 21.0244 66.9521 21.9723 66.6571 22.7578C66.3621 23.54 65.9362 24.1383 65.3794 24.5526C64.8226 24.9635 64.1531 25.169 63.3709 25.169ZM63.3709 23.8416C64.0603 23.8416 64.5988 23.5052 64.9866 22.8324C65.3777 22.1596 65.5733 21.1868 65.5733 19.9141C65.5733 19.0689 65.4838 18.3546 65.3048 17.7713C65.1292 17.1847 64.8756 16.7405 64.5442 16.4389C64.216 16.134 63.8249 15.9815 63.3709 15.9815C62.6848 15.9815 62.1462 16.3196 61.7551 16.9957C61.364 17.6719 61.1668 18.6446 61.1635 19.9141C61.1635 20.7625 61.2513 21.4801 61.427 22.0668C61.606 22.6501 61.8595 23.0926 62.1876 23.3942C62.5158 23.6925 62.9102 23.8416 63.3709 23.8416Z" fill="black"/>
</svg>
