<svg width="240" height="40" viewBox="0 0 240 40" fill="none" xmlns="http://www.w3.org/2000/svg">
<rect width="240" height="40" fill="#C5DCFD"/>
<path d="M13.1186 25V14.8182H16.8473C17.5698 14.8182 18.1681 14.9375 18.642 15.1761C19.116 15.4115 19.4706 15.7313 19.706 16.1357C19.9413 16.5367 20.0589 16.9891 20.0589 17.4929C20.0589 17.9171 19.9811 18.2751 19.8253 18.5668C19.6695 18.8551 19.4607 19.0871 19.1989 19.2628C18.9403 19.4351 18.6553 19.5611 18.3438 19.6406V19.7401C18.6818 19.7566 19.0116 19.866 19.3331 20.0682C19.6579 20.267 19.9264 20.5504 20.1385 20.9183C20.3506 21.2862 20.4567 21.7337 20.4567 22.2607C20.4567 22.781 20.334 23.2483 20.0888 23.6626C19.8468 24.0736 19.4723 24.4001 18.9652 24.642C18.4581 24.8807 17.8101 25 17.0213 25H13.1186ZM14.6548 23.6825H16.8722C17.608 23.6825 18.1349 23.54 18.4531 23.255C18.7713 22.9699 18.9304 22.6136 18.9304 22.1861C18.9304 21.8646 18.8492 21.5696 18.6868 21.3011C18.5244 21.0327 18.2924 20.8189 17.9908 20.6598C17.6925 20.5007 17.3378 20.4212 16.9268 20.4212H14.6548V23.6825ZM14.6548 19.223H16.7131C17.0578 19.223 17.3677 19.1567 17.6428 19.0241C17.9212 18.8916 18.1416 18.706 18.304 18.4673C18.4697 18.2254 18.5526 17.9403 18.5526 17.6122C18.5526 17.1913 18.4051 16.8383 18.1101 16.5533C17.8151 16.2682 17.3627 16.1257 16.7528 16.1257H14.6548V19.223ZM23.556 14.8182V25H22.0694V14.8182H23.556ZM30.3031 21.8331V17.3636H31.7946V25H30.333V23.6776H30.2534C30.0778 24.0852 29.796 24.425 29.4082 24.6967C29.0238 24.9652 28.5448 25.0994 27.9715 25.0994C27.4809 25.0994 27.0467 24.9917 26.6689 24.7763C26.2944 24.5575 25.9994 24.2344 25.784 23.8068C25.5718 23.3793 25.4658 22.8506 25.4658 22.2209V17.3636H26.9523V22.0419C26.9523 22.5623 27.0965 22.9766 27.3848 23.2848C27.6732 23.593 28.0477 23.7472 28.5084 23.7472C28.7868 23.7472 29.0635 23.6776 29.3386 23.5384C29.6171 23.3991 29.8474 23.1887 30.0297 22.907C30.2153 22.6252 30.3064 22.2673 30.3031 21.8331ZM36.9931 25.1541C36.2408 25.1541 35.5928 24.9934 35.0492 24.6719C34.509 24.3471 34.0914 23.8913 33.7964 23.3047C33.5047 22.7147 33.3589 22.0237 33.3589 21.2315C33.3589 20.4493 33.5047 19.7599 33.7964 19.1634C34.0914 18.5668 34.5024 18.1011 35.0294 17.7663C35.5597 17.4316 36.1795 17.2642 36.8887 17.2642C37.3196 17.2642 37.7372 17.3355 38.1416 17.478C38.5459 17.6205 38.9089 17.8442 39.2304 18.1491C39.5519 18.4541 39.8054 18.8501 39.991 19.3374C40.1766 19.8213 40.2694 20.4096 40.2694 21.1023V21.6293H34.1991V20.5156H38.8127C38.8127 20.1245 38.7332 19.7782 38.5741 19.4766C38.415 19.1716 38.1913 18.9313 37.9029 18.7557C37.6179 18.58 37.2831 18.4922 36.8987 18.4922C36.4811 18.4922 36.1165 18.5949 35.8049 18.8004C35.4967 19.0026 35.2581 19.2678 35.089 19.5959C34.9233 19.9207 34.8404 20.2737 34.8404 20.6548V21.5249C34.8404 22.0353 34.9299 22.4695 35.1089 22.8274C35.2912 23.1854 35.5447 23.4588 35.8696 23.6477C36.1944 23.8333 36.5739 23.9261 37.0081 23.9261C37.2898 23.9261 37.5466 23.8864 37.7787 23.8068C38.0107 23.724 38.2112 23.6013 38.3802 23.4389C38.5492 23.2765 38.6785 23.076 38.768 22.8374L40.175 23.0909C40.0623 23.5052 39.8601 23.8681 39.5684 24.1797C39.2801 24.4879 38.9171 24.7282 38.4796 24.9006C38.0455 25.0696 37.55 25.1541 36.9931 25.1541ZM41.8089 25V23.8864L45.2542 20.3168C45.6221 19.929 45.9253 19.5893 46.164 19.2976C46.4059 19.0026 46.5866 18.7225 46.7059 18.4574C46.8252 18.1922 46.8849 17.9105 46.8849 17.6122C46.8849 17.2741 46.8053 16.9825 46.6462 16.7372C46.4871 16.4886 46.27 16.2981 45.9949 16.1655C45.7198 16.0296 45.4099 15.9616 45.0652 15.9616C44.7007 15.9616 44.3825 16.0362 44.1107 16.1854C43.8389 16.3345 43.6301 16.545 43.4843 16.8168C43.3384 17.0885 43.2655 17.4067 43.2655 17.7713H41.7989C41.7989 17.1515 41.9414 16.6096 42.2265 16.1456C42.5115 15.6816 42.9026 15.322 43.3998 15.0668C43.8969 14.8082 44.462 14.679 45.0951 14.679C45.7348 14.679 46.2982 14.8066 46.7854 15.0618C47.2759 15.3137 47.6588 15.6584 47.9339 16.0959C48.209 16.5301 48.3465 17.0206 48.3465 17.5675C48.3465 17.9453 48.2752 18.3149 48.1327 18.6761C47.9935 19.0374 47.7499 19.4401 47.4019 19.8842C47.0539 20.325 46.57 20.8603 45.9502 21.4901L43.9268 23.608V23.6825H48.5106V25H41.8089ZM53.8495 25.169C53.064 25.1657 52.3929 24.9586 51.836 24.5476C51.2792 24.1366 50.8533 23.5384 50.5583 22.7528C50.2634 21.9673 50.1159 21.0211 50.1159 19.9141C50.1159 18.8104 50.2634 17.8674 50.5583 17.0852C50.8566 16.303 51.2842 15.7064 51.841 15.2955C52.4011 14.8845 53.0707 14.679 53.8495 14.679C54.6284 14.679 55.2963 14.8861 55.8531 15.3004C56.4099 15.7114 56.8358 16.308 57.1308 17.0902C57.4291 17.8691 57.5782 18.8104 57.5782 19.9141C57.5782 21.0244 57.4307 21.9723 57.1358 22.7578C56.8408 23.54 56.4149 24.1383 55.8581 24.5526C55.3012 24.9635 54.6317 25.169 53.8495 25.169ZM53.8495 23.8416C54.5389 23.8416 55.0775 23.5052 55.4653 22.8324C55.8564 22.1596 56.052 21.1868 56.052 19.9141C56.052 19.0689 55.9625 18.3546 55.7835 17.7713C55.6078 17.1847 55.3543 16.7405 55.0228 16.4389C54.6947 16.134 54.3036 15.9815 53.8495 15.9815C53.1635 15.9815 52.6249 16.3196 52.2338 16.9957C51.8427 17.6719 51.6455 18.6446 51.6422 19.9141C51.6422 20.7625 51.73 21.4801 51.9056 22.0668C52.0846 22.6501 52.3382 23.0926 52.6663 23.3942C52.9944 23.6925 53.3888 23.8416 53.8495 23.8416ZM62.7966 25.169C62.0111 25.1657 61.34 24.9586 60.7832 24.5476C60.2263 24.1366 59.8004 23.5384 59.5055 22.7528C59.2105 21.9673 59.063 21.0211 59.063 19.9141C59.063 18.8104 59.2105 17.8674 59.5055 17.0852C59.8037 16.303 60.2313 15.7064 60.7881 15.2955C61.3483 14.8845 62.0178 14.679 62.7966 14.679C63.5755 14.679 64.2434 14.8861 64.8002 15.3004C65.357 15.7114 65.7829 16.308 66.0779 17.0902C66.3762 17.8691 66.5253 18.8104 66.5253 19.9141C66.5253 21.0244 66.3778 21.9723 66.0829 22.7578C65.7879 23.54 65.362 24.1383 64.8052 24.5526C64.2484 24.9635 63.5788 25.169 62.7966 25.169ZM62.7966 23.8416C63.486 23.8416 64.0246 23.5052 64.4124 22.8324C64.8035 22.1596 64.9991 21.1868 64.9991 19.9141C64.9991 19.0689 64.9096 18.3546 64.7306 17.7713C64.5549 17.1847 64.3014 16.7405 63.9699 16.4389C63.6418 16.134 63.2507 15.9815 62.7966 15.9815C62.1106 15.9815 61.572 16.3196 61.1809 16.9957C60.7898 17.6719 60.5926 18.6446 60.5893 19.9141C60.5893 20.7625 60.6771 21.4801 60.8528 22.0668C61.0317 22.6501 61.2853 23.0926 61.6134 23.3942C61.9415 23.6925 62.3359 23.8416 62.7966 23.8416Z" fill="black"/>
</svg>
