<svg width="240" height="40" viewBox="0 0 240 40" fill="none" xmlns="http://www.w3.org/2000/svg">
<rect width="240" height="40" fill="#568CF6"/>
<path d="M13.1186 25V14.8182H16.8473C17.5698 14.8182 18.1681 14.9375 18.642 15.1761C19.116 15.4115 19.4706 15.7313 19.706 16.1357C19.9413 16.5367 20.0589 16.9891 20.0589 17.4929C20.0589 17.9171 19.9811 18.2751 19.8253 18.5668C19.6695 18.8551 19.4607 19.0871 19.1989 19.2628C18.9403 19.4351 18.6553 19.5611 18.3438 19.6406V19.7401C18.6818 19.7566 19.0116 19.866 19.3331 20.0682C19.6579 20.267 19.9264 20.5504 20.1385 20.9183C20.3506 21.2862 20.4567 21.7337 20.4567 22.2607C20.4567 22.781 20.334 23.2483 20.0888 23.6626C19.8468 24.0736 19.4723 24.4001 18.9652 24.642C18.4581 24.8807 17.8101 25 17.0213 25H13.1186ZM14.6548 23.6825H16.8722C17.608 23.6825 18.1349 23.54 18.4531 23.255C18.7713 22.9699 18.9304 22.6136 18.9304 22.1861C18.9304 21.8646 18.8492 21.5696 18.6868 21.3011C18.5244 21.0327 18.2924 20.8189 17.9908 20.6598C17.6925 20.5007 17.3378 20.4212 16.9268 20.4212H14.6548V23.6825ZM14.6548 19.223H16.7131C17.0578 19.223 17.3677 19.1567 17.6428 19.0241C17.9212 18.8916 18.1416 18.706 18.304 18.4673C18.4697 18.2254 18.5526 17.9403 18.5526 17.6122C18.5526 17.1913 18.4051 16.8383 18.1101 16.5533C17.8151 16.2682 17.3627 16.1257 16.7528 16.1257H14.6548V19.223ZM23.556 14.8182V25H22.0694V14.8182H23.556ZM30.3031 21.8331V17.3636H31.7946V25H30.333V23.6776H30.2534C30.0778 24.0852 29.796 24.425 29.4082 24.6967C29.0238 24.9652 28.5448 25.0994 27.9715 25.0994C27.4809 25.0994 27.0467 24.9917 26.6689 24.7763C26.2944 24.5575 25.9994 24.2344 25.784 23.8068C25.5718 23.3793 25.4658 22.8506 25.4658 22.2209V17.3636H26.9523V22.0419C26.9523 22.5623 27.0965 22.9766 27.3848 23.2848C27.6732 23.593 28.0477 23.7472 28.5084 23.7472C28.7868 23.7472 29.0635 23.6776 29.3386 23.5384C29.6171 23.3991 29.8474 23.1887 30.0297 22.907C30.2153 22.6252 30.3064 22.2673 30.3031 21.8331ZM36.9931 25.1541C36.2408 25.1541 35.5928 24.9934 35.0492 24.6719C34.509 24.3471 34.0914 23.8913 33.7964 23.3047C33.5047 22.7147 33.3589 22.0237 33.3589 21.2315C33.3589 20.4493 33.5047 19.7599 33.7964 19.1634C34.0914 18.5668 34.5024 18.1011 35.0294 17.7663C35.5597 17.4316 36.1795 17.2642 36.8887 17.2642C37.3196 17.2642 37.7372 17.3355 38.1416 17.478C38.5459 17.6205 38.9089 17.8442 39.2304 18.1491C39.5519 18.4541 39.8054 18.8501 39.991 19.3374C40.1766 19.8213 40.2694 20.4096 40.2694 21.1023V21.6293H34.1991V20.5156H38.8127C38.8127 20.1245 38.7332 19.7782 38.5741 19.4766C38.415 19.1716 38.1913 18.9313 37.9029 18.7557C37.6179 18.58 37.2831 18.4922 36.8987 18.4922C36.4811 18.4922 36.1165 18.5949 35.8049 18.8004C35.4967 19.0026 35.2581 19.2678 35.089 19.5959C34.9233 19.9207 34.8404 20.2737 34.8404 20.6548V21.5249C34.8404 22.0353 34.9299 22.4695 35.1089 22.8274C35.2912 23.1854 35.5447 23.4588 35.8696 23.6477C36.1944 23.8333 36.5739 23.9261 37.0081 23.9261C37.2898 23.9261 37.5466 23.8864 37.7787 23.8068C38.0107 23.724 38.2112 23.6013 38.3802 23.4389C38.5492 23.2765 38.6785 23.076 38.768 22.8374L40.175 23.0909C40.0623 23.5052 39.8601 23.8681 39.5684 24.1797C39.2801 24.4879 38.9171 24.7282 38.4796 24.9006C38.0455 25.0696 37.55 25.1541 36.9931 25.1541ZM45.1697 25.1392C44.5465 25.1392 43.9864 25.0199 43.4893 24.7812C42.9954 24.5393 42.601 24.2079 42.306 23.7869C42.011 23.366 41.8536 22.8854 41.8337 22.3452H43.3252C43.3616 22.7827 43.5555 23.1423 43.9069 23.424C44.2582 23.7057 44.6791 23.8466 45.1697 23.8466C45.5608 23.8466 45.9071 23.7571 46.2087 23.5781C46.5136 23.3958 46.7523 23.1456 46.9246 22.8274C47.1003 22.5092 47.1881 22.1463 47.1881 21.7386C47.1881 21.3243 47.0986 20.9548 46.9197 20.63C46.7407 20.3052 46.4938 20.05 46.1789 19.8643C45.8673 19.6787 45.5094 19.5843 45.105 19.581C44.7968 19.581 44.4869 19.634 44.1753 19.7401C43.8638 19.8461 43.6119 19.9853 43.4197 20.1577L42.0127 19.9489L42.5844 14.8182H48.1824V16.1357H43.8621L43.539 18.9844H43.5986C43.7975 18.7921 44.061 18.6314 44.3891 18.5021C44.7206 18.3729 45.0752 18.3082 45.453 18.3082C46.0728 18.3082 46.6247 18.4557 47.1086 18.7507C47.5958 19.0457 47.9786 19.4484 48.257 19.9588C48.5387 20.4659 48.6779 21.0492 48.6746 21.7088C48.6779 22.3684 48.5288 22.9567 48.2272 23.4737C47.9289 23.9908 47.5146 24.3984 46.9843 24.6967C46.4573 24.9917 45.8524 25.1392 45.1697 25.1392ZM53.9452 25.169C53.1597 25.1657 52.4886 24.9586 51.9317 24.5476C51.3749 24.1366 50.949 23.5384 50.654 22.7528C50.3591 21.9673 50.2116 21.0211 50.2116 19.9141C50.2116 18.8104 50.3591 17.8674 50.654 17.0852C50.9523 16.303 51.3799 15.7064 51.9367 15.2955C52.4969 14.8845 53.1664 14.679 53.9452 14.679C54.7241 14.679 55.392 14.8861 55.9488 15.3004C56.5056 15.7114 56.9315 16.308 57.2265 17.0902C57.5248 17.8691 57.6739 18.8104 57.6739 19.9141C57.6739 21.0244 57.5264 21.9723 57.2315 22.7578C56.9365 23.54 56.5106 24.1383 55.9538 24.5526C55.3969 24.9635 54.7274 25.169 53.9452 25.169ZM53.9452 23.8416C54.6346 23.8416 55.1732 23.5052 55.561 22.8324C55.9521 22.1596 56.1477 21.1868 56.1477 19.9141C56.1477 19.0689 56.0582 18.3546 55.8792 17.7713C55.7035 17.1847 55.45 16.7405 55.1185 16.4389C54.7904 16.134 54.3993 15.9815 53.9452 15.9815C53.2592 15.9815 52.7206 16.3196 52.3295 16.9957C51.9384 17.6719 51.7412 18.6446 51.7379 19.9141C51.7379 20.7625 51.8257 21.4801 52.0013 22.0668C52.1803 22.6501 52.4339 23.0926 52.762 23.3942C53.0901 23.6925 53.4845 23.8416 53.9452 23.8416ZM62.8923 25.169C62.1068 25.1657 61.4357 24.9586 60.8789 24.5476C60.322 24.1366 59.8961 23.5384 59.6012 22.7528C59.3062 21.9673 59.1587 21.0211 59.1587 19.9141C59.1587 18.8104 59.3062 17.8674 59.6012 17.0852C59.8995 16.303 60.327 15.7064 60.8838 15.2955C61.444 14.8845 62.1135 14.679 62.8923 14.679C63.6712 14.679 64.3391 14.8861 64.8959 15.3004C65.4527 15.7114 65.8786 16.308 66.1736 17.0902C66.4719 17.8691 66.621 18.8104 66.621 19.9141C66.621 21.0244 66.4736 21.9723 66.1786 22.7578C65.8836 23.54 65.4577 24.1383 64.9009 24.5526C64.3441 24.9635 63.6745 25.169 62.8923 25.169ZM62.8923 23.8416C63.5817 23.8416 64.1203 23.5052 64.5081 22.8324C64.8992 22.1596 65.0948 21.1868 65.0948 19.9141C65.0948 19.0689 65.0053 18.3546 64.8263 17.7713C64.6506 17.1847 64.3971 16.7405 64.0656 16.4389C63.7375 16.134 63.3464 15.9815 62.8923 15.9815C62.2063 15.9815 61.6677 16.3196 61.2766 16.9957C60.8855 17.6719 60.6883 18.6446 60.685 19.9141C60.685 20.7625 60.7728 21.4801 60.9485 22.0668C61.1274 22.6501 61.381 23.0926 61.7091 23.3942C62.0372 23.6925 62.4316 23.8416 62.8923 23.8416Z" fill="white"/>
</svg>
