<svg width="240" height="40" viewBox="0 0 240 40" fill="none" xmlns="http://www.w3.org/2000/svg">
<path d="M0 10C0 4.47715 4.47715 0 10 0H230C235.523 0 240 4.47715 240 10V40H0V10Z" fill="#DEECFE"/>
<path d="M13.1186 25V14.8182H16.8473C17.5698 14.8182 18.1681 14.9375 18.642 15.1761C19.116 15.4115 19.4706 15.7313 19.706 16.1357C19.9413 16.5367 20.0589 16.9891 20.0589 17.4929C20.0589 17.9171 19.9811 18.2751 19.8253 18.5668C19.6695 18.8551 19.4607 19.0871 19.1989 19.2628C18.9403 19.4351 18.6553 19.5611 18.3438 19.6406V19.7401C18.6818 19.7566 19.0116 19.866 19.3331 20.0682C19.6579 20.267 19.9264 20.5504 20.1385 20.9183C20.3506 21.2862 20.4567 21.7337 20.4567 22.2607C20.4567 22.781 20.334 23.2483 20.0888 23.6626C19.8468 24.0736 19.4723 24.4001 18.9652 24.642C18.4581 24.8807 17.8101 25 17.0213 25H13.1186ZM14.6548 23.6825H16.8722C17.608 23.6825 18.1349 23.54 18.4531 23.255C18.7713 22.9699 18.9304 22.6136 18.9304 22.1861C18.9304 21.8646 18.8492 21.5696 18.6868 21.3011C18.5244 21.0327 18.2924 20.8189 17.9908 20.6598C17.6925 20.5007 17.3378 20.4212 16.9268 20.4212H14.6548V23.6825ZM14.6548 19.223H16.7131C17.0578 19.223 17.3677 19.1567 17.6428 19.0241C17.9212 18.8916 18.1416 18.706 18.304 18.4673C18.4697 18.2254 18.5526 17.9403 18.5526 17.6122C18.5526 17.1913 18.4051 16.8383 18.1101 16.5533C17.8151 16.2682 17.3627 16.1257 16.7528 16.1257H14.6548V19.223ZM23.556 14.8182V25H22.0694V14.8182H23.556ZM30.3031 21.8331V17.3636H31.7946V25H30.333V23.6776H30.2534C30.0778 24.0852 29.796 24.425 29.4082 24.6967C29.0238 24.9652 28.5448 25.0994 27.9715 25.0994C27.4809 25.0994 27.0467 24.9917 26.6689 24.7763C26.2944 24.5575 25.9994 24.2344 25.784 23.8068C25.5718 23.3793 25.4658 22.8506 25.4658 22.2209V17.3636H26.9523V22.0419C26.9523 22.5623 27.0965 22.9766 27.3848 23.2848C27.6732 23.593 28.0477 23.7472 28.5084 23.7472C28.7868 23.7472 29.0635 23.6776 29.3386 23.5384C29.6171 23.3991 29.8474 23.1887 30.0297 22.907C30.2153 22.6252 30.3064 22.2673 30.3031 21.8331ZM36.9931 25.1541C36.2408 25.1541 35.5928 24.9934 35.0492 24.6719C34.509 24.3471 34.0914 23.8913 33.7964 23.3047C33.5047 22.7147 33.3589 22.0237 33.3589 21.2315C33.3589 20.4493 33.5047 19.7599 33.7964 19.1634C34.0914 18.5668 34.5024 18.1011 35.0294 17.7663C35.5597 17.4316 36.1795 17.2642 36.8887 17.2642C37.3196 17.2642 37.7372 17.3355 38.1416 17.478C38.5459 17.6205 38.9089 17.8442 39.2304 18.1491C39.5519 18.4541 39.8054 18.8501 39.991 19.3374C40.1766 19.8213 40.2694 20.4096 40.2694 21.1023V21.6293H34.1991V20.5156H38.8127C38.8127 20.1245 38.7332 19.7782 38.5741 19.4766C38.415 19.1716 38.1913 18.9313 37.9029 18.7557C37.6179 18.58 37.2831 18.4922 36.8987 18.4922C36.4811 18.4922 36.1165 18.5949 35.8049 18.8004C35.4967 19.0026 35.2581 19.2678 35.089 19.5959C34.9233 19.9207 34.8404 20.2737 34.8404 20.6548V21.5249C34.8404 22.0353 34.9299 22.4695 35.1089 22.8274C35.2912 23.1854 35.5447 23.4588 35.8696 23.6477C36.1944 23.8333 36.5739 23.9261 37.0081 23.9261C37.2898 23.9261 37.5466 23.8864 37.7787 23.8068C38.0107 23.724 38.2112 23.6013 38.3802 23.4389C38.5492 23.2765 38.6785 23.076 38.768 22.8374L40.175 23.0909C40.0623 23.5052 39.8601 23.8681 39.5684 24.1797C39.2801 24.4879 38.9171 24.7282 38.4796 24.9006C38.0455 25.0696 37.55 25.1541 36.9931 25.1541ZM45.6718 14.8182V25H44.1306V16.3594H44.0709L41.6349 17.9503V16.4787L44.1753 14.8182H45.6718ZM51.8808 25.169C51.0953 25.1657 50.4241 24.9586 49.8673 24.5476C49.3105 24.1366 48.8846 23.5384 48.5896 22.7528C48.2946 21.9673 48.1471 21.0211 48.1471 19.9141C48.1471 18.8104 48.2946 17.8674 48.5896 17.0852C48.8879 16.303 49.3154 15.7064 49.8723 15.2955C50.4324 14.8845 51.1019 14.679 51.8808 14.679C52.6597 14.679 53.3275 14.8861 53.8843 15.3004C54.4412 15.7114 54.8671 16.308 55.162 17.0902C55.4603 17.8691 55.6095 18.8104 55.6095 19.9141C55.6095 21.0244 55.462 21.9723 55.167 22.7578C54.872 23.54 54.4461 24.1383 53.8893 24.5526C53.3325 24.9635 52.663 25.169 51.8808 25.169ZM51.8808 23.8416C52.5702 23.8416 53.1088 23.5052 53.4966 22.8324C53.8877 22.1596 54.0832 21.1868 54.0832 19.9141C54.0832 19.0689 53.9937 18.3546 53.8147 17.7713C53.6391 17.1847 53.3855 16.7405 53.0541 16.4389C52.726 16.134 52.3349 15.9815 51.8808 15.9815C51.1947 15.9815 50.6561 16.3196 50.265 16.9957C49.8739 17.6719 49.6767 18.6446 49.6734 19.9141C49.6734 20.7625 49.7612 21.4801 49.9369 22.0668C50.1159 22.6501 50.3694 23.0926 50.6975 23.3942C51.0257 23.6925 51.4201 23.8416 51.8808 23.8416ZM60.8279 25.169C60.0424 25.1657 59.3712 24.9586 58.8144 24.5476C58.2576 24.1366 57.8317 23.5384 57.5367 22.7528C57.2417 21.9673 57.0942 21.0211 57.0942 19.9141C57.0942 18.8104 57.2417 17.8674 57.5367 17.0852C57.835 16.303 58.2626 15.7064 58.8194 15.2955C59.3795 14.8845 60.049 14.679 60.8279 14.679C61.6068 14.679 62.2746 14.8861 62.8314 15.3004C63.3883 15.7114 63.8142 16.308 64.1091 17.0902C64.4074 17.8691 64.5566 18.8104 64.5566 19.9141C64.5566 21.0244 64.4091 21.9723 64.1141 22.7578C63.8191 23.54 63.3932 24.1383 62.8364 24.5526C62.2796 24.9635 61.6101 25.169 60.8279 25.169ZM60.8279 23.8416C61.5173 23.8416 62.0559 23.5052 62.4437 22.8324C62.8348 22.1596 63.0303 21.1868 63.0303 19.9141C63.0303 19.0689 62.9408 18.3546 62.7618 17.7713C62.5862 17.1847 62.3326 16.7405 62.0012 16.4389C61.6731 16.134 61.282 15.9815 60.8279 15.9815C60.1418 15.9815 59.6032 16.3196 59.2121 16.9957C58.821 17.6719 58.6238 18.6446 58.6205 19.9141C58.6205 20.7625 58.7083 21.4801 58.884 22.0668C59.063 22.6501 59.3165 23.0926 59.6447 23.3942C59.9728 23.6925 60.3672 23.8416 60.8279 23.8416Z" fill="black"/>
</svg>
