<svg width="240" height="40" viewBox="0 0 240 40" fill="none" xmlns="http://www.w3.org/2000/svg">
<rect width="240" height="40" fill="#1F2B73"/>
<path d="M13.1186 25V14.8182H16.8473C17.5698 14.8182 18.1681 14.9375 18.642 15.1761C19.116 15.4115 19.4706 15.7313 19.706 16.1357C19.9413 16.5367 20.0589 16.9891 20.0589 17.4929C20.0589 17.9171 19.9811 18.2751 19.8253 18.5668C19.6695 18.8551 19.4607 19.0871 19.1989 19.2628C18.9403 19.4351 18.6553 19.5611 18.3438 19.6406V19.7401C18.6818 19.7566 19.0116 19.866 19.3331 20.0682C19.6579 20.267 19.9264 20.5504 20.1385 20.9183C20.3506 21.2862 20.4567 21.7337 20.4567 22.2607C20.4567 22.781 20.334 23.2483 20.0888 23.6626C19.8468 24.0736 19.4723 24.4001 18.9652 24.642C18.4581 24.8807 17.8101 25 17.0213 25H13.1186ZM14.6548 23.6825H16.8722C17.608 23.6825 18.1349 23.54 18.4531 23.255C18.7713 22.9699 18.9304 22.6136 18.9304 22.1861C18.9304 21.8646 18.8492 21.5696 18.6868 21.3011C18.5244 21.0327 18.2924 20.8189 17.9908 20.6598C17.6925 20.5007 17.3378 20.4212 16.9268 20.4212H14.6548V23.6825ZM14.6548 19.223H16.7131C17.0578 19.223 17.3677 19.1567 17.6428 19.0241C17.9212 18.8916 18.1416 18.706 18.304 18.4673C18.4697 18.2254 18.5526 17.9403 18.5526 17.6122C18.5526 17.1913 18.4051 16.8383 18.1101 16.5533C17.8151 16.2682 17.3627 16.1257 16.7528 16.1257H14.6548V19.223ZM23.556 14.8182V25H22.0694V14.8182H23.556ZM30.3031 21.8331V17.3636H31.7946V25H30.333V23.6776H30.2534C30.0778 24.0852 29.796 24.425 29.4082 24.6967C29.0238 24.9652 28.5448 25.0994 27.9715 25.0994C27.4809 25.0994 27.0467 24.9917 26.6689 24.7763C26.2944 24.5575 25.9994 24.2344 25.784 23.8068C25.5718 23.3793 25.4658 22.8506 25.4658 22.2209V17.3636H26.9523V22.0419C26.9523 22.5623 27.0965 22.9766 27.3848 23.2848C27.6732 23.593 28.0477 23.7472 28.5084 23.7472C28.7868 23.7472 29.0635 23.6776 29.3386 23.5384C29.6171 23.3991 29.8474 23.1887 30.0297 22.907C30.2153 22.6252 30.3064 22.2673 30.3031 21.8331ZM36.9931 25.1541C36.2408 25.1541 35.5928 24.9934 35.0492 24.6719C34.509 24.3471 34.0914 23.8913 33.7964 23.3047C33.5047 22.7147 33.3589 22.0237 33.3589 21.2315C33.3589 20.4493 33.5047 19.7599 33.7964 19.1634C34.0914 18.5668 34.5024 18.1011 35.0294 17.7663C35.5597 17.4316 36.1795 17.2642 36.8887 17.2642C37.3196 17.2642 37.7372 17.3355 38.1416 17.478C38.5459 17.6205 38.9089 17.8442 39.2304 18.1491C39.5519 18.4541 39.8054 18.8501 39.991 19.3374C40.1766 19.8213 40.2694 20.4096 40.2694 21.1023V21.6293H34.1991V20.5156H38.8127C38.8127 20.1245 38.7332 19.7782 38.5741 19.4766C38.415 19.1716 38.1913 18.9313 37.9029 18.7557C37.6179 18.58 37.2831 18.4922 36.8987 18.4922C36.4811 18.4922 36.1165 18.5949 35.8049 18.8004C35.4967 19.0026 35.2581 19.2678 35.089 19.5959C34.9233 19.9207 34.8404 20.2737 34.8404 20.6548V21.5249C34.8404 22.0353 34.9299 22.4695 35.1089 22.8274C35.2912 23.1854 35.5447 23.4588 35.8696 23.6477C36.1944 23.8333 36.5739 23.9261 37.0081 23.9261C37.2898 23.9261 37.5466 23.8864 37.7787 23.8068C38.0107 23.724 38.2112 23.6013 38.3802 23.4389C38.5492 23.2765 38.6785 23.076 38.768 22.8374L40.175 23.0909C40.0623 23.5052 39.8601 23.8681 39.5684 24.1797C39.2801 24.4879 38.9171 24.7282 38.4796 24.9006C38.0455 25.0696 37.55 25.1541 36.9931 25.1541ZM45.1945 14.679C45.6486 14.6823 46.096 14.7652 46.5368 14.9276C46.9777 15.09 47.3754 15.3551 47.73 15.723C48.088 16.0909 48.373 16.5881 48.5851 17.2145C48.8006 17.8376 48.9099 18.6132 48.9133 19.5412C48.9133 20.4328 48.8238 21.2266 48.6448 21.9226C48.4658 22.6153 48.209 23.2003 47.8742 23.6776C47.5428 24.1548 47.1401 24.5178 46.6661 24.7663C46.1921 25.0149 45.6585 25.1392 45.0652 25.1392C44.4587 25.1392 43.9201 25.0199 43.4495 24.7812C42.9788 24.5426 42.596 24.2128 42.301 23.7919C42.0061 23.3677 41.8221 22.8804 41.7492 22.3303H43.2655C43.365 22.7678 43.5671 23.1224 43.8721 23.3942C44.1803 23.6626 44.578 23.7969 45.0652 23.7969C45.811 23.7969 46.3927 23.4721 46.8103 22.8224C47.2279 22.1695 47.4384 21.258 47.4417 20.0881H47.3621C47.1898 20.3731 46.9743 20.6184 46.7158 20.8239C46.4606 21.0294 46.1739 21.1884 45.8557 21.3011C45.5375 21.4138 45.1978 21.4702 44.8366 21.4702C44.2499 21.4702 43.7163 21.326 43.2357 21.0376C42.7551 20.7493 42.3723 20.3532 42.0873 19.8494C41.8022 19.3456 41.6597 18.7706 41.6597 18.1243C41.6597 17.4813 41.8055 16.898 42.0972 16.3743C42.3922 15.8506 42.8032 15.4363 43.3302 15.1314C43.8605 14.8232 44.4819 14.6723 45.1945 14.679ZM45.1995 15.9716C44.8117 15.9716 44.462 16.0677 44.1505 16.2599C43.8422 16.4489 43.5986 16.7057 43.4197 17.0305C43.2407 17.352 43.1512 17.71 43.1512 18.1044C43.1512 18.4988 43.2374 18.8568 43.4097 19.1783C43.5854 19.4964 43.824 19.75 44.1256 19.9389C44.4305 20.1245 44.7786 20.2173 45.1697 20.2173C45.4613 20.2173 45.7331 20.161 45.985 20.0483C46.2369 19.9356 46.4573 19.7798 46.6462 19.581C46.8351 19.3788 46.9826 19.1501 47.0887 18.8949C47.1947 18.6397 47.2478 18.3712 47.2478 18.0895C47.2478 17.715 47.1583 17.367 46.9793 17.0455C46.8036 16.724 46.5617 16.4654 46.2535 16.2699C45.9452 16.071 45.5939 15.9716 45.1995 15.9716ZM54.164 25.169C53.3785 25.1657 52.7073 24.9586 52.1505 24.5476C51.5937 24.1366 51.1678 23.5384 50.8728 22.7528C50.5778 21.9673 50.4303 21.0211 50.4303 19.9141C50.4303 18.8104 50.5778 17.8674 50.8728 17.0852C51.1711 16.303 51.5986 15.7064 52.1555 15.2955C52.7156 14.8845 53.3851 14.679 54.164 14.679C54.9429 14.679 55.6107 14.8861 56.1675 15.3004C56.7244 15.7114 57.1503 16.308 57.4452 17.0902C57.7435 17.8691 57.8927 18.8104 57.8927 19.9141C57.8927 21.0244 57.7452 21.9723 57.4502 22.7578C57.1552 23.54 56.7293 24.1383 56.1725 24.5526C55.6157 24.9635 54.9462 25.169 54.164 25.169ZM54.164 23.8416C54.8534 23.8416 55.392 23.5052 55.7798 22.8324C56.1709 22.1596 56.3664 21.1868 56.3664 19.9141C56.3664 19.0689 56.2769 18.3546 56.0979 17.7713C55.9223 17.1847 55.6687 16.7405 55.3373 16.4389C55.0092 16.134 54.6181 15.9815 54.164 15.9815C53.4779 15.9815 52.9393 16.3196 52.5482 16.9957C52.1571 17.6719 51.9599 18.6446 51.9566 19.9141C51.9566 20.7625 52.0444 21.4801 52.2201 22.0668C52.3991 22.6501 52.6526 23.0926 52.9808 23.3942C53.3089 23.6925 53.7033 23.8416 54.164 23.8416ZM63.1111 25.169C62.3256 25.1657 61.6544 24.9586 61.0976 24.5476C60.5408 24.1366 60.1149 23.5384 59.8199 22.7528C59.5249 21.9673 59.3774 21.0211 59.3774 19.9141C59.3774 18.8104 59.5249 17.8674 59.8199 17.0852C60.1182 16.303 60.5458 15.7064 61.1026 15.2955C61.6627 14.8845 62.3322 14.679 63.1111 14.679C63.89 14.679 64.5578 14.8861 65.1147 15.3004C65.6715 15.7114 66.0974 16.308 66.3924 17.0902C66.6906 17.8691 66.8398 18.8104 66.8398 19.9141C66.8398 21.0244 66.6923 21.9723 66.3973 22.7578C66.1023 23.54 65.6764 24.1383 65.1196 24.5526C64.5628 24.9635 63.8933 25.169 63.1111 25.169ZM63.1111 23.8416C63.8005 23.8416 64.3391 23.5052 64.7269 22.8324C65.118 22.1596 65.3135 21.1868 65.3135 19.9141C65.3135 19.0689 65.224 18.3546 65.045 17.7713C64.8694 17.1847 64.6158 16.7405 64.2844 16.4389C63.9563 16.134 63.5652 15.9815 63.1111 15.9815C62.425 15.9815 61.8864 16.3196 61.4953 16.9957C61.1042 17.6719 60.907 18.6446 60.9037 19.9141C60.9037 20.7625 60.9915 21.4801 61.1672 22.0668C61.3462 22.6501 61.5997 23.0926 61.9279 23.3942C62.256 23.6925 62.6504 23.8416 63.1111 23.8416Z" fill="white"/>
</svg>
