<svg width="240" height="40" viewBox="0 0 240 40" fill="none" xmlns="http://www.w3.org/2000/svg">
<rect width="240" height="40" fill="#263B98"/>
<path d="M13.1186 25V14.8182H16.8473C17.5698 14.8182 18.1681 14.9375 18.642 15.1761C19.116 15.4115 19.4706 15.7313 19.706 16.1357C19.9413 16.5367 20.0589 16.9891 20.0589 17.4929C20.0589 17.9171 19.9811 18.2751 19.8253 18.5668C19.6695 18.8551 19.4607 19.0871 19.1989 19.2628C18.9403 19.4351 18.6553 19.5611 18.3438 19.6406V19.7401C18.6818 19.7566 19.0116 19.866 19.3331 20.0682C19.6579 20.267 19.9264 20.5504 20.1385 20.9183C20.3506 21.2862 20.4567 21.7337 20.4567 22.2607C20.4567 22.781 20.334 23.2483 20.0888 23.6626C19.8468 24.0736 19.4723 24.4001 18.9652 24.642C18.4581 24.8807 17.8101 25 17.0213 25H13.1186ZM14.6548 23.6825H16.8722C17.608 23.6825 18.1349 23.54 18.4531 23.255C18.7713 22.9699 18.9304 22.6136 18.9304 22.1861C18.9304 21.8646 18.8492 21.5696 18.6868 21.3011C18.5244 21.0327 18.2924 20.8189 17.9908 20.6598C17.6925 20.5007 17.3378 20.4212 16.9268 20.4212H14.6548V23.6825ZM14.6548 19.223H16.7131C17.0578 19.223 17.3677 19.1567 17.6428 19.0241C17.9212 18.8916 18.1416 18.706 18.304 18.4673C18.4697 18.2254 18.5526 17.9403 18.5526 17.6122C18.5526 17.1913 18.4051 16.8383 18.1101 16.5533C17.8151 16.2682 17.3627 16.1257 16.7528 16.1257H14.6548V19.223ZM23.556 14.8182V25H22.0694V14.8182H23.556ZM30.3031 21.8331V17.3636H31.7946V25H30.333V23.6776H30.2534C30.0778 24.0852 29.796 24.425 29.4082 24.6967C29.0238 24.9652 28.5448 25.0994 27.9715 25.0994C27.4809 25.0994 27.0467 24.9917 26.6689 24.7763C26.2944 24.5575 25.9994 24.2344 25.784 23.8068C25.5718 23.3793 25.4658 22.8506 25.4658 22.2209V17.3636H26.9523V22.0419C26.9523 22.5623 27.0965 22.9766 27.3848 23.2848C27.6732 23.593 28.0477 23.7472 28.5084 23.7472C28.7868 23.7472 29.0635 23.6776 29.3386 23.5384C29.6171 23.3991 29.8474 23.1887 30.0297 22.907C30.2153 22.6252 30.3064 22.2673 30.3031 21.8331ZM36.9931 25.1541C36.2408 25.1541 35.5928 24.9934 35.0492 24.6719C34.509 24.3471 34.0914 23.8913 33.7964 23.3047C33.5047 22.7147 33.3589 22.0237 33.3589 21.2315C33.3589 20.4493 33.5047 19.7599 33.7964 19.1634C34.0914 18.5668 34.5024 18.1011 35.0294 17.7663C35.5597 17.4316 36.1795 17.2642 36.8887 17.2642C37.3196 17.2642 37.7372 17.3355 38.1416 17.478C38.5459 17.6205 38.9089 17.8442 39.2304 18.1491C39.5519 18.4541 39.8054 18.8501 39.991 19.3374C40.1766 19.8213 40.2694 20.4096 40.2694 21.1023V21.6293H34.1991V20.5156H38.8127C38.8127 20.1245 38.7332 19.7782 38.5741 19.4766C38.415 19.1716 38.1913 18.9313 37.9029 18.7557C37.6179 18.58 37.2831 18.4922 36.8987 18.4922C36.4811 18.4922 36.1165 18.5949 35.8049 18.8004C35.4967 19.0026 35.2581 19.2678 35.089 19.5959C34.9233 19.9207 34.8404 20.2737 34.8404 20.6548V21.5249C34.8404 22.0353 34.9299 22.4695 35.1089 22.8274C35.2912 23.1854 35.5447 23.4588 35.8696 23.6477C36.1944 23.8333 36.5739 23.9261 37.0081 23.9261C37.2898 23.9261 37.5466 23.8864 37.7787 23.8068C38.0107 23.724 38.2112 23.6013 38.3802 23.4389C38.5492 23.2765 38.6785 23.076 38.768 22.8374L40.175 23.0909C40.0623 23.5052 39.8601 23.8681 39.5684 24.1797C39.2801 24.4879 38.9171 24.7282 38.4796 24.9006C38.0455 25.0696 37.55 25.1541 36.9931 25.1541ZM45.2492 25.1392C44.5366 25.1392 43.9069 25.0166 43.36 24.7713C42.8164 24.526 42.3905 24.188 42.0823 23.7571C41.7741 23.3262 41.6216 22.8357 41.6249 22.2855C41.6216 21.8546 41.7094 21.4586 41.8884 21.0973C42.0707 20.7327 42.3176 20.4295 42.6292 20.1875C42.9407 19.9422 43.2887 19.7865 43.6732 19.7202V19.6605C43.1661 19.5379 42.7601 19.2661 42.4552 18.8452C42.1502 18.4242 41.9994 17.9403 42.0027 17.3935C41.9994 16.8731 42.137 16.4091 42.4154 16.0014C42.6971 15.5904 43.0832 15.2673 43.5738 15.032C44.0643 14.7966 44.6228 14.679 45.2492 14.679C45.869 14.679 46.4225 14.7983 46.9097 15.0369C47.4002 15.2723 47.7864 15.5954 48.0681 16.0064C48.3498 16.4141 48.4923 16.8764 48.4956 17.3935C48.4923 17.9403 48.3366 18.4242 48.0283 18.8452C47.7201 19.2661 47.319 19.5379 46.8252 19.6605V19.7202C47.2063 19.7865 47.5494 19.9422 47.8543 20.1875C48.1625 20.4295 48.4078 20.7327 48.5901 21.0973C48.7757 21.4586 48.8702 21.8546 48.8735 22.2855C48.8702 22.8357 48.7144 23.3262 48.4062 23.7571C48.0979 24.188 47.6704 24.526 47.1235 24.7713C46.5799 25.0166 45.9552 25.1392 45.2492 25.1392ZM45.2492 23.8814C45.6701 23.8814 46.0347 23.8118 46.3429 23.6726C46.6512 23.5301 46.8898 23.3329 47.0589 23.081C47.2279 22.8258 47.3141 22.5275 47.3174 22.1861C47.3141 21.8314 47.2213 21.5182 47.039 21.2464C46.86 20.9747 46.6164 20.7609 46.3081 20.6051C45.9999 20.4493 45.6469 20.3714 45.2492 20.3714C44.8482 20.3714 44.4919 20.4493 44.1803 20.6051C43.8688 20.7609 43.6235 20.9747 43.4445 21.2464C43.2655 21.5182 43.1777 21.8314 43.181 22.1861C43.1777 22.5275 43.2589 22.8258 43.4246 23.081C43.5937 23.3329 43.834 23.5301 44.1455 23.6726C44.4571 23.8118 44.825 23.8814 45.2492 23.8814ZM45.2492 19.1435C45.5873 19.1435 45.8872 19.0755 46.1491 18.9396C46.4109 18.8037 46.6164 18.6148 46.7655 18.3729C46.918 18.1309 46.9959 17.8475 46.9992 17.5227C46.9959 17.2045 46.9197 16.9261 46.7705 16.6875C46.6247 16.4489 46.4208 16.2649 46.159 16.1357C45.8972 16.0031 45.5939 15.9368 45.2492 15.9368C44.8979 15.9368 44.5896 16.0031 44.3245 16.1357C44.0626 16.2649 43.8588 16.4489 43.713 16.6875C43.5671 16.9261 43.4959 17.2045 43.4992 17.5227C43.4959 17.8475 43.5688 18.1309 43.7179 18.3729C43.8671 18.6148 44.0726 18.8037 44.3344 18.9396C44.5996 19.0755 44.9045 19.1435 45.2492 19.1435ZM54.1093 25.169C53.3238 25.1657 52.6526 24.9586 52.0958 24.5476C51.539 24.1366 51.1131 23.5384 50.8181 22.7528C50.5231 21.9673 50.3756 21.0211 50.3756 19.9141C50.3756 18.8104 50.5231 17.8674 50.8181 17.0852C51.1164 16.303 51.544 15.7064 52.1008 15.2955C52.6609 14.8845 53.3304 14.679 54.1093 14.679C54.8882 14.679 55.556 14.8861 56.1129 15.3004C56.6697 15.7114 57.0956 16.308 57.3906 17.0902C57.6888 17.8691 57.838 18.8104 57.838 19.9141C57.838 21.0244 57.6905 21.9723 57.3955 22.7578C57.1005 23.54 56.6746 24.1383 56.1178 24.5526C55.561 24.9635 54.8915 25.169 54.1093 25.169ZM54.1093 23.8416C54.7987 23.8416 55.3373 23.5052 55.7251 22.8324C56.1162 22.1596 56.3117 21.1868 56.3117 19.9141C56.3117 19.0689 56.2222 18.3546 56.0433 17.7713C55.8676 17.1847 55.614 16.7405 55.2826 16.4389C54.9545 16.134 54.5634 15.9815 54.1093 15.9815C53.4232 15.9815 52.8846 16.3196 52.4935 16.9957C52.1024 17.6719 51.9052 18.6446 51.9019 19.9141C51.9019 20.7625 51.9897 21.4801 52.1654 22.0668C52.3444 22.6501 52.5979 23.0926 52.9261 23.3942C53.2542 23.6925 53.6486 23.8416 54.1093 23.8416ZM63.0564 25.169C62.2709 25.1657 61.5997 24.9586 61.0429 24.5476C60.4861 24.1366 60.0602 23.5384 59.7652 22.7528C59.4702 21.9673 59.3227 21.0211 59.3227 19.9141C59.3227 18.8104 59.4702 17.8674 59.7652 17.0852C60.0635 16.303 60.4911 15.7064 61.0479 15.2955C61.608 14.8845 62.2775 14.679 63.0564 14.679C63.8353 14.679 64.5031 14.8861 65.06 15.3004C65.6168 15.7114 66.0427 16.308 66.3377 17.0902C66.636 17.8691 66.7851 18.8104 66.7851 19.9141C66.7851 21.0244 66.6376 21.9723 66.3426 22.7578C66.0477 23.54 65.6218 24.1383 65.0649 24.5526C64.5081 24.9635 63.8386 25.169 63.0564 25.169ZM63.0564 23.8416C63.7458 23.8416 64.2844 23.5052 64.6722 22.8324C65.0633 22.1596 65.2588 21.1868 65.2588 19.9141C65.2588 19.0689 65.1693 18.3546 64.9904 17.7713C64.8147 17.1847 64.5611 16.7405 64.2297 16.4389C63.9016 16.134 63.5105 15.9815 63.0564 15.9815C62.3703 15.9815 61.8317 16.3196 61.4406 16.9957C61.0495 17.6719 60.8523 18.6446 60.849 19.9141C60.849 20.7625 60.9369 21.4801 61.1125 22.0668C61.2915 22.6501 61.545 23.0926 61.8732 23.3942C62.2013 23.6925 62.5957 23.8416 63.0564 23.8416Z" fill="white"/>
</svg>
