<svg width="240" height="40" viewBox="0 0 240 40" fill="none" xmlns="http://www.w3.org/2000/svg">
<path d="M0 0H240V30C240 35.5228 235.523 40 230 40H10C4.47716 40 0 35.5228 0 30V0Z" fill="#183338"/>
<path d="M21.5753 18.1293H20.0241C19.9645 17.7978 19.8535 17.5062 19.6911 17.2543C19.5286 17.0024 19.3298 16.7886 19.0945 16.6129C18.8591 16.4373 18.5956 16.3047 18.304 16.2152C18.0156 16.1257 17.709 16.081 17.3842 16.081C16.7976 16.081 16.2723 16.2285 15.8082 16.5234C15.3475 16.8184 14.983 17.2509 14.7145 17.821C14.4493 18.3911 14.3168 19.0871 14.3168 19.9091C14.3168 20.7377 14.4493 21.437 14.7145 22.0071C14.983 22.5772 15.3492 23.008 15.8132 23.2997C16.2772 23.5914 16.7992 23.7372 17.3793 23.7372C17.7008 23.7372 18.0057 23.6941 18.294 23.608C18.5857 23.5185 18.8492 23.3875 19.0845 23.2152C19.3198 23.0429 19.5187 22.8324 19.6811 22.5838C19.8468 22.3319 19.9612 22.0436 20.0241 21.7188L21.5753 21.7237C21.4924 22.2242 21.3317 22.6849 21.093 23.1058C20.8577 23.5234 20.5545 23.8847 20.1832 24.1896C19.8153 24.4912 19.3944 24.7249 18.9205 24.8906C18.4465 25.0563 17.9295 25.1392 17.3693 25.1392C16.4877 25.1392 15.7022 24.9304 15.0128 24.5128C14.3234 24.0919 13.7798 23.4903 13.3821 22.7081C12.9877 21.9259 12.7905 20.9929 12.7905 19.9091C12.7905 18.822 12.9893 17.889 13.3871 17.1101C13.7848 16.3279 14.3284 15.728 15.0178 15.3104C15.7071 14.8894 16.491 14.679 17.3693 14.679C17.9096 14.679 18.4134 14.7569 18.8807 14.9126C19.3513 15.0651 19.7739 15.2905 20.1484 15.5888C20.523 15.8838 20.8329 16.245 21.0781 16.6726C21.3234 17.0968 21.4891 17.5824 21.5753 18.1293ZM24.1712 27.8636C23.9491 27.8636 23.7469 27.8454 23.5647 27.8089C23.3824 27.7758 23.2465 27.7393 23.157 27.6996L23.5149 26.4815C23.7867 26.5545 24.0287 26.5859 24.2408 26.576C24.4529 26.5661 24.6402 26.4865 24.8026 26.3374C24.9683 26.1882 25.1141 25.9446 25.2401 25.6065L25.424 25.0994L22.63 17.3636H24.2209L26.1549 23.2898H26.2344L28.1683 17.3636H29.7642L26.6172 26.0192C26.4714 26.4169 26.2858 26.7533 26.0604 27.0284C25.835 27.3068 25.5665 27.5156 25.255 27.6548C24.9434 27.794 24.5822 27.8636 24.1712 27.8636ZM33.0748 25.169C32.5909 25.169 32.1534 25.0795 31.7623 24.9006C31.3712 24.7183 31.0613 24.4548 30.8326 24.1101C30.6072 23.7654 30.4945 23.3428 30.4945 22.8423C30.4945 22.4115 30.5774 22.0568 30.7431 21.7784C30.9088 21.5 31.1326 21.2796 31.4143 21.1172C31.696 20.9548 32.0109 20.8321 32.3589 20.7493C32.7069 20.6664 33.0615 20.6035 33.4228 20.5604C33.8802 20.5073 34.2514 20.4643 34.5364 20.4311C34.8215 20.3946 35.0286 20.3366 35.1579 20.2571C35.2872 20.1776 35.3518 20.0483 35.3518 19.8693V19.8345C35.3518 19.4003 35.2291 19.0639 34.9839 18.8253C34.7419 18.5866 34.3807 18.4673 33.9001 18.4673C33.3996 18.4673 33.0052 18.5784 32.7168 18.8004C32.4318 19.0192 32.2346 19.2628 32.1252 19.5312L30.7282 19.2131C30.8939 18.7491 31.1359 18.3745 31.4541 18.0895C31.7756 17.8011 32.1451 17.5923 32.5627 17.4631C32.9803 17.3305 33.4195 17.2642 33.8802 17.2642C34.1851 17.2642 34.5083 17.3007 34.8497 17.3736C35.1943 17.4432 35.5158 17.5724 35.8141 17.7614C36.1158 17.9503 36.3627 18.2204 36.5549 18.5717C36.7471 18.9197 36.8433 19.3722 36.8433 19.929V25H35.3916V23.956H35.3319C35.2358 24.1482 35.0916 24.3371 34.8994 24.5227C34.7071 24.7083 34.4602 24.8625 34.1586 24.9851C33.857 25.1077 33.4957 25.169 33.0748 25.169ZM33.3979 23.9759C33.8089 23.9759 34.1603 23.8946 34.4519 23.7322C34.7469 23.5698 34.9706 23.3577 35.1231 23.0959C35.2789 22.8307 35.3568 22.5473 35.3568 22.2457V21.2614C35.3037 21.3144 35.201 21.3641 35.0485 21.4105C34.8994 21.4536 34.7287 21.4917 34.5364 21.5249C34.3442 21.5547 34.1569 21.5829 33.9747 21.6094C33.7924 21.6326 33.6399 21.6525 33.5173 21.669C33.2289 21.7055 32.9654 21.7668 32.7268 21.853C32.4915 21.9392 32.3025 22.0634 32.16 22.2259C32.0208 22.3849 31.9512 22.5971 31.9512 22.8622C31.9512 23.2301 32.0871 23.5085 32.3589 23.6974C32.6307 23.883 32.977 23.9759 33.3979 23.9759ZM40.2197 20.4659V25H38.7332V17.3636H40.16V18.6065H40.2545C40.4302 18.2022 40.7053 17.8774 41.0798 17.6321C41.4576 17.3868 41.9332 17.2642 42.5066 17.2642C43.027 17.2642 43.4827 17.3736 43.8738 17.5923C44.2649 17.8078 44.5682 18.1293 44.7836 18.5568C44.9991 18.9844 45.1068 19.513 45.1068 20.1428V25H43.6203V20.3217C43.6203 19.7682 43.4761 19.3357 43.1877 19.0241C42.8994 18.7093 42.5033 18.5518 41.9995 18.5518C41.6548 18.5518 41.3483 18.6264 41.0798 18.7756C40.8146 18.9247 40.6042 19.1435 40.4484 19.4318C40.2959 19.7169 40.2197 20.0616 40.2197 20.4659ZM50.2929 14.8182V25H48.7517V16.3594H48.692L46.2559 17.9503V16.4787L48.7964 14.8182H50.2929ZM56.5019 25.169C55.7164 25.1657 55.0452 24.9586 54.4884 24.5476C53.9316 24.1366 53.5057 23.5384 53.2107 22.7528C52.9157 21.9673 52.7682 21.0211 52.7682 19.9141C52.7682 18.8104 52.9157 17.8674 53.2107 17.0852C53.509 16.303 53.9365 15.7064 54.4934 15.2955C55.0535 14.8845 55.723 14.679 56.5019 14.679C57.2808 14.679 57.9486 14.8861 58.5054 15.3004C59.0623 15.7114 59.4882 16.308 59.7831 17.0902C60.0814 17.8691 60.2306 18.8104 60.2306 19.9141C60.2306 21.0244 60.0831 21.9723 59.7881 22.7578C59.4931 23.54 59.0672 24.1383 58.5104 24.5526C57.9536 24.9635 57.2841 25.169 56.5019 25.169ZM56.5019 23.8416C57.1913 23.8416 57.7299 23.5052 58.1176 22.8324C58.5087 22.1596 58.7043 21.1868 58.7043 19.9141C58.7043 19.0689 58.6148 18.3546 58.4358 17.7713C58.2602 17.1847 58.0066 16.7405 57.6752 16.4389C57.3471 16.134 56.956 15.9815 56.5019 15.9815C55.8158 15.9815 55.2772 16.3196 54.8861 16.9957C54.495 17.6719 54.2978 18.6446 54.2945 19.9141C54.2945 20.7625 54.3823 21.4801 54.558 22.0668C54.737 22.6501 54.9905 23.0926 55.3186 23.3942C55.6468 23.6925 56.0412 23.8416 56.5019 23.8416ZM65.449 25.169C64.6635 25.1657 63.9923 24.9586 63.4355 24.5476C62.8787 24.1366 62.4528 23.5384 62.1578 22.7528C61.8628 21.9673 61.7153 21.0211 61.7153 19.9141C61.7153 18.8104 61.8628 17.8674 62.1578 17.0852C62.4561 16.303 62.8836 15.7064 63.4405 15.2955C64.0006 14.8845 64.6701 14.679 65.449 14.679C66.2279 14.679 66.8957 14.8861 67.4525 15.3004C68.0094 15.7114 68.4353 16.308 68.7302 17.0902C69.0285 17.8691 69.1777 18.8104 69.1777 19.9141C69.1777 21.0244 69.0302 21.9723 68.7352 22.7578C68.4402 23.54 68.0143 24.1383 67.4575 24.5526C66.9007 24.9635 66.2312 25.169 65.449 25.169ZM65.449 23.8416C66.1384 23.8416 66.677 23.5052 67.0648 22.8324C67.4559 22.1596 67.6514 21.1868 67.6514 19.9141C67.6514 19.0689 67.5619 18.3546 67.3829 17.7713C67.2073 17.1847 66.9537 16.7405 66.6223 16.4389C66.2942 16.134 65.9031 15.9815 65.449 15.9815C64.7629 15.9815 64.2243 16.3196 63.8332 16.9957C63.4421 17.6719 63.2449 18.6446 63.2416 19.9141C63.2416 20.7625 63.3294 21.4801 63.5051 22.0668C63.6841 22.6501 63.9376 23.0926 64.2658 23.3942C64.5939 23.6925 64.9883 23.8416 65.449 23.8416ZM74.3961 25.169C73.6106 25.1657 72.9394 24.9586 72.3826 24.5476C71.8258 24.1366 71.3999 23.5384 71.1049 22.7528C70.8099 21.9673 70.6624 21.0211 70.6624 19.9141C70.6624 18.8104 70.8099 17.8674 71.1049 17.0852C71.4032 16.303 71.8308 15.7064 72.3876 15.2955C72.9477 14.8845 73.6172 14.679 74.3961 14.679C75.175 14.679 75.8428 14.8861 76.3997 15.3004C76.9565 15.7114 77.3824 16.308 77.6774 17.0902C77.9756 17.8691 78.1248 18.8104 78.1248 19.9141C78.1248 21.0244 77.9773 21.9723 77.6823 22.7578C77.3873 23.54 76.9614 24.1383 76.4046 24.5526C75.8478 24.9635 75.1783 25.169 74.3961 25.169ZM74.3961 23.8416C75.0855 23.8416 75.6241 23.5052 76.0119 22.8324C76.403 22.1596 76.5985 21.1868 76.5985 19.9141C76.5985 19.0689 76.509 18.3546 76.33 17.7713C76.1544 17.1847 75.9008 16.7405 75.5694 16.4389C75.2413 16.134 74.8502 15.9815 74.3961 15.9815C73.71 15.9815 73.1714 16.3196 72.7803 16.9957C72.3892 17.6719 72.192 18.6446 72.1887 19.9141C72.1887 20.7625 72.2765 21.4801 72.4522 22.0668C72.6312 22.6501 72.8847 23.0926 73.2129 23.3942C73.541 23.6925 73.9354 23.8416 74.3961 23.8416Z" fill="white"/>
</svg>
