<svg width="342" height="40" viewBox="0 0 342 40" fill="none" xmlns="http://www.w3.org/2000/svg">
<rect width="341.333" height="40" transform="translate(0.333496)" fill="#173B3A"/>
<path d="M21.9088 18.1293H20.3576C20.298 17.7978 20.187 17.5062 20.0245 17.2543C19.8621 17.0024 19.6633 16.7886 19.428 16.6129C19.1926 16.4373 18.9291 16.3047 18.6375 16.2152C18.3491 16.1257 18.0425 16.081 17.7177 16.081C17.1311 16.081 16.6058 16.2285 16.1417 16.5234C15.681 16.8184 15.3165 17.2509 15.048 17.821C14.7828 18.3911 14.6503 19.0871 14.6503 19.9091C14.6503 20.7377 14.7828 21.437 15.048 22.0071C15.3165 22.5772 15.6827 23.008 16.1467 23.2997C16.6107 23.5914 17.1327 23.7372 17.7128 23.7372C18.0343 23.7372 18.3392 23.6941 18.6275 23.608C18.9192 23.5185 19.1827 23.3875 19.418 23.2152C19.6533 23.0429 19.8522 22.8324 20.0146 22.5838C20.1803 22.3319 20.2947 22.0436 20.3576 21.7188L21.9088 21.7237C21.8259 22.2242 21.6652 22.6849 21.4265 23.1058C21.1912 23.5234 20.8879 23.8847 20.5167 24.1896C20.1488 24.4912 19.7279 24.7249 19.254 24.8906C18.78 25.0563 18.2629 25.1392 17.7028 25.1392C16.8212 25.1392 16.0357 24.9304 15.3463 24.5128C14.6569 24.0919 14.1133 23.4903 13.7156 22.7081C13.3212 21.9259 13.124 20.9929 13.124 19.9091C13.124 18.822 13.3228 17.889 13.7206 17.1101C14.1183 16.3279 14.6619 15.728 15.3513 15.3104C16.0406 14.8894 16.8245 14.679 17.7028 14.679C18.2431 14.679 18.7468 14.7569 19.2142 14.9126C19.6848 15.0651 20.1074 15.2905 20.4819 15.5888C20.8565 15.8838 21.1664 16.245 21.4116 16.6726C21.6569 17.0968 21.8226 17.5824 21.9088 18.1293ZM24.5947 27.8636C24.3726 27.8636 24.1704 27.8454 23.9881 27.8089C23.8059 27.7758 23.67 27.7393 23.5805 27.6996L23.9384 26.4815C24.2102 26.5545 24.4522 26.5859 24.6643 26.576C24.8764 26.5661 25.0637 26.4865 25.2261 26.3374C25.3918 26.1882 25.5376 25.9446 25.6636 25.6065L25.8475 25.0994L23.0535 17.3636H24.6444L26.5783 23.2898H26.6579L28.5918 17.3636H30.1877L27.0407 26.0192C26.8949 26.4169 26.7093 26.7533 26.4839 27.0284C26.2585 27.3068 25.99 27.5156 25.6785 27.6548C25.3669 27.794 25.0057 27.8636 24.5947 27.8636ZM33.5883 25.169C33.1044 25.169 32.6669 25.0795 32.2758 24.9006C31.8847 24.7183 31.5748 24.4548 31.3461 24.1101C31.1207 23.7654 31.008 23.3428 31.008 22.8423C31.008 22.4115 31.0909 22.0568 31.2566 21.7784C31.4223 21.5 31.6461 21.2796 31.9278 21.1172C32.2095 20.9548 32.5244 20.8321 32.8724 20.7493C33.2204 20.6664 33.575 20.6035 33.9363 20.5604C34.3937 20.5073 34.7649 20.4643 35.0499 20.4311C35.335 20.3946 35.5421 20.3366 35.6714 20.2571C35.8006 20.1776 35.8653 20.0483 35.8653 19.8693V19.8345C35.8653 19.4003 35.7426 19.0639 35.4974 18.8253C35.2554 18.5866 34.8942 18.4673 34.4136 18.4673C33.9131 18.4673 33.5187 18.5784 33.2303 18.8004C32.9453 19.0192 32.7481 19.2628 32.6387 19.5312L31.2417 19.2131C31.4074 18.7491 31.6494 18.3745 31.9676 18.0895C32.289 17.8011 32.6586 17.5923 33.0762 17.4631C33.4938 17.3305 33.933 17.2642 34.3937 17.2642C34.6986 17.2642 35.0218 17.3007 35.3631 17.3736C35.7078 17.4432 36.0293 17.5724 36.3276 17.7614C36.6292 17.9503 36.8762 18.2204 37.0684 18.5717C37.2606 18.9197 37.3568 19.3722 37.3568 19.929V25H35.9051V23.956H35.8454C35.7493 24.1482 35.6051 24.3371 35.4129 24.5227C35.2206 24.7083 34.9737 24.8625 34.6721 24.9851C34.3705 25.1077 34.0092 25.169 33.5883 25.169ZM33.9114 23.9759C34.3224 23.9759 34.6738 23.8946 34.9654 23.7322C35.2604 23.5698 35.4841 23.3577 35.6366 23.0959C35.7924 22.8307 35.8703 22.5473 35.8703 22.2457V21.2614C35.8172 21.3144 35.7145 21.3641 35.562 21.4105C35.4129 21.4536 35.2422 21.4917 35.0499 21.5249C34.8577 21.5547 34.6704 21.5829 34.4881 21.6094C34.3059 21.6326 34.1534 21.6525 34.0308 21.669C33.7424 21.7055 33.4789 21.7668 33.2403 21.853C33.005 21.9392 32.816 22.0634 32.6735 22.2259C32.5343 22.3849 32.4647 22.5971 32.4647 22.8622C32.4647 23.2301 32.6006 23.5085 32.8724 23.6974C33.1442 23.883 33.4905 23.9759 33.9114 23.9759ZM40.8232 20.4659V25H39.3367V17.3636H40.7635V18.6065H40.858C41.0337 18.2022 41.3088 17.8774 41.6833 17.6321C42.0611 17.3868 42.5367 17.2642 43.1101 17.2642C43.6305 17.2642 44.0862 17.3736 44.4773 17.5923C44.8684 17.8078 45.1717 18.1293 45.3871 18.5568C45.6026 18.9844 45.7103 19.513 45.7103 20.1428V25H44.2238V20.3217C44.2238 19.7682 44.0796 19.3357 43.7912 19.0241C43.5029 18.7093 43.1068 18.5518 42.603 18.5518C42.2583 18.5518 41.9517 18.6264 41.6833 18.7756C41.4181 18.9247 41.2077 19.1435 41.0519 19.4318C40.8994 19.7169 40.8232 20.0616 40.8232 20.4659ZM50.9864 14.8182V25H49.4452V16.3594H49.3855L46.9494 17.9503V16.4787L49.4899 14.8182H50.9864ZM57.2854 25.169C56.4999 25.1657 55.8287 24.9586 55.2719 24.5476C54.7151 24.1366 54.2892 23.5384 53.9942 22.7528C53.6992 21.9673 53.5517 21.0211 53.5517 19.9141C53.5517 18.8104 53.6992 17.8674 53.9942 17.0852C54.2925 16.303 54.72 15.7064 55.2769 15.2955C55.837 14.8845 56.5065 14.679 57.2854 14.679C58.0643 14.679 58.7321 14.8861 59.2889 15.3004C59.8457 15.7114 60.2716 16.308 60.5666 17.0902C60.8649 17.8691 61.0141 18.8104 61.0141 19.9141C61.0141 21.0244 60.8666 21.9723 60.5716 22.7578C60.2766 23.54 59.8507 24.1383 59.2939 24.5526C58.7371 24.9635 58.0676 25.169 57.2854 25.169ZM57.2854 23.8416C57.9748 23.8416 58.5134 23.5052 58.9011 22.8324C59.2922 22.1596 59.4878 21.1868 59.4878 19.9141C59.4878 19.0689 59.3983 18.3546 59.2193 17.7713C59.0437 17.1847 58.7901 16.7405 58.4587 16.4389C58.1305 16.134 57.7395 15.9815 57.2854 15.9815C56.5993 15.9815 56.0607 16.3196 55.6696 16.9957C55.2785 17.6719 55.0813 18.6446 55.078 19.9141C55.078 20.7625 55.1658 21.4801 55.3415 22.0668C55.5205 22.6501 55.774 23.0926 56.1021 23.3942C56.4303 23.6925 56.8247 23.8416 57.2854 23.8416ZM66.3225 25.169C65.537 25.1657 64.8658 24.9586 64.309 24.5476C63.7522 24.1366 63.3263 23.5384 63.0313 22.7528C62.7363 21.9673 62.5888 21.0211 62.5888 19.9141C62.5888 18.8104 62.7363 17.8674 63.0313 17.0852C63.3296 16.303 63.7571 15.7064 64.314 15.2955C64.8741 14.8845 65.5436 14.679 66.3225 14.679C67.1014 14.679 67.7692 14.8861 68.326 15.3004C68.8829 15.7114 69.3088 16.308 69.6037 17.0902C69.902 17.8691 70.0512 18.8104 70.0512 19.9141C70.0512 21.0244 69.9037 21.9723 69.6087 22.7578C69.3137 23.54 68.8878 24.1383 68.331 24.5526C67.7742 24.9635 67.1047 25.169 66.3225 25.169ZM66.3225 23.8416C67.0119 23.8416 67.5505 23.5052 67.9383 22.8324C68.3294 22.1596 68.5249 21.1868 68.5249 19.9141C68.5249 19.0689 68.4354 18.3546 68.2564 17.7713C68.0808 17.1847 67.8272 16.7405 67.4958 16.4389C67.1677 16.134 66.7766 15.9815 66.3225 15.9815C65.6364 15.9815 65.0978 16.3196 64.7067 16.9957C64.3156 17.6719 64.1184 18.6446 64.1151 19.9141C64.1151 20.7625 64.2029 21.4801 64.3786 22.0668C64.5576 22.6501 64.8111 23.0926 65.1392 23.3942C65.4674 23.6925 65.8618 23.8416 66.3225 23.8416ZM75.3596 25.169C74.5741 25.1657 73.9029 24.9586 73.3461 24.5476C72.7893 24.1366 72.3634 23.5384 72.0684 22.7528C71.7734 21.9673 71.6259 21.0211 71.6259 19.9141C71.6259 18.8104 71.7734 17.8674 72.0684 17.0852C72.3667 16.303 72.7943 15.7064 73.3511 15.2955C73.9112 14.8845 74.5807 14.679 75.3596 14.679C76.1385 14.679 76.8063 14.8861 77.3631 15.3004C77.92 15.7114 78.3459 16.308 78.6408 17.0902C78.9391 17.8691 79.0883 18.8104 79.0883 19.9141C79.0883 21.0244 78.9408 21.9723 78.6458 22.7578C78.3508 23.54 77.9249 24.1383 77.3681 24.5526C76.8113 24.9635 76.1418 25.169 75.3596 25.169ZM75.3596 23.8416C76.049 23.8416 76.5876 23.5052 76.9754 22.8324C77.3665 22.1596 77.562 21.1868 77.562 19.9141C77.562 19.0689 77.4725 18.3546 77.2935 17.7713C77.1179 17.1847 76.8643 16.7405 76.5329 16.4389C76.2048 16.134 75.8137 15.9815 75.3596 15.9815C74.6735 15.9815 74.1349 16.3196 73.7438 16.9957C73.3527 17.6719 73.1555 18.6446 73.1522 19.9141C73.1522 20.7625 73.24 21.4801 73.4157 22.0668C73.5947 22.6501 73.8482 23.0926 74.1764 23.3942C74.5045 23.6925 74.8989 23.8416 75.3596 23.8416Z" fill="white"/>
</svg>
