<svg width="342" height="40" viewBox="0 0 342 40" fill="none" xmlns="http://www.w3.org/2000/svg">
<rect width="341.333" height="40" transform="translate(0.333496)" fill="#32A4A0"/>
<path d="M21.9088 18.1293H20.3576C20.298 17.7978 20.187 17.5062 20.0245 17.2543C19.8621 17.0024 19.6633 16.7886 19.428 16.6129C19.1926 16.4373 18.9291 16.3047 18.6375 16.2152C18.3491 16.1257 18.0425 16.081 17.7177 16.081C17.1311 16.081 16.6058 16.2285 16.1417 16.5234C15.681 16.8184 15.3165 17.2509 15.048 17.821C14.7828 18.3911 14.6503 19.0871 14.6503 19.9091C14.6503 20.7377 14.7828 21.437 15.048 22.0071C15.3165 22.5772 15.6827 23.008 16.1467 23.2997C16.6107 23.5914 17.1327 23.7372 17.7128 23.7372C18.0343 23.7372 18.3392 23.6941 18.6275 23.608C18.9192 23.5185 19.1827 23.3875 19.418 23.2152C19.6533 23.0429 19.8522 22.8324 20.0146 22.5838C20.1803 22.3319 20.2947 22.0436 20.3576 21.7188L21.9088 21.7237C21.8259 22.2242 21.6652 22.6849 21.4265 23.1058C21.1912 23.5234 20.8879 23.8847 20.5167 24.1896C20.1488 24.4912 19.7279 24.7249 19.254 24.8906C18.78 25.0563 18.2629 25.1392 17.7028 25.1392C16.8212 25.1392 16.0357 24.9304 15.3463 24.5128C14.6569 24.0919 14.1133 23.4903 13.7156 22.7081C13.3212 21.9259 13.124 20.9929 13.124 19.9091C13.124 18.822 13.3228 17.889 13.7206 17.1101C14.1183 16.3279 14.6619 15.728 15.3513 15.3104C16.0406 14.8894 16.8245 14.679 17.7028 14.679C18.2431 14.679 18.7468 14.7569 19.2142 14.9126C19.6848 15.0651 20.1074 15.2905 20.4819 15.5888C20.8565 15.8838 21.1664 16.245 21.4116 16.6726C21.6569 17.0968 21.8226 17.5824 21.9088 18.1293ZM24.5947 27.8636C24.3726 27.8636 24.1704 27.8454 23.9881 27.8089C23.8059 27.7758 23.67 27.7393 23.5805 27.6996L23.9384 26.4815C24.2102 26.5545 24.4522 26.5859 24.6643 26.576C24.8764 26.5661 25.0637 26.4865 25.2261 26.3374C25.3918 26.1882 25.5376 25.9446 25.6636 25.6065L25.8475 25.0994L23.0535 17.3636H24.6444L26.5783 23.2898H26.6579L28.5918 17.3636H30.1877L27.0407 26.0192C26.8949 26.4169 26.7093 26.7533 26.4839 27.0284C26.2585 27.3068 25.99 27.5156 25.6785 27.6548C25.3669 27.794 25.0057 27.8636 24.5947 27.8636ZM33.5883 25.169C33.1044 25.169 32.6669 25.0795 32.2758 24.9006C31.8847 24.7183 31.5748 24.4548 31.3461 24.1101C31.1207 23.7654 31.008 23.3428 31.008 22.8423C31.008 22.4115 31.0909 22.0568 31.2566 21.7784C31.4223 21.5 31.6461 21.2796 31.9278 21.1172C32.2095 20.9548 32.5244 20.8321 32.8724 20.7493C33.2204 20.6664 33.575 20.6035 33.9363 20.5604C34.3937 20.5073 34.7649 20.4643 35.0499 20.4311C35.335 20.3946 35.5421 20.3366 35.6714 20.2571C35.8006 20.1776 35.8653 20.0483 35.8653 19.8693V19.8345C35.8653 19.4003 35.7426 19.0639 35.4974 18.8253C35.2554 18.5866 34.8942 18.4673 34.4136 18.4673C33.9131 18.4673 33.5187 18.5784 33.2303 18.8004C32.9453 19.0192 32.7481 19.2628 32.6387 19.5312L31.2417 19.2131C31.4074 18.7491 31.6494 18.3745 31.9676 18.0895C32.289 17.8011 32.6586 17.5923 33.0762 17.4631C33.4938 17.3305 33.933 17.2642 34.3937 17.2642C34.6986 17.2642 35.0218 17.3007 35.3631 17.3736C35.7078 17.4432 36.0293 17.5724 36.3276 17.7614C36.6292 17.9503 36.8762 18.2204 37.0684 18.5717C37.2606 18.9197 37.3568 19.3722 37.3568 19.929V25H35.9051V23.956H35.8454C35.7493 24.1482 35.6051 24.3371 35.4129 24.5227C35.2206 24.7083 34.9737 24.8625 34.6721 24.9851C34.3705 25.1077 34.0092 25.169 33.5883 25.169ZM33.9114 23.9759C34.3224 23.9759 34.6738 23.8946 34.9654 23.7322C35.2604 23.5698 35.4841 23.3577 35.6366 23.0959C35.7924 22.8307 35.8703 22.5473 35.8703 22.2457V21.2614C35.8172 21.3144 35.7145 21.3641 35.562 21.4105C35.4129 21.4536 35.2422 21.4917 35.0499 21.5249C34.8577 21.5547 34.6704 21.5829 34.4881 21.6094C34.3059 21.6326 34.1534 21.6525 34.0308 21.669C33.7424 21.7055 33.4789 21.7668 33.2403 21.853C33.005 21.9392 32.816 22.0634 32.6735 22.2259C32.5343 22.3849 32.4647 22.5971 32.4647 22.8622C32.4647 23.2301 32.6006 23.5085 32.8724 23.6974C33.1442 23.883 33.4905 23.9759 33.9114 23.9759ZM40.8232 20.4659V25H39.3367V17.3636H40.7635V18.6065H40.858C41.0337 18.2022 41.3088 17.8774 41.6833 17.6321C42.0611 17.3868 42.5367 17.2642 43.1101 17.2642C43.6305 17.2642 44.0862 17.3736 44.4773 17.5923C44.8684 17.8078 45.1717 18.1293 45.3871 18.5568C45.6026 18.9844 45.7103 19.513 45.7103 20.1428V25H44.2238V20.3217C44.2238 19.7682 44.0796 19.3357 43.7912 19.0241C43.5029 18.7093 43.1068 18.5518 42.603 18.5518C42.2583 18.5518 41.9517 18.6264 41.6833 18.7756C41.4181 18.9247 41.2077 19.1435 41.0519 19.4318C40.8994 19.7169 40.8232 20.0616 40.8232 20.4659ZM51.1243 25.1392C50.4117 25.1392 49.782 25.0166 49.2351 24.7713C48.6916 24.526 48.2657 24.188 47.9574 23.7571C47.6492 23.3262 47.4967 22.8357 47.5 22.2855C47.4967 21.8546 47.5846 21.4586 47.7635 21.0973C47.9458 20.7327 48.1928 20.4295 48.5043 20.1875C48.8159 19.9422 49.1639 19.7865 49.5483 19.7202V19.6605C49.0412 19.5379 48.6352 19.2661 48.3303 18.8452C48.0254 18.4242 47.8746 17.9403 47.8779 17.3935C47.8746 16.8731 48.0121 16.4091 48.2905 16.0014C48.5723 15.5904 48.9584 15.2673 49.4489 15.032C49.9394 14.7966 50.4979 14.679 51.1243 14.679C51.7441 14.679 52.2976 14.7983 52.7848 15.0369C53.2754 15.2723 53.6615 15.5954 53.9432 16.0064C54.2249 16.4141 54.3675 16.8764 54.3708 17.3935C54.3675 17.9403 54.2117 18.4242 53.9035 18.8452C53.5952 19.2661 53.1942 19.5379 52.7003 19.6605V19.7202C53.0815 19.7865 53.4245 19.9422 53.7294 20.1875C54.0377 20.4295 54.283 20.7327 54.4652 21.0973C54.6508 21.4586 54.7453 21.8546 54.7486 22.2855C54.7453 22.8357 54.5895 23.3262 54.2813 23.7571C53.9731 24.188 53.5455 24.526 52.9986 24.7713C52.4551 25.0166 51.8303 25.1392 51.1243 25.1392ZM51.1243 23.8814C51.5453 23.8814 51.9098 23.8118 52.2181 23.6726C52.5263 23.5301 52.765 23.3329 52.934 23.081C53.103 22.8258 53.1892 22.5275 53.1925 22.1861C53.1892 21.8314 53.0964 21.5182 52.9141 21.2464C52.7351 20.9747 52.4915 20.7609 52.1833 20.6051C51.875 20.4493 51.5221 20.3714 51.1243 20.3714C50.7233 20.3714 50.367 20.4493 50.0554 20.6051C49.7439 20.7609 49.4986 20.9747 49.3196 21.2464C49.1407 21.5182 49.0528 21.8314 49.0562 22.1861C49.0528 22.5275 49.134 22.8258 49.2998 23.081C49.4688 23.3329 49.7091 23.5301 50.0206 23.6726C50.3322 23.8118 50.7001 23.8814 51.1243 23.8814ZM51.1243 19.1435C51.4624 19.1435 51.7624 19.0755 52.0242 18.9396C52.286 18.8037 52.4915 18.6148 52.6407 18.3729C52.7931 18.1309 52.871 17.8475 52.8743 17.5227C52.871 17.2045 52.7948 16.9261 52.6456 16.6875C52.4998 16.4489 52.296 16.2649 52.0341 16.1357C51.7723 16.0031 51.469 15.9368 51.1243 15.9368C50.773 15.9368 50.4648 16.0031 50.1996 16.1357C49.9378 16.2649 49.7339 16.4489 49.5881 16.6875C49.4423 16.9261 49.371 17.2045 49.3743 17.5227C49.371 17.8475 49.4439 18.1309 49.5931 18.3729C49.7422 18.6148 49.9477 18.8037 50.2096 18.9396C50.4747 19.0755 50.7796 19.1435 51.1243 19.1435ZM60.0744 25.169C59.2889 25.1657 58.6178 24.9586 58.0609 24.5476C57.5041 24.1366 57.0782 23.5384 56.7832 22.7528C56.4883 21.9673 56.3408 21.0211 56.3408 19.9141C56.3408 18.8104 56.4883 17.8674 56.7832 17.0852C57.0815 16.303 57.5091 15.7064 58.0659 15.2955C58.6261 14.8845 59.2956 14.679 60.0744 14.679C60.8533 14.679 61.5212 14.8861 62.078 15.3004C62.6348 15.7114 63.0607 16.308 63.3557 17.0902C63.654 17.8691 63.8031 18.8104 63.8031 19.9141C63.8031 21.0244 63.6556 21.9723 63.3607 22.7578C63.0657 23.54 62.6398 24.1383 62.083 24.5526C61.5261 24.9635 60.8566 25.169 60.0744 25.169ZM60.0744 23.8416C60.7638 23.8416 61.3024 23.5052 61.6902 22.8324C62.0813 22.1596 62.2769 21.1868 62.2769 19.9141C62.2769 19.0689 62.1874 18.3546 62.0084 17.7713C61.8327 17.1847 61.5792 16.7405 61.2477 16.4389C60.9196 16.134 60.5285 15.9815 60.0744 15.9815C59.3884 15.9815 58.8498 16.3196 58.4587 16.9957C58.0676 17.6719 57.8704 18.6446 57.8671 19.9141C57.8671 20.7625 57.9549 21.4801 58.1305 22.0668C58.3095 22.6501 58.5631 23.0926 58.8912 23.3942C59.2193 23.6925 59.6137 23.8416 60.0744 23.8416ZM69.1116 25.169C68.326 25.1657 67.6549 24.9586 67.0981 24.5476C66.5412 24.1366 66.1153 23.5384 65.8204 22.7528C65.5254 21.9673 65.3779 21.0211 65.3779 19.9141C65.3779 18.8104 65.5254 17.8674 65.8204 17.0852C66.1187 16.303 66.5462 15.7064 67.103 15.2955C67.6632 14.8845 68.3327 14.679 69.1116 14.679C69.8904 14.679 70.5583 14.8861 71.1151 15.3004C71.6719 15.7114 72.0978 16.308 72.3928 17.0902C72.6911 17.8691 72.8402 18.8104 72.8402 19.9141C72.8402 21.0244 72.6928 21.9723 72.3978 22.7578C72.1028 23.54 71.6769 24.1383 71.1201 24.5526C70.5633 24.9635 69.8937 25.169 69.1116 25.169ZM69.1116 23.8416C69.8009 23.8416 70.3395 23.5052 70.7273 22.8324C71.1184 22.1596 71.314 21.1868 71.314 19.9141C71.314 19.0689 71.2245 18.3546 71.0455 17.7713C70.8698 17.1847 70.6163 16.7405 70.2848 16.4389C69.9567 16.134 69.5656 15.9815 69.1116 15.9815C68.4255 15.9815 67.8869 16.3196 67.4958 16.9957C67.1047 17.6719 66.9075 18.6446 66.9042 19.9141C66.9042 20.7625 66.992 21.4801 67.1677 22.0668C67.3466 22.6501 67.6002 23.0926 67.9283 23.3942C68.2564 23.6925 68.6508 23.8416 69.1116 23.8416Z" fill="white"/>
</svg>
