<svg width="342" height="40" viewBox="0 0 342 40" fill="none" xmlns="http://www.w3.org/2000/svg">
<rect width="341.333" height="40" transform="translate(0.333496)" fill="#CBF6F4"/>
<path d="M21.9088 18.1293H20.3576C20.298 17.7978 20.187 17.5062 20.0245 17.2543C19.8621 17.0024 19.6633 16.7886 19.428 16.6129C19.1926 16.4373 18.9291 16.3047 18.6375 16.2152C18.3491 16.1257 18.0425 16.081 17.7177 16.081C17.1311 16.081 16.6058 16.2285 16.1417 16.5234C15.681 16.8184 15.3165 17.2509 15.048 17.821C14.7828 18.3911 14.6503 19.0871 14.6503 19.9091C14.6503 20.7377 14.7828 21.437 15.048 22.0071C15.3165 22.5772 15.6827 23.008 16.1467 23.2997C16.6107 23.5914 17.1327 23.7372 17.7128 23.7372C18.0343 23.7372 18.3392 23.6941 18.6275 23.608C18.9192 23.5185 19.1827 23.3875 19.418 23.2152C19.6533 23.0429 19.8522 22.8324 20.0146 22.5838C20.1803 22.3319 20.2947 22.0436 20.3576 21.7188L21.9088 21.7237C21.8259 22.2242 21.6652 22.6849 21.4265 23.1058C21.1912 23.5234 20.8879 23.8847 20.5167 24.1896C20.1488 24.4912 19.7279 24.7249 19.254 24.8906C18.78 25.0563 18.2629 25.1392 17.7028 25.1392C16.8212 25.1392 16.0357 24.9304 15.3463 24.5128C14.6569 24.0919 14.1133 23.4903 13.7156 22.7081C13.3212 21.9259 13.124 20.9929 13.124 19.9091C13.124 18.822 13.3228 17.889 13.7206 17.1101C14.1183 16.3279 14.6619 15.728 15.3513 15.3104C16.0406 14.8894 16.8245 14.679 17.7028 14.679C18.2431 14.679 18.7468 14.7569 19.2142 14.9126C19.6848 15.0651 20.1074 15.2905 20.4819 15.5888C20.8565 15.8838 21.1664 16.245 21.4116 16.6726C21.6569 17.0968 21.8226 17.5824 21.9088 18.1293ZM24.5947 27.8636C24.3726 27.8636 24.1704 27.8454 23.9881 27.8089C23.8059 27.7758 23.67 27.7393 23.5805 27.6996L23.9384 26.4815C24.2102 26.5545 24.4522 26.5859 24.6643 26.576C24.8764 26.5661 25.0637 26.4865 25.2261 26.3374C25.3918 26.1882 25.5376 25.9446 25.6636 25.6065L25.8475 25.0994L23.0535 17.3636H24.6444L26.5783 23.2898H26.6579L28.5918 17.3636H30.1877L27.0407 26.0192C26.8949 26.4169 26.7093 26.7533 26.4839 27.0284C26.2585 27.3068 25.99 27.5156 25.6785 27.6548C25.3669 27.794 25.0057 27.8636 24.5947 27.8636ZM33.5883 25.169C33.1044 25.169 32.6669 25.0795 32.2758 24.9006C31.8847 24.7183 31.5748 24.4548 31.3461 24.1101C31.1207 23.7654 31.008 23.3428 31.008 22.8423C31.008 22.4115 31.0909 22.0568 31.2566 21.7784C31.4223 21.5 31.6461 21.2796 31.9278 21.1172C32.2095 20.9548 32.5244 20.8321 32.8724 20.7493C33.2204 20.6664 33.575 20.6035 33.9363 20.5604C34.3937 20.5073 34.7649 20.4643 35.0499 20.4311C35.335 20.3946 35.5421 20.3366 35.6714 20.2571C35.8006 20.1776 35.8653 20.0483 35.8653 19.8693V19.8345C35.8653 19.4003 35.7426 19.0639 35.4974 18.8253C35.2554 18.5866 34.8942 18.4673 34.4136 18.4673C33.9131 18.4673 33.5187 18.5784 33.2303 18.8004C32.9453 19.0192 32.7481 19.2628 32.6387 19.5312L31.2417 19.2131C31.4074 18.7491 31.6494 18.3745 31.9676 18.0895C32.289 17.8011 32.6586 17.5923 33.0762 17.4631C33.4938 17.3305 33.933 17.2642 34.3937 17.2642C34.6986 17.2642 35.0218 17.3007 35.3631 17.3736C35.7078 17.4432 36.0293 17.5724 36.3276 17.7614C36.6292 17.9503 36.8762 18.2204 37.0684 18.5717C37.2606 18.9197 37.3568 19.3722 37.3568 19.929V25H35.9051V23.956H35.8454C35.7493 24.1482 35.6051 24.3371 35.4129 24.5227C35.2206 24.7083 34.9737 24.8625 34.6721 24.9851C34.3705 25.1077 34.0092 25.169 33.5883 25.169ZM33.9114 23.9759C34.3224 23.9759 34.6738 23.8946 34.9654 23.7322C35.2604 23.5698 35.4841 23.3577 35.6366 23.0959C35.7924 22.8307 35.8703 22.5473 35.8703 22.2457V21.2614C35.8172 21.3144 35.7145 21.3641 35.562 21.4105C35.4129 21.4536 35.2422 21.4917 35.0499 21.5249C34.8577 21.5547 34.6704 21.5829 34.4881 21.6094C34.3059 21.6326 34.1534 21.6525 34.0308 21.669C33.7424 21.7055 33.4789 21.7668 33.2403 21.853C33.005 21.9392 32.816 22.0634 32.6735 22.2259C32.5343 22.3849 32.4647 22.5971 32.4647 22.8622C32.4647 23.2301 32.6006 23.5085 32.8724 23.6974C33.1442 23.883 33.4905 23.9759 33.9114 23.9759ZM40.8232 20.4659V25H39.3367V17.3636H40.7635V18.6065H40.858C41.0337 18.2022 41.3088 17.8774 41.6833 17.6321C42.0611 17.3868 42.5367 17.2642 43.1101 17.2642C43.6305 17.2642 44.0862 17.3736 44.4773 17.5923C44.8684 17.8078 45.1717 18.1293 45.3871 18.5568C45.6026 18.9844 45.7103 19.513 45.7103 20.1428V25H44.2238V20.3217C44.2238 19.7682 44.0796 19.3357 43.7912 19.0241C43.5029 18.7093 43.1068 18.5518 42.603 18.5518C42.2583 18.5518 41.9517 18.6264 41.6833 18.7756C41.4181 18.9247 41.2077 19.1435 41.0519 19.4318C40.8994 19.7169 40.8232 20.0616 40.8232 20.4659ZM47.684 25V23.8864L51.1293 20.3168C51.4972 19.929 51.8005 19.5893 52.0391 19.2976C52.2811 19.0026 52.4617 18.7225 52.581 18.4574C52.7003 18.1922 52.76 17.9105 52.76 17.6122C52.76 17.2741 52.6804 16.9825 52.5214 16.7372C52.3623 16.4886 52.1452 16.2981 51.8701 16.1655C51.595 16.0296 51.2851 15.9616 50.9404 15.9616C50.5758 15.9616 50.2576 16.0362 49.9858 16.1854C49.7141 16.3345 49.5053 16.545 49.3594 16.8168C49.2136 17.0885 49.1407 17.4067 49.1407 17.7713H47.6741C47.6741 17.1515 47.8166 16.6096 48.1016 16.1456C48.3866 15.6816 48.7777 15.322 49.2749 15.0668C49.7721 14.8082 50.3372 14.679 50.9702 14.679C51.6099 14.679 52.1733 14.8066 52.6606 15.0618C53.1511 15.3137 53.5339 15.6584 53.809 16.0959C54.0841 16.5301 54.2216 17.0206 54.2216 17.5675C54.2216 17.9453 54.1504 18.3149 54.0079 18.6761C53.8687 19.0374 53.625 19.4401 53.277 19.8842C52.929 20.325 52.4451 20.8603 51.8253 21.4901L49.8019 23.608V23.6825H54.3857V25H47.684ZM59.8147 25.169C59.0292 25.1657 58.358 24.9586 57.8012 24.5476C57.2444 24.1366 56.8185 23.5384 56.5235 22.7528C56.2285 21.9673 56.081 21.0211 56.081 19.9141C56.081 18.8104 56.2285 17.8674 56.5235 17.0852C56.8218 16.303 57.2493 15.7064 57.8062 15.2955C58.3663 14.8845 59.0358 14.679 59.8147 14.679C60.5936 14.679 61.2614 14.8861 61.8182 15.3004C62.375 15.7114 62.8009 16.308 63.0959 17.0902C63.3942 17.8691 63.5434 18.8104 63.5434 19.9141C63.5434 21.0244 63.3959 21.9723 63.1009 22.7578C62.8059 23.54 62.38 24.1383 61.8232 24.5526C61.2664 24.9635 60.5969 25.169 59.8147 25.169ZM59.8147 23.8416C60.5041 23.8416 61.0427 23.5052 61.4304 22.8324C61.8215 22.1596 62.0171 21.1868 62.0171 19.9141C62.0171 19.0689 61.9276 18.3546 61.7486 17.7713C61.573 17.1847 61.3194 16.7405 60.988 16.4389C60.6598 16.134 60.2687 15.9815 59.8147 15.9815C59.1286 15.9815 58.59 16.3196 58.1989 16.9957C57.8078 17.6719 57.6106 18.6446 57.6073 19.9141C57.6073 20.7625 57.6951 21.4801 57.8708 22.0668C58.0498 22.6501 58.3033 23.0926 58.6314 23.3942C58.9596 23.6925 59.354 23.8416 59.8147 23.8416ZM68.8518 25.169C68.0663 25.1657 67.3951 24.9586 66.8383 24.5476C66.2815 24.1366 65.8556 23.5384 65.5606 22.7528C65.2656 21.9673 65.1181 21.0211 65.1181 19.9141C65.1181 18.8104 65.2656 17.8674 65.5606 17.0852C65.8589 16.303 66.2864 15.7064 66.8433 15.2955C67.4034 14.8845 68.0729 14.679 68.8518 14.679C69.6307 14.679 70.2985 14.8861 70.8553 15.3004C71.4122 15.7114 71.8381 16.308 72.133 17.0902C72.4313 17.8691 72.5805 18.8104 72.5805 19.9141C72.5805 21.0244 72.433 21.9723 72.138 22.7578C71.843 23.54 71.4171 24.1383 70.8603 24.5526C70.3035 24.9635 69.634 25.169 68.8518 25.169ZM68.8518 23.8416C69.5412 23.8416 70.0798 23.5052 70.4676 22.8324C70.8586 22.1596 71.0542 21.1868 71.0542 19.9141C71.0542 19.0689 70.9647 18.3546 70.7857 17.7713C70.6101 17.1847 70.3565 16.7405 70.0251 16.4389C69.697 16.134 69.3059 15.9815 68.8518 15.9815C68.1657 15.9815 67.6271 16.3196 67.236 16.9957C66.8449 17.6719 66.6477 18.6446 66.6444 19.9141C66.6444 20.7625 66.7322 21.4801 66.9079 22.0668C67.0869 22.6501 67.3404 23.0926 67.6685 23.3942C67.9967 23.6925 68.3911 23.8416 68.8518 23.8416Z" fill="#0A0A0B"/>
</svg>
