<svg width="342" height="40" viewBox="0 0 342 40" fill="none" xmlns="http://www.w3.org/2000/svg">
<rect width="341.333" height="40" transform="translate(0.333496)" fill="#7BEAE7"/>
<path d="M21.9088 18.1293H20.3576C20.298 17.7978 20.187 17.5062 20.0245 17.2543C19.8621 17.0024 19.6633 16.7886 19.428 16.6129C19.1926 16.4373 18.9291 16.3047 18.6375 16.2152C18.3491 16.1257 18.0425 16.081 17.7177 16.081C17.1311 16.081 16.6058 16.2285 16.1417 16.5234C15.681 16.8184 15.3165 17.2509 15.048 17.821C14.7828 18.3911 14.6503 19.0871 14.6503 19.9091C14.6503 20.7377 14.7828 21.437 15.048 22.0071C15.3165 22.5772 15.6827 23.008 16.1467 23.2997C16.6107 23.5914 17.1327 23.7372 17.7128 23.7372C18.0343 23.7372 18.3392 23.6941 18.6275 23.608C18.9192 23.5185 19.1827 23.3875 19.418 23.2152C19.6533 23.0429 19.8522 22.8324 20.0146 22.5838C20.1803 22.3319 20.2947 22.0436 20.3576 21.7188L21.9088 21.7237C21.8259 22.2242 21.6652 22.6849 21.4265 23.1058C21.1912 23.5234 20.8879 23.8847 20.5167 24.1896C20.1488 24.4912 19.7279 24.7249 19.254 24.8906C18.78 25.0563 18.2629 25.1392 17.7028 25.1392C16.8212 25.1392 16.0357 24.9304 15.3463 24.5128C14.6569 24.0919 14.1133 23.4903 13.7156 22.7081C13.3212 21.9259 13.124 20.9929 13.124 19.9091C13.124 18.822 13.3228 17.889 13.7206 17.1101C14.1183 16.3279 14.6619 15.728 15.3513 15.3104C16.0406 14.8894 16.8245 14.679 17.7028 14.679C18.2431 14.679 18.7468 14.7569 19.2142 14.9126C19.6848 15.0651 20.1074 15.2905 20.4819 15.5888C20.8565 15.8838 21.1664 16.245 21.4116 16.6726C21.6569 17.0968 21.8226 17.5824 21.9088 18.1293ZM24.5947 27.8636C24.3726 27.8636 24.1704 27.8454 23.9881 27.8089C23.8059 27.7758 23.67 27.7393 23.5805 27.6996L23.9384 26.4815C24.2102 26.5545 24.4522 26.5859 24.6643 26.576C24.8764 26.5661 25.0637 26.4865 25.2261 26.3374C25.3918 26.1882 25.5376 25.9446 25.6636 25.6065L25.8475 25.0994L23.0535 17.3636H24.6444L26.5783 23.2898H26.6579L28.5918 17.3636H30.1877L27.0407 26.0192C26.8949 26.4169 26.7093 26.7533 26.4839 27.0284C26.2585 27.3068 25.99 27.5156 25.6785 27.6548C25.3669 27.794 25.0057 27.8636 24.5947 27.8636ZM33.5883 25.169C33.1044 25.169 32.6669 25.0795 32.2758 24.9006C31.8847 24.7183 31.5748 24.4548 31.3461 24.1101C31.1207 23.7654 31.008 23.3428 31.008 22.8423C31.008 22.4115 31.0909 22.0568 31.2566 21.7784C31.4223 21.5 31.6461 21.2796 31.9278 21.1172C32.2095 20.9548 32.5244 20.8321 32.8724 20.7493C33.2204 20.6664 33.575 20.6035 33.9363 20.5604C34.3937 20.5073 34.7649 20.4643 35.0499 20.4311C35.335 20.3946 35.5421 20.3366 35.6714 20.2571C35.8006 20.1776 35.8653 20.0483 35.8653 19.8693V19.8345C35.8653 19.4003 35.7426 19.0639 35.4974 18.8253C35.2554 18.5866 34.8942 18.4673 34.4136 18.4673C33.9131 18.4673 33.5187 18.5784 33.2303 18.8004C32.9453 19.0192 32.7481 19.2628 32.6387 19.5312L31.2417 19.2131C31.4074 18.7491 31.6494 18.3745 31.9676 18.0895C32.289 17.8011 32.6586 17.5923 33.0762 17.4631C33.4938 17.3305 33.933 17.2642 34.3937 17.2642C34.6986 17.2642 35.0218 17.3007 35.3631 17.3736C35.7078 17.4432 36.0293 17.5724 36.3276 17.7614C36.6292 17.9503 36.8762 18.2204 37.0684 18.5717C37.2606 18.9197 37.3568 19.3722 37.3568 19.929V25H35.9051V23.956H35.8454C35.7493 24.1482 35.6051 24.3371 35.4129 24.5227C35.2206 24.7083 34.9737 24.8625 34.6721 24.9851C34.3705 25.1077 34.0092 25.169 33.5883 25.169ZM33.9114 23.9759C34.3224 23.9759 34.6738 23.8946 34.9654 23.7322C35.2604 23.5698 35.4841 23.3577 35.6366 23.0959C35.7924 22.8307 35.8703 22.5473 35.8703 22.2457V21.2614C35.8172 21.3144 35.7145 21.3641 35.562 21.4105C35.4129 21.4536 35.2422 21.4917 35.0499 21.5249C34.8577 21.5547 34.6704 21.5829 34.4881 21.6094C34.3059 21.6326 34.1534 21.6525 34.0308 21.669C33.7424 21.7055 33.4789 21.7668 33.2403 21.853C33.005 21.9392 32.816 22.0634 32.6735 22.2259C32.5343 22.3849 32.4647 22.5971 32.4647 22.8622C32.4647 23.2301 32.6006 23.5085 32.8724 23.6974C33.1442 23.883 33.4905 23.9759 33.9114 23.9759ZM40.8232 20.4659V25H39.3367V17.3636H40.7635V18.6065H40.858C41.0337 18.2022 41.3088 17.8774 41.6833 17.6321C42.0611 17.3868 42.5367 17.2642 43.1101 17.2642C43.6305 17.2642 44.0862 17.3736 44.4773 17.5923C44.8684 17.8078 45.1717 18.1293 45.3871 18.5568C45.6026 18.9844 45.7103 19.513 45.7103 20.1428V25H44.2238V20.3217C44.2238 19.7682 44.0796 19.3357 43.7912 19.0241C43.5029 18.7093 43.1068 18.5518 42.603 18.5518C42.2583 18.5518 41.9517 18.6264 41.6833 18.7756C41.4181 18.9247 41.2077 19.1435 41.0519 19.4318C40.8994 19.7169 40.8232 20.0616 40.8232 20.4659ZM47.4702 23.0114V21.7685L51.8701 14.8182H52.8495V16.6477H52.228L49.081 21.6293V21.7088H55.1116V23.0114H47.4702ZM52.2976 25V22.6335L52.3076 22.0668V14.8182H53.7642V25H52.2976ZM60.3889 25.169C59.6034 25.1657 58.9322 24.9586 58.3754 24.5476C57.8186 24.1366 57.3927 23.5384 57.0977 22.7528C56.8027 21.9673 56.6552 21.0211 56.6552 19.9141C56.6552 18.8104 56.8027 17.8674 57.0977 17.0852C57.396 16.303 57.8236 15.7064 58.3804 15.2955C58.9405 14.8845 59.61 14.679 60.3889 14.679C61.1678 14.679 61.8356 14.8861 62.3924 15.3004C62.9493 15.7114 63.3752 16.308 63.6701 17.0902C63.9684 17.8691 64.1176 18.8104 64.1176 19.9141C64.1176 21.0244 63.9701 21.9723 63.6751 22.7578C63.3801 23.54 62.9542 24.1383 62.3974 24.5526C61.8406 24.9635 61.1711 25.169 60.3889 25.169ZM60.3889 23.8416C61.0783 23.8416 61.6169 23.5052 62.0047 22.8324C62.3958 22.1596 62.5913 21.1868 62.5913 19.9141C62.5913 19.0689 62.5018 18.3546 62.3228 17.7713C62.1472 17.1847 61.8936 16.7405 61.5622 16.4389C61.2341 16.134 60.843 15.9815 60.3889 15.9815C59.7028 15.9815 59.1642 16.3196 58.7731 16.9957C58.382 17.6719 58.1848 18.6446 58.1815 19.9141C58.1815 20.7625 58.2693 21.4801 58.445 22.0668C58.624 22.6501 58.8775 23.0926 59.2057 23.3942C59.5338 23.6925 59.9282 23.8416 60.3889 23.8416ZM69.426 25.169C68.6405 25.1657 67.9693 24.9586 67.4125 24.5476C66.8557 24.1366 66.4298 23.5384 66.1348 22.7528C65.8398 21.9673 65.6923 21.0211 65.6923 19.9141C65.6923 18.8104 65.8398 17.8674 66.1348 17.0852C66.4331 16.303 66.8607 15.7064 67.4175 15.2955C67.9776 14.8845 68.6471 14.679 69.426 14.679C70.2049 14.679 70.8727 14.8861 71.4296 15.3004C71.9864 15.7114 72.4123 16.308 72.7073 17.0902C73.0055 17.8691 73.1547 18.8104 73.1547 19.9141C73.1547 21.0244 73.0072 21.9723 72.7122 22.7578C72.4172 23.54 71.9913 24.1383 71.4345 24.5526C70.8777 24.9635 70.2082 25.169 69.426 25.169ZM69.426 23.8416C70.1154 23.8416 70.654 23.5052 71.0418 22.8324C71.4329 22.1596 71.6284 21.1868 71.6284 19.9141C71.6284 19.0689 71.5389 18.3546 71.36 17.7713C71.1843 17.1847 70.9307 16.7405 70.5993 16.4389C70.2712 16.134 69.8801 15.9815 69.426 15.9815C68.7399 15.9815 68.2013 16.3196 67.8102 16.9957C67.4191 17.6719 67.2219 18.6446 67.2186 19.9141C67.2186 20.7625 67.3064 21.4801 67.4821 22.0668C67.6611 22.6501 67.9146 23.0926 68.2428 23.3942C68.5709 23.6925 68.9653 23.8416 69.426 23.8416Z" fill="#0A0A0B"/>
</svg>
