<svg width="240" height="40" viewBox="0 0 240 40" fill="none" xmlns="http://www.w3.org/2000/svg">
<rect width="240" height="40" fill="#236A75"/>
<path d="M21.5753 18.1293H20.0241C19.9645 17.7978 19.8535 17.5062 19.6911 17.2543C19.5286 17.0024 19.3298 16.7886 19.0945 16.6129C18.8591 16.4373 18.5956 16.3047 18.304 16.2152C18.0156 16.1257 17.709 16.081 17.3842 16.081C16.7976 16.081 16.2723 16.2285 15.8082 16.5234C15.3475 16.8184 14.983 17.2509 14.7145 17.821C14.4493 18.3911 14.3168 19.0871 14.3168 19.9091C14.3168 20.7377 14.4493 21.437 14.7145 22.0071C14.983 22.5772 15.3492 23.008 15.8132 23.2997C16.2772 23.5914 16.7992 23.7372 17.3793 23.7372C17.7008 23.7372 18.0057 23.6941 18.294 23.608C18.5857 23.5185 18.8492 23.3875 19.0845 23.2152C19.3198 23.0429 19.5187 22.8324 19.6811 22.5838C19.8468 22.3319 19.9612 22.0436 20.0241 21.7188L21.5753 21.7237C21.4924 22.2242 21.3317 22.6849 21.093 23.1058C20.8577 23.5234 20.5545 23.8847 20.1832 24.1896C19.8153 24.4912 19.3944 24.7249 18.9205 24.8906C18.4465 25.0563 17.9295 25.1392 17.3693 25.1392C16.4877 25.1392 15.7022 24.9304 15.0128 24.5128C14.3234 24.0919 13.7798 23.4903 13.3821 22.7081C12.9877 21.9259 12.7905 20.9929 12.7905 19.9091C12.7905 18.822 12.9893 17.889 13.3871 17.1101C13.7848 16.3279 14.3284 15.728 15.0178 15.3104C15.7071 14.8894 16.491 14.679 17.3693 14.679C17.9096 14.679 18.4134 14.7569 18.8807 14.9126C19.3513 15.0651 19.7739 15.2905 20.1484 15.5888C20.523 15.8838 20.8329 16.245 21.0781 16.6726C21.3234 17.0968 21.4891 17.5824 21.5753 18.1293ZM24.1712 27.8636C23.9491 27.8636 23.7469 27.8454 23.5647 27.8089C23.3824 27.7758 23.2465 27.7393 23.157 27.6996L23.5149 26.4815C23.7867 26.5545 24.0287 26.5859 24.2408 26.576C24.4529 26.5661 24.6402 26.4865 24.8026 26.3374C24.9683 26.1882 25.1141 25.9446 25.2401 25.6065L25.424 25.0994L22.63 17.3636H24.2209L26.1549 23.2898H26.2344L28.1683 17.3636H29.7642L26.6172 26.0192C26.4714 26.4169 26.2858 26.7533 26.0604 27.0284C25.835 27.3068 25.5665 27.5156 25.255 27.6548C24.9434 27.794 24.5822 27.8636 24.1712 27.8636ZM33.0748 25.169C32.5909 25.169 32.1534 25.0795 31.7623 24.9006C31.3712 24.7183 31.0613 24.4548 30.8326 24.1101C30.6072 23.7654 30.4945 23.3428 30.4945 22.8423C30.4945 22.4115 30.5774 22.0568 30.7431 21.7784C30.9088 21.5 31.1326 21.2796 31.4143 21.1172C31.696 20.9548 32.0109 20.8321 32.3589 20.7493C32.7069 20.6664 33.0615 20.6035 33.4228 20.5604C33.8802 20.5073 34.2514 20.4643 34.5364 20.4311C34.8215 20.3946 35.0286 20.3366 35.1579 20.2571C35.2872 20.1776 35.3518 20.0483 35.3518 19.8693V19.8345C35.3518 19.4003 35.2291 19.0639 34.9839 18.8253C34.7419 18.5866 34.3807 18.4673 33.9001 18.4673C33.3996 18.4673 33.0052 18.5784 32.7168 18.8004C32.4318 19.0192 32.2346 19.2628 32.1252 19.5312L30.7282 19.2131C30.8939 18.7491 31.1359 18.3745 31.4541 18.0895C31.7756 17.8011 32.1451 17.5923 32.5627 17.4631C32.9803 17.3305 33.4195 17.2642 33.8802 17.2642C34.1851 17.2642 34.5083 17.3007 34.8497 17.3736C35.1943 17.4432 35.5158 17.5724 35.8141 17.7614C36.1158 17.9503 36.3627 18.2204 36.5549 18.5717C36.7471 18.9197 36.8433 19.3722 36.8433 19.929V25H35.3916V23.956H35.3319C35.2358 24.1482 35.0916 24.3371 34.8994 24.5227C34.7071 24.7083 34.4602 24.8625 34.1586 24.9851C33.857 25.1077 33.4957 25.169 33.0748 25.169ZM33.3979 23.9759C33.8089 23.9759 34.1603 23.8946 34.4519 23.7322C34.7469 23.5698 34.9706 23.3577 35.1231 23.0959C35.2789 22.8307 35.3568 22.5473 35.3568 22.2457V21.2614C35.3037 21.3144 35.201 21.3641 35.0485 21.4105C34.8994 21.4536 34.7287 21.4917 34.5364 21.5249C34.3442 21.5547 34.1569 21.5829 33.9747 21.6094C33.7924 21.6326 33.6399 21.6525 33.5173 21.669C33.2289 21.7055 32.9654 21.7668 32.7268 21.853C32.4915 21.9392 32.3025 22.0634 32.16 22.2259C32.0208 22.3849 31.9512 22.5971 31.9512 22.8622C31.9512 23.2301 32.0871 23.5085 32.3589 23.6974C32.6307 23.883 32.977 23.9759 33.3979 23.9759ZM40.2197 20.4659V25H38.7332V17.3636H40.16V18.6065H40.2545C40.4302 18.2022 40.7053 17.8774 41.0798 17.6321C41.4576 17.3868 41.9332 17.2642 42.5066 17.2642C43.027 17.2642 43.4827 17.3736 43.8738 17.5923C44.2649 17.8078 44.5682 18.1293 44.7836 18.5568C44.9991 18.9844 45.1068 19.513 45.1068 20.1428V25H43.6203V20.3217C43.6203 19.7682 43.4761 19.3357 43.1877 19.0241C42.8994 18.7093 42.5033 18.5518 41.9995 18.5518C41.6548 18.5518 41.3483 18.6264 41.0798 18.7756C40.8146 18.9247 40.6042 19.1435 40.4484 19.4318C40.2959 19.7169 40.2197 20.0616 40.2197 20.4659ZM50.4308 25.1392C49.7182 25.1392 49.0885 25.0166 48.5416 24.7713C47.9981 24.526 47.5722 24.188 47.2639 23.7571C46.9557 23.3262 46.8032 22.8357 46.8065 22.2855C46.8032 21.8546 46.8911 21.4586 47.07 21.0973C47.2523 20.7327 47.4993 20.4295 47.8108 20.1875C48.1224 19.9422 48.4704 19.7865 48.8548 19.7202V19.6605C48.3477 19.5379 47.9417 19.2661 47.6368 18.8452C47.3319 18.4242 47.1811 17.9403 47.1844 17.3935C47.1811 16.8731 47.3186 16.4091 47.597 16.0014C47.8788 15.5904 48.2649 15.2673 48.7554 15.032C49.2459 14.7966 49.8044 14.679 50.4308 14.679C51.0506 14.679 51.6041 14.7983 52.0913 15.0369C52.5819 15.2723 52.968 15.5954 53.2497 16.0064C53.5315 16.4141 53.674 16.8764 53.6773 17.3935C53.674 17.9403 53.5182 18.4242 53.21 18.8452C52.9017 19.2661 52.5007 19.5379 52.0068 19.6605V19.7202C52.388 19.7865 52.731 19.9422 53.036 20.1875C53.3442 20.4295 53.5895 20.7327 53.7717 21.0973C53.9574 21.4586 54.0518 21.8546 54.0551 22.2855C54.0518 22.8357 53.896 23.3262 53.5878 23.7571C53.2796 24.188 52.852 24.526 52.3051 24.7713C51.7616 25.0166 51.1368 25.1392 50.4308 25.1392ZM50.4308 23.8814C50.8518 23.8814 51.2163 23.8118 51.5246 23.6726C51.8328 23.5301 52.0715 23.3329 52.2405 23.081C52.4095 22.8258 52.4957 22.5275 52.499 22.1861C52.4957 21.8314 52.4029 21.5182 52.2206 21.2464C52.0416 20.9747 51.798 20.7609 51.4898 20.6051C51.1815 20.4493 50.8286 20.3714 50.4308 20.3714C50.0298 20.3714 49.6735 20.4493 49.3619 20.6051C49.0504 20.7609 48.8051 20.9747 48.6262 21.2464C48.4472 21.5182 48.3593 21.8314 48.3627 22.1861C48.3593 22.5275 48.4405 22.8258 48.6063 23.081C48.7753 23.3329 49.0156 23.5301 49.3271 23.6726C49.6387 23.8118 50.0066 23.8814 50.4308 23.8814ZM50.4308 19.1435C50.7689 19.1435 51.0689 19.0755 51.3307 18.9396C51.5925 18.8037 51.798 18.6148 51.9472 18.3729C52.0996 18.1309 52.1775 17.8475 52.1808 17.5227C52.1775 17.2045 52.1013 16.9261 51.9521 16.6875C51.8063 16.4489 51.6025 16.2649 51.3406 16.1357C51.0788 16.0031 50.7755 15.9368 50.4308 15.9368C50.0795 15.9368 49.7713 16.0031 49.5061 16.1357C49.2443 16.2649 49.0404 16.4489 48.8946 16.6875C48.7488 16.9261 48.6775 17.2045 48.6808 17.5227C48.6775 17.8475 48.7504 18.1309 48.8996 18.3729C49.0487 18.6148 49.2542 18.8037 49.5161 18.9396C49.7812 19.0755 50.0861 19.1435 50.4308 19.1435ZM59.2909 25.169C58.5054 25.1657 57.8343 24.9586 57.2774 24.5476C56.7206 24.1366 56.2947 23.5384 55.9998 22.7528C55.7048 21.9673 55.5573 21.0211 55.5573 19.9141C55.5573 18.8104 55.7048 17.8674 55.9998 17.0852C56.298 16.303 56.7256 15.7064 57.2824 15.2955C57.8426 14.8845 58.5121 14.679 59.2909 14.679C60.0698 14.679 60.7377 14.8861 61.2945 15.3004C61.8513 15.7114 62.2772 16.308 62.5722 17.0902C62.8705 17.8691 63.0196 18.8104 63.0196 19.9141C63.0196 21.0244 62.8721 21.9723 62.5772 22.7578C62.2822 23.54 61.8563 24.1383 61.2995 24.5526C60.7426 24.9635 60.0731 25.169 59.2909 25.169ZM59.2909 23.8416C59.9803 23.8416 60.5189 23.5052 60.9067 22.8324C61.2978 22.1596 61.4934 21.1868 61.4934 19.9141C61.4934 19.0689 61.4039 18.3546 61.2249 17.7713C61.0492 17.1847 60.7957 16.7405 60.4642 16.4389C60.1361 16.134 59.745 15.9815 59.2909 15.9815C58.6049 15.9815 58.0663 16.3196 57.6752 16.9957C57.2841 17.6719 57.0869 18.6446 57.0836 19.9141C57.0836 20.7625 57.1714 21.4801 57.3471 22.0668C57.526 22.6501 57.7796 23.0926 58.1077 23.3942C58.4358 23.6925 58.8302 23.8416 59.2909 23.8416ZM68.2381 25.169C67.4525 25.1657 66.7814 24.9586 66.2246 24.5476C65.6677 24.1366 65.2418 23.5384 64.9469 22.7528C64.6519 21.9673 64.5044 21.0211 64.5044 19.9141C64.5044 18.8104 64.6519 17.8674 64.9469 17.0852C65.2452 16.303 65.6727 15.7064 66.2295 15.2955C66.7897 14.8845 67.4592 14.679 68.2381 14.679C69.0169 14.679 69.6848 14.8861 70.2416 15.3004C70.7984 15.7114 71.2243 16.308 71.5193 17.0902C71.8176 17.8691 71.9667 18.8104 71.9667 19.9141C71.9667 21.0244 71.8193 21.9723 71.5243 22.7578C71.2293 23.54 70.8034 24.1383 70.2466 24.5526C69.6898 24.9635 69.0203 25.169 68.2381 25.169ZM68.2381 23.8416C68.9274 23.8416 69.466 23.5052 69.8538 22.8324C70.2449 22.1596 70.4405 21.1868 70.4405 19.9141C70.4405 19.0689 70.351 18.3546 70.172 17.7713C69.9963 17.1847 69.7428 16.7405 69.4113 16.4389C69.0832 16.134 68.6921 15.9815 68.2381 15.9815C67.552 15.9815 67.0134 16.3196 66.6223 16.9957C66.2312 17.6719 66.034 18.6446 66.0307 19.9141C66.0307 20.7625 66.1185 21.4801 66.2942 22.0668C66.4731 22.6501 66.7267 23.0926 67.0548 23.3942C67.3829 23.6925 67.7774 23.8416 68.2381 23.8416Z" fill="white"/>
</svg>
