<svg width="240" height="40" viewBox="0 0 240 40" fill="none" xmlns="http://www.w3.org/2000/svg">
<rect width="240" height="40" fill="#287E8A"/>
<path d="M21.5753 18.1293H20.0241C19.9645 17.7978 19.8535 17.5062 19.6911 17.2543C19.5286 17.0024 19.3298 16.7886 19.0945 16.6129C18.8591 16.4373 18.5956 16.3047 18.304 16.2152C18.0156 16.1257 17.709 16.081 17.3842 16.081C16.7976 16.081 16.2723 16.2285 15.8082 16.5234C15.3475 16.8184 14.983 17.2509 14.7145 17.821C14.4493 18.3911 14.3168 19.0871 14.3168 19.9091C14.3168 20.7377 14.4493 21.437 14.7145 22.0071C14.983 22.5772 15.3492 23.008 15.8132 23.2997C16.2772 23.5914 16.7992 23.7372 17.3793 23.7372C17.7008 23.7372 18.0057 23.6941 18.294 23.608C18.5857 23.5185 18.8492 23.3875 19.0845 23.2152C19.3198 23.0429 19.5187 22.8324 19.6811 22.5838C19.8468 22.3319 19.9612 22.0436 20.0241 21.7188L21.5753 21.7237C21.4924 22.2242 21.3317 22.6849 21.093 23.1058C20.8577 23.5234 20.5545 23.8847 20.1832 24.1896C19.8153 24.4912 19.3944 24.7249 18.9205 24.8906C18.4465 25.0563 17.9295 25.1392 17.3693 25.1392C16.4877 25.1392 15.7022 24.9304 15.0128 24.5128C14.3234 24.0919 13.7798 23.4903 13.3821 22.7081C12.9877 21.9259 12.7905 20.9929 12.7905 19.9091C12.7905 18.822 12.9893 17.889 13.3871 17.1101C13.7848 16.3279 14.3284 15.728 15.0178 15.3104C15.7071 14.8894 16.491 14.679 17.3693 14.679C17.9096 14.679 18.4134 14.7569 18.8807 14.9126C19.3513 15.0651 19.7739 15.2905 20.1484 15.5888C20.523 15.8838 20.8329 16.245 21.0781 16.6726C21.3234 17.0968 21.4891 17.5824 21.5753 18.1293ZM24.1712 27.8636C23.9491 27.8636 23.7469 27.8454 23.5647 27.8089C23.3824 27.7758 23.2465 27.7393 23.157 27.6996L23.5149 26.4815C23.7867 26.5545 24.0287 26.5859 24.2408 26.576C24.4529 26.5661 24.6402 26.4865 24.8026 26.3374C24.9683 26.1882 25.1141 25.9446 25.2401 25.6065L25.424 25.0994L22.63 17.3636H24.2209L26.1549 23.2898H26.2344L28.1683 17.3636H29.7642L26.6172 26.0192C26.4714 26.4169 26.2858 26.7533 26.0604 27.0284C25.835 27.3068 25.5665 27.5156 25.255 27.6548C24.9434 27.794 24.5822 27.8636 24.1712 27.8636ZM33.0748 25.169C32.5909 25.169 32.1534 25.0795 31.7623 24.9006C31.3712 24.7183 31.0613 24.4548 30.8326 24.1101C30.6072 23.7654 30.4945 23.3428 30.4945 22.8423C30.4945 22.4115 30.5774 22.0568 30.7431 21.7784C30.9088 21.5 31.1326 21.2796 31.4143 21.1172C31.696 20.9548 32.0109 20.8321 32.3589 20.7493C32.7069 20.6664 33.0615 20.6035 33.4228 20.5604C33.8802 20.5073 34.2514 20.4643 34.5364 20.4311C34.8215 20.3946 35.0286 20.3366 35.1579 20.2571C35.2872 20.1776 35.3518 20.0483 35.3518 19.8693V19.8345C35.3518 19.4003 35.2291 19.0639 34.9839 18.8253C34.7419 18.5866 34.3807 18.4673 33.9001 18.4673C33.3996 18.4673 33.0052 18.5784 32.7168 18.8004C32.4318 19.0192 32.2346 19.2628 32.1252 19.5312L30.7282 19.2131C30.8939 18.7491 31.1359 18.3745 31.4541 18.0895C31.7756 17.8011 32.1451 17.5923 32.5627 17.4631C32.9803 17.3305 33.4195 17.2642 33.8802 17.2642C34.1851 17.2642 34.5083 17.3007 34.8497 17.3736C35.1943 17.4432 35.5158 17.5724 35.8141 17.7614C36.1158 17.9503 36.3627 18.2204 36.5549 18.5717C36.7471 18.9197 36.8433 19.3722 36.8433 19.929V25H35.3916V23.956H35.3319C35.2358 24.1482 35.0916 24.3371 34.8994 24.5227C34.7071 24.7083 34.4602 24.8625 34.1586 24.9851C33.857 25.1077 33.4957 25.169 33.0748 25.169ZM33.3979 23.9759C33.8089 23.9759 34.1603 23.8946 34.4519 23.7322C34.7469 23.5698 34.9706 23.3577 35.1231 23.0959C35.2789 22.8307 35.3568 22.5473 35.3568 22.2457V21.2614C35.3037 21.3144 35.201 21.3641 35.0485 21.4105C34.8994 21.4536 34.7287 21.4917 34.5364 21.5249C34.3442 21.5547 34.1569 21.5829 33.9747 21.6094C33.7924 21.6326 33.6399 21.6525 33.5173 21.669C33.2289 21.7055 32.9654 21.7668 32.7268 21.853C32.4915 21.9392 32.3025 22.0634 32.16 22.2259C32.0208 22.3849 31.9512 22.5971 31.9512 22.8622C31.9512 23.2301 32.0871 23.5085 32.3589 23.6974C32.6307 23.883 32.977 23.9759 33.3979 23.9759ZM40.2197 20.4659V25H38.7332V17.3636H40.16V18.6065H40.2545C40.4302 18.2022 40.7053 17.8774 41.0798 17.6321C41.4576 17.3868 41.9332 17.2642 42.5066 17.2642C43.027 17.2642 43.4827 17.3736 43.8738 17.5923C44.2649 17.8078 44.5682 18.1293 44.7836 18.5568C44.9991 18.9844 45.1068 19.513 45.1068 20.1428V25H43.6203V20.3217C43.6203 19.7682 43.4761 19.3357 43.1877 19.0241C42.8994 18.7093 42.5033 18.5518 41.9995 18.5518C41.6548 18.5518 41.3483 18.6264 41.0798 18.7756C40.8146 18.9247 40.6042 19.1435 40.4484 19.4318C40.2959 19.7169 40.2197 20.0616 40.2197 20.4659ZM47.3335 25L51.7781 16.2102V16.1357H46.6375V14.8182H53.369V16.1804L48.9394 25H47.3335ZM58.3339 25.169C57.5484 25.1657 56.8772 24.9586 56.3204 24.5476C55.7636 24.1366 55.3377 23.5384 55.0427 22.7528C54.7477 21.9673 54.6002 21.0211 54.6002 19.9141C54.6002 18.8104 54.7477 17.8674 55.0427 17.0852C55.341 16.303 55.7686 15.7064 56.3254 15.2955C56.8855 14.8845 57.555 14.679 58.3339 14.679C59.1128 14.679 59.7806 14.8861 60.3375 15.3004C60.8943 15.7114 61.3202 16.308 61.6152 17.0902C61.9135 17.8691 62.0626 18.8104 62.0626 19.9141C62.0626 21.0244 61.9151 21.9723 61.6201 22.7578C61.3252 23.54 60.8993 24.1383 60.3424 24.5526C59.7856 24.9635 59.1161 25.169 58.3339 25.169ZM58.3339 23.8416C59.0233 23.8416 59.5619 23.5052 59.9497 22.8324C60.3408 22.1596 60.5363 21.1868 60.5363 19.9141C60.5363 19.0689 60.4468 18.3546 60.2679 17.7713C60.0922 17.1847 59.8386 16.7405 59.5072 16.4389C59.1791 16.134 58.788 15.9815 58.3339 15.9815C57.6478 15.9815 57.1092 16.3196 56.7181 16.9957C56.327 17.6719 56.1298 18.6446 56.1265 19.9141C56.1265 20.7625 56.2144 21.4801 56.39 22.0668C56.569 22.6501 56.8225 23.0926 57.1507 23.3942C57.4788 23.6925 57.8732 23.8416 58.3339 23.8416ZM67.281 25.169C66.4955 25.1657 65.8243 24.9586 65.2675 24.5476C64.7107 24.1366 64.2848 23.5384 63.9898 22.7528C63.6948 21.9673 63.5474 21.0211 63.5474 19.9141C63.5474 18.8104 63.6948 17.8674 63.9898 17.0852C64.2881 16.303 64.7157 15.7064 65.2725 15.2955C65.8326 14.8845 66.5021 14.679 67.281 14.679C68.0599 14.679 68.7278 14.8861 69.2846 15.3004C69.8414 15.7114 70.2673 16.308 70.5623 17.0902C70.8606 17.8691 71.0097 18.8104 71.0097 19.9141C71.0097 21.0244 70.8622 21.9723 70.5672 22.7578C70.2723 23.54 69.8464 24.1383 69.2895 24.5526C68.7327 24.9635 68.0632 25.169 67.281 25.169ZM67.281 23.8416C67.9704 23.8416 68.509 23.5052 68.8968 22.8324C69.2879 22.1596 69.4834 21.1868 69.4834 19.9141C69.4834 19.0689 69.3939 18.3546 69.215 17.7713C69.0393 17.1847 68.7858 16.7405 68.4543 16.4389C68.1262 16.134 67.7351 15.9815 67.281 15.9815C66.5949 15.9815 66.0564 16.3196 65.6653 16.9957C65.2742 17.6719 65.0769 18.6446 65.0736 19.9141C65.0736 20.7625 65.1615 21.4801 65.3371 22.0668C65.5161 22.6501 65.7697 23.0926 66.0978 23.3942C66.4259 23.6925 66.8203 23.8416 67.281 23.8416Z" fill="white"/>
</svg>
