<svg width="240" height="40" viewBox="0 0 240 40" fill="none" xmlns="http://www.w3.org/2000/svg">
<rect width="240" height="40" fill="#8FF1FA"/>
<path d="M21.5753 18.1293H20.0241C19.9645 17.7978 19.8535 17.5062 19.6911 17.2543C19.5286 17.0024 19.3298 16.7886 19.0945 16.6129C18.8591 16.4373 18.5956 16.3047 18.304 16.2152C18.0156 16.1257 17.709 16.081 17.3842 16.081C16.7976 16.081 16.2723 16.2285 15.8082 16.5234C15.3475 16.8184 14.983 17.2509 14.7145 17.821C14.4493 18.3911 14.3168 19.0871 14.3168 19.9091C14.3168 20.7377 14.4493 21.437 14.7145 22.0071C14.983 22.5772 15.3492 23.008 15.8132 23.2997C16.2772 23.5914 16.7992 23.7372 17.3793 23.7372C17.7008 23.7372 18.0057 23.6941 18.294 23.608C18.5857 23.5185 18.8492 23.3875 19.0845 23.2152C19.3198 23.0429 19.5187 22.8324 19.6811 22.5838C19.8468 22.3319 19.9612 22.0436 20.0241 21.7188L21.5753 21.7237C21.4924 22.2242 21.3317 22.6849 21.093 23.1058C20.8577 23.5234 20.5545 23.8847 20.1832 24.1896C19.8153 24.4912 19.3944 24.7249 18.9205 24.8906C18.4465 25.0563 17.9295 25.1392 17.3693 25.1392C16.4877 25.1392 15.7022 24.9304 15.0128 24.5128C14.3234 24.0919 13.7798 23.4903 13.3821 22.7081C12.9877 21.9259 12.7905 20.9929 12.7905 19.9091C12.7905 18.822 12.9893 17.889 13.3871 17.1101C13.7848 16.3279 14.3284 15.728 15.0178 15.3104C15.7071 14.8894 16.491 14.679 17.3693 14.679C17.9096 14.679 18.4134 14.7569 18.8807 14.9126C19.3513 15.0651 19.7739 15.2905 20.1484 15.5888C20.523 15.8838 20.8329 16.245 21.0781 16.6726C21.3234 17.0968 21.4891 17.5824 21.5753 18.1293ZM24.1712 27.8636C23.9491 27.8636 23.7469 27.8454 23.5647 27.8089C23.3824 27.7758 23.2465 27.7393 23.157 27.6996L23.5149 26.4815C23.7867 26.5545 24.0287 26.5859 24.2408 26.576C24.4529 26.5661 24.6402 26.4865 24.8026 26.3374C24.9683 26.1882 25.1141 25.9446 25.2401 25.6065L25.424 25.0994L22.63 17.3636H24.2209L26.1549 23.2898H26.2344L28.1683 17.3636H29.7642L26.6172 26.0192C26.4714 26.4169 26.2858 26.7533 26.0604 27.0284C25.835 27.3068 25.5665 27.5156 25.255 27.6548C24.9434 27.794 24.5822 27.8636 24.1712 27.8636ZM33.0748 25.169C32.5909 25.169 32.1534 25.0795 31.7623 24.9006C31.3712 24.7183 31.0613 24.4548 30.8326 24.1101C30.6072 23.7654 30.4945 23.3428 30.4945 22.8423C30.4945 22.4115 30.5774 22.0568 30.7431 21.7784C30.9088 21.5 31.1326 21.2796 31.4143 21.1172C31.696 20.9548 32.0109 20.8321 32.3589 20.7493C32.7069 20.6664 33.0615 20.6035 33.4228 20.5604C33.8802 20.5073 34.2514 20.4643 34.5364 20.4311C34.8215 20.3946 35.0286 20.3366 35.1579 20.2571C35.2872 20.1776 35.3518 20.0483 35.3518 19.8693V19.8345C35.3518 19.4003 35.2291 19.0639 34.9839 18.8253C34.7419 18.5866 34.3807 18.4673 33.9001 18.4673C33.3996 18.4673 33.0052 18.5784 32.7168 18.8004C32.4318 19.0192 32.2346 19.2628 32.1252 19.5312L30.7282 19.2131C30.8939 18.7491 31.1359 18.3745 31.4541 18.0895C31.7756 17.8011 32.1451 17.5923 32.5627 17.4631C32.9803 17.3305 33.4195 17.2642 33.8802 17.2642C34.1851 17.2642 34.5083 17.3007 34.8497 17.3736C35.1943 17.4432 35.5158 17.5724 35.8141 17.7614C36.1158 17.9503 36.3627 18.2204 36.5549 18.5717C36.7471 18.9197 36.8433 19.3722 36.8433 19.929V25H35.3916V23.956H35.3319C35.2358 24.1482 35.0916 24.3371 34.8994 24.5227C34.7071 24.7083 34.4602 24.8625 34.1586 24.9851C33.857 25.1077 33.4957 25.169 33.0748 25.169ZM33.3979 23.9759C33.8089 23.9759 34.1603 23.8946 34.4519 23.7322C34.7469 23.5698 34.9706 23.3577 35.1231 23.0959C35.2789 22.8307 35.3568 22.5473 35.3568 22.2457V21.2614C35.3037 21.3144 35.201 21.3641 35.0485 21.4105C34.8994 21.4536 34.7287 21.4917 34.5364 21.5249C34.3442 21.5547 34.1569 21.5829 33.9747 21.6094C33.7924 21.6326 33.6399 21.6525 33.5173 21.669C33.2289 21.7055 32.9654 21.7668 32.7268 21.853C32.4915 21.9392 32.3025 22.0634 32.16 22.2259C32.0208 22.3849 31.9512 22.5971 31.9512 22.8622C31.9512 23.2301 32.0871 23.5085 32.3589 23.6974C32.6307 23.883 32.977 23.9759 33.3979 23.9759ZM40.2197 20.4659V25H38.7332V17.3636H40.16V18.6065H40.2545C40.4302 18.2022 40.7053 17.8774 41.0798 17.6321C41.4576 17.3868 41.9332 17.2642 42.5066 17.2642C43.027 17.2642 43.4827 17.3736 43.8738 17.5923C44.2649 17.8078 44.5682 18.1293 44.7836 18.5568C44.9991 18.9844 45.1068 19.513 45.1068 20.1428V25H43.6203V20.3217C43.6203 19.7682 43.4761 19.3357 43.1877 19.0241C42.8994 18.7093 42.5033 18.5518 41.9995 18.5518C41.6548 18.5518 41.3483 18.6264 41.0798 18.7756C40.8146 18.9247 40.6042 19.1435 40.4484 19.4318C40.2959 19.7169 40.2197 20.0616 40.2197 20.4659ZM50.5352 25.1392C49.8525 25.1392 49.2426 25.0215 48.7057 24.7862C48.1721 24.5509 47.7495 24.2244 47.4379 23.8068C47.1297 23.3859 46.964 22.8987 46.9408 22.3452H48.5019C48.5217 22.6468 48.6228 22.9086 48.8051 23.1307C48.9907 23.3494 49.2327 23.5185 49.531 23.6378C49.8293 23.7571 50.1607 23.8168 50.5253 23.8168C50.9263 23.8168 51.281 23.7472 51.5892 23.608C51.9008 23.4687 52.1444 23.2749 52.32 23.0263C52.4957 22.7744 52.5835 22.4844 52.5835 22.1562C52.5835 21.8149 52.4957 21.5149 52.32 21.2564C52.1477 20.9946 51.8941 20.7891 51.5594 20.6399C51.2279 20.4908 50.8269 20.4162 50.3563 20.4162H49.4962V19.1634H50.3563C50.7341 19.1634 51.0655 19.0954 51.3506 18.9595C51.6389 18.8236 51.8643 18.6347 52.0267 18.3928C52.1891 18.1475 52.2703 17.8608 52.2703 17.5327C52.2703 17.2178 52.1991 16.9444 52.0565 16.7124C51.9173 16.477 51.7185 16.2931 51.46 16.1605C51.2047 16.0279 50.9031 15.9616 50.5551 15.9616C50.2237 15.9616 49.9138 16.023 49.6254 16.1456C49.3404 16.2649 49.1084 16.4373 48.9294 16.6626C48.7504 16.8847 48.6543 17.1515 48.6411 17.4631H47.1546C47.1711 16.9129 47.3335 16.429 47.6418 16.0114C47.9533 15.5937 48.3643 15.2673 48.8747 15.032C49.3851 14.7966 49.9519 14.679 50.575 14.679C51.2279 14.679 51.7914 14.8066 52.2654 15.0618C52.7426 15.3137 53.1105 15.6501 53.369 16.071C53.6309 16.492 53.7601 16.9527 53.7568 17.4531C53.7601 18.0232 53.6011 18.5071 53.2796 18.9048C52.9614 19.3026 52.5371 19.5694 52.0068 19.7053V19.7848C52.683 19.8875 53.2066 20.156 53.5779 20.5902C53.9524 21.0244 54.138 21.563 54.1347 22.206C54.138 22.7661 53.9822 23.2682 53.6673 23.7124C53.3558 24.1565 52.9299 24.5062 52.3896 24.7614C51.8494 25.0133 51.2313 25.1392 50.5352 25.1392ZM59.4687 25.169C58.6832 25.1657 58.012 24.9586 57.4552 24.5476C56.8984 24.1366 56.4725 23.5384 56.1775 22.7528C55.8825 21.9673 55.735 21.0211 55.735 19.9141C55.735 18.8104 55.8825 17.8674 56.1775 17.0852C56.4758 16.303 56.9033 15.7064 57.4602 15.2955C58.0203 14.8845 58.6898 14.679 59.4687 14.679C60.2476 14.679 60.9154 14.8861 61.4722 15.3004C62.029 15.7114 62.4549 16.308 62.7499 17.0902C63.0482 17.8691 63.1974 18.8104 63.1974 19.9141C63.1974 21.0244 63.0499 21.9723 62.7549 22.7578C62.4599 23.54 62.034 24.1383 61.4772 24.5526C60.9204 24.9635 60.2509 25.169 59.4687 25.169ZM59.4687 23.8416C60.1581 23.8416 60.6967 23.5052 61.0844 22.8324C61.4755 22.1596 61.6711 21.1868 61.6711 19.9141C61.6711 19.0689 61.5816 18.3546 61.4026 17.7713C61.227 17.1847 60.9734 16.7405 60.642 16.4389C60.3138 16.134 59.9228 15.9815 59.4687 15.9815C58.7826 15.9815 58.244 16.3196 57.8529 16.9957C57.4618 17.6719 57.2646 18.6446 57.2613 19.9141C57.2613 20.7625 57.3491 21.4801 57.5248 22.0668C57.7038 22.6501 57.9573 23.0926 58.2854 23.3942C58.6136 23.6925 59.008 23.8416 59.4687 23.8416ZM68.4158 25.169C67.6303 25.1657 66.9591 24.9586 66.4023 24.5476C65.8455 24.1366 65.4196 23.5384 65.1246 22.7528C64.8296 21.9673 64.6821 21.0211 64.6821 19.9141C64.6821 18.8104 64.8296 17.8674 65.1246 17.0852C65.4229 16.303 65.8504 15.7064 66.4073 15.2955C66.9674 14.8845 67.6369 14.679 68.4158 14.679C69.1947 14.679 69.8625 14.8861 70.4193 15.3004C70.9762 15.7114 71.4021 16.308 71.697 17.0902C71.9953 17.8691 72.1445 18.8104 72.1445 19.9141C72.1445 21.0244 71.997 21.9723 71.702 22.7578C71.407 23.54 70.9811 24.1383 70.4243 24.5526C69.8675 24.9635 69.198 25.169 68.4158 25.169ZM68.4158 23.8416C69.1052 23.8416 69.6438 23.5052 70.0316 22.8324C70.4227 22.1596 70.6182 21.1868 70.6182 19.9141C70.6182 19.0689 70.5287 18.3546 70.3497 17.7713C70.1741 17.1847 69.9205 16.7405 69.5891 16.4389C69.261 16.134 68.8699 15.9815 68.4158 15.9815C67.7297 15.9815 67.1911 16.3196 66.8 16.9957C66.4089 17.6719 66.2117 18.6446 66.2084 19.9141C66.2084 20.7625 66.2962 21.4801 66.4719 22.0668C66.6509 22.6501 66.9044 23.0926 67.2325 23.3942C67.5607 23.6925 67.9551 23.8416 68.4158 23.8416Z" fill="black"/>
</svg>
