<svg width="342" height="40" viewBox="0 0 342 40" fill="none" xmlns="http://www.w3.org/2000/svg">
<rect width="341.333" height="40" transform="translate(0.333496)" fill="#4FE3DE"/>
<path d="M21.9088 18.1293H20.3576C20.298 17.7978 20.187 17.5062 20.0245 17.2543C19.8621 17.0024 19.6633 16.7886 19.428 16.6129C19.1926 16.4373 18.9291 16.3047 18.6375 16.2152C18.3491 16.1257 18.0425 16.081 17.7177 16.081C17.1311 16.081 16.6058 16.2285 16.1417 16.5234C15.681 16.8184 15.3165 17.2509 15.048 17.821C14.7828 18.3911 14.6503 19.0871 14.6503 19.9091C14.6503 20.7377 14.7828 21.437 15.048 22.0071C15.3165 22.5772 15.6827 23.008 16.1467 23.2997C16.6107 23.5914 17.1327 23.7372 17.7128 23.7372C18.0343 23.7372 18.3392 23.6941 18.6275 23.608C18.9192 23.5185 19.1827 23.3875 19.418 23.2152C19.6533 23.0429 19.8522 22.8324 20.0146 22.5838C20.1803 22.3319 20.2947 22.0436 20.3576 21.7188L21.9088 21.7237C21.8259 22.2242 21.6652 22.6849 21.4265 23.1058C21.1912 23.5234 20.8879 23.8847 20.5167 24.1896C20.1488 24.4912 19.7279 24.7249 19.254 24.8906C18.78 25.0563 18.2629 25.1392 17.7028 25.1392C16.8212 25.1392 16.0357 24.9304 15.3463 24.5128C14.6569 24.0919 14.1133 23.4903 13.7156 22.7081C13.3212 21.9259 13.124 20.9929 13.124 19.9091C13.124 18.822 13.3228 17.889 13.7206 17.1101C14.1183 16.3279 14.6619 15.728 15.3513 15.3104C16.0406 14.8894 16.8245 14.679 17.7028 14.679C18.2431 14.679 18.7468 14.7569 19.2142 14.9126C19.6848 15.0651 20.1074 15.2905 20.4819 15.5888C20.8565 15.8838 21.1664 16.245 21.4116 16.6726C21.6569 17.0968 21.8226 17.5824 21.9088 18.1293ZM24.5947 27.8636C24.3726 27.8636 24.1704 27.8454 23.9881 27.8089C23.8059 27.7758 23.67 27.7393 23.5805 27.6996L23.9384 26.4815C24.2102 26.5545 24.4522 26.5859 24.6643 26.576C24.8764 26.5661 25.0637 26.4865 25.2261 26.3374C25.3918 26.1882 25.5376 25.9446 25.6636 25.6065L25.8475 25.0994L23.0535 17.3636H24.6444L26.5783 23.2898H26.6579L28.5918 17.3636H30.1877L27.0407 26.0192C26.8949 26.4169 26.7093 26.7533 26.4839 27.0284C26.2585 27.3068 25.99 27.5156 25.6785 27.6548C25.3669 27.794 25.0057 27.8636 24.5947 27.8636ZM33.5883 25.169C33.1044 25.169 32.6669 25.0795 32.2758 24.9006C31.8847 24.7183 31.5748 24.4548 31.3461 24.1101C31.1207 23.7654 31.008 23.3428 31.008 22.8423C31.008 22.4115 31.0909 22.0568 31.2566 21.7784C31.4223 21.5 31.6461 21.2796 31.9278 21.1172C32.2095 20.9548 32.5244 20.8321 32.8724 20.7493C33.2204 20.6664 33.575 20.6035 33.9363 20.5604C34.3937 20.5073 34.7649 20.4643 35.0499 20.4311C35.335 20.3946 35.5421 20.3366 35.6714 20.2571C35.8006 20.1776 35.8653 20.0483 35.8653 19.8693V19.8345C35.8653 19.4003 35.7426 19.0639 35.4974 18.8253C35.2554 18.5866 34.8942 18.4673 34.4136 18.4673C33.9131 18.4673 33.5187 18.5784 33.2303 18.8004C32.9453 19.0192 32.7481 19.2628 32.6387 19.5312L31.2417 19.2131C31.4074 18.7491 31.6494 18.3745 31.9676 18.0895C32.289 17.8011 32.6586 17.5923 33.0762 17.4631C33.4938 17.3305 33.933 17.2642 34.3937 17.2642C34.6986 17.2642 35.0218 17.3007 35.3631 17.3736C35.7078 17.4432 36.0293 17.5724 36.3276 17.7614C36.6292 17.9503 36.8762 18.2204 37.0684 18.5717C37.2606 18.9197 37.3568 19.3722 37.3568 19.929V25H35.9051V23.956H35.8454C35.7493 24.1482 35.6051 24.3371 35.4129 24.5227C35.2206 24.7083 34.9737 24.8625 34.6721 24.9851C34.3705 25.1077 34.0092 25.169 33.5883 25.169ZM33.9114 23.9759C34.3224 23.9759 34.6738 23.8946 34.9654 23.7322C35.2604 23.5698 35.4841 23.3577 35.6366 23.0959C35.7924 22.8307 35.8703 22.5473 35.8703 22.2457V21.2614C35.8172 21.3144 35.7145 21.3641 35.562 21.4105C35.4129 21.4536 35.2422 21.4917 35.0499 21.5249C34.8577 21.5547 34.6704 21.5829 34.4881 21.6094C34.3059 21.6326 34.1534 21.6525 34.0308 21.669C33.7424 21.7055 33.4789 21.7668 33.2403 21.853C33.005 21.9392 32.816 22.0634 32.6735 22.2259C32.5343 22.3849 32.4647 22.5971 32.4647 22.8622C32.4647 23.2301 32.6006 23.5085 32.8724 23.6974C33.1442 23.883 33.4905 23.9759 33.9114 23.9759ZM40.8232 20.4659V25H39.3367V17.3636H40.7635V18.6065H40.858C41.0337 18.2022 41.3088 17.8774 41.6833 17.6321C42.0611 17.3868 42.5367 17.2642 43.1101 17.2642C43.6305 17.2642 44.0862 17.3736 44.4773 17.5923C44.8684 17.8078 45.1717 18.1293 45.3871 18.5568C45.6026 18.9844 45.7103 19.513 45.7103 20.1428V25H44.2238V20.3217C44.2238 19.7682 44.0796 19.3357 43.7912 19.0241C43.5029 18.7093 43.1068 18.5518 42.603 18.5518C42.2583 18.5518 41.9517 18.6264 41.6833 18.7756C41.4181 18.9247 41.2077 19.1435 41.0519 19.4318C40.8994 19.7169 40.8232 20.0616 40.8232 20.4659ZM51.0448 25.1392C50.4217 25.1392 49.8616 25.0199 49.3644 24.7812C48.8705 24.5393 48.4761 24.2079 48.1812 23.7869C47.8862 23.366 47.7287 22.8854 47.7089 22.3452H49.2003C49.2368 22.7827 49.4307 23.1423 49.782 23.424C50.1333 23.7057 50.5543 23.8466 51.0448 23.8466C51.4359 23.8466 51.7822 23.7571 52.0839 23.5781C52.3888 23.3958 52.6274 23.1456 52.7998 22.8274C52.9754 22.5092 53.0633 22.1463 53.0633 21.7386C53.0633 21.3243 52.9738 20.9548 52.7948 20.63C52.6158 20.3052 52.3689 20.05 52.054 19.8643C51.7425 19.6787 51.3845 19.5843 50.9802 19.581C50.6719 19.581 50.362 19.634 50.0505 19.7401C49.7389 19.8461 49.487 19.9853 49.2948 20.1577L47.8878 19.9489L48.4596 14.8182H54.0576V16.1357H49.7373L49.4141 18.9844H49.4738C49.6726 18.7921 49.9361 18.6314 50.2642 18.5021C50.5957 18.3729 50.9503 18.3082 51.3282 18.3082C51.948 18.3082 52.4998 18.4557 52.9837 18.7507C53.4709 19.0457 53.8537 19.4484 54.1321 19.9588C54.4139 20.4659 54.5531 21.0492 54.5498 21.7088C54.5531 22.3684 54.4039 22.9567 54.1023 23.4737C53.804 23.9908 53.3897 24.3984 52.8594 24.6967C52.3324 24.9917 51.7276 25.1392 51.0448 25.1392ZM59.9104 25.169C59.1249 25.1657 58.4537 24.9586 57.8969 24.5476C57.3401 24.1366 56.9142 23.5384 56.6192 22.7528C56.3242 21.9673 56.1767 21.0211 56.1767 19.9141C56.1767 18.8104 56.3242 17.8674 56.6192 17.0852C56.9175 16.303 57.345 15.7064 57.9019 15.2955C58.462 14.8845 59.1315 14.679 59.9104 14.679C60.6893 14.679 61.3571 14.8861 61.9139 15.3004C62.4707 15.7114 62.8966 16.308 63.1916 17.0902C63.4899 17.8691 63.6391 18.8104 63.6391 19.9141C63.6391 21.0244 63.4916 21.9723 63.1966 22.7578C62.9016 23.54 62.4757 24.1383 61.9189 24.5526C61.3621 24.9635 60.6926 25.169 59.9104 25.169ZM59.9104 23.8416C60.5998 23.8416 61.1384 23.5052 61.5261 22.8324C61.9172 22.1596 62.1128 21.1868 62.1128 19.9141C62.1128 19.0689 62.0233 18.3546 61.8443 17.7713C61.6687 17.1847 61.4151 16.7405 61.0837 16.4389C60.7555 16.134 60.3645 15.9815 59.9104 15.9815C59.2243 15.9815 58.6857 16.3196 58.2946 16.9957C57.9035 17.6719 57.7063 18.6446 57.703 19.9141C57.703 20.7625 57.7908 21.4801 57.9665 22.0668C58.1455 22.6501 58.399 23.0926 58.7271 23.3942C59.0553 23.6925 59.4497 23.8416 59.9104 23.8416ZM68.9475 25.169C68.162 25.1657 67.4908 24.9586 66.934 24.5476C66.3772 24.1366 65.9513 23.5384 65.6563 22.7528C65.3613 21.9673 65.2138 21.0211 65.2138 19.9141C65.2138 18.8104 65.3613 17.8674 65.6563 17.0852C65.9546 16.303 66.3821 15.7064 66.939 15.2955C67.4991 14.8845 68.1686 14.679 68.9475 14.679C69.7264 14.679 70.3942 14.8861 70.951 15.3004C71.5079 15.7114 71.9338 16.308 72.2287 17.0902C72.527 17.8691 72.6762 18.8104 72.6762 19.9141C72.6762 21.0244 72.5287 21.9723 72.2337 22.7578C71.9387 23.54 71.5128 24.1383 70.956 24.5526C70.3992 24.9635 69.7297 25.169 68.9475 25.169ZM68.9475 23.8416C69.6369 23.8416 70.1755 23.5052 70.5633 22.8324C70.9544 22.1596 71.1499 21.1868 71.1499 19.9141C71.1499 19.0689 71.0604 18.3546 70.8814 17.7713C70.7058 17.1847 70.4522 16.7405 70.1208 16.4389C69.7927 16.134 69.4016 15.9815 68.9475 15.9815C68.2614 15.9815 67.7228 16.3196 67.3317 16.9957C66.9406 17.6719 66.7434 18.6446 66.7401 19.9141C66.7401 20.7625 66.8279 21.4801 67.0036 22.0668C67.1826 22.6501 67.4361 23.0926 67.7642 23.3942C68.0924 23.6925 68.4868 23.8416 68.9475 23.8416Z" fill="white"/>
</svg>
