<svg width="240" height="40" viewBox="0 0 240 40" fill="none" xmlns="http://www.w3.org/2000/svg">
<rect width="240" height="40" fill="#349DAB"/>
<path d="M21.5753 18.1293H20.0241C19.9645 17.7978 19.8535 17.5062 19.6911 17.2543C19.5286 17.0024 19.3298 16.7886 19.0945 16.6129C18.8591 16.4373 18.5956 16.3047 18.304 16.2152C18.0156 16.1257 17.709 16.081 17.3842 16.081C16.7976 16.081 16.2723 16.2285 15.8082 16.5234C15.3475 16.8184 14.983 17.2509 14.7145 17.821C14.4493 18.3911 14.3168 19.0871 14.3168 19.9091C14.3168 20.7377 14.4493 21.437 14.7145 22.0071C14.983 22.5772 15.3492 23.008 15.8132 23.2997C16.2772 23.5914 16.7992 23.7372 17.3793 23.7372C17.7008 23.7372 18.0057 23.6941 18.294 23.608C18.5857 23.5185 18.8492 23.3875 19.0845 23.2152C19.3198 23.0429 19.5187 22.8324 19.6811 22.5838C19.8468 22.3319 19.9612 22.0436 20.0241 21.7188L21.5753 21.7237C21.4924 22.2242 21.3317 22.6849 21.093 23.1058C20.8577 23.5234 20.5545 23.8847 20.1832 24.1896C19.8153 24.4912 19.3944 24.7249 18.9205 24.8906C18.4465 25.0563 17.9295 25.1392 17.3693 25.1392C16.4877 25.1392 15.7022 24.9304 15.0128 24.5128C14.3234 24.0919 13.7798 23.4903 13.3821 22.7081C12.9877 21.9259 12.7905 20.9929 12.7905 19.9091C12.7905 18.822 12.9893 17.889 13.3871 17.1101C13.7848 16.3279 14.3284 15.728 15.0178 15.3104C15.7071 14.8894 16.491 14.679 17.3693 14.679C17.9096 14.679 18.4134 14.7569 18.8807 14.9126C19.3513 15.0651 19.7739 15.2905 20.1484 15.5888C20.523 15.8838 20.8329 16.245 21.0781 16.6726C21.3234 17.0968 21.4891 17.5824 21.5753 18.1293ZM24.1712 27.8636C23.9491 27.8636 23.7469 27.8454 23.5647 27.8089C23.3824 27.7758 23.2465 27.7393 23.157 27.6996L23.5149 26.4815C23.7867 26.5545 24.0287 26.5859 24.2408 26.576C24.4529 26.5661 24.6402 26.4865 24.8026 26.3374C24.9683 26.1882 25.1141 25.9446 25.2401 25.6065L25.424 25.0994L22.63 17.3636H24.2209L26.1549 23.2898H26.2344L28.1683 17.3636H29.7642L26.6172 26.0192C26.4714 26.4169 26.2858 26.7533 26.0604 27.0284C25.835 27.3068 25.5665 27.5156 25.255 27.6548C24.9434 27.794 24.5822 27.8636 24.1712 27.8636ZM33.0748 25.169C32.5909 25.169 32.1534 25.0795 31.7623 24.9006C31.3712 24.7183 31.0613 24.4548 30.8326 24.1101C30.6072 23.7654 30.4945 23.3428 30.4945 22.8423C30.4945 22.4115 30.5774 22.0568 30.7431 21.7784C30.9088 21.5 31.1326 21.2796 31.4143 21.1172C31.696 20.9548 32.0109 20.8321 32.3589 20.7493C32.7069 20.6664 33.0615 20.6035 33.4228 20.5604C33.8802 20.5073 34.2514 20.4643 34.5364 20.4311C34.8215 20.3946 35.0286 20.3366 35.1579 20.2571C35.2872 20.1776 35.3518 20.0483 35.3518 19.8693V19.8345C35.3518 19.4003 35.2291 19.0639 34.9839 18.8253C34.7419 18.5866 34.3807 18.4673 33.9001 18.4673C33.3996 18.4673 33.0052 18.5784 32.7168 18.8004C32.4318 19.0192 32.2346 19.2628 32.1252 19.5312L30.7282 19.2131C30.8939 18.7491 31.1359 18.3745 31.4541 18.0895C31.7756 17.8011 32.1451 17.5923 32.5627 17.4631C32.9803 17.3305 33.4195 17.2642 33.8802 17.2642C34.1851 17.2642 34.5083 17.3007 34.8497 17.3736C35.1943 17.4432 35.5158 17.5724 35.8141 17.7614C36.1158 17.9503 36.3627 18.2204 36.5549 18.5717C36.7471 18.9197 36.8433 19.3722 36.8433 19.929V25H35.3916V23.956H35.3319C35.2358 24.1482 35.0916 24.3371 34.8994 24.5227C34.7071 24.7083 34.4602 24.8625 34.1586 24.9851C33.857 25.1077 33.4957 25.169 33.0748 25.169ZM33.3979 23.9759C33.8089 23.9759 34.1603 23.8946 34.4519 23.7322C34.7469 23.5698 34.9706 23.3577 35.1231 23.0959C35.2789 22.8307 35.3568 22.5473 35.3568 22.2457V21.2614C35.3037 21.3144 35.201 21.3641 35.0485 21.4105C34.8994 21.4536 34.7287 21.4917 34.5364 21.5249C34.3442 21.5547 34.1569 21.5829 33.9747 21.6094C33.7924 21.6326 33.6399 21.6525 33.5173 21.669C33.2289 21.7055 32.9654 21.7668 32.7268 21.853C32.4915 21.9392 32.3025 22.0634 32.16 22.2259C32.0208 22.3849 31.9512 22.5971 31.9512 22.8622C31.9512 23.2301 32.0871 23.5085 32.3589 23.6974C32.6307 23.883 32.977 23.9759 33.3979 23.9759ZM40.2197 20.4659V25H38.7332V17.3636H40.16V18.6065H40.2545C40.4302 18.2022 40.7053 17.8774 41.0798 17.6321C41.4576 17.3868 41.9332 17.2642 42.5066 17.2642C43.027 17.2642 43.4827 17.3736 43.8738 17.5923C44.2649 17.8078 44.5682 18.1293 44.7836 18.5568C44.9991 18.9844 45.1068 19.513 45.1068 20.1428V25H43.6203V20.3217C43.6203 19.7682 43.4761 19.3357 43.1877 19.0241C42.8994 18.7093 42.5033 18.5518 41.9995 18.5518C41.6548 18.5518 41.3483 18.6264 41.0798 18.7756C40.8146 18.9247 40.6042 19.1435 40.4484 19.4318C40.2959 19.7169 40.2197 20.0616 40.2197 20.4659ZM50.5452 25.1392C50.0911 25.1326 49.6437 25.0497 49.2029 24.8906C48.7654 24.7315 48.3676 24.4664 48.0097 24.0952C47.6517 23.724 47.365 23.2251 47.1496 22.5987C46.9375 21.9723 46.8314 21.1901 46.8314 20.2521C46.8314 19.3639 46.9192 18.575 47.0949 17.8857C47.2739 17.1963 47.5307 16.6146 47.8655 16.1406C48.2003 15.6634 48.6046 15.3004 49.0786 15.0518C49.5525 14.8033 50.0845 14.679 50.6744 14.679C51.281 14.679 51.8196 14.7983 52.2902 15.0369C52.7609 15.2756 53.142 15.6054 53.4337 16.0263C53.7287 16.4472 53.9159 16.9261 53.9955 17.4631H52.4791C52.3764 17.0388 52.1726 16.6925 51.8676 16.424C51.5627 16.1555 51.165 16.0213 50.6744 16.0213C49.9287 16.0213 49.347 16.3461 48.9294 16.9957C48.5151 17.6454 48.3063 18.5485 48.303 19.7053H48.3776C48.5532 19.4169 48.7687 19.1716 49.0239 18.9695C49.2824 18.764 49.5708 18.6065 49.8889 18.4972C50.2104 18.3845 50.5485 18.3281 50.9031 18.3281C51.4931 18.3281 52.0267 18.4723 52.504 18.7607C52.9846 19.0457 53.3674 19.4401 53.6524 19.9439C53.9375 20.4477 54.08 21.0244 54.08 21.674C54.08 22.3236 53.9325 22.9119 53.6375 23.4389C53.3458 23.9659 52.9349 24.3835 52.4046 24.6918C51.8743 24.9967 51.2545 25.1458 50.5452 25.1392ZM50.5402 23.8466C50.9313 23.8466 51.281 23.7505 51.5892 23.5582C51.8975 23.366 52.1411 23.1075 52.32 22.7827C52.499 22.4579 52.5885 22.0949 52.5885 21.6939C52.5885 21.3028 52.5007 20.9465 52.325 20.625C52.1527 20.3035 51.914 20.0483 51.6091 19.8594C51.3075 19.6705 50.9628 19.576 50.575 19.576C50.28 19.576 50.0066 19.6323 49.7547 19.745C49.5061 19.8577 49.2874 20.0135 49.0985 20.2124C48.9095 20.4112 48.7604 20.6399 48.651 20.8984C48.5449 21.1536 48.4919 21.4238 48.4919 21.7088C48.4919 22.09 48.5797 22.4429 48.7554 22.7678C48.9344 23.0926 49.178 23.3544 49.4862 23.5533C49.7978 23.7488 50.1491 23.8466 50.5402 23.8466ZM59.3456 25.169C58.5601 25.1657 57.889 24.9586 57.3321 24.5476C56.7753 24.1366 56.3494 23.5384 56.0544 22.7528C55.7595 21.9673 55.612 21.0211 55.612 19.9141C55.612 18.8104 55.7595 17.8674 56.0544 17.0852C56.3527 16.303 56.7803 15.7064 57.3371 15.2955C57.8972 14.8845 58.5667 14.679 59.3456 14.679C60.1245 14.679 60.7924 14.8861 61.3492 15.3004C61.906 15.7114 62.3319 16.308 62.6269 17.0902C62.9252 17.8691 63.0743 18.8104 63.0743 19.9141C63.0743 21.0244 62.9268 21.9723 62.6319 22.7578C62.3369 23.54 61.911 24.1383 61.3542 24.5526C60.7973 24.9635 60.1278 25.169 59.3456 25.169ZM59.3456 23.8416C60.035 23.8416 60.5736 23.5052 60.9614 22.8324C61.3525 22.1596 61.548 21.1868 61.548 19.9141C61.548 19.0689 61.4586 18.3546 61.2796 17.7713C61.1039 17.1847 60.8504 16.7405 60.5189 16.4389C60.1908 16.134 59.7997 15.9815 59.3456 15.9815C58.6596 15.9815 58.121 16.3196 57.7299 16.9957C57.3388 17.6719 57.1416 18.6446 57.1382 19.9141C57.1382 20.7625 57.2261 21.4801 57.4017 22.0668C57.5807 22.6501 57.8343 23.0926 58.1624 23.3942C58.4905 23.6925 58.8849 23.8416 59.3456 23.8416ZM68.2927 25.169C67.5072 25.1657 66.8361 24.9586 66.2792 24.5476C65.7224 24.1366 65.2965 23.5384 65.0015 22.7528C64.7066 21.9673 64.5591 21.0211 64.5591 19.9141C64.5591 18.8104 64.7066 17.8674 65.0015 17.0852C65.2998 16.303 65.7274 15.7064 66.2842 15.2955C66.8444 14.8845 67.5139 14.679 68.2927 14.679C69.0716 14.679 69.7395 14.8861 70.2963 15.3004C70.8531 15.7114 71.279 16.308 71.574 17.0902C71.8723 17.8691 72.0214 18.8104 72.0214 19.9141C72.0214 21.0244 71.8739 21.9723 71.579 22.7578C71.284 23.54 70.8581 24.1383 70.3013 24.5526C69.7444 24.9635 69.0749 25.169 68.2927 25.169ZM68.2927 23.8416C68.9821 23.8416 69.5207 23.5052 69.9085 22.8324C70.2996 22.1596 70.4952 21.1868 70.4952 19.9141C70.4952 19.0689 70.4057 18.3546 70.2267 17.7713C70.051 17.1847 69.7975 16.7405 69.466 16.4389C69.1379 16.134 68.7468 15.9815 68.2927 15.9815C67.6067 15.9815 67.0681 16.3196 66.677 16.9957C66.2859 17.6719 66.0887 18.6446 66.0854 19.9141C66.0854 20.7625 66.1732 21.4801 66.3488 22.0668C66.5278 22.6501 66.7814 23.0926 67.1095 23.3942C67.4376 23.6925 67.832 23.8416 68.2927 23.8416Z" fill="white"/>
</svg>
