<svg width="240" height="40" viewBox="0 0 240 40" fill="none" xmlns="http://www.w3.org/2000/svg">
<rect width="240" height="40" fill="#BAF8FD"/>
<path d="M21.5753 18.1293H20.0241C19.9645 17.7978 19.8535 17.5062 19.6911 17.2543C19.5286 17.0024 19.3298 16.7886 19.0945 16.6129C18.8591 16.4373 18.5956 16.3047 18.304 16.2152C18.0156 16.1257 17.709 16.081 17.3842 16.081C16.7976 16.081 16.2723 16.2285 15.8082 16.5234C15.3475 16.8184 14.983 17.2509 14.7145 17.821C14.4493 18.3911 14.3168 19.0871 14.3168 19.9091C14.3168 20.7377 14.4493 21.437 14.7145 22.0071C14.983 22.5772 15.3492 23.008 15.8132 23.2997C16.2772 23.5914 16.7992 23.7372 17.3793 23.7372C17.7008 23.7372 18.0057 23.6941 18.294 23.608C18.5857 23.5185 18.8492 23.3875 19.0845 23.2152C19.3198 23.0429 19.5187 22.8324 19.6811 22.5838C19.8468 22.3319 19.9612 22.0436 20.0241 21.7188L21.5753 21.7237C21.4924 22.2242 21.3317 22.6849 21.093 23.1058C20.8577 23.5234 20.5545 23.8847 20.1832 24.1896C19.8153 24.4912 19.3944 24.7249 18.9205 24.8906C18.4465 25.0563 17.9295 25.1392 17.3693 25.1392C16.4877 25.1392 15.7022 24.9304 15.0128 24.5128C14.3234 24.0919 13.7798 23.4903 13.3821 22.7081C12.9877 21.9259 12.7905 20.9929 12.7905 19.9091C12.7905 18.822 12.9893 17.889 13.3871 17.1101C13.7848 16.3279 14.3284 15.728 15.0178 15.3104C15.7071 14.8894 16.491 14.679 17.3693 14.679C17.9096 14.679 18.4134 14.7569 18.8807 14.9126C19.3513 15.0651 19.7739 15.2905 20.1484 15.5888C20.523 15.8838 20.8329 16.245 21.0781 16.6726C21.3234 17.0968 21.4891 17.5824 21.5753 18.1293ZM24.1712 27.8636C23.9491 27.8636 23.7469 27.8454 23.5647 27.8089C23.3824 27.7758 23.2465 27.7393 23.157 27.6996L23.5149 26.4815C23.7867 26.5545 24.0287 26.5859 24.2408 26.576C24.4529 26.5661 24.6402 26.4865 24.8026 26.3374C24.9683 26.1882 25.1141 25.9446 25.2401 25.6065L25.424 25.0994L22.63 17.3636H24.2209L26.1549 23.2898H26.2344L28.1683 17.3636H29.7642L26.6172 26.0192C26.4714 26.4169 26.2858 26.7533 26.0604 27.0284C25.835 27.3068 25.5665 27.5156 25.255 27.6548C24.9434 27.794 24.5822 27.8636 24.1712 27.8636ZM33.0748 25.169C32.5909 25.169 32.1534 25.0795 31.7623 24.9006C31.3712 24.7183 31.0613 24.4548 30.8326 24.1101C30.6072 23.7654 30.4945 23.3428 30.4945 22.8423C30.4945 22.4115 30.5774 22.0568 30.7431 21.7784C30.9088 21.5 31.1326 21.2796 31.4143 21.1172C31.696 20.9548 32.0109 20.8321 32.3589 20.7493C32.7069 20.6664 33.0615 20.6035 33.4228 20.5604C33.8802 20.5073 34.2514 20.4643 34.5364 20.4311C34.8215 20.3946 35.0286 20.3366 35.1579 20.2571C35.2872 20.1776 35.3518 20.0483 35.3518 19.8693V19.8345C35.3518 19.4003 35.2291 19.0639 34.9839 18.8253C34.7419 18.5866 34.3807 18.4673 33.9001 18.4673C33.3996 18.4673 33.0052 18.5784 32.7168 18.8004C32.4318 19.0192 32.2346 19.2628 32.1252 19.5312L30.7282 19.2131C30.8939 18.7491 31.1359 18.3745 31.4541 18.0895C31.7756 17.8011 32.1451 17.5923 32.5627 17.4631C32.9803 17.3305 33.4195 17.2642 33.8802 17.2642C34.1851 17.2642 34.5083 17.3007 34.8497 17.3736C35.1943 17.4432 35.5158 17.5724 35.8141 17.7614C36.1158 17.9503 36.3627 18.2204 36.5549 18.5717C36.7471 18.9197 36.8433 19.3722 36.8433 19.929V25H35.3916V23.956H35.3319C35.2358 24.1482 35.0916 24.3371 34.8994 24.5227C34.7071 24.7083 34.4602 24.8625 34.1586 24.9851C33.857 25.1077 33.4957 25.169 33.0748 25.169ZM33.3979 23.9759C33.8089 23.9759 34.1603 23.8946 34.4519 23.7322C34.7469 23.5698 34.9706 23.3577 35.1231 23.0959C35.2789 22.8307 35.3568 22.5473 35.3568 22.2457V21.2614C35.3037 21.3144 35.201 21.3641 35.0485 21.4105C34.8994 21.4536 34.7287 21.4917 34.5364 21.5249C34.3442 21.5547 34.1569 21.5829 33.9747 21.6094C33.7924 21.6326 33.6399 21.6525 33.5173 21.669C33.2289 21.7055 32.9654 21.7668 32.7268 21.853C32.4915 21.9392 32.3025 22.0634 32.16 22.2259C32.0208 22.3849 31.9512 22.5971 31.9512 22.8622C31.9512 23.2301 32.0871 23.5085 32.3589 23.6974C32.6307 23.883 32.977 23.9759 33.3979 23.9759ZM40.2197 20.4659V25H38.7332V17.3636H40.16V18.6065H40.2545C40.4302 18.2022 40.7053 17.8774 41.0798 17.6321C41.4576 17.3868 41.9332 17.2642 42.5066 17.2642C43.027 17.2642 43.4827 17.3736 43.8738 17.5923C44.2649 17.8078 44.5682 18.1293 44.7836 18.5568C44.9991 18.9844 45.1068 19.513 45.1068 20.1428V25H43.6203V20.3217C43.6203 19.7682 43.4761 19.3357 43.1877 19.0241C42.8994 18.7093 42.5033 18.5518 41.9995 18.5518C41.6548 18.5518 41.3483 18.6264 41.0798 18.7756C40.8146 18.9247 40.6042 19.1435 40.4484 19.4318C40.2959 19.7169 40.2197 20.0616 40.2197 20.4659ZM46.9905 25V23.8864L50.4358 20.3168C50.8037 19.929 51.107 19.5893 51.3456 19.2976C51.5876 19.0026 51.7682 18.7225 51.8875 18.4574C52.0068 18.1922 52.0665 17.9105 52.0665 17.6122C52.0665 17.2741 51.9869 16.9825 51.8279 16.7372C51.6688 16.4886 51.4517 16.2981 51.1766 16.1655C50.9015 16.0296 50.5916 15.9616 50.2469 15.9616C49.8823 15.9616 49.5641 16.0362 49.2923 16.1854C49.0206 16.3345 48.8118 16.545 48.6659 16.8168C48.5201 17.0885 48.4472 17.4067 48.4472 17.7713H46.9806C46.9806 17.1515 47.1231 16.6096 47.4081 16.1456C47.6931 15.6816 48.0842 15.322 48.5814 15.0668C49.0786 14.8082 49.6437 14.679 50.2767 14.679C50.9164 14.679 51.4798 14.8066 51.9671 15.0618C52.4576 15.3137 52.8404 15.6584 53.1155 16.0959C53.3906 16.5301 53.5281 17.0206 53.5281 17.5675C53.5281 17.9453 53.4569 18.3149 53.3144 18.6761C53.1752 19.0374 52.9315 19.4401 52.5835 19.8842C52.2355 20.325 51.7516 20.8603 51.1318 21.4901L49.1084 23.608V23.6825H53.6922V25H46.9905ZM59.0312 25.169C58.2457 25.1657 57.5745 24.9586 57.0177 24.5476C56.4609 24.1366 56.035 23.5384 55.74 22.7528C55.445 21.9673 55.2975 21.0211 55.2975 19.9141C55.2975 18.8104 55.445 17.8674 55.74 17.0852C56.0383 16.303 56.4658 15.7064 57.0227 15.2955C57.5828 14.8845 58.2523 14.679 59.0312 14.679C59.8101 14.679 60.4779 14.8861 61.0347 15.3004C61.5915 15.7114 62.0174 16.308 62.3124 17.0902C62.6107 17.8691 62.7599 18.8104 62.7599 19.9141C62.7599 21.0244 62.6124 21.9723 62.3174 22.7578C62.0224 23.54 61.5965 24.1383 61.0397 24.5526C60.4829 24.9635 59.8134 25.169 59.0312 25.169ZM59.0312 23.8416C59.7206 23.8416 60.2592 23.5052 60.6469 22.8324C61.038 22.1596 61.2336 21.1868 61.2336 19.9141C61.2336 19.0689 61.1441 18.3546 60.9651 17.7713C60.7895 17.1847 60.5359 16.7405 60.2045 16.4389C59.8763 16.134 59.4853 15.9815 59.0312 15.9815C58.3451 15.9815 57.8065 16.3196 57.4154 16.9957C57.0243 17.6719 56.8271 18.6446 56.8238 19.9141C56.8238 20.7625 56.9116 21.4801 57.0873 22.0668C57.2663 22.6501 57.5198 23.0926 57.8479 23.3942C58.1761 23.6925 58.5705 23.8416 59.0312 23.8416ZM67.9783 25.169C67.1928 25.1657 66.5216 24.9586 65.9648 24.5476C65.408 24.1366 64.9821 23.5384 64.6871 22.7528C64.3921 21.9673 64.2446 21.0211 64.2446 19.9141C64.2446 18.8104 64.3921 17.8674 64.6871 17.0852C64.9854 16.303 65.4129 15.7064 65.9698 15.2955C66.5299 14.8845 67.1994 14.679 67.9783 14.679C68.7572 14.679 69.425 14.8861 69.9818 15.3004C70.5387 15.7114 70.9646 16.308 71.2595 17.0902C71.5578 17.8691 71.707 18.8104 71.707 19.9141C71.707 21.0244 71.5595 21.9723 71.2645 22.7578C70.9695 23.54 70.5436 24.1383 69.9868 24.5526C69.43 24.9635 68.7605 25.169 67.9783 25.169ZM67.9783 23.8416C68.6677 23.8416 69.2063 23.5052 69.5941 22.8324C69.9852 22.1596 70.1807 21.1868 70.1807 19.9141C70.1807 19.0689 70.0912 18.3546 69.9122 17.7713C69.7366 17.1847 69.483 16.7405 69.1516 16.4389C68.8235 16.134 68.4324 15.9815 67.9783 15.9815C67.2922 15.9815 66.7536 16.3196 66.3625 16.9957C65.9714 17.6719 65.7742 18.6446 65.7709 19.9141C65.7709 20.7625 65.8587 21.4801 66.0344 22.0668C66.2134 22.6501 66.4669 23.0926 66.795 23.3942C67.1232 23.6925 67.5176 23.8416 67.9783 23.8416Z" fill="black"/>
</svg>
