<svg width="520" height="40" viewBox="0 0 520 40" fill="none" xmlns="http://www.w3.org/2000/svg">
<rect width="520" height="40" fill="#0A0A0B"/>
<path d="M20.0092 18.0348C19.9131 17.7332 19.7839 17.4631 19.6214 17.2244C19.4624 16.9825 19.2718 16.777 19.0497 16.608C18.8277 16.4356 18.5741 16.3047 18.2891 16.2152C18.0073 16.1257 17.6974 16.081 17.3594 16.081C16.786 16.081 16.2689 16.2285 15.8082 16.5234C15.3475 16.8184 14.983 17.2509 14.7145 17.821C14.4493 18.3878 14.3168 19.0821 14.3168 19.9041C14.3168 20.7294 14.451 21.4271 14.7195 21.9972C14.9879 22.5672 15.3558 22.9998 15.8232 23.2947C16.2905 23.5897 16.8224 23.7372 17.419 23.7372C17.9725 23.7372 18.4548 23.6245 18.8658 23.3991C19.2801 23.1738 19.5999 22.8556 19.8253 22.4446C20.054 22.0303 20.1683 21.5431 20.1683 20.983L20.5661 21.0575H17.6527V19.7898H21.6548V20.9482C21.6548 21.8033 21.4725 22.5457 21.108 23.1754C20.7467 23.8018 20.2462 24.2857 19.6065 24.6271C18.9702 24.9685 18.241 25.1392 17.419 25.1392C16.4976 25.1392 15.6889 24.9271 14.9929 24.5028C14.3002 24.0786 13.7599 23.477 13.3722 22.6982C12.9844 21.916 12.7905 20.9879 12.7905 19.9141C12.7905 19.102 12.9032 18.3729 13.1286 17.7266C13.3539 17.0803 13.6705 16.5317 14.0781 16.081C14.4891 15.6269 14.9714 15.2805 15.5249 15.0419C16.0817 14.8 16.6899 14.679 17.3494 14.679C17.8996 14.679 18.4117 14.7602 18.8857 14.9226C19.3629 15.085 19.7872 15.3153 20.1584 15.6136C20.5329 15.9119 20.8428 16.2666 21.0881 16.6776C21.3333 17.0852 21.4991 17.5376 21.5852 18.0348H20.0092ZM23.4856 25V17.3636H24.9224V18.5767H25.002C25.1412 18.1657 25.3864 17.8426 25.7377 17.6072C26.0924 17.3686 26.4934 17.2493 26.9409 17.2493C27.0337 17.2493 27.1431 17.2526 27.269 17.2592C27.3983 17.2659 27.4993 17.2741 27.5723 17.2841V18.706C27.5126 18.6894 27.4065 18.6712 27.2541 18.6513C27.1016 18.6281 26.9492 18.6165 26.7967 18.6165C26.4454 18.6165 26.1322 18.6911 25.8571 18.8402C25.5853 18.986 25.3699 19.1899 25.2108 19.4517C25.0517 19.7102 24.9721 20.0052 24.9721 20.3366V25H23.4856ZM31.8764 25.1541C31.1241 25.1541 30.4761 24.9934 29.9325 24.6719C29.3923 24.3471 28.9747 23.8913 28.6797 23.3047C28.388 22.7147 28.2422 22.0237 28.2422 21.2315C28.2422 20.4493 28.388 19.7599 28.6797 19.1634C28.9747 18.5668 29.3857 18.1011 29.9126 17.7663C30.4429 17.4316 31.0627 17.2642 31.772 17.2642C32.2029 17.2642 32.6205 17.3355 33.0249 17.478C33.4292 17.6205 33.7921 17.8442 34.1136 18.1491C34.4351 18.4541 34.6887 18.8501 34.8743 19.3374C35.0599 19.8213 35.1527 20.4096 35.1527 21.1023V21.6293H29.0824V20.5156H33.696C33.696 20.1245 33.6165 19.7782 33.4574 19.4766C33.2983 19.1716 33.0746 18.9313 32.7862 18.7557C32.5012 18.58 32.1664 18.4922 31.782 18.4922C31.3643 18.4922 30.9998 18.5949 30.6882 18.8004C30.38 19.0026 30.1413 19.2678 29.9723 19.5959C29.8066 19.9207 29.7237 20.2737 29.7237 20.6548V21.5249C29.7237 22.0353 29.8132 22.4695 29.9922 22.8274C30.1745 23.1854 30.428 23.4588 30.7528 23.6477C31.0777 23.8333 31.4571 23.9261 31.8913 23.9261C32.1731 23.9261 32.4299 23.8864 32.6619 23.8068C32.8939 23.724 33.0945 23.6013 33.2635 23.4389C33.4325 23.2765 33.5618 23.076 33.6513 22.8374L35.0582 23.0909C34.9455 23.5052 34.7434 23.8681 34.4517 24.1797C34.1634 24.4879 33.8004 24.7282 33.3629 24.9006C32.9287 25.0696 32.4332 25.1541 31.8764 25.1541ZM37.5229 27.8636C37.3008 27.8636 37.0987 27.8454 36.9164 27.8089C36.7341 27.7758 36.5982 27.7393 36.5087 27.6996L36.8667 26.4815C37.1384 26.5545 37.3804 26.5859 37.5925 26.576C37.8046 26.5661 37.9919 26.4865 38.1543 26.3374C38.32 26.1882 38.4658 25.9446 38.5918 25.6065L38.7757 25.0994L35.9817 17.3636H37.5726L39.5066 23.2898H39.5861L41.5201 17.3636H43.1159L39.9689 26.0192C39.8231 26.4169 39.6375 26.7533 39.4121 27.0284C39.1867 27.3068 38.9183 27.5156 38.6067 27.6548C38.2952 27.794 37.9339 27.8636 37.5229 27.8636ZM48.356 14.8182V25H46.8148V16.3594H46.7551L44.3191 17.9503V16.4787L46.8596 14.8182H48.356ZM54.655 25.1392C53.9722 25.1392 53.3624 25.0215 52.8255 24.7862C52.2918 24.5509 51.8693 24.2244 51.5577 23.8068C51.2495 23.3859 51.0837 22.8987 51.0605 22.3452H52.6216C52.6415 22.6468 52.7426 22.9086 52.9249 23.1307C53.1105 23.3494 53.3525 23.5185 53.6507 23.6378C53.949 23.7571 54.2805 23.8168 54.6451 23.8168C55.0461 23.8168 55.4007 23.7472 55.709 23.608C56.0205 23.4687 56.2641 23.2749 56.4398 23.0263C56.6155 22.7744 56.7033 22.4844 56.7033 22.1562C56.7033 21.8149 56.6155 21.5149 56.4398 21.2564C56.2675 20.9946 56.0139 20.7891 55.6792 20.6399C55.3477 20.4908 54.9467 20.4162 54.476 20.4162H53.6159V19.1634H54.476C54.8539 19.1634 55.1853 19.0954 55.4703 18.9595C55.7587 18.8236 55.9841 18.6347 56.1465 18.3928C56.3089 18.1475 56.3901 17.8608 56.3901 17.5327C56.3901 17.2178 56.3188 16.9444 56.1763 16.7124C56.0371 16.477 55.8382 16.2931 55.5797 16.1605C55.3245 16.0279 55.0229 15.9616 54.6749 15.9616C54.3435 15.9616 54.0336 16.023 53.7452 16.1456C53.4602 16.2649 53.2282 16.4373 53.0492 16.6626C52.8702 16.8847 52.7741 17.1515 52.7608 17.4631H51.2743C51.2909 16.9129 51.4533 16.429 51.7615 16.0114C52.0731 15.5937 52.4841 15.2673 52.9945 15.032C53.5049 14.7966 54.0717 14.679 54.6948 14.679C55.3477 14.679 55.9112 14.8066 56.3851 15.0618C56.8624 15.3137 57.2303 15.6501 57.4888 16.071C57.7507 16.492 57.8799 16.9527 57.8766 17.4531C57.8799 18.0232 57.7208 18.5071 57.3993 18.9048C57.0811 19.3026 56.6569 19.5694 56.1266 19.7053V19.7848C56.8027 19.8875 57.3264 20.156 57.6976 20.5902C58.0721 21.0244 58.2578 21.563 58.2544 22.206C58.2578 22.7661 58.102 23.2682 57.7871 23.7124C57.4756 24.1565 57.0497 24.5062 56.5094 24.7614C55.9692 25.0133 55.351 25.1392 54.655 25.1392ZM63.6784 25.169C62.8929 25.1657 62.2218 24.9586 61.665 24.5476C61.1081 24.1366 60.6822 23.5384 60.3873 22.7528C60.0923 21.9673 59.9448 21.0211 59.9448 19.9141C59.9448 18.8104 60.0923 17.8674 60.3873 17.0852C60.6855 16.303 61.1131 15.7064 61.6699 15.2955C62.2301 14.8845 62.8996 14.679 63.6784 14.679C64.4573 14.679 65.1252 14.8861 65.682 15.3004C66.2388 15.7114 66.6647 16.308 66.9597 17.0902C67.258 17.8691 67.4071 18.8104 67.4071 19.9141C67.4071 21.0244 67.2596 21.9723 66.9647 22.7578C66.6697 23.54 66.2438 24.1383 65.687 24.5526C65.1301 24.9635 64.4606 25.169 63.6784 25.169ZM63.6784 23.8416C64.3678 23.8416 64.9064 23.5052 65.2942 22.8324C65.6853 22.1596 65.8809 21.1868 65.8809 19.9141C65.8809 19.0689 65.7914 18.3546 65.6124 17.7713C65.4367 17.1847 65.1832 16.7405 64.8517 16.4389C64.5236 16.134 64.1325 15.9815 63.6784 15.9815C62.9924 15.9815 62.4538 16.3196 62.0627 16.9957C61.6716 17.6719 61.4744 18.6446 61.4711 19.9141C61.4711 20.7625 61.5589 21.4801 61.7346 22.0668C61.9135 22.6501 62.1671 23.0926 62.4952 23.3942C62.8233 23.6925 63.2177 23.8416 63.6784 23.8416ZM72.7156 25.169C71.93 25.1657 71.2589 24.9586 70.7021 24.5476C70.1452 24.1366 69.7193 23.5384 69.4244 22.7528C69.1294 21.9673 68.9819 21.0211 68.9819 19.9141C68.9819 18.8104 69.1294 17.8674 69.4244 17.0852C69.7227 16.303 70.1502 15.7064 70.707 15.2955C71.2672 14.8845 71.9367 14.679 72.7156 14.679C73.4944 14.679 74.1623 14.8861 74.7191 15.3004C75.2759 15.7114 75.7018 16.308 75.9968 17.0902C76.2951 17.8691 76.4442 18.8104 76.4442 19.9141C76.4442 21.0244 76.2968 21.9723 76.0018 22.7578C75.7068 23.54 75.2809 24.1383 74.7241 24.5526C74.1673 24.9635 73.4978 25.169 72.7156 25.169ZM72.7156 23.8416C73.4049 23.8416 73.9435 23.5052 74.3313 22.8324C74.7224 22.1596 74.918 21.1868 74.918 19.9141C74.918 19.0689 74.8285 18.3546 74.6495 17.7713C74.4738 17.1847 74.2203 16.7405 73.8888 16.4389C73.5607 16.134 73.1696 15.9815 72.7156 15.9815C72.0295 15.9815 71.4909 16.3196 71.0998 16.9957C70.7087 17.6719 70.5115 18.6446 70.5082 19.9141C70.5082 20.7625 70.596 21.4801 70.7717 22.0668C70.9506 22.6501 71.2042 23.0926 71.5323 23.3942C71.8604 23.6925 72.2549 23.8416 72.7156 23.8416Z" fill="white"/>
</svg>
