<svg width="99" height="60" viewBox="0 0 99 60" fill="none" xmlns="http://www.w3.org/2000/svg">
<path d="M0.333252 0H86.9999C93.6273 0 98.9999 5.37258 98.9999 12V48C98.9999 54.6274 93.6273 60 86.9999 60H0.333252V0Z" fill="black"/>
<path d="M20.3425 28.0348C20.2464 27.7332 20.1171 27.4631 19.9547 27.2244C19.7956 26.9825 19.605 26.777 19.383 26.608C19.1609 26.4356 18.9074 26.3047 18.6223 26.2152C18.3406 26.1257 18.0307 26.081 17.6926 26.081C17.1192 26.081 16.6022 26.2285 16.1415 26.5234C15.6808 26.8184 15.3162 27.2509 15.0477 27.821C14.7826 28.3878 14.65 29.0821 14.65 29.9041C14.65 30.7294 14.7842 31.4271 15.0527 31.9972C15.3212 32.5672 15.6891 32.9998 16.1564 33.2947C16.6237 33.5897 17.1557 33.7372 17.7523 33.7372C18.3058 33.7372 18.788 33.6245 19.199 33.3991C19.6133 33.1738 19.9332 32.8556 20.1585 32.4446C20.3872 32.0303 20.5016 31.5431 20.5016 30.983L20.8993 31.0575H17.986V29.7898H21.9881V30.9482C21.9881 31.8033 21.8058 32.5457 21.4412 33.1754C21.0799 33.8018 20.5795 34.2857 19.9398 34.6271C19.3034 34.9685 18.5743 35.1392 17.7523 35.1392C16.8309 35.1392 16.0222 34.9271 15.3261 34.5028C14.6334 34.0786 14.0932 33.477 13.7054 32.6982C13.3176 31.916 13.1237 30.9879 13.1237 29.9141C13.1237 29.102 13.2364 28.3729 13.4618 27.7266C13.6872 27.0803 14.0037 26.5317 14.4114 26.081C14.8224 25.6269 15.3046 25.2805 15.8581 25.0419C16.4149 24.8 17.0231 24.679 17.6827 24.679C18.2329 24.679 18.7449 24.7602 19.2189 24.9226C19.6962 25.085 20.1204 25.3153 20.4916 25.6136C20.8662 25.9119 21.1761 26.2666 21.4213 26.6776C21.6666 27.0852 21.8323 27.5376 21.9185 28.0348H20.3425ZM23.7289 35V27.3636H25.1657V28.5767H25.2452C25.3844 28.1657 25.6297 27.8426 25.981 27.6072C26.3356 27.3686 26.7367 27.2493 27.1841 27.2493C27.2769 27.2493 27.3863 27.2526 27.5123 27.2592C27.6415 27.2659 27.7426 27.2741 27.8155 27.2841V28.706C27.7559 28.6894 27.6498 28.6712 27.4973 28.6513C27.3449 28.6281 27.1924 28.6165 27.0399 28.6165C26.6886 28.6165 26.3754 28.6911 26.1003 28.8402C25.8285 28.986 25.6131 29.1899 25.454 29.4517C25.2949 29.7102 25.2154 30.0052 25.2154 30.3366V35H23.7289ZM32.0297 35.1541C31.2773 35.1541 30.6293 34.9934 30.0858 34.6719C29.5455 34.3471 29.1279 33.8913 28.8329 33.3047C28.5413 32.7147 28.3954 32.0237 28.3954 31.2315C28.3954 30.4493 28.5413 29.7599 28.8329 29.1634C29.1279 28.5668 29.5389 28.1011 30.0659 27.7663C30.5962 27.4316 31.216 27.2642 31.9253 27.2642C32.3561 27.2642 32.7738 27.3355 33.1781 27.478C33.5825 27.6205 33.9454 27.8442 34.2669 28.1491C34.5884 28.4541 34.8419 28.8501 35.0275 29.3374C35.2131 29.8213 35.306 30.4096 35.306 31.1023V31.6293H29.2356V30.5156H33.8493C33.8493 30.1245 33.7697 29.7782 33.6106 29.4766C33.4515 29.1716 33.2278 28.9313 32.9395 28.7557C32.6544 28.58 32.3197 28.4922 31.9352 28.4922C31.5176 28.4922 31.153 28.5949 30.8415 28.8004C30.5332 29.0026 30.2946 29.2678 30.1256 29.5959C29.9598 29.9207 29.877 30.2737 29.877 30.6548V31.5249C29.877 32.0353 29.9665 32.4695 30.1454 32.8274C30.3277 33.1854 30.5813 33.4588 30.9061 33.6477C31.2309 33.8333 31.6104 33.9261 32.0446 33.9261C32.3263 33.9261 32.5832 33.8864 32.8152 33.8068C33.0472 33.724 33.2477 33.6013 33.4167 33.4389C33.5858 33.2765 33.715 33.076 33.8045 32.8374L35.2115 33.0909C35.0988 33.5052 34.8966 33.8681 34.605 34.1797C34.3166 34.4879 33.9537 34.7282 33.5162 34.9006C33.082 35.0696 32.5865 35.1541 32.0297 35.1541ZM37.5862 37.8636C37.3641 37.8636 37.1619 37.8454 36.9796 37.8089C36.7973 37.7758 36.6614 37.7393 36.572 37.6996L36.9299 36.4815C37.2017 36.5545 37.4436 36.5859 37.6558 36.576C37.8679 36.5661 38.0551 36.4865 38.2175 36.3374C38.3833 36.1882 38.5291 35.9446 38.655 35.6065L38.839 35.0994L36.045 27.3636H37.6359L39.5698 33.2898H39.6494L41.5833 27.3636H43.1792L40.0322 36.0192C39.8863 36.4169 39.7007 36.7533 39.4754 37.0284C39.25 37.3068 38.9815 37.5156 38.67 37.6548C38.3584 37.794 37.9971 37.8636 37.5862 37.8636ZM48.3293 24.8182V35H46.7881V26.3594H46.7284L44.2923 27.9503V26.4787L46.8328 24.8182H48.3293ZM54.5383 35.1392C53.8555 35.1392 53.2456 35.0215 52.7087 34.7862C52.1751 34.5509 51.7525 34.2244 51.441 33.8068C51.1327 33.3859 50.967 32.8987 50.9438 32.3452H52.5049C52.5248 32.6468 52.6259 32.9086 52.8081 33.1307C52.9938 33.3494 53.2357 33.5185 53.534 33.6378C53.8323 33.7571 54.1637 33.8168 54.5283 33.8168C54.9294 33.8168 55.284 33.7472 55.5922 33.608C55.9038 33.4687 56.1474 33.2749 56.3231 33.0263C56.4987 32.7744 56.5866 32.4844 56.5866 32.1562C56.5866 31.8149 56.4987 31.5149 56.3231 31.2564C56.1507 30.9946 55.8972 30.7891 55.5624 30.6399C55.231 30.4908 54.8299 30.4162 54.3593 30.4162H53.4992V29.1634H54.3593C54.7371 29.1634 55.0686 29.0954 55.3536 28.9595C55.642 28.8236 55.8673 28.6347 56.0297 28.3928C56.1921 28.1475 56.2733 27.8608 56.2733 27.5327C56.2733 27.2178 56.2021 26.9444 56.0596 26.7124C55.9204 26.477 55.7215 26.2931 55.463 26.1605C55.2078 26.0279 54.9062 25.9616 54.5581 25.9616C54.2267 25.9616 53.9168 26.023 53.6285 26.1456C53.3434 26.2649 53.1114 26.4373 52.9324 26.6626C52.7535 26.8847 52.6573 27.1515 52.6441 27.4631H51.1576C51.1741 26.9129 51.3366 26.429 51.6448 26.0114C51.9563 25.5937 52.3673 25.2673 52.8777 25.032C53.3882 24.7966 53.9549 24.679 54.578 24.679C55.231 24.679 55.7944 24.8066 56.2684 25.0618C56.7456 25.3137 57.1135 25.6501 57.3721 26.071C57.6339 26.492 57.7632 26.9527 57.7598 27.4531C57.7632 28.0232 57.6041 28.5071 57.2826 28.9048C56.9644 29.3026 56.5402 29.5694 56.0098 29.7053V29.7848C56.686 29.8875 57.2097 30.156 57.5809 30.5902C57.9554 31.0244 58.141 31.563 58.1377 32.206C58.141 32.7661 57.9852 33.2682 57.6704 33.7124C57.3588 34.1565 56.9329 34.5062 56.3927 34.7614C55.8524 35.0133 55.2343 35.1392 54.5383 35.1392ZM63.4717 35.169C62.6862 35.1657 62.015 34.9586 61.4582 34.5476C60.9014 34.1366 60.4755 33.5384 60.1805 32.7528C59.8855 31.9673 59.738 31.0211 59.738 29.9141C59.738 28.8104 59.8855 27.8674 60.1805 27.0852C60.4788 26.303 60.9064 25.7064 61.4632 25.2955C62.0233 24.8845 62.6928 24.679 63.4717 24.679C64.2506 24.679 64.9184 24.8861 65.4752 25.3004C66.0321 25.7114 66.458 26.308 66.7529 27.0902C67.0512 27.8691 67.2004 28.8104 67.2004 29.9141C67.2004 31.0244 67.0529 31.9723 66.7579 32.7578C66.4629 33.54 66.037 34.1383 65.4802 34.5526C64.9234 34.9635 64.2539 35.169 63.4717 35.169ZM63.4717 33.8416C64.1611 33.8416 64.6997 33.5052 65.0875 32.8324C65.4786 32.1596 65.6741 31.1868 65.6741 29.9141C65.6741 29.0689 65.5846 28.3546 65.4056 27.7713C65.23 27.1847 64.9764 26.7405 64.645 26.4389C64.3169 26.134 63.9258 25.9815 63.4717 25.9815C62.7856 25.9815 62.247 26.3196 61.8559 26.9957C61.4648 27.6719 61.2676 28.6446 61.2643 29.9141C61.2643 30.7625 61.3521 31.4801 61.5278 32.0668C61.7068 32.6501 61.9603 33.0926 62.2885 33.3942C62.6166 33.6925 63.011 33.8416 63.4717 33.8416ZM72.4188 35.169C71.6333 35.1657 70.9621 34.9586 70.4053 34.5476C69.8485 34.1366 69.4226 33.5384 69.1276 32.7528C68.8326 31.9673 68.6851 31.0211 68.6851 29.9141C68.6851 28.8104 68.8326 27.8674 69.1276 27.0852C69.4259 26.303 69.8535 25.7064 70.4103 25.2955C70.9704 24.8845 71.6399 24.679 72.4188 24.679C73.1977 24.679 73.8655 24.8861 74.4224 25.3004C74.9792 25.7114 75.4051 26.308 75.7001 27.0902C75.9984 27.8691 76.1475 28.8104 76.1475 29.9141C76.1475 31.0244 76 31.9723 75.705 32.7578C75.41 33.54 74.9841 34.1383 74.4273 34.5526C73.8705 34.9635 73.201 35.169 72.4188 35.169ZM72.4188 33.8416C73.1082 33.8416 73.6468 33.5052 74.0346 32.8324C74.4257 32.1596 74.6212 31.1868 74.6212 29.9141C74.6212 29.0689 74.5317 28.3546 74.3528 27.7713C74.1771 27.1847 73.9235 26.7405 73.5921 26.4389C73.264 26.134 72.8729 25.9815 72.4188 25.9815C71.7327 25.9815 71.1941 26.3196 70.803 26.9957C70.4119 27.6719 70.2147 28.6446 70.2114 29.9141C70.2114 30.7625 70.2992 31.4801 70.4749 32.0668C70.6539 32.6501 70.9074 33.0926 71.2356 33.3942C71.5637 33.6925 71.9581 33.8416 72.4188 33.8416Z" fill="white"/>
</svg>
