<svg width="520" height="40" viewBox="0 0 520 40" fill="none" xmlns="http://www.w3.org/2000/svg">
<rect width="520" height="40" fill="#36383D"/>
<path d="M20.0092 18.0348C19.9131 17.7332 19.7839 17.4631 19.6214 17.2244C19.4624 16.9825 19.2718 16.777 19.0497 16.608C18.8277 16.4356 18.5741 16.3047 18.2891 16.2152C18.0073 16.1257 17.6974 16.081 17.3594 16.081C16.786 16.081 16.2689 16.2285 15.8082 16.5234C15.3475 16.8184 14.983 17.2509 14.7145 17.821C14.4493 18.3878 14.3168 19.0821 14.3168 19.9041C14.3168 20.7294 14.451 21.4271 14.7195 21.9972C14.9879 22.5672 15.3558 22.9998 15.8232 23.2947C16.2905 23.5897 16.8224 23.7372 17.419 23.7372C17.9725 23.7372 18.4548 23.6245 18.8658 23.3991C19.2801 23.1738 19.5999 22.8556 19.8253 22.4446C20.054 22.0303 20.1683 21.5431 20.1683 20.983L20.5661 21.0575H17.6527V19.7898H21.6548V20.9482C21.6548 21.8033 21.4725 22.5457 21.108 23.1754C20.7467 23.8018 20.2462 24.2857 19.6065 24.6271C18.9702 24.9685 18.241 25.1392 17.419 25.1392C16.4976 25.1392 15.6889 24.9271 14.9929 24.5028C14.3002 24.0786 13.7599 23.477 13.3722 22.6982C12.9844 21.916 12.7905 20.9879 12.7905 19.9141C12.7905 19.102 12.9032 18.3729 13.1286 17.7266C13.3539 17.0803 13.6705 16.5317 14.0781 16.081C14.4891 15.6269 14.9714 15.2805 15.5249 15.0419C16.0817 14.8 16.6899 14.679 17.3494 14.679C17.8996 14.679 18.4117 14.7602 18.8857 14.9226C19.3629 15.085 19.7872 15.3153 20.1584 15.6136C20.5329 15.9119 20.8428 16.2666 21.0881 16.6776C21.3333 17.0852 21.4991 17.5376 21.5852 18.0348H20.0092ZM23.4856 25V17.3636H24.9224V18.5767H25.002C25.1412 18.1657 25.3864 17.8426 25.7377 17.6072C26.0924 17.3686 26.4934 17.2493 26.9409 17.2493C27.0337 17.2493 27.1431 17.2526 27.269 17.2592C27.3983 17.2659 27.4993 17.2741 27.5723 17.2841V18.706C27.5126 18.6894 27.4065 18.6712 27.2541 18.6513C27.1016 18.6281 26.9492 18.6165 26.7967 18.6165C26.4454 18.6165 26.1322 18.6911 25.8571 18.8402C25.5853 18.986 25.3699 19.1899 25.2108 19.4517C25.0517 19.7102 24.9721 20.0052 24.9721 20.3366V25H23.4856ZM31.8764 25.1541C31.1241 25.1541 30.4761 24.9934 29.9325 24.6719C29.3923 24.3471 28.9747 23.8913 28.6797 23.3047C28.388 22.7147 28.2422 22.0237 28.2422 21.2315C28.2422 20.4493 28.388 19.7599 28.6797 19.1634C28.9747 18.5668 29.3857 18.1011 29.9126 17.7663C30.4429 17.4316 31.0627 17.2642 31.772 17.2642C32.2029 17.2642 32.6205 17.3355 33.0249 17.478C33.4292 17.6205 33.7921 17.8442 34.1136 18.1491C34.4351 18.4541 34.6887 18.8501 34.8743 19.3374C35.0599 19.8213 35.1527 20.4096 35.1527 21.1023V21.6293H29.0824V20.5156H33.696C33.696 20.1245 33.6165 19.7782 33.4574 19.4766C33.2983 19.1716 33.0746 18.9313 32.7862 18.7557C32.5012 18.58 32.1664 18.4922 31.782 18.4922C31.3643 18.4922 30.9998 18.5949 30.6882 18.8004C30.38 19.0026 30.1413 19.2678 29.9723 19.5959C29.8066 19.9207 29.7237 20.2737 29.7237 20.6548V21.5249C29.7237 22.0353 29.8132 22.4695 29.9922 22.8274C30.1745 23.1854 30.428 23.4588 30.7528 23.6477C31.0777 23.8333 31.4571 23.9261 31.8913 23.9261C32.1731 23.9261 32.4299 23.8864 32.6619 23.8068C32.8939 23.724 33.0945 23.6013 33.2635 23.4389C33.4325 23.2765 33.5618 23.076 33.6513 22.8374L35.0582 23.0909C34.9455 23.5052 34.7434 23.8681 34.4517 24.1797C34.1634 24.4879 33.8004 24.7282 33.3629 24.9006C32.9287 25.0696 32.4332 25.1541 31.8764 25.1541ZM37.5229 27.8636C37.3008 27.8636 37.0987 27.8454 36.9164 27.8089C36.7341 27.7758 36.5982 27.7393 36.5087 27.6996L36.8667 26.4815C37.1384 26.5545 37.3804 26.5859 37.5925 26.576C37.8046 26.5661 37.9919 26.4865 38.1543 26.3374C38.32 26.1882 38.4658 25.9446 38.5918 25.6065L38.7757 25.0994L35.9817 17.3636H37.5726L39.5066 23.2898H39.5861L41.5201 17.3636H43.1159L39.9689 26.0192C39.8231 26.4169 39.6375 26.7533 39.4121 27.0284C39.1867 27.3068 38.9183 27.5156 38.6067 27.6548C38.2952 27.794 37.9339 27.8636 37.5229 27.8636ZM47.8787 14.679C48.3328 14.6823 48.7802 14.7652 49.2211 14.9276C49.6619 15.09 50.0596 15.3551 50.4142 15.723C50.7722 16.0909 51.0572 16.5881 51.2694 17.2145C51.4848 17.8376 51.5942 18.6132 51.5975 19.5412C51.5975 20.4328 51.508 21.2266 51.329 21.9226C51.15 22.6153 50.8932 23.2003 50.5584 23.6776C50.227 24.1548 49.8243 24.5178 49.3503 24.7663C48.8764 25.0149 48.3427 25.1392 47.7495 25.1392C47.1429 25.1392 46.6043 25.0199 46.1337 24.7812C45.6631 24.5426 45.2802 24.2128 44.9853 23.7919C44.6903 23.3677 44.5063 22.8804 44.4334 22.3303H45.9498C46.0492 22.7678 46.2514 23.1224 46.5563 23.3942C46.8645 23.6626 47.2623 23.7969 47.7495 23.7969C48.4952 23.7969 49.0769 23.4721 49.4945 22.8224C49.9121 22.1695 50.1226 21.258 50.1259 20.0881H50.0463C49.874 20.3731 49.6586 20.6184 49.4 20.8239C49.1448 21.0294 48.8581 21.1884 48.54 21.3011C48.2218 21.4138 47.882 21.4702 47.5208 21.4702C46.9341 21.4702 46.4005 21.326 45.9199 21.0376C45.4393 20.7493 45.0565 20.3532 44.7715 19.8494C44.4864 19.3456 44.3439 18.7706 44.3439 18.1243C44.3439 17.4813 44.4898 16.898 44.7814 16.3743C45.0764 15.8506 45.4874 15.4363 46.0144 15.1314C46.5447 14.8232 47.1661 14.6723 47.8787 14.679ZM47.8837 15.9716C47.4959 15.9716 47.1462 16.0677 46.8347 16.2599C46.5265 16.4489 46.2828 16.7057 46.1039 17.0305C45.9249 17.352 45.8354 17.71 45.8354 18.1044C45.8354 18.4988 45.9216 18.8568 46.0939 19.1783C46.2696 19.4964 46.5082 19.75 46.8098 19.9389C47.1148 20.1245 47.4628 20.2173 47.8539 20.2173C48.1455 20.2173 48.4173 20.161 48.6692 20.0483C48.9211 19.9356 49.1415 19.7798 49.3304 19.581C49.5194 19.3788 49.6668 19.1501 49.7729 18.8949C49.879 18.6397 49.932 18.3712 49.932 18.0895C49.932 17.715 49.8425 17.367 49.6635 17.0455C49.4879 16.724 49.2459 16.4654 48.9377 16.2699C48.6294 16.071 48.2781 15.9716 47.8837 15.9716ZM56.9382 25.169C56.1527 25.1657 55.4815 24.9586 54.9247 24.5476C54.3679 24.1366 53.942 23.5384 53.647 22.7528C53.352 21.9673 53.2045 21.0211 53.2045 19.9141C53.2045 18.8104 53.352 17.8674 53.647 17.0852C53.9453 16.303 54.3729 15.7064 54.9297 15.2955C55.4898 14.8845 56.1593 14.679 56.9382 14.679C57.7171 14.679 58.3849 14.8861 58.9418 15.3004C59.4986 15.7114 59.9245 16.308 60.2195 17.0902C60.5178 17.8691 60.6669 18.8104 60.6669 19.9141C60.6669 21.0244 60.5194 21.9723 60.2244 22.7578C59.9295 23.54 59.5036 24.1383 58.9467 24.5526C58.3899 24.9635 57.7204 25.169 56.9382 25.169ZM56.9382 23.8416C57.6276 23.8416 58.1662 23.5052 58.554 22.8324C58.9451 22.1596 59.1406 21.1868 59.1406 19.9141C59.1406 19.0689 59.0511 18.3546 58.8722 17.7713C58.6965 17.1847 58.4429 16.7405 58.1115 16.4389C57.7834 16.134 57.3923 15.9815 56.9382 15.9815C56.2521 15.9815 55.7135 16.3196 55.3224 16.9957C54.9313 17.6719 54.7341 18.6446 54.7308 19.9141C54.7308 20.7625 54.8187 21.4801 54.9943 22.0668C55.1733 22.6501 55.4268 23.0926 55.755 23.3942C56.0831 23.6925 56.4775 23.8416 56.9382 23.8416ZM65.9753 25.169C65.1898 25.1657 64.5186 24.9586 63.9618 24.5476C63.405 24.1366 62.9791 23.5384 62.6841 22.7528C62.3891 21.9673 62.2417 21.0211 62.2417 19.9141C62.2417 18.8104 62.3891 17.8674 62.6841 17.0852C62.9824 16.303 63.41 15.7064 63.9668 15.2955C64.5269 14.8845 65.1964 14.679 65.9753 14.679C66.7542 14.679 67.4221 14.8861 67.9789 15.3004C68.5357 15.7114 68.9616 16.308 69.2566 17.0902C69.5549 17.8691 69.704 18.8104 69.704 19.9141C69.704 21.0244 69.5565 21.9723 69.2615 22.7578C68.9666 23.54 68.5407 24.1383 67.9838 24.5526C67.427 24.9635 66.7575 25.169 65.9753 25.169ZM65.9753 23.8416C66.6647 23.8416 67.2033 23.5052 67.5911 22.8324C67.9822 22.1596 68.1777 21.1868 68.1777 19.9141C68.1777 19.0689 68.0882 18.3546 67.9093 17.7713C67.7336 17.1847 67.4801 16.7405 67.1486 16.4389C66.8205 16.134 66.4294 15.9815 65.9753 15.9815C65.2892 15.9815 64.7507 16.3196 64.3596 16.9957C63.9685 17.6719 63.7712 18.6446 63.7679 19.9141C63.7679 20.7625 63.8558 21.4801 64.0314 22.0668C64.2104 22.6501 64.464 23.0926 64.7921 23.3942C65.1202 23.6925 65.5146 23.8416 65.9753 23.8416Z" fill="white"/>
</svg>
