<svg width="520" height="40" viewBox="0 0 520 40" fill="none" xmlns="http://www.w3.org/2000/svg">
<rect width="520" height="40" fill="#ABACB2"/>
<path d="M20.0092 18.0348C19.9131 17.7332 19.7839 17.4631 19.6214 17.2244C19.4624 16.9825 19.2718 16.777 19.0497 16.608C18.8277 16.4356 18.5741 16.3047 18.2891 16.2152C18.0073 16.1257 17.6974 16.081 17.3594 16.081C16.786 16.081 16.2689 16.2285 15.8082 16.5234C15.3475 16.8184 14.983 17.2509 14.7145 17.821C14.4493 18.3878 14.3168 19.0821 14.3168 19.9041C14.3168 20.7294 14.451 21.4271 14.7195 21.9972C14.9879 22.5672 15.3558 22.9998 15.8232 23.2947C16.2905 23.5897 16.8224 23.7372 17.419 23.7372C17.9725 23.7372 18.4548 23.6245 18.8658 23.3991C19.2801 23.1738 19.5999 22.8556 19.8253 22.4446C20.054 22.0303 20.1683 21.5431 20.1683 20.983L20.5661 21.0575H17.6527V19.7898H21.6548V20.9482C21.6548 21.8033 21.4725 22.5457 21.108 23.1754C20.7467 23.8018 20.2462 24.2857 19.6065 24.6271C18.9702 24.9685 18.241 25.1392 17.419 25.1392C16.4976 25.1392 15.6889 24.9271 14.9929 24.5028C14.3002 24.0786 13.7599 23.477 13.3722 22.6982C12.9844 21.916 12.7905 20.9879 12.7905 19.9141C12.7905 19.102 12.9032 18.3729 13.1286 17.7266C13.3539 17.0803 13.6705 16.5317 14.0781 16.081C14.4891 15.6269 14.9714 15.2805 15.5249 15.0419C16.0817 14.8 16.6899 14.679 17.3494 14.679C17.8996 14.679 18.4117 14.7602 18.8857 14.9226C19.3629 15.085 19.7872 15.3153 20.1584 15.6136C20.5329 15.9119 20.8428 16.2666 21.0881 16.6776C21.3333 17.0852 21.4991 17.5376 21.5852 18.0348H20.0092ZM23.4856 25V17.3636H24.9224V18.5767H25.002C25.1412 18.1657 25.3864 17.8426 25.7377 17.6072C26.0924 17.3686 26.4934 17.2493 26.9409 17.2493C27.0337 17.2493 27.1431 17.2526 27.269 17.2592C27.3983 17.2659 27.4993 17.2741 27.5723 17.2841V18.706C27.5126 18.6894 27.4065 18.6712 27.2541 18.6513C27.1016 18.6281 26.9492 18.6165 26.7967 18.6165C26.4454 18.6165 26.1322 18.6911 25.8571 18.8402C25.5853 18.986 25.3699 19.1899 25.2108 19.4517C25.0517 19.7102 24.9721 20.0052 24.9721 20.3366V25H23.4856ZM31.8764 25.1541C31.1241 25.1541 30.4761 24.9934 29.9325 24.6719C29.3923 24.3471 28.9747 23.8913 28.6797 23.3047C28.388 22.7147 28.2422 22.0237 28.2422 21.2315C28.2422 20.4493 28.388 19.7599 28.6797 19.1634C28.9747 18.5668 29.3857 18.1011 29.9126 17.7663C30.4429 17.4316 31.0627 17.2642 31.772 17.2642C32.2029 17.2642 32.6205 17.3355 33.0249 17.478C33.4292 17.6205 33.7921 17.8442 34.1136 18.1491C34.4351 18.4541 34.6887 18.8501 34.8743 19.3374C35.0599 19.8213 35.1527 20.4096 35.1527 21.1023V21.6293H29.0824V20.5156H33.696C33.696 20.1245 33.6165 19.7782 33.4574 19.4766C33.2983 19.1716 33.0746 18.9313 32.7862 18.7557C32.5012 18.58 32.1664 18.4922 31.782 18.4922C31.3643 18.4922 30.9998 18.5949 30.6882 18.8004C30.38 19.0026 30.1413 19.2678 29.9723 19.5959C29.8066 19.9207 29.7237 20.2737 29.7237 20.6548V21.5249C29.7237 22.0353 29.8132 22.4695 29.9922 22.8274C30.1745 23.1854 30.428 23.4588 30.7528 23.6477C31.0777 23.8333 31.4571 23.9261 31.8913 23.9261C32.1731 23.9261 32.4299 23.8864 32.6619 23.8068C32.8939 23.724 33.0945 23.6013 33.2635 23.4389C33.4325 23.2765 33.5618 23.076 33.6513 22.8374L35.0582 23.0909C34.9455 23.5052 34.7434 23.8681 34.4517 24.1797C34.1634 24.4879 33.8004 24.7282 33.3629 24.9006C32.9287 25.0696 32.4332 25.1541 31.8764 25.1541ZM37.5229 27.8636C37.3008 27.8636 37.0987 27.8454 36.9164 27.8089C36.7341 27.7758 36.5982 27.7393 36.5087 27.6996L36.8667 26.4815C37.1384 26.5545 37.3804 26.5859 37.5925 26.576C37.8046 26.5661 37.9919 26.4865 38.1543 26.3374C38.32 26.1882 38.4658 25.9446 38.5918 25.6065L38.7757 25.0994L35.9817 17.3636H37.5726L39.5066 23.2898H39.5861L41.5201 17.3636H43.1159L39.9689 26.0192C39.8231 26.4169 39.6375 26.7533 39.4121 27.0284C39.1867 27.3068 38.9183 27.5156 38.6067 27.6548C38.2952 27.794 37.9339 27.8636 37.5229 27.8636ZM44.2793 23.0114V21.7685L48.6792 14.8182H49.6586V16.6477H49.0371L45.8901 21.6293V21.7088H51.9206V23.0114H44.2793ZM49.1067 25V22.6335L49.1167 22.0668V14.8182H50.5733V25H49.1067ZM57.198 25.169C56.4125 25.1657 55.7413 24.9586 55.1845 24.5476C54.6277 24.1366 54.2018 23.5384 53.9068 22.7528C53.6118 21.9673 53.4643 21.0211 53.4643 19.9141C53.4643 18.8104 53.6118 17.8674 53.9068 17.0852C54.2051 16.303 54.6326 15.7064 55.1895 15.2955C55.7496 14.8845 56.4191 14.679 57.198 14.679C57.9769 14.679 58.6447 14.8861 59.2015 15.3004C59.7583 15.7114 60.1842 16.308 60.4792 17.0902C60.7775 17.8691 60.9267 18.8104 60.9267 19.9141C60.9267 21.0244 60.7792 21.9723 60.4842 22.7578C60.1892 23.54 59.7633 24.1383 59.2065 24.5526C58.6497 24.9635 57.9802 25.169 57.198 25.169ZM57.198 23.8416C57.8874 23.8416 58.426 23.5052 58.8137 22.8324C59.2048 22.1596 59.4004 21.1868 59.4004 19.9141C59.4004 19.0689 59.3109 18.3546 59.1319 17.7713C58.9563 17.1847 58.7027 16.7405 58.3713 16.4389C58.0431 16.134 57.652 15.9815 57.198 15.9815C56.5119 15.9815 55.9733 16.3196 55.5822 16.9957C55.1911 17.6719 54.9939 18.6446 54.9906 19.9141C54.9906 20.7625 55.0784 21.4801 55.2541 22.0668C55.4331 22.6501 55.6866 23.0926 56.0147 23.3942C56.3429 23.6925 56.7373 23.8416 57.198 23.8416ZM66.2351 25.169C65.4496 25.1657 64.7784 24.9586 64.2216 24.5476C63.6648 24.1366 63.2389 23.5384 62.9439 22.7528C62.6489 21.9673 62.5014 21.0211 62.5014 19.9141C62.5014 18.8104 62.6489 17.8674 62.9439 17.0852C63.2422 16.303 63.6697 15.7064 64.2266 15.2955C64.7867 14.8845 65.4562 14.679 66.2351 14.679C67.014 14.679 67.6818 14.8861 68.2386 15.3004C68.7955 15.7114 69.2214 16.308 69.5163 17.0902C69.8146 17.8691 69.9638 18.8104 69.9638 19.9141C69.9638 21.0244 69.8163 21.9723 69.5213 22.7578C69.2263 23.54 68.8004 24.1383 68.2436 24.5526C67.6868 24.9635 67.0173 25.169 66.2351 25.169ZM66.2351 23.8416C66.9245 23.8416 67.4631 23.5052 67.8509 22.8324C68.242 22.1596 68.4375 21.1868 68.4375 19.9141C68.4375 19.0689 68.348 18.3546 68.169 17.7713C67.9934 17.1847 67.7398 16.7405 67.4084 16.4389C67.0803 16.134 66.6892 15.9815 66.2351 15.9815C65.549 15.9815 65.0104 16.3196 64.6193 16.9957C64.2282 17.6719 64.031 18.6446 64.0277 19.9141C64.0277 20.7625 64.1155 21.4801 64.2912 22.0668C64.4702 22.6501 64.7237 23.0926 65.0518 23.3942C65.38 23.6925 65.7744 23.8416 66.2351 23.8416Z" fill="white"/>
</svg>
