<svg width="100" height="60" viewBox="0 0 100 60" fill="none" xmlns="http://www.w3.org/2000/svg">
<rect width="98.6667" height="60" transform="translate(0.666504)" fill="#C5C6CA"/>
<path d="M20.6757 28.0348C20.5796 27.7332 20.4504 27.4631 20.288 27.2244C20.1289 26.9825 19.9383 26.777 19.7162 26.608C19.4942 26.4356 19.2406 26.3047 18.9556 26.2152C18.6738 26.1257 18.3639 26.081 18.0259 26.081C17.4525 26.081 16.9354 26.2285 16.4747 26.5234C16.014 26.8184 15.6495 27.2509 15.381 27.821C15.1158 28.3878 14.9833 29.0821 14.9833 29.9041C14.9833 30.7294 15.1175 31.4271 15.386 31.9972C15.6544 32.5672 16.0223 32.9998 16.4897 33.2947C16.957 33.5897 17.4889 33.7372 18.0855 33.7372C18.639 33.7372 19.1213 33.6245 19.5323 33.3991C19.9466 33.1738 20.2664 32.8556 20.4918 32.4446C20.7205 32.0303 20.8348 31.5431 20.8348 30.983L21.2326 31.0575H18.3192V29.7898H22.3213V30.9482C22.3213 31.8033 22.139 32.5457 21.7745 33.1754C21.4132 33.8018 20.9127 34.2857 20.273 34.6271C19.6367 34.9685 18.9075 35.1392 18.0855 35.1392C17.1641 35.1392 16.3554 34.9271 15.6594 34.5028C14.9667 34.0786 14.4264 33.477 14.0387 32.6982C13.6509 31.916 13.457 30.9879 13.457 29.9141C13.457 29.102 13.5697 28.3729 13.7951 27.7266C14.0204 27.0803 14.337 26.5317 14.7446 26.081C15.1556 25.6269 15.6379 25.2805 16.1914 25.0419C16.7482 24.8 17.3564 24.679 18.0159 24.679C18.5661 24.679 19.0782 24.7602 19.5522 24.9226C20.0294 25.085 20.4537 25.3153 20.8249 25.6136C21.1994 25.9119 21.5093 26.2666 21.7546 26.6776C21.9998 27.0852 22.1656 27.5376 22.2517 28.0348H20.6757ZM24.0621 35V27.3636H25.4989V28.5767H25.5785C25.7177 28.1657 25.9629 27.8426 26.3143 27.6072C26.6689 27.3686 27.0699 27.2493 27.5174 27.2493C27.6102 27.2493 27.7196 27.2526 27.8455 27.2592C27.9748 27.2659 28.0759 27.2741 28.1488 27.2841V28.706C28.0891 28.6894 27.983 28.6712 27.8306 28.6513C27.6781 28.6281 27.5257 28.6165 27.3732 28.6165C27.0219 28.6165 26.7087 28.6911 26.4336 28.8402C26.1618 28.986 25.9464 29.1899 25.7873 29.4517C25.6282 29.7102 25.5486 30.0052 25.5486 30.3366V35H24.0621ZM32.3629 35.1541C31.6106 35.1541 30.9626 34.9934 30.419 34.6719C29.8788 34.3471 29.4612 33.8913 29.1662 33.3047C28.8745 32.7147 28.7287 32.0237 28.7287 31.2315C28.7287 30.4493 28.8745 29.7599 29.1662 29.1634C29.4612 28.5668 29.8722 28.1011 30.3991 27.7663C30.9294 27.4316 31.5492 27.2642 32.2585 27.2642C32.6894 27.2642 33.107 27.3355 33.5114 27.478C33.9157 27.6205 34.2786 27.8442 34.6001 28.1491C34.9216 28.4541 35.1752 28.8501 35.3608 29.3374C35.5464 29.8213 35.6392 30.4096 35.6392 31.1023V31.6293H29.5689V30.5156H34.1825C34.1825 30.1245 34.103 29.7782 33.9439 29.4766C33.7848 29.1716 33.5611 28.9313 33.2727 28.7557C32.9877 28.58 32.6529 28.4922 32.2685 28.4922C31.8509 28.4922 31.4863 28.5949 31.1747 28.8004C30.8665 29.0026 30.6278 29.2678 30.4588 29.5959C30.2931 29.9207 30.2102 30.2737 30.2102 30.6548V31.5249C30.2102 32.0353 30.2997 32.4695 30.4787 32.8274C30.661 33.1854 30.9145 33.4588 31.2393 33.6477C31.5642 33.8333 31.9437 33.9261 32.3778 33.9261C32.6596 33.9261 32.9164 33.8864 33.1484 33.8068C33.3804 33.724 33.581 33.6013 33.75 33.4389C33.919 33.2765 34.0483 33.076 34.1378 32.8374L35.5447 33.0909C35.4321 33.5052 35.2299 33.8681 34.9382 34.1797C34.6499 34.4879 34.2869 34.7282 33.8494 34.9006C33.4152 35.0696 32.9197 35.1541 32.3629 35.1541ZM37.9194 37.8636C37.6973 37.8636 37.4952 37.8454 37.3129 37.8089C37.1306 37.7758 36.9947 37.7393 36.9052 37.6996L37.2632 36.4815C37.5349 36.5545 37.7769 36.5859 37.989 36.576C38.2011 36.5661 38.3884 36.4865 38.5508 36.3374C38.7165 36.1882 38.8624 35.9446 38.9883 35.6065L39.1722 35.0994L36.3782 27.3636H37.9691L39.9031 33.2898H39.9826L41.9166 27.3636H43.5124L40.3654 36.0192C40.2196 36.4169 40.034 36.7533 39.8086 37.0284C39.5832 37.3068 39.3148 37.5156 39.0032 37.6548C38.6917 37.794 38.3304 37.8636 37.9194 37.8636ZM48.3443 35.1392C47.6616 35.1392 47.0517 35.0215 46.5148 34.7862C45.9812 34.5509 45.5586 34.2244 45.247 33.8068C44.9388 33.3859 44.7731 32.8987 44.7499 32.3452H46.3109C46.3308 32.6468 46.4319 32.9086 46.6142 33.1307C46.7998 33.3494 47.0418 33.5185 47.3401 33.6378C47.6384 33.7571 47.9698 33.8168 48.3344 33.8168C48.7354 33.8168 49.0901 33.7472 49.3983 33.608C49.7099 33.4687 49.9535 33.2749 50.1291 33.0263C50.3048 32.7744 50.3926 32.4844 50.3926 32.1562C50.3926 31.8149 50.3048 31.5149 50.1291 31.2564C49.9568 30.9946 49.7032 30.7891 49.3685 30.6399C49.037 30.4908 48.636 30.4162 48.1653 30.4162H47.3053V29.1634H48.1653C48.5432 29.1634 48.8746 29.0954 49.1597 28.9595C49.448 28.8236 49.6734 28.6347 49.8358 28.3928C49.9982 28.1475 50.0794 27.8608 50.0794 27.5327C50.0794 27.2178 50.0081 26.9444 49.8656 26.7124C49.7264 26.477 49.5276 26.2931 49.269 26.1605C49.0138 26.0279 48.7122 25.9616 48.3642 25.9616C48.0328 25.9616 47.7229 26.023 47.4345 26.1456C47.1495 26.2649 46.9175 26.4373 46.7385 26.6626C46.5595 26.8847 46.4634 27.1515 46.4501 27.4631H44.9636C44.9802 26.9129 45.1426 26.429 45.4509 26.0114C45.7624 25.5937 46.1734 25.2673 46.6838 25.032C47.1942 24.7966 47.761 24.679 48.3841 24.679C49.037 24.679 49.6005 24.8066 50.0744 25.0618C50.5517 25.3137 50.9196 25.6501 51.1781 26.071C51.44 26.492 51.5692 26.9527 51.5659 27.4531C51.5692 28.0232 51.4101 28.5071 51.0886 28.9048C50.7705 29.3026 50.3462 29.5694 49.8159 29.7053V29.7848C50.4921 29.8875 51.0157 30.156 51.3869 30.5902C51.7615 31.0244 51.9471 31.563 51.9438 32.206C51.9471 32.7661 51.7913 33.2682 51.4764 33.7124C51.1649 34.1565 50.739 34.5062 50.1987 34.7614C49.6585 35.0133 49.0403 35.1392 48.3443 35.1392ZM57.2778 35.169C56.4922 35.1657 55.8211 34.9586 55.2643 34.5476C54.7074 34.1366 54.2815 33.5384 53.9866 32.7528C53.6916 31.9673 53.5441 31.0211 53.5441 29.9141C53.5441 28.8104 53.6916 27.8674 53.9866 27.0852C54.2849 26.303 54.7124 25.7064 55.2692 25.2955C55.8294 24.8845 56.4989 24.679 57.2778 24.679C58.0566 24.679 58.7245 24.8861 59.2813 25.3004C59.8381 25.7114 60.264 26.308 60.559 27.0902C60.8573 27.8691 61.0065 28.8104 61.0065 29.9141C61.0065 31.0244 60.859 31.9723 60.564 32.7578C60.269 33.54 59.8431 34.1383 59.2863 34.5526C58.7295 34.9635 58.06 35.169 57.2778 35.169ZM57.2778 33.8416C57.9672 33.8416 58.5057 33.5052 58.8935 32.8324C59.2846 32.1596 59.4802 31.1868 59.4802 29.9141C59.4802 29.0689 59.3907 28.3546 59.2117 27.7713C59.036 27.1847 58.7825 26.7405 58.4511 26.4389C58.1229 26.134 57.7318 25.9815 57.2778 25.9815C56.5917 25.9815 56.0531 26.3196 55.662 26.9957C55.2709 27.6719 55.0737 28.6446 55.0704 29.9141C55.0704 30.7625 55.1582 31.4801 55.3339 32.0668C55.5128 32.6501 55.7664 33.0926 56.0945 33.3942C56.4226 33.6925 56.8171 33.8416 57.2778 33.8416ZM66.2249 35.169C65.4394 35.1657 64.7682 34.9586 64.2114 34.5476C63.6546 34.1366 63.2287 33.5384 62.9337 32.7528C62.6387 31.9673 62.4912 31.0211 62.4912 29.9141C62.4912 28.8104 62.6387 27.8674 62.9337 27.0852C63.232 26.303 63.6595 25.7064 64.2163 25.2955C64.7765 24.8845 65.446 24.679 66.2249 24.679C67.0038 24.679 67.6716 24.8861 68.2284 25.3004C68.7852 25.7114 69.2111 26.308 69.5061 27.0902C69.8044 27.8691 69.9536 28.8104 69.9536 29.9141C69.9536 31.0244 69.8061 31.9723 69.5111 32.7578C69.2161 33.54 68.7902 34.1383 68.2334 34.5526C67.6766 34.9635 67.0071 35.169 66.2249 35.169ZM66.2249 33.8416C66.9143 33.8416 67.4529 33.5052 67.8406 32.8324C68.2317 32.1596 68.4273 31.1868 68.4273 29.9141C68.4273 29.0689 68.3378 28.3546 68.1588 27.7713C67.9832 27.1847 67.7296 26.7405 67.3982 26.4389C67.07 26.134 66.6789 25.9815 66.2249 25.9815C65.5388 25.9815 65.0002 26.3196 64.6091 26.9957C64.218 27.6719 64.0208 28.6446 64.0175 29.9141C64.0175 30.7625 64.1053 31.4801 64.281 32.0668C64.46 32.6501 64.7135 33.0926 65.0416 33.3942C65.3698 33.6925 65.7642 33.8416 66.2249 33.8416Z" fill="black"/>
</svg>
