<svg width="99" height="60" viewBox="0 0 99 60" fill="none" xmlns="http://www.w3.org/2000/svg">
<rect width="98.6667" height="60" transform="translate(0.333496)" fill="#ACAEB3"/>
<path d="M20.3427 28.0348C20.2466 27.7332 20.1174 27.4631 19.9549 27.2244C19.7959 26.9825 19.6053 26.777 19.3832 26.608C19.1611 26.4356 18.9076 26.3047 18.6226 26.2152C18.3408 26.1257 18.0309 26.081 17.6929 26.081C17.1195 26.081 16.6024 26.2285 16.1417 26.5234C15.681 26.8184 15.3165 27.2509 15.048 27.821C14.7828 28.3878 14.6503 29.0821 14.6503 29.9041C14.6503 30.7294 14.7845 31.4271 15.053 31.9972C15.3214 32.5672 15.6893 32.9998 16.1566 33.2947C16.624 33.5897 17.1559 33.7372 17.7525 33.7372C18.306 33.7372 18.7883 33.6245 19.1993 33.3991C19.6136 33.1738 19.9334 32.8556 20.1588 32.4446C20.3875 32.0303 20.5018 31.5431 20.5018 30.983L20.8995 31.0575H17.9862V29.7898H21.9883V30.9482C21.9883 31.8033 21.806 32.5457 21.4415 33.1754C21.0802 33.8018 20.5797 34.2857 19.94 34.6271C19.3037 34.9685 18.5745 35.1392 17.7525 35.1392C16.8311 35.1392 16.0224 34.9271 15.3264 34.5028C14.6337 34.0786 14.0934 33.477 13.7057 32.6982C13.3179 31.916 13.124 30.9879 13.124 29.9141C13.124 29.102 13.2367 28.3729 13.462 27.7266C13.6874 27.0803 14.004 26.5317 14.4116 26.081C14.8226 25.6269 15.3049 25.2805 15.8584 25.0419C16.4152 24.8 17.0234 24.679 17.6829 24.679C18.2331 24.679 18.7452 24.7602 19.2191 24.9226C19.6964 25.085 20.1207 25.3153 20.4919 25.6136C20.8664 25.9119 21.1763 26.2666 21.4216 26.6776C21.6668 27.0852 21.8325 27.5376 21.9187 28.0348H20.3427ZM23.7291 35V27.3636H25.1659V28.5767H25.2454C25.3847 28.1657 25.6299 27.8426 25.9812 27.6072C26.3359 27.3686 26.7369 27.2493 27.1844 27.2493C27.2772 27.2493 27.3865 27.2526 27.5125 27.2592C27.6418 27.2659 27.7428 27.2741 27.8158 27.2841V28.706C27.7561 28.6894 27.65 28.6712 27.4976 28.6513C27.3451 28.6281 27.1927 28.6165 27.0402 28.6165C26.6889 28.6165 26.3757 28.6911 26.1006 28.8402C25.8288 28.986 25.6133 29.1899 25.4543 29.4517C25.2952 29.7102 25.2156 30.0052 25.2156 30.3366V35H23.7291ZM32.0299 35.1541C31.2775 35.1541 30.6296 34.9934 30.086 34.6719C29.5458 34.3471 29.1282 33.8913 28.8332 33.3047C28.5415 32.7147 28.3957 32.0237 28.3957 31.2315C28.3957 30.4493 28.5415 29.7599 28.8332 29.1634C29.1282 28.5668 29.5391 28.1011 30.0661 27.7663C30.5964 27.4316 31.2162 27.2642 31.9255 27.2642C32.3564 27.2642 32.774 27.3355 33.1784 27.478C33.5827 27.6205 33.9456 27.8442 34.2671 28.1491C34.5886 28.4541 34.8422 28.8501 35.0278 29.3374C35.2134 29.8213 35.3062 30.4096 35.3062 31.1023V31.6293H29.2359V30.5156H33.8495C33.8495 30.1245 33.77 29.7782 33.6109 29.4766C33.4518 29.1716 33.2281 28.9313 32.9397 28.7557C32.6547 28.58 32.3199 28.4922 31.9355 28.4922C31.5178 28.4922 31.1533 28.5949 30.8417 28.8004C30.5335 29.0026 30.2948 29.2678 30.1258 29.5959C29.9601 29.9207 29.8772 30.2737 29.8772 30.6548V31.5249C29.8772 32.0353 29.9667 32.4695 30.1457 32.8274C30.328 33.1854 30.5815 33.4588 30.9063 33.6477C31.2311 33.8333 31.6106 33.9261 32.0448 33.9261C32.3266 33.9261 32.5834 33.8864 32.8154 33.8068C33.0474 33.724 33.248 33.6013 33.417 33.4389C33.586 33.2765 33.7153 33.076 33.8048 32.8374L35.2117 33.0909C35.099 33.5052 34.8969 33.8681 34.6052 34.1797C34.3168 34.4879 33.9539 34.7282 33.5164 34.9006C33.0822 35.0696 32.5867 35.1541 32.0299 35.1541ZM37.5864 37.8636C37.3643 37.8636 37.1622 37.8454 36.9799 37.8089C36.7976 37.7758 36.6617 37.7393 36.5722 37.6996L36.9302 36.4815C37.2019 36.5545 37.4439 36.5859 37.656 36.576C37.8681 36.5661 38.0554 36.4865 38.2178 36.3374C38.3835 36.1882 38.5293 35.9446 38.6553 35.6065L38.8392 35.0994L36.0452 27.3636H37.6361L39.5701 33.2898H39.6496L41.5836 27.3636H43.1794L40.0324 36.0192C39.8866 36.4169 39.701 36.7533 39.4756 37.0284C39.2502 37.3068 38.9818 37.5156 38.6702 37.6548C38.3587 37.794 37.9974 37.8636 37.5864 37.8636ZM44.2528 33.0114V31.7685L48.6527 24.8182H49.6321V26.6477H49.0106L45.8636 31.6293V31.7088H51.8941V33.0114H44.2528ZM49.0802 35V32.6335L49.0902 32.0668V24.8182H50.5468V35H49.0802ZM57.0815 35.169C56.296 35.1657 55.6248 34.9586 55.068 34.5476C54.5112 34.1366 54.0853 33.5384 53.7903 32.7528C53.4953 31.9673 53.3478 31.0211 53.3478 29.9141C53.3478 28.8104 53.4953 27.8674 53.7903 27.0852C54.0886 26.303 54.5161 25.7064 55.0729 25.2955C55.6331 24.8845 56.3026 24.679 57.0815 24.679C57.8604 24.679 58.5282 24.8861 59.085 25.3004C59.6418 25.7114 60.0677 26.308 60.3627 27.0902C60.661 27.8691 60.8102 28.8104 60.8102 29.9141C60.8102 31.0244 60.6627 31.9723 60.3677 32.7578C60.0727 33.54 59.6468 34.1383 59.09 34.5526C58.5332 34.9635 57.8637 35.169 57.0815 35.169ZM57.0815 33.8416C57.7709 33.8416 58.3095 33.5052 58.6972 32.8324C59.0883 32.1596 59.2839 31.1868 59.2839 29.9141C59.2839 29.0689 59.1944 28.3546 59.0154 27.7713C58.8398 27.1847 58.5862 26.7405 58.2548 26.4389C57.9266 26.134 57.5355 25.9815 57.0815 25.9815C56.3954 25.9815 55.8568 26.3196 55.4657 26.9957C55.0746 27.6719 54.8774 28.6446 54.8741 29.9141C54.8741 30.7625 54.9619 31.4801 55.1376 32.0668C55.3166 32.6501 55.5701 33.0926 55.8982 33.3942C56.2264 33.6925 56.6208 33.8416 57.0815 33.8416ZM66.0286 35.169C65.2431 35.1657 64.5719 34.9586 64.0151 34.5476C63.4583 34.1366 63.0324 33.5384 62.7374 32.7528C62.4424 31.9673 62.2949 31.0211 62.2949 29.9141C62.2949 28.8104 62.4424 27.8674 62.7374 27.0852C63.0357 26.303 63.4632 25.7064 64.0201 25.2955C64.5802 24.8845 65.2497 24.679 66.0286 24.679C66.8075 24.679 67.4753 24.8861 68.0321 25.3004C68.5889 25.7114 69.0148 26.308 69.3098 27.0902C69.6081 27.8691 69.7573 28.8104 69.7573 29.9141C69.7573 31.0244 69.6098 31.9723 69.3148 32.7578C69.0198 33.54 68.5939 34.1383 68.0371 34.5526C67.4803 34.9635 66.8108 35.169 66.0286 35.169ZM66.0286 33.8416C66.718 33.8416 67.2566 33.5052 67.6443 32.8324C68.0354 32.1596 68.231 31.1868 68.231 29.9141C68.231 29.0689 68.1415 28.3546 67.9625 27.7713C67.7869 27.1847 67.5333 26.7405 67.2019 26.4389C66.8738 26.134 66.4827 25.9815 66.0286 25.9815C65.3425 25.9815 64.8039 26.3196 64.4128 26.9957C64.0217 27.6719 63.8245 28.6446 63.8212 29.9141C63.8212 30.7625 63.909 31.4801 64.0847 32.0668C64.2637 32.6501 64.5172 33.0926 64.8453 33.3942C65.1735 33.6925 65.5679 33.8416 66.0286 33.8416Z" fill="black"/>
</svg>
