<svg width="99" height="60" viewBox="0 0 99 60" fill="none" xmlns="http://www.w3.org/2000/svg">
<rect width="98.6667" height="60" fill="#94969E"/>
<path d="M20.0092 28.0348C19.9131 27.7332 19.7839 27.4631 19.6214 27.2244C19.4624 26.9825 19.2718 26.777 19.0497 26.608C18.8277 26.4356 18.5741 26.3047 18.2891 26.2152C18.0073 26.1257 17.6974 26.081 17.3594 26.081C16.786 26.081 16.2689 26.2285 15.8082 26.5234C15.3475 26.8184 14.983 27.2509 14.7145 27.821C14.4493 28.3878 14.3168 29.0821 14.3168 29.9041C14.3168 30.7294 14.451 31.4271 14.7195 31.9972C14.9879 32.5672 15.3558 32.9998 15.8232 33.2947C16.2905 33.5897 16.8224 33.7372 17.419 33.7372C17.9725 33.7372 18.4548 33.6245 18.8658 33.3991C19.2801 33.1738 19.5999 32.8556 19.8253 32.4446C20.054 32.0303 20.1683 31.5431 20.1683 30.983L20.5661 31.0575H17.6527V29.7898H21.6548V30.9482C21.6548 31.8033 21.4725 32.5457 21.108 33.1754C20.7467 33.8018 20.2462 34.2857 19.6065 34.6271C18.9702 34.9685 18.241 35.1392 17.419 35.1392C16.4976 35.1392 15.6889 34.9271 14.9929 34.5028C14.3002 34.0786 13.7599 33.477 13.3722 32.6982C12.9844 31.916 12.7905 30.9879 12.7905 29.9141C12.7905 29.102 12.9032 28.3729 13.1286 27.7266C13.3539 27.0803 13.6705 26.5317 14.0781 26.081C14.4891 25.6269 14.9714 25.2805 15.5249 25.0419C16.0817 24.8 16.6899 24.679 17.3494 24.679C17.8996 24.679 18.4117 24.7602 18.8857 24.9226C19.3629 25.085 19.7872 25.3153 20.1584 25.6136C20.5329 25.9119 20.8428 26.2666 21.0881 26.6776C21.3333 27.0852 21.4991 27.5376 21.5852 28.0348H20.0092ZM23.3956 35V27.3636H24.8324V28.5767H24.912C25.0512 28.1657 25.2964 27.8426 25.6477 27.6072C26.0024 27.3686 26.4034 27.2493 26.8509 27.2493C26.9437 27.2493 27.0531 27.2526 27.179 27.2592C27.3083 27.2659 27.4093 27.2741 27.4823 27.2841V28.706C27.4226 28.6894 27.3165 28.6712 27.1641 28.6513C27.0116 28.6281 26.8592 28.6165 26.7067 28.6165C26.3554 28.6165 26.0422 28.6911 25.7671 28.8402C25.4953 28.986 25.2799 29.1899 25.1208 29.4517C24.9617 29.7102 24.8821 30.0052 24.8821 30.3366V35H23.3956ZM31.6964 35.1541C30.9441 35.1541 30.2961 34.9934 29.7525 34.6719C29.2123 34.3471 28.7947 33.8913 28.4997 33.3047C28.208 32.7147 28.0622 32.0237 28.0622 31.2315C28.0622 30.4493 28.208 29.7599 28.4997 29.1634C28.7947 28.5668 29.2057 28.1011 29.7326 27.7663C30.2629 27.4316 30.8827 27.2642 31.592 27.2642C32.0229 27.2642 32.4405 27.3355 32.8449 27.478C33.2492 27.6205 33.6121 27.8442 33.9336 28.1491C34.2551 28.4541 34.5087 28.8501 34.6943 29.3374C34.8799 29.8213 34.9727 30.4096 34.9727 31.1023V31.6293H28.9024V30.5156H33.516C33.516 30.1245 33.4365 29.7782 33.2774 29.4766C33.1183 29.1716 32.8946 28.9313 32.6062 28.7557C32.3212 28.58 31.9864 28.4922 31.602 28.4922C31.1843 28.4922 30.8198 28.5949 30.5082 28.8004C30.2 29.0026 29.9613 29.2678 29.7923 29.5959C29.6266 29.9207 29.5437 30.2737 29.5437 30.6548V31.5249C29.5437 32.0353 29.6332 32.4695 29.8122 32.8274C29.9945 33.1854 30.248 33.4588 30.5728 33.6477C30.8977 33.8333 31.2771 33.9261 31.7113 33.9261C31.9931 33.9261 32.2499 33.8864 32.4819 33.8068C32.7139 33.724 32.9145 33.6013 33.0835 33.4389C33.2525 33.2765 33.3818 33.076 33.4713 32.8374L34.8782 33.0909C34.7655 33.5052 34.5634 33.8681 34.2717 34.1797C33.9834 34.4879 33.6204 34.7282 33.1829 34.9006C32.7487 35.0696 32.2532 35.1541 31.6964 35.1541ZM37.2529 37.8636C37.0308 37.8636 36.8287 37.8454 36.6464 37.8089C36.4641 37.7758 36.3282 37.7393 36.2387 37.6996L36.5967 36.4815C36.8684 36.5545 37.1104 36.5859 37.3225 36.576C37.5346 36.5661 37.7219 36.4865 37.8843 36.3374C38.05 36.1882 38.1958 35.9446 38.3218 35.6065L38.5057 35.0994L35.7117 27.3636H37.3026L39.2366 33.2898H39.3161L41.2501 27.3636H42.8459L39.6989 36.0192C39.5531 36.4169 39.3675 36.7533 39.1421 37.0284C38.9167 37.3068 38.6483 37.5156 38.3367 37.6548C38.0252 37.794 37.6639 37.8636 37.2529 37.8636ZM47.4939 35.1392C46.8708 35.1392 46.3106 35.0199 45.8135 34.7812C45.3196 34.5393 44.9252 34.2079 44.6302 33.7869C44.3353 33.366 44.1778 32.8854 44.1579 32.3452H45.6494C45.6859 32.7827 45.8798 33.1423 46.2311 33.424C46.5824 33.7057 47.0033 33.8466 47.4939 33.8466C47.885 33.8466 48.2313 33.7571 48.5329 33.5781C48.8379 33.3958 49.0765 33.1456 49.2488 32.8274C49.4245 32.5092 49.5123 32.1463 49.5123 31.7386C49.5123 31.3243 49.4228 30.9548 49.2439 30.63C49.0649 30.3052 48.818 30.05 48.5031 29.8643C48.1916 29.6787 47.8336 29.5843 47.4292 29.581C47.121 29.581 46.8111 29.634 46.4996 29.7401C46.188 29.8461 45.9361 29.9853 45.7439 30.1577L44.3369 29.9489L44.9086 24.8182H50.5067V26.1357H46.1863L45.8632 28.9844H45.9228C46.1217 28.7921 46.3852 28.6314 46.7133 28.5021C47.0448 28.3729 47.3994 28.3082 47.7773 28.3082C48.397 28.3082 48.9489 28.4557 49.4328 28.7507C49.92 29.0457 50.3028 29.4484 50.5812 29.9588C50.863 30.4659 51.0022 31.0492 50.9988 31.7088C51.0022 32.3684 50.853 32.9567 50.5514 33.4737C50.2531 33.9908 49.8388 34.3984 49.3085 34.6967C48.7815 34.9917 48.1766 35.1392 47.4939 35.1392ZM56.2695 35.169C55.4839 35.1657 54.8128 34.9586 54.256 34.5476C53.6991 34.1366 53.2732 33.5384 52.9783 32.7528C52.6833 31.9673 52.5358 31.0211 52.5358 29.9141C52.5358 28.8104 52.6833 27.8674 52.9783 27.0852C53.2766 26.303 53.7041 25.7064 54.2609 25.2955C54.8211 24.8845 55.4906 24.679 56.2695 24.679C57.0483 24.679 57.7162 24.8861 58.273 25.3004C58.8298 25.7114 59.2557 26.308 59.5507 27.0902C59.849 27.8691 59.9982 28.8104 59.9982 29.9141C59.9982 31.0244 59.8507 31.9723 59.5557 32.7578C59.2607 33.54 58.8348 34.1383 58.278 34.5526C57.7212 34.9635 57.0517 35.169 56.2695 35.169ZM56.2695 33.8416C56.9589 33.8416 57.4974 33.5052 57.8852 32.8324C58.2763 32.1596 58.4719 31.1868 58.4719 29.9141C58.4719 29.0689 58.3824 28.3546 58.2034 27.7713C58.0277 27.1847 57.7742 26.7405 57.4428 26.4389C57.1146 26.134 56.7235 25.9815 56.2695 25.9815C55.5834 25.9815 55.0448 26.3196 54.6537 26.9957C54.2626 27.6719 54.0654 28.6446 54.0621 29.9141C54.0621 30.7625 54.1499 31.4801 54.3256 32.0668C54.5045 32.6501 54.7581 33.0926 55.0862 33.3942C55.4143 33.6925 55.8088 33.8416 56.2695 33.8416ZM65.2166 35.169C64.4311 35.1657 63.7599 34.9586 63.2031 34.5476C62.6463 34.1366 62.2204 33.5384 61.9254 32.7528C61.6304 31.9673 61.4829 31.0211 61.4829 29.9141C61.4829 28.8104 61.6304 27.8674 61.9254 27.0852C62.2237 26.303 62.6512 25.7064 63.208 25.2955C63.7682 24.8845 64.4377 24.679 65.2166 24.679C65.9955 24.679 66.6633 24.8861 67.2201 25.3004C67.7769 25.7114 68.2028 26.308 68.4978 27.0902C68.7961 27.8691 68.9453 28.8104 68.9453 29.9141C68.9453 31.0244 68.7978 31.9723 68.5028 32.7578C68.2078 33.54 67.7819 34.1383 67.2251 34.5526C66.6683 34.9635 65.9988 35.169 65.2166 35.169ZM65.2166 33.8416C65.906 33.8416 66.4446 33.5052 66.8323 32.8324C67.2234 32.1596 67.419 31.1868 67.419 29.9141C67.419 29.0689 67.3295 28.3546 67.1505 27.7713C66.9749 27.1847 66.7213 26.7405 66.3899 26.4389C66.0617 26.134 65.6706 25.9815 65.2166 25.9815C64.5305 25.9815 63.9919 26.3196 63.6008 26.9957C63.2097 27.6719 63.0125 28.6446 63.0092 29.9141C63.0092 30.7625 63.097 31.4801 63.2727 32.0668C63.4517 32.6501 63.7052 33.0926 64.0333 33.3942C64.3615 33.6925 64.7559 33.8416 65.2166 33.8416Z" fill="black"/>
</svg>
