<svg width="520" height="40" viewBox="0 0 520 40" fill="none" xmlns="http://www.w3.org/2000/svg">
<rect width="520" height="40" fill="#C8C8CB"/>
<path d="M20.0092 18.0348C19.9131 17.7332 19.7839 17.4631 19.6214 17.2244C19.4624 16.9825 19.2718 16.777 19.0497 16.608C18.8277 16.4356 18.5741 16.3047 18.2891 16.2152C18.0073 16.1257 17.6974 16.081 17.3594 16.081C16.786 16.081 16.2689 16.2285 15.8082 16.5234C15.3475 16.8184 14.983 17.2509 14.7145 17.821C14.4493 18.3878 14.3168 19.0821 14.3168 19.9041C14.3168 20.7294 14.451 21.4271 14.7195 21.9972C14.9879 22.5672 15.3558 22.9998 15.8232 23.2947C16.2905 23.5897 16.8224 23.7372 17.419 23.7372C17.9725 23.7372 18.4548 23.6245 18.8658 23.3991C19.2801 23.1738 19.5999 22.8556 19.8253 22.4446C20.054 22.0303 20.1683 21.5431 20.1683 20.983L20.5661 21.0575H17.6527V19.7898H21.6548V20.9482C21.6548 21.8033 21.4725 22.5457 21.108 23.1754C20.7467 23.8018 20.2462 24.2857 19.6065 24.6271C18.9702 24.9685 18.241 25.1392 17.419 25.1392C16.4976 25.1392 15.6889 24.9271 14.9929 24.5028C14.3002 24.0786 13.7599 23.477 13.3722 22.6982C12.9844 21.916 12.7905 20.9879 12.7905 19.9141C12.7905 19.102 12.9032 18.3729 13.1286 17.7266C13.3539 17.0803 13.6705 16.5317 14.0781 16.081C14.4891 15.6269 14.9714 15.2805 15.5249 15.0419C16.0817 14.8 16.6899 14.679 17.3494 14.679C17.8996 14.679 18.4117 14.7602 18.8857 14.9226C19.3629 15.085 19.7872 15.3153 20.1584 15.6136C20.5329 15.9119 20.8428 16.2666 21.0881 16.6776C21.3333 17.0852 21.4991 17.5376 21.5852 18.0348H20.0092ZM23.4856 25V17.3636H24.9224V18.5767H25.002C25.1412 18.1657 25.3864 17.8426 25.7377 17.6072C26.0924 17.3686 26.4934 17.2493 26.9409 17.2493C27.0337 17.2493 27.1431 17.2526 27.269 17.2592C27.3983 17.2659 27.4993 17.2741 27.5723 17.2841V18.706C27.5126 18.6894 27.4065 18.6712 27.2541 18.6513C27.1016 18.6281 26.9492 18.6165 26.7967 18.6165C26.4454 18.6165 26.1322 18.6911 25.8571 18.8402C25.5853 18.986 25.3699 19.1899 25.2108 19.4517C25.0517 19.7102 24.9721 20.0052 24.9721 20.3366V25H23.4856ZM31.8764 25.1541C31.1241 25.1541 30.4761 24.9934 29.9325 24.6719C29.3923 24.3471 28.9747 23.8913 28.6797 23.3047C28.388 22.7147 28.2422 22.0237 28.2422 21.2315C28.2422 20.4493 28.388 19.7599 28.6797 19.1634C28.9747 18.5668 29.3857 18.1011 29.9126 17.7663C30.4429 17.4316 31.0627 17.2642 31.772 17.2642C32.2029 17.2642 32.6205 17.3355 33.0249 17.478C33.4292 17.6205 33.7921 17.8442 34.1136 18.1491C34.4351 18.4541 34.6887 18.8501 34.8743 19.3374C35.0599 19.8213 35.1527 20.4096 35.1527 21.1023V21.6293H29.0824V20.5156H33.696C33.696 20.1245 33.6165 19.7782 33.4574 19.4766C33.2983 19.1716 33.0746 18.9313 32.7862 18.7557C32.5012 18.58 32.1664 18.4922 31.782 18.4922C31.3643 18.4922 30.9998 18.5949 30.6882 18.8004C30.38 19.0026 30.1413 19.2678 29.9723 19.5959C29.8066 19.9207 29.7237 20.2737 29.7237 20.6548V21.5249C29.7237 22.0353 29.8132 22.4695 29.9922 22.8274C30.1745 23.1854 30.428 23.4588 30.7528 23.6477C31.0777 23.8333 31.4571 23.9261 31.8913 23.9261C32.1731 23.9261 32.4299 23.8864 32.6619 23.8068C32.8939 23.724 33.0945 23.6013 33.2635 23.4389C33.4325 23.2765 33.5618 23.076 33.6513 22.8374L35.0582 23.0909C34.9455 23.5052 34.7434 23.8681 34.4517 24.1797C34.1634 24.4879 33.8004 24.7282 33.3629 24.9006C32.9287 25.0696 32.4332 25.1541 31.8764 25.1541ZM37.5229 27.8636C37.3008 27.8636 37.0987 27.8454 36.9164 27.8089C36.7341 27.7758 36.5982 27.7393 36.5087 27.6996L36.8667 26.4815C37.1384 26.5545 37.3804 26.5859 37.5925 26.576C37.8046 26.5661 37.9919 26.4865 38.1543 26.3374C38.32 26.1882 38.4658 25.9446 38.5918 25.6065L38.7757 25.0994L35.9817 17.3636H37.5726L39.5066 23.2898H39.5861L41.5201 17.3636H43.1159L39.9689 26.0192C39.8231 26.4169 39.6375 26.7533 39.4121 27.0284C39.1867 27.3068 38.9183 27.5156 38.6067 27.6548C38.2952 27.794 37.9339 27.8636 37.5229 27.8636ZM48.0378 25.1392C47.3551 25.1392 46.7452 25.0215 46.2083 24.7862C45.6747 24.5509 45.2521 24.2244 44.9405 23.8068C44.6323 23.3859 44.4666 22.8987 44.4434 22.3452H46.0044C46.0243 22.6468 46.1254 22.9086 46.3077 23.1307C46.4933 23.3494 46.7353 23.5185 47.0336 23.6378C47.3319 23.7571 47.6633 23.8168 48.0279 23.8168C48.4289 23.8168 48.7836 23.7472 49.0918 23.608C49.4033 23.4687 49.647 23.2749 49.8226 23.0263C49.9983 22.7744 50.0861 22.4844 50.0861 22.1562C50.0861 21.8149 49.9983 21.5149 49.8226 21.2564C49.6503 20.9946 49.3967 20.7891 49.062 20.6399C48.7305 20.4908 48.3295 20.4162 47.8588 20.4162H46.9988V19.1634H47.8588C48.2367 19.1634 48.5681 19.0954 48.8532 18.9595C49.1415 18.8236 49.3669 18.6347 49.5293 18.3928C49.6917 18.1475 49.7729 17.8608 49.7729 17.5327C49.7729 17.2178 49.7016 16.9444 49.5591 16.7124C49.4199 16.477 49.2211 16.2931 48.9625 16.1605C48.7073 16.0279 48.4057 15.9616 48.0577 15.9616C47.7263 15.9616 47.4164 16.023 47.128 16.1456C46.843 16.2649 46.611 16.4373 46.432 16.6626C46.253 16.8847 46.1569 17.1515 46.1436 17.4631H44.6571C44.6737 16.9129 44.8361 16.429 45.1444 16.0114C45.4559 15.5937 45.8669 15.2673 46.3773 15.032C46.8877 14.7966 47.4545 14.679 48.0776 14.679C48.7305 14.679 49.294 14.8066 49.7679 15.0618C50.2452 15.3137 50.6131 15.6501 50.8716 16.071C51.1335 16.492 51.2627 16.9527 51.2594 17.4531C51.2627 18.0232 51.1036 18.5071 50.7821 18.9048C50.464 19.3026 50.0397 19.5694 49.5094 19.7053V19.7848C50.1855 19.8875 50.7092 20.156 51.0804 20.5902C51.455 21.0244 51.6406 21.563 51.6373 22.206C51.6406 22.7661 51.4848 23.2682 51.1699 23.7124C50.8584 24.1565 50.4325 24.5062 49.8922 24.7614C49.352 25.0133 48.7338 25.1392 48.0378 25.1392ZM57.0613 25.169C56.2757 25.1657 55.6046 24.9586 55.0478 24.5476C54.4909 24.1366 54.065 23.5384 53.7701 22.7528C53.4751 21.9673 53.3276 21.0211 53.3276 19.9141C53.3276 18.8104 53.4751 17.8674 53.7701 17.0852C54.0684 16.303 54.4959 15.7064 55.0527 15.2955C55.6129 14.8845 56.2824 14.679 57.0613 14.679C57.8401 14.679 58.508 14.8861 59.0648 15.3004C59.6216 15.7114 60.0475 16.308 60.3425 17.0902C60.6408 17.8691 60.79 18.8104 60.79 19.9141C60.79 21.0244 60.6425 21.9723 60.3475 22.7578C60.0525 23.54 59.6266 24.1383 59.0698 24.5526C58.513 24.9635 57.8435 25.169 57.0613 25.169ZM57.0613 23.8416C57.7507 23.8416 58.2892 23.5052 58.677 22.8324C59.0681 22.1596 59.2637 21.1868 59.2637 19.9141C59.2637 19.0689 59.1742 18.3546 58.9952 17.7713C58.8195 17.1847 58.566 16.7405 58.2346 16.4389C57.9064 16.134 57.5153 15.9815 57.0613 15.9815C56.3752 15.9815 55.8366 16.3196 55.4455 16.9957C55.0544 17.6719 54.8572 18.6446 54.8539 19.9141C54.8539 20.7625 54.9417 21.4801 55.1174 22.0668C55.2963 22.6501 55.5499 23.0926 55.878 23.3942C56.2061 23.6925 56.6006 23.8416 57.0613 23.8416ZM66.0984 25.169C65.3129 25.1657 64.6417 24.9586 64.0849 24.5476C63.5281 24.1366 63.1022 23.5384 62.8072 22.7528C62.5122 21.9673 62.3647 21.0211 62.3647 19.9141C62.3647 18.8104 62.5122 17.8674 62.8072 17.0852C63.1055 16.303 63.533 15.7064 64.0898 15.2955C64.65 14.8845 65.3195 14.679 66.0984 14.679C66.8772 14.679 67.5451 14.8861 68.1019 15.3004C68.6587 15.7114 69.0846 16.308 69.3796 17.0902C69.6779 17.8691 69.8271 18.8104 69.8271 19.9141C69.8271 21.0244 69.6796 21.9723 69.3846 22.7578C69.0896 23.54 68.6637 24.1383 68.1069 24.5526C67.5501 24.9635 66.8806 25.169 66.0984 25.169ZM66.0984 23.8416C66.7878 23.8416 67.3263 23.5052 67.7141 22.8324C68.1052 22.1596 68.3008 21.1868 68.3008 19.9141C68.3008 19.0689 68.2113 18.3546 68.0323 17.7713C67.8567 17.1847 67.6031 16.7405 67.2717 16.4389C66.9435 16.134 66.5524 15.9815 66.0984 15.9815C65.4123 15.9815 64.8737 16.3196 64.4826 16.9957C64.0915 17.6719 63.8943 18.6446 63.891 19.9141C63.891 20.7625 63.9788 21.4801 64.1545 22.0668C64.3335 22.6501 64.587 23.0926 64.9151 23.3942C65.2433 23.6925 65.6377 23.8416 66.0984 23.8416Z" fill="#0A0A0B"/>
</svg>
