<svg width="520" height="40" viewBox="0 0 520 40" fill="none" xmlns="http://www.w3.org/2000/svg">
<rect width="520" height="40" fill="#96979E"/>
<path d="M20.0092 18.0348C19.9131 17.7332 19.7839 17.4631 19.6214 17.2244C19.4624 16.9825 19.2718 16.777 19.0497 16.608C18.8277 16.4356 18.5741 16.3047 18.2891 16.2152C18.0073 16.1257 17.6974 16.081 17.3594 16.081C16.786 16.081 16.2689 16.2285 15.8082 16.5234C15.3475 16.8184 14.983 17.2509 14.7145 17.821C14.4493 18.3878 14.3168 19.0821 14.3168 19.9041C14.3168 20.7294 14.451 21.4271 14.7195 21.9972C14.9879 22.5672 15.3558 22.9998 15.8232 23.2947C16.2905 23.5897 16.8224 23.7372 17.419 23.7372C17.9725 23.7372 18.4548 23.6245 18.8658 23.3991C19.2801 23.1738 19.5999 22.8556 19.8253 22.4446C20.054 22.0303 20.1683 21.5431 20.1683 20.983L20.5661 21.0575H17.6527V19.7898H21.6548V20.9482C21.6548 21.8033 21.4725 22.5457 21.108 23.1754C20.7467 23.8018 20.2462 24.2857 19.6065 24.6271C18.9702 24.9685 18.241 25.1392 17.419 25.1392C16.4976 25.1392 15.6889 24.9271 14.9929 24.5028C14.3002 24.0786 13.7599 23.477 13.3722 22.6982C12.9844 21.916 12.7905 20.9879 12.7905 19.9141C12.7905 19.102 12.9032 18.3729 13.1286 17.7266C13.3539 17.0803 13.6705 16.5317 14.0781 16.081C14.4891 15.6269 14.9714 15.2805 15.5249 15.0419C16.0817 14.8 16.6899 14.679 17.3494 14.679C17.8996 14.679 18.4117 14.7602 18.8857 14.9226C19.3629 15.085 19.7872 15.3153 20.1584 15.6136C20.5329 15.9119 20.8428 16.2666 21.0881 16.6776C21.3333 17.0852 21.4991 17.5376 21.5852 18.0348H20.0092ZM23.4856 25V17.3636H24.9224V18.5767H25.002C25.1412 18.1657 25.3864 17.8426 25.7377 17.6072C26.0924 17.3686 26.4934 17.2493 26.9409 17.2493C27.0337 17.2493 27.1431 17.2526 27.269 17.2592C27.3983 17.2659 27.4993 17.2741 27.5723 17.2841V18.706C27.5126 18.6894 27.4065 18.6712 27.2541 18.6513C27.1016 18.6281 26.9492 18.6165 26.7967 18.6165C26.4454 18.6165 26.1322 18.6911 25.8571 18.8402C25.5853 18.986 25.3699 19.1899 25.2108 19.4517C25.0517 19.7102 24.9721 20.0052 24.9721 20.3366V25H23.4856ZM31.8764 25.1541C31.1241 25.1541 30.4761 24.9934 29.9325 24.6719C29.3923 24.3471 28.9747 23.8913 28.6797 23.3047C28.388 22.7147 28.2422 22.0237 28.2422 21.2315C28.2422 20.4493 28.388 19.7599 28.6797 19.1634C28.9747 18.5668 29.3857 18.1011 29.9126 17.7663C30.4429 17.4316 31.0627 17.2642 31.772 17.2642C32.2029 17.2642 32.6205 17.3355 33.0249 17.478C33.4292 17.6205 33.7921 17.8442 34.1136 18.1491C34.4351 18.4541 34.6887 18.8501 34.8743 19.3374C35.0599 19.8213 35.1527 20.4096 35.1527 21.1023V21.6293H29.0824V20.5156H33.696C33.696 20.1245 33.6165 19.7782 33.4574 19.4766C33.2983 19.1716 33.0746 18.9313 32.7862 18.7557C32.5012 18.58 32.1664 18.4922 31.782 18.4922C31.3643 18.4922 30.9998 18.5949 30.6882 18.8004C30.38 19.0026 30.1413 19.2678 29.9723 19.5959C29.8066 19.9207 29.7237 20.2737 29.7237 20.6548V21.5249C29.7237 22.0353 29.8132 22.4695 29.9922 22.8274C30.1745 23.1854 30.428 23.4588 30.7528 23.6477C31.0777 23.8333 31.4571 23.9261 31.8913 23.9261C32.1731 23.9261 32.4299 23.8864 32.6619 23.8068C32.8939 23.724 33.0945 23.6013 33.2635 23.4389C33.4325 23.2765 33.5618 23.076 33.6513 22.8374L35.0582 23.0909C34.9455 23.5052 34.7434 23.8681 34.4517 24.1797C34.1634 24.4879 33.8004 24.7282 33.3629 24.9006C32.9287 25.0696 32.4332 25.1541 31.8764 25.1541ZM37.5229 27.8636C37.3008 27.8636 37.0987 27.8454 36.9164 27.8089C36.7341 27.7758 36.5982 27.7393 36.5087 27.6996L36.8667 26.4815C37.1384 26.5545 37.3804 26.5859 37.5925 26.576C37.8046 26.5661 37.9919 26.4865 38.1543 26.3374C38.32 26.1882 38.4658 25.9446 38.5918 25.6065L38.7757 25.0994L35.9817 17.3636H37.5726L39.5066 23.2898H39.5861L41.5201 17.3636H43.1159L39.9689 26.0192C39.8231 26.4169 39.6375 26.7533 39.4121 27.0284C39.1867 27.3068 38.9183 27.5156 38.6067 27.6548C38.2952 27.794 37.9339 27.8636 37.5229 27.8636ZM47.8539 25.1392C47.2308 25.1392 46.6706 25.0199 46.1735 24.7812C45.6796 24.5393 45.2852 24.2079 44.9902 23.7869C44.6953 23.366 44.5378 22.8854 44.5179 22.3452H46.0094C46.0459 22.7827 46.2398 23.1423 46.5911 23.424C46.9424 23.7057 47.3633 23.8466 47.8539 23.8466C48.245 23.8466 48.5913 23.7571 48.8929 23.5781C49.1979 23.3958 49.4365 23.1456 49.6088 22.8274C49.7845 22.5092 49.8723 22.1463 49.8723 21.7386C49.8723 21.3243 49.7828 20.9548 49.6039 20.63C49.4249 20.3052 49.178 20.05 48.8631 19.8643C48.5516 19.6787 48.1936 19.5843 47.7892 19.581C47.481 19.581 47.1711 19.634 46.8596 19.7401C46.548 19.8461 46.2961 19.9853 46.1039 20.1577L44.6969 19.9489L45.2686 14.8182H50.8667V16.1357H46.5463L46.2232 18.9844H46.2828C46.4817 18.7921 46.7452 18.6314 47.0733 18.5021C47.4048 18.3729 47.7594 18.3082 48.1373 18.3082C48.757 18.3082 49.3089 18.4557 49.7928 18.7507C50.28 19.0457 50.6628 19.4484 50.9412 19.9588C51.223 20.4659 51.3622 21.0492 51.3588 21.7088C51.3622 22.3684 51.213 22.9567 50.9114 23.4737C50.6131 23.9908 50.1988 24.3984 49.6685 24.6967C49.1415 24.9917 48.5366 25.1392 47.8539 25.1392ZM56.7195 25.169C55.9339 25.1657 55.2628 24.9586 54.706 24.5476C54.1491 24.1366 53.7232 23.5384 53.4283 22.7528C53.1333 21.9673 52.9858 21.0211 52.9858 19.9141C52.9858 18.8104 53.1333 17.8674 53.4283 17.0852C53.7266 16.303 54.1541 15.7064 54.7109 15.2955C55.2711 14.8845 55.9406 14.679 56.7195 14.679C57.4983 14.679 58.1662 14.8861 58.723 15.3004C59.2798 15.7114 59.7057 16.308 60.0007 17.0902C60.299 17.8691 60.4482 18.8104 60.4482 19.9141C60.4482 21.0244 60.3007 21.9723 60.0057 22.7578C59.7107 23.54 59.2848 24.1383 58.728 24.5526C58.1712 24.9635 57.5017 25.169 56.7195 25.169ZM56.7195 23.8416C57.4089 23.8416 57.9474 23.5052 58.3352 22.8324C58.7263 22.1596 58.9219 21.1868 58.9219 19.9141C58.9219 19.0689 58.8324 18.3546 58.6534 17.7713C58.4777 17.1847 58.2242 16.7405 57.8928 16.4389C57.5646 16.134 57.1735 15.9815 56.7195 15.9815C56.0334 15.9815 55.4948 16.3196 55.1037 16.9957C54.7126 17.6719 54.5154 18.6446 54.5121 19.9141C54.5121 20.7625 54.5999 21.4801 54.7756 22.0668C54.9545 22.6501 55.2081 23.0926 55.5362 23.3942C55.8643 23.6925 56.2588 23.8416 56.7195 23.8416ZM65.7566 25.169C64.9711 25.1657 64.2999 24.9586 63.7431 24.5476C63.1863 24.1366 62.7604 23.5384 62.4654 22.7528C62.1704 21.9673 62.0229 21.0211 62.0229 19.9141C62.0229 18.8104 62.1704 17.8674 62.4654 17.0852C62.7637 16.303 63.1912 15.7064 63.748 15.2955C64.3082 14.8845 64.9777 14.679 65.7566 14.679C66.5355 14.679 67.2033 14.8861 67.7601 15.3004C68.3169 15.7114 68.7428 16.308 69.0378 17.0902C69.3361 17.8691 69.4853 18.8104 69.4853 19.9141C69.4853 21.0244 69.3378 21.9723 69.0428 22.7578C68.7478 23.54 68.3219 24.1383 67.7651 24.5526C67.2083 24.9635 66.5388 25.169 65.7566 25.169ZM65.7566 23.8416C66.446 23.8416 66.9846 23.5052 67.3723 22.8324C67.7634 22.1596 67.959 21.1868 67.959 19.9141C67.959 19.0689 67.8695 18.3546 67.6905 17.7713C67.5149 17.1847 67.2613 16.7405 66.9299 16.4389C66.6017 16.134 66.2106 15.9815 65.7566 15.9815C65.0705 15.9815 64.5319 16.3196 64.1408 16.9957C63.7497 17.6719 63.5525 18.6446 63.5492 19.9141C63.5492 20.7625 63.637 21.4801 63.8127 22.0668C63.9917 22.6501 64.2452 23.0926 64.5733 23.3942C64.9015 23.6925 65.2959 23.8416 65.7566 23.8416Z" fill="white"/>
</svg>
