<svg width="520" height="40" viewBox="0 0 520 40" fill="none" xmlns="http://www.w3.org/2000/svg">
<rect width="520" height="40" fill="#4F5257"/>
<path d="M20.0092 18.0348C19.9131 17.7332 19.7839 17.4631 19.6214 17.2244C19.4624 16.9825 19.2718 16.777 19.0497 16.608C18.8277 16.4356 18.5741 16.3047 18.2891 16.2152C18.0073 16.1257 17.6974 16.081 17.3594 16.081C16.786 16.081 16.2689 16.2285 15.8082 16.5234C15.3475 16.8184 14.983 17.2509 14.7145 17.821C14.4493 18.3878 14.3168 19.0821 14.3168 19.9041C14.3168 20.7294 14.451 21.4271 14.7195 21.9972C14.9879 22.5672 15.3558 22.9998 15.8232 23.2947C16.2905 23.5897 16.8224 23.7372 17.419 23.7372C17.9725 23.7372 18.4548 23.6245 18.8658 23.3991C19.2801 23.1738 19.5999 22.8556 19.8253 22.4446C20.054 22.0303 20.1683 21.5431 20.1683 20.983L20.5661 21.0575H17.6527V19.7898H21.6548V20.9482C21.6548 21.8033 21.4725 22.5457 21.108 23.1754C20.7467 23.8018 20.2462 24.2857 19.6065 24.6271C18.9702 24.9685 18.241 25.1392 17.419 25.1392C16.4976 25.1392 15.6889 24.9271 14.9929 24.5028C14.3002 24.0786 13.7599 23.477 13.3722 22.6982C12.9844 21.916 12.7905 20.9879 12.7905 19.9141C12.7905 19.102 12.9032 18.3729 13.1286 17.7266C13.3539 17.0803 13.6705 16.5317 14.0781 16.081C14.4891 15.6269 14.9714 15.2805 15.5249 15.0419C16.0817 14.8 16.6899 14.679 17.3494 14.679C17.8996 14.679 18.4117 14.7602 18.8857 14.9226C19.3629 15.085 19.7872 15.3153 20.1584 15.6136C20.5329 15.9119 20.8428 16.2666 21.0881 16.6776C21.3333 17.0852 21.4991 17.5376 21.5852 18.0348H20.0092ZM23.4856 25V17.3636H24.9224V18.5767H25.002C25.1412 18.1657 25.3864 17.8426 25.7377 17.6072C26.0924 17.3686 26.4934 17.2493 26.9409 17.2493C27.0337 17.2493 27.1431 17.2526 27.269 17.2592C27.3983 17.2659 27.4993 17.2741 27.5723 17.2841V18.706C27.5126 18.6894 27.4065 18.6712 27.2541 18.6513C27.1016 18.6281 26.9492 18.6165 26.7967 18.6165C26.4454 18.6165 26.1322 18.6911 25.8571 18.8402C25.5853 18.986 25.3699 19.1899 25.2108 19.4517C25.0517 19.7102 24.9721 20.0052 24.9721 20.3366V25H23.4856ZM31.8764 25.1541C31.1241 25.1541 30.4761 24.9934 29.9325 24.6719C29.3923 24.3471 28.9747 23.8913 28.6797 23.3047C28.388 22.7147 28.2422 22.0237 28.2422 21.2315C28.2422 20.4493 28.388 19.7599 28.6797 19.1634C28.9747 18.5668 29.3857 18.1011 29.9126 17.7663C30.4429 17.4316 31.0627 17.2642 31.772 17.2642C32.2029 17.2642 32.6205 17.3355 33.0249 17.478C33.4292 17.6205 33.7921 17.8442 34.1136 18.1491C34.4351 18.4541 34.6887 18.8501 34.8743 19.3374C35.0599 19.8213 35.1527 20.4096 35.1527 21.1023V21.6293H29.0824V20.5156H33.696C33.696 20.1245 33.6165 19.7782 33.4574 19.4766C33.2983 19.1716 33.0746 18.9313 32.7862 18.7557C32.5012 18.58 32.1664 18.4922 31.782 18.4922C31.3643 18.4922 30.9998 18.5949 30.6882 18.8004C30.38 19.0026 30.1413 19.2678 29.9723 19.5959C29.8066 19.9207 29.7237 20.2737 29.7237 20.6548V21.5249C29.7237 22.0353 29.8132 22.4695 29.9922 22.8274C30.1745 23.1854 30.428 23.4588 30.7528 23.6477C31.0777 23.8333 31.4571 23.9261 31.8913 23.9261C32.1731 23.9261 32.4299 23.8864 32.6619 23.8068C32.8939 23.724 33.0945 23.6013 33.2635 23.4389C33.4325 23.2765 33.5618 23.076 33.6513 22.8374L35.0582 23.0909C34.9455 23.5052 34.7434 23.8681 34.4517 24.1797C34.1634 24.4879 33.8004 24.7282 33.3629 24.9006C32.9287 25.0696 32.4332 25.1541 31.8764 25.1541ZM37.5229 27.8636C37.3008 27.8636 37.0987 27.8454 36.9164 27.8089C36.7341 27.7758 36.5982 27.7393 36.5087 27.6996L36.8667 26.4815C37.1384 26.5545 37.3804 26.5859 37.5925 26.576C37.8046 26.5661 37.9919 26.4865 38.1543 26.3374C38.32 26.1882 38.4658 25.9446 38.5918 25.6065L38.7757 25.0994L35.9817 17.3636H37.5726L39.5066 23.2898H39.5861L41.5201 17.3636H43.1159L39.9689 26.0192C39.8231 26.4169 39.6375 26.7533 39.4121 27.0284C39.1867 27.3068 38.9183 27.5156 38.6067 27.6548C38.2952 27.794 37.9339 27.8636 37.5229 27.8636ZM47.9334 25.1392C47.2208 25.1392 46.5911 25.0166 46.0442 24.7713C45.5007 24.526 45.0748 24.188 44.7665 23.7571C44.4583 23.3262 44.3058 22.8357 44.3091 22.2855C44.3058 21.8546 44.3936 21.4586 44.5726 21.0973C44.7549 20.7327 45.0018 20.4295 45.3134 20.1875C45.6249 19.9422 45.973 19.7865 46.3574 19.7202V19.6605C45.8503 19.5379 45.4443 19.2661 45.1394 18.8452C44.8345 18.4242 44.6837 17.9403 44.687 17.3935C44.6837 16.8731 44.8212 16.4091 45.0996 16.0014C45.3813 15.5904 45.7675 15.2673 46.258 15.032C46.7485 14.7966 47.307 14.679 47.9334 14.679C48.5532 14.679 49.1067 14.7983 49.5939 15.0369C50.0845 15.2723 50.4706 15.5954 50.7523 16.0064C51.034 16.4141 51.1766 16.8764 51.1799 17.3935C51.1766 17.9403 51.0208 18.4242 50.7125 18.8452C50.4043 19.2661 50.0033 19.5379 49.5094 19.6605V19.7202C49.8906 19.7865 50.2336 19.9422 50.5385 20.1875C50.8468 20.4295 51.092 20.7327 51.2743 21.0973C51.4599 21.4586 51.5544 21.8546 51.5577 22.2855C51.5544 22.8357 51.3986 23.3262 51.0904 23.7571C50.7821 24.188 50.3546 24.526 49.8077 24.7713C49.2641 25.0166 48.6394 25.1392 47.9334 25.1392ZM47.9334 23.8814C48.3543 23.8814 48.7189 23.8118 49.0272 23.6726C49.3354 23.5301 49.574 23.3329 49.7431 23.081C49.9121 22.8258 49.9983 22.5275 50.0016 22.1861C49.9983 21.8314 49.9055 21.5182 49.7232 21.2464C49.5442 20.9747 49.3006 20.7609 48.9924 20.6051C48.6841 20.4493 48.3311 20.3714 47.9334 20.3714C47.5324 20.3714 47.1761 20.4493 46.8645 20.6051C46.553 20.7609 46.3077 20.9747 46.1287 21.2464C45.9498 21.5182 45.8619 21.8314 45.8652 22.1861C45.8619 22.5275 45.9431 22.8258 46.1088 23.081C46.2779 23.3329 46.5182 23.5301 46.8297 23.6726C47.1413 23.8118 47.5092 23.8814 47.9334 23.8814ZM47.9334 19.1435C48.2715 19.1435 48.5714 19.0755 48.8333 18.9396C49.0951 18.8037 49.3006 18.6148 49.4498 18.3729C49.6022 18.1309 49.6801 17.8475 49.6834 17.5227C49.6801 17.2045 49.6039 16.9261 49.4547 16.6875C49.3089 16.4489 49.1051 16.2649 48.8432 16.1357C48.5814 16.0031 48.2781 15.9368 47.9334 15.9368C47.5821 15.9368 47.2739 16.0031 47.0087 16.1357C46.7469 16.2649 46.543 16.4489 46.3972 16.6875C46.2514 16.9261 46.1801 17.2045 46.1834 17.5227C46.1801 17.8475 46.253 18.1309 46.4022 18.3729C46.5513 18.6148 46.7568 18.8037 47.0186 18.9396C47.2838 19.0755 47.5887 19.1435 47.9334 19.1435ZM56.8835 25.169C56.098 25.1657 55.4268 24.9586 54.87 24.5476C54.3132 24.1366 53.8873 23.5384 53.5923 22.7528C53.2973 21.9673 53.1499 21.0211 53.1499 19.9141C53.1499 18.8104 53.2973 17.8674 53.5923 17.0852C53.8906 16.303 54.3182 15.7064 54.875 15.2955C55.4351 14.8845 56.1046 14.679 56.8835 14.679C57.6624 14.679 58.3303 14.8861 58.8871 15.3004C59.4439 15.7114 59.8698 16.308 60.1648 17.0902C60.4631 17.8691 60.6122 18.8104 60.6122 19.9141C60.6122 21.0244 60.4647 21.9723 60.1697 22.7578C59.8748 23.54 59.4489 24.1383 58.892 24.5526C58.3352 24.9635 57.6657 25.169 56.8835 25.169ZM56.8835 23.8416C57.5729 23.8416 58.1115 23.5052 58.4993 22.8324C58.8904 22.1596 59.0859 21.1868 59.0859 19.9141C59.0859 19.0689 58.9964 18.3546 58.8175 17.7713C58.6418 17.1847 58.3883 16.7405 58.0568 16.4389C57.7287 16.134 57.3376 15.9815 56.8835 15.9815C56.1974 15.9815 55.6589 16.3196 55.2678 16.9957C54.8767 17.6719 54.6795 18.6446 54.6761 19.9141C54.6761 20.7625 54.764 21.4801 54.9396 22.0668C55.1186 22.6501 55.3722 23.0926 55.7003 23.3942C56.0284 23.6925 56.4228 23.8416 56.8835 23.8416ZM65.9206 25.169C65.1351 25.1657 64.464 24.9586 63.9071 24.5476C63.3503 24.1366 62.9244 23.5384 62.6294 22.7528C62.3345 21.9673 62.187 21.0211 62.187 19.9141C62.187 18.8104 62.3345 17.8674 62.6294 17.0852C62.9277 16.303 63.3553 15.7064 63.9121 15.2955C64.4722 14.8845 65.1417 14.679 65.9206 14.679C66.6995 14.679 67.3674 14.8861 67.9242 15.3004C68.481 15.7114 68.9069 16.308 69.2019 17.0902C69.5002 17.8691 69.6493 18.8104 69.6493 19.9141C69.6493 21.0244 69.5018 21.9723 69.2069 22.7578C68.9119 23.54 68.486 24.1383 67.9292 24.5526C67.3723 24.9635 66.7028 25.169 65.9206 25.169ZM65.9206 23.8416C66.61 23.8416 67.1486 23.5052 67.5364 22.8324C67.9275 22.1596 68.123 21.1868 68.123 19.9141C68.123 19.0689 68.0336 18.3546 67.8546 17.7713C67.6789 17.1847 67.4254 16.7405 67.0939 16.4389C66.7658 16.134 66.3747 15.9815 65.9206 15.9815C65.2346 15.9815 64.696 16.3196 64.3049 16.9957C63.9138 17.6719 63.7166 18.6446 63.7132 19.9141C63.7132 20.7625 63.8011 21.4801 63.9767 22.0668C64.1557 22.6501 64.4093 23.0926 64.7374 23.3942C65.0655 23.6925 65.4599 23.8416 65.9206 23.8416Z" fill="white"/>
</svg>
