<svg width="520" height="40" viewBox="0 0 520 40" fill="none" xmlns="http://www.w3.org/2000/svg">
<rect width="520" height="40" fill="#1D1F24"/>
<path d="M20.0092 18.0348C19.9131 17.7332 19.7839 17.4631 19.6214 17.2244C19.4624 16.9825 19.2718 16.777 19.0497 16.608C18.8277 16.4356 18.5741 16.3047 18.2891 16.2152C18.0073 16.1257 17.6974 16.081 17.3594 16.081C16.786 16.081 16.2689 16.2285 15.8082 16.5234C15.3475 16.8184 14.983 17.2509 14.7145 17.821C14.4493 18.3878 14.3168 19.0821 14.3168 19.9041C14.3168 20.7294 14.451 21.4271 14.7195 21.9972C14.9879 22.5672 15.3558 22.9998 15.8232 23.2947C16.2905 23.5897 16.8224 23.7372 17.419 23.7372C17.9725 23.7372 18.4548 23.6245 18.8658 23.3991C19.2801 23.1738 19.5999 22.8556 19.8253 22.4446C20.054 22.0303 20.1683 21.5431 20.1683 20.983L20.5661 21.0575H17.6527V19.7898H21.6548V20.9482C21.6548 21.8033 21.4725 22.5457 21.108 23.1754C20.7467 23.8018 20.2462 24.2857 19.6065 24.6271C18.9702 24.9685 18.241 25.1392 17.419 25.1392C16.4976 25.1392 15.6889 24.9271 14.9929 24.5028C14.3002 24.0786 13.7599 23.477 13.3722 22.6982C12.9844 21.916 12.7905 20.9879 12.7905 19.9141C12.7905 19.102 12.9032 18.3729 13.1286 17.7266C13.3539 17.0803 13.6705 16.5317 14.0781 16.081C14.4891 15.6269 14.9714 15.2805 15.5249 15.0419C16.0817 14.8 16.6899 14.679 17.3494 14.679C17.8996 14.679 18.4117 14.7602 18.8857 14.9226C19.3629 15.085 19.7872 15.3153 20.1584 15.6136C20.5329 15.9119 20.8428 16.2666 21.0881 16.6776C21.3333 17.0852 21.4991 17.5376 21.5852 18.0348H20.0092ZM23.4856 25V17.3636H24.9224V18.5767H25.002C25.1412 18.1657 25.3864 17.8426 25.7377 17.6072C26.0924 17.3686 26.4934 17.2493 26.9409 17.2493C27.0337 17.2493 27.1431 17.2526 27.269 17.2592C27.3983 17.2659 27.4993 17.2741 27.5723 17.2841V18.706C27.5126 18.6894 27.4065 18.6712 27.2541 18.6513C27.1016 18.6281 26.9492 18.6165 26.7967 18.6165C26.4454 18.6165 26.1322 18.6911 25.8571 18.8402C25.5853 18.986 25.3699 19.1899 25.2108 19.4517C25.0517 19.7102 24.9721 20.0052 24.9721 20.3366V25H23.4856ZM31.8764 25.1541C31.1241 25.1541 30.4761 24.9934 29.9325 24.6719C29.3923 24.3471 28.9747 23.8913 28.6797 23.3047C28.388 22.7147 28.2422 22.0237 28.2422 21.2315C28.2422 20.4493 28.388 19.7599 28.6797 19.1634C28.9747 18.5668 29.3857 18.1011 29.9126 17.7663C30.4429 17.4316 31.0627 17.2642 31.772 17.2642C32.2029 17.2642 32.6205 17.3355 33.0249 17.478C33.4292 17.6205 33.7921 17.8442 34.1136 18.1491C34.4351 18.4541 34.6887 18.8501 34.8743 19.3374C35.0599 19.8213 35.1527 20.4096 35.1527 21.1023V21.6293H29.0824V20.5156H33.696C33.696 20.1245 33.6165 19.7782 33.4574 19.4766C33.2983 19.1716 33.0746 18.9313 32.7862 18.7557C32.5012 18.58 32.1664 18.4922 31.782 18.4922C31.3643 18.4922 30.9998 18.5949 30.6882 18.8004C30.38 19.0026 30.1413 19.2678 29.9723 19.5959C29.8066 19.9207 29.7237 20.2737 29.7237 20.6548V21.5249C29.7237 22.0353 29.8132 22.4695 29.9922 22.8274C30.1745 23.1854 30.428 23.4588 30.7528 23.6477C31.0777 23.8333 31.4571 23.9261 31.8913 23.9261C32.1731 23.9261 32.4299 23.8864 32.6619 23.8068C32.8939 23.724 33.0945 23.6013 33.2635 23.4389C33.4325 23.2765 33.5618 23.076 33.6513 22.8374L35.0582 23.0909C34.9455 23.5052 34.7434 23.8681 34.4517 24.1797C34.1634 24.4879 33.8004 24.7282 33.3629 24.9006C32.9287 25.0696 32.4332 25.1541 31.8764 25.1541ZM37.5229 27.8636C37.3008 27.8636 37.0987 27.8454 36.9164 27.8089C36.7341 27.7758 36.5982 27.7393 36.5087 27.6996L36.8667 26.4815C37.1384 26.5545 37.3804 26.5859 37.5925 26.576C37.8046 26.5661 37.9919 26.4865 38.1543 26.3374C38.32 26.1882 38.4658 25.9446 38.5918 25.6065L38.7757 25.0994L35.9817 17.3636H37.5726L39.5066 23.2898H39.5861L41.5201 17.3636H43.1159L39.9689 26.0192C39.8231 26.4169 39.6375 26.7533 39.4121 27.0284C39.1867 27.3068 38.9183 27.5156 38.6067 27.6548C38.2952 27.794 37.9339 27.8636 37.5229 27.8636ZM48.356 14.8182V25H46.8148V16.3594H46.7551L44.3191 17.9503V16.4787L46.8596 14.8182H48.356ZM54.9732 14.8182V25H53.432V16.3594H53.3723L50.9363 17.9503V16.4787L53.4767 14.8182H54.9732ZM61.2722 25.169C60.4867 25.1657 59.8155 24.9586 59.2587 24.5476C58.7019 24.1366 58.276 23.5384 57.981 22.7528C57.686 21.9673 57.5385 21.0211 57.5385 19.9141C57.5385 18.8104 57.686 17.8674 57.981 17.0852C58.2793 16.303 58.7069 15.7064 59.2637 15.2955C59.8238 14.8845 60.4933 14.679 61.2722 14.679C62.0511 14.679 62.7189 14.8861 63.2757 15.3004C63.8326 15.7114 64.2585 16.308 64.5534 17.0902C64.8517 17.8691 65.0009 18.8104 65.0009 19.9141C65.0009 21.0244 64.8534 21.9723 64.5584 22.7578C64.2634 23.54 63.8375 24.1383 63.2807 24.5526C62.7239 24.9635 62.0544 25.169 61.2722 25.169ZM61.2722 23.8416C61.9616 23.8416 62.5002 23.5052 62.888 22.8324C63.2791 22.1596 63.4746 21.1868 63.4746 19.9141C63.4746 19.0689 63.3851 18.3546 63.2061 17.7713C63.0305 17.1847 62.7769 16.7405 62.4455 16.4389C62.1174 16.134 61.7263 15.9815 61.2722 15.9815C60.5861 15.9815 60.0475 16.3196 59.6564 16.9957C59.2653 17.6719 59.0681 18.6446 59.0648 19.9141C59.0648 20.7625 59.1526 21.4801 59.3283 22.0668C59.5073 22.6501 59.7608 23.0926 60.089 23.3942C60.4171 23.6925 60.8115 23.8416 61.2722 23.8416ZM70.3093 25.169C69.5238 25.1657 68.8526 24.9586 68.2958 24.5476C67.739 24.1366 67.3131 23.5384 67.0181 22.7528C66.7231 21.9673 66.5756 21.0211 66.5756 19.9141C66.5756 18.8104 66.7231 17.8674 67.0181 17.0852C67.3164 16.303 67.744 15.7064 68.3008 15.2955C68.8609 14.8845 69.5304 14.679 70.3093 14.679C71.0882 14.679 71.756 14.8861 72.3129 15.3004C72.8697 15.7114 73.2956 16.308 73.5906 17.0902C73.8888 17.8691 74.038 18.8104 74.038 19.9141C74.038 21.0244 73.8905 21.9723 73.5955 22.7578C73.3005 23.54 72.8746 24.1383 72.3178 24.5526C71.761 24.9635 71.0915 25.169 70.3093 25.169ZM70.3093 23.8416C70.9987 23.8416 71.5373 23.5052 71.9251 22.8324C72.3162 22.1596 72.5117 21.1868 72.5117 19.9141C72.5117 19.0689 72.4222 18.3546 72.2433 17.7713C72.0676 17.1847 71.814 16.7405 71.4826 16.4389C71.1545 16.134 70.7634 15.9815 70.3093 15.9815C69.6232 15.9815 69.0846 16.3196 68.6935 16.9957C68.3024 17.6719 68.1052 18.6446 68.1019 19.9141C68.1019 20.7625 68.1897 21.4801 68.3654 22.0668C68.5444 22.6501 68.7979 23.0926 69.1261 23.3942C69.4542 23.6925 69.8486 23.8416 70.3093 23.8416Z" fill="white"/>
</svg>
