<svg width="99" height="60" viewBox="0 0 99 60" fill="none" xmlns="http://www.w3.org/2000/svg">
<rect width="98.6667" height="60" transform="translate(0.333496)" fill="#5C5E68"/>
<path d="M20.3427 28.0348C20.2466 27.7332 20.1174 27.4631 19.9549 27.2244C19.7959 26.9825 19.6053 26.777 19.3832 26.608C19.1611 26.4356 18.9076 26.3047 18.6226 26.2152C18.3408 26.1257 18.0309 26.081 17.6929 26.081C17.1195 26.081 16.6024 26.2285 16.1417 26.5234C15.681 26.8184 15.3165 27.2509 15.048 27.821C14.7828 28.3878 14.6503 29.0821 14.6503 29.9041C14.6503 30.7294 14.7845 31.4271 15.053 31.9972C15.3214 32.5672 15.6893 32.9998 16.1566 33.2947C16.624 33.5897 17.1559 33.7372 17.7525 33.7372C18.306 33.7372 18.7883 33.6245 19.1993 33.3991C19.6136 33.1738 19.9334 32.8556 20.1588 32.4446C20.3875 32.0303 20.5018 31.5431 20.5018 30.983L20.8995 31.0575H17.9862V29.7898H21.9883V30.9482C21.9883 31.8033 21.806 32.5457 21.4415 33.1754C21.0802 33.8018 20.5797 34.2857 19.94 34.6271C19.3037 34.9685 18.5745 35.1392 17.7525 35.1392C16.8311 35.1392 16.0224 34.9271 15.3264 34.5028C14.6337 34.0786 14.0934 33.477 13.7057 32.6982C13.3179 31.916 13.124 30.9879 13.124 29.9141C13.124 29.102 13.2367 28.3729 13.462 27.7266C13.6874 27.0803 14.004 26.5317 14.4116 26.081C14.8226 25.6269 15.3049 25.2805 15.8584 25.0419C16.4152 24.8 17.0234 24.679 17.6829 24.679C18.2331 24.679 18.7452 24.7602 19.2191 24.9226C19.6964 25.085 20.1207 25.3153 20.4919 25.6136C20.8664 25.9119 21.1763 26.2666 21.4216 26.6776C21.6668 27.0852 21.8325 27.5376 21.9187 28.0348H20.3427ZM23.7291 35V27.3636H25.1659V28.5767H25.2454C25.3847 28.1657 25.6299 27.8426 25.9812 27.6072C26.3359 27.3686 26.7369 27.2493 27.1844 27.2493C27.2772 27.2493 27.3865 27.2526 27.5125 27.2592C27.6418 27.2659 27.7428 27.2741 27.8158 27.2841V28.706C27.7561 28.6894 27.65 28.6712 27.4976 28.6513C27.3451 28.6281 27.1927 28.6165 27.0402 28.6165C26.6889 28.6165 26.3757 28.6911 26.1006 28.8402C25.8288 28.986 25.6133 29.1899 25.4543 29.4517C25.2952 29.7102 25.2156 30.0052 25.2156 30.3366V35H23.7291ZM32.0299 35.1541C31.2775 35.1541 30.6296 34.9934 30.086 34.6719C29.5458 34.3471 29.1282 33.8913 28.8332 33.3047C28.5415 32.7147 28.3957 32.0237 28.3957 31.2315C28.3957 30.4493 28.5415 29.7599 28.8332 29.1634C29.1282 28.5668 29.5391 28.1011 30.0661 27.7663C30.5964 27.4316 31.2162 27.2642 31.9255 27.2642C32.3564 27.2642 32.774 27.3355 33.1784 27.478C33.5827 27.6205 33.9456 27.8442 34.2671 28.1491C34.5886 28.4541 34.8422 28.8501 35.0278 29.3374C35.2134 29.8213 35.3062 30.4096 35.3062 31.1023V31.6293H29.2359V30.5156H33.8495C33.8495 30.1245 33.77 29.7782 33.6109 29.4766C33.4518 29.1716 33.2281 28.9313 32.9397 28.7557C32.6547 28.58 32.3199 28.4922 31.9355 28.4922C31.5178 28.4922 31.1533 28.5949 30.8417 28.8004C30.5335 29.0026 30.2948 29.2678 30.1258 29.5959C29.9601 29.9207 29.8772 30.2737 29.8772 30.6548V31.5249C29.8772 32.0353 29.9667 32.4695 30.1457 32.8274C30.328 33.1854 30.5815 33.4588 30.9063 33.6477C31.2311 33.8333 31.6106 33.9261 32.0448 33.9261C32.3266 33.9261 32.5834 33.8864 32.8154 33.8068C33.0474 33.724 33.248 33.6013 33.417 33.4389C33.586 33.2765 33.7153 33.076 33.8048 32.8374L35.2117 33.0909C35.099 33.5052 34.8969 33.8681 34.6052 34.1797C34.3168 34.4879 33.9539 34.7282 33.5164 34.9006C33.0822 35.0696 32.5867 35.1541 32.0299 35.1541ZM37.5864 37.8636C37.3643 37.8636 37.1622 37.8454 36.9799 37.8089C36.7976 37.7758 36.6617 37.7393 36.5722 37.6996L36.9302 36.4815C37.2019 36.5545 37.4439 36.5859 37.656 36.576C37.8681 36.5661 38.0554 36.4865 38.2178 36.3374C38.3835 36.1882 38.5293 35.9446 38.6553 35.6065L38.8392 35.0994L36.0452 27.3636H37.6361L39.5701 33.2898H39.6496L41.5836 27.3636H43.1794L40.0324 36.0192C39.8866 36.4169 39.701 36.7533 39.4756 37.0284C39.2502 37.3068 38.9818 37.5156 38.6702 37.6548C38.3587 37.794 37.9974 37.8636 37.5864 37.8636ZM44.8096 35L49.2542 26.2102V26.1357H44.1136V24.8182H50.8451V26.1804L46.4154 35H44.8096ZM55.81 35.169C55.0245 35.1657 54.3533 34.9586 53.7965 34.5476C53.2397 34.1366 52.8138 33.5384 52.5188 32.7528C52.2238 31.9673 52.0763 31.0211 52.0763 29.9141C52.0763 28.8104 52.2238 27.8674 52.5188 27.0852C52.8171 26.303 53.2446 25.7064 53.8015 25.2955C54.3616 24.8845 55.0311 24.679 55.81 24.679C56.5889 24.679 57.2567 24.8861 57.8135 25.3004C58.3704 25.7114 58.7963 26.308 59.0912 27.0902C59.3895 27.8691 59.5387 28.8104 59.5387 29.9141C59.5387 31.0244 59.3912 31.9723 59.0962 32.7578C58.8012 33.54 58.3753 34.1383 57.8185 34.5526C57.2617 34.9635 56.5922 35.169 55.81 35.169ZM55.81 33.8416C56.4994 33.8416 57.038 33.5052 57.4258 32.8324C57.8169 32.1596 58.0124 31.1868 58.0124 29.9141C58.0124 29.0689 57.9229 28.3546 57.7439 27.7713C57.5683 27.1847 57.3147 26.7405 56.9833 26.4389C56.6552 26.134 56.2641 25.9815 55.81 25.9815C55.1239 25.9815 54.5853 26.3196 54.1942 26.9957C53.8031 27.6719 53.6059 28.6446 53.6026 29.9141C53.6026 30.7625 53.6904 31.4801 53.8661 32.0668C54.0451 32.6501 54.2986 33.0926 54.6267 33.3942C54.9549 33.6925 55.3493 33.8416 55.81 33.8416ZM64.7571 35.169C63.9716 35.1657 63.3004 34.9586 62.7436 34.5476C62.1868 34.1366 61.7609 33.5384 61.4659 32.7528C61.1709 31.9673 61.0234 31.0211 61.0234 29.9141C61.0234 28.8104 61.1709 27.8674 61.4659 27.0852C61.7642 26.303 62.1918 25.7064 62.7486 25.2955C63.3087 24.8845 63.9782 24.679 64.7571 24.679C65.536 24.679 66.2038 24.8861 66.7606 25.3004C67.3175 25.7114 67.7434 26.308 68.0383 27.0902C68.3366 27.8691 68.4858 28.8104 68.4858 29.9141C68.4858 31.0244 68.3383 31.9723 68.0433 32.7578C67.7483 33.54 67.3224 34.1383 66.7656 34.5526C66.2088 34.9635 65.5393 35.169 64.7571 35.169ZM64.7571 33.8416C65.4465 33.8416 65.9851 33.5052 66.3729 32.8324C66.764 32.1596 66.9595 31.1868 66.9595 29.9141C66.9595 29.0689 66.87 28.3546 66.691 27.7713C66.5154 27.1847 66.2618 26.7405 65.9304 26.4389C65.6023 26.134 65.2112 25.9815 64.7571 25.9815C64.071 25.9815 63.5324 26.3196 63.1413 26.9957C62.7502 27.6719 62.553 28.6446 62.5497 29.9141C62.5497 30.7625 62.6375 31.4801 62.8132 32.0668C62.9922 32.6501 63.2457 33.0926 63.5739 33.3942C63.902 33.6925 64.2964 33.8416 64.7571 33.8416Z" fill="white"/>
</svg>
