<svg width="100" height="60" viewBox="0 0 100 60" fill="none" xmlns="http://www.w3.org/2000/svg">
<rect width="98.6667" height="60" transform="translate(0.666504)" fill="#101116"/>
<path d="M20.6757 28.0348C20.5796 27.7332 20.4504 27.4631 20.288 27.2244C20.1289 26.9825 19.9383 26.777 19.7162 26.608C19.4942 26.4356 19.2406 26.3047 18.9556 26.2152C18.6738 26.1257 18.3639 26.081 18.0259 26.081C17.4525 26.081 16.9354 26.2285 16.4747 26.5234C16.014 26.8184 15.6495 27.2509 15.381 27.821C15.1158 28.3878 14.9833 29.0821 14.9833 29.9041C14.9833 30.7294 15.1175 31.4271 15.386 31.9972C15.6544 32.5672 16.0223 32.9998 16.4897 33.2947C16.957 33.5897 17.4889 33.7372 18.0855 33.7372C18.639 33.7372 19.1213 33.6245 19.5323 33.3991C19.9466 33.1738 20.2664 32.8556 20.4918 32.4446C20.7205 32.0303 20.8348 31.5431 20.8348 30.983L21.2326 31.0575H18.3192V29.7898H22.3213V30.9482C22.3213 31.8033 22.139 32.5457 21.7745 33.1754C21.4132 33.8018 20.9127 34.2857 20.273 34.6271C19.6367 34.9685 18.9075 35.1392 18.0855 35.1392C17.1641 35.1392 16.3554 34.9271 15.6594 34.5028C14.9667 34.0786 14.4264 33.477 14.0387 32.6982C13.6509 31.916 13.457 30.9879 13.457 29.9141C13.457 29.102 13.5697 28.3729 13.7951 27.7266C14.0204 27.0803 14.337 26.5317 14.7446 26.081C15.1556 25.6269 15.6379 25.2805 16.1914 25.0419C16.7482 24.8 17.3564 24.679 18.0159 24.679C18.5661 24.679 19.0782 24.7602 19.5522 24.9226C20.0294 25.085 20.4537 25.3153 20.8249 25.6136C21.1994 25.9119 21.5093 26.2666 21.7546 26.6776C21.9998 27.0852 22.1656 27.5376 22.2517 28.0348H20.6757ZM24.0621 35V27.3636H25.4989V28.5767H25.5785C25.7177 28.1657 25.9629 27.8426 26.3143 27.6072C26.6689 27.3686 27.0699 27.2493 27.5174 27.2493C27.6102 27.2493 27.7196 27.2526 27.8455 27.2592C27.9748 27.2659 28.0759 27.2741 28.1488 27.2841V28.706C28.0891 28.6894 27.983 28.6712 27.8306 28.6513C27.6781 28.6281 27.5257 28.6165 27.3732 28.6165C27.0219 28.6165 26.7087 28.6911 26.4336 28.8402C26.1618 28.986 25.9464 29.1899 25.7873 29.4517C25.6282 29.7102 25.5486 30.0052 25.5486 30.3366V35H24.0621ZM32.3629 35.1541C31.6106 35.1541 30.9626 34.9934 30.419 34.6719C29.8788 34.3471 29.4612 33.8913 29.1662 33.3047C28.8745 32.7147 28.7287 32.0237 28.7287 31.2315C28.7287 30.4493 28.8745 29.7599 29.1662 29.1634C29.4612 28.5668 29.8722 28.1011 30.3991 27.7663C30.9294 27.4316 31.5492 27.2642 32.2585 27.2642C32.6894 27.2642 33.107 27.3355 33.5114 27.478C33.9157 27.6205 34.2786 27.8442 34.6001 28.1491C34.9216 28.4541 35.1752 28.8501 35.3608 29.3374C35.5464 29.8213 35.6392 30.4096 35.6392 31.1023V31.6293H29.5689V30.5156H34.1825C34.1825 30.1245 34.103 29.7782 33.9439 29.4766C33.7848 29.1716 33.5611 28.9313 33.2727 28.7557C32.9877 28.58 32.6529 28.4922 32.2685 28.4922C31.8509 28.4922 31.4863 28.5949 31.1747 28.8004C30.8665 29.0026 30.6278 29.2678 30.4588 29.5959C30.2931 29.9207 30.2102 30.2737 30.2102 30.6548V31.5249C30.2102 32.0353 30.2997 32.4695 30.4787 32.8274C30.661 33.1854 30.9145 33.4588 31.2393 33.6477C31.5642 33.8333 31.9437 33.9261 32.3778 33.9261C32.6596 33.9261 32.9164 33.8864 33.1484 33.8068C33.3804 33.724 33.581 33.6013 33.75 33.4389C33.919 33.2765 34.0483 33.076 34.1378 32.8374L35.5447 33.0909C35.4321 33.5052 35.2299 33.8681 34.9382 34.1797C34.6499 34.4879 34.2869 34.7282 33.8494 34.9006C33.4152 35.0696 32.9197 35.1541 32.3629 35.1541ZM37.9194 37.8636C37.6973 37.8636 37.4952 37.8454 37.3129 37.8089C37.1306 37.7758 36.9947 37.7393 36.9052 37.6996L37.2632 36.4815C37.5349 36.5545 37.7769 36.5859 37.989 36.576C38.2011 36.5661 38.3884 36.4865 38.5508 36.3374C38.7165 36.1882 38.8624 35.9446 38.9883 35.6065L39.1722 35.0994L36.3782 27.3636H37.9691L39.9031 33.2898H39.9826L41.9166 27.3636H43.5124L40.3654 36.0192C40.2196 36.4169 40.034 36.7533 39.8086 37.0284C39.5832 37.3068 39.3148 37.5156 39.0032 37.6548C38.6917 37.794 38.3304 37.8636 37.9194 37.8636ZM48.6625 24.8182V35H47.1213V26.3594H47.0617L44.6256 27.9503V26.4787L47.1661 24.8182H48.6625ZM51.3268 35V33.8864L54.7721 30.3168C55.14 29.929 55.4432 29.5893 55.6819 29.2976C55.9238 29.0026 56.1045 28.7225 56.2238 28.4574C56.3431 28.1922 56.4028 27.9105 56.4028 27.6122C56.4028 27.2741 56.3232 26.9825 56.1641 26.7372C56.005 26.4886 55.7879 26.2981 55.5128 26.1655C55.2378 26.0296 54.9279 25.9616 54.5832 25.9616C54.2186 25.9616 53.9004 26.0362 53.6286 26.1854C53.3568 26.3345 53.148 26.545 53.0022 26.8168C52.8564 27.0885 52.7834 27.4067 52.7834 27.7713H51.3168C51.3168 27.1515 51.4593 26.6096 51.7444 26.1456C52.0294 25.6816 52.4205 25.322 52.9177 25.0668C53.4148 24.8082 53.9799 24.679 54.613 24.679C55.2527 24.679 55.8161 24.8066 56.3033 25.0618C56.7939 25.3137 57.1767 25.6584 57.4518 26.0959C57.7269 26.5301 57.8644 27.0206 57.8644 27.5675C57.8644 27.9453 57.7931 28.3149 57.6506 28.6761C57.5114 29.0374 57.2678 29.4401 56.9198 29.8842C56.5718 30.325 56.0879 30.8603 55.4681 31.4901L53.4447 33.608V33.6825H58.0285V35H51.3268ZM63.3674 35.169C62.5819 35.1657 61.9108 34.9586 61.354 34.5476C60.7971 34.1366 60.3712 33.5384 60.0763 32.7528C59.7813 31.9673 59.6338 31.0211 59.6338 29.9141C59.6338 28.8104 59.7813 27.8674 60.0763 27.0852C60.3745 26.303 60.8021 25.7064 61.3589 25.2955C61.9191 24.8845 62.5886 24.679 63.3674 24.679C64.1463 24.679 64.8142 24.8861 65.371 25.3004C65.9278 25.7114 66.3537 26.308 66.6487 27.0902C66.947 27.8691 67.0961 28.8104 67.0961 29.9141C67.0961 31.0244 66.9487 31.9723 66.6537 32.7578C66.3587 33.54 65.9328 34.1383 65.376 34.5526C64.8192 34.9635 64.1496 35.169 63.3674 35.169ZM63.3674 33.8416C64.0568 33.8416 64.5954 33.5052 64.9832 32.8324C65.3743 32.1596 65.5699 31.1868 65.5699 29.9141C65.5699 29.0689 65.4804 28.3546 65.3014 27.7713C65.1257 27.1847 64.8722 26.7405 64.5407 26.4389C64.2126 26.134 63.8215 25.9815 63.3674 25.9815C62.6814 25.9815 62.1428 26.3196 61.7517 26.9957C61.3606 27.6719 61.1634 28.6446 61.1601 29.9141C61.1601 30.7625 61.2479 31.4801 61.4236 32.0668C61.6025 32.6501 61.8561 33.0926 62.1842 33.3942C62.5123 33.6925 62.9067 33.8416 63.3674 33.8416ZM72.3146 35.169C71.529 35.1657 70.8579 34.9586 70.3011 34.5476C69.7442 34.1366 69.3183 33.5384 69.0234 32.7528C68.7284 31.9673 68.5809 31.0211 68.5809 29.9141C68.5809 28.8104 68.7284 27.8674 69.0234 27.0852C69.3217 26.303 69.7492 25.7064 70.306 25.2955C70.8662 24.8845 71.5357 24.679 72.3146 24.679C73.0934 24.679 73.7613 24.8861 74.3181 25.3004C74.8749 25.7114 75.3008 26.308 75.5958 27.0902C75.8941 27.8691 76.0432 28.8104 76.0432 29.9141C76.0432 31.0244 75.8958 31.9723 75.6008 32.7578C75.3058 33.54 74.8799 34.1383 74.3231 34.5526C73.7663 34.9635 73.0968 35.169 72.3146 35.169ZM72.3146 33.8416C73.004 33.8416 73.5425 33.5052 73.9303 32.8324C74.3214 32.1596 74.517 31.1868 74.517 29.9141C74.517 29.0689 74.4275 28.3546 74.2485 27.7713C74.0728 27.1847 73.8193 26.7405 73.4879 26.4389C73.1597 26.134 72.7686 25.9815 72.3146 25.9815C71.6285 25.9815 71.0899 26.3196 70.6988 26.9957C70.3077 27.6719 70.1105 28.6446 70.1072 29.9141C70.1072 30.7625 70.195 31.4801 70.3707 32.0668C70.5496 32.6501 70.8032 33.0926 71.1313 33.3942C71.4594 33.6925 71.8539 33.8416 72.3146 33.8416Z" fill="white"/>
</svg>
