<svg width="99" height="60" viewBox="0 0 99 60" fill="none" xmlns="http://www.w3.org/2000/svg">
<rect width="98.6667" height="60" fill="#D9DADD"/>
<path d="M20.0092 28.0348C19.9131 27.7332 19.7839 27.4631 19.6214 27.2244C19.4624 26.9825 19.2718 26.777 19.0497 26.608C18.8277 26.4356 18.5741 26.3047 18.2891 26.2152C18.0073 26.1257 17.6974 26.081 17.3594 26.081C16.786 26.081 16.2689 26.2285 15.8082 26.5234C15.3475 26.8184 14.983 27.2509 14.7145 27.821C14.4493 28.3878 14.3168 29.0821 14.3168 29.9041C14.3168 30.7294 14.451 31.4271 14.7195 31.9972C14.9879 32.5672 15.3558 32.9998 15.8232 33.2947C16.2905 33.5897 16.8224 33.7372 17.419 33.7372C17.9725 33.7372 18.4548 33.6245 18.8658 33.3991C19.2801 33.1738 19.5999 32.8556 19.8253 32.4446C20.054 32.0303 20.1683 31.5431 20.1683 30.983L20.5661 31.0575H17.6527V29.7898H21.6548V30.9482C21.6548 31.8033 21.4725 32.5457 21.108 33.1754C20.7467 33.8018 20.2462 34.2857 19.6065 34.6271C18.9702 34.9685 18.241 35.1392 17.419 35.1392C16.4976 35.1392 15.6889 34.9271 14.9929 34.5028C14.3002 34.0786 13.7599 33.477 13.3722 32.6982C12.9844 31.916 12.7905 30.9879 12.7905 29.9141C12.7905 29.102 12.9032 28.3729 13.1286 27.7266C13.3539 27.0803 13.6705 26.5317 14.0781 26.081C14.4891 25.6269 14.9714 25.2805 15.5249 25.0419C16.0817 24.8 16.6899 24.679 17.3494 24.679C17.8996 24.679 18.4117 24.7602 18.8857 24.9226C19.3629 25.085 19.7872 25.3153 20.1584 25.6136C20.5329 25.9119 20.8428 26.2666 21.0881 26.6776C21.3333 27.0852 21.4991 27.5376 21.5852 28.0348H20.0092ZM23.3956 35V27.3636H24.8324V28.5767H24.912C25.0512 28.1657 25.2964 27.8426 25.6477 27.6072C26.0024 27.3686 26.4034 27.2493 26.8509 27.2493C26.9437 27.2493 27.0531 27.2526 27.179 27.2592C27.3083 27.2659 27.4093 27.2741 27.4823 27.2841V28.706C27.4226 28.6894 27.3165 28.6712 27.1641 28.6513C27.0116 28.6281 26.8592 28.6165 26.7067 28.6165C26.3554 28.6165 26.0422 28.6911 25.7671 28.8402C25.4953 28.986 25.2799 29.1899 25.1208 29.4517C24.9617 29.7102 24.8821 30.0052 24.8821 30.3366V35H23.3956ZM31.6964 35.1541C30.9441 35.1541 30.2961 34.9934 29.7525 34.6719C29.2123 34.3471 28.7947 33.8913 28.4997 33.3047C28.208 32.7147 28.0622 32.0237 28.0622 31.2315C28.0622 30.4493 28.208 29.7599 28.4997 29.1634C28.7947 28.5668 29.2057 28.1011 29.7326 27.7663C30.2629 27.4316 30.8827 27.2642 31.592 27.2642C32.0229 27.2642 32.4405 27.3355 32.8449 27.478C33.2492 27.6205 33.6121 27.8442 33.9336 28.1491C34.2551 28.4541 34.5087 28.8501 34.6943 29.3374C34.8799 29.8213 34.9727 30.4096 34.9727 31.1023V31.6293H28.9024V30.5156H33.516C33.516 30.1245 33.4365 29.7782 33.2774 29.4766C33.1183 29.1716 32.8946 28.9313 32.6062 28.7557C32.3212 28.58 31.9864 28.4922 31.602 28.4922C31.1843 28.4922 30.8198 28.5949 30.5082 28.8004C30.2 29.0026 29.9613 29.2678 29.7923 29.5959C29.6266 29.9207 29.5437 30.2737 29.5437 30.6548V31.5249C29.5437 32.0353 29.6332 32.4695 29.8122 32.8274C29.9945 33.1854 30.248 33.4588 30.5728 33.6477C30.8977 33.8333 31.2771 33.9261 31.7113 33.9261C31.9931 33.9261 32.2499 33.8864 32.4819 33.8068C32.7139 33.724 32.9145 33.6013 33.0835 33.4389C33.2525 33.2765 33.3818 33.076 33.4713 32.8374L34.8782 33.0909C34.7655 33.5052 34.5634 33.8681 34.2717 34.1797C33.9834 34.4879 33.6204 34.7282 33.1829 34.9006C32.7487 35.0696 32.2532 35.1541 31.6964 35.1541ZM37.2529 37.8636C37.0308 37.8636 36.8287 37.8454 36.6464 37.8089C36.4641 37.7758 36.3282 37.7393 36.2387 37.6996L36.5967 36.4815C36.8684 36.5545 37.1104 36.5859 37.3225 36.576C37.5346 36.5661 37.7219 36.4865 37.8843 36.3374C38.05 36.1882 38.1958 35.9446 38.3218 35.6065L38.5057 35.0994L35.7117 27.3636H37.3026L39.2366 33.2898H39.3161L41.2501 27.3636H42.8459L39.6989 36.0192C39.5531 36.4169 39.3675 36.7533 39.1421 37.0284C38.9167 37.3068 38.6483 37.5156 38.3367 37.6548C38.0252 37.794 37.6639 37.8636 37.2529 37.8636ZM44.1331 35V33.8864L47.5784 30.3168C47.9463 29.929 48.2496 29.5893 48.4882 29.2976C48.7301 29.0026 48.9108 28.7225 49.0301 28.4574C49.1494 28.1922 49.2091 27.9105 49.2091 27.6122C49.2091 27.2741 49.1295 26.9825 48.9704 26.7372C48.8113 26.4886 48.5942 26.2981 48.3192 26.1655C48.0441 26.0296 47.7342 25.9616 47.3895 25.9616C47.0249 25.9616 46.7067 26.0362 46.4349 26.1854C46.1631 26.3345 45.9543 26.545 45.8085 26.8168C45.6627 27.0885 45.5898 27.4067 45.5898 27.7713H44.1231C44.1231 27.1515 44.2657 26.6096 44.5507 26.1456C44.8357 25.6816 45.2268 25.322 45.724 25.0668C46.2211 24.8082 46.7862 24.679 47.4193 24.679C48.059 24.679 48.6224 24.8066 49.1096 25.0618C49.6002 25.3137 49.983 25.6584 50.2581 26.0959C50.5332 26.5301 50.6707 27.0206 50.6707 27.5675C50.6707 27.9453 50.5995 28.3149 50.4569 28.6761C50.3177 29.0374 50.0741 29.4401 49.7261 29.8842C49.3781 30.325 48.8942 30.8603 48.2744 31.4901L46.251 33.608V33.6825H50.8348V35H44.1331ZM56.1738 35.169C55.3882 35.1657 54.7171 34.9586 54.1603 34.5476C53.6034 34.1366 53.1775 33.5384 52.8826 32.7528C52.5876 31.9673 52.4401 31.0211 52.4401 29.9141C52.4401 28.8104 52.5876 27.8674 52.8826 27.0852C53.1809 26.303 53.6084 25.7064 54.1652 25.2955C54.7254 24.8845 55.3949 24.679 56.1738 24.679C56.9526 24.679 57.6205 24.8861 58.1773 25.3004C58.7341 25.7114 59.16 26.308 59.455 27.0902C59.7533 27.8691 59.9024 28.8104 59.9024 29.9141C59.9024 31.0244 59.755 31.9723 59.46 32.7578C59.165 33.54 58.7391 34.1383 58.1823 34.5526C57.6255 34.9635 56.956 35.169 56.1738 35.169ZM56.1738 33.8416C56.8632 33.8416 57.4017 33.5052 57.7895 32.8324C58.1806 32.1596 58.3762 31.1868 58.3762 29.9141C58.3762 29.0689 58.2867 28.3546 58.1077 27.7713C57.932 27.1847 57.6785 26.7405 57.3471 26.4389C57.0189 26.134 56.6278 25.9815 56.1738 25.9815C55.4877 25.9815 54.9491 26.3196 54.558 26.9957C54.1669 27.6719 53.9697 28.6446 53.9664 29.9141C53.9664 30.7625 54.0542 31.4801 54.2299 32.0668C54.4088 32.6501 54.6624 33.0926 54.9905 33.3942C55.3186 33.6925 55.7131 33.8416 56.1738 33.8416ZM65.1209 35.169C64.3354 35.1657 63.6642 34.9586 63.1074 34.5476C62.5506 34.1366 62.1247 33.5384 61.8297 32.7528C61.5347 31.9673 61.3872 31.0211 61.3872 29.9141C61.3872 28.8104 61.5347 27.8674 61.8297 27.0852C62.128 26.303 62.5555 25.7064 63.1123 25.2955C63.6725 24.8845 64.342 24.679 65.1209 24.679C65.8997 24.679 66.5676 24.8861 67.1244 25.3004C67.6812 25.7114 68.1071 26.308 68.4021 27.0902C68.7004 27.8691 68.8496 28.8104 68.8496 29.9141C68.8496 31.0244 68.7021 31.9723 68.4071 32.7578C68.1121 33.54 67.6862 34.1383 67.1294 34.5526C66.5726 34.9635 65.9031 35.169 65.1209 35.169ZM65.1209 33.8416C65.8103 33.8416 66.3488 33.5052 66.7366 32.8324C67.1277 32.1596 67.3233 31.1868 67.3233 29.9141C67.3233 29.0689 67.2338 28.3546 67.0548 27.7713C66.8792 27.1847 66.6256 26.7405 66.2942 26.4389C65.966 26.134 65.5749 25.9815 65.1209 25.9815C64.4348 25.9815 63.8962 26.3196 63.5051 26.9957C63.114 27.6719 62.9168 28.6446 62.9135 29.9141C62.9135 30.7625 63.0013 31.4801 63.177 32.0668C63.356 32.6501 63.6095 33.0926 63.9376 33.3942C64.2658 33.6925 64.6602 33.8416 65.1209 33.8416Z" fill="black"/>
</svg>
