<svg width="520" height="40" viewBox="0 0 520 40" fill="none" xmlns="http://www.w3.org/2000/svg">
<rect width="520" height="40" fill="#E4E4E7"/>
<path d="M20.0092 18.0348C19.9131 17.7332 19.7839 17.4631 19.6214 17.2244C19.4624 16.9825 19.2718 16.777 19.0497 16.608C18.8277 16.4356 18.5741 16.3047 18.2891 16.2152C18.0073 16.1257 17.6974 16.081 17.3594 16.081C16.786 16.081 16.2689 16.2285 15.8082 16.5234C15.3475 16.8184 14.983 17.2509 14.7145 17.821C14.4493 18.3878 14.3168 19.0821 14.3168 19.9041C14.3168 20.7294 14.451 21.4271 14.7195 21.9972C14.9879 22.5672 15.3558 22.9998 15.8232 23.2947C16.2905 23.5897 16.8224 23.7372 17.419 23.7372C17.9725 23.7372 18.4548 23.6245 18.8658 23.3991C19.2801 23.1738 19.5999 22.8556 19.8253 22.4446C20.054 22.0303 20.1683 21.5431 20.1683 20.983L20.5661 21.0575H17.6527V19.7898H21.6548V20.9482C21.6548 21.8033 21.4725 22.5457 21.108 23.1754C20.7467 23.8018 20.2462 24.2857 19.6065 24.6271C18.9702 24.9685 18.241 25.1392 17.419 25.1392C16.4976 25.1392 15.6889 24.9271 14.9929 24.5028C14.3002 24.0786 13.7599 23.477 13.3722 22.6982C12.9844 21.916 12.7905 20.9879 12.7905 19.9141C12.7905 19.102 12.9032 18.3729 13.1286 17.7266C13.3539 17.0803 13.6705 16.5317 14.0781 16.081C14.4891 15.6269 14.9714 15.2805 15.5249 15.0419C16.0817 14.8 16.6899 14.679 17.3494 14.679C17.8996 14.679 18.4117 14.7602 18.8857 14.9226C19.3629 15.085 19.7872 15.3153 20.1584 15.6136C20.5329 15.9119 20.8428 16.2666 21.0881 16.6776C21.3333 17.0852 21.4991 17.5376 21.5852 18.0348H20.0092ZM23.4856 25V17.3636H24.9224V18.5767H25.002C25.1412 18.1657 25.3864 17.8426 25.7377 17.6072C26.0924 17.3686 26.4934 17.2493 26.9409 17.2493C27.0337 17.2493 27.1431 17.2526 27.269 17.2592C27.3983 17.2659 27.4993 17.2741 27.5723 17.2841V18.706C27.5126 18.6894 27.4065 18.6712 27.2541 18.6513C27.1016 18.6281 26.9492 18.6165 26.7967 18.6165C26.4454 18.6165 26.1322 18.6911 25.8571 18.8402C25.5853 18.986 25.3699 19.1899 25.2108 19.4517C25.0517 19.7102 24.9721 20.0052 24.9721 20.3366V25H23.4856ZM31.8764 25.1541C31.1241 25.1541 30.4761 24.9934 29.9325 24.6719C29.3923 24.3471 28.9747 23.8913 28.6797 23.3047C28.388 22.7147 28.2422 22.0237 28.2422 21.2315C28.2422 20.4493 28.388 19.7599 28.6797 19.1634C28.9747 18.5668 29.3857 18.1011 29.9126 17.7663C30.4429 17.4316 31.0627 17.2642 31.772 17.2642C32.2029 17.2642 32.6205 17.3355 33.0249 17.478C33.4292 17.6205 33.7921 17.8442 34.1136 18.1491C34.4351 18.4541 34.6887 18.8501 34.8743 19.3374C35.0599 19.8213 35.1527 20.4096 35.1527 21.1023V21.6293H29.0824V20.5156H33.696C33.696 20.1245 33.6165 19.7782 33.4574 19.4766C33.2983 19.1716 33.0746 18.9313 32.7862 18.7557C32.5012 18.58 32.1664 18.4922 31.782 18.4922C31.3643 18.4922 30.9998 18.5949 30.6882 18.8004C30.38 19.0026 30.1413 19.2678 29.9723 19.5959C29.8066 19.9207 29.7237 20.2737 29.7237 20.6548V21.5249C29.7237 22.0353 29.8132 22.4695 29.9922 22.8274C30.1745 23.1854 30.428 23.4588 30.7528 23.6477C31.0777 23.8333 31.4571 23.9261 31.8913 23.9261C32.1731 23.9261 32.4299 23.8864 32.6619 23.8068C32.8939 23.724 33.0945 23.6013 33.2635 23.4389C33.4325 23.2765 33.5618 23.076 33.6513 22.8374L35.0582 23.0909C34.9455 23.5052 34.7434 23.8681 34.4517 24.1797C34.1634 24.4879 33.8004 24.7282 33.3629 24.9006C32.9287 25.0696 32.4332 25.1541 31.8764 25.1541ZM37.5229 27.8636C37.3008 27.8636 37.0987 27.8454 36.9164 27.8089C36.7341 27.7758 36.5982 27.7393 36.5087 27.6996L36.8667 26.4815C37.1384 26.5545 37.3804 26.5859 37.5925 26.576C37.8046 26.5661 37.9919 26.4865 38.1543 26.3374C38.32 26.1882 38.4658 25.9446 38.5918 25.6065L38.7757 25.0994L35.9817 17.3636H37.5726L39.5066 23.2898H39.5861L41.5201 17.3636H43.1159L39.9689 26.0192C39.8231 26.4169 39.6375 26.7533 39.4121 27.0284C39.1867 27.3068 38.9183 27.5156 38.6067 27.6548C38.2952 27.794 37.9339 27.8636 37.5229 27.8636ZM44.4931 25V23.8864L47.9384 20.3168C48.3063 19.929 48.6096 19.5893 48.8482 19.2976C49.0901 19.0026 49.2708 18.7225 49.3901 18.4574C49.5094 18.1922 49.5691 17.9105 49.5691 17.6122C49.5691 17.2741 49.4895 16.9825 49.3304 16.7372C49.1713 16.4886 48.9542 16.2981 48.6792 16.1655C48.4041 16.0296 48.0942 15.9616 47.7495 15.9616C47.3849 15.9616 47.0667 16.0362 46.7949 16.1854C46.5231 16.3345 46.3143 16.545 46.1685 16.8168C46.0227 17.0885 45.9498 17.4067 45.9498 17.7713H44.4831C44.4831 17.1515 44.6257 16.6096 44.9107 16.1456C45.1957 15.6816 45.5868 15.322 46.084 15.0668C46.5811 14.8082 47.1462 14.679 47.7793 14.679C48.419 14.679 48.9824 14.8066 49.4696 15.0618C49.9602 15.3137 50.343 15.6584 50.6181 16.0959C50.8932 16.5301 51.0307 17.0206 51.0307 17.5675C51.0307 17.9453 50.9595 18.3149 50.8169 18.6761C50.6777 19.0374 50.4341 19.4401 50.0861 19.8842C49.7381 20.325 49.2542 20.8603 48.6344 21.4901L46.611 23.608V23.6825H51.1948V25H44.4931ZM56.6238 25.169C55.8382 25.1657 55.1671 24.9586 54.6103 24.5476C54.0534 24.1366 53.6275 23.5384 53.3326 22.7528C53.0376 21.9673 52.8901 21.0211 52.8901 19.9141C52.8901 18.8104 53.0376 17.8674 53.3326 17.0852C53.6309 16.303 54.0584 15.7064 54.6152 15.2955C55.1754 14.8845 55.8449 14.679 56.6238 14.679C57.4026 14.679 58.0705 14.8861 58.6273 15.3004C59.1841 15.7114 59.61 16.308 59.905 17.0902C60.2033 17.8691 60.3525 18.8104 60.3525 19.9141C60.3525 21.0244 60.205 21.9723 59.91 22.7578C59.615 23.54 59.1891 24.1383 58.6323 24.5526C58.0755 24.9635 57.406 25.169 56.6238 25.169ZM56.6238 23.8416C57.3132 23.8416 57.8517 23.5052 58.2395 22.8324C58.6306 22.1596 58.8262 21.1868 58.8262 19.9141C58.8262 19.0689 58.7367 18.3546 58.5577 17.7713C58.382 17.1847 58.1285 16.7405 57.7971 16.4389C57.4689 16.134 57.0778 15.9815 56.6238 15.9815C55.9377 15.9815 55.3991 16.3196 55.008 16.9957C54.6169 17.6719 54.4197 18.6446 54.4164 19.9141C54.4164 20.7625 54.5042 21.4801 54.6799 22.0668C54.8588 22.6501 55.1124 23.0926 55.4405 23.3942C55.7686 23.6925 56.1631 23.8416 56.6238 23.8416ZM65.6609 25.169C64.8754 25.1657 64.2042 24.9586 63.6474 24.5476C63.0906 24.1366 62.6647 23.5384 62.3697 22.7528C62.0747 21.9673 61.9272 21.0211 61.9272 19.9141C61.9272 18.8104 62.0747 17.8674 62.3697 17.0852C62.668 16.303 63.0955 15.7064 63.6523 15.2955C64.2125 14.8845 64.882 14.679 65.6609 14.679C66.4397 14.679 67.1076 14.8861 67.6644 15.3004C68.2212 15.7114 68.6471 16.308 68.9421 17.0902C69.2404 17.8691 69.3896 18.8104 69.3896 19.9141C69.3896 21.0244 69.2421 21.9723 68.9471 22.7578C68.6521 23.54 68.2262 24.1383 67.6694 24.5526C67.1126 24.9635 66.4431 25.169 65.6609 25.169ZM65.6609 23.8416C66.3503 23.8416 66.8888 23.5052 67.2766 22.8324C67.6677 22.1596 67.8633 21.1868 67.8633 19.9141C67.8633 19.0689 67.7738 18.3546 67.5948 17.7713C67.4192 17.1847 67.1656 16.7405 66.8342 16.4389C66.506 16.134 66.1149 15.9815 65.6609 15.9815C64.9748 15.9815 64.4362 16.3196 64.0451 16.9957C63.654 17.6719 63.4568 18.6446 63.4535 19.9141C63.4535 20.7625 63.5413 21.4801 63.717 22.0668C63.896 22.6501 64.1495 23.0926 64.4776 23.3942C64.8058 23.6925 65.2002 23.8416 65.6609 23.8416Z" fill="#0A0A0B"/>
</svg>
