<svg width="99" height="60" viewBox="0 0 99 60" fill="none" xmlns="http://www.w3.org/2000/svg">
<rect width="98.6667" height="60" fill="#1E1F26"/>
<path d="M20.0092 28.0348C19.9131 27.7332 19.7839 27.4631 19.6214 27.2244C19.4624 26.9825 19.2718 26.777 19.0497 26.608C18.8277 26.4356 18.5741 26.3047 18.2891 26.2152C18.0073 26.1257 17.6974 26.081 17.3594 26.081C16.786 26.081 16.2689 26.2285 15.8082 26.5234C15.3475 26.8184 14.983 27.2509 14.7145 27.821C14.4493 28.3878 14.3168 29.0821 14.3168 29.9041C14.3168 30.7294 14.451 31.4271 14.7195 31.9972C14.9879 32.5672 15.3558 32.9998 15.8232 33.2947C16.2905 33.5897 16.8224 33.7372 17.419 33.7372C17.9725 33.7372 18.4548 33.6245 18.8658 33.3991C19.2801 33.1738 19.5999 32.8556 19.8253 32.4446C20.054 32.0303 20.1683 31.5431 20.1683 30.983L20.5661 31.0575H17.6527V29.7898H21.6548V30.9482C21.6548 31.8033 21.4725 32.5457 21.108 33.1754C20.7467 33.8018 20.2462 34.2857 19.6065 34.6271C18.9702 34.9685 18.241 35.1392 17.419 35.1392C16.4976 35.1392 15.6889 34.9271 14.9929 34.5028C14.3002 34.0786 13.7599 33.477 13.3722 32.6982C12.9844 31.916 12.7905 30.9879 12.7905 29.9141C12.7905 29.102 12.9032 28.3729 13.1286 27.7266C13.3539 27.0803 13.6705 26.5317 14.0781 26.081C14.4891 25.6269 14.9714 25.2805 15.5249 25.0419C16.0817 24.8 16.6899 24.679 17.3494 24.679C17.8996 24.679 18.4117 24.7602 18.8857 24.9226C19.3629 25.085 19.7872 25.3153 20.1584 25.6136C20.5329 25.9119 20.8428 26.2666 21.0881 26.6776C21.3333 27.0852 21.4991 27.5376 21.5852 28.0348H20.0092ZM23.3956 35V27.3636H24.8324V28.5767H24.912C25.0512 28.1657 25.2964 27.8426 25.6477 27.6072C26.0024 27.3686 26.4034 27.2493 26.8509 27.2493C26.9437 27.2493 27.0531 27.2526 27.179 27.2592C27.3083 27.2659 27.4093 27.2741 27.4823 27.2841V28.706C27.4226 28.6894 27.3165 28.6712 27.1641 28.6513C27.0116 28.6281 26.8592 28.6165 26.7067 28.6165C26.3554 28.6165 26.0422 28.6911 25.7671 28.8402C25.4953 28.986 25.2799 29.1899 25.1208 29.4517C24.9617 29.7102 24.8821 30.0052 24.8821 30.3366V35H23.3956ZM31.6964 35.1541C30.9441 35.1541 30.2961 34.9934 29.7525 34.6719C29.2123 34.3471 28.7947 33.8913 28.4997 33.3047C28.208 32.7147 28.0622 32.0237 28.0622 31.2315C28.0622 30.4493 28.208 29.7599 28.4997 29.1634C28.7947 28.5668 29.2057 28.1011 29.7326 27.7663C30.2629 27.4316 30.8827 27.2642 31.592 27.2642C32.0229 27.2642 32.4405 27.3355 32.8449 27.478C33.2492 27.6205 33.6121 27.8442 33.9336 28.1491C34.2551 28.4541 34.5087 28.8501 34.6943 29.3374C34.8799 29.8213 34.9727 30.4096 34.9727 31.1023V31.6293H28.9024V30.5156H33.516C33.516 30.1245 33.4365 29.7782 33.2774 29.4766C33.1183 29.1716 32.8946 28.9313 32.6062 28.7557C32.3212 28.58 31.9864 28.4922 31.602 28.4922C31.1843 28.4922 30.8198 28.5949 30.5082 28.8004C30.2 29.0026 29.9613 29.2678 29.7923 29.5959C29.6266 29.9207 29.5437 30.2737 29.5437 30.6548V31.5249C29.5437 32.0353 29.6332 32.4695 29.8122 32.8274C29.9945 33.1854 30.248 33.4588 30.5728 33.6477C30.8977 33.8333 31.2771 33.9261 31.7113 33.9261C31.9931 33.9261 32.2499 33.8864 32.4819 33.8068C32.7139 33.724 32.9145 33.6013 33.0835 33.4389C33.2525 33.2765 33.3818 33.076 33.4713 32.8374L34.8782 33.0909C34.7655 33.5052 34.5634 33.8681 34.2717 34.1797C33.9834 34.4879 33.6204 34.7282 33.1829 34.9006C32.7487 35.0696 32.2532 35.1541 31.6964 35.1541ZM37.2529 37.8636C37.0308 37.8636 36.8287 37.8454 36.6464 37.8089C36.4641 37.7758 36.3282 37.7393 36.2387 37.6996L36.5967 36.4815C36.8684 36.5545 37.1104 36.5859 37.3225 36.576C37.5346 36.5661 37.7219 36.4865 37.8843 36.3374C38.05 36.1882 38.1958 35.9446 38.3218 35.6065L38.5057 35.0994L35.7117 27.3636H37.3026L39.2366 33.2898H39.3161L41.2501 27.3636H42.8459L39.6989 36.0192C39.5531 36.4169 39.3675 36.7533 39.1421 37.0284C38.9167 37.3068 38.6483 37.5156 38.3367 37.6548C38.0252 37.794 37.6639 37.8636 37.2529 37.8636ZM47.996 24.8182V35H46.4548V26.3594H46.3951L43.9591 27.9503V26.4787L46.4996 24.8182H47.996ZM54.5232 24.8182V35H52.982V26.3594H52.9223L50.4863 27.9503V26.4787L53.0267 24.8182H54.5232ZM60.7322 35.169C59.9467 35.1657 59.2755 34.9586 58.7187 34.5476C58.1619 34.1366 57.736 33.5384 57.441 32.7528C57.146 31.9673 56.9985 31.0211 56.9985 29.9141C56.9985 28.8104 57.146 27.8674 57.441 27.0852C57.7393 26.303 58.1669 25.7064 58.7237 25.2955C59.2838 24.8845 59.9533 24.679 60.7322 24.679C61.5111 24.679 62.1789 24.8861 62.7357 25.3004C63.2926 25.7114 63.7185 26.308 64.0134 27.0902C64.3117 27.8691 64.4609 28.8104 64.4609 29.9141C64.4609 31.0244 64.3134 31.9723 64.0184 32.7578C63.7234 33.54 63.2975 34.1383 62.7407 34.5526C62.1839 34.9635 61.5144 35.169 60.7322 35.169ZM60.7322 33.8416C61.4216 33.8416 61.9602 33.5052 62.348 32.8324C62.7391 32.1596 62.9346 31.1868 62.9346 29.9141C62.9346 29.0689 62.8451 28.3546 62.6661 27.7713C62.4905 27.1847 62.2369 26.7405 61.9055 26.4389C61.5774 26.134 61.1863 25.9815 60.7322 25.9815C60.0461 25.9815 59.5075 26.3196 59.1164 26.9957C58.7253 27.6719 58.5281 28.6446 58.5248 29.9141C58.5248 30.7625 58.6126 31.4801 58.7883 32.0668C58.9673 32.6501 59.2208 33.0926 59.549 33.3942C59.8771 33.6925 60.2715 33.8416 60.7322 33.8416ZM69.6793 35.169C68.8938 35.1657 68.2226 34.9586 67.6658 34.5476C67.109 34.1366 66.6831 33.5384 66.3881 32.7528C66.0931 31.9673 65.9456 31.0211 65.9456 29.9141C65.9456 28.8104 66.0931 27.8674 66.3881 27.0852C66.6864 26.303 67.114 25.7064 67.6708 25.2955C68.2309 24.8845 68.9004 24.679 69.6793 24.679C70.4582 24.679 71.126 24.8861 71.6829 25.3004C72.2397 25.7114 72.6656 26.308 72.9606 27.0902C73.2588 27.8691 73.408 28.8104 73.408 29.9141C73.408 31.0244 73.2605 31.9723 72.9655 32.7578C72.6705 33.54 72.2446 34.1383 71.6878 34.5526C71.131 34.9635 70.4615 35.169 69.6793 35.169ZM69.6793 33.8416C70.3687 33.8416 70.9073 33.5052 71.2951 32.8324C71.6862 32.1596 71.8817 31.1868 71.8817 29.9141C71.8817 29.0689 71.7922 28.3546 71.6133 27.7713C71.4376 27.1847 71.184 26.7405 70.8526 26.4389C70.5245 26.134 70.1334 25.9815 69.6793 25.9815C68.9932 25.9815 68.4546 26.3196 68.0635 26.9957C67.6724 27.6719 67.4752 28.6446 67.4719 29.9141C67.4719 30.7625 67.5597 31.4801 67.7354 32.0668C67.9144 32.6501 68.1679 33.0926 68.4961 33.3942C68.8242 33.6925 69.2186 33.8416 69.6793 33.8416Z" fill="white"/>
</svg>
