<svg width="99" height="60" viewBox="0 0 99 60" fill="none" xmlns="http://www.w3.org/2000/svg">
<rect width="98.6667" height="60" transform="translate(0.333496)" fill="#EAEBED"/>
<path d="M20.3427 28.0348C20.2466 27.7332 20.1174 27.4631 19.9549 27.2244C19.7959 26.9825 19.6053 26.777 19.3832 26.608C19.1611 26.4356 18.9076 26.3047 18.6226 26.2152C18.3408 26.1257 18.0309 26.081 17.6929 26.081C17.1195 26.081 16.6024 26.2285 16.1417 26.5234C15.681 26.8184 15.3165 27.2509 15.048 27.821C14.7828 28.3878 14.6503 29.0821 14.6503 29.9041C14.6503 30.7294 14.7845 31.4271 15.053 31.9972C15.3214 32.5672 15.6893 32.9998 16.1566 33.2947C16.624 33.5897 17.1559 33.7372 17.7525 33.7372C18.306 33.7372 18.7883 33.6245 19.1993 33.3991C19.6136 33.1738 19.9334 32.8556 20.1588 32.4446C20.3875 32.0303 20.5018 31.5431 20.5018 30.983L20.8995 31.0575H17.9862V29.7898H21.9883V30.9482C21.9883 31.8033 21.806 32.5457 21.4415 33.1754C21.0802 33.8018 20.5797 34.2857 19.94 34.6271C19.3037 34.9685 18.5745 35.1392 17.7525 35.1392C16.8311 35.1392 16.0224 34.9271 15.3264 34.5028C14.6337 34.0786 14.0934 33.477 13.7057 32.6982C13.3179 31.916 13.124 30.9879 13.124 29.9141C13.124 29.102 13.2367 28.3729 13.462 27.7266C13.6874 27.0803 14.004 26.5317 14.4116 26.081C14.8226 25.6269 15.3049 25.2805 15.8584 25.0419C16.4152 24.8 17.0234 24.679 17.6829 24.679C18.2331 24.679 18.7452 24.7602 19.2191 24.9226C19.6964 25.085 20.1207 25.3153 20.4919 25.6136C20.8664 25.9119 21.1763 26.2666 21.4216 26.6776C21.6668 27.0852 21.8325 27.5376 21.9187 28.0348H20.3427ZM23.7291 35V27.3636H25.1659V28.5767H25.2454C25.3847 28.1657 25.6299 27.8426 25.9812 27.6072C26.3359 27.3686 26.7369 27.2493 27.1844 27.2493C27.2772 27.2493 27.3865 27.2526 27.5125 27.2592C27.6418 27.2659 27.7428 27.2741 27.8158 27.2841V28.706C27.7561 28.6894 27.65 28.6712 27.4976 28.6513C27.3451 28.6281 27.1927 28.6165 27.0402 28.6165C26.6889 28.6165 26.3757 28.6911 26.1006 28.8402C25.8288 28.986 25.6133 29.1899 25.4543 29.4517C25.2952 29.7102 25.2156 30.0052 25.2156 30.3366V35H23.7291ZM32.0299 35.1541C31.2775 35.1541 30.6296 34.9934 30.086 34.6719C29.5458 34.3471 29.1282 33.8913 28.8332 33.3047C28.5415 32.7147 28.3957 32.0237 28.3957 31.2315C28.3957 30.4493 28.5415 29.7599 28.8332 29.1634C29.1282 28.5668 29.5391 28.1011 30.0661 27.7663C30.5964 27.4316 31.2162 27.2642 31.9255 27.2642C32.3564 27.2642 32.774 27.3355 33.1784 27.478C33.5827 27.6205 33.9456 27.8442 34.2671 28.1491C34.5886 28.4541 34.8422 28.8501 35.0278 29.3374C35.2134 29.8213 35.3062 30.4096 35.3062 31.1023V31.6293H29.2359V30.5156H33.8495C33.8495 30.1245 33.77 29.7782 33.6109 29.4766C33.4518 29.1716 33.2281 28.9313 32.9397 28.7557C32.6547 28.58 32.3199 28.4922 31.9355 28.4922C31.5178 28.4922 31.1533 28.5949 30.8417 28.8004C30.5335 29.0026 30.2948 29.2678 30.1258 29.5959C29.9601 29.9207 29.8772 30.2737 29.8772 30.6548V31.5249C29.8772 32.0353 29.9667 32.4695 30.1457 32.8274C30.328 33.1854 30.5815 33.4588 30.9063 33.6477C31.2311 33.8333 31.6106 33.9261 32.0448 33.9261C32.3266 33.9261 32.5834 33.8864 32.8154 33.8068C33.0474 33.724 33.248 33.6013 33.417 33.4389C33.586 33.2765 33.7153 33.076 33.8048 32.8374L35.2117 33.0909C35.099 33.5052 34.8969 33.8681 34.6052 34.1797C34.3168 34.4879 33.9539 34.7282 33.5164 34.9006C33.0822 35.0696 32.5867 35.1541 32.0299 35.1541ZM37.5864 37.8636C37.3643 37.8636 37.1622 37.8454 36.9799 37.8089C36.7976 37.7758 36.6617 37.7393 36.5722 37.6996L36.9302 36.4815C37.2019 36.5545 37.4439 36.5859 37.656 36.576C37.8681 36.5661 38.0554 36.4865 38.2178 36.3374C38.3835 36.1882 38.5293 35.9446 38.6553 35.6065L38.8392 35.0994L36.0452 27.3636H37.6361L39.5701 33.2898H39.6496L41.5836 27.3636H43.1794L40.0324 36.0192C39.8866 36.4169 39.701 36.7533 39.4756 37.0284C39.2502 37.3068 38.9818 37.5156 38.6702 37.6548C38.3587 37.794 37.9974 37.8636 37.5864 37.8636ZM48.3295 24.8182V35H46.7883V26.3594H46.7286L44.2926 27.9503V26.4787L46.833 24.8182H48.3295ZM54.5385 35.169C53.753 35.1657 53.0818 34.9586 52.525 34.5476C51.9682 34.1366 51.5423 33.5384 51.2473 32.7528C50.9523 31.9673 50.8048 31.0211 50.8048 29.9141C50.8048 28.8104 50.9523 27.8674 51.2473 27.0852C51.5456 26.303 51.9732 25.7064 52.53 25.2955C53.0901 24.8845 53.7596 24.679 54.5385 24.679C55.3174 24.679 55.9852 24.8861 56.5421 25.3004C57.0989 25.7114 57.5248 26.308 57.8198 27.0902C58.118 27.8691 58.2672 28.8104 58.2672 29.9141C58.2672 31.0244 58.1197 31.9723 57.8247 32.7578C57.5297 33.54 57.1038 34.1383 56.547 34.5526C55.9902 34.9635 55.3207 35.169 54.5385 35.169ZM54.5385 33.8416C55.2279 33.8416 55.7665 33.5052 56.1543 32.8324C56.5454 32.1596 56.7409 31.1868 56.7409 29.9141C56.7409 29.0689 56.6514 28.3546 56.4725 27.7713C56.2968 27.1847 56.0432 26.7405 55.7118 26.4389C55.3837 26.134 54.9926 25.9815 54.5385 25.9815C53.8524 25.9815 53.3138 26.3196 52.9227 26.9957C52.5316 27.6719 52.3344 28.6446 52.3311 29.9141C52.3311 30.7625 52.4189 31.4801 52.5946 32.0668C52.7736 32.6501 53.0271 33.0926 53.3553 33.3942C53.6834 33.6925 54.0778 33.8416 54.5385 33.8416ZM63.4856 35.169C62.7001 35.1657 62.0289 34.9586 61.4721 34.5476C60.9153 34.1366 60.4894 33.5384 60.1944 32.7528C59.8994 31.9673 59.7519 31.0211 59.7519 29.9141C59.7519 28.8104 59.8994 27.8674 60.1944 27.0852C60.4927 26.303 60.9203 25.7064 61.4771 25.2955C62.0372 24.8845 62.7067 24.679 63.4856 24.679C64.2645 24.679 64.9323 24.8861 65.4892 25.3004C66.046 25.7114 66.4719 26.308 66.7669 27.0902C67.0652 27.8691 67.2143 28.8104 67.2143 29.9141C67.2143 31.0244 67.0668 31.9723 66.7718 32.7578C66.4769 33.54 66.051 34.1383 65.4941 34.5526C64.9373 34.9635 64.2678 35.169 63.4856 35.169ZM63.4856 33.8416C64.175 33.8416 64.7136 33.5052 65.1014 32.8324C65.4925 32.1596 65.688 31.1868 65.688 29.9141C65.688 29.0689 65.5985 28.3546 65.4196 27.7713C65.2439 27.1847 64.9903 26.7405 64.6589 26.4389C64.3308 26.134 63.9397 25.9815 63.4856 25.9815C62.7995 25.9815 62.2609 26.3196 61.8698 26.9957C61.4787 27.6719 61.2815 28.6446 61.2782 29.9141C61.2782 30.7625 61.3661 31.4801 61.5417 32.0668C61.7207 32.6501 61.9742 33.0926 62.3024 33.3942C62.6305 33.6925 63.0249 33.8416 63.4856 33.8416Z" fill="black"/>
</svg>
