<svg width="100" height="60" viewBox="0 0 100 60" fill="none" xmlns="http://www.w3.org/2000/svg">
<rect width="98.6667" height="60" transform="translate(0.666504)" fill="#6A6D77"/>
<path d="M20.6757 28.0348C20.5796 27.7332 20.4504 27.4631 20.288 27.2244C20.1289 26.9825 19.9383 26.777 19.7162 26.608C19.4942 26.4356 19.2406 26.3047 18.9556 26.2152C18.6738 26.1257 18.3639 26.081 18.0259 26.081C17.4525 26.081 16.9354 26.2285 16.4747 26.5234C16.014 26.8184 15.6495 27.2509 15.381 27.821C15.1158 28.3878 14.9833 29.0821 14.9833 29.9041C14.9833 30.7294 15.1175 31.4271 15.386 31.9972C15.6544 32.5672 16.0223 32.9998 16.4897 33.2947C16.957 33.5897 17.4889 33.7372 18.0855 33.7372C18.639 33.7372 19.1213 33.6245 19.5323 33.3991C19.9466 33.1738 20.2664 32.8556 20.4918 32.4446C20.7205 32.0303 20.8348 31.5431 20.8348 30.983L21.2326 31.0575H18.3192V29.7898H22.3213V30.9482C22.3213 31.8033 22.139 32.5457 21.7745 33.1754C21.4132 33.8018 20.9127 34.2857 20.273 34.6271C19.6367 34.9685 18.9075 35.1392 18.0855 35.1392C17.1641 35.1392 16.3554 34.9271 15.6594 34.5028C14.9667 34.0786 14.4264 33.477 14.0387 32.6982C13.6509 31.916 13.457 30.9879 13.457 29.9141C13.457 29.102 13.5697 28.3729 13.7951 27.7266C14.0204 27.0803 14.337 26.5317 14.7446 26.081C15.1556 25.6269 15.6379 25.2805 16.1914 25.0419C16.7482 24.8 17.3564 24.679 18.0159 24.679C18.5661 24.679 19.0782 24.7602 19.5522 24.9226C20.0294 25.085 20.4537 25.3153 20.8249 25.6136C21.1994 25.9119 21.5093 26.2666 21.7546 26.6776C21.9998 27.0852 22.1656 27.5376 22.2517 28.0348H20.6757ZM24.0621 35V27.3636H25.4989V28.5767H25.5785C25.7177 28.1657 25.9629 27.8426 26.3143 27.6072C26.6689 27.3686 27.0699 27.2493 27.5174 27.2493C27.6102 27.2493 27.7196 27.2526 27.8455 27.2592C27.9748 27.2659 28.0759 27.2741 28.1488 27.2841V28.706C28.0891 28.6894 27.983 28.6712 27.8306 28.6513C27.6781 28.6281 27.5257 28.6165 27.3732 28.6165C27.0219 28.6165 26.7087 28.6911 26.4336 28.8402C26.1618 28.986 25.9464 29.1899 25.7873 29.4517C25.6282 29.7102 25.5486 30.0052 25.5486 30.3366V35H24.0621ZM32.3629 35.1541C31.6106 35.1541 30.9626 34.9934 30.419 34.6719C29.8788 34.3471 29.4612 33.8913 29.1662 33.3047C28.8745 32.7147 28.7287 32.0237 28.7287 31.2315C28.7287 30.4493 28.8745 29.7599 29.1662 29.1634C29.4612 28.5668 29.8722 28.1011 30.3991 27.7663C30.9294 27.4316 31.5492 27.2642 32.2585 27.2642C32.6894 27.2642 33.107 27.3355 33.5114 27.478C33.9157 27.6205 34.2786 27.8442 34.6001 28.1491C34.9216 28.4541 35.1752 28.8501 35.3608 29.3374C35.5464 29.8213 35.6392 30.4096 35.6392 31.1023V31.6293H29.5689V30.5156H34.1825C34.1825 30.1245 34.103 29.7782 33.9439 29.4766C33.7848 29.1716 33.5611 28.9313 33.2727 28.7557C32.9877 28.58 32.6529 28.4922 32.2685 28.4922C31.8509 28.4922 31.4863 28.5949 31.1747 28.8004C30.8665 29.0026 30.6278 29.2678 30.4588 29.5959C30.2931 29.9207 30.2102 30.2737 30.2102 30.6548V31.5249C30.2102 32.0353 30.2997 32.4695 30.4787 32.8274C30.661 33.1854 30.9145 33.4588 31.2393 33.6477C31.5642 33.8333 31.9437 33.9261 32.3778 33.9261C32.6596 33.9261 32.9164 33.8864 33.1484 33.8068C33.3804 33.724 33.581 33.6013 33.75 33.4389C33.919 33.2765 34.0483 33.076 34.1378 32.8374L35.5447 33.0909C35.4321 33.5052 35.2299 33.8681 34.9382 34.1797C34.6499 34.4879 34.2869 34.7282 33.8494 34.9006C33.4152 35.0696 32.9197 35.1541 32.3629 35.1541ZM37.9194 37.8636C37.6973 37.8636 37.4952 37.8454 37.3129 37.8089C37.1306 37.7758 36.9947 37.7393 36.9052 37.6996L37.2632 36.4815C37.5349 36.5545 37.7769 36.5859 37.989 36.576C38.2011 36.5661 38.3884 36.4865 38.5508 36.3374C38.7165 36.1882 38.8624 35.9446 38.9883 35.6065L39.1722 35.0994L36.3782 27.3636H37.9691L39.9031 33.2898H39.9826L41.9166 27.3636H43.5124L40.3654 36.0192C40.2196 36.4169 40.034 36.7533 39.8086 37.0284C39.5832 37.3068 39.3148 37.5156 39.0032 37.6548C38.6917 37.794 38.3304 37.8636 37.9194 37.8636ZM48.3543 35.1392C47.9002 35.1326 47.4528 35.0497 47.0119 34.8906C46.5744 34.7315 46.1767 34.4664 45.8188 34.0952C45.4608 33.724 45.1741 33.2251 44.9587 32.5987C44.7465 31.9723 44.6405 31.1901 44.6405 30.2521C44.6405 29.3639 44.7283 28.575 44.904 27.8857C45.083 27.1963 45.3398 26.6146 45.6746 26.1406C46.0093 25.6634 46.4137 25.3004 46.8876 25.0518C47.3616 24.8033 47.8936 24.679 48.4835 24.679C49.0901 24.679 49.6287 24.7983 50.0993 25.0369C50.5699 25.2756 50.9511 25.6054 51.2428 26.0263C51.5377 26.4472 51.725 26.9261 51.8046 27.4631H50.2882C50.1855 27.0388 49.9816 26.6925 49.6767 26.424C49.3718 26.1555 48.9741 26.0213 48.4835 26.0213C47.7378 26.0213 47.1561 26.3461 46.7385 26.9957C46.3242 27.6454 46.1154 28.5485 46.1121 29.7053H46.1867C46.3623 29.4169 46.5778 29.1716 46.833 28.9695C47.0915 28.764 47.3798 28.6065 47.698 28.4972C48.0195 28.3845 48.3576 28.3281 48.7122 28.3281C49.3022 28.3281 49.8358 28.4723 50.3131 28.7607C50.7937 29.0457 51.1765 29.4401 51.4615 29.9439C51.7465 30.4477 51.8891 31.0244 51.8891 31.674C51.8891 32.3236 51.7416 32.9119 51.4466 33.4389C51.1549 33.9659 50.7439 34.3835 50.2136 34.6918C49.6833 34.9967 49.0635 35.1458 48.3543 35.1392ZM48.3493 33.8466C48.7404 33.8466 49.0901 33.7505 49.3983 33.5582C49.7065 33.366 49.9501 33.1075 50.1291 32.7827C50.3081 32.4579 50.3976 32.0949 50.3976 31.6939C50.3976 31.3028 50.3098 30.9465 50.1341 30.625C49.9617 30.3035 49.7231 30.0483 49.4182 29.8594C49.1166 29.6705 48.7719 29.576 48.3841 29.576C48.0891 29.576 47.8157 29.6323 47.5638 29.745C47.3152 29.8577 47.0965 30.0135 46.9075 30.2124C46.7186 30.4112 46.5695 30.6399 46.4601 30.8984C46.354 31.1536 46.301 31.4238 46.301 31.7088C46.301 32.09 46.3888 32.4429 46.5645 32.7678C46.7435 33.0926 46.9871 33.3544 47.2953 33.5533C47.6069 33.7488 47.9582 33.8466 48.3493 33.8466ZM57.1547 35.169C56.3692 35.1657 55.698 34.9586 55.1412 34.5476C54.5844 34.1366 54.1585 33.5384 53.8635 32.7528C53.5685 31.9673 53.421 31.0211 53.421 29.9141C53.421 28.8104 53.5685 27.8674 53.8635 27.0852C54.1618 26.303 54.5894 25.7064 55.1462 25.2955C55.7063 24.8845 56.3758 24.679 57.1547 24.679C57.9336 24.679 58.6014 24.8861 59.1583 25.3004C59.7151 25.7114 60.141 26.308 60.436 27.0902C60.7343 27.8691 60.8834 28.8104 60.8834 29.9141C60.8834 31.0244 60.7359 31.9723 60.4409 32.7578C60.146 33.54 59.7201 34.1383 59.1632 34.5526C58.6064 34.9635 57.9369 35.169 57.1547 35.169ZM57.1547 33.8416C57.8441 33.8416 58.3827 33.5052 58.7705 32.8324C59.1616 32.1596 59.3571 31.1868 59.3571 29.9141C59.3571 29.0689 59.2676 28.3546 59.0887 27.7713C58.913 27.1847 58.6594 26.7405 58.328 26.4389C57.9999 26.134 57.6088 25.9815 57.1547 25.9815C56.4686 25.9815 55.93 26.3196 55.5389 26.9957C55.1478 27.6719 54.9506 28.6446 54.9473 29.9141C54.9473 30.7625 55.0352 31.4801 55.2108 32.0668C55.3898 32.6501 55.6433 33.0926 55.9715 33.3942C56.2996 33.6925 56.694 33.8416 57.1547 33.8416ZM66.1018 35.169C65.3163 35.1657 64.6451 34.9586 64.0883 34.5476C63.5315 34.1366 63.1056 33.5384 62.8106 32.7528C62.5156 31.9673 62.3682 31.0211 62.3682 29.9141C62.3682 28.8104 62.5156 27.8674 62.8106 27.0852C63.1089 26.303 63.5365 25.7064 64.0933 25.2955C64.6534 24.8845 65.3229 24.679 66.1018 24.679C66.8807 24.679 67.5486 24.8861 68.1054 25.3004C68.6622 25.7114 69.0881 26.308 69.3831 27.0902C69.6814 27.8691 69.8305 28.8104 69.8305 29.9141C69.8305 31.0244 69.683 31.9723 69.388 32.7578C69.0931 33.54 68.6672 34.1383 68.1103 34.5526C67.5535 34.9635 66.884 35.169 66.1018 35.169ZM66.1018 33.8416C66.7912 33.8416 67.3298 33.5052 67.7176 32.8324C68.1087 32.1596 68.3042 31.1868 68.3042 29.9141C68.3042 29.0689 68.2147 28.3546 68.0358 27.7713C67.8601 27.1847 67.6066 26.7405 67.2751 26.4389C66.947 26.134 66.5559 25.9815 66.1018 25.9815C65.4157 25.9815 64.8772 26.3196 64.4861 26.9957C64.095 27.6719 63.8978 28.6446 63.8944 29.9141C63.8944 30.7625 63.9823 31.4801 64.1579 32.0668C64.3369 32.6501 64.5905 33.0926 64.9186 33.3942C65.2467 33.6925 65.6411 33.8416 66.1018 33.8416Z" fill="white"/>
</svg>
