<svg width="100" height="60" viewBox="0 0 100 60" fill="none" xmlns="http://www.w3.org/2000/svg">
<rect width="98.6667" height="60" transform="translate(0.666748)" fill="#40424C"/>
<path d="M20.676 28.0348C20.5799 27.7332 20.4506 27.4631 20.2882 27.2244C20.1291 26.9825 19.9385 26.777 19.7165 26.608C19.4944 26.4356 19.2408 26.3047 18.9558 26.2152C18.6741 26.1257 18.3642 26.081 18.0261 26.081C17.4527 26.081 16.9357 26.2285 16.475 26.5234C16.0143 26.8184 15.6497 27.2509 15.3812 27.821C15.1161 28.3878 14.9835 29.0821 14.9835 29.9041C14.9835 30.7294 15.1177 31.4271 15.3862 31.9972C15.6547 32.5672 16.0226 32.9998 16.4899 33.2947C16.9572 33.5897 17.4892 33.7372 18.0858 33.7372C18.6393 33.7372 19.1215 33.6245 19.5325 33.3991C19.9468 33.1738 20.2667 32.8556 20.492 32.4446C20.7207 32.0303 20.8351 31.5431 20.8351 30.983L21.2328 31.0575H18.3194V29.7898H22.3216V30.9482C22.3216 31.8033 22.1393 32.5457 21.7747 33.1754C21.4134 33.8018 20.913 34.2857 20.2733 34.6271C19.6369 34.9685 18.9078 35.1392 18.0858 35.1392C17.1644 35.1392 16.3557 34.9271 15.6596 34.5028C14.9669 34.0786 14.4267 33.477 14.0389 32.6982C13.6511 31.916 13.4572 30.9879 13.4572 29.9141C13.4572 29.102 13.5699 28.3729 13.7953 27.7266C14.0207 27.0803 14.3372 26.5317 14.7449 26.081C15.1559 25.6269 15.6381 25.2805 16.1916 25.0419C16.7484 24.8 17.3566 24.679 18.0162 24.679C18.5664 24.679 19.0784 24.7602 19.5524 24.9226C20.0297 25.085 20.4539 25.3153 20.8251 25.6136C21.1997 25.9119 21.5096 26.2666 21.7548 26.6776C22.0001 27.0852 22.1658 27.5376 22.252 28.0348H20.676ZM24.0624 35V27.3636H25.4992V28.5767H25.5787C25.7179 28.1657 25.9632 27.8426 26.3145 27.6072C26.6691 27.3686 27.0702 27.2493 27.5176 27.2493C27.6104 27.2493 27.7198 27.2526 27.8457 27.2592C27.975 27.2659 28.0761 27.2741 28.149 27.2841V28.706C28.0894 28.6894 27.9833 28.6712 27.8308 28.6513C27.6784 28.6281 27.5259 28.6165 27.3734 28.6165C27.0221 28.6165 26.7089 28.6911 26.4338 28.8402C26.162 28.986 25.9466 29.1899 25.7875 29.4517C25.6284 29.7102 25.5489 30.0052 25.5489 30.3366V35H24.0624ZM32.3632 35.1541C31.6108 35.1541 30.9628 34.9934 30.4193 34.6719C29.879 34.3471 29.4614 33.8913 29.1664 33.3047C28.8748 32.7147 28.7289 32.0237 28.7289 31.2315C28.7289 30.4493 28.8748 29.7599 29.1664 29.1634C29.4614 28.5668 29.8724 28.1011 30.3994 27.7663C30.9297 27.4316 31.5495 27.2642 32.2588 27.2642C32.6896 27.2642 33.1072 27.3355 33.5116 27.478C33.916 27.6205 34.2789 27.8442 34.6004 28.1491C34.9219 28.4541 35.1754 28.8501 35.361 29.3374C35.5466 29.8213 35.6394 30.4096 35.6394 31.1023V31.6293H29.5691V30.5156H34.1828C34.1828 30.1245 34.1032 29.7782 33.9441 29.4766C33.785 29.1716 33.5613 28.9313 33.273 28.7557C32.9879 28.58 32.6532 28.4922 32.2687 28.4922C31.8511 28.4922 31.4865 28.5949 31.175 28.8004C30.8667 29.0026 30.6281 29.2678 30.459 29.5959C30.2933 29.9207 30.2105 30.2737 30.2105 30.6548V31.5249C30.2105 32.0353 30.3 32.4695 30.4789 32.8274C30.6612 33.1854 30.9148 33.4588 31.2396 33.6477C31.5644 33.8333 31.9439 33.9261 32.3781 33.9261C32.6598 33.9261 32.9167 33.8864 33.1487 33.8068C33.3807 33.724 33.5812 33.6013 33.7502 33.4389C33.9193 33.2765 34.0485 33.076 34.138 32.8374L35.545 33.0909C35.4323 33.5052 35.2301 33.8681 34.9385 34.1797C34.6501 34.4879 34.2872 34.7282 33.8497 34.9006C33.4155 35.0696 32.92 35.1541 32.3632 35.1541ZM37.9197 37.8636C37.6976 37.8636 37.4954 37.8454 37.3131 37.8089C37.1308 37.7758 36.9949 37.7393 36.9054 37.6996L37.2634 36.4815C37.5352 36.5545 37.7771 36.5859 37.9893 36.576C38.2014 36.5661 38.3886 36.4865 38.551 36.3374C38.7168 36.1882 38.8626 35.9446 38.9885 35.6065L39.1725 35.0994L36.3785 27.3636H37.9694L39.9033 33.2898H39.9829L41.9168 27.3636H43.5127L40.3657 36.0192C40.2198 36.4169 40.0342 36.7533 39.8089 37.0284C39.5835 37.3068 39.315 37.5156 39.0035 37.6548C38.6919 37.794 38.3306 37.8636 37.9197 37.8636ZM48.1855 24.679C48.6395 24.6823 49.087 24.7652 49.5278 24.9276C49.9686 25.09 50.3663 25.3551 50.721 25.723C51.0789 26.0909 51.364 26.5881 51.5761 27.2145C51.7915 27.8376 51.9009 28.6132 51.9042 29.5412C51.9042 30.4328 51.8147 31.2266 51.6358 31.9226C51.4568 32.6153 51.1999 33.2003 50.8652 33.6776C50.5337 34.1548 50.131 34.5178 49.6571 34.7663C49.1831 35.0149 48.6495 35.1392 48.0562 35.1392C47.4497 35.1392 46.9111 35.0199 46.4404 34.7812C45.9698 34.5426 45.587 34.2128 45.292 33.7919C44.997 33.3677 44.8131 32.8804 44.7402 32.3303H46.2565C46.3559 32.7678 46.5581 33.1224 46.863 33.3942C47.1713 33.6626 47.569 33.7969 48.0562 33.7969C48.802 33.7969 49.3836 33.4721 49.8012 32.8224C50.2189 32.1695 50.4293 31.258 50.4326 30.0881H50.3531C50.1807 30.3731 49.9653 30.6184 49.7068 30.8239C49.4516 31.0294 49.1649 31.1884 48.8467 31.3011C48.5285 31.4138 48.1888 31.4702 47.8275 31.4702C47.2409 31.4702 46.7073 31.326 46.2267 31.0376C45.7461 30.7493 45.3633 30.3532 45.0782 29.8494C44.7932 29.3456 44.6507 28.7706 44.6507 28.1243C44.6507 27.4813 44.7965 26.898 45.0882 26.3743C45.3832 25.8506 45.7941 25.4363 46.3211 25.1314C46.8514 24.8232 47.4729 24.6723 48.1855 24.679ZM48.1904 25.9716C47.8027 25.9716 47.453 26.0677 47.1414 26.2599C46.8332 26.4489 46.5896 26.7057 46.4106 27.0305C46.2316 27.352 46.1422 27.71 46.1422 28.1044C46.1422 28.4988 46.2283 28.8568 46.4007 29.1783C46.5763 29.4964 46.815 29.75 47.1166 29.9389C47.4215 30.1245 47.7695 30.2173 48.1606 30.2173C48.4523 30.2173 48.7241 30.161 48.976 30.0483C49.2279 29.9356 49.4483 29.7798 49.6372 29.581C49.8261 29.3788 49.9736 29.1501 50.0797 28.8949C50.1857 28.6397 50.2387 28.3712 50.2387 28.0895C50.2387 27.715 50.1493 27.367 49.9703 27.0455C49.7946 26.724 49.5527 26.4654 49.2444 26.2699C48.9362 26.071 48.5849 25.9716 48.1904 25.9716ZM57.155 35.169C56.3694 35.1657 55.6983 34.9586 55.1415 34.5476C54.5846 34.1366 54.1587 33.5384 53.8638 32.7528C53.5688 31.9673 53.4213 31.0211 53.4213 29.9141C53.4213 28.8104 53.5688 27.8674 53.8638 27.0852C54.1621 26.303 54.5896 25.7064 55.1464 25.2955C55.7066 24.8845 56.3761 24.679 57.155 24.679C57.9338 24.679 58.6017 24.8861 59.1585 25.3004C59.7153 25.7114 60.1412 26.308 60.4362 27.0902C60.7345 27.8691 60.8837 28.8104 60.8837 29.9141C60.8837 31.0244 60.7362 31.9723 60.4412 32.7578C60.1462 33.54 59.7203 34.1383 59.1635 34.5526C58.6067 34.9635 57.9372 35.169 57.155 35.169ZM57.155 33.8416C57.8444 33.8416 58.3829 33.5052 58.7707 32.8324C59.1618 32.1596 59.3574 31.1868 59.3574 29.9141C59.3574 29.0689 59.2679 28.3546 59.0889 27.7713C58.9132 27.1847 58.6597 26.7405 58.3283 26.4389C58.0001 26.134 57.609 25.9815 57.155 25.9815C56.4689 25.9815 55.9303 26.3196 55.5392 26.9957C55.1481 27.6719 54.9509 28.6446 54.9476 29.9141C54.9476 30.7625 55.0354 31.4801 55.2111 32.0668C55.39 32.6501 55.6436 33.0926 55.9717 33.3942C56.2998 33.6925 56.6943 33.8416 57.155 33.8416ZM66.1021 35.169C65.3166 35.1657 64.6454 34.9586 64.0886 34.5476C63.5318 34.1366 63.1059 33.5384 62.8109 32.7528C62.5159 31.9673 62.3684 31.0211 62.3684 29.9141C62.3684 28.8104 62.5159 27.8674 62.8109 27.0852C63.1092 26.303 63.5367 25.7064 64.0935 25.2955C64.6537 24.8845 65.3232 24.679 66.1021 24.679C66.8809 24.679 67.5488 24.8861 68.1056 25.3004C68.6624 25.7114 69.0883 26.308 69.3833 27.0902C69.6816 27.8691 69.8308 28.8104 69.8308 29.9141C69.8308 31.0244 69.6833 31.9723 69.3883 32.7578C69.0933 33.54 68.6674 34.1383 68.1106 34.5526C67.5538 34.9635 66.8843 35.169 66.1021 35.169ZM66.1021 33.8416C66.7915 33.8416 67.33 33.5052 67.7178 32.8324C68.1089 32.1596 68.3045 31.1868 68.3045 29.9141C68.3045 29.0689 68.215 28.3546 68.036 27.7713C67.8604 27.1847 67.6068 26.7405 67.2754 26.4389C66.9472 26.134 66.5561 25.9815 66.1021 25.9815C65.416 25.9815 64.8774 26.3196 64.4863 26.9957C64.0952 27.6719 63.898 28.6446 63.8947 29.9141C63.8947 30.7625 63.9825 31.4801 64.1582 32.0668C64.3372 32.6501 64.5907 33.0926 64.9188 33.3942C65.247 33.6925 65.6414 33.8416 66.1021 33.8416Z" fill="white"/>
</svg>
