<svg width="100" height="60" viewBox="0 0 100 60" fill="none" xmlns="http://www.w3.org/2000/svg">
<rect width="98.6667" height="60" transform="translate(0.666504)" fill="#F6F6F8"/>
<path d="M20.6757 28.0348C20.5796 27.7332 20.4504 27.4631 20.288 27.2244C20.1289 26.9825 19.9383 26.777 19.7162 26.608C19.4942 26.4356 19.2406 26.3047 18.9556 26.2152C18.6738 26.1257 18.3639 26.081 18.0259 26.081C17.4525 26.081 16.9354 26.2285 16.4747 26.5234C16.014 26.8184 15.6495 27.2509 15.381 27.821C15.1158 28.3878 14.9833 29.0821 14.9833 29.9041C14.9833 30.7294 15.1175 31.4271 15.386 31.9972C15.6544 32.5672 16.0223 32.9998 16.4897 33.2947C16.957 33.5897 17.4889 33.7372 18.0855 33.7372C18.639 33.7372 19.1213 33.6245 19.5323 33.3991C19.9466 33.1738 20.2664 32.8556 20.4918 32.4446C20.7205 32.0303 20.8348 31.5431 20.8348 30.983L21.2326 31.0575H18.3192V29.7898H22.3213V30.9482C22.3213 31.8033 22.139 32.5457 21.7745 33.1754C21.4132 33.8018 20.9127 34.2857 20.273 34.6271C19.6367 34.9685 18.9075 35.1392 18.0855 35.1392C17.1641 35.1392 16.3554 34.9271 15.6594 34.5028C14.9667 34.0786 14.4264 33.477 14.0387 32.6982C13.6509 31.916 13.457 30.9879 13.457 29.9141C13.457 29.102 13.5697 28.3729 13.7951 27.7266C14.0204 27.0803 14.337 26.5317 14.7446 26.081C15.1556 25.6269 15.6379 25.2805 16.1914 25.0419C16.7482 24.8 17.3564 24.679 18.0159 24.679C18.5661 24.679 19.0782 24.7602 19.5522 24.9226C20.0294 25.085 20.4537 25.3153 20.8249 25.6136C21.1994 25.9119 21.5093 26.2666 21.7546 26.6776C21.9998 27.0852 22.1656 27.5376 22.2517 28.0348H20.6757ZM24.0621 35V27.3636H25.4989V28.5767H25.5785C25.7177 28.1657 25.9629 27.8426 26.3143 27.6072C26.6689 27.3686 27.0699 27.2493 27.5174 27.2493C27.6102 27.2493 27.7196 27.2526 27.8455 27.2592C27.9748 27.2659 28.0759 27.2741 28.1488 27.2841V28.706C28.0891 28.6894 27.983 28.6712 27.8306 28.6513C27.6781 28.6281 27.5257 28.6165 27.3732 28.6165C27.0219 28.6165 26.7087 28.6911 26.4336 28.8402C26.1618 28.986 25.9464 29.1899 25.7873 29.4517C25.6282 29.7102 25.5486 30.0052 25.5486 30.3366V35H24.0621ZM32.3629 35.1541C31.6106 35.1541 30.9626 34.9934 30.419 34.6719C29.8788 34.3471 29.4612 33.8913 29.1662 33.3047C28.8745 32.7147 28.7287 32.0237 28.7287 31.2315C28.7287 30.4493 28.8745 29.7599 29.1662 29.1634C29.4612 28.5668 29.8722 28.1011 30.3991 27.7663C30.9294 27.4316 31.5492 27.2642 32.2585 27.2642C32.6894 27.2642 33.107 27.3355 33.5114 27.478C33.9157 27.6205 34.2786 27.8442 34.6001 28.1491C34.9216 28.4541 35.1752 28.8501 35.3608 29.3374C35.5464 29.8213 35.6392 30.4096 35.6392 31.1023V31.6293H29.5689V30.5156H34.1825C34.1825 30.1245 34.103 29.7782 33.9439 29.4766C33.7848 29.1716 33.5611 28.9313 33.2727 28.7557C32.9877 28.58 32.6529 28.4922 32.2685 28.4922C31.8509 28.4922 31.4863 28.5949 31.1747 28.8004C30.8665 29.0026 30.6278 29.2678 30.4588 29.5959C30.2931 29.9207 30.2102 30.2737 30.2102 30.6548V31.5249C30.2102 32.0353 30.2997 32.4695 30.4787 32.8274C30.661 33.1854 30.9145 33.4588 31.2393 33.6477C31.5642 33.8333 31.9437 33.9261 32.3778 33.9261C32.6596 33.9261 32.9164 33.8864 33.1484 33.8068C33.3804 33.724 33.581 33.6013 33.75 33.4389C33.919 33.2765 34.0483 33.076 34.1378 32.8374L35.5447 33.0909C35.4321 33.5052 35.2299 33.8681 34.9382 34.1797C34.6499 34.4879 34.2869 34.7282 33.8494 34.9006C33.4152 35.0696 32.9197 35.1541 32.3629 35.1541ZM37.9194 37.8636C37.6973 37.8636 37.4952 37.8454 37.3129 37.8089C37.1306 37.7758 36.9947 37.7393 36.9052 37.6996L37.2632 36.4815C37.5349 36.5545 37.7769 36.5859 37.989 36.576C38.2011 36.5661 38.3884 36.4865 38.5508 36.3374C38.7165 36.1882 38.8624 35.9446 38.9883 35.6065L39.1722 35.0994L36.3782 27.3636H37.9691L39.9031 33.2898H39.9826L41.9166 27.3636H43.5124L40.3654 36.0192C40.2196 36.4169 40.034 36.7533 39.8086 37.0284C39.5832 37.3068 39.3148 37.5156 39.0032 37.6548C38.6917 37.794 38.3304 37.8636 37.9194 37.8636ZM48.1604 35.1392C47.5373 35.1392 46.9771 35.0199 46.48 34.7812C45.9861 34.5393 45.5917 34.2079 45.2967 33.7869C45.0018 33.366 44.8443 32.8854 44.8244 32.3452H46.3159C46.3524 32.7827 46.5463 33.1423 46.8976 33.424C47.2489 33.7057 47.6698 33.8466 48.1604 33.8466C48.5515 33.8466 48.8978 33.7571 49.1994 33.5781C49.5044 33.3958 49.743 33.1456 49.9153 32.8274C50.091 32.5092 50.1788 32.1463 50.1788 31.7386C50.1788 31.3243 50.0894 30.9548 49.9104 30.63C49.7314 30.3052 49.4845 30.05 49.1696 29.8643C48.8581 29.6787 48.5001 29.5843 48.0957 29.581C47.7875 29.581 47.4776 29.634 47.1661 29.7401C46.8545 29.8461 46.6026 29.9853 46.4104 30.1577L45.0034 29.9489L45.5751 24.8182H51.1732V26.1357H46.8528L46.5297 28.9844H46.5894C46.7882 28.7921 47.0517 28.6314 47.3798 28.5021C47.7113 28.3729 48.0659 28.3082 48.4438 28.3082C49.0635 28.3082 49.6154 28.4557 50.0993 28.7507C50.5865 29.0457 50.9693 29.4484 51.2477 29.9588C51.5295 30.4659 51.6687 31.0492 51.6653 31.7088C51.6687 32.3684 51.5195 32.9567 51.2179 33.4737C50.9196 33.9908 50.5053 34.3984 49.975 34.6967C49.448 34.9917 48.8431 35.1392 48.1604 35.1392ZM56.936 35.169C56.1505 35.1657 55.4793 34.9586 54.9225 34.5476C54.3657 34.1366 53.9398 33.5384 53.6448 32.7528C53.3498 31.9673 53.2023 31.0211 53.2023 29.9141C53.2023 28.8104 53.3498 27.8674 53.6448 27.0852C53.9431 26.303 54.3706 25.7064 54.9274 25.2955C55.4876 24.8845 56.1571 24.679 56.936 24.679C57.7148 24.679 58.3827 24.8861 58.9395 25.3004C59.4963 25.7114 59.9222 26.308 60.2172 27.0902C60.5155 27.8691 60.6647 28.8104 60.6647 29.9141C60.6647 31.0244 60.5172 31.9723 60.2222 32.7578C59.9272 33.54 59.5013 34.1383 58.9445 34.5526C58.3877 34.9635 57.7182 35.169 56.936 35.169ZM56.936 33.8416C57.6254 33.8416 58.1639 33.5052 58.5517 32.8324C58.9428 32.1596 59.1384 31.1868 59.1384 29.9141C59.1384 29.0689 59.0489 28.3546 58.8699 27.7713C58.6942 27.1847 58.4407 26.7405 58.1093 26.4389C57.7811 26.134 57.39 25.9815 56.936 25.9815C56.2499 25.9815 55.7113 26.3196 55.3202 26.9957C54.9291 27.6719 54.7319 28.6446 54.7286 29.9141C54.7286 30.7625 54.8164 31.4801 54.9921 32.0668C55.171 32.6501 55.4246 33.0926 55.7527 33.3942C56.0808 33.6925 56.4753 33.8416 56.936 33.8416Z" fill="black"/>
</svg>
