<svg width="520" height="40" viewBox="0 0 520 40" fill="none" xmlns="http://www.w3.org/2000/svg">
<rect width="520" height="40" fill="#EFEFF0"/>
<path d="M20.0092 18.0348C19.9131 17.7332 19.7839 17.4631 19.6214 17.2244C19.4624 16.9825 19.2718 16.777 19.0497 16.608C18.8277 16.4356 18.5741 16.3047 18.2891 16.2152C18.0073 16.1257 17.6974 16.081 17.3594 16.081C16.786 16.081 16.2689 16.2285 15.8082 16.5234C15.3475 16.8184 14.983 17.2509 14.7145 17.821C14.4493 18.3878 14.3168 19.0821 14.3168 19.9041C14.3168 20.7294 14.451 21.4271 14.7195 21.9972C14.9879 22.5672 15.3558 22.9998 15.8232 23.2947C16.2905 23.5897 16.8224 23.7372 17.419 23.7372C17.9725 23.7372 18.4548 23.6245 18.8658 23.3991C19.2801 23.1738 19.5999 22.8556 19.8253 22.4446C20.054 22.0303 20.1683 21.5431 20.1683 20.983L20.5661 21.0575H17.6527V19.7898H21.6548V20.9482C21.6548 21.8033 21.4725 22.5457 21.108 23.1754C20.7467 23.8018 20.2462 24.2857 19.6065 24.6271C18.9702 24.9685 18.241 25.1392 17.419 25.1392C16.4976 25.1392 15.6889 24.9271 14.9929 24.5028C14.3002 24.0786 13.7599 23.477 13.3722 22.6982C12.9844 21.916 12.7905 20.9879 12.7905 19.9141C12.7905 19.102 12.9032 18.3729 13.1286 17.7266C13.3539 17.0803 13.6705 16.5317 14.0781 16.081C14.4891 15.6269 14.9714 15.2805 15.5249 15.0419C16.0817 14.8 16.6899 14.679 17.3494 14.679C17.8996 14.679 18.4117 14.7602 18.8857 14.9226C19.3629 15.085 19.7872 15.3153 20.1584 15.6136C20.5329 15.9119 20.8428 16.2666 21.0881 16.6776C21.3333 17.0852 21.4991 17.5376 21.5852 18.0348H20.0092ZM23.4856 25V17.3636H24.9224V18.5767H25.002C25.1412 18.1657 25.3864 17.8426 25.7377 17.6072C26.0924 17.3686 26.4934 17.2493 26.9409 17.2493C27.0337 17.2493 27.1431 17.2526 27.269 17.2592C27.3983 17.2659 27.4993 17.2741 27.5723 17.2841V18.706C27.5126 18.6894 27.4065 18.6712 27.2541 18.6513C27.1016 18.6281 26.9492 18.6165 26.7967 18.6165C26.4454 18.6165 26.1322 18.6911 25.8571 18.8402C25.5853 18.986 25.3699 19.1899 25.2108 19.4517C25.0517 19.7102 24.9721 20.0052 24.9721 20.3366V25H23.4856ZM31.8764 25.1541C31.1241 25.1541 30.4761 24.9934 29.9325 24.6719C29.3923 24.3471 28.9747 23.8913 28.6797 23.3047C28.388 22.7147 28.2422 22.0237 28.2422 21.2315C28.2422 20.4493 28.388 19.7599 28.6797 19.1634C28.9747 18.5668 29.3857 18.1011 29.9126 17.7663C30.4429 17.4316 31.0627 17.2642 31.772 17.2642C32.2029 17.2642 32.6205 17.3355 33.0249 17.478C33.4292 17.6205 33.7921 17.8442 34.1136 18.1491C34.4351 18.4541 34.6887 18.8501 34.8743 19.3374C35.0599 19.8213 35.1527 20.4096 35.1527 21.1023V21.6293H29.0824V20.5156H33.696C33.696 20.1245 33.6165 19.7782 33.4574 19.4766C33.2983 19.1716 33.0746 18.9313 32.7862 18.7557C32.5012 18.58 32.1664 18.4922 31.782 18.4922C31.3643 18.4922 30.9998 18.5949 30.6882 18.8004C30.38 19.0026 30.1413 19.2678 29.9723 19.5959C29.8066 19.9207 29.7237 20.2737 29.7237 20.6548V21.5249C29.7237 22.0353 29.8132 22.4695 29.9922 22.8274C30.1745 23.1854 30.428 23.4588 30.7528 23.6477C31.0777 23.8333 31.4571 23.9261 31.8913 23.9261C32.1731 23.9261 32.4299 23.8864 32.6619 23.8068C32.8939 23.724 33.0945 23.6013 33.2635 23.4389C33.4325 23.2765 33.5618 23.076 33.6513 22.8374L35.0582 23.0909C34.9455 23.5052 34.7434 23.8681 34.4517 24.1797C34.1634 24.4879 33.8004 24.7282 33.3629 24.9006C32.9287 25.0696 32.4332 25.1541 31.8764 25.1541ZM37.5229 27.8636C37.3008 27.8636 37.0987 27.8454 36.9164 27.8089C36.7341 27.7758 36.5982 27.7393 36.5087 27.6996L36.8667 26.4815C37.1384 26.5545 37.3804 26.5859 37.5925 26.576C37.8046 26.5661 37.9919 26.4865 38.1543 26.3374C38.32 26.1882 38.4658 25.9446 38.5918 25.6065L38.7757 25.0994L35.9817 17.3636H37.5726L39.5066 23.2898H39.5861L41.5201 17.3636H43.1159L39.9689 26.0192C39.8231 26.4169 39.6375 26.7533 39.4121 27.0284C39.1867 27.3068 38.9183 27.5156 38.6067 27.6548C38.2952 27.794 37.9339 27.8636 37.5229 27.8636ZM48.356 14.8182V25H46.8148V16.3594H46.7551L44.3191 17.9503V16.4787L46.8596 14.8182H48.356ZM54.655 25.169C53.8695 25.1657 53.1983 24.9586 52.6415 24.5476C52.0847 24.1366 51.6588 23.5384 51.3638 22.7528C51.0688 21.9673 50.9213 21.0211 50.9213 19.9141C50.9213 18.8104 51.0688 17.8674 51.3638 17.0852C51.6621 16.303 52.0897 15.7064 52.6465 15.2955C53.2066 14.8845 53.8761 14.679 54.655 14.679C55.4339 14.679 56.1017 14.8861 56.6586 15.3004C57.2154 15.7114 57.6413 16.308 57.9363 17.0902C58.2346 17.8691 58.3837 18.8104 58.3837 19.9141C58.3837 21.0244 58.2362 21.9723 57.9412 22.7578C57.6462 23.54 57.2203 24.1383 56.6635 24.5526C56.1067 24.9635 55.4372 25.169 54.655 25.169ZM54.655 23.8416C55.3444 23.8416 55.883 23.5052 56.2708 22.8324C56.6619 22.1596 56.8574 21.1868 56.8574 19.9141C56.8574 19.0689 56.7679 18.3546 56.589 17.7713C56.4133 17.1847 56.1597 16.7405 55.8283 16.4389C55.5002 16.134 55.1091 15.9815 54.655 15.9815C53.9689 15.9815 53.4303 16.3196 53.0392 16.9957C52.6481 17.6719 52.4509 18.6446 52.4476 19.9141C52.4476 20.7625 52.5355 21.4801 52.7111 22.0668C52.8901 22.6501 53.1436 23.0926 53.4718 23.3942C53.7999 23.6925 54.1943 23.8416 54.655 23.8416ZM63.6921 25.169C62.9066 25.1657 62.2354 24.9586 61.6786 24.5476C61.1218 24.1366 60.6959 23.5384 60.4009 22.7528C60.1059 21.9673 59.9585 21.0211 59.9585 19.9141C59.9585 18.8104 60.1059 17.8674 60.4009 17.0852C60.6992 16.303 61.1268 15.7064 61.6836 15.2955C62.2437 14.8845 62.9132 14.679 63.6921 14.679C64.471 14.679 65.1388 14.8861 65.6957 15.3004C66.2525 15.7114 66.6784 16.308 66.9734 17.0902C67.2717 17.8691 67.4208 18.8104 67.4208 19.9141C67.4208 21.0244 67.2733 21.9723 66.9783 22.7578C66.6834 23.54 66.2575 24.1383 65.7006 24.5526C65.1438 24.9635 64.4743 25.169 63.6921 25.169ZM63.6921 23.8416C64.3815 23.8416 64.9201 23.5052 65.3079 22.8324C65.699 22.1596 65.8945 21.1868 65.8945 19.9141C65.8945 19.0689 65.805 18.3546 65.6261 17.7713C65.4504 17.1847 65.1969 16.7405 64.8654 16.4389C64.5373 16.134 64.1462 15.9815 63.6921 15.9815C63.006 15.9815 62.4674 16.3196 62.0763 16.9957C61.6853 17.6719 61.488 18.6446 61.4847 19.9141C61.4847 20.7625 61.5726 21.4801 61.7482 22.0668C61.9272 22.6501 62.1808 23.0926 62.5089 23.3942C62.837 23.6925 63.2314 23.8416 63.6921 23.8416Z" fill="#0A0A0B"/>
</svg>
