<svg width="520" height="40" viewBox="0 0 520 40" fill="none" xmlns="http://www.w3.org/2000/svg">
<rect width="520" height="40" fill="#686970"/>
<path d="M20.0092 18.0348C19.9131 17.7332 19.7839 17.4631 19.6214 17.2244C19.4624 16.9825 19.2718 16.777 19.0497 16.608C18.8277 16.4356 18.5741 16.3047 18.2891 16.2152C18.0073 16.1257 17.6974 16.081 17.3594 16.081C16.786 16.081 16.2689 16.2285 15.8082 16.5234C15.3475 16.8184 14.983 17.2509 14.7145 17.821C14.4493 18.3878 14.3168 19.0821 14.3168 19.9041C14.3168 20.7294 14.451 21.4271 14.7195 21.9972C14.9879 22.5672 15.3558 22.9998 15.8232 23.2947C16.2905 23.5897 16.8224 23.7372 17.419 23.7372C17.9725 23.7372 18.4548 23.6245 18.8658 23.3991C19.2801 23.1738 19.5999 22.8556 19.8253 22.4446C20.054 22.0303 20.1683 21.5431 20.1683 20.983L20.5661 21.0575H17.6527V19.7898H21.6548V20.9482C21.6548 21.8033 21.4725 22.5457 21.108 23.1754C20.7467 23.8018 20.2462 24.2857 19.6065 24.6271C18.9702 24.9685 18.241 25.1392 17.419 25.1392C16.4976 25.1392 15.6889 24.9271 14.9929 24.5028C14.3002 24.0786 13.7599 23.477 13.3722 22.6982C12.9844 21.916 12.7905 20.9879 12.7905 19.9141C12.7905 19.102 12.9032 18.3729 13.1286 17.7266C13.3539 17.0803 13.6705 16.5317 14.0781 16.081C14.4891 15.6269 14.9714 15.2805 15.5249 15.0419C16.0817 14.8 16.6899 14.679 17.3494 14.679C17.8996 14.679 18.4117 14.7602 18.8857 14.9226C19.3629 15.085 19.7872 15.3153 20.1584 15.6136C20.5329 15.9119 20.8428 16.2666 21.0881 16.6776C21.3333 17.0852 21.4991 17.5376 21.5852 18.0348H20.0092ZM23.4856 25V17.3636H24.9224V18.5767H25.002C25.1412 18.1657 25.3864 17.8426 25.7377 17.6072C26.0924 17.3686 26.4934 17.2493 26.9409 17.2493C27.0337 17.2493 27.1431 17.2526 27.269 17.2592C27.3983 17.2659 27.4993 17.2741 27.5723 17.2841V18.706C27.5126 18.6894 27.4065 18.6712 27.2541 18.6513C27.1016 18.6281 26.9492 18.6165 26.7967 18.6165C26.4454 18.6165 26.1322 18.6911 25.8571 18.8402C25.5853 18.986 25.3699 19.1899 25.2108 19.4517C25.0517 19.7102 24.9721 20.0052 24.9721 20.3366V25H23.4856ZM31.8764 25.1541C31.1241 25.1541 30.4761 24.9934 29.9325 24.6719C29.3923 24.3471 28.9747 23.8913 28.6797 23.3047C28.388 22.7147 28.2422 22.0237 28.2422 21.2315C28.2422 20.4493 28.388 19.7599 28.6797 19.1634C28.9747 18.5668 29.3857 18.1011 29.9126 17.7663C30.4429 17.4316 31.0627 17.2642 31.772 17.2642C32.2029 17.2642 32.6205 17.3355 33.0249 17.478C33.4292 17.6205 33.7921 17.8442 34.1136 18.1491C34.4351 18.4541 34.6887 18.8501 34.8743 19.3374C35.0599 19.8213 35.1527 20.4096 35.1527 21.1023V21.6293H29.0824V20.5156H33.696C33.696 20.1245 33.6165 19.7782 33.4574 19.4766C33.2983 19.1716 33.0746 18.9313 32.7862 18.7557C32.5012 18.58 32.1664 18.4922 31.782 18.4922C31.3643 18.4922 30.9998 18.5949 30.6882 18.8004C30.38 19.0026 30.1413 19.2678 29.9723 19.5959C29.8066 19.9207 29.7237 20.2737 29.7237 20.6548V21.5249C29.7237 22.0353 29.8132 22.4695 29.9922 22.8274C30.1745 23.1854 30.428 23.4588 30.7528 23.6477C31.0777 23.8333 31.4571 23.9261 31.8913 23.9261C32.1731 23.9261 32.4299 23.8864 32.6619 23.8068C32.8939 23.724 33.0945 23.6013 33.2635 23.4389C33.4325 23.2765 33.5618 23.076 33.6513 22.8374L35.0582 23.0909C34.9455 23.5052 34.7434 23.8681 34.4517 24.1797C34.1634 24.4879 33.8004 24.7282 33.3629 24.9006C32.9287 25.0696 32.4332 25.1541 31.8764 25.1541ZM37.5229 27.8636C37.3008 27.8636 37.0987 27.8454 36.9164 27.8089C36.7341 27.7758 36.5982 27.7393 36.5087 27.6996L36.8667 26.4815C37.1384 26.5545 37.3804 26.5859 37.5925 26.576C37.8046 26.5661 37.9919 26.4865 38.1543 26.3374C38.32 26.1882 38.4658 25.9446 38.5918 25.6065L38.7757 25.0994L35.9817 17.3636H37.5726L39.5066 23.2898H39.5861L41.5201 17.3636H43.1159L39.9689 26.0192C39.8231 26.4169 39.6375 26.7533 39.4121 27.0284C39.1867 27.3068 38.9183 27.5156 38.6067 27.6548C38.2952 27.794 37.9339 27.8636 37.5229 27.8636ZM44.8361 25L49.2807 16.2102V16.1357H44.1401V14.8182H50.8716V16.1804L46.4419 25H44.8361ZM55.9265 25.169C55.141 25.1657 54.4698 24.9586 53.913 24.5476C53.3562 24.1366 52.9303 23.5384 52.6353 22.7528C52.3403 21.9673 52.1928 21.0211 52.1928 19.9141C52.1928 18.8104 52.3403 17.8674 52.6353 17.0852C52.9336 16.303 53.3612 15.7064 53.918 15.2955C54.4781 14.8845 55.1476 14.679 55.9265 14.679C56.7054 14.679 57.3732 14.8861 57.93 15.3004C58.4869 15.7114 58.9128 16.308 59.2077 17.0902C59.506 17.8691 59.6552 18.8104 59.6552 19.9141C59.6552 21.0244 59.5077 21.9723 59.2127 22.7578C58.9177 23.54 58.4918 24.1383 57.935 24.5526C57.3782 24.9635 56.7087 25.169 55.9265 25.169ZM55.9265 23.8416C56.6159 23.8416 57.1545 23.5052 57.5423 22.8324C57.9334 22.1596 58.1289 21.1868 58.1289 19.9141C58.1289 19.0689 58.0394 18.3546 57.8604 17.7713C57.6848 17.1847 57.4312 16.7405 57.0998 16.4389C56.7717 16.134 56.3806 15.9815 55.9265 15.9815C55.2404 15.9815 54.7018 16.3196 54.3107 16.9957C53.9196 17.6719 53.7224 18.6446 53.7191 19.9141C53.7191 20.7625 53.8069 21.4801 53.9826 22.0668C54.1616 22.6501 54.4151 23.0926 54.7433 23.3942C55.0714 23.6925 55.4658 23.8416 55.9265 23.8416ZM64.9636 25.169C64.1781 25.1657 63.5069 24.9586 62.9501 24.5476C62.3933 24.1366 61.9674 23.5384 61.6724 22.7528C61.3774 21.9673 61.2299 21.0211 61.2299 19.9141C61.2299 18.8104 61.3774 17.8674 61.6724 17.0852C61.9707 16.303 62.3983 15.7064 62.9551 15.2955C63.5152 14.8845 64.1847 14.679 64.9636 14.679C65.7425 14.679 66.4103 14.8861 66.9672 15.3004C67.524 15.7114 67.9499 16.308 68.2449 17.0902C68.5431 17.8691 68.6923 18.8104 68.6923 19.9141C68.6923 21.0244 68.5448 21.9723 68.2498 22.7578C67.9548 23.54 67.5289 24.1383 66.9721 24.5526C66.4153 24.9635 65.7458 25.169 64.9636 25.169ZM64.9636 23.8416C65.653 23.8416 66.1916 23.5052 66.5794 22.8324C66.9705 22.1596 67.166 21.1868 67.166 19.9141C67.166 19.0689 67.0765 18.3546 66.8975 17.7713C66.7219 17.1847 66.4683 16.7405 66.1369 16.4389C65.8088 16.134 65.4177 15.9815 64.9636 15.9815C64.2775 15.9815 63.7389 16.3196 63.3478 16.9957C62.9567 17.6719 62.7595 18.6446 62.7562 19.9141C62.7562 20.7625 62.844 21.4801 63.0197 22.0668C63.1987 22.6501 63.4522 23.0926 63.7804 23.3942C64.1085 23.6925 64.5029 23.8416 64.9636 23.8416Z" fill="white"/>
</svg>
