<svg width="99" height="60" viewBox="0 0 99 60" fill="none" xmlns="http://www.w3.org/2000/svg">
<rect width="98.6667" height="60" fill="#4D505A"/>
<path d="M20.0092 28.0348C19.9131 27.7332 19.7839 27.4631 19.6214 27.2244C19.4624 26.9825 19.2718 26.777 19.0497 26.608C18.8277 26.4356 18.5741 26.3047 18.2891 26.2152C18.0073 26.1257 17.6974 26.081 17.3594 26.081C16.786 26.081 16.2689 26.2285 15.8082 26.5234C15.3475 26.8184 14.983 27.2509 14.7145 27.821C14.4493 28.3878 14.3168 29.0821 14.3168 29.9041C14.3168 30.7294 14.451 31.4271 14.7195 31.9972C14.9879 32.5672 15.3558 32.9998 15.8232 33.2947C16.2905 33.5897 16.8224 33.7372 17.419 33.7372C17.9725 33.7372 18.4548 33.6245 18.8658 33.3991C19.2801 33.1738 19.5999 32.8556 19.8253 32.4446C20.054 32.0303 20.1683 31.5431 20.1683 30.983L20.5661 31.0575H17.6527V29.7898H21.6548V30.9482C21.6548 31.8033 21.4725 32.5457 21.108 33.1754C20.7467 33.8018 20.2462 34.2857 19.6065 34.6271C18.9702 34.9685 18.241 35.1392 17.419 35.1392C16.4976 35.1392 15.6889 34.9271 14.9929 34.5028C14.3002 34.0786 13.7599 33.477 13.3722 32.6982C12.9844 31.916 12.7905 30.9879 12.7905 29.9141C12.7905 29.102 12.9032 28.3729 13.1286 27.7266C13.3539 27.0803 13.6705 26.5317 14.0781 26.081C14.4891 25.6269 14.9714 25.2805 15.5249 25.0419C16.0817 24.8 16.6899 24.679 17.3494 24.679C17.8996 24.679 18.4117 24.7602 18.8857 24.9226C19.3629 25.085 19.7872 25.3153 20.1584 25.6136C20.5329 25.9119 20.8428 26.2666 21.0881 26.6776C21.3333 27.0852 21.4991 27.5376 21.5852 28.0348H20.0092ZM23.3956 35V27.3636H24.8324V28.5767H24.912C25.0512 28.1657 25.2964 27.8426 25.6477 27.6072C26.0024 27.3686 26.4034 27.2493 26.8509 27.2493C26.9437 27.2493 27.0531 27.2526 27.179 27.2592C27.3083 27.2659 27.4093 27.2741 27.4823 27.2841V28.706C27.4226 28.6894 27.3165 28.6712 27.1641 28.6513C27.0116 28.6281 26.8592 28.6165 26.7067 28.6165C26.3554 28.6165 26.0422 28.6911 25.7671 28.8402C25.4953 28.986 25.2799 29.1899 25.1208 29.4517C24.9617 29.7102 24.8821 30.0052 24.8821 30.3366V35H23.3956ZM31.6964 35.1541C30.9441 35.1541 30.2961 34.9934 29.7525 34.6719C29.2123 34.3471 28.7947 33.8913 28.4997 33.3047C28.208 32.7147 28.0622 32.0237 28.0622 31.2315C28.0622 30.4493 28.208 29.7599 28.4997 29.1634C28.7947 28.5668 29.2057 28.1011 29.7326 27.7663C30.2629 27.4316 30.8827 27.2642 31.592 27.2642C32.0229 27.2642 32.4405 27.3355 32.8449 27.478C33.2492 27.6205 33.6121 27.8442 33.9336 28.1491C34.2551 28.4541 34.5087 28.8501 34.6943 29.3374C34.8799 29.8213 34.9727 30.4096 34.9727 31.1023V31.6293H28.9024V30.5156H33.516C33.516 30.1245 33.4365 29.7782 33.2774 29.4766C33.1183 29.1716 32.8946 28.9313 32.6062 28.7557C32.3212 28.58 31.9864 28.4922 31.602 28.4922C31.1843 28.4922 30.8198 28.5949 30.5082 28.8004C30.2 29.0026 29.9613 29.2678 29.7923 29.5959C29.6266 29.9207 29.5437 30.2737 29.5437 30.6548V31.5249C29.5437 32.0353 29.6332 32.4695 29.8122 32.8274C29.9945 33.1854 30.248 33.4588 30.5728 33.6477C30.8977 33.8333 31.2771 33.9261 31.7113 33.9261C31.9931 33.9261 32.2499 33.8864 32.4819 33.8068C32.7139 33.724 32.9145 33.6013 33.0835 33.4389C33.2525 33.2765 33.3818 33.076 33.4713 32.8374L34.8782 33.0909C34.7655 33.5052 34.5634 33.8681 34.2717 34.1797C33.9834 34.4879 33.6204 34.7282 33.1829 34.9006C32.7487 35.0696 32.2532 35.1541 31.6964 35.1541ZM37.2529 37.8636C37.0308 37.8636 36.8287 37.8454 36.6464 37.8089C36.4641 37.7758 36.3282 37.7393 36.2387 37.6996L36.5967 36.4815C36.8684 36.5545 37.1104 36.5859 37.3225 36.576C37.5346 36.5661 37.7219 36.4865 37.8843 36.3374C38.05 36.1882 38.1958 35.9446 38.3218 35.6065L38.5057 35.0994L35.7117 27.3636H37.3026L39.2366 33.2898H39.3161L41.2501 27.3636H42.8459L39.6989 36.0192C39.5531 36.4169 39.3675 36.7533 39.1421 37.0284C38.9167 37.3068 38.6483 37.5156 38.3367 37.6548C38.0252 37.794 37.6639 37.8636 37.2529 37.8636ZM47.5734 35.1392C46.8608 35.1392 46.2311 35.0166 45.6842 34.7713C45.1407 34.526 44.7148 34.188 44.4065 33.7571C44.0983 33.3262 43.9458 32.8357 43.9491 32.2855C43.9458 31.8546 44.0336 31.4586 44.2126 31.0973C44.3949 30.7327 44.6418 30.4295 44.9534 30.1875C45.2649 29.9422 45.613 29.7865 45.9974 29.7202V29.6605C45.4903 29.5379 45.0843 29.2661 44.7794 28.8452C44.4745 28.4242 44.3237 27.9403 44.327 27.3935C44.3237 26.8731 44.4612 26.4091 44.7396 26.0014C45.0213 25.5904 45.4075 25.2673 45.898 25.032C46.3885 24.7966 46.947 24.679 47.5734 24.679C48.1932 24.679 48.7467 24.7983 49.2339 25.0369C49.7245 25.2723 50.1106 25.5954 50.3923 26.0064C50.674 26.4141 50.8166 26.8764 50.8199 27.3935C50.8166 27.9403 50.6608 28.4242 50.3525 28.8452C50.0443 29.2661 49.6433 29.5379 49.1494 29.6605V29.7202C49.5306 29.7865 49.8736 29.9422 50.1785 30.1875C50.4868 30.4295 50.732 30.7327 50.9143 31.0973C51.0999 31.4586 51.1944 31.8546 51.1977 32.2855C51.1944 32.8357 51.0386 33.3262 50.7304 33.7571C50.4221 34.188 49.9946 34.526 49.4477 34.7713C48.9041 35.0166 48.2794 35.1392 47.5734 35.1392ZM47.5734 33.8814C47.9943 33.8814 48.3589 33.8118 48.6672 33.6726C48.9754 33.5301 49.214 33.3329 49.3831 33.081C49.5521 32.8258 49.6383 32.5275 49.6416 32.1861C49.6383 31.8314 49.5455 31.5182 49.3632 31.2464C49.1842 30.9747 48.9406 30.7609 48.6324 30.6051C48.3241 30.4493 47.9711 30.3714 47.5734 30.3714C47.1724 30.3714 46.8161 30.4493 46.5045 30.6051C46.193 30.7609 45.9477 30.9747 45.7687 31.2464C45.5898 31.5182 45.5019 31.8314 45.5052 32.1861C45.5019 32.5275 45.5831 32.8258 45.7488 33.081C45.9179 33.3329 46.1582 33.5301 46.4697 33.6726C46.7813 33.8118 47.1492 33.8814 47.5734 33.8814ZM47.5734 29.1435C47.9115 29.1435 48.2114 29.0755 48.4733 28.9396C48.7351 28.8037 48.9406 28.6148 49.0898 28.3729C49.2422 28.1309 49.3201 27.8475 49.3234 27.5227C49.3201 27.2045 49.2439 26.9261 49.0947 26.6875C48.9489 26.4489 48.7451 26.2649 48.4832 26.1357C48.2214 26.0031 47.9181 25.9368 47.5734 25.9368C47.2221 25.9368 46.9139 26.0031 46.6487 26.1357C46.3869 26.2649 46.183 26.4489 46.0372 26.6875C45.8914 26.9261 45.8201 27.2045 45.8234 27.5227C45.8201 27.8475 45.893 28.1309 46.0422 28.3729C46.1913 28.6148 46.3968 28.8037 46.6586 28.9396C46.9238 29.0755 47.2287 29.1435 47.5734 29.1435ZM56.4335 35.169C55.648 35.1657 54.9768 34.9586 54.42 34.5476C53.8632 34.1366 53.4373 33.5384 53.1423 32.7528C52.8473 31.9673 52.6999 31.0211 52.6999 29.9141C52.6999 28.8104 52.8473 27.8674 53.1423 27.0852C53.4406 26.303 53.8682 25.7064 54.425 25.2955C54.9851 24.8845 55.6546 24.679 56.4335 24.679C57.2124 24.679 57.8803 24.8861 58.4371 25.3004C58.9939 25.7114 59.4198 26.308 59.7148 27.0902C60.0131 27.8691 60.1622 28.8104 60.1622 29.9141C60.1622 31.0244 60.0147 31.9723 59.7197 32.7578C59.4248 33.54 58.9989 34.1383 58.442 34.5526C57.8852 34.9635 57.2157 35.169 56.4335 35.169ZM56.4335 33.8416C57.1229 33.8416 57.6615 33.5052 58.0493 32.8324C58.4404 32.1596 58.6359 31.1868 58.6359 29.9141C58.6359 29.0689 58.5464 28.3546 58.3675 27.7713C58.1918 27.1847 57.9383 26.7405 57.6068 26.4389C57.2787 26.134 56.8876 25.9815 56.4335 25.9815C55.7474 25.9815 55.2089 26.3196 54.8178 26.9957C54.4267 27.6719 54.2295 28.6446 54.2261 29.9141C54.2261 30.7625 54.314 31.4801 54.4896 32.0668C54.6686 32.6501 54.9222 33.0926 55.2503 33.3942C55.5784 33.6925 55.9728 33.8416 56.4335 33.8416ZM65.3806 35.169C64.5951 35.1657 63.924 34.9586 63.3671 34.5476C62.8103 34.1366 62.3844 33.5384 62.0894 32.7528C61.7945 31.9673 61.647 31.0211 61.647 29.9141C61.647 28.8104 61.7945 27.8674 62.0894 27.0852C62.3877 26.303 62.8153 25.7064 63.3721 25.2955C63.9322 24.8845 64.6017 24.679 65.3806 24.679C66.1595 24.679 66.8274 24.8861 67.3842 25.3004C67.941 25.7114 68.3669 26.308 68.6619 27.0902C68.9602 27.8691 69.1093 28.8104 69.1093 29.9141C69.1093 31.0244 68.9618 31.9723 68.6669 32.7578C68.3719 33.54 67.946 34.1383 67.3892 34.5526C66.8323 34.9635 66.1628 35.169 65.3806 35.169ZM65.3806 33.8416C66.07 33.8416 66.6086 33.5052 66.9964 32.8324C67.3875 32.1596 67.583 31.1868 67.583 29.9141C67.583 29.0689 67.4936 28.3546 67.3146 27.7713C67.1389 27.1847 66.8854 26.7405 66.5539 26.4389C66.2258 26.134 65.8347 25.9815 65.3806 25.9815C64.6946 25.9815 64.156 26.3196 63.7649 26.9957C63.3738 27.6719 63.1766 28.6446 63.1732 29.9141C63.1732 30.7625 63.2611 31.4801 63.4367 32.0668C63.6157 32.6501 63.8693 33.0926 64.1974 33.3942C64.5255 33.6925 64.9199 33.8416 65.3806 33.8416Z" fill="white"/>
</svg>
