<svg width="240" height="40" viewBox="0 0 240 40" fill="none" xmlns="http://www.w3.org/2000/svg">
<rect width="240" height="40" fill="#236641"/>
<path d="M20.0092 18.0348C19.9131 17.7332 19.7839 17.4631 19.6214 17.2244C19.4624 16.9825 19.2718 16.777 19.0497 16.608C18.8277 16.4356 18.5741 16.3047 18.2891 16.2152C18.0073 16.1257 17.6974 16.081 17.3594 16.081C16.786 16.081 16.2689 16.2285 15.8082 16.5234C15.3475 16.8184 14.983 17.2509 14.7145 17.821C14.4493 18.3878 14.3168 19.0821 14.3168 19.9041C14.3168 20.7294 14.451 21.4271 14.7195 21.9972C14.9879 22.5672 15.3558 22.9998 15.8232 23.2947C16.2905 23.5897 16.8224 23.7372 17.419 23.7372C17.9725 23.7372 18.4548 23.6245 18.8658 23.3991C19.2801 23.1738 19.5999 22.8556 19.8253 22.4446C20.054 22.0303 20.1683 21.5431 20.1683 20.983L20.5661 21.0575H17.6527V19.7898H21.6548V20.9482C21.6548 21.8033 21.4725 22.5457 21.108 23.1754C20.7467 23.8018 20.2462 24.2857 19.6065 24.6271C18.9702 24.9685 18.241 25.1392 17.419 25.1392C16.4976 25.1392 15.6889 24.9271 14.9929 24.5028C14.3002 24.0786 13.7599 23.477 13.3722 22.6982C12.9844 21.916 12.7905 20.9879 12.7905 19.9141C12.7905 19.102 12.9032 18.3729 13.1286 17.7266C13.3539 17.0803 13.6705 16.5317 14.0781 16.081C14.4891 15.6269 14.9714 15.2805 15.5249 15.0419C16.0817 14.8 16.6899 14.679 17.3494 14.679C17.8996 14.679 18.4117 14.7602 18.8857 14.9226C19.3629 15.085 19.7872 15.3153 20.1584 15.6136C20.5329 15.9119 20.8428 16.2666 21.0881 16.6776C21.3333 17.0852 21.4991 17.5376 21.5852 18.0348H20.0092ZM23.3956 25V17.3636H24.8324V18.5767H24.912C25.0512 18.1657 25.2964 17.8426 25.6477 17.6072C26.0024 17.3686 26.4034 17.2493 26.8509 17.2493C26.9437 17.2493 27.0531 17.2526 27.179 17.2592C27.3083 17.2659 27.4093 17.2741 27.4823 17.2841V18.706C27.4226 18.6894 27.3165 18.6712 27.1641 18.6513C27.0116 18.6281 26.8592 18.6165 26.7067 18.6165C26.3554 18.6165 26.0422 18.6911 25.7671 18.8402C25.4953 18.986 25.2799 19.1899 25.1208 19.4517C24.9617 19.7102 24.8821 20.0052 24.8821 20.3366V25H23.3956ZM31.6964 25.1541C30.9441 25.1541 30.2961 24.9934 29.7525 24.6719C29.2123 24.3471 28.7947 23.8913 28.4997 23.3047C28.208 22.7147 28.0622 22.0237 28.0622 21.2315C28.0622 20.4493 28.208 19.7599 28.4997 19.1634C28.7947 18.5668 29.2057 18.1011 29.7326 17.7663C30.2629 17.4316 30.8827 17.2642 31.592 17.2642C32.0229 17.2642 32.4405 17.3355 32.8449 17.478C33.2492 17.6205 33.6121 17.8442 33.9336 18.1491C34.2551 18.4541 34.5087 18.8501 34.6943 19.3374C34.8799 19.8213 34.9727 20.4096 34.9727 21.1023V21.6293H28.9024V20.5156H33.516C33.516 20.1245 33.4365 19.7782 33.2774 19.4766C33.1183 19.1716 32.8946 18.9313 32.6062 18.7557C32.3212 18.58 31.9864 18.4922 31.602 18.4922C31.1843 18.4922 30.8198 18.5949 30.5082 18.8004C30.2 19.0026 29.9613 19.2678 29.7923 19.5959C29.6266 19.9207 29.5437 20.2737 29.5437 20.6548V21.5249C29.5437 22.0353 29.6332 22.4695 29.8122 22.8274C29.9945 23.1854 30.248 23.4588 30.5728 23.6477C30.8977 23.8333 31.2771 23.9261 31.7113 23.9261C31.9931 23.9261 32.2499 23.8864 32.4819 23.8068C32.7139 23.724 32.9145 23.6013 33.0835 23.4389C33.2525 23.2765 33.3818 23.076 33.4713 22.8374L34.8782 23.0909C34.7655 23.5052 34.5634 23.8681 34.2717 24.1797C33.9834 24.4879 33.6204 24.7282 33.1829 24.9006C32.7487 25.0696 32.2532 25.1541 31.6964 25.1541ZM39.8232 25.1541C39.0708 25.1541 38.4229 24.9934 37.8793 24.6719C37.3391 24.3471 36.9215 23.8913 36.6265 23.3047C36.3348 22.7147 36.189 22.0237 36.189 21.2315C36.189 20.4493 36.3348 19.7599 36.6265 19.1634C36.9215 18.5668 37.3324 18.1011 37.8594 17.7663C38.3897 17.4316 39.0095 17.2642 39.7188 17.2642C40.1497 17.2642 40.5673 17.3355 40.9717 17.478C41.376 17.6205 41.7389 17.8442 42.0604 18.1491C42.3819 18.4541 42.6355 18.8501 42.8211 19.3374C43.0067 19.8213 43.0995 20.4096 43.0995 21.1023V21.6293H37.0292V20.5156H41.6428C41.6428 20.1245 41.5633 19.7782 41.4042 19.4766C41.2451 19.1716 41.0214 18.9313 40.733 18.7557C40.448 18.58 40.1132 18.4922 39.7288 18.4922C39.3111 18.4922 38.9466 18.5949 38.635 18.8004C38.3268 19.0026 38.0881 19.2678 37.9191 19.5959C37.7534 19.9207 37.6705 20.2737 37.6705 20.6548V21.5249C37.6705 22.0353 37.76 22.4695 37.939 22.8274C38.1213 23.1854 38.3748 23.4588 38.6996 23.6477C39.0244 23.8333 39.4039 23.9261 39.8381 23.9261C40.1199 23.9261 40.3767 23.8864 40.6087 23.8068C40.8407 23.724 41.0413 23.6013 41.2103 23.4389C41.3793 23.2765 41.5086 23.076 41.5981 22.8374L43.005 23.0909C42.8923 23.5052 42.6902 23.8681 42.3985 24.1797C42.1101 24.4879 41.7472 24.7282 41.3097 24.9006C40.8755 25.0696 40.38 25.1541 39.8232 25.1541ZM46.1453 20.4659V25H44.6588V17.3636H46.0857V18.6065H46.1801C46.3558 18.2022 46.6309 17.8774 47.0054 17.6321C47.3833 17.3868 47.8589 17.2642 48.4323 17.2642C48.9526 17.2642 49.4083 17.3736 49.7994 17.5923C50.1905 17.8078 50.4938 18.1293 50.7092 18.5568C50.9247 18.9844 51.0324 19.513 51.0324 20.1428V25H49.5459V20.3217C49.5459 19.7682 49.4017 19.3357 49.1134 19.0241C48.825 18.7093 48.4289 18.5518 47.9252 18.5518C47.5805 18.5518 47.2739 18.6264 47.0054 18.7756C46.7403 18.9247 46.5298 19.1435 46.374 19.4318C46.2216 19.7169 46.1453 20.0616 46.1453 20.4659ZM56.3565 25.1392C55.6439 25.1392 55.0141 25.0166 54.4673 24.7713C53.9237 24.526 53.4978 24.188 53.1896 23.7571C52.8813 23.3262 52.7289 22.8357 52.7322 22.2855C52.7289 21.8546 52.8167 21.4586 52.9957 21.0973C53.178 20.7327 53.4249 20.4295 53.7364 20.1875C54.048 19.9422 54.396 19.7865 54.7805 19.7202V19.6605C54.2734 19.5379 53.8674 19.2661 53.5624 18.8452C53.2575 18.4242 53.1067 17.9403 53.11 17.3935C53.1067 16.8731 53.2442 16.4091 53.5227 16.0014C53.8044 15.5904 54.1905 15.2673 54.681 15.032C55.1716 14.7966 55.73 14.679 56.3565 14.679C56.9763 14.679 57.5298 14.7983 58.017 15.0369C58.5075 15.2723 58.8936 15.5954 59.1754 16.0064C59.4571 16.4141 59.5996 16.8764 59.6029 17.3935C59.5996 17.9403 59.4438 18.4242 59.1356 18.8452C58.8273 19.2661 58.4263 19.5379 57.9325 19.6605V19.7202C58.3136 19.7865 58.6567 19.9422 58.9616 20.1875C59.2698 20.4295 59.5151 20.7327 59.6974 21.0973C59.883 21.4586 59.9774 21.8546 59.9808 22.2855C59.9774 22.8357 59.8217 23.3262 59.5134 23.7571C59.2052 24.188 58.7776 24.526 58.2308 24.7713C57.6872 25.0166 57.0624 25.1392 56.3565 25.1392ZM56.3565 23.8814C56.7774 23.8814 57.142 23.8118 57.4502 23.6726C57.7585 23.5301 57.9971 23.3329 58.1661 23.081C58.3352 22.8258 58.4213 22.5275 58.4246 22.1861C58.4213 21.8314 58.3285 21.5182 58.1462 21.2464C57.9673 20.9747 57.7237 20.7609 57.4154 20.6051C57.1072 20.4493 56.7542 20.3714 56.3565 20.3714C55.9554 20.3714 55.5991 20.4493 55.2876 20.6051C54.976 20.7609 54.7308 20.9747 54.5518 21.2464C54.3728 21.5182 54.285 21.8314 54.2883 22.1861C54.285 22.5275 54.3662 22.8258 54.5319 23.081C54.7009 23.3329 54.9412 23.5301 55.2528 23.6726C55.5643 23.8118 55.9322 23.8814 56.3565 23.8814ZM56.3565 19.1435C56.6945 19.1435 56.9945 19.0755 57.2563 18.9396C57.5182 18.8037 57.7237 18.6148 57.8728 18.3729C58.0253 18.1309 58.1031 17.8475 58.1065 17.5227C58.1031 17.2045 58.0269 16.9261 57.8778 16.6875C57.7319 16.4489 57.5281 16.2649 57.2663 16.1357C57.0044 16.0031 56.7012 15.9368 56.3565 15.9368C56.0051 15.9368 55.6969 16.0031 55.4317 16.1357C55.1699 16.2649 54.9661 16.4489 54.8202 16.6875C54.6744 16.9261 54.6031 17.2045 54.6065 17.5227C54.6031 17.8475 54.6761 18.1309 54.8252 18.3729C54.9744 18.6148 55.1799 18.8037 55.4417 18.9396C55.7068 19.0755 56.0118 19.1435 56.3565 19.1435ZM65.2166 25.169C64.4311 25.1657 63.7599 24.9586 63.2031 24.5476C62.6463 24.1366 62.2204 23.5384 61.9254 22.7528C61.6304 21.9673 61.4829 21.0211 61.4829 19.9141C61.4829 18.8104 61.6304 17.8674 61.9254 17.0852C62.2237 16.303 62.6512 15.7064 63.208 15.2955C63.7682 14.8845 64.4377 14.679 65.2166 14.679C65.9955 14.679 66.6633 14.8861 67.2201 15.3004C67.7769 15.7114 68.2028 16.308 68.4978 17.0902C68.7961 17.8691 68.9453 18.8104 68.9453 19.9141C68.9453 21.0244 68.7978 21.9723 68.5028 22.7578C68.2078 23.54 67.7819 24.1383 67.2251 24.5526C66.6683 24.9635 65.9988 25.169 65.2166 25.169ZM65.2166 23.8416C65.906 23.8416 66.4446 23.5052 66.8323 22.8324C67.2234 22.1596 67.419 21.1868 67.419 19.9141C67.419 19.0689 67.3295 18.3546 67.1505 17.7713C66.9749 17.1847 66.7213 16.7405 66.3899 16.4389C66.0617 16.134 65.6706 15.9815 65.2166 15.9815C64.5305 15.9815 63.9919 16.3196 63.6008 16.9957C63.2097 17.6719 63.0125 18.6446 63.0092 19.9141C63.0092 20.7625 63.097 21.4801 63.2727 22.0668C63.4517 22.6501 63.7052 23.0926 64.0333 23.3942C64.3615 23.6925 64.7559 23.8416 65.2166 23.8416ZM74.1637 25.169C73.3782 25.1657 72.707 24.9586 72.1502 24.5476C71.5934 24.1366 71.1675 23.5384 70.8725 22.7528C70.5775 21.9673 70.43 21.0211 70.43 19.9141C70.43 18.8104 70.5775 17.8674 70.8725 17.0852C71.1708 16.303 71.5983 15.7064 72.1552 15.2955C72.7153 14.8845 73.3848 14.679 74.1637 14.679C74.9426 14.679 75.6104 14.8861 76.1672 15.3004C76.724 15.7114 77.1499 16.308 77.4449 17.0902C77.7432 17.8691 77.8924 18.8104 77.8924 19.9141C77.8924 21.0244 77.7449 21.9723 77.4499 22.7578C77.1549 23.54 76.729 24.1383 76.1722 24.5526C75.6154 24.9635 74.9459 25.169 74.1637 25.169ZM74.1637 23.8416C74.8531 23.8416 75.3917 23.5052 75.7794 22.8324C76.1705 22.1596 76.3661 21.1868 76.3661 19.9141C76.3661 19.0689 76.2766 18.3546 76.0976 17.7713C75.922 17.1847 75.6684 16.7405 75.337 16.4389C75.0088 16.134 74.6178 15.9815 74.1637 15.9815C73.4776 15.9815 72.939 16.3196 72.5479 16.9957C72.1568 17.6719 71.9596 18.6446 71.9563 19.9141C71.9563 20.7625 72.0441 21.4801 72.2198 22.0668C72.3988 22.6501 72.6523 23.0926 72.9804 23.3942C73.3086 23.6925 73.703 23.8416 74.1637 23.8416Z" fill="white"/>
</svg>
