<svg width="240" height="40" viewBox="0 0 240 40" fill="none" xmlns="http://www.w3.org/2000/svg">
<rect width="240" height="40" fill="#4DC477"/>
<path d="M20.0092 18.0348C19.9131 17.7332 19.7839 17.4631 19.6214 17.2244C19.4624 16.9825 19.2718 16.777 19.0497 16.608C18.8277 16.4356 18.5741 16.3047 18.2891 16.2152C18.0073 16.1257 17.6974 16.081 17.3594 16.081C16.786 16.081 16.2689 16.2285 15.8082 16.5234C15.3475 16.8184 14.983 17.2509 14.7145 17.821C14.4493 18.3878 14.3168 19.0821 14.3168 19.9041C14.3168 20.7294 14.451 21.4271 14.7195 21.9972C14.9879 22.5672 15.3558 22.9998 15.8232 23.2947C16.2905 23.5897 16.8224 23.7372 17.419 23.7372C17.9725 23.7372 18.4548 23.6245 18.8658 23.3991C19.2801 23.1738 19.5999 22.8556 19.8253 22.4446C20.054 22.0303 20.1683 21.5431 20.1683 20.983L20.5661 21.0575H17.6527V19.7898H21.6548V20.9482C21.6548 21.8033 21.4725 22.5457 21.108 23.1754C20.7467 23.8018 20.2462 24.2857 19.6065 24.6271C18.9702 24.9685 18.241 25.1392 17.419 25.1392C16.4976 25.1392 15.6889 24.9271 14.9929 24.5028C14.3002 24.0786 13.7599 23.477 13.3722 22.6982C12.9844 21.916 12.7905 20.9879 12.7905 19.9141C12.7905 19.102 12.9032 18.3729 13.1286 17.7266C13.3539 17.0803 13.6705 16.5317 14.0781 16.081C14.4891 15.6269 14.9714 15.2805 15.5249 15.0419C16.0817 14.8 16.6899 14.679 17.3494 14.679C17.8996 14.679 18.4117 14.7602 18.8857 14.9226C19.3629 15.085 19.7872 15.3153 20.1584 15.6136C20.5329 15.9119 20.8428 16.2666 21.0881 16.6776C21.3333 17.0852 21.4991 17.5376 21.5852 18.0348H20.0092ZM23.3956 25V17.3636H24.8324V18.5767H24.912C25.0512 18.1657 25.2964 17.8426 25.6477 17.6072C26.0024 17.3686 26.4034 17.2493 26.8509 17.2493C26.9437 17.2493 27.0531 17.2526 27.179 17.2592C27.3083 17.2659 27.4093 17.2741 27.4823 17.2841V18.706C27.4226 18.6894 27.3165 18.6712 27.1641 18.6513C27.0116 18.6281 26.8592 18.6165 26.7067 18.6165C26.3554 18.6165 26.0422 18.6911 25.7671 18.8402C25.4953 18.986 25.2799 19.1899 25.1208 19.4517C24.9617 19.7102 24.8821 20.0052 24.8821 20.3366V25H23.3956ZM31.6964 25.1541C30.9441 25.1541 30.2961 24.9934 29.7525 24.6719C29.2123 24.3471 28.7947 23.8913 28.4997 23.3047C28.208 22.7147 28.0622 22.0237 28.0622 21.2315C28.0622 20.4493 28.208 19.7599 28.4997 19.1634C28.7947 18.5668 29.2057 18.1011 29.7326 17.7663C30.2629 17.4316 30.8827 17.2642 31.592 17.2642C32.0229 17.2642 32.4405 17.3355 32.8449 17.478C33.2492 17.6205 33.6121 17.8442 33.9336 18.1491C34.2551 18.4541 34.5087 18.8501 34.6943 19.3374C34.8799 19.8213 34.9727 20.4096 34.9727 21.1023V21.6293H28.9024V20.5156H33.516C33.516 20.1245 33.4365 19.7782 33.2774 19.4766C33.1183 19.1716 32.8946 18.9313 32.6062 18.7557C32.3212 18.58 31.9864 18.4922 31.602 18.4922C31.1843 18.4922 30.8198 18.5949 30.5082 18.8004C30.2 19.0026 29.9613 19.2678 29.7923 19.5959C29.6266 19.9207 29.5437 20.2737 29.5437 20.6548V21.5249C29.5437 22.0353 29.6332 22.4695 29.8122 22.8274C29.9945 23.1854 30.248 23.4588 30.5728 23.6477C30.8977 23.8333 31.2771 23.9261 31.7113 23.9261C31.9931 23.9261 32.2499 23.8864 32.4819 23.8068C32.7139 23.724 32.9145 23.6013 33.0835 23.4389C33.2525 23.2765 33.3818 23.076 33.4713 22.8374L34.8782 23.0909C34.7655 23.5052 34.5634 23.8681 34.2717 24.1797C33.9834 24.4879 33.6204 24.7282 33.1829 24.9006C32.7487 25.0696 32.2532 25.1541 31.6964 25.1541ZM39.8232 25.1541C39.0708 25.1541 38.4229 24.9934 37.8793 24.6719C37.3391 24.3471 36.9215 23.8913 36.6265 23.3047C36.3348 22.7147 36.189 22.0237 36.189 21.2315C36.189 20.4493 36.3348 19.7599 36.6265 19.1634C36.9215 18.5668 37.3324 18.1011 37.8594 17.7663C38.3897 17.4316 39.0095 17.2642 39.7188 17.2642C40.1497 17.2642 40.5673 17.3355 40.9717 17.478C41.376 17.6205 41.7389 17.8442 42.0604 18.1491C42.3819 18.4541 42.6355 18.8501 42.8211 19.3374C43.0067 19.8213 43.0995 20.4096 43.0995 21.1023V21.6293H37.0292V20.5156H41.6428C41.6428 20.1245 41.5633 19.7782 41.4042 19.4766C41.2451 19.1716 41.0214 18.9313 40.733 18.7557C40.448 18.58 40.1132 18.4922 39.7288 18.4922C39.3111 18.4922 38.9466 18.5949 38.635 18.8004C38.3268 19.0026 38.0881 19.2678 37.9191 19.5959C37.7534 19.9207 37.6705 20.2737 37.6705 20.6548V21.5249C37.6705 22.0353 37.76 22.4695 37.939 22.8274C38.1213 23.1854 38.3748 23.4588 38.6996 23.6477C39.0244 23.8333 39.4039 23.9261 39.8381 23.9261C40.1199 23.9261 40.3767 23.8864 40.6087 23.8068C40.8407 23.724 41.0413 23.6013 41.2103 23.4389C41.3793 23.2765 41.5086 23.076 41.5981 22.8374L43.005 23.0909C42.8923 23.5052 42.6902 23.8681 42.3985 24.1797C42.1101 24.4879 41.7472 24.7282 41.3097 24.9006C40.8755 25.0696 40.38 25.1541 39.8232 25.1541ZM46.1453 20.4659V25H44.6588V17.3636H46.0857V18.6065H46.1801C46.3558 18.2022 46.6309 17.8774 47.0054 17.6321C47.3833 17.3868 47.8589 17.2642 48.4323 17.2642C48.9526 17.2642 49.4083 17.3736 49.7994 17.5923C50.1905 17.8078 50.4938 18.1293 50.7092 18.5568C50.9247 18.9844 51.0324 19.513 51.0324 20.1428V25H49.5459V20.3217C49.5459 19.7682 49.4017 19.3357 49.1134 19.0241C48.825 18.7093 48.4289 18.5518 47.9252 18.5518C47.5805 18.5518 47.2739 18.6264 47.0054 18.7756C46.7403 18.9247 46.5298 19.1435 46.374 19.4318C46.2216 19.7169 46.1453 20.0616 46.1453 20.4659ZM56.2769 25.1392C55.6538 25.1392 55.0937 25.0199 54.5965 24.7812C54.1027 24.5393 53.7083 24.2079 53.4133 23.7869C53.1183 23.366 52.9609 22.8854 52.941 22.3452H54.4325C54.4689 22.7827 54.6628 23.1423 55.0141 23.424C55.3655 23.7057 55.7864 23.8466 56.2769 23.8466C56.668 23.8466 57.0144 23.7571 57.316 23.5781C57.6209 23.3958 57.8595 23.1456 58.0319 22.8274C58.2076 22.5092 58.2954 22.1463 58.2954 21.7386C58.2954 21.3243 58.2059 20.9548 58.0269 20.63C57.8479 20.3052 57.601 20.05 57.2861 19.8643C56.9746 19.6787 56.6166 19.5843 56.2123 19.581C55.904 19.581 55.5942 19.634 55.2826 19.7401C54.971 19.8461 54.7192 19.9853 54.5269 20.1577L53.12 19.9489L53.6917 14.8182H59.2897V16.1357H54.9694L54.6462 18.9844H54.7059C54.9048 18.7921 55.1683 18.6314 55.4964 18.5021C55.8278 18.3729 56.1825 18.3082 56.5603 18.3082C57.1801 18.3082 57.7319 18.4557 58.2158 18.7507C58.7031 19.0457 59.0859 19.4484 59.3643 19.9588C59.646 20.4659 59.7852 21.0492 59.7819 21.7088C59.7852 22.3684 59.6361 22.9567 59.3344 23.4737C59.0362 23.9908 58.6219 24.3984 58.0915 24.6967C57.5646 24.9917 56.9597 25.1392 56.2769 25.1392ZM65.0525 25.169C64.267 25.1657 63.5958 24.9586 63.039 24.5476C62.4822 24.1366 62.0563 23.5384 61.7613 22.7528C61.4663 21.9673 61.3188 21.0211 61.3188 19.9141C61.3188 18.8104 61.4663 17.8674 61.7613 17.0852C62.0596 16.303 62.4872 15.7064 63.044 15.2955C63.6041 14.8845 64.2736 14.679 65.0525 14.679C65.8314 14.679 66.4992 14.8861 67.0561 15.3004C67.6129 15.7114 68.0388 16.308 68.3338 17.0902C68.6321 17.8691 68.7812 18.8104 68.7812 19.9141C68.7812 21.0244 68.6337 21.9723 68.3387 22.7578C68.0437 23.54 67.6178 24.1383 67.061 24.5526C66.5042 24.9635 65.8347 25.169 65.0525 25.169ZM65.0525 23.8416C65.7419 23.8416 66.2805 23.5052 66.6683 22.8324C67.0594 22.1596 67.2549 21.1868 67.2549 19.9141C67.2549 19.0689 67.1654 18.3546 66.9865 17.7713C66.8108 17.1847 66.5572 16.7405 66.2258 16.4389C65.8977 16.134 65.5066 15.9815 65.0525 15.9815C64.3664 15.9815 63.8278 16.3196 63.4367 16.9957C63.0456 17.6719 62.8484 18.6446 62.8451 19.9141C62.8451 20.7625 62.933 21.4801 63.1086 22.0668C63.2876 22.6501 63.5411 23.0926 63.8693 23.3942C64.1974 23.6925 64.5918 23.8416 65.0525 23.8416ZM73.9996 25.169C73.2141 25.1657 72.5429 24.9586 71.9861 24.5476C71.4293 24.1366 71.0034 23.5384 70.7084 22.7528C70.4134 21.9673 70.266 21.0211 70.266 19.9141C70.266 18.8104 70.4134 17.8674 70.7084 17.0852C71.0067 16.303 71.4343 15.7064 71.9911 15.2955C72.5512 14.8845 73.2207 14.679 73.9996 14.679C74.7785 14.679 75.4463 14.8861 76.0032 15.3004C76.56 15.7114 76.9859 16.308 77.2809 17.0902C77.5792 17.8691 77.7283 18.8104 77.7283 19.9141C77.7283 21.0244 77.5808 21.9723 77.2858 22.7578C76.9909 23.54 76.565 24.1383 76.0081 24.5526C75.4513 24.9635 74.7818 25.169 73.9996 25.169ZM73.9996 23.8416C74.689 23.8416 75.2276 23.5052 75.6154 22.8324C76.0065 22.1596 76.202 21.1868 76.202 19.9141C76.202 19.0689 76.1125 18.3546 75.9336 17.7713C75.7579 17.1847 75.5044 16.7405 75.1729 16.4389C74.8448 16.134 74.4537 15.9815 73.9996 15.9815C73.3135 15.9815 72.7749 16.3196 72.3838 16.9957C71.9927 17.6719 71.7955 18.6446 71.7922 19.9141C71.7922 20.7625 71.8801 21.4801 72.0557 22.0668C72.2347 22.6501 72.4883 23.0926 72.8164 23.3942C73.1445 23.6925 73.5389 23.8416 73.9996 23.8416Z" fill="white"/>
</svg>
