<svg width="342" height="40" viewBox="0 0 342 40" fill="none" xmlns="http://www.w3.org/2000/svg">
<rect width="341.333" height="40" fill="#77E9AC"/>
<path d="M20.0092 18.0348C19.9131 17.7332 19.7839 17.4631 19.6214 17.2244C19.4624 16.9825 19.2718 16.777 19.0497 16.608C18.8277 16.4356 18.5741 16.3047 18.2891 16.2152C18.0073 16.1257 17.6974 16.081 17.3594 16.081C16.786 16.081 16.2689 16.2285 15.8082 16.5234C15.3475 16.8184 14.983 17.2509 14.7145 17.821C14.4493 18.3878 14.3168 19.0821 14.3168 19.9041C14.3168 20.7294 14.451 21.4271 14.7195 21.9972C14.9879 22.5672 15.3558 22.9998 15.8232 23.2947C16.2905 23.5897 16.8224 23.7372 17.419 23.7372C17.9725 23.7372 18.4548 23.6245 18.8658 23.3991C19.2801 23.1738 19.5999 22.8556 19.8253 22.4446C20.054 22.0303 20.1683 21.5431 20.1683 20.983L20.5661 21.0575H17.6527V19.7898H21.6548V20.9482C21.6548 21.8033 21.4725 22.5457 21.108 23.1754C20.7467 23.8018 20.2462 24.2857 19.6065 24.6271C18.9702 24.9685 18.241 25.1392 17.419 25.1392C16.4976 25.1392 15.6889 24.9271 14.9929 24.5028C14.3002 24.0786 13.7599 23.477 13.3722 22.6982C12.9844 21.916 12.7905 20.9879 12.7905 19.9141C12.7905 19.102 12.9032 18.3729 13.1286 17.7266C13.3539 17.0803 13.6705 16.5317 14.0781 16.081C14.4891 15.6269 14.9714 15.2805 15.5249 15.0419C16.0817 14.8 16.6899 14.679 17.3494 14.679C17.8996 14.679 18.4117 14.7602 18.8857 14.9226C19.3629 15.085 19.7872 15.3153 20.1584 15.6136C20.5329 15.9119 20.8428 16.2666 21.0881 16.6776C21.3333 17.0852 21.4991 17.5376 21.5852 18.0348H20.0092ZM23.4856 25V17.3636H24.9224V18.5767H25.002C25.1412 18.1657 25.3864 17.8426 25.7377 17.6072C26.0924 17.3686 26.4934 17.2493 26.9409 17.2493C27.0337 17.2493 27.1431 17.2526 27.269 17.2592C27.3983 17.2659 27.4993 17.2741 27.5723 17.2841V18.706C27.5126 18.6894 27.4065 18.6712 27.2541 18.6513C27.1016 18.6281 26.9492 18.6165 26.7967 18.6165C26.4454 18.6165 26.1322 18.6911 25.8571 18.8402C25.5853 18.986 25.3699 19.1899 25.2108 19.4517C25.0517 19.7102 24.9721 20.0052 24.9721 20.3366V25H23.4856ZM31.8764 25.1541C31.1241 25.1541 30.4761 24.9934 29.9325 24.6719C29.3923 24.3471 28.9747 23.8913 28.6797 23.3047C28.388 22.7147 28.2422 22.0237 28.2422 21.2315C28.2422 20.4493 28.388 19.7599 28.6797 19.1634C28.9747 18.5668 29.3857 18.1011 29.9126 17.7663C30.4429 17.4316 31.0627 17.2642 31.772 17.2642C32.2029 17.2642 32.6205 17.3355 33.0249 17.478C33.4292 17.6205 33.7921 17.8442 34.1136 18.1491C34.4351 18.4541 34.6887 18.8501 34.8743 19.3374C35.0599 19.8213 35.1527 20.4096 35.1527 21.1023V21.6293H29.0824V20.5156H33.696C33.696 20.1245 33.6165 19.7782 33.4574 19.4766C33.2983 19.1716 33.0746 18.9313 32.7862 18.7557C32.5012 18.58 32.1664 18.4922 31.782 18.4922C31.3643 18.4922 30.9998 18.5949 30.6882 18.8004C30.38 19.0026 30.1413 19.2678 29.9723 19.5959C29.8066 19.9207 29.7237 20.2737 29.7237 20.6548V21.5249C29.7237 22.0353 29.8132 22.4695 29.9922 22.8274C30.1745 23.1854 30.428 23.4588 30.7528 23.6477C31.0777 23.8333 31.4571 23.9261 31.8913 23.9261C32.1731 23.9261 32.4299 23.8864 32.6619 23.8068C32.8939 23.724 33.0945 23.6013 33.2635 23.4389C33.4325 23.2765 33.5618 23.076 33.6513 22.8374L35.0582 23.0909C34.9455 23.5052 34.7434 23.8681 34.4517 24.1797C34.1634 24.4879 33.8004 24.7282 33.3629 24.9006C32.9287 25.0696 32.4332 25.1541 31.8764 25.1541ZM40.0932 25.1541C39.3408 25.1541 38.6929 24.9934 38.1493 24.6719C37.6091 24.3471 37.1915 23.8913 36.8965 23.3047C36.6048 22.7147 36.459 22.0237 36.459 21.2315C36.459 20.4493 36.6048 19.7599 36.8965 19.1634C37.1915 18.5668 37.6025 18.1011 38.1294 17.7663C38.6597 17.4316 39.2795 17.2642 39.9888 17.2642C40.4197 17.2642 40.8373 17.3355 41.2417 17.478C41.646 17.6205 42.0089 17.8442 42.3304 18.1491C42.6519 18.4541 42.9055 18.8501 43.0911 19.3374C43.2767 19.8213 43.3695 20.4096 43.3695 21.1023V21.6293H37.2992V20.5156H41.9128C41.9128 20.1245 41.8333 19.7782 41.6742 19.4766C41.5151 19.1716 41.2914 18.9313 41.003 18.7557C40.718 18.58 40.3832 18.4922 39.9988 18.4922C39.5811 18.4922 39.2166 18.5949 38.905 18.8004C38.5968 19.0026 38.3581 19.2678 38.1891 19.5959C38.0234 19.9207 37.9405 20.2737 37.9405 20.6548V21.5249C37.9405 22.0353 38.03 22.4695 38.209 22.8274C38.3913 23.1854 38.6448 23.4588 38.9696 23.6477C39.2944 23.8333 39.6739 23.9261 40.1081 23.9261C40.3899 23.9261 40.6467 23.8864 40.8787 23.8068C41.1107 23.724 41.3113 23.6013 41.4803 23.4389C41.6493 23.2765 41.7786 23.076 41.8681 22.8374L43.275 23.0909C43.1623 23.5052 42.9602 23.8681 42.6685 24.1797C42.3801 24.4879 42.0172 24.7282 41.5797 24.9006C41.1455 25.0696 40.65 25.1541 40.0932 25.1541ZM46.5053 20.4659V25H45.0188V17.3636H46.4457V18.6065H46.5401C46.7158 18.2022 46.9909 17.8774 47.3654 17.6321C47.7433 17.3868 48.2189 17.2642 48.7923 17.2642C49.3126 17.2642 49.7683 17.3736 50.1594 17.5923C50.5505 17.8078 50.8538 18.1293 51.0692 18.5568C51.2847 18.9844 51.3924 19.513 51.3924 20.1428V25H49.9059V20.3217C49.9059 19.7682 49.7617 19.3357 49.4734 19.0241C49.185 18.7093 48.7889 18.5518 48.2852 18.5518C47.9405 18.5518 47.6339 18.6264 47.3654 18.7756C47.1003 18.9247 46.8898 19.1435 46.734 19.4318C46.5816 19.7169 46.5053 20.0616 46.5053 20.4659ZM56.9109 25.1392C56.2281 25.1392 55.6183 25.0215 55.0813 24.7862C54.5477 24.5509 54.1251 24.2244 53.8136 23.8068C53.5053 23.3859 53.3396 22.8987 53.3164 22.3452H54.8775C54.8974 22.6468 54.9985 22.9086 55.1808 23.1307C55.3664 23.3494 55.6083 23.5185 55.9066 23.6378C56.2049 23.7571 56.5363 23.8168 56.9009 23.8168C57.302 23.8168 57.6566 23.7472 57.9648 23.608C58.2764 23.4687 58.52 23.2749 58.6957 23.0263C58.8713 22.7744 58.9592 22.4844 58.9592 22.1562C58.9592 21.8149 58.8713 21.5149 58.6957 21.2564C58.5233 20.9946 58.2698 20.7891 57.935 20.6399C57.6036 20.4908 57.2025 20.4162 56.7319 20.4162H55.8718V19.1634H56.7319C57.1097 19.1634 57.4412 19.0954 57.7262 18.9595C58.0146 18.8236 58.2399 18.6347 58.4023 18.3928C58.5647 18.1475 58.646 17.8608 58.646 17.5327C58.646 17.2178 58.5747 16.9444 58.4322 16.7124C58.293 16.477 58.0941 16.2931 57.8356 16.1605C57.5804 16.0279 57.2788 15.9616 56.9308 15.9616C56.5993 15.9616 56.2894 16.023 56.0011 16.1456C55.716 16.2649 55.484 16.4373 55.305 16.6626C55.1261 16.8847 55.0299 17.1515 55.0167 17.4631H53.5302C53.5468 16.9129 53.7092 16.429 54.0174 16.0114C54.329 15.5937 54.7399 15.2673 55.2504 15.032C55.7608 14.7966 56.3275 14.679 56.9506 14.679C57.6036 14.679 58.167 14.8066 58.641 15.0618C59.1183 15.3137 59.4862 15.6501 59.7447 16.071C60.0065 16.492 60.1358 16.9527 60.1325 17.4531C60.1358 18.0232 59.9767 18.5071 59.6552 18.9048C59.337 19.3026 58.9128 19.5694 58.3825 19.7053V19.7848C59.0586 19.8875 59.5823 20.156 59.9535 20.5902C60.328 21.0244 60.5136 21.563 60.5103 22.206C60.5136 22.7661 60.3578 23.2682 60.043 23.7124C59.7314 24.1565 59.3055 24.5062 58.7653 24.7614C58.225 25.0133 57.6069 25.1392 56.9109 25.1392ZM65.9343 25.169C65.1488 25.1657 64.4776 24.9586 63.9208 24.5476C63.364 24.1366 62.9381 23.5384 62.6431 22.7528C62.3481 21.9673 62.2006 21.0211 62.2006 19.9141C62.2006 18.8104 62.3481 17.8674 62.6431 17.0852C62.9414 16.303 63.369 15.7064 63.9258 15.2955C64.4859 14.8845 65.1554 14.679 65.9343 14.679C66.7132 14.679 67.381 14.8861 67.9379 15.3004C68.4947 15.7114 68.9206 16.308 69.2156 17.0902C69.5138 17.8691 69.663 18.8104 69.663 19.9141C69.663 21.0244 69.5155 21.9723 69.2205 22.7578C68.9255 23.54 68.4996 24.1383 67.9428 24.5526C67.386 24.9635 66.7165 25.169 65.9343 25.169ZM65.9343 23.8416C66.6237 23.8416 67.1623 23.5052 67.5501 22.8324C67.9412 22.1596 68.1367 21.1868 68.1367 19.9141C68.1367 19.0689 68.0472 18.3546 67.8683 17.7713C67.6926 17.1847 67.439 16.7405 67.1076 16.4389C66.7795 16.134 66.3884 15.9815 65.9343 15.9815C65.2482 15.9815 64.7096 16.3196 64.3185 16.9957C63.9274 17.6719 63.7302 18.6446 63.7269 19.9141C63.7269 20.7625 63.8147 21.4801 63.9904 22.0668C64.1694 22.6501 64.4229 23.0926 64.7511 23.3942C65.0792 23.6925 65.4736 23.8416 65.9343 23.8416ZM74.9714 25.169C74.1859 25.1657 73.5147 24.9586 72.9579 24.5476C72.4011 24.1366 71.9752 23.5384 71.6802 22.7528C71.3852 21.9673 71.2377 21.0211 71.2377 19.9141C71.2377 18.8104 71.3852 17.8674 71.6802 17.0852C71.9785 16.303 72.4061 15.7064 72.9629 15.2955C73.523 14.8845 74.1925 14.679 74.9714 14.679C75.7503 14.679 76.4181 14.8861 76.975 15.3004C77.5318 15.7114 77.9577 16.308 78.2527 17.0902C78.551 17.8691 78.7001 18.8104 78.7001 19.9141C78.7001 21.0244 78.5526 21.9723 78.2576 22.7578C77.9627 23.54 77.5368 24.1383 76.9799 24.5526C76.4231 24.9635 75.7536 25.169 74.9714 25.169ZM74.9714 23.8416C75.6608 23.8416 76.1994 23.5052 76.5872 22.8324C76.9783 22.1596 77.1738 21.1868 77.1738 19.9141C77.1738 19.0689 77.0843 18.3546 76.9054 17.7713C76.7297 17.1847 76.4761 16.7405 76.1447 16.4389C75.8166 16.134 75.4255 15.9815 74.9714 15.9815C74.2853 15.9815 73.7467 16.3196 73.3556 16.9957C72.9645 17.6719 72.7673 18.6446 72.764 19.9141C72.764 20.7625 72.8519 21.4801 73.0275 22.0668C73.2065 22.6501 73.46 23.0926 73.7882 23.3942C74.1163 23.6925 74.5107 23.8416 74.9714 23.8416Z" fill="#0A0A0B"/>
</svg>
