<svg width="240" height="40" viewBox="0 0 240 40" fill="none" xmlns="http://www.w3.org/2000/svg">
<path d="M0 10C0 4.47715 4.47715 0 10 0H230C235.523 0 240 4.47715 240 10V40H0V10Z" fill="#DBFFDD"/>
<path d="M20.0092 18.0348C19.9131 17.7332 19.7839 17.4631 19.6214 17.2244C19.4624 16.9825 19.2718 16.777 19.0497 16.608C18.8277 16.4356 18.5741 16.3047 18.2891 16.2152C18.0073 16.1257 17.6974 16.081 17.3594 16.081C16.786 16.081 16.2689 16.2285 15.8082 16.5234C15.3475 16.8184 14.983 17.2509 14.7145 17.821C14.4493 18.3878 14.3168 19.0821 14.3168 19.9041C14.3168 20.7294 14.451 21.4271 14.7195 21.9972C14.9879 22.5672 15.3558 22.9998 15.8232 23.2947C16.2905 23.5897 16.8224 23.7372 17.419 23.7372C17.9725 23.7372 18.4548 23.6245 18.8658 23.3991C19.2801 23.1738 19.5999 22.8556 19.8253 22.4446C20.054 22.0303 20.1683 21.5431 20.1683 20.983L20.5661 21.0575H17.6527V19.7898H21.6548V20.9482C21.6548 21.8033 21.4725 22.5457 21.108 23.1754C20.7467 23.8018 20.2462 24.2857 19.6065 24.6271C18.9702 24.9685 18.241 25.1392 17.419 25.1392C16.4976 25.1392 15.6889 24.9271 14.9929 24.5028C14.3002 24.0786 13.7599 23.477 13.3722 22.6982C12.9844 21.916 12.7905 20.9879 12.7905 19.9141C12.7905 19.102 12.9032 18.3729 13.1286 17.7266C13.3539 17.0803 13.6705 16.5317 14.0781 16.081C14.4891 15.6269 14.9714 15.2805 15.5249 15.0419C16.0817 14.8 16.6899 14.679 17.3494 14.679C17.8996 14.679 18.4117 14.7602 18.8857 14.9226C19.3629 15.085 19.7872 15.3153 20.1584 15.6136C20.5329 15.9119 20.8428 16.2666 21.0881 16.6776C21.3333 17.0852 21.4991 17.5376 21.5852 18.0348H20.0092ZM23.3956 25V17.3636H24.8324V18.5767H24.912C25.0512 18.1657 25.2964 17.8426 25.6477 17.6072C26.0024 17.3686 26.4034 17.2493 26.8509 17.2493C26.9437 17.2493 27.0531 17.2526 27.179 17.2592C27.3083 17.2659 27.4093 17.2741 27.4823 17.2841V18.706C27.4226 18.6894 27.3165 18.6712 27.1641 18.6513C27.0116 18.6281 26.8592 18.6165 26.7067 18.6165C26.3554 18.6165 26.0422 18.6911 25.7671 18.8402C25.4953 18.986 25.2799 19.1899 25.1208 19.4517C24.9617 19.7102 24.8821 20.0052 24.8821 20.3366V25H23.3956ZM31.6964 25.1541C30.9441 25.1541 30.2961 24.9934 29.7525 24.6719C29.2123 24.3471 28.7947 23.8913 28.4997 23.3047C28.208 22.7147 28.0622 22.0237 28.0622 21.2315C28.0622 20.4493 28.208 19.7599 28.4997 19.1634C28.7947 18.5668 29.2057 18.1011 29.7326 17.7663C30.2629 17.4316 30.8827 17.2642 31.592 17.2642C32.0229 17.2642 32.4405 17.3355 32.8449 17.478C33.2492 17.6205 33.6121 17.8442 33.9336 18.1491C34.2551 18.4541 34.5087 18.8501 34.6943 19.3374C34.8799 19.8213 34.9727 20.4096 34.9727 21.1023V21.6293H28.9024V20.5156H33.516C33.516 20.1245 33.4365 19.7782 33.2774 19.4766C33.1183 19.1716 32.8946 18.9313 32.6062 18.7557C32.3212 18.58 31.9864 18.4922 31.602 18.4922C31.1843 18.4922 30.8198 18.5949 30.5082 18.8004C30.2 19.0026 29.9613 19.2678 29.7923 19.5959C29.6266 19.9207 29.5437 20.2737 29.5437 20.6548V21.5249C29.5437 22.0353 29.6332 22.4695 29.8122 22.8274C29.9945 23.1854 30.248 23.4588 30.5728 23.6477C30.8977 23.8333 31.2771 23.9261 31.7113 23.9261C31.9931 23.9261 32.2499 23.8864 32.4819 23.8068C32.7139 23.724 32.9145 23.6013 33.0835 23.4389C33.2525 23.2765 33.3818 23.076 33.4713 22.8374L34.8782 23.0909C34.7655 23.5052 34.5634 23.8681 34.2717 24.1797C33.9834 24.4879 33.6204 24.7282 33.1829 24.9006C32.7487 25.0696 32.2532 25.1541 31.6964 25.1541ZM39.8232 25.1541C39.0708 25.1541 38.4229 24.9934 37.8793 24.6719C37.3391 24.3471 36.9215 23.8913 36.6265 23.3047C36.3348 22.7147 36.189 22.0237 36.189 21.2315C36.189 20.4493 36.3348 19.7599 36.6265 19.1634C36.9215 18.5668 37.3324 18.1011 37.8594 17.7663C38.3897 17.4316 39.0095 17.2642 39.7188 17.2642C40.1497 17.2642 40.5673 17.3355 40.9717 17.478C41.376 17.6205 41.7389 17.8442 42.0604 18.1491C42.3819 18.4541 42.6355 18.8501 42.8211 19.3374C43.0067 19.8213 43.0995 20.4096 43.0995 21.1023V21.6293H37.0292V20.5156H41.6428C41.6428 20.1245 41.5633 19.7782 41.4042 19.4766C41.2451 19.1716 41.0214 18.9313 40.733 18.7557C40.448 18.58 40.1132 18.4922 39.7288 18.4922C39.3111 18.4922 38.9466 18.5949 38.635 18.8004C38.3268 19.0026 38.0881 19.2678 37.9191 19.5959C37.7534 19.9207 37.6705 20.2737 37.6705 20.6548V21.5249C37.6705 22.0353 37.76 22.4695 37.939 22.8274C38.1213 23.1854 38.3748 23.4588 38.6996 23.6477C39.0244 23.8333 39.4039 23.9261 39.8381 23.9261C40.1199 23.9261 40.3767 23.8864 40.6087 23.8068C40.8407 23.724 41.0413 23.6013 41.2103 23.4389C41.3793 23.2765 41.5086 23.076 41.5981 22.8374L43.005 23.0909C42.8923 23.5052 42.6902 23.8681 42.3985 24.1797C42.1101 24.4879 41.7472 24.7282 41.3097 24.9006C40.8755 25.0696 40.38 25.1541 39.8232 25.1541ZM46.1453 20.4659V25H44.6588V17.3636H46.0857V18.6065H46.1801C46.3558 18.2022 46.6309 17.8774 47.0054 17.6321C47.3833 17.3868 47.8589 17.2642 48.4323 17.2642C48.9526 17.2642 49.4083 17.3736 49.7994 17.5923C50.1905 17.8078 50.4938 18.1293 50.7092 18.5568C50.9247 18.9844 51.0324 19.513 51.0324 20.1428V25H49.5459V20.3217C49.5459 19.7682 49.4017 19.3357 49.1134 19.0241C48.825 18.7093 48.4289 18.5518 47.9252 18.5518C47.5805 18.5518 47.2739 18.6264 47.0054 18.7756C46.7403 18.9247 46.5298 19.1435 46.374 19.4318C46.2216 19.7169 46.1453 20.0616 46.1453 20.4659ZM56.2185 14.8182V25H54.6773V16.3594H54.6176L52.1816 17.9503V16.4787L54.7221 14.8182H56.2185ZM62.4275 25.169C61.642 25.1657 60.9708 24.9586 60.414 24.5476C59.8572 24.1366 59.4313 23.5384 59.1363 22.7528C58.8413 21.9673 58.6938 21.0211 58.6938 19.9141C58.6938 18.8104 58.8413 17.8674 59.1363 17.0852C59.4346 16.303 59.8622 15.7064 60.419 15.2955C60.9791 14.8845 61.6486 14.679 62.4275 14.679C63.2064 14.679 63.8742 14.8861 64.4311 15.3004C64.9879 15.7114 65.4138 16.308 65.7088 17.0902C66.0071 17.8691 66.1562 18.8104 66.1562 19.9141C66.1562 21.0244 66.0087 21.9723 65.7137 22.7578C65.4187 23.54 64.9928 24.1383 64.436 24.5526C63.8792 24.9635 63.2097 25.169 62.4275 25.169ZM62.4275 23.8416C63.1169 23.8416 63.6555 23.5052 64.0433 22.8324C64.4344 22.1596 64.6299 21.1868 64.6299 19.9141C64.6299 19.0689 64.5404 18.3546 64.3615 17.7713C64.1858 17.1847 63.9322 16.7405 63.6008 16.4389C63.2727 16.134 62.8816 15.9815 62.4275 15.9815C61.7414 15.9815 61.2028 16.3196 60.8117 16.9957C60.4206 17.6719 60.2234 18.6446 60.2201 19.9141C60.2201 20.7625 60.308 21.4801 60.4836 22.0668C60.6626 22.6501 60.9161 23.0926 61.2443 23.3942C61.5724 23.6925 61.9668 23.8416 62.4275 23.8416ZM71.3746 25.169C70.5891 25.1657 69.9179 24.9586 69.3611 24.5476C68.8043 24.1366 68.3784 23.5384 68.0834 22.7528C67.7884 21.9673 67.641 21.0211 67.641 19.9141C67.641 18.8104 67.7884 17.8674 68.0834 17.0852C68.3817 16.303 68.8093 15.7064 69.3661 15.2955C69.9262 14.8845 70.5957 14.679 71.3746 14.679C72.1535 14.679 72.8213 14.8861 73.3782 15.3004C73.935 15.7114 74.3609 16.308 74.6559 17.0902C74.9542 17.8691 75.1033 18.8104 75.1033 19.9141C75.1033 21.0244 74.9558 21.9723 74.6608 22.7578C74.3659 23.54 73.94 24.1383 73.3831 24.5526C72.8263 24.9635 72.1568 25.169 71.3746 25.169ZM71.3746 23.8416C72.064 23.8416 72.6026 23.5052 72.9904 22.8324C73.3815 22.1596 73.577 21.1868 73.577 19.9141C73.577 19.0689 73.4875 18.3546 73.3086 17.7713C73.1329 17.1847 72.8794 16.7405 72.5479 16.4389C72.2198 16.134 71.8287 15.9815 71.3746 15.9815C70.6885 15.9815 70.1499 16.3196 69.7588 16.9957C69.3677 17.6719 69.1705 18.6446 69.1672 19.9141C69.1672 20.7625 69.2551 21.4801 69.4307 22.0668C69.6097 22.6501 69.8633 23.0926 70.1914 23.3942C70.5195 23.6925 70.9139 23.8416 71.3746 23.8416Z" fill="black"/>
</svg>
