<svg width="342" height="40" viewBox="0 0 342 40" fill="none" xmlns="http://www.w3.org/2000/svg">
<rect width="341.333" height="40" fill="#DCF9EA"/>
<path d="M20.0092 18.0348C19.9131 17.7332 19.7839 17.4631 19.6214 17.2244C19.4624 16.9825 19.2718 16.777 19.0497 16.608C18.8277 16.4356 18.5741 16.3047 18.2891 16.2152C18.0073 16.1257 17.6974 16.081 17.3594 16.081C16.786 16.081 16.2689 16.2285 15.8082 16.5234C15.3475 16.8184 14.983 17.2509 14.7145 17.821C14.4493 18.3878 14.3168 19.0821 14.3168 19.9041C14.3168 20.7294 14.451 21.4271 14.7195 21.9972C14.9879 22.5672 15.3558 22.9998 15.8232 23.2947C16.2905 23.5897 16.8224 23.7372 17.419 23.7372C17.9725 23.7372 18.4548 23.6245 18.8658 23.3991C19.2801 23.1738 19.5999 22.8556 19.8253 22.4446C20.054 22.0303 20.1683 21.5431 20.1683 20.983L20.5661 21.0575H17.6527V19.7898H21.6548V20.9482C21.6548 21.8033 21.4725 22.5457 21.108 23.1754C20.7467 23.8018 20.2462 24.2857 19.6065 24.6271C18.9702 24.9685 18.241 25.1392 17.419 25.1392C16.4976 25.1392 15.6889 24.9271 14.9929 24.5028C14.3002 24.0786 13.7599 23.477 13.3722 22.6982C12.9844 21.916 12.7905 20.9879 12.7905 19.9141C12.7905 19.102 12.9032 18.3729 13.1286 17.7266C13.3539 17.0803 13.6705 16.5317 14.0781 16.081C14.4891 15.6269 14.9714 15.2805 15.5249 15.0419C16.0817 14.8 16.6899 14.679 17.3494 14.679C17.8996 14.679 18.4117 14.7602 18.8857 14.9226C19.3629 15.085 19.7872 15.3153 20.1584 15.6136C20.5329 15.9119 20.8428 16.2666 21.0881 16.6776C21.3333 17.0852 21.4991 17.5376 21.5852 18.0348H20.0092ZM23.4856 25V17.3636H24.9224V18.5767H25.002C25.1412 18.1657 25.3864 17.8426 25.7377 17.6072C26.0924 17.3686 26.4934 17.2493 26.9409 17.2493C27.0337 17.2493 27.1431 17.2526 27.269 17.2592C27.3983 17.2659 27.4993 17.2741 27.5723 17.2841V18.706C27.5126 18.6894 27.4065 18.6712 27.2541 18.6513C27.1016 18.6281 26.9492 18.6165 26.7967 18.6165C26.4454 18.6165 26.1322 18.6911 25.8571 18.8402C25.5853 18.986 25.3699 19.1899 25.2108 19.4517C25.0517 19.7102 24.9721 20.0052 24.9721 20.3366V25H23.4856ZM31.8764 25.1541C31.1241 25.1541 30.4761 24.9934 29.9325 24.6719C29.3923 24.3471 28.9747 23.8913 28.6797 23.3047C28.388 22.7147 28.2422 22.0237 28.2422 21.2315C28.2422 20.4493 28.388 19.7599 28.6797 19.1634C28.9747 18.5668 29.3857 18.1011 29.9126 17.7663C30.4429 17.4316 31.0627 17.2642 31.772 17.2642C32.2029 17.2642 32.6205 17.3355 33.0249 17.478C33.4292 17.6205 33.7921 17.8442 34.1136 18.1491C34.4351 18.4541 34.6887 18.8501 34.8743 19.3374C35.0599 19.8213 35.1527 20.4096 35.1527 21.1023V21.6293H29.0824V20.5156H33.696C33.696 20.1245 33.6165 19.7782 33.4574 19.4766C33.2983 19.1716 33.0746 18.9313 32.7862 18.7557C32.5012 18.58 32.1664 18.4922 31.782 18.4922C31.3643 18.4922 30.9998 18.5949 30.6882 18.8004C30.38 19.0026 30.1413 19.2678 29.9723 19.5959C29.8066 19.9207 29.7237 20.2737 29.7237 20.6548V21.5249C29.7237 22.0353 29.8132 22.4695 29.9922 22.8274C30.1745 23.1854 30.428 23.4588 30.7528 23.6477C31.0777 23.8333 31.4571 23.9261 31.8913 23.9261C32.1731 23.9261 32.4299 23.8864 32.6619 23.8068C32.8939 23.724 33.0945 23.6013 33.2635 23.4389C33.4325 23.2765 33.5618 23.076 33.6513 22.8374L35.0582 23.0909C34.9455 23.5052 34.7434 23.8681 34.4517 24.1797C34.1634 24.4879 33.8004 24.7282 33.3629 24.9006C32.9287 25.0696 32.4332 25.1541 31.8764 25.1541ZM40.0932 25.1541C39.3408 25.1541 38.6929 24.9934 38.1493 24.6719C37.6091 24.3471 37.1915 23.8913 36.8965 23.3047C36.6048 22.7147 36.459 22.0237 36.459 21.2315C36.459 20.4493 36.6048 19.7599 36.8965 19.1634C37.1915 18.5668 37.6025 18.1011 38.1294 17.7663C38.6597 17.4316 39.2795 17.2642 39.9888 17.2642C40.4197 17.2642 40.8373 17.3355 41.2417 17.478C41.646 17.6205 42.0089 17.8442 42.3304 18.1491C42.6519 18.4541 42.9055 18.8501 43.0911 19.3374C43.2767 19.8213 43.3695 20.4096 43.3695 21.1023V21.6293H37.2992V20.5156H41.9128C41.9128 20.1245 41.8333 19.7782 41.6742 19.4766C41.5151 19.1716 41.2914 18.9313 41.003 18.7557C40.718 18.58 40.3832 18.4922 39.9988 18.4922C39.5811 18.4922 39.2166 18.5949 38.905 18.8004C38.5968 19.0026 38.3581 19.2678 38.1891 19.5959C38.0234 19.9207 37.9405 20.2737 37.9405 20.6548V21.5249C37.9405 22.0353 38.03 22.4695 38.209 22.8274C38.3913 23.1854 38.6448 23.4588 38.9696 23.6477C39.2944 23.8333 39.6739 23.9261 40.1081 23.9261C40.3899 23.9261 40.6467 23.8864 40.8787 23.8068C41.1107 23.724 41.3113 23.6013 41.4803 23.4389C41.6493 23.2765 41.7786 23.076 41.8681 22.8374L43.275 23.0909C43.1623 23.5052 42.9602 23.8681 42.6685 24.1797C42.3801 24.4879 42.0172 24.7282 41.5797 24.9006C41.1455 25.0696 40.65 25.1541 40.0932 25.1541ZM46.5053 20.4659V25H45.0188V17.3636H46.4457V18.6065H46.5401C46.7158 18.2022 46.9909 17.8774 47.3654 17.6321C47.7433 17.3868 48.2189 17.2642 48.7923 17.2642C49.3126 17.2642 49.7683 17.3736 50.1594 17.5923C50.5505 17.8078 50.8538 18.1293 51.0692 18.5568C51.2847 18.9844 51.3924 19.513 51.3924 20.1428V25H49.9059V20.3217C49.9059 19.7682 49.7617 19.3357 49.4734 19.0241C49.185 18.7093 48.7889 18.5518 48.2852 18.5518C47.9405 18.5518 47.6339 18.6264 47.3654 18.7756C47.1003 18.9247 46.8898 19.1435 46.734 19.4318C46.5816 19.7169 46.5053 20.0616 46.5053 20.4659ZM56.6685 14.8182V25H55.1273V16.3594H55.0676L52.6316 17.9503V16.4787L55.1721 14.8182H56.6685ZM62.9675 25.169C62.182 25.1657 61.5108 24.9586 60.954 24.5476C60.3972 24.1366 59.9713 23.5384 59.6763 22.7528C59.3813 21.9673 59.2338 21.0211 59.2338 19.9141C59.2338 18.8104 59.3813 17.8674 59.6763 17.0852C59.9746 16.303 60.4022 15.7064 60.959 15.2955C61.5191 14.8845 62.1886 14.679 62.9675 14.679C63.7464 14.679 64.4142 14.8861 64.9711 15.3004C65.5279 15.7114 65.9538 16.308 66.2488 17.0902C66.5471 17.8691 66.6962 18.8104 66.6962 19.9141C66.6962 21.0244 66.5487 21.9723 66.2537 22.7578C65.9587 23.54 65.5328 24.1383 64.976 24.5526C64.4192 24.9635 63.7497 25.169 62.9675 25.169ZM62.9675 23.8416C63.6569 23.8416 64.1955 23.5052 64.5833 22.8324C64.9744 22.1596 65.1699 21.1868 65.1699 19.9141C65.1699 19.0689 65.0804 18.3546 64.9015 17.7713C64.7258 17.1847 64.4722 16.7405 64.1408 16.4389C63.8127 16.134 63.4216 15.9815 62.9675 15.9815C62.2814 15.9815 61.7428 16.3196 61.3517 16.9957C60.9606 17.6719 60.7634 18.6446 60.7601 19.9141C60.7601 20.7625 60.848 21.4801 61.0236 22.0668C61.2026 22.6501 61.4561 23.0926 61.7843 23.3942C62.1124 23.6925 62.5068 23.8416 62.9675 23.8416ZM72.0046 25.169C71.2191 25.1657 70.5479 24.9586 69.9911 24.5476C69.4343 24.1366 69.0084 23.5384 68.7134 22.7528C68.4184 21.9673 68.271 21.0211 68.271 19.9141C68.271 18.8104 68.4184 17.8674 68.7134 17.0852C69.0117 16.303 69.4393 15.7064 69.9961 15.2955C70.5562 14.8845 71.2257 14.679 72.0046 14.679C72.7835 14.679 73.4513 14.8861 74.0082 15.3004C74.565 15.7114 74.9909 16.308 75.2859 17.0902C75.5842 17.8691 75.7333 18.8104 75.7333 19.9141C75.7333 21.0244 75.5858 21.9723 75.2908 22.7578C74.9959 23.54 74.57 24.1383 74.0131 24.5526C73.4563 24.9635 72.7868 25.169 72.0046 25.169ZM72.0046 23.8416C72.694 23.8416 73.2326 23.5052 73.6204 22.8324C74.0115 22.1596 74.207 21.1868 74.207 19.9141C74.207 19.0689 74.1175 18.3546 73.9386 17.7713C73.7629 17.1847 73.5094 16.7405 73.1779 16.4389C72.8498 16.134 72.4587 15.9815 72.0046 15.9815C71.3185 15.9815 70.7799 16.3196 70.3888 16.9957C69.9978 17.6719 69.8005 18.6446 69.7972 19.9141C69.7972 20.7625 69.8851 21.4801 70.0607 22.0668C70.2397 22.6501 70.4933 23.0926 70.8214 23.3942C71.1495 23.6925 71.5439 23.8416 72.0046 23.8416Z" fill="#0A0A0B"/>
</svg>
