<svg width="240" height="40" viewBox="0 0 240 40" fill="none" xmlns="http://www.w3.org/2000/svg">
<rect width="240" height="40" fill="#BAFDC2"/>
<path d="M20.0092 18.0348C19.9131 17.7332 19.7839 17.4631 19.6214 17.2244C19.4624 16.9825 19.2718 16.777 19.0497 16.608C18.8277 16.4356 18.5741 16.3047 18.2891 16.2152C18.0073 16.1257 17.6974 16.081 17.3594 16.081C16.786 16.081 16.2689 16.2285 15.8082 16.5234C15.3475 16.8184 14.983 17.2509 14.7145 17.821C14.4493 18.3878 14.3168 19.0821 14.3168 19.9041C14.3168 20.7294 14.451 21.4271 14.7195 21.9972C14.9879 22.5672 15.3558 22.9998 15.8232 23.2947C16.2905 23.5897 16.8224 23.7372 17.419 23.7372C17.9725 23.7372 18.4548 23.6245 18.8658 23.3991C19.2801 23.1738 19.5999 22.8556 19.8253 22.4446C20.054 22.0303 20.1683 21.5431 20.1683 20.983L20.5661 21.0575H17.6527V19.7898H21.6548V20.9482C21.6548 21.8033 21.4725 22.5457 21.108 23.1754C20.7467 23.8018 20.2462 24.2857 19.6065 24.6271C18.9702 24.9685 18.241 25.1392 17.419 25.1392C16.4976 25.1392 15.6889 24.9271 14.9929 24.5028C14.3002 24.0786 13.7599 23.477 13.3722 22.6982C12.9844 21.916 12.7905 20.9879 12.7905 19.9141C12.7905 19.102 12.9032 18.3729 13.1286 17.7266C13.3539 17.0803 13.6705 16.5317 14.0781 16.081C14.4891 15.6269 14.9714 15.2805 15.5249 15.0419C16.0817 14.8 16.6899 14.679 17.3494 14.679C17.8996 14.679 18.4117 14.7602 18.8857 14.9226C19.3629 15.085 19.7872 15.3153 20.1584 15.6136C20.5329 15.9119 20.8428 16.2666 21.0881 16.6776C21.3333 17.0852 21.4991 17.5376 21.5852 18.0348H20.0092ZM23.3956 25V17.3636H24.8324V18.5767H24.912C25.0512 18.1657 25.2964 17.8426 25.6477 17.6072C26.0024 17.3686 26.4034 17.2493 26.8509 17.2493C26.9437 17.2493 27.0531 17.2526 27.179 17.2592C27.3083 17.2659 27.4093 17.2741 27.4823 17.2841V18.706C27.4226 18.6894 27.3165 18.6712 27.1641 18.6513C27.0116 18.6281 26.8592 18.6165 26.7067 18.6165C26.3554 18.6165 26.0422 18.6911 25.7671 18.8402C25.4953 18.986 25.2799 19.1899 25.1208 19.4517C24.9617 19.7102 24.8821 20.0052 24.8821 20.3366V25H23.3956ZM31.6964 25.1541C30.9441 25.1541 30.2961 24.9934 29.7525 24.6719C29.2123 24.3471 28.7947 23.8913 28.4997 23.3047C28.208 22.7147 28.0622 22.0237 28.0622 21.2315C28.0622 20.4493 28.208 19.7599 28.4997 19.1634C28.7947 18.5668 29.2057 18.1011 29.7326 17.7663C30.2629 17.4316 30.8827 17.2642 31.592 17.2642C32.0229 17.2642 32.4405 17.3355 32.8449 17.478C33.2492 17.6205 33.6121 17.8442 33.9336 18.1491C34.2551 18.4541 34.5087 18.8501 34.6943 19.3374C34.8799 19.8213 34.9727 20.4096 34.9727 21.1023V21.6293H28.9024V20.5156H33.516C33.516 20.1245 33.4365 19.7782 33.2774 19.4766C33.1183 19.1716 32.8946 18.9313 32.6062 18.7557C32.3212 18.58 31.9864 18.4922 31.602 18.4922C31.1843 18.4922 30.8198 18.5949 30.5082 18.8004C30.2 19.0026 29.9613 19.2678 29.7923 19.5959C29.6266 19.9207 29.5437 20.2737 29.5437 20.6548V21.5249C29.5437 22.0353 29.6332 22.4695 29.8122 22.8274C29.9945 23.1854 30.248 23.4588 30.5728 23.6477C30.8977 23.8333 31.2771 23.9261 31.7113 23.9261C31.9931 23.9261 32.2499 23.8864 32.4819 23.8068C32.7139 23.724 32.9145 23.6013 33.0835 23.4389C33.2525 23.2765 33.3818 23.076 33.4713 22.8374L34.8782 23.0909C34.7655 23.5052 34.5634 23.8681 34.2717 24.1797C33.9834 24.4879 33.6204 24.7282 33.1829 24.9006C32.7487 25.0696 32.2532 25.1541 31.6964 25.1541ZM39.8232 25.1541C39.0708 25.1541 38.4229 24.9934 37.8793 24.6719C37.3391 24.3471 36.9215 23.8913 36.6265 23.3047C36.3348 22.7147 36.189 22.0237 36.189 21.2315C36.189 20.4493 36.3348 19.7599 36.6265 19.1634C36.9215 18.5668 37.3324 18.1011 37.8594 17.7663C38.3897 17.4316 39.0095 17.2642 39.7188 17.2642C40.1497 17.2642 40.5673 17.3355 40.9717 17.478C41.376 17.6205 41.7389 17.8442 42.0604 18.1491C42.3819 18.4541 42.6355 18.8501 42.8211 19.3374C43.0067 19.8213 43.0995 20.4096 43.0995 21.1023V21.6293H37.0292V20.5156H41.6428C41.6428 20.1245 41.5633 19.7782 41.4042 19.4766C41.2451 19.1716 41.0214 18.9313 40.733 18.7557C40.448 18.58 40.1132 18.4922 39.7288 18.4922C39.3111 18.4922 38.9466 18.5949 38.635 18.8004C38.3268 19.0026 38.0881 19.2678 37.9191 19.5959C37.7534 19.9207 37.6705 20.2737 37.6705 20.6548V21.5249C37.6705 22.0353 37.76 22.4695 37.939 22.8274C38.1213 23.1854 38.3748 23.4588 38.6996 23.6477C39.0244 23.8333 39.4039 23.9261 39.8381 23.9261C40.1199 23.9261 40.3767 23.8864 40.6087 23.8068C40.8407 23.724 41.0413 23.6013 41.2103 23.4389C41.3793 23.2765 41.5086 23.076 41.5981 22.8374L43.005 23.0909C42.8923 23.5052 42.6902 23.8681 42.3985 24.1797C42.1101 24.4879 41.7472 24.7282 41.3097 24.9006C40.8755 25.0696 40.38 25.1541 39.8232 25.1541ZM46.1453 20.4659V25H44.6588V17.3636H46.0857V18.6065H46.1801C46.3558 18.2022 46.6309 17.8774 47.0054 17.6321C47.3833 17.3868 47.8589 17.2642 48.4323 17.2642C48.9526 17.2642 49.4083 17.3736 49.7994 17.5923C50.1905 17.8078 50.4938 18.1293 50.7092 18.5568C50.9247 18.9844 51.0324 19.513 51.0324 20.1428V25H49.5459V20.3217C49.5459 19.7682 49.4017 19.3357 49.1134 19.0241C48.825 18.7093 48.4289 18.5518 47.9252 18.5518C47.5805 18.5518 47.2739 18.6264 47.0054 18.7756C46.7403 18.9247 46.5298 19.1435 46.374 19.4318C46.2216 19.7169 46.1453 20.0616 46.1453 20.4659ZM52.9161 25V23.8864L56.3614 20.3168C56.7293 19.929 57.0326 19.5893 57.2712 19.2976C57.5132 19.0026 57.6938 18.7225 57.8131 18.4574C57.9325 18.1922 57.9921 17.9105 57.9921 17.6122C57.9921 17.2741 57.9126 16.9825 57.7535 16.7372C57.5944 16.4886 57.3773 16.2981 57.1022 16.1655C56.8271 16.0296 56.5172 15.9616 56.1725 15.9616C55.8079 15.9616 55.4897 16.0362 55.218 16.1854C54.9462 16.3345 54.7374 16.545 54.5915 16.8168C54.4457 17.0885 54.3728 17.4067 54.3728 17.7713H52.9062C52.9062 17.1515 53.0487 16.6096 53.3337 16.1456C53.6188 15.6816 54.0099 15.322 54.507 15.0668C55.0042 14.8082 55.5693 14.679 56.2023 14.679C56.842 14.679 57.4055 14.8066 57.8927 15.0618C58.3832 15.3137 58.766 15.6584 59.0411 16.0959C59.3162 16.5301 59.4538 17.0206 59.4538 17.5675C59.4538 17.9453 59.3825 18.3149 59.24 18.6761C59.1008 19.0374 58.8572 19.4401 58.5092 19.8842C58.1612 20.325 57.6772 20.8603 57.0575 21.4901L55.034 23.608V23.6825H59.6178V25H52.9161ZM64.9568 25.169C64.1713 25.1657 63.5001 24.9586 62.9433 24.5476C62.3865 24.1366 61.9606 23.5384 61.6656 22.7528C61.3706 21.9673 61.2231 21.0211 61.2231 19.9141C61.2231 18.8104 61.3706 17.8674 61.6656 17.0852C61.9639 16.303 62.3915 15.7064 62.9483 15.2955C63.5084 14.8845 64.1779 14.679 64.9568 14.679C65.7357 14.679 66.4035 14.8861 66.9604 15.3004C67.5172 15.7114 67.9431 16.308 68.2381 17.0902C68.5363 17.8691 68.6855 18.8104 68.6855 19.9141C68.6855 21.0244 68.538 21.9723 68.243 22.7578C67.948 23.54 67.5221 24.1383 66.9653 24.5526C66.4085 24.9635 65.739 25.169 64.9568 25.169ZM64.9568 23.8416C65.6462 23.8416 66.1848 23.5052 66.5726 22.8324C66.9637 22.1596 67.1592 21.1868 67.1592 19.9141C67.1592 19.0689 67.0697 18.3546 66.8908 17.7713C66.7151 17.1847 66.4615 16.7405 66.1301 16.4389C65.802 16.134 65.4109 15.9815 64.9568 15.9815C64.2707 15.9815 63.7321 16.3196 63.341 16.9957C62.9499 17.6719 62.7527 18.6446 62.7494 19.9141C62.7494 20.7625 62.8372 21.4801 63.0129 22.0668C63.1919 22.6501 63.4454 23.0926 63.7736 23.3942C64.1017 23.6925 64.4961 23.8416 64.9568 23.8416ZM73.9039 25.169C73.1184 25.1657 72.4472 24.9586 71.8904 24.5476C71.3336 24.1366 70.9077 23.5384 70.6127 22.7528C70.3177 21.9673 70.1702 21.0211 70.1702 19.9141C70.1702 18.8104 70.3177 17.8674 70.6127 17.0852C70.911 16.303 71.3386 15.7064 71.8954 15.2955C72.4555 14.8845 73.125 14.679 73.9039 14.679C74.6828 14.679 75.3506 14.8861 75.9075 15.3004C76.4643 15.7114 76.8902 16.308 77.1852 17.0902C77.4835 17.8691 77.6326 18.8104 77.6326 19.9141C77.6326 21.0244 77.4851 21.9723 77.1901 22.7578C76.8952 23.54 76.4693 24.1383 75.9124 24.5526C75.3556 24.9635 74.6861 25.169 73.9039 25.169ZM73.9039 23.8416C74.5933 23.8416 75.1319 23.5052 75.5197 22.8324C75.9108 22.1596 76.1063 21.1868 76.1063 19.9141C76.1063 19.0689 76.0168 18.3546 75.8379 17.7713C75.6622 17.1847 75.4086 16.7405 75.0772 16.4389C74.7491 16.134 74.358 15.9815 73.9039 15.9815C73.2178 15.9815 72.6792 16.3196 72.2881 16.9957C71.897 17.6719 71.6998 18.6446 71.6965 19.9141C71.6965 20.7625 71.7844 21.4801 71.96 22.0668C72.139 22.6501 72.3925 23.0926 72.7207 23.3942C73.0488 23.6925 73.4432 23.8416 73.9039 23.8416Z" fill="black"/>
</svg>
