<svg width="342" height="40" viewBox="0 0 342 40" fill="none" xmlns="http://www.w3.org/2000/svg">
<rect width="341.333" height="40" fill="#3DE188"/>
<path d="M20.0092 18.0348C19.9131 17.7332 19.7839 17.4631 19.6214 17.2244C19.4624 16.9825 19.2718 16.777 19.0497 16.608C18.8277 16.4356 18.5741 16.3047 18.2891 16.2152C18.0073 16.1257 17.6974 16.081 17.3594 16.081C16.786 16.081 16.2689 16.2285 15.8082 16.5234C15.3475 16.8184 14.983 17.2509 14.7145 17.821C14.4493 18.3878 14.3168 19.0821 14.3168 19.9041C14.3168 20.7294 14.451 21.4271 14.7195 21.9972C14.9879 22.5672 15.3558 22.9998 15.8232 23.2947C16.2905 23.5897 16.8224 23.7372 17.419 23.7372C17.9725 23.7372 18.4548 23.6245 18.8658 23.3991C19.2801 23.1738 19.5999 22.8556 19.8253 22.4446C20.054 22.0303 20.1683 21.5431 20.1683 20.983L20.5661 21.0575H17.6527V19.7898H21.6548V20.9482C21.6548 21.8033 21.4725 22.5457 21.108 23.1754C20.7467 23.8018 20.2462 24.2857 19.6065 24.6271C18.9702 24.9685 18.241 25.1392 17.419 25.1392C16.4976 25.1392 15.6889 24.9271 14.9929 24.5028C14.3002 24.0786 13.7599 23.477 13.3722 22.6982C12.9844 21.916 12.7905 20.9879 12.7905 19.9141C12.7905 19.102 12.9032 18.3729 13.1286 17.7266C13.3539 17.0803 13.6705 16.5317 14.0781 16.081C14.4891 15.6269 14.9714 15.2805 15.5249 15.0419C16.0817 14.8 16.6899 14.679 17.3494 14.679C17.8996 14.679 18.4117 14.7602 18.8857 14.9226C19.3629 15.085 19.7872 15.3153 20.1584 15.6136C20.5329 15.9119 20.8428 16.2666 21.0881 16.6776C21.3333 17.0852 21.4991 17.5376 21.5852 18.0348H20.0092ZM23.4856 25V17.3636H24.9224V18.5767H25.002C25.1412 18.1657 25.3864 17.8426 25.7377 17.6072C26.0924 17.3686 26.4934 17.2493 26.9409 17.2493C27.0337 17.2493 27.1431 17.2526 27.269 17.2592C27.3983 17.2659 27.4993 17.2741 27.5723 17.2841V18.706C27.5126 18.6894 27.4065 18.6712 27.2541 18.6513C27.1016 18.6281 26.9492 18.6165 26.7967 18.6165C26.4454 18.6165 26.1322 18.6911 25.8571 18.8402C25.5853 18.986 25.3699 19.1899 25.2108 19.4517C25.0517 19.7102 24.9721 20.0052 24.9721 20.3366V25H23.4856ZM31.8764 25.1541C31.1241 25.1541 30.4761 24.9934 29.9325 24.6719C29.3923 24.3471 28.9747 23.8913 28.6797 23.3047C28.388 22.7147 28.2422 22.0237 28.2422 21.2315C28.2422 20.4493 28.388 19.7599 28.6797 19.1634C28.9747 18.5668 29.3857 18.1011 29.9126 17.7663C30.4429 17.4316 31.0627 17.2642 31.772 17.2642C32.2029 17.2642 32.6205 17.3355 33.0249 17.478C33.4292 17.6205 33.7921 17.8442 34.1136 18.1491C34.4351 18.4541 34.6887 18.8501 34.8743 19.3374C35.0599 19.8213 35.1527 20.4096 35.1527 21.1023V21.6293H29.0824V20.5156H33.696C33.696 20.1245 33.6165 19.7782 33.4574 19.4766C33.2983 19.1716 33.0746 18.9313 32.7862 18.7557C32.5012 18.58 32.1664 18.4922 31.782 18.4922C31.3643 18.4922 30.9998 18.5949 30.6882 18.8004C30.38 19.0026 30.1413 19.2678 29.9723 19.5959C29.8066 19.9207 29.7237 20.2737 29.7237 20.6548V21.5249C29.7237 22.0353 29.8132 22.4695 29.9922 22.8274C30.1745 23.1854 30.428 23.4588 30.7528 23.6477C31.0777 23.8333 31.4571 23.9261 31.8913 23.9261C32.1731 23.9261 32.4299 23.8864 32.6619 23.8068C32.8939 23.724 33.0945 23.6013 33.2635 23.4389C33.4325 23.2765 33.5618 23.076 33.6513 22.8374L35.0582 23.0909C34.9455 23.5052 34.7434 23.8681 34.4517 24.1797C34.1634 24.4879 33.8004 24.7282 33.3629 24.9006C32.9287 25.0696 32.4332 25.1541 31.8764 25.1541ZM40.0932 25.1541C39.3408 25.1541 38.6929 24.9934 38.1493 24.6719C37.6091 24.3471 37.1915 23.8913 36.8965 23.3047C36.6048 22.7147 36.459 22.0237 36.459 21.2315C36.459 20.4493 36.6048 19.7599 36.8965 19.1634C37.1915 18.5668 37.6025 18.1011 38.1294 17.7663C38.6597 17.4316 39.2795 17.2642 39.9888 17.2642C40.4197 17.2642 40.8373 17.3355 41.2417 17.478C41.646 17.6205 42.0089 17.8442 42.3304 18.1491C42.6519 18.4541 42.9055 18.8501 43.0911 19.3374C43.2767 19.8213 43.3695 20.4096 43.3695 21.1023V21.6293H37.2992V20.5156H41.9128C41.9128 20.1245 41.8333 19.7782 41.6742 19.4766C41.5151 19.1716 41.2914 18.9313 41.003 18.7557C40.718 18.58 40.3832 18.4922 39.9988 18.4922C39.5811 18.4922 39.2166 18.5949 38.905 18.8004C38.5968 19.0026 38.3581 19.2678 38.1891 19.5959C38.0234 19.9207 37.9405 20.2737 37.9405 20.6548V21.5249C37.9405 22.0353 38.03 22.4695 38.209 22.8274C38.3913 23.1854 38.6448 23.4588 38.9696 23.6477C39.2944 23.8333 39.6739 23.9261 40.1081 23.9261C40.3899 23.9261 40.6467 23.8864 40.8787 23.8068C41.1107 23.724 41.3113 23.6013 41.4803 23.4389C41.6493 23.2765 41.7786 23.076 41.8681 22.8374L43.275 23.0909C43.1623 23.5052 42.9602 23.8681 42.6685 24.1797C42.3801 24.4879 42.0172 24.7282 41.5797 24.9006C41.1455 25.0696 40.65 25.1541 40.0932 25.1541ZM46.5053 20.4659V25H45.0188V17.3636H46.4457V18.6065H46.5401C46.7158 18.2022 46.9909 17.8774 47.3654 17.6321C47.7433 17.3868 48.2189 17.2642 48.7923 17.2642C49.3126 17.2642 49.7683 17.3736 50.1594 17.5923C50.5505 17.8078 50.8538 18.1293 51.0692 18.5568C51.2847 18.9844 51.3924 19.513 51.3924 20.1428V25H49.9059V20.3217C49.9059 19.7682 49.7617 19.3357 49.4734 19.0241C49.185 18.7093 48.7889 18.5518 48.2852 18.5518C47.9405 18.5518 47.6339 18.6264 47.3654 18.7756C47.1003 18.9247 46.8898 19.1435 46.734 19.4318C46.5816 19.7169 46.5053 20.0616 46.5053 20.4659ZM56.7269 25.1392C56.1038 25.1392 55.5437 25.0199 55.0465 24.7812C54.5527 24.5393 54.1583 24.2079 53.8633 23.7869C53.5683 23.366 53.4109 22.8854 53.391 22.3452H54.8825C54.9189 22.7827 55.1128 23.1423 55.4641 23.424C55.8155 23.7057 56.2364 23.8466 56.7269 23.8466C57.118 23.8466 57.4644 23.7571 57.766 23.5781C58.0709 23.3958 58.3095 23.1456 58.4819 22.8274C58.6576 22.5092 58.7454 22.1463 58.7454 21.7386C58.7454 21.3243 58.6559 20.9548 58.4769 20.63C58.2979 20.3052 58.051 20.05 57.7362 19.8643C57.4246 19.6787 57.0666 19.5843 56.6623 19.581C56.354 19.581 56.0442 19.634 55.7326 19.7401C55.421 19.8461 55.1692 19.9853 54.9769 20.1577L53.57 19.9489L54.1417 14.8182H59.7397V16.1357H55.4194L55.0962 18.9844H55.1559C55.3548 18.7921 55.6183 18.6314 55.9464 18.5021C56.2778 18.3729 56.6325 18.3082 57.0103 18.3082C57.6301 18.3082 58.1819 18.4557 58.6658 18.7507C59.1531 19.0457 59.5359 19.4484 59.8143 19.9588C60.096 20.4659 60.2352 21.0492 60.2319 21.7088C60.2352 22.3684 60.0861 22.9567 59.7844 23.4737C59.4862 23.9908 59.0719 24.3984 58.5415 24.6967C58.0146 24.9917 57.4097 25.1392 56.7269 25.1392ZM65.5925 25.169C64.807 25.1657 64.1358 24.9586 63.579 24.5476C63.0222 24.1366 62.5963 23.5384 62.3013 22.7528C62.0063 21.9673 61.8588 21.0211 61.8588 19.9141C61.8588 18.8104 62.0063 17.8674 62.3013 17.0852C62.5996 16.303 63.0272 15.7064 63.584 15.2955C64.1441 14.8845 64.8136 14.679 65.5925 14.679C66.3714 14.679 67.0392 14.8861 67.5961 15.3004C68.1529 15.7114 68.5788 16.308 68.8738 17.0902C69.1721 17.8691 69.3212 18.8104 69.3212 19.9141C69.3212 21.0244 69.1737 21.9723 68.8787 22.7578C68.5837 23.54 68.1578 24.1383 67.601 24.5526C67.0442 24.9635 66.3747 25.169 65.5925 25.169ZM65.5925 23.8416C66.2819 23.8416 66.8205 23.5052 67.2083 22.8324C67.5994 22.1596 67.7949 21.1868 67.7949 19.9141C67.7949 19.0689 67.7054 18.3546 67.5265 17.7713C67.3508 17.1847 67.0972 16.7405 66.7658 16.4389C66.4377 16.134 66.0466 15.9815 65.5925 15.9815C64.9064 15.9815 64.3678 16.3196 63.9767 16.9957C63.5856 17.6719 63.3884 18.6446 63.3851 19.9141C63.3851 20.7625 63.473 21.4801 63.6486 22.0668C63.8276 22.6501 64.0811 23.0926 64.4093 23.3942C64.7374 23.6925 65.1318 23.8416 65.5925 23.8416ZM74.6296 25.169C73.8441 25.1657 73.1729 24.9586 72.6161 24.5476C72.0593 24.1366 71.6334 23.5384 71.3384 22.7528C71.0434 21.9673 70.896 21.0211 70.896 19.9141C70.896 18.8104 71.0434 17.8674 71.3384 17.0852C71.6367 16.303 72.0643 15.7064 72.6211 15.2955C73.1812 14.8845 73.8507 14.679 74.6296 14.679C75.4085 14.679 76.0763 14.8861 76.6332 15.3004C77.19 15.7114 77.6159 16.308 77.9109 17.0902C78.2092 17.8691 78.3583 18.8104 78.3583 19.9141C78.3583 21.0244 78.2108 21.9723 77.9158 22.7578C77.6209 23.54 77.195 24.1383 76.6381 24.5526C76.0813 24.9635 75.4118 25.169 74.6296 25.169ZM74.6296 23.8416C75.319 23.8416 75.8576 23.5052 76.2454 22.8324C76.6365 22.1596 76.832 21.1868 76.832 19.9141C76.832 19.0689 76.7425 18.3546 76.5636 17.7713C76.3879 17.1847 76.1344 16.7405 75.8029 16.4389C75.4748 16.134 75.0837 15.9815 74.6296 15.9815C73.9435 15.9815 73.4049 16.3196 73.0138 16.9957C72.6228 17.6719 72.4255 18.6446 72.4222 19.9141C72.4222 20.7625 72.5101 21.4801 72.6857 22.0668C72.8647 22.6501 73.1183 23.0926 73.4464 23.3942C73.7745 23.6925 74.1689 23.8416 74.6296 23.8416Z" fill="white"/>
</svg>
