<svg width="240" height="40" viewBox="0 0 240 40" fill="none" xmlns="http://www.w3.org/2000/svg">
<rect width="240" height="40" fill="#86F99E"/>
<path d="M20.0092 18.0348C19.9131 17.7332 19.7839 17.4631 19.6214 17.2244C19.4624 16.9825 19.2718 16.777 19.0497 16.608C18.8277 16.4356 18.5741 16.3047 18.2891 16.2152C18.0073 16.1257 17.6974 16.081 17.3594 16.081C16.786 16.081 16.2689 16.2285 15.8082 16.5234C15.3475 16.8184 14.983 17.2509 14.7145 17.821C14.4493 18.3878 14.3168 19.0821 14.3168 19.9041C14.3168 20.7294 14.451 21.4271 14.7195 21.9972C14.9879 22.5672 15.3558 22.9998 15.8232 23.2947C16.2905 23.5897 16.8224 23.7372 17.419 23.7372C17.9725 23.7372 18.4548 23.6245 18.8658 23.3991C19.2801 23.1738 19.5999 22.8556 19.8253 22.4446C20.054 22.0303 20.1683 21.5431 20.1683 20.983L20.5661 21.0575H17.6527V19.7898H21.6548V20.9482C21.6548 21.8033 21.4725 22.5457 21.108 23.1754C20.7467 23.8018 20.2462 24.2857 19.6065 24.6271C18.9702 24.9685 18.241 25.1392 17.419 25.1392C16.4976 25.1392 15.6889 24.9271 14.9929 24.5028C14.3002 24.0786 13.7599 23.477 13.3722 22.6982C12.9844 21.916 12.7905 20.9879 12.7905 19.9141C12.7905 19.102 12.9032 18.3729 13.1286 17.7266C13.3539 17.0803 13.6705 16.5317 14.0781 16.081C14.4891 15.6269 14.9714 15.2805 15.5249 15.0419C16.0817 14.8 16.6899 14.679 17.3494 14.679C17.8996 14.679 18.4117 14.7602 18.8857 14.9226C19.3629 15.085 19.7872 15.3153 20.1584 15.6136C20.5329 15.9119 20.8428 16.2666 21.0881 16.6776C21.3333 17.0852 21.4991 17.5376 21.5852 18.0348H20.0092ZM23.3956 25V17.3636H24.8324V18.5767H24.912C25.0512 18.1657 25.2964 17.8426 25.6477 17.6072C26.0024 17.3686 26.4034 17.2493 26.8509 17.2493C26.9437 17.2493 27.0531 17.2526 27.179 17.2592C27.3083 17.2659 27.4093 17.2741 27.4823 17.2841V18.706C27.4226 18.6894 27.3165 18.6712 27.1641 18.6513C27.0116 18.6281 26.8592 18.6165 26.7067 18.6165C26.3554 18.6165 26.0422 18.6911 25.7671 18.8402C25.4953 18.986 25.2799 19.1899 25.1208 19.4517C24.9617 19.7102 24.8821 20.0052 24.8821 20.3366V25H23.3956ZM31.6964 25.1541C30.9441 25.1541 30.2961 24.9934 29.7525 24.6719C29.2123 24.3471 28.7947 23.8913 28.4997 23.3047C28.208 22.7147 28.0622 22.0237 28.0622 21.2315C28.0622 20.4493 28.208 19.7599 28.4997 19.1634C28.7947 18.5668 29.2057 18.1011 29.7326 17.7663C30.2629 17.4316 30.8827 17.2642 31.592 17.2642C32.0229 17.2642 32.4405 17.3355 32.8449 17.478C33.2492 17.6205 33.6121 17.8442 33.9336 18.1491C34.2551 18.4541 34.5087 18.8501 34.6943 19.3374C34.8799 19.8213 34.9727 20.4096 34.9727 21.1023V21.6293H28.9024V20.5156H33.516C33.516 20.1245 33.4365 19.7782 33.2774 19.4766C33.1183 19.1716 32.8946 18.9313 32.6062 18.7557C32.3212 18.58 31.9864 18.4922 31.602 18.4922C31.1843 18.4922 30.8198 18.5949 30.5082 18.8004C30.2 19.0026 29.9613 19.2678 29.7923 19.5959C29.6266 19.9207 29.5437 20.2737 29.5437 20.6548V21.5249C29.5437 22.0353 29.6332 22.4695 29.8122 22.8274C29.9945 23.1854 30.248 23.4588 30.5728 23.6477C30.8977 23.8333 31.2771 23.9261 31.7113 23.9261C31.9931 23.9261 32.2499 23.8864 32.4819 23.8068C32.7139 23.724 32.9145 23.6013 33.0835 23.4389C33.2525 23.2765 33.3818 23.076 33.4713 22.8374L34.8782 23.0909C34.7655 23.5052 34.5634 23.8681 34.2717 24.1797C33.9834 24.4879 33.6204 24.7282 33.1829 24.9006C32.7487 25.0696 32.2532 25.1541 31.6964 25.1541ZM39.8232 25.1541C39.0708 25.1541 38.4229 24.9934 37.8793 24.6719C37.3391 24.3471 36.9215 23.8913 36.6265 23.3047C36.3348 22.7147 36.189 22.0237 36.189 21.2315C36.189 20.4493 36.3348 19.7599 36.6265 19.1634C36.9215 18.5668 37.3324 18.1011 37.8594 17.7663C38.3897 17.4316 39.0095 17.2642 39.7188 17.2642C40.1497 17.2642 40.5673 17.3355 40.9717 17.478C41.376 17.6205 41.7389 17.8442 42.0604 18.1491C42.3819 18.4541 42.6355 18.8501 42.8211 19.3374C43.0067 19.8213 43.0995 20.4096 43.0995 21.1023V21.6293H37.0292V20.5156H41.6428C41.6428 20.1245 41.5633 19.7782 41.4042 19.4766C41.2451 19.1716 41.0214 18.9313 40.733 18.7557C40.448 18.58 40.1132 18.4922 39.7288 18.4922C39.3111 18.4922 38.9466 18.5949 38.635 18.8004C38.3268 19.0026 38.0881 19.2678 37.9191 19.5959C37.7534 19.9207 37.6705 20.2737 37.6705 20.6548V21.5249C37.6705 22.0353 37.76 22.4695 37.939 22.8274C38.1213 23.1854 38.3748 23.4588 38.6996 23.6477C39.0244 23.8333 39.4039 23.9261 39.8381 23.9261C40.1199 23.9261 40.3767 23.8864 40.6087 23.8068C40.8407 23.724 41.0413 23.6013 41.2103 23.4389C41.3793 23.2765 41.5086 23.076 41.5981 22.8374L43.005 23.0909C42.8923 23.5052 42.6902 23.8681 42.3985 24.1797C42.1101 24.4879 41.7472 24.7282 41.3097 24.9006C40.8755 25.0696 40.38 25.1541 39.8232 25.1541ZM46.1453 20.4659V25H44.6588V17.3636H46.0857V18.6065H46.1801C46.3558 18.2022 46.6309 17.8774 47.0054 17.6321C47.3833 17.3868 47.8589 17.2642 48.4323 17.2642C48.9526 17.2642 49.4083 17.3736 49.7994 17.5923C50.1905 17.8078 50.4938 18.1293 50.7092 18.5568C50.9247 18.9844 51.0324 19.513 51.0324 20.1428V25H49.5459V20.3217C49.5459 19.7682 49.4017 19.3357 49.1134 19.0241C48.825 18.7093 48.4289 18.5518 47.9252 18.5518C47.5805 18.5518 47.2739 18.6264 47.0054 18.7756C46.7403 18.9247 46.5298 19.1435 46.374 19.4318C46.2216 19.7169 46.1453 20.0616 46.1453 20.4659ZM56.4609 25.1392C55.7781 25.1392 55.1683 25.0215 54.6313 24.7862C54.0977 24.5509 53.6751 24.2244 53.3636 23.8068C53.0553 23.3859 52.8896 22.8987 52.8664 22.3452H54.4275C54.4474 22.6468 54.5485 22.9086 54.7308 23.1307C54.9164 23.3494 55.1583 23.5185 55.4566 23.6378C55.7549 23.7571 56.0863 23.8168 56.4509 23.8168C56.852 23.8168 57.2066 23.7472 57.5148 23.608C57.8264 23.4687 58.07 23.2749 58.2457 23.0263C58.4213 22.7744 58.5092 22.4844 58.5092 22.1562C58.5092 21.8149 58.4213 21.5149 58.2457 21.2564C58.0733 20.9946 57.8198 20.7891 57.485 20.6399C57.1536 20.4908 56.7525 20.4162 56.2819 20.4162H55.4218V19.1634H56.2819C56.6597 19.1634 56.9912 19.0954 57.2762 18.9595C57.5646 18.8236 57.7899 18.6347 57.9523 18.3928C58.1147 18.1475 58.196 17.8608 58.196 17.5327C58.196 17.2178 58.1247 16.9444 57.9822 16.7124C57.843 16.477 57.6441 16.2931 57.3856 16.1605C57.1304 16.0279 56.8288 15.9616 56.4808 15.9616C56.1493 15.9616 55.8394 16.023 55.5511 16.1456C55.266 16.2649 55.034 16.4373 54.855 16.6626C54.6761 16.8847 54.5799 17.1515 54.5667 17.4631H53.0802C53.0968 16.9129 53.2592 16.429 53.5674 16.0114C53.879 15.5937 54.2899 15.2673 54.8004 15.032C55.3108 14.7966 55.8775 14.679 56.5006 14.679C57.1536 14.679 57.717 14.8066 58.191 15.0618C58.6683 15.3137 59.0362 15.6501 59.2947 16.071C59.5565 16.492 59.6858 16.9527 59.6825 17.4531C59.6858 18.0232 59.5267 18.5071 59.2052 18.9048C58.887 19.3026 58.4628 19.5694 57.9325 19.7053V19.7848C58.6086 19.8875 59.1323 20.156 59.5035 20.5902C59.878 21.0244 60.0636 21.563 60.0603 22.206C60.0636 22.7661 59.9078 23.2682 59.593 23.7124C59.2814 24.1565 58.8555 24.5062 58.3153 24.7614C57.775 25.0133 57.1569 25.1392 56.4609 25.1392ZM65.3943 25.169C64.6088 25.1657 63.9376 24.9586 63.3808 24.5476C62.824 24.1366 62.3981 23.5384 62.1031 22.7528C61.8081 21.9673 61.6606 21.0211 61.6606 19.9141C61.6606 18.8104 61.8081 17.8674 62.1031 17.0852C62.4014 16.303 62.829 15.7064 63.3858 15.2955C63.9459 14.8845 64.6154 14.679 65.3943 14.679C66.1732 14.679 66.841 14.8861 67.3979 15.3004C67.9547 15.7114 68.3806 16.308 68.6756 17.0902C68.9738 17.8691 69.123 18.8104 69.123 19.9141C69.123 21.0244 68.9755 21.9723 68.6805 22.7578C68.3855 23.54 67.9596 24.1383 67.4028 24.5526C66.846 24.9635 66.1765 25.169 65.3943 25.169ZM65.3943 23.8416C66.0837 23.8416 66.6223 23.5052 67.0101 22.8324C67.4012 22.1596 67.5967 21.1868 67.5967 19.9141C67.5967 19.0689 67.5072 18.3546 67.3283 17.7713C67.1526 17.1847 66.899 16.7405 66.5676 16.4389C66.2395 16.134 65.8484 15.9815 65.3943 15.9815C64.7082 15.9815 64.1696 16.3196 63.7785 16.9957C63.3874 17.6719 63.1902 18.6446 63.1869 19.9141C63.1869 20.7625 63.2747 21.4801 63.4504 22.0668C63.6294 22.6501 63.8829 23.0926 64.2111 23.3942C64.5392 23.6925 64.9336 23.8416 65.3943 23.8416ZM74.3414 25.169C73.5559 25.1657 72.8847 24.9586 72.3279 24.5476C71.7711 24.1366 71.3452 23.5384 71.0502 22.7528C70.7552 21.9673 70.6077 21.0211 70.6077 19.9141C70.6077 18.8104 70.7552 17.8674 71.0502 17.0852C71.3485 16.303 71.7761 15.7064 72.3329 15.2955C72.893 14.8845 73.5625 14.679 74.3414 14.679C75.1203 14.679 75.7881 14.8861 76.345 15.3004C76.9018 15.7114 77.3277 16.308 77.6227 17.0902C77.921 17.8691 78.0701 18.8104 78.0701 19.9141C78.0701 21.0244 77.9226 21.9723 77.6276 22.7578C77.3327 23.54 76.9068 24.1383 76.3499 24.5526C75.7931 24.9635 75.1236 25.169 74.3414 25.169ZM74.3414 23.8416C75.0308 23.8416 75.5694 23.5052 75.9572 22.8324C76.3483 22.1596 76.5438 21.1868 76.5438 19.9141C76.5438 19.0689 76.4543 18.3546 76.2754 17.7713C76.0997 17.1847 75.8461 16.7405 75.5147 16.4389C75.1866 16.134 74.7955 15.9815 74.3414 15.9815C73.6553 15.9815 73.1167 16.3196 72.7256 16.9957C72.3345 17.6719 72.1373 18.6446 72.134 19.9141C72.134 20.7625 72.2219 21.4801 72.3975 22.0668C72.5765 22.6501 72.83 23.0926 73.1582 23.3942C73.4863 23.6925 73.8807 23.8416 74.3414 23.8416Z" fill="black"/>
</svg>
