<svg width="342" height="40" viewBox="0 0 342 40" fill="none" xmlns="http://www.w3.org/2000/svg">
<rect width="341.333" height="40" fill="#3ACF80"/>
<path d="M20.0092 18.0348C19.9131 17.7332 19.7839 17.4631 19.6214 17.2244C19.4624 16.9825 19.2718 16.777 19.0497 16.608C18.8277 16.4356 18.5741 16.3047 18.2891 16.2152C18.0073 16.1257 17.6974 16.081 17.3594 16.081C16.786 16.081 16.2689 16.2285 15.8082 16.5234C15.3475 16.8184 14.983 17.2509 14.7145 17.821C14.4493 18.3878 14.3168 19.0821 14.3168 19.9041C14.3168 20.7294 14.451 21.4271 14.7195 21.9972C14.9879 22.5672 15.3558 22.9998 15.8232 23.2947C16.2905 23.5897 16.8224 23.7372 17.419 23.7372C17.9725 23.7372 18.4548 23.6245 18.8658 23.3991C19.2801 23.1738 19.5999 22.8556 19.8253 22.4446C20.054 22.0303 20.1683 21.5431 20.1683 20.983L20.5661 21.0575H17.6527V19.7898H21.6548V20.9482C21.6548 21.8033 21.4725 22.5457 21.108 23.1754C20.7467 23.8018 20.2462 24.2857 19.6065 24.6271C18.9702 24.9685 18.241 25.1392 17.419 25.1392C16.4976 25.1392 15.6889 24.9271 14.9929 24.5028C14.3002 24.0786 13.7599 23.477 13.3722 22.6982C12.9844 21.916 12.7905 20.9879 12.7905 19.9141C12.7905 19.102 12.9032 18.3729 13.1286 17.7266C13.3539 17.0803 13.6705 16.5317 14.0781 16.081C14.4891 15.6269 14.9714 15.2805 15.5249 15.0419C16.0817 14.8 16.6899 14.679 17.3494 14.679C17.8996 14.679 18.4117 14.7602 18.8857 14.9226C19.3629 15.085 19.7872 15.3153 20.1584 15.6136C20.5329 15.9119 20.8428 16.2666 21.0881 16.6776C21.3333 17.0852 21.4991 17.5376 21.5852 18.0348H20.0092ZM23.4856 25V17.3636H24.9224V18.5767H25.002C25.1412 18.1657 25.3864 17.8426 25.7377 17.6072C26.0924 17.3686 26.4934 17.2493 26.9409 17.2493C27.0337 17.2493 27.1431 17.2526 27.269 17.2592C27.3983 17.2659 27.4993 17.2741 27.5723 17.2841V18.706C27.5126 18.6894 27.4065 18.6712 27.2541 18.6513C27.1016 18.6281 26.9492 18.6165 26.7967 18.6165C26.4454 18.6165 26.1322 18.6911 25.8571 18.8402C25.5853 18.986 25.3699 19.1899 25.2108 19.4517C25.0517 19.7102 24.9721 20.0052 24.9721 20.3366V25H23.4856ZM31.8764 25.1541C31.1241 25.1541 30.4761 24.9934 29.9325 24.6719C29.3923 24.3471 28.9747 23.8913 28.6797 23.3047C28.388 22.7147 28.2422 22.0237 28.2422 21.2315C28.2422 20.4493 28.388 19.7599 28.6797 19.1634C28.9747 18.5668 29.3857 18.1011 29.9126 17.7663C30.4429 17.4316 31.0627 17.2642 31.772 17.2642C32.2029 17.2642 32.6205 17.3355 33.0249 17.478C33.4292 17.6205 33.7921 17.8442 34.1136 18.1491C34.4351 18.4541 34.6887 18.8501 34.8743 19.3374C35.0599 19.8213 35.1527 20.4096 35.1527 21.1023V21.6293H29.0824V20.5156H33.696C33.696 20.1245 33.6165 19.7782 33.4574 19.4766C33.2983 19.1716 33.0746 18.9313 32.7862 18.7557C32.5012 18.58 32.1664 18.4922 31.782 18.4922C31.3643 18.4922 30.9998 18.5949 30.6882 18.8004C30.38 19.0026 30.1413 19.2678 29.9723 19.5959C29.8066 19.9207 29.7237 20.2737 29.7237 20.6548V21.5249C29.7237 22.0353 29.8132 22.4695 29.9922 22.8274C30.1745 23.1854 30.428 23.4588 30.7528 23.6477C31.0777 23.8333 31.4571 23.9261 31.8913 23.9261C32.1731 23.9261 32.4299 23.8864 32.6619 23.8068C32.8939 23.724 33.0945 23.6013 33.2635 23.4389C33.4325 23.2765 33.5618 23.076 33.6513 22.8374L35.0582 23.0909C34.9455 23.5052 34.7434 23.8681 34.4517 24.1797C34.1634 24.4879 33.8004 24.7282 33.3629 24.9006C32.9287 25.0696 32.4332 25.1541 31.8764 25.1541ZM40.0932 25.1541C39.3408 25.1541 38.6929 24.9934 38.1493 24.6719C37.6091 24.3471 37.1915 23.8913 36.8965 23.3047C36.6048 22.7147 36.459 22.0237 36.459 21.2315C36.459 20.4493 36.6048 19.7599 36.8965 19.1634C37.1915 18.5668 37.6025 18.1011 38.1294 17.7663C38.6597 17.4316 39.2795 17.2642 39.9888 17.2642C40.4197 17.2642 40.8373 17.3355 41.2417 17.478C41.646 17.6205 42.0089 17.8442 42.3304 18.1491C42.6519 18.4541 42.9055 18.8501 43.0911 19.3374C43.2767 19.8213 43.3695 20.4096 43.3695 21.1023V21.6293H37.2992V20.5156H41.9128C41.9128 20.1245 41.8333 19.7782 41.6742 19.4766C41.5151 19.1716 41.2914 18.9313 41.003 18.7557C40.718 18.58 40.3832 18.4922 39.9988 18.4922C39.5811 18.4922 39.2166 18.5949 38.905 18.8004C38.5968 19.0026 38.3581 19.2678 38.1891 19.5959C38.0234 19.9207 37.9405 20.2737 37.9405 20.6548V21.5249C37.9405 22.0353 38.03 22.4695 38.209 22.8274C38.3913 23.1854 38.6448 23.4588 38.9696 23.6477C39.2944 23.8333 39.6739 23.9261 40.1081 23.9261C40.3899 23.9261 40.6467 23.8864 40.8787 23.8068C41.1107 23.724 41.3113 23.6013 41.4803 23.4389C41.6493 23.2765 41.7786 23.076 41.8681 22.8374L43.275 23.0909C43.1623 23.5052 42.9602 23.8681 42.6685 24.1797C42.3801 24.4879 42.0172 24.7282 41.5797 24.9006C41.1455 25.0696 40.65 25.1541 40.0932 25.1541ZM46.5053 20.4659V25H45.0188V17.3636H46.4457V18.6065H46.5401C46.7158 18.2022 46.9909 17.8774 47.3654 17.6321C47.7433 17.3868 48.2189 17.2642 48.7923 17.2642C49.3126 17.2642 49.7683 17.3736 50.1594 17.5923C50.5505 17.8078 50.8538 18.1293 51.0692 18.5568C51.2847 18.9844 51.3924 19.513 51.3924 20.1428V25H49.9059V20.3217C49.9059 19.7682 49.7617 19.3357 49.4734 19.0241C49.185 18.7093 48.7889 18.5518 48.2852 18.5518C47.9405 18.5518 47.6339 18.6264 47.3654 18.7756C47.1003 18.9247 46.8898 19.1435 46.734 19.4318C46.5816 19.7169 46.5053 20.0616 46.5053 20.4659ZM56.9208 25.1392C56.4667 25.1326 56.0193 25.0497 55.5785 24.8906C55.141 24.7315 54.7433 24.4664 54.3853 24.0952C54.0273 23.724 53.7406 23.2251 53.5252 22.5987C53.3131 21.9723 53.207 21.1901 53.207 20.2521C53.207 19.3639 53.2949 18.575 53.4705 17.8857C53.6495 17.1963 53.9064 16.6146 54.2411 16.1406C54.5759 15.6634 54.9802 15.3004 55.4542 15.0518C55.9281 14.8033 56.4601 14.679 57.0501 14.679C57.6566 14.679 58.1952 14.7983 58.6658 15.0369C59.1365 15.2756 59.5176 15.6054 59.8093 16.0263C60.1043 16.4472 60.2915 16.9261 60.3711 17.4631H58.8548C58.752 17.0388 58.5482 16.6925 58.2433 16.424C57.9383 16.1555 57.5406 16.0213 57.0501 16.0213C56.3043 16.0213 55.7227 16.3461 55.305 16.9957C54.8907 17.6454 54.6819 18.5485 54.6786 19.7053H54.7532C54.9289 19.4169 55.1443 19.1716 55.3995 18.9695C55.658 18.764 55.9464 18.6065 56.2646 18.4972C56.5861 18.3845 56.9241 18.3281 57.2788 18.3281C57.8687 18.3281 58.4023 18.4723 58.8796 18.7607C59.3602 19.0457 59.743 19.4401 60.0281 19.9439C60.3131 20.4477 60.4556 21.0244 60.4556 21.674C60.4556 22.3236 60.3081 22.9119 60.0131 23.4389C59.7215 23.9659 59.3105 24.3835 58.7802 24.6918C58.2499 24.9967 57.6301 25.1458 56.9208 25.1392ZM56.9158 23.8466C57.3069 23.8466 57.6566 23.7505 57.9648 23.5582C58.2731 23.366 58.5167 23.1075 58.6957 22.7827C58.8746 22.4579 58.9641 22.0949 58.9641 21.6939C58.9641 21.3028 58.8763 20.9465 58.7006 20.625C58.5283 20.3035 58.2897 20.0483 57.9847 19.8594C57.6831 19.6705 57.3384 19.576 56.9506 19.576C56.6557 19.576 56.3822 19.6323 56.1303 19.745C55.8817 19.8577 55.663 20.0135 55.4741 20.2124C55.2852 20.4112 55.136 20.6399 55.0266 20.8984C54.9206 21.1536 54.8675 21.4238 54.8675 21.7088C54.8675 22.09 54.9554 22.4429 55.131 22.7678C55.31 23.0926 55.5536 23.3544 55.8619 23.5533C56.1734 23.7488 56.5247 23.8466 56.9158 23.8466ZM65.8113 25.169C65.0257 25.1657 64.3546 24.9586 63.7978 24.5476C63.2409 24.1366 62.815 23.5384 62.5201 22.7528C62.2251 21.9673 62.0776 21.0211 62.0776 19.9141C62.0776 18.8104 62.2251 17.8674 62.5201 17.0852C62.8184 16.303 63.2459 15.7064 63.8027 15.2955C64.3629 14.8845 65.0324 14.679 65.8113 14.679C66.5901 14.679 67.258 14.8861 67.8148 15.3004C68.3716 15.7114 68.7975 16.308 69.0925 17.0902C69.3908 17.8691 69.54 18.8104 69.54 19.9141C69.54 21.0244 69.3925 21.9723 69.0975 22.7578C68.8025 23.54 68.3766 24.1383 67.8198 24.5526C67.263 24.9635 66.5935 25.169 65.8113 25.169ZM65.8113 23.8416C66.5007 23.8416 67.0392 23.5052 67.427 22.8324C67.8181 22.1596 68.0137 21.1868 68.0137 19.9141C68.0137 19.0689 67.9242 18.3546 67.7452 17.7713C67.5695 17.1847 67.316 16.7405 66.9846 16.4389C66.6564 16.134 66.2653 15.9815 65.8113 15.9815C65.1252 15.9815 64.5866 16.3196 64.1955 16.9957C63.8044 17.6719 63.6072 18.6446 63.6039 19.9141C63.6039 20.7625 63.6917 21.4801 63.8674 22.0668C64.0463 22.6501 64.2999 23.0926 64.628 23.3942C64.9561 23.6925 65.3506 23.8416 65.8113 23.8416ZM74.8484 25.169C74.0629 25.1657 73.3917 24.9586 72.8349 24.5476C72.2781 24.1366 71.8522 23.5384 71.5572 22.7528C71.2622 21.9673 71.1147 21.0211 71.1147 19.9141C71.1147 18.8104 71.2622 17.8674 71.5572 17.0852C71.8555 16.303 72.283 15.7064 72.8398 15.2955C73.4 14.8845 74.0695 14.679 74.8484 14.679C75.6272 14.679 76.2951 14.8861 76.8519 15.3004C77.4087 15.7114 77.8346 16.308 78.1296 17.0902C78.4279 17.8691 78.5771 18.8104 78.5771 19.9141C78.5771 21.0244 78.4296 21.9723 78.1346 22.7578C77.8396 23.54 77.4137 24.1383 76.8569 24.5526C76.3001 24.9635 75.6306 25.169 74.8484 25.169ZM74.8484 23.8416C75.5378 23.8416 76.0763 23.5052 76.4641 22.8324C76.8552 22.1596 77.0508 21.1868 77.0508 19.9141C77.0508 19.0689 76.9613 18.3546 76.7823 17.7713C76.6067 17.1847 76.3531 16.7405 76.0217 16.4389C75.6935 16.134 75.3024 15.9815 74.8484 15.9815C74.1623 15.9815 73.6237 16.3196 73.2326 16.9957C72.8415 17.6719 72.6443 18.6446 72.641 19.9141C72.641 20.7625 72.7288 21.4801 72.9045 22.0668C73.0835 22.6501 73.337 23.0926 73.6651 23.3942C73.9933 23.6925 74.3877 23.8416 74.8484 23.8416Z" fill="white"/>
</svg>
