<svg width="342" height="40" viewBox="0 0 342 40" fill="none" xmlns="http://www.w3.org/2000/svg">
<rect width="341.333" height="40" fill="#298554"/>
<path d="M20.0092 18.0348C19.9131 17.7332 19.7839 17.4631 19.6214 17.2244C19.4624 16.9825 19.2718 16.777 19.0497 16.608C18.8277 16.4356 18.5741 16.3047 18.2891 16.2152C18.0073 16.1257 17.6974 16.081 17.3594 16.081C16.786 16.081 16.2689 16.2285 15.8082 16.5234C15.3475 16.8184 14.983 17.2509 14.7145 17.821C14.4493 18.3878 14.3168 19.0821 14.3168 19.9041C14.3168 20.7294 14.451 21.4271 14.7195 21.9972C14.9879 22.5672 15.3558 22.9998 15.8232 23.2947C16.2905 23.5897 16.8224 23.7372 17.419 23.7372C17.9725 23.7372 18.4548 23.6245 18.8658 23.3991C19.2801 23.1738 19.5999 22.8556 19.8253 22.4446C20.054 22.0303 20.1683 21.5431 20.1683 20.983L20.5661 21.0575H17.6527V19.7898H21.6548V20.9482C21.6548 21.8033 21.4725 22.5457 21.108 23.1754C20.7467 23.8018 20.2462 24.2857 19.6065 24.6271C18.9702 24.9685 18.241 25.1392 17.419 25.1392C16.4976 25.1392 15.6889 24.9271 14.9929 24.5028C14.3002 24.0786 13.7599 23.477 13.3722 22.6982C12.9844 21.916 12.7905 20.9879 12.7905 19.9141C12.7905 19.102 12.9032 18.3729 13.1286 17.7266C13.3539 17.0803 13.6705 16.5317 14.0781 16.081C14.4891 15.6269 14.9714 15.2805 15.5249 15.0419C16.0817 14.8 16.6899 14.679 17.3494 14.679C17.8996 14.679 18.4117 14.7602 18.8857 14.9226C19.3629 15.085 19.7872 15.3153 20.1584 15.6136C20.5329 15.9119 20.8428 16.2666 21.0881 16.6776C21.3333 17.0852 21.4991 17.5376 21.5852 18.0348H20.0092ZM23.4856 25V17.3636H24.9224V18.5767H25.002C25.1412 18.1657 25.3864 17.8426 25.7377 17.6072C26.0924 17.3686 26.4934 17.2493 26.9409 17.2493C27.0337 17.2493 27.1431 17.2526 27.269 17.2592C27.3983 17.2659 27.4993 17.2741 27.5723 17.2841V18.706C27.5126 18.6894 27.4065 18.6712 27.2541 18.6513C27.1016 18.6281 26.9492 18.6165 26.7967 18.6165C26.4454 18.6165 26.1322 18.6911 25.8571 18.8402C25.5853 18.986 25.3699 19.1899 25.2108 19.4517C25.0517 19.7102 24.9721 20.0052 24.9721 20.3366V25H23.4856ZM31.8764 25.1541C31.1241 25.1541 30.4761 24.9934 29.9325 24.6719C29.3923 24.3471 28.9747 23.8913 28.6797 23.3047C28.388 22.7147 28.2422 22.0237 28.2422 21.2315C28.2422 20.4493 28.388 19.7599 28.6797 19.1634C28.9747 18.5668 29.3857 18.1011 29.9126 17.7663C30.4429 17.4316 31.0627 17.2642 31.772 17.2642C32.2029 17.2642 32.6205 17.3355 33.0249 17.478C33.4292 17.6205 33.7921 17.8442 34.1136 18.1491C34.4351 18.4541 34.6887 18.8501 34.8743 19.3374C35.0599 19.8213 35.1527 20.4096 35.1527 21.1023V21.6293H29.0824V20.5156H33.696C33.696 20.1245 33.6165 19.7782 33.4574 19.4766C33.2983 19.1716 33.0746 18.9313 32.7862 18.7557C32.5012 18.58 32.1664 18.4922 31.782 18.4922C31.3643 18.4922 30.9998 18.5949 30.6882 18.8004C30.38 19.0026 30.1413 19.2678 29.9723 19.5959C29.8066 19.9207 29.7237 20.2737 29.7237 20.6548V21.5249C29.7237 22.0353 29.8132 22.4695 29.9922 22.8274C30.1745 23.1854 30.428 23.4588 30.7528 23.6477C31.0777 23.8333 31.4571 23.9261 31.8913 23.9261C32.1731 23.9261 32.4299 23.8864 32.6619 23.8068C32.8939 23.724 33.0945 23.6013 33.2635 23.4389C33.4325 23.2765 33.5618 23.076 33.6513 22.8374L35.0582 23.0909C34.9455 23.5052 34.7434 23.8681 34.4517 24.1797C34.1634 24.4879 33.8004 24.7282 33.3629 24.9006C32.9287 25.0696 32.4332 25.1541 31.8764 25.1541ZM40.0932 25.1541C39.3408 25.1541 38.6929 24.9934 38.1493 24.6719C37.6091 24.3471 37.1915 23.8913 36.8965 23.3047C36.6048 22.7147 36.459 22.0237 36.459 21.2315C36.459 20.4493 36.6048 19.7599 36.8965 19.1634C37.1915 18.5668 37.6025 18.1011 38.1294 17.7663C38.6597 17.4316 39.2795 17.2642 39.9888 17.2642C40.4197 17.2642 40.8373 17.3355 41.2417 17.478C41.646 17.6205 42.0089 17.8442 42.3304 18.1491C42.6519 18.4541 42.9055 18.8501 43.0911 19.3374C43.2767 19.8213 43.3695 20.4096 43.3695 21.1023V21.6293H37.2992V20.5156H41.9128C41.9128 20.1245 41.8333 19.7782 41.6742 19.4766C41.5151 19.1716 41.2914 18.9313 41.003 18.7557C40.718 18.58 40.3832 18.4922 39.9988 18.4922C39.5811 18.4922 39.2166 18.5949 38.905 18.8004C38.5968 19.0026 38.3581 19.2678 38.1891 19.5959C38.0234 19.9207 37.9405 20.2737 37.9405 20.6548V21.5249C37.9405 22.0353 38.03 22.4695 38.209 22.8274C38.3913 23.1854 38.6448 23.4588 38.9696 23.6477C39.2944 23.8333 39.6739 23.9261 40.1081 23.9261C40.3899 23.9261 40.6467 23.8864 40.8787 23.8068C41.1107 23.724 41.3113 23.6013 41.4803 23.4389C41.6493 23.2765 41.7786 23.076 41.8681 22.8374L43.275 23.0909C43.1623 23.5052 42.9602 23.8681 42.6685 24.1797C42.3801 24.4879 42.0172 24.7282 41.5797 24.9006C41.1455 25.0696 40.65 25.1541 40.0932 25.1541ZM46.5053 20.4659V25H45.0188V17.3636H46.4457V18.6065H46.5401C46.7158 18.2022 46.9909 17.8774 47.3654 17.6321C47.7433 17.3868 48.2189 17.2642 48.7923 17.2642C49.3126 17.2642 49.7683 17.3736 50.1594 17.5923C50.5505 17.8078 50.8538 18.1293 51.0692 18.5568C51.2847 18.9844 51.3924 19.513 51.3924 20.1428V25H49.9059V20.3217C49.9059 19.7682 49.7617 19.3357 49.4734 19.0241C49.185 18.7093 48.7889 18.5518 48.2852 18.5518C47.9405 18.5518 47.6339 18.6264 47.3654 18.7756C47.1003 18.9247 46.8898 19.1435 46.734 19.4318C46.5816 19.7169 46.5053 20.0616 46.5053 20.4659ZM56.8065 25.1392C56.0939 25.1392 55.4641 25.0166 54.9173 24.7713C54.3737 24.526 53.9478 24.188 53.6396 23.7571C53.3313 23.3262 53.1789 22.8357 53.1822 22.2855C53.1789 21.8546 53.2667 21.4586 53.4457 21.0973C53.628 20.7327 53.8749 20.4295 54.1864 20.1875C54.498 19.9422 54.846 19.7865 55.2305 19.7202V19.6605C54.7234 19.5379 54.3174 19.2661 54.0124 18.8452C53.7075 18.4242 53.5567 17.9403 53.56 17.3935C53.5567 16.8731 53.6942 16.4091 53.9727 16.0014C54.2544 15.5904 54.6405 15.2673 55.131 15.032C55.6216 14.7966 56.18 14.679 56.8065 14.679C57.4263 14.679 57.9798 14.7983 58.467 15.0369C58.9575 15.2723 59.3436 15.5954 59.6254 16.0064C59.9071 16.4141 60.0496 16.8764 60.0529 17.3935C60.0496 17.9403 59.8938 18.4242 59.5856 18.8452C59.2773 19.2661 58.8763 19.5379 58.3825 19.6605V19.7202C58.7636 19.7865 59.1067 19.9422 59.4116 20.1875C59.7198 20.4295 59.9651 20.7327 60.1474 21.0973C60.333 21.4586 60.4274 21.8546 60.4308 22.2855C60.4274 22.8357 60.2717 23.3262 59.9634 23.7571C59.6552 24.188 59.2276 24.526 58.6808 24.7713C58.1372 25.0166 57.5124 25.1392 56.8065 25.1392ZM56.8065 23.8814C57.2274 23.8814 57.592 23.8118 57.9002 23.6726C58.2085 23.5301 58.4471 23.3329 58.6161 23.081C58.7852 22.8258 58.8713 22.5275 58.8746 22.1861C58.8713 21.8314 58.7785 21.5182 58.5962 21.2464C58.4173 20.9747 58.1737 20.7609 57.8654 20.6051C57.5572 20.4493 57.2042 20.3714 56.8065 20.3714C56.4054 20.3714 56.0491 20.4493 55.7376 20.6051C55.426 20.7609 55.1808 20.9747 55.0018 21.2464C54.8228 21.5182 54.735 21.8314 54.7383 22.1861C54.735 22.5275 54.8162 22.8258 54.9819 23.081C55.1509 23.3329 55.3912 23.5301 55.7028 23.6726C56.0143 23.8118 56.3822 23.8814 56.8065 23.8814ZM56.8065 19.1435C57.1445 19.1435 57.4445 19.0755 57.7063 18.9396C57.9682 18.8037 58.1737 18.6148 58.3228 18.3729C58.4753 18.1309 58.5531 17.8475 58.5565 17.5227C58.5531 17.2045 58.4769 16.9261 58.3278 16.6875C58.1819 16.4489 57.9781 16.2649 57.7163 16.1357C57.4544 16.0031 57.1512 15.9368 56.8065 15.9368C56.4551 15.9368 56.1469 16.0031 55.8817 16.1357C55.6199 16.2649 55.4161 16.4489 55.2702 16.6875C55.1244 16.9261 55.0531 17.2045 55.0565 17.5227C55.0531 17.8475 55.1261 18.1309 55.2752 18.3729C55.4244 18.6148 55.6299 18.8037 55.8917 18.9396C56.1568 19.0755 56.4618 19.1435 56.8065 19.1435ZM65.7566 25.169C64.9711 25.1657 64.2999 24.9586 63.7431 24.5476C63.1863 24.1366 62.7604 23.5384 62.4654 22.7528C62.1704 21.9673 62.0229 21.0211 62.0229 19.9141C62.0229 18.8104 62.1704 17.8674 62.4654 17.0852C62.7637 16.303 63.1912 15.7064 63.748 15.2955C64.3082 14.8845 64.9777 14.679 65.7566 14.679C66.5355 14.679 67.2033 14.8861 67.7601 15.3004C68.3169 15.7114 68.7428 16.308 69.0378 17.0902C69.3361 17.8691 69.4853 18.8104 69.4853 19.9141C69.4853 21.0244 69.3378 21.9723 69.0428 22.7578C68.7478 23.54 68.3219 24.1383 67.7651 24.5526C67.2083 24.9635 66.5388 25.169 65.7566 25.169ZM65.7566 23.8416C66.446 23.8416 66.9846 23.5052 67.3723 22.8324C67.7634 22.1596 67.959 21.1868 67.959 19.9141C67.959 19.0689 67.8695 18.3546 67.6905 17.7713C67.5149 17.1847 67.2613 16.7405 66.9299 16.4389C66.6017 16.134 66.2106 15.9815 65.7566 15.9815C65.0705 15.9815 64.5319 16.3196 64.1408 16.9957C63.7497 17.6719 63.5525 18.6446 63.5492 19.9141C63.5492 20.7625 63.637 21.4801 63.8127 22.0668C63.9917 22.6501 64.2452 23.0926 64.5733 23.3942C64.9015 23.6925 65.2959 23.8416 65.7566 23.8416ZM74.7937 25.169C74.0082 25.1657 73.337 24.9586 72.7802 24.5476C72.2234 24.1366 71.7975 23.5384 71.5025 22.7528C71.2075 21.9673 71.06 21.0211 71.06 19.9141C71.06 18.8104 71.2075 17.8674 71.5025 17.0852C71.8008 16.303 72.2283 15.7064 72.7852 15.2955C73.3453 14.8845 74.0148 14.679 74.7937 14.679C75.5726 14.679 76.2404 14.8861 76.7972 15.3004C77.354 15.7114 77.7799 16.308 78.0749 17.0902C78.3732 17.8691 78.5224 18.8104 78.5224 19.9141C78.5224 21.0244 78.3749 21.9723 78.0799 22.7578C77.7849 23.54 77.359 24.1383 76.8022 24.5526C76.2454 24.9635 75.5759 25.169 74.7937 25.169ZM74.7937 23.8416C75.4831 23.8416 76.0217 23.5052 76.4094 22.8324C76.8005 22.1596 76.9961 21.1868 76.9961 19.9141C76.9961 19.0689 76.9066 18.3546 76.7276 17.7713C76.552 17.1847 76.2984 16.7405 75.967 16.4389C75.6388 16.134 75.2478 15.9815 74.7937 15.9815C74.1076 15.9815 73.569 16.3196 73.1779 16.9957C72.7868 17.6719 72.5896 18.6446 72.5863 19.9141C72.5863 20.7625 72.6741 21.4801 72.8498 22.0668C73.0288 22.6501 73.2823 23.0926 73.6104 23.3942C73.9386 23.6925 74.333 23.8416 74.7937 23.8416Z" fill="white"/>
</svg>
