<svg width="240" height="40" viewBox="0 0 240 40" fill="none" xmlns="http://www.w3.org/2000/svg">
<rect width="240" height="40" fill="#2A995A"/>
<path d="M20.0092 18.0348C19.9131 17.7332 19.7839 17.4631 19.6214 17.2244C19.4624 16.9825 19.2718 16.777 19.0497 16.608C18.8277 16.4356 18.5741 16.3047 18.2891 16.2152C18.0073 16.1257 17.6974 16.081 17.3594 16.081C16.786 16.081 16.2689 16.2285 15.8082 16.5234C15.3475 16.8184 14.983 17.2509 14.7145 17.821C14.4493 18.3878 14.3168 19.0821 14.3168 19.9041C14.3168 20.7294 14.451 21.4271 14.7195 21.9972C14.9879 22.5672 15.3558 22.9998 15.8232 23.2947C16.2905 23.5897 16.8224 23.7372 17.419 23.7372C17.9725 23.7372 18.4548 23.6245 18.8658 23.3991C19.2801 23.1738 19.5999 22.8556 19.8253 22.4446C20.054 22.0303 20.1683 21.5431 20.1683 20.983L20.5661 21.0575H17.6527V19.7898H21.6548V20.9482C21.6548 21.8033 21.4725 22.5457 21.108 23.1754C20.7467 23.8018 20.2462 24.2857 19.6065 24.6271C18.9702 24.9685 18.241 25.1392 17.419 25.1392C16.4976 25.1392 15.6889 24.9271 14.9929 24.5028C14.3002 24.0786 13.7599 23.477 13.3722 22.6982C12.9844 21.916 12.7905 20.9879 12.7905 19.9141C12.7905 19.102 12.9032 18.3729 13.1286 17.7266C13.3539 17.0803 13.6705 16.5317 14.0781 16.081C14.4891 15.6269 14.9714 15.2805 15.5249 15.0419C16.0817 14.8 16.6899 14.679 17.3494 14.679C17.8996 14.679 18.4117 14.7602 18.8857 14.9226C19.3629 15.085 19.7872 15.3153 20.1584 15.6136C20.5329 15.9119 20.8428 16.2666 21.0881 16.6776C21.3333 17.0852 21.4991 17.5376 21.5852 18.0348H20.0092ZM23.3956 25V17.3636H24.8324V18.5767H24.912C25.0512 18.1657 25.2964 17.8426 25.6477 17.6072C26.0024 17.3686 26.4034 17.2493 26.8509 17.2493C26.9437 17.2493 27.0531 17.2526 27.179 17.2592C27.3083 17.2659 27.4093 17.2741 27.4823 17.2841V18.706C27.4226 18.6894 27.3165 18.6712 27.1641 18.6513C27.0116 18.6281 26.8592 18.6165 26.7067 18.6165C26.3554 18.6165 26.0422 18.6911 25.7671 18.8402C25.4953 18.986 25.2799 19.1899 25.1208 19.4517C24.9617 19.7102 24.8821 20.0052 24.8821 20.3366V25H23.3956ZM31.6964 25.1541C30.9441 25.1541 30.2961 24.9934 29.7525 24.6719C29.2123 24.3471 28.7947 23.8913 28.4997 23.3047C28.208 22.7147 28.0622 22.0237 28.0622 21.2315C28.0622 20.4493 28.208 19.7599 28.4997 19.1634C28.7947 18.5668 29.2057 18.1011 29.7326 17.7663C30.2629 17.4316 30.8827 17.2642 31.592 17.2642C32.0229 17.2642 32.4405 17.3355 32.8449 17.478C33.2492 17.6205 33.6121 17.8442 33.9336 18.1491C34.2551 18.4541 34.5087 18.8501 34.6943 19.3374C34.8799 19.8213 34.9727 20.4096 34.9727 21.1023V21.6293H28.9024V20.5156H33.516C33.516 20.1245 33.4365 19.7782 33.2774 19.4766C33.1183 19.1716 32.8946 18.9313 32.6062 18.7557C32.3212 18.58 31.9864 18.4922 31.602 18.4922C31.1843 18.4922 30.8198 18.5949 30.5082 18.8004C30.2 19.0026 29.9613 19.2678 29.7923 19.5959C29.6266 19.9207 29.5437 20.2737 29.5437 20.6548V21.5249C29.5437 22.0353 29.6332 22.4695 29.8122 22.8274C29.9945 23.1854 30.248 23.4588 30.5728 23.6477C30.8977 23.8333 31.2771 23.9261 31.7113 23.9261C31.9931 23.9261 32.2499 23.8864 32.4819 23.8068C32.7139 23.724 32.9145 23.6013 33.0835 23.4389C33.2525 23.2765 33.3818 23.076 33.4713 22.8374L34.8782 23.0909C34.7655 23.5052 34.5634 23.8681 34.2717 24.1797C33.9834 24.4879 33.6204 24.7282 33.1829 24.9006C32.7487 25.0696 32.2532 25.1541 31.6964 25.1541ZM39.8232 25.1541C39.0708 25.1541 38.4229 24.9934 37.8793 24.6719C37.3391 24.3471 36.9215 23.8913 36.6265 23.3047C36.3348 22.7147 36.189 22.0237 36.189 21.2315C36.189 20.4493 36.3348 19.7599 36.6265 19.1634C36.9215 18.5668 37.3324 18.1011 37.8594 17.7663C38.3897 17.4316 39.0095 17.2642 39.7188 17.2642C40.1497 17.2642 40.5673 17.3355 40.9717 17.478C41.376 17.6205 41.7389 17.8442 42.0604 18.1491C42.3819 18.4541 42.6355 18.8501 42.8211 19.3374C43.0067 19.8213 43.0995 20.4096 43.0995 21.1023V21.6293H37.0292V20.5156H41.6428C41.6428 20.1245 41.5633 19.7782 41.4042 19.4766C41.2451 19.1716 41.0214 18.9313 40.733 18.7557C40.448 18.58 40.1132 18.4922 39.7288 18.4922C39.3111 18.4922 38.9466 18.5949 38.635 18.8004C38.3268 19.0026 38.0881 19.2678 37.9191 19.5959C37.7534 19.9207 37.6705 20.2737 37.6705 20.6548V21.5249C37.6705 22.0353 37.76 22.4695 37.939 22.8274C38.1213 23.1854 38.3748 23.4588 38.6996 23.6477C39.0244 23.8333 39.4039 23.9261 39.8381 23.9261C40.1199 23.9261 40.3767 23.8864 40.6087 23.8068C40.8407 23.724 41.0413 23.6013 41.2103 23.4389C41.3793 23.2765 41.5086 23.076 41.5981 22.8374L43.005 23.0909C42.8923 23.5052 42.6902 23.8681 42.3985 24.1797C42.1101 24.4879 41.7472 24.7282 41.3097 24.9006C40.8755 25.0696 40.38 25.1541 39.8232 25.1541ZM46.1453 20.4659V25H44.6588V17.3636H46.0857V18.6065H46.1801C46.3558 18.2022 46.6309 17.8774 47.0054 17.6321C47.3833 17.3868 47.8589 17.2642 48.4323 17.2642C48.9526 17.2642 49.4083 17.3736 49.7994 17.5923C50.1905 17.8078 50.4938 18.1293 50.7092 18.5568C50.9247 18.9844 51.0324 19.513 51.0324 20.1428V25H49.5459V20.3217C49.5459 19.7682 49.4017 19.3357 49.1134 19.0241C48.825 18.7093 48.4289 18.5518 47.9252 18.5518C47.5805 18.5518 47.2739 18.6264 47.0054 18.7756C46.7403 18.9247 46.5298 19.1435 46.374 19.4318C46.2216 19.7169 46.1453 20.0616 46.1453 20.4659ZM56.4708 25.1392C56.0167 25.1326 55.5693 25.0497 55.1285 24.8906C54.691 24.7315 54.2933 24.4664 53.9353 24.0952C53.5773 23.724 53.2906 23.2251 53.0752 22.5987C52.8631 21.9723 52.757 21.1901 52.757 20.2521C52.757 19.3639 52.8449 18.575 53.0205 17.8857C53.1995 17.1963 53.4564 16.6146 53.7911 16.1406C54.1259 15.6634 54.5302 15.3004 55.0042 15.0518C55.4781 14.8033 56.0101 14.679 56.6001 14.679C57.2066 14.679 57.7452 14.7983 58.2158 15.0369C58.6865 15.2756 59.0676 15.6054 59.3593 16.0263C59.6543 16.4472 59.8415 16.9261 59.9211 17.4631H58.4048C58.302 17.0388 58.0982 16.6925 57.7933 16.424C57.4883 16.1555 57.0906 16.0213 56.6001 16.0213C55.8543 16.0213 55.2727 16.3461 54.855 16.9957C54.4407 17.6454 54.2319 18.5485 54.2286 19.7053H54.3032C54.4789 19.4169 54.6943 19.1716 54.9495 18.9695C55.208 18.764 55.4964 18.6065 55.8146 18.4972C56.1361 18.3845 56.4741 18.3281 56.8288 18.3281C57.4187 18.3281 57.9523 18.4723 58.4296 18.7607C58.9102 19.0457 59.293 19.4401 59.5781 19.9439C59.8631 20.4477 60.0056 21.0244 60.0056 21.674C60.0056 22.3236 59.8581 22.9119 59.5631 23.4389C59.2715 23.9659 58.8605 24.3835 58.3302 24.6918C57.7999 24.9967 57.1801 25.1458 56.4708 25.1392ZM56.4658 23.8466C56.8569 23.8466 57.2066 23.7505 57.5148 23.5582C57.8231 23.366 58.0667 23.1075 58.2457 22.7827C58.4246 22.4579 58.5141 22.0949 58.5141 21.6939C58.5141 21.3028 58.4263 20.9465 58.2506 20.625C58.0783 20.3035 57.8397 20.0483 57.5347 19.8594C57.2331 19.6705 56.8884 19.576 56.5006 19.576C56.2057 19.576 55.9322 19.6323 55.6803 19.745C55.4317 19.8577 55.213 20.0135 55.0241 20.2124C54.8352 20.4112 54.686 20.6399 54.5766 20.8984C54.4706 21.1536 54.4175 21.4238 54.4175 21.7088C54.4175 22.09 54.5054 22.4429 54.681 22.7678C54.86 23.0926 55.1036 23.3544 55.4119 23.5533C55.7234 23.7488 56.0747 23.8466 56.4658 23.8466ZM65.2713 25.169C64.4857 25.1657 63.8146 24.9586 63.2578 24.5476C62.7009 24.1366 62.275 23.5384 61.9801 22.7528C61.6851 21.9673 61.5376 21.0211 61.5376 19.9141C61.5376 18.8104 61.6851 17.8674 61.9801 17.0852C62.2784 16.303 62.7059 15.7064 63.2627 15.2955C63.8229 14.8845 64.4924 14.679 65.2713 14.679C66.0501 14.679 66.718 14.8861 67.2748 15.3004C67.8316 15.7114 68.2575 16.308 68.5525 17.0902C68.8508 17.8691 68.9999 18.8104 68.9999 19.9141C68.9999 21.0244 68.8525 21.9723 68.5575 22.7578C68.2625 23.54 67.8366 24.1383 67.2798 24.5526C66.723 24.9635 66.0535 25.169 65.2713 25.169ZM65.2713 23.8416C65.9607 23.8416 66.4992 23.5052 66.887 22.8324C67.2781 22.1596 67.4737 21.1868 67.4737 19.9141C67.4737 19.0689 67.3842 18.3546 67.2052 17.7713C67.0295 17.1847 66.776 16.7405 66.4446 16.4389C66.1164 16.134 65.7253 15.9815 65.2713 15.9815C64.5852 15.9815 64.0466 16.3196 63.6555 16.9957C63.2644 17.6719 63.0672 18.6446 63.0639 19.9141C63.0639 20.7625 63.1517 21.4801 63.3274 22.0668C63.5063 22.6501 63.7599 23.0926 64.088 23.3942C64.4161 23.6925 64.8106 23.8416 65.2713 23.8416ZM74.2184 25.169C73.4329 25.1657 72.7617 24.9586 72.2049 24.5476C71.6481 24.1366 71.2222 23.5384 70.9272 22.7528C70.6322 21.9673 70.4847 21.0211 70.4847 19.9141C70.4847 18.8104 70.6322 17.8674 70.9272 17.0852C71.2255 16.303 71.653 15.7064 72.2098 15.2955C72.77 14.8845 73.4395 14.679 74.2184 14.679C74.9972 14.679 75.6651 14.8861 76.2219 15.3004C76.7787 15.7114 77.2046 16.308 77.4996 17.0902C77.7979 17.8691 77.9471 18.8104 77.9471 19.9141C77.9471 21.0244 77.7996 21.9723 77.5046 22.7578C77.2096 23.54 76.7837 24.1383 76.2269 24.5526C75.6701 24.9635 75.0006 25.169 74.2184 25.169ZM74.2184 23.8416C74.9078 23.8416 75.4463 23.5052 75.8341 22.8324C76.2252 22.1596 76.4208 21.1868 76.4208 19.9141C76.4208 19.0689 76.3313 18.3546 76.1523 17.7713C75.9767 17.1847 75.7231 16.7405 75.3917 16.4389C75.0635 16.134 74.6724 15.9815 74.2184 15.9815C73.5323 15.9815 72.9937 16.3196 72.6026 16.9957C72.2115 17.6719 72.0143 18.6446 72.011 19.9141C72.011 20.7625 72.0988 21.4801 72.2745 22.0668C72.4535 22.6501 72.707 23.0926 73.0351 23.3942C73.3633 23.6925 73.7577 23.8416 74.2184 23.8416Z" fill="white"/>
</svg>
