<svg width="342" height="40" viewBox="0 0 342 40" fill="none" xmlns="http://www.w3.org/2000/svg">
<rect width="341.333" height="40" transform="translate(0.666992)" fill="#E98847"/>
<path d="M22.6301 19.9091C22.6301 20.9962 22.4312 21.9309 22.0335 22.7131C21.6357 23.492 21.0905 24.0919 20.3978 24.5128C19.7084 24.9304 18.9246 25.1392 18.0463 25.1392C17.1646 25.1392 16.3775 24.9304 15.6847 24.5128C14.9954 24.0919 14.4518 23.4903 14.0541 22.7081C13.6563 21.9259 13.4575 20.9929 13.4575 19.9091C13.4575 18.822 13.6563 17.889 14.0541 17.1101C14.4518 16.3279 14.9954 15.728 15.6847 15.3104C16.3775 14.8894 17.1646 14.679 18.0463 14.679C18.9246 14.679 19.7084 14.8894 20.3978 15.3104C21.0905 15.728 21.6357 16.3279 22.0335 17.1101C22.4312 17.889 22.6301 18.822 22.6301 19.9091ZM21.1088 19.9091C21.1088 19.0805 20.9745 18.3828 20.7061 17.8161C20.4409 17.246 20.0763 16.8151 19.6123 16.5234C19.1516 16.2285 18.6296 16.081 18.0463 16.081C17.4596 16.081 16.9359 16.2285 16.4752 16.5234C16.0145 16.8151 15.6499 17.246 15.3815 17.8161C15.1163 18.3828 14.9838 19.0805 14.9838 19.9091C14.9838 20.7377 15.1163 21.437 15.3815 22.0071C15.6499 22.5739 16.0145 23.0047 16.4752 23.2997C16.9359 23.5914 17.4596 23.7372 18.0463 23.7372C18.6296 23.7372 19.1516 23.5914 19.6123 23.2997C20.0763 23.0047 20.4409 22.5739 20.7061 22.0071C20.9745 21.437 21.1088 20.7377 21.1088 19.9091ZM24.426 25V17.3636H25.8628V18.5767H25.9424C26.0816 18.1657 26.3269 17.8426 26.6782 17.6072C27.0328 17.3686 27.4339 17.2493 27.8813 17.2493C27.9741 17.2493 28.0835 17.2526 28.2094 17.2592C28.3387 17.2659 28.4398 17.2741 28.5127 17.2841V18.706C28.453 18.6894 28.347 18.6712 28.1945 18.6513C28.0421 18.6281 27.8896 18.6165 27.7371 18.6165C27.3858 18.6165 27.0726 18.6911 26.7975 18.8402C26.5257 18.986 26.3103 19.1899 26.1512 19.4517C25.9921 19.7102 25.9126 20.0052 25.9126 20.3366V25H24.426ZM31.953 25.169C31.4691 25.169 31.0316 25.0795 30.6405 24.9006C30.2494 24.7183 29.9395 24.4548 29.7108 24.1101C29.4855 23.7654 29.3728 23.3428 29.3728 22.8423C29.3728 22.4115 29.4556 22.0568 29.6214 21.7784C29.7871 21.5 30.0108 21.2796 30.2925 21.1172C30.5742 20.9548 30.8891 20.8321 31.2371 20.7493C31.5851 20.6664 31.9398 20.6035 32.301 20.5604C32.7584 20.5073 33.1296 20.4643 33.4147 20.4311C33.6997 20.3946 33.9069 20.3366 34.0361 20.2571C34.1654 20.1776 34.23 20.0483 34.23 19.8693V19.8345C34.23 19.4003 34.1074 19.0639 33.8621 18.8253C33.6202 18.5866 33.2589 18.4673 32.7783 18.4673C32.2778 18.4673 31.8834 18.5784 31.5951 18.8004C31.31 19.0192 31.1128 19.2628 31.0035 19.5312L29.6064 19.2131C29.7722 18.7491 30.0141 18.3745 30.3323 18.0895C30.6538 17.8011 31.0233 17.5923 31.441 17.4631C31.8586 17.3305 32.2977 17.2642 32.7584 17.2642C33.0634 17.2642 33.3865 17.3007 33.7279 17.3736C34.0726 17.4432 34.3941 17.5724 34.6924 17.7614C34.994 17.9503 35.2409 18.2204 35.4331 18.5717C35.6254 18.9197 35.7215 19.3722 35.7215 19.929V25H34.2698V23.956H34.2101C34.114 24.1482 33.9698 24.3371 33.7776 24.5227C33.5854 24.7083 33.3385 24.8625 33.0368 24.9851C32.7352 25.1077 32.374 25.169 31.953 25.169ZM32.2762 23.9759C32.6872 23.9759 33.0385 23.8946 33.3302 23.7322C33.6251 23.5698 33.8489 23.3577 34.0013 23.0959C34.1571 22.8307 34.235 22.5473 34.235 22.2457V21.2614C34.182 21.3144 34.0792 21.3641 33.9268 21.4105C33.7776 21.4536 33.6069 21.4917 33.4147 21.5249C33.2224 21.5547 33.0352 21.5829 32.8529 21.6094C32.6706 21.6326 32.5181 21.6525 32.3955 21.669C32.1072 21.7055 31.8437 21.7668 31.605 21.853C31.3697 21.9392 31.1808 22.0634 31.0383 22.2259C30.8991 22.3849 30.8295 22.5971 30.8295 22.8622C30.8295 23.2301 30.9653 23.5085 31.2371 23.6974C31.5089 23.883 31.8553 23.9759 32.2762 23.9759ZM39.1879 20.4659V25H37.7014V17.3636H39.1283V18.6065H39.2227C39.3984 18.2022 39.6735 17.8774 40.048 17.6321C40.4259 17.3868 40.9015 17.2642 41.4749 17.2642C41.9952 17.2642 42.451 17.3736 42.8421 17.5923C43.2332 17.8078 43.5364 18.1293 43.7519 18.5568C43.9673 18.9844 44.075 19.513 44.075 20.1428V25H42.5885V20.3217C42.5885 19.7682 42.4443 19.3357 42.156 19.0241C41.8676 18.7093 41.4716 18.5518 40.9678 18.5518C40.6231 18.5518 40.3165 18.6264 40.048 18.7756C39.7829 18.9247 39.5724 19.1435 39.4166 19.4318C39.2642 19.7169 39.1879 20.0616 39.1879 20.4659ZM49.2703 28.0227C48.6638 28.0227 48.1418 27.9432 47.7043 27.7841C47.2701 27.625 46.9155 27.4145 46.6404 27.1527C46.3653 26.8909 46.1598 26.6042 46.0239 26.2926L47.3016 25.7656C47.3911 25.9115 47.5104 26.0656 47.6595 26.228C47.812 26.3937 48.0175 26.5346 48.276 26.6506C48.5378 26.7666 48.8743 26.8246 49.2852 26.8246C49.8487 26.8246 50.3144 26.687 50.6823 26.4119C51.0502 26.1402 51.2341 25.706 51.2341 25.1094V23.608H51.1396C51.0502 23.7704 50.9209 23.951 50.7519 24.1499C50.5861 24.3487 50.3575 24.5211 50.0658 24.6669C49.7741 24.8127 49.3946 24.8857 48.9273 24.8857C48.3241 24.8857 47.7805 24.7448 47.2966 24.4631C46.816 24.178 46.4349 23.7588 46.1531 23.2053C45.8747 22.6484 45.7355 21.964 45.7355 21.152C45.7355 20.34 45.8731 19.6439 46.1482 19.0639C46.4266 18.4839 46.8077 18.0398 47.2916 17.7315C47.7755 17.42 48.3241 17.2642 48.9372 17.2642C49.4112 17.2642 49.794 17.3438 50.0857 17.5028C50.3773 17.6586 50.6044 17.8409 50.7668 18.0497C50.9325 18.2585 51.0601 18.4425 51.1496 18.6016H51.259V17.3636H52.7156V25.169C52.7156 25.8253 52.5632 26.3639 52.2583 26.7848C51.9533 27.2057 51.5407 27.5173 51.0203 27.7195C50.5033 27.9216 49.92 28.0227 49.2703 28.0227ZM49.2554 23.6527C49.683 23.6527 50.0442 23.5533 50.3392 23.3544C50.6375 23.1522 50.8629 22.8639 51.0154 22.4893C51.1711 22.1115 51.249 21.6591 51.249 21.1321C51.249 20.6184 51.1728 20.166 51.0203 19.7749C50.8679 19.3838 50.6441 19.0788 50.3492 18.8601C50.0542 18.638 49.6896 18.527 49.2554 18.527C48.808 18.527 48.4351 18.643 48.1368 18.875C47.8385 19.1037 47.6131 19.4152 47.4607 19.8097C47.3115 20.2041 47.2369 20.6449 47.2369 21.1321C47.2369 21.6326 47.3132 22.0717 47.4656 22.4496C47.6181 22.8274 47.8435 23.1224 48.1418 23.3345C48.4434 23.5466 48.8146 23.6527 49.2554 23.6527ZM58.0004 25.1541C57.2481 25.1541 56.6001 24.9934 56.0566 24.6719C55.5163 24.3471 55.0987 23.8913 54.8037 23.3047C54.512 22.7147 54.3662 22.0237 54.3662 21.2315C54.3662 20.4493 54.512 19.7599 54.8037 19.1634C55.0987 18.5668 55.5097 18.1011 56.0367 17.7663C56.567 17.4316 57.1868 17.2642 57.896 17.2642C58.3269 17.2642 58.7445 17.3355 59.1489 17.478C59.5532 17.6205 59.9162 17.8442 60.2377 18.1491C60.5592 18.4541 60.8127 18.8501 60.9983 19.3374C61.1839 19.8213 61.2767 20.4096 61.2767 21.1023V21.6293H55.2064V20.5156H59.82C59.82 20.1245 59.7405 19.7782 59.5814 19.4766C59.4223 19.1716 59.1986 18.9313 58.9102 18.7557C58.6252 18.58 58.2905 18.4922 57.906 18.4922C57.4884 18.4922 57.1238 18.5949 56.8122 18.8004C56.504 19.0026 56.2654 19.2678 56.0963 19.5959C55.9306 19.9207 55.8477 20.2737 55.8477 20.6548V21.5249C55.8477 22.0353 55.9372 22.4695 56.1162 22.8274C56.2985 23.1854 56.5521 23.4588 56.8769 23.6477C57.2017 23.8333 57.5812 23.9261 58.0154 23.9261C58.2971 23.9261 58.5539 23.8864 58.786 23.8068C59.018 23.724 59.2185 23.6013 59.3875 23.4389C59.5566 23.2765 59.6858 23.076 59.7753 22.8374L61.1823 23.0909C61.0696 23.5052 60.8674 23.8681 60.5757 24.1797C60.2874 24.4879 59.9244 24.7282 59.4869 24.9006C59.0528 25.0696 58.5573 25.1541 58.0004 25.1541ZM66.4608 25.1392C66.0068 25.1326 65.5593 25.0497 65.1185 24.8906C64.681 24.7315 64.2833 24.4664 63.9253 24.0952C63.5674 23.724 63.2807 23.2251 63.0653 22.5987C62.8531 21.9723 62.7471 21.1901 62.7471 20.2521C62.7471 19.3639 62.8349 18.575 63.0106 17.8857C63.1895 17.1963 63.4464 16.6146 63.7812 16.1406C64.1159 15.6634 64.5203 15.3004 64.9942 15.0518C65.4682 14.8033 66.0001 14.679 66.5901 14.679C67.1966 14.679 67.7352 14.7983 68.2059 15.0369C68.6765 15.2756 69.0577 15.6054 69.3493 16.0263C69.6443 16.4472 69.8316 16.9261 69.9111 17.4631H68.3948C68.2921 17.0388 68.0882 16.6925 67.7833 16.424C67.4784 16.1555 67.0806 16.0213 66.5901 16.0213C65.8444 16.0213 65.2627 16.3461 64.8451 16.9957C64.4308 17.6454 64.222 18.5485 64.2187 19.7053H64.2932C64.4689 19.4169 64.6843 19.1716 64.9395 18.9695C65.1981 18.764 65.4864 18.6065 65.8046 18.4972C66.1261 18.3845 66.4642 18.3281 66.8188 18.3281C67.4088 18.3281 67.9424 18.4723 68.4197 18.7607C68.9002 19.0457 69.2831 19.4401 69.5681 19.9439C69.8531 20.4477 69.9956 21.0244 69.9956 21.674C69.9956 22.3236 69.8482 22.9119 69.5532 23.4389C69.2615 23.9659 68.8505 24.3835 68.3202 24.6918C67.7899 24.9967 67.1701 25.1458 66.4608 25.1392ZM66.4559 23.8466C66.847 23.8466 67.1966 23.7505 67.5049 23.5582C67.8131 23.366 68.0567 23.1075 68.2357 22.7827C68.4147 22.4579 68.5042 22.0949 68.5042 21.6939C68.5042 21.3028 68.4163 20.9465 68.2407 20.625C68.0683 20.3035 67.8297 20.0483 67.5248 19.8594C67.2232 19.6705 66.8785 19.576 66.4907 19.576C66.1957 19.576 65.9223 19.6323 65.6704 19.745C65.4218 19.8577 65.203 20.0135 65.0141 20.2124C64.8252 20.4112 64.676 20.6399 64.5667 20.8984C64.4606 21.1536 64.4076 21.4238 64.4076 21.7088C64.4076 22.09 64.4954 22.4429 64.6711 22.7678C64.8501 23.0926 65.0937 23.3544 65.4019 23.5533C65.7135 23.7488 66.0648 23.8466 66.4559 23.8466ZM75.3513 25.169C74.5658 25.1657 73.8946 24.9586 73.3378 24.5476C72.781 24.1366 72.3551 23.5384 72.0601 22.7528C71.7651 21.9673 71.6176 21.0211 71.6176 19.9141C71.6176 18.8104 71.7651 17.8674 72.0601 17.0852C72.3584 16.303 72.786 15.7064 73.3428 15.2955C73.9029 14.8845 74.5724 14.679 75.3513 14.679C76.1302 14.679 76.798 14.8861 77.3548 15.3004C77.9117 15.7114 78.3376 16.308 78.6325 17.0902C78.9308 17.8691 79.08 18.8104 79.08 19.9141C79.08 21.0244 78.9325 21.9723 78.6375 22.7578C78.3425 23.54 77.9166 24.1383 77.3598 24.5526C76.803 24.9635 76.1335 25.169 75.3513 25.169ZM75.3513 23.8416C76.0407 23.8416 76.5793 23.5052 76.9671 22.8324C77.3582 22.1596 77.5537 21.1868 77.5537 19.9141C77.5537 19.0689 77.4642 18.3546 77.2852 17.7713C77.1096 17.1847 76.856 16.7405 76.5246 16.4389C76.1965 16.134 75.8054 15.9815 75.3513 15.9815C74.6652 15.9815 74.1266 16.3196 73.7355 16.9957C73.3444 17.6719 73.1472 18.6446 73.1439 19.9141C73.1439 20.7625 73.2317 21.4801 73.4074 22.0668C73.5864 22.6501 73.8399 23.0926 74.1681 23.3942C74.4962 23.6925 74.8906 23.8416 75.3513 23.8416ZM84.3884 25.169C83.6029 25.1657 82.9317 24.9586 82.3749 24.5476C81.8181 24.1366 81.3922 23.5384 81.0972 22.7528C80.8022 21.9673 80.6547 21.0211 80.6547 19.9141C80.6547 18.8104 80.8022 17.8674 81.0972 17.0852C81.3955 16.303 81.8231 15.7064 82.3799 15.2955C82.94 14.8845 83.6095 14.679 84.3884 14.679C85.1673 14.679 85.8351 14.8861 86.392 15.3004C86.9488 15.7114 87.3747 16.308 87.6697 17.0902C87.968 17.8691 88.1171 18.8104 88.1171 19.9141C88.1171 21.0244 87.9696 21.9723 87.6746 22.7578C87.3796 23.54 86.9537 24.1383 86.3969 24.5526C85.8401 24.9635 85.1706 25.169 84.3884 25.169ZM84.3884 23.8416C85.0778 23.8416 85.6164 23.5052 86.0042 22.8324C86.3953 22.1596 86.5908 21.1868 86.5908 19.9141C86.5908 19.0689 86.5013 18.3546 86.3224 17.7713C86.1467 17.1847 85.8931 16.7405 85.5617 16.4389C85.2336 16.134 84.8425 15.9815 84.3884 15.9815C83.7023 15.9815 83.1637 16.3196 82.7726 16.9957C82.3815 17.6719 82.1843 18.6446 82.181 19.9141C82.181 20.7625 82.2689 21.4801 82.4445 22.0668C82.6235 22.6501 82.877 23.0926 83.2052 23.3942C83.5333 23.6925 83.9277 23.8416 84.3884 23.8416Z" fill="white"/>
</svg>
