<svg width="240" height="40" viewBox="0 0 240 40" fill="none" xmlns="http://www.w3.org/2000/svg">
<rect width="240" height="40" fill="#FED5B8"/>
<path d="M21.9631 19.9091C21.9631 20.9962 21.7642 21.9309 21.3665 22.7131C20.9688 23.492 20.4235 24.0919 19.7308 24.5128C19.0414 24.9304 18.2576 25.1392 17.3793 25.1392C16.4976 25.1392 15.7105 24.9304 15.0178 24.5128C14.3284 24.0919 13.7848 23.4903 13.3871 22.7081C12.9893 21.9259 12.7905 20.9929 12.7905 19.9091C12.7905 18.822 12.9893 17.889 13.3871 17.1101C13.7848 16.3279 14.3284 15.728 15.0178 15.3104C15.7105 14.8894 16.4976 14.679 17.3793 14.679C18.2576 14.679 19.0414 14.8894 19.7308 15.3104C20.4235 15.728 20.9688 16.3279 21.3665 17.1101C21.7642 17.889 21.9631 18.822 21.9631 19.9091ZM20.4418 19.9091C20.4418 19.0805 20.3075 18.3828 20.0391 17.8161C19.7739 17.246 19.4093 16.8151 18.9453 16.5234C18.4846 16.2285 17.9626 16.081 17.3793 16.081C16.7926 16.081 16.2689 16.2285 15.8082 16.5234C15.3475 16.8151 14.983 17.246 14.7145 17.8161C14.4493 18.3828 14.3168 19.0805 14.3168 19.9091C14.3168 20.7377 14.4493 21.437 14.7145 22.0071C14.983 22.5739 15.3475 23.0047 15.8082 23.2997C16.2689 23.5914 16.7926 23.7372 17.3793 23.7372C17.9626 23.7372 18.4846 23.5914 18.9453 23.2997C19.4093 23.0047 19.7739 22.5739 20.0391 22.0071C20.3075 21.437 20.4418 20.7377 20.4418 19.9091ZM23.6691 25V17.3636H25.1058V18.5767H25.1854C25.3246 18.1657 25.5699 17.8426 25.9212 17.6072C26.2758 17.3686 26.6769 17.2493 27.1243 17.2493C27.2171 17.2493 27.3265 17.2526 27.4524 17.2592C27.5817 17.2659 27.6828 17.2741 27.7557 17.2841V18.706C27.696 18.6894 27.59 18.6712 27.4375 18.6513C27.2851 18.6281 27.1326 18.6165 26.9801 18.6165C26.6288 18.6165 26.3156 18.6911 26.0405 18.8402C25.7687 18.986 25.5533 19.1899 25.3942 19.4517C25.2351 19.7102 25.1556 20.0052 25.1556 20.3366V25H23.6691ZM31.106 25.169C30.6221 25.169 30.1846 25.0795 29.7935 24.9006C29.4024 24.7183 29.0925 24.4548 28.8639 24.1101C28.6385 23.7654 28.5258 23.3428 28.5258 22.8423C28.5258 22.4115 28.6086 22.0568 28.7744 21.7784C28.9401 21.5 29.1638 21.2796 29.4455 21.1172C29.7273 20.9548 30.0421 20.8321 30.3901 20.7493C30.7381 20.6664 31.0928 20.6035 31.4541 20.5604C31.9114 20.5073 32.2827 20.4643 32.5677 20.4311C32.8527 20.3946 33.0599 20.3366 33.1891 20.2571C33.3184 20.1776 33.383 20.0483 33.383 19.8693V19.8345C33.383 19.4003 33.2604 19.0639 33.0151 18.8253C32.7732 18.5866 32.4119 18.4673 31.9313 18.4673C31.4309 18.4673 31.0364 18.5784 30.7481 18.8004C30.4631 19.0192 30.2658 19.2628 30.1565 19.5312L28.7595 19.2131C28.9252 18.7491 29.1671 18.3745 29.4853 18.0895C29.8068 17.8011 30.1764 17.5923 30.594 17.4631C31.0116 17.3305 31.4507 17.2642 31.9114 17.2642C32.2164 17.2642 32.5395 17.3007 32.8809 17.3736C33.2256 17.4432 33.5471 17.5724 33.8454 17.7614C34.147 17.9503 34.3939 18.2204 34.5862 18.5717C34.7784 18.9197 34.8745 19.3722 34.8745 19.929V25H33.4228V23.956H33.3631C33.267 24.1482 33.1229 24.3371 32.9306 24.5227C32.7384 24.7083 32.4915 24.8625 32.1899 24.9851C31.8882 25.1077 31.527 25.169 31.106 25.169ZM31.4292 23.9759C31.8402 23.9759 32.1915 23.8946 32.4832 23.7322C32.7782 23.5698 33.0019 23.3577 33.1543 23.0959C33.3101 22.8307 33.388 22.5473 33.388 22.2457V21.2614C33.335 21.3144 33.2322 21.3641 33.0798 21.4105C32.9306 21.4536 32.7599 21.4917 32.5677 21.5249C32.3755 21.5547 32.1882 21.5829 32.0059 21.6094C31.8236 21.6326 31.6711 21.6525 31.5485 21.669C31.2602 21.7055 30.9967 21.7668 30.758 21.853C30.5227 21.9392 30.3338 22.0634 30.1913 22.2259C30.0521 22.3849 29.9825 22.5971 29.9825 22.8622C29.9825 23.2301 30.1184 23.5085 30.3901 23.6974C30.6619 23.883 31.0083 23.9759 31.4292 23.9759ZM38.251 20.4659V25H36.7644V17.3636H38.1913V18.6065H38.2858C38.4614 18.2022 38.7365 17.8774 39.111 17.6321C39.4889 17.3868 39.9645 17.2642 40.5379 17.2642C41.0582 17.2642 41.514 17.3736 41.9051 17.5923C42.2962 17.8078 42.5994 18.1293 42.8149 18.5568C43.0303 18.9844 43.138 19.513 43.138 20.1428V25H41.6515V20.3217C41.6515 19.7682 41.5073 19.3357 41.219 19.0241C40.9306 18.7093 40.5346 18.5518 40.0308 18.5518C39.6861 18.5518 39.3795 18.6264 39.111 18.7756C38.8459 18.9247 38.6354 19.1435 38.4796 19.4318C38.3272 19.7169 38.251 20.0616 38.251 20.4659ZM48.2433 28.0227C47.6368 28.0227 47.1148 27.9432 46.6773 27.7841C46.2431 27.625 45.8885 27.4145 45.6134 27.1527C45.3383 26.8909 45.1328 26.6042 44.9969 26.2926L46.2746 25.7656C46.3641 25.9115 46.4834 26.0656 46.6325 26.228C46.785 26.3937 46.9905 26.5346 47.249 26.6506C47.5109 26.7666 47.8473 26.8246 48.2583 26.8246C48.8217 26.8246 49.2874 26.687 49.6553 26.4119C50.0232 26.1402 50.2071 25.706 50.2071 25.1094V23.608H50.1127C50.0232 23.7704 49.8939 23.951 49.7249 24.1499C49.5592 24.3487 49.3305 24.5211 49.0388 24.6669C48.7471 24.8127 48.3676 24.8857 47.9003 24.8857C47.2971 24.8857 46.7535 24.7448 46.2696 24.4631C45.789 24.178 45.4079 23.7588 45.1261 23.2053C44.8477 22.6484 44.7085 21.964 44.7085 21.152C44.7085 20.34 44.8461 19.6439 45.1212 19.0639C45.3996 18.4839 45.7807 18.0398 46.2646 17.7315C46.7485 17.42 47.2971 17.2642 47.9102 17.2642C48.3842 17.2642 48.767 17.3438 49.0587 17.5028C49.3503 17.6586 49.5774 17.8409 49.7398 18.0497C49.9055 18.2585 50.0331 18.4425 50.1226 18.6016H50.232V17.3636H51.6887V25.169C51.6887 25.8253 51.5362 26.3639 51.2313 26.7848C50.9263 27.2057 50.5137 27.5173 49.9933 27.7195C49.4763 27.9216 48.893 28.0227 48.2433 28.0227ZM48.2284 23.6527C48.656 23.6527 49.0172 23.5533 49.3122 23.3544C49.6105 23.1522 49.8359 22.8639 49.9884 22.4893C50.1441 22.1115 50.222 21.6591 50.222 21.1321C50.222 20.6184 50.1458 20.166 49.9933 19.7749C49.8409 19.3838 49.6172 19.0788 49.3222 18.8601C49.0272 18.638 48.6626 18.527 48.2284 18.527C47.781 18.527 47.4081 18.643 47.1098 18.875C46.8115 19.1037 46.5861 19.4152 46.4337 19.8097C46.2845 20.2041 46.21 20.6449 46.21 21.1321C46.21 21.6326 46.2862 22.0717 46.4387 22.4496C46.5911 22.8274 46.8165 23.1224 47.1148 23.3345C47.4164 23.5466 47.7876 23.6527 48.2284 23.6527ZM56.8835 25.1541C56.1311 25.1541 55.4831 24.9934 54.9396 24.6719C54.3993 24.3471 53.9817 23.8913 53.6867 23.3047C53.3951 22.7147 53.2492 22.0237 53.2492 21.2315C53.2492 20.4493 53.3951 19.7599 53.6867 19.1634C53.9817 18.5668 54.3927 18.1011 54.9197 17.7663C55.45 17.4316 56.0698 17.2642 56.779 17.2642C57.2099 17.2642 57.6275 17.3355 58.0319 17.478C58.4362 17.6205 58.7992 17.8442 59.1207 18.1491C59.4422 18.4541 59.6957 18.8501 59.8813 19.3374C60.0669 19.8213 60.1597 20.4096 60.1597 21.1023V21.6293H54.0894V20.5156H58.7031C58.7031 20.1245 58.6235 19.7782 58.4644 19.4766C58.3053 19.1716 58.0816 18.9313 57.7933 18.7557C57.5082 18.58 57.1735 18.4922 56.789 18.4922C56.3714 18.4922 56.0068 18.5949 55.6952 18.8004C55.387 19.0026 55.1484 19.2678 54.9793 19.5959C54.8136 19.9207 54.7308 20.2737 54.7308 20.6548V21.5249C54.7308 22.0353 54.8202 22.4695 54.9992 22.8274C55.1815 23.1854 55.4351 23.4588 55.7599 23.6477C56.0847 23.8333 56.4642 23.9261 56.8984 23.9261C57.1801 23.9261 57.437 23.8864 57.669 23.8068C57.901 23.724 58.1015 23.6013 58.2705 23.4389C58.4396 23.2765 58.5688 23.076 58.6583 22.8374L60.0653 23.0909C59.9526 23.5052 59.7504 23.8681 59.4587 24.1797C59.1704 24.4879 58.8075 24.7282 58.37 24.9006C57.9358 25.0696 57.4403 25.1541 56.8835 25.1541ZM61.6992 25V23.8864L65.1445 20.3168C65.5124 19.929 65.8156 19.5893 66.0543 19.2976C66.2962 19.0026 66.4769 18.7225 66.5962 18.4574C66.7155 18.1922 66.7752 17.9105 66.7752 17.6122C66.7752 17.2741 66.6956 16.9825 66.5365 16.7372C66.3774 16.4886 66.1603 16.2981 65.8852 16.1655C65.6102 16.0296 65.3003 15.9616 64.9556 15.9616C64.591 15.9616 64.2728 16.0362 64.001 16.1854C63.7292 16.3345 63.5204 16.545 63.3746 16.8168C63.2288 17.0885 63.1558 17.4067 63.1558 17.7713H61.6892C61.6892 17.1515 61.8317 16.6096 62.1168 16.1456C62.4018 15.6816 62.7929 15.322 63.2901 15.0668C63.7872 14.8082 64.3523 14.679 64.9854 14.679C65.6251 14.679 66.1885 14.8066 66.6757 15.0618C67.1663 15.3137 67.5491 15.6584 67.8242 16.0959C68.0993 16.5301 68.2368 17.0206 68.2368 17.5675C68.2368 17.9453 68.1656 18.3149 68.023 18.6761C67.8838 19.0374 67.6402 19.4401 67.2922 19.8842C66.9442 20.325 66.4603 20.8603 65.8405 21.4901L63.8171 23.608V23.6825H68.4009V25H61.6992ZM73.7398 25.169C72.9543 25.1657 72.2832 24.9586 71.7264 24.5476C71.1695 24.1366 70.7436 23.5384 70.4487 22.7528C70.1537 21.9673 70.0062 21.0211 70.0062 19.9141C70.0062 18.8104 70.1537 17.8674 70.4487 17.0852C70.747 16.303 71.1745 15.7064 71.7313 15.2955C72.2915 14.8845 72.961 14.679 73.7398 14.679C74.5187 14.679 75.1866 14.8861 75.7434 15.3004C76.3002 15.7114 76.7261 16.308 77.0211 17.0902C77.3194 17.8691 77.4685 18.8104 77.4685 19.9141C77.4685 21.0244 77.3211 21.9723 77.0261 22.7578C76.7311 23.54 76.3052 24.1383 75.7484 24.5526C75.1916 24.9635 74.522 25.169 73.7398 25.169ZM73.7398 23.8416C74.4292 23.8416 74.9678 23.5052 75.3556 22.8324C75.7467 22.1596 75.9423 21.1868 75.9423 19.9141C75.9423 19.0689 75.8528 18.3546 75.6738 17.7713C75.4981 17.1847 75.2446 16.7405 74.9131 16.4389C74.585 16.134 74.1939 15.9815 73.7398 15.9815C73.0538 15.9815 72.5152 16.3196 72.1241 16.9957C71.733 17.6719 71.5358 18.6446 71.5325 19.9141C71.5325 20.7625 71.6203 21.4801 71.796 22.0668C71.9749 22.6501 72.2285 23.0926 72.5566 23.3942C72.8847 23.6925 73.2791 23.8416 73.7398 23.8416ZM82.687 25.169C81.9014 25.1657 81.2303 24.9586 80.6735 24.5476C80.1166 24.1366 79.6907 23.5384 79.3958 22.7528C79.1008 21.9673 78.9533 21.0211 78.9533 19.9141C78.9533 18.8104 79.1008 17.8674 79.3958 17.0852C79.6941 16.303 80.1216 15.7064 80.6784 15.2955C81.2386 14.8845 81.9081 14.679 82.687 14.679C83.4658 14.679 84.1337 14.8861 84.6905 15.3004C85.2473 15.7114 85.6732 16.308 85.9682 17.0902C86.2665 17.8691 86.4157 18.8104 86.4157 19.9141C86.4157 21.0244 86.2682 21.9723 85.9732 22.7578C85.6782 23.54 85.2523 24.1383 84.6955 24.5526C84.1387 24.9635 83.4692 25.169 82.687 25.169ZM82.687 23.8416C83.3764 23.8416 83.9149 23.5052 84.3027 22.8324C84.6938 22.1596 84.8894 21.1868 84.8894 19.9141C84.8894 19.0689 84.7999 18.3546 84.6209 17.7713C84.4452 17.1847 84.1917 16.7405 83.8603 16.4389C83.5321 16.134 83.141 15.9815 82.687 15.9815C82.0009 15.9815 81.4623 16.3196 81.0712 16.9957C80.6801 17.6719 80.4829 18.6446 80.4796 19.9141C80.4796 20.7625 80.5674 21.4801 80.7431 22.0668C80.922 22.6501 81.1756 23.0926 81.5037 23.3942C81.8318 23.6925 82.2263 23.8416 82.687 23.8416Z" fill="black"/>
</svg>
