<svg width="240" height="40" viewBox="0 0 240 40" fill="none" xmlns="http://www.w3.org/2000/svg">
<rect width="240" height="40" fill="#63261A"/>
<path d="M21.9631 19.9091C21.9631 20.9962 21.7642 21.9309 21.3665 22.7131C20.9688 23.492 20.4235 24.0919 19.7308 24.5128C19.0414 24.9304 18.2576 25.1392 17.3793 25.1392C16.4976 25.1392 15.7105 24.9304 15.0178 24.5128C14.3284 24.0919 13.7848 23.4903 13.3871 22.7081C12.9893 21.9259 12.7905 20.9929 12.7905 19.9091C12.7905 18.822 12.9893 17.889 13.3871 17.1101C13.7848 16.3279 14.3284 15.728 15.0178 15.3104C15.7105 14.8894 16.4976 14.679 17.3793 14.679C18.2576 14.679 19.0414 14.8894 19.7308 15.3104C20.4235 15.728 20.9688 16.3279 21.3665 17.1101C21.7642 17.889 21.9631 18.822 21.9631 19.9091ZM20.4418 19.9091C20.4418 19.0805 20.3075 18.3828 20.0391 17.8161C19.7739 17.246 19.4093 16.8151 18.9453 16.5234C18.4846 16.2285 17.9626 16.081 17.3793 16.081C16.7926 16.081 16.2689 16.2285 15.8082 16.5234C15.3475 16.8151 14.983 17.246 14.7145 17.8161C14.4493 18.3828 14.3168 19.0805 14.3168 19.9091C14.3168 20.7377 14.4493 21.437 14.7145 22.0071C14.983 22.5739 15.3475 23.0047 15.8082 23.2997C16.2689 23.5914 16.7926 23.7372 17.3793 23.7372C17.9626 23.7372 18.4846 23.5914 18.9453 23.2997C19.4093 23.0047 19.7739 22.5739 20.0391 22.0071C20.3075 21.437 20.4418 20.7377 20.4418 19.9091ZM23.6691 25V17.3636H25.1058V18.5767H25.1854C25.3246 18.1657 25.5699 17.8426 25.9212 17.6072C26.2758 17.3686 26.6769 17.2493 27.1243 17.2493C27.2171 17.2493 27.3265 17.2526 27.4524 17.2592C27.5817 17.2659 27.6828 17.2741 27.7557 17.2841V18.706C27.696 18.6894 27.59 18.6712 27.4375 18.6513C27.2851 18.6281 27.1326 18.6165 26.9801 18.6165C26.6288 18.6165 26.3156 18.6911 26.0405 18.8402C25.7687 18.986 25.5533 19.1899 25.3942 19.4517C25.2351 19.7102 25.1556 20.0052 25.1556 20.3366V25H23.6691ZM31.106 25.169C30.6221 25.169 30.1846 25.0795 29.7935 24.9006C29.4024 24.7183 29.0925 24.4548 28.8639 24.1101C28.6385 23.7654 28.5258 23.3428 28.5258 22.8423C28.5258 22.4115 28.6086 22.0568 28.7744 21.7784C28.9401 21.5 29.1638 21.2796 29.4455 21.1172C29.7273 20.9548 30.0421 20.8321 30.3901 20.7493C30.7381 20.6664 31.0928 20.6035 31.4541 20.5604C31.9114 20.5073 32.2827 20.4643 32.5677 20.4311C32.8527 20.3946 33.0599 20.3366 33.1891 20.2571C33.3184 20.1776 33.383 20.0483 33.383 19.8693V19.8345C33.383 19.4003 33.2604 19.0639 33.0151 18.8253C32.7732 18.5866 32.4119 18.4673 31.9313 18.4673C31.4309 18.4673 31.0364 18.5784 30.7481 18.8004C30.4631 19.0192 30.2658 19.2628 30.1565 19.5312L28.7595 19.2131C28.9252 18.7491 29.1671 18.3745 29.4853 18.0895C29.8068 17.8011 30.1764 17.5923 30.594 17.4631C31.0116 17.3305 31.4507 17.2642 31.9114 17.2642C32.2164 17.2642 32.5395 17.3007 32.8809 17.3736C33.2256 17.4432 33.5471 17.5724 33.8454 17.7614C34.147 17.9503 34.3939 18.2204 34.5862 18.5717C34.7784 18.9197 34.8745 19.3722 34.8745 19.929V25H33.4228V23.956H33.3631C33.267 24.1482 33.1229 24.3371 32.9306 24.5227C32.7384 24.7083 32.4915 24.8625 32.1899 24.9851C31.8882 25.1077 31.527 25.169 31.106 25.169ZM31.4292 23.9759C31.8402 23.9759 32.1915 23.8946 32.4832 23.7322C32.7782 23.5698 33.0019 23.3577 33.1543 23.0959C33.3101 22.8307 33.388 22.5473 33.388 22.2457V21.2614C33.335 21.3144 33.2322 21.3641 33.0798 21.4105C32.9306 21.4536 32.7599 21.4917 32.5677 21.5249C32.3755 21.5547 32.1882 21.5829 32.0059 21.6094C31.8236 21.6326 31.6711 21.6525 31.5485 21.669C31.2602 21.7055 30.9967 21.7668 30.758 21.853C30.5227 21.9392 30.3338 22.0634 30.1913 22.2259C30.0521 22.3849 29.9825 22.5971 29.9825 22.8622C29.9825 23.2301 30.1184 23.5085 30.3901 23.6974C30.6619 23.883 31.0083 23.9759 31.4292 23.9759ZM38.251 20.4659V25H36.7644V17.3636H38.1913V18.6065H38.2858C38.4614 18.2022 38.7365 17.8774 39.111 17.6321C39.4889 17.3868 39.9645 17.2642 40.5379 17.2642C41.0582 17.2642 41.514 17.3736 41.9051 17.5923C42.2962 17.8078 42.5994 18.1293 42.8149 18.5568C43.0303 18.9844 43.138 19.513 43.138 20.1428V25H41.6515V20.3217C41.6515 19.7682 41.5073 19.3357 41.219 19.0241C40.9306 18.7093 40.5346 18.5518 40.0308 18.5518C39.6861 18.5518 39.3795 18.6264 39.111 18.7756C38.8459 18.9247 38.6354 19.1435 38.4796 19.4318C38.3272 19.7169 38.251 20.0616 38.251 20.4659ZM48.2433 28.0227C47.6368 28.0227 47.1148 27.9432 46.6773 27.7841C46.2431 27.625 45.8885 27.4145 45.6134 27.1527C45.3383 26.8909 45.1328 26.6042 44.9969 26.2926L46.2746 25.7656C46.3641 25.9115 46.4834 26.0656 46.6325 26.228C46.785 26.3937 46.9905 26.5346 47.249 26.6506C47.5109 26.7666 47.8473 26.8246 48.2583 26.8246C48.8217 26.8246 49.2874 26.687 49.6553 26.4119C50.0232 26.1402 50.2071 25.706 50.2071 25.1094V23.608H50.1127C50.0232 23.7704 49.8939 23.951 49.7249 24.1499C49.5592 24.3487 49.3305 24.5211 49.0388 24.6669C48.7471 24.8127 48.3676 24.8857 47.9003 24.8857C47.2971 24.8857 46.7535 24.7448 46.2696 24.4631C45.789 24.178 45.4079 23.7588 45.1261 23.2053C44.8477 22.6484 44.7085 21.964 44.7085 21.152C44.7085 20.34 44.8461 19.6439 45.1212 19.0639C45.3996 18.4839 45.7807 18.0398 46.2646 17.7315C46.7485 17.42 47.2971 17.2642 47.9102 17.2642C48.3842 17.2642 48.767 17.3438 49.0587 17.5028C49.3503 17.6586 49.5774 17.8409 49.7398 18.0497C49.9055 18.2585 50.0331 18.4425 50.1226 18.6016H50.232V17.3636H51.6887V25.169C51.6887 25.8253 51.5362 26.3639 51.2313 26.7848C50.9263 27.2057 50.5137 27.5173 49.9933 27.7195C49.4763 27.9216 48.893 28.0227 48.2433 28.0227ZM48.2284 23.6527C48.656 23.6527 49.0172 23.5533 49.3122 23.3544C49.6105 23.1522 49.8359 22.8639 49.9884 22.4893C50.1441 22.1115 50.222 21.6591 50.222 21.1321C50.222 20.6184 50.1458 20.166 49.9933 19.7749C49.8409 19.3838 49.6172 19.0788 49.3222 18.8601C49.0272 18.638 48.6626 18.527 48.2284 18.527C47.781 18.527 47.4081 18.643 47.1098 18.875C46.8115 19.1037 46.5861 19.4152 46.4337 19.8097C46.2845 20.2041 46.21 20.6449 46.21 21.1321C46.21 21.6326 46.2862 22.0717 46.4387 22.4496C46.5911 22.8274 46.8165 23.1224 47.1148 23.3345C47.4164 23.5466 47.7876 23.6527 48.2284 23.6527ZM56.8835 25.1541C56.1311 25.1541 55.4831 24.9934 54.9396 24.6719C54.3993 24.3471 53.9817 23.8913 53.6867 23.3047C53.3951 22.7147 53.2492 22.0237 53.2492 21.2315C53.2492 20.4493 53.3951 19.7599 53.6867 19.1634C53.9817 18.5668 54.3927 18.1011 54.9197 17.7663C55.45 17.4316 56.0698 17.2642 56.779 17.2642C57.2099 17.2642 57.6275 17.3355 58.0319 17.478C58.4362 17.6205 58.7992 17.8442 59.1207 18.1491C59.4422 18.4541 59.6957 18.8501 59.8813 19.3374C60.0669 19.8213 60.1597 20.4096 60.1597 21.1023V21.6293H54.0894V20.5156H58.7031C58.7031 20.1245 58.6235 19.7782 58.4644 19.4766C58.3053 19.1716 58.0816 18.9313 57.7933 18.7557C57.5082 18.58 57.1735 18.4922 56.789 18.4922C56.3714 18.4922 56.0068 18.5949 55.6952 18.8004C55.387 19.0026 55.1484 19.2678 54.9793 19.5959C54.8136 19.9207 54.7308 20.2737 54.7308 20.6548V21.5249C54.7308 22.0353 54.8202 22.4695 54.9992 22.8274C55.1815 23.1854 55.4351 23.4588 55.7599 23.6477C56.0847 23.8333 56.4642 23.9261 56.8984 23.9261C57.1801 23.9261 57.437 23.8864 57.669 23.8068C57.901 23.724 58.1015 23.6013 58.2705 23.4389C58.4396 23.2765 58.5688 23.076 58.6583 22.8374L60.0653 23.0909C59.9526 23.5052 59.7504 23.8681 59.4587 24.1797C59.1704 24.4879 58.8075 24.7282 58.37 24.9006C57.9358 25.0696 57.4403 25.1541 56.8835 25.1541ZM65.0848 14.679C65.5389 14.6823 65.9863 14.7652 66.4272 14.9276C66.868 15.09 67.2657 15.3551 67.6203 15.723C67.9783 16.0909 68.2633 16.5881 68.4754 17.2145C68.6909 17.8376 68.8003 18.6132 68.8036 19.5412C68.8036 20.4328 68.7141 21.2266 68.5351 21.9226C68.3561 22.6153 68.0993 23.2003 67.7645 23.6776C67.4331 24.1548 67.0304 24.5178 66.5564 24.7663C66.0825 25.0149 65.5488 25.1392 64.9556 25.1392C64.349 25.1392 63.8104 25.0199 63.3398 24.7812C62.8691 24.5426 62.4863 24.2128 62.1914 23.7919C61.8964 23.3677 61.7124 22.8804 61.6395 22.3303H63.1558C63.2553 22.7678 63.4575 23.1224 63.7624 23.3942C64.0706 23.6626 64.4683 23.7969 64.9556 23.7969C65.7013 23.7969 66.283 23.4721 66.7006 22.8224C67.1182 22.1695 67.3287 21.258 67.332 20.0881H67.2524C67.0801 20.3731 66.8647 20.6184 66.6061 20.8239C66.3509 21.0294 66.0642 21.1884 65.746 21.3011C65.4279 21.4138 65.0881 21.4702 64.7269 21.4702C64.1402 21.4702 63.6066 21.326 63.126 21.0376C62.6454 20.7493 62.2626 20.3532 61.9776 19.8494C61.6925 19.3456 61.55 18.7706 61.55 18.1243C61.55 17.4813 61.6959 16.898 61.9875 16.3743C62.2825 15.8506 62.6935 15.4363 63.2205 15.1314C63.7508 14.8232 64.3722 14.6723 65.0848 14.679ZM65.0898 15.9716C64.702 15.9716 64.3523 16.0677 64.0408 16.2599C63.7325 16.4489 63.4889 16.7057 63.31 17.0305C63.131 17.352 63.0415 17.71 63.0415 18.1044C63.0415 18.4988 63.1277 18.8568 63.3 19.1783C63.4757 19.4964 63.7143 19.75 64.0159 19.9389C64.3209 20.1245 64.6689 20.2173 65.06 20.2173C65.3516 20.2173 65.6234 20.161 65.8753 20.0483C66.1272 19.9356 66.3476 19.7798 66.5365 19.581C66.7254 19.3788 66.8729 19.1501 66.979 18.8949C67.0851 18.6397 67.1381 18.3712 67.1381 18.0895C67.1381 17.715 67.0486 17.367 66.8696 17.0455C66.694 16.724 66.452 16.4654 66.1438 16.2699C65.8355 16.071 65.4842 15.9716 65.0898 15.9716ZM74.0543 25.169C73.2688 25.1657 72.5976 24.9586 72.0408 24.5476C71.484 24.1366 71.0581 23.5384 70.7631 22.7528C70.4681 21.9673 70.3206 21.0211 70.3206 19.9141C70.3206 18.8104 70.4681 17.8674 70.7631 17.0852C71.0614 16.303 71.489 15.7064 72.0458 15.2955C72.6059 14.8845 73.2754 14.679 74.0543 14.679C74.8332 14.679 75.501 14.8861 76.0579 15.3004C76.6147 15.7114 77.0406 16.308 77.3356 17.0902C77.6338 17.8691 77.783 18.8104 77.783 19.9141C77.783 21.0244 77.6355 21.9723 77.3405 22.7578C77.0455 23.54 76.6196 24.1383 76.0628 24.5526C75.506 24.9635 74.8365 25.169 74.0543 25.169ZM74.0543 23.8416C74.7437 23.8416 75.2823 23.5052 75.6701 22.8324C76.0612 22.1596 76.2567 21.1868 76.2567 19.9141C76.2567 19.0689 76.1672 18.3546 75.9883 17.7713C75.8126 17.1847 75.559 16.7405 75.2276 16.4389C74.8995 16.134 74.5084 15.9815 74.0543 15.9815C73.3682 15.9815 72.8296 16.3196 72.4385 16.9957C72.0474 17.6719 71.8502 18.6446 71.8469 19.9141C71.8469 20.7625 71.9347 21.4801 72.1104 22.0668C72.2894 22.6501 72.5429 23.0926 72.8711 23.3942C73.1992 23.6925 73.5936 23.8416 74.0543 23.8416ZM83.0014 25.169C82.2159 25.1657 81.5447 24.9586 80.9879 24.5476C80.4311 24.1366 80.0052 23.5384 79.7102 22.7528C79.4152 21.9673 79.2677 21.0211 79.2677 19.9141C79.2677 18.8104 79.4152 17.8674 79.7102 17.0852C80.0085 16.303 80.4361 15.7064 80.9929 15.2955C81.553 14.8845 82.2225 14.679 83.0014 14.679C83.7803 14.679 84.4481 14.8861 85.005 15.3004C85.5618 15.7114 85.9877 16.308 86.2827 17.0902C86.581 17.8691 86.7301 18.8104 86.7301 19.9141C86.7301 21.0244 86.5826 21.9723 86.2876 22.7578C85.9927 23.54 85.5668 24.1383 85.0099 24.5526C84.4531 24.9635 83.7836 25.169 83.0014 25.169ZM83.0014 23.8416C83.6908 23.8416 84.2294 23.5052 84.6172 22.8324C85.0083 22.1596 85.2038 21.1868 85.2038 19.9141C85.2038 19.0689 85.1143 18.3546 84.9354 17.7713C84.7597 17.1847 84.5061 16.7405 84.1747 16.4389C83.8466 16.134 83.4555 15.9815 83.0014 15.9815C82.3153 15.9815 81.7767 16.3196 81.3856 16.9957C80.9945 17.6719 80.7973 18.6446 80.794 19.9141C80.794 20.7625 80.8819 21.4801 81.0575 22.0668C81.2365 22.6501 81.49 23.0926 81.8182 23.3942C82.1463 23.6925 82.5407 23.8416 83.0014 23.8416Z" fill="white"/>
</svg>
