<svg width="342" height="40" viewBox="0 0 342 40" fill="none" xmlns="http://www.w3.org/2000/svg">
<rect width="341.333" height="40" transform="translate(0.666992)" fill="#F3BB96"/>
<path d="M22.6301 19.9091C22.6301 20.9962 22.4312 21.9309 22.0335 22.7131C21.6357 23.492 21.0905 24.0919 20.3978 24.5128C19.7084 24.9304 18.9246 25.1392 18.0463 25.1392C17.1646 25.1392 16.3775 24.9304 15.6847 24.5128C14.9954 24.0919 14.4518 23.4903 14.0541 22.7081C13.6563 21.9259 13.4575 20.9929 13.4575 19.9091C13.4575 18.822 13.6563 17.889 14.0541 17.1101C14.4518 16.3279 14.9954 15.728 15.6847 15.3104C16.3775 14.8894 17.1646 14.679 18.0463 14.679C18.9246 14.679 19.7084 14.8894 20.3978 15.3104C21.0905 15.728 21.6357 16.3279 22.0335 17.1101C22.4312 17.889 22.6301 18.822 22.6301 19.9091ZM21.1088 19.9091C21.1088 19.0805 20.9745 18.3828 20.7061 17.8161C20.4409 17.246 20.0763 16.8151 19.6123 16.5234C19.1516 16.2285 18.6296 16.081 18.0463 16.081C17.4596 16.081 16.9359 16.2285 16.4752 16.5234C16.0145 16.8151 15.6499 17.246 15.3815 17.8161C15.1163 18.3828 14.9838 19.0805 14.9838 19.9091C14.9838 20.7377 15.1163 21.437 15.3815 22.0071C15.6499 22.5739 16.0145 23.0047 16.4752 23.2997C16.9359 23.5914 17.4596 23.7372 18.0463 23.7372C18.6296 23.7372 19.1516 23.5914 19.6123 23.2997C20.0763 23.0047 20.4409 22.5739 20.7061 22.0071C20.9745 21.437 21.1088 20.7377 21.1088 19.9091ZM24.426 25V17.3636H25.8628V18.5767H25.9424C26.0816 18.1657 26.3269 17.8426 26.6782 17.6072C27.0328 17.3686 27.4339 17.2493 27.8813 17.2493C27.9741 17.2493 28.0835 17.2526 28.2094 17.2592C28.3387 17.2659 28.4398 17.2741 28.5127 17.2841V18.706C28.453 18.6894 28.347 18.6712 28.1945 18.6513C28.0421 18.6281 27.8896 18.6165 27.7371 18.6165C27.3858 18.6165 27.0726 18.6911 26.7975 18.8402C26.5257 18.986 26.3103 19.1899 26.1512 19.4517C25.9921 19.7102 25.9126 20.0052 25.9126 20.3366V25H24.426ZM31.953 25.169C31.4691 25.169 31.0316 25.0795 30.6405 24.9006C30.2494 24.7183 29.9395 24.4548 29.7108 24.1101C29.4855 23.7654 29.3728 23.3428 29.3728 22.8423C29.3728 22.4115 29.4556 22.0568 29.6214 21.7784C29.7871 21.5 30.0108 21.2796 30.2925 21.1172C30.5742 20.9548 30.8891 20.8321 31.2371 20.7493C31.5851 20.6664 31.9398 20.6035 32.301 20.5604C32.7584 20.5073 33.1296 20.4643 33.4147 20.4311C33.6997 20.3946 33.9069 20.3366 34.0361 20.2571C34.1654 20.1776 34.23 20.0483 34.23 19.8693V19.8345C34.23 19.4003 34.1074 19.0639 33.8621 18.8253C33.6202 18.5866 33.2589 18.4673 32.7783 18.4673C32.2778 18.4673 31.8834 18.5784 31.5951 18.8004C31.31 19.0192 31.1128 19.2628 31.0035 19.5312L29.6064 19.2131C29.7722 18.7491 30.0141 18.3745 30.3323 18.0895C30.6538 17.8011 31.0233 17.5923 31.441 17.4631C31.8586 17.3305 32.2977 17.2642 32.7584 17.2642C33.0634 17.2642 33.3865 17.3007 33.7279 17.3736C34.0726 17.4432 34.3941 17.5724 34.6924 17.7614C34.994 17.9503 35.2409 18.2204 35.4331 18.5717C35.6254 18.9197 35.7215 19.3722 35.7215 19.929V25H34.2698V23.956H34.2101C34.114 24.1482 33.9698 24.3371 33.7776 24.5227C33.5854 24.7083 33.3385 24.8625 33.0368 24.9851C32.7352 25.1077 32.374 25.169 31.953 25.169ZM32.2762 23.9759C32.6872 23.9759 33.0385 23.8946 33.3302 23.7322C33.6251 23.5698 33.8489 23.3577 34.0013 23.0959C34.1571 22.8307 34.235 22.5473 34.235 22.2457V21.2614C34.182 21.3144 34.0792 21.3641 33.9268 21.4105C33.7776 21.4536 33.6069 21.4917 33.4147 21.5249C33.2224 21.5547 33.0352 21.5829 32.8529 21.6094C32.6706 21.6326 32.5181 21.6525 32.3955 21.669C32.1072 21.7055 31.8437 21.7668 31.605 21.853C31.3697 21.9392 31.1808 22.0634 31.0383 22.2259C30.8991 22.3849 30.8295 22.5971 30.8295 22.8622C30.8295 23.2301 30.9653 23.5085 31.2371 23.6974C31.5089 23.883 31.8553 23.9759 32.2762 23.9759ZM39.1879 20.4659V25H37.7014V17.3636H39.1283V18.6065H39.2227C39.3984 18.2022 39.6735 17.8774 40.048 17.6321C40.4259 17.3868 40.9015 17.2642 41.4749 17.2642C41.9952 17.2642 42.451 17.3736 42.8421 17.5923C43.2332 17.8078 43.5364 18.1293 43.7519 18.5568C43.9673 18.9844 44.075 19.513 44.075 20.1428V25H42.5885V20.3217C42.5885 19.7682 42.4443 19.3357 42.156 19.0241C41.8676 18.7093 41.4716 18.5518 40.9678 18.5518C40.6231 18.5518 40.3165 18.6264 40.048 18.7756C39.7829 18.9247 39.5724 19.1435 39.4166 19.4318C39.2642 19.7169 39.1879 20.0616 39.1879 20.4659ZM49.2703 28.0227C48.6638 28.0227 48.1418 27.9432 47.7043 27.7841C47.2701 27.625 46.9155 27.4145 46.6404 27.1527C46.3653 26.8909 46.1598 26.6042 46.0239 26.2926L47.3016 25.7656C47.3911 25.9115 47.5104 26.0656 47.6595 26.228C47.812 26.3937 48.0175 26.5346 48.276 26.6506C48.5378 26.7666 48.8743 26.8246 49.2852 26.8246C49.8487 26.8246 50.3144 26.687 50.6823 26.4119C51.0502 26.1402 51.2341 25.706 51.2341 25.1094V23.608H51.1396C51.0502 23.7704 50.9209 23.951 50.7519 24.1499C50.5861 24.3487 50.3575 24.5211 50.0658 24.6669C49.7741 24.8127 49.3946 24.8857 48.9273 24.8857C48.3241 24.8857 47.7805 24.7448 47.2966 24.4631C46.816 24.178 46.4349 23.7588 46.1531 23.2053C45.8747 22.6484 45.7355 21.964 45.7355 21.152C45.7355 20.34 45.8731 19.6439 46.1482 19.0639C46.4266 18.4839 46.8077 18.0398 47.2916 17.7315C47.7755 17.42 48.3241 17.2642 48.9372 17.2642C49.4112 17.2642 49.794 17.3438 50.0857 17.5028C50.3773 17.6586 50.6044 17.8409 50.7668 18.0497C50.9325 18.2585 51.0601 18.4425 51.1496 18.6016H51.259V17.3636H52.7156V25.169C52.7156 25.8253 52.5632 26.3639 52.2583 26.7848C51.9533 27.2057 51.5407 27.5173 51.0203 27.7195C50.5033 27.9216 49.92 28.0227 49.2703 28.0227ZM49.2554 23.6527C49.683 23.6527 50.0442 23.5533 50.3392 23.3544C50.6375 23.1522 50.8629 22.8639 51.0154 22.4893C51.1711 22.1115 51.249 21.6591 51.249 21.1321C51.249 20.6184 51.1728 20.166 51.0203 19.7749C50.8679 19.3838 50.6441 19.0788 50.3492 18.8601C50.0542 18.638 49.6896 18.527 49.2554 18.527C48.808 18.527 48.4351 18.643 48.1368 18.875C47.8385 19.1037 47.6131 19.4152 47.4607 19.8097C47.3115 20.2041 47.2369 20.6449 47.2369 21.1321C47.2369 21.6326 47.3132 22.0717 47.4656 22.4496C47.6181 22.8274 47.8435 23.1224 48.1418 23.3345C48.4434 23.5466 48.8146 23.6527 49.2554 23.6527ZM58.0004 25.1541C57.2481 25.1541 56.6001 24.9934 56.0566 24.6719C55.5163 24.3471 55.0987 23.8913 54.8037 23.3047C54.512 22.7147 54.3662 22.0237 54.3662 21.2315C54.3662 20.4493 54.512 19.7599 54.8037 19.1634C55.0987 18.5668 55.5097 18.1011 56.0367 17.7663C56.567 17.4316 57.1868 17.2642 57.896 17.2642C58.3269 17.2642 58.7445 17.3355 59.1489 17.478C59.5532 17.6205 59.9162 17.8442 60.2377 18.1491C60.5592 18.4541 60.8127 18.8501 60.9983 19.3374C61.1839 19.8213 61.2767 20.4096 61.2767 21.1023V21.6293H55.2064V20.5156H59.82C59.82 20.1245 59.7405 19.7782 59.5814 19.4766C59.4223 19.1716 59.1986 18.9313 58.9102 18.7557C58.6252 18.58 58.2905 18.4922 57.906 18.4922C57.4884 18.4922 57.1238 18.5949 56.8122 18.8004C56.504 19.0026 56.2654 19.2678 56.0963 19.5959C55.9306 19.9207 55.8477 20.2737 55.8477 20.6548V21.5249C55.8477 22.0353 55.9372 22.4695 56.1162 22.8274C56.2985 23.1854 56.5521 23.4588 56.8769 23.6477C57.2017 23.8333 57.5812 23.9261 58.0154 23.9261C58.2971 23.9261 58.5539 23.8864 58.786 23.8068C59.018 23.724 59.2185 23.6013 59.3875 23.4389C59.5566 23.2765 59.6858 23.076 59.7753 22.8374L61.1823 23.0909C61.0696 23.5052 60.8674 23.8681 60.5757 24.1797C60.2874 24.4879 59.9244 24.7282 59.4869 24.9006C59.0528 25.0696 58.5573 25.1541 58.0004 25.1541ZM66.4509 25.1392C65.7681 25.1392 65.1583 25.0215 64.6214 24.7862C64.0877 24.5509 63.6652 24.2244 63.3536 23.8068C63.0454 23.3859 62.8796 22.8987 62.8564 22.3452H64.4175C64.4374 22.6468 64.5385 22.9086 64.7208 23.1307C64.9064 23.3494 65.1483 23.5185 65.4466 23.6378C65.7449 23.7571 66.0764 23.8168 66.441 23.8168C66.842 23.8168 67.1966 23.7472 67.5049 23.608C67.8164 23.4687 68.06 23.2749 68.2357 23.0263C68.4114 22.7744 68.4992 22.4844 68.4992 22.1562C68.4992 21.8149 68.4114 21.5149 68.2357 21.2564C68.0634 20.9946 67.8098 20.7891 67.4751 20.6399C67.1436 20.4908 66.7426 20.4162 66.2719 20.4162H65.4118V19.1634H66.2719C66.6498 19.1634 66.9812 19.0954 67.2662 18.9595C67.5546 18.8236 67.78 18.6347 67.9424 18.3928C68.1048 18.1475 68.186 17.8608 68.186 17.5327C68.186 17.2178 68.1147 16.9444 67.9722 16.7124C67.833 16.477 67.6341 16.2931 67.3756 16.1605C67.1204 16.0279 66.8188 15.9616 66.4708 15.9616C66.1394 15.9616 65.8295 16.023 65.5411 16.1456C65.2561 16.2649 65.0241 16.4373 64.8451 16.6626C64.6661 16.8847 64.57 17.1515 64.5567 17.4631H63.0702C63.0868 16.9129 63.2492 16.429 63.5574 16.0114C63.869 15.5937 64.28 15.2673 64.7904 15.032C65.3008 14.7966 65.8676 14.679 66.4907 14.679C67.1436 14.679 67.7071 14.8066 68.181 15.0618C68.6583 15.3137 69.0262 15.6501 69.2847 16.071C69.5465 16.492 69.6758 16.9527 69.6725 17.4531C69.6758 18.0232 69.5167 18.5071 69.1952 18.9048C68.877 19.3026 68.4528 19.5694 67.9225 19.7053V19.7848C68.5986 19.8875 69.1223 20.156 69.4935 20.5902C69.868 21.0244 70.0537 21.563 70.0503 22.206C70.0537 22.7661 69.8979 23.2682 69.583 23.7124C69.2715 24.1565 68.8456 24.5062 68.3053 24.7614C67.7651 25.0133 67.1469 25.1392 66.4509 25.1392ZM75.4743 25.169C74.6888 25.1657 74.0177 24.9586 73.4608 24.5476C72.904 24.1366 72.4781 23.5384 72.1831 22.7528C71.8882 21.9673 71.7407 21.0211 71.7407 19.9141C71.7407 18.8104 71.8882 17.8674 72.1831 17.0852C72.4814 16.303 72.909 15.7064 73.4658 15.2955C74.026 14.8845 74.6955 14.679 75.4743 14.679C76.2532 14.679 76.9211 14.8861 77.4779 15.3004C78.0347 15.7114 78.4606 16.308 78.7556 17.0902C79.0539 17.8691 79.203 18.8104 79.203 19.9141C79.203 21.0244 79.0555 21.9723 78.7606 22.7578C78.4656 23.54 78.0397 24.1383 77.4829 24.5526C76.926 24.9635 76.2565 25.169 75.4743 25.169ZM75.4743 23.8416C76.1637 23.8416 76.7023 23.5052 77.0901 22.8324C77.4812 22.1596 77.6768 21.1868 77.6768 19.9141C77.6768 19.0689 77.5873 18.3546 77.4083 17.7713C77.2326 17.1847 76.9791 16.7405 76.6476 16.4389C76.3195 16.134 75.9284 15.9815 75.4743 15.9815C74.7883 15.9815 74.2497 16.3196 73.8586 16.9957C73.4675 17.6719 73.2703 18.6446 73.267 19.9141C73.267 20.7625 73.3548 21.4801 73.5305 22.0668C73.7094 22.6501 73.963 23.0926 74.2911 23.3942C74.6192 23.6925 75.0136 23.8416 75.4743 23.8416ZM84.5115 25.169C83.7259 25.1657 83.0548 24.9586 82.498 24.5476C81.9411 24.1366 81.5152 23.5384 81.2203 22.7528C80.9253 21.9673 80.7778 21.0211 80.7778 19.9141C80.7778 18.8104 80.9253 17.8674 81.2203 17.0852C81.5186 16.303 81.9461 15.7064 82.5029 15.2955C83.0631 14.8845 83.7326 14.679 84.5115 14.679C85.2903 14.679 85.9582 14.8861 86.515 15.3004C87.0718 15.7114 87.4977 16.308 87.7927 17.0902C88.091 17.8691 88.2401 18.8104 88.2401 19.9141C88.2401 21.0244 88.0927 21.9723 87.7977 22.7578C87.5027 23.54 87.0768 24.1383 86.52 24.5526C85.9632 24.9635 85.2936 25.169 84.5115 25.169ZM84.5115 23.8416C85.2008 23.8416 85.7394 23.5052 86.1272 22.8324C86.5183 22.1596 86.7139 21.1868 86.7139 19.9141C86.7139 19.0689 86.6244 18.3546 86.4454 17.7713C86.2697 17.1847 86.0162 16.7405 85.6847 16.4389C85.3566 16.134 84.9655 15.9815 84.5115 15.9815C83.8254 15.9815 83.2868 16.3196 82.8957 16.9957C82.5046 17.6719 82.3074 18.6446 82.3041 19.9141C82.3041 20.7625 82.3919 21.4801 82.5676 22.0668C82.7465 22.6501 83.0001 23.0926 83.3282 23.3942C83.6563 23.6925 84.0508 23.8416 84.5115 23.8416Z" fill="#0A0A0B"/>
</svg>
