<svg width="342" height="40" viewBox="0 0 342 40" fill="none" xmlns="http://www.w3.org/2000/svg">
<rect width="341.333" height="40" transform="translate(0.333496)" fill="#9AEFEC"/>
<path d="M21.9088 18.1293H20.3576C20.298 17.7978 20.187 17.5062 20.0245 17.2543C19.8621 17.0024 19.6633 16.7886 19.428 16.6129C19.1926 16.4373 18.9291 16.3047 18.6375 16.2152C18.3491 16.1257 18.0425 16.081 17.7177 16.081C17.1311 16.081 16.6058 16.2285 16.1417 16.5234C15.681 16.8184 15.3165 17.2509 15.048 17.821C14.7828 18.3911 14.6503 19.0871 14.6503 19.9091C14.6503 20.7377 14.7828 21.437 15.048 22.0071C15.3165 22.5772 15.6827 23.008 16.1467 23.2997C16.6107 23.5914 17.1327 23.7372 17.7128 23.7372C18.0343 23.7372 18.3392 23.6941 18.6275 23.608C18.9192 23.5185 19.1827 23.3875 19.418 23.2152C19.6533 23.0429 19.8522 22.8324 20.0146 22.5838C20.1803 22.3319 20.2947 22.0436 20.3576 21.7188L21.9088 21.7237C21.8259 22.2242 21.6652 22.6849 21.4265 23.1058C21.1912 23.5234 20.8879 23.8847 20.5167 24.1896C20.1488 24.4912 19.7279 24.7249 19.254 24.8906C18.78 25.0563 18.2629 25.1392 17.7028 25.1392C16.8212 25.1392 16.0357 24.9304 15.3463 24.5128C14.6569 24.0919 14.1133 23.4903 13.7156 22.7081C13.3212 21.9259 13.124 20.9929 13.124 19.9091C13.124 18.822 13.3228 17.889 13.7206 17.1101C14.1183 16.3279 14.6619 15.728 15.3513 15.3104C16.0406 14.8894 16.8245 14.679 17.7028 14.679C18.2431 14.679 18.7468 14.7569 19.2142 14.9126C19.6848 15.0651 20.1074 15.2905 20.4819 15.5888C20.8565 15.8838 21.1664 16.245 21.4116 16.6726C21.6569 17.0968 21.8226 17.5824 21.9088 18.1293ZM24.5947 27.8636C24.3726 27.8636 24.1704 27.8454 23.9881 27.8089C23.8059 27.7758 23.67 27.7393 23.5805 27.6996L23.9384 26.4815C24.2102 26.5545 24.4522 26.5859 24.6643 26.576C24.8764 26.5661 25.0637 26.4865 25.2261 26.3374C25.3918 26.1882 25.5376 25.9446 25.6636 25.6065L25.8475 25.0994L23.0535 17.3636H24.6444L26.5783 23.2898H26.6579L28.5918 17.3636H30.1877L27.0407 26.0192C26.8949 26.4169 26.7093 26.7533 26.4839 27.0284C26.2585 27.3068 25.99 27.5156 25.6785 27.6548C25.3669 27.794 25.0057 27.8636 24.5947 27.8636ZM33.5883 25.169C33.1044 25.169 32.6669 25.0795 32.2758 24.9006C31.8847 24.7183 31.5748 24.4548 31.3461 24.1101C31.1207 23.7654 31.008 23.3428 31.008 22.8423C31.008 22.4115 31.0909 22.0568 31.2566 21.7784C31.4223 21.5 31.6461 21.2796 31.9278 21.1172C32.2095 20.9548 32.5244 20.8321 32.8724 20.7493C33.2204 20.6664 33.575 20.6035 33.9363 20.5604C34.3937 20.5073 34.7649 20.4643 35.0499 20.4311C35.335 20.3946 35.5421 20.3366 35.6714 20.2571C35.8006 20.1776 35.8653 20.0483 35.8653 19.8693V19.8345C35.8653 19.4003 35.7426 19.0639 35.4974 18.8253C35.2554 18.5866 34.8942 18.4673 34.4136 18.4673C33.9131 18.4673 33.5187 18.5784 33.2303 18.8004C32.9453 19.0192 32.7481 19.2628 32.6387 19.5312L31.2417 19.2131C31.4074 18.7491 31.6494 18.3745 31.9676 18.0895C32.289 17.8011 32.6586 17.5923 33.0762 17.4631C33.4938 17.3305 33.933 17.2642 34.3937 17.2642C34.6986 17.2642 35.0218 17.3007 35.3631 17.3736C35.7078 17.4432 36.0293 17.5724 36.3276 17.7614C36.6292 17.9503 36.8762 18.2204 37.0684 18.5717C37.2606 18.9197 37.3568 19.3722 37.3568 19.929V25H35.9051V23.956H35.8454C35.7493 24.1482 35.6051 24.3371 35.4129 24.5227C35.2206 24.7083 34.9737 24.8625 34.6721 24.9851C34.3705 25.1077 34.0092 25.169 33.5883 25.169ZM33.9114 23.9759C34.3224 23.9759 34.6738 23.8946 34.9654 23.7322C35.2604 23.5698 35.4841 23.3577 35.6366 23.0959C35.7924 22.8307 35.8703 22.5473 35.8703 22.2457V21.2614C35.8172 21.3144 35.7145 21.3641 35.562 21.4105C35.4129 21.4536 35.2422 21.4917 35.0499 21.5249C34.8577 21.5547 34.6704 21.5829 34.4881 21.6094C34.3059 21.6326 34.1534 21.6525 34.0308 21.669C33.7424 21.7055 33.4789 21.7668 33.2403 21.853C33.005 21.9392 32.816 22.0634 32.6735 22.2259C32.5343 22.3849 32.4647 22.5971 32.4647 22.8622C32.4647 23.2301 32.6006 23.5085 32.8724 23.6974C33.1442 23.883 33.4905 23.9759 33.9114 23.9759ZM40.8232 20.4659V25H39.3367V17.3636H40.7635V18.6065H40.858C41.0337 18.2022 41.3088 17.8774 41.6833 17.6321C42.0611 17.3868 42.5367 17.2642 43.1101 17.2642C43.6305 17.2642 44.0862 17.3736 44.4773 17.5923C44.8684 17.8078 45.1717 18.1293 45.3871 18.5568C45.6026 18.9844 45.7103 19.513 45.7103 20.1428V25H44.2238V20.3217C44.2238 19.7682 44.0796 19.3357 43.7912 19.0241C43.5029 18.7093 43.1068 18.5518 42.603 18.5518C42.2583 18.5518 41.9517 18.6264 41.6833 18.7756C41.4181 18.9247 41.2077 19.1435 41.0519 19.4318C40.8994 19.7169 40.8232 20.0616 40.8232 20.4659ZM51.2287 25.1392C50.546 25.1392 49.9361 25.0215 49.3992 24.7862C48.8656 24.5509 48.443 24.2244 48.1314 23.8068C47.8232 23.3859 47.6575 22.8987 47.6343 22.3452H49.1954C49.2152 22.6468 49.3163 22.9086 49.4986 23.1307C49.6842 23.3494 49.9262 23.5185 50.2245 23.6378C50.5228 23.7571 50.8542 23.8168 51.2188 23.8168C51.6198 23.8168 51.9745 23.7472 52.2827 23.608C52.5943 23.4687 52.8379 23.2749 53.0135 23.0263C53.1892 22.7744 53.277 22.4844 53.277 22.1562C53.277 21.8149 53.1892 21.5149 53.0135 21.2564C52.8412 20.9946 52.5876 20.7891 52.2529 20.6399C51.9214 20.4908 51.5204 20.4162 51.0498 20.4162H50.1897V19.1634H51.0498C51.4276 19.1634 51.759 19.0954 52.0441 18.9595C52.3324 18.8236 52.5578 18.6347 52.7202 18.3928C52.8826 18.1475 52.9638 17.8608 52.9638 17.5327C52.9638 17.2178 52.8926 16.9444 52.75 16.7124C52.6108 16.477 52.412 16.2931 52.1535 16.1605C51.8982 16.0279 51.5966 15.9616 51.2486 15.9616C50.9172 15.9616 50.6073 16.023 50.3189 16.1456C50.0339 16.2649 49.8019 16.4373 49.6229 16.6626C49.4439 16.8847 49.3478 17.1515 49.3346 17.4631H47.8481C47.8646 16.9129 48.027 16.429 48.3353 16.0114C48.6468 15.5937 49.0578 15.2673 49.5682 15.032C50.0786 14.7966 50.6454 14.679 51.2685 14.679C51.9214 14.679 52.4849 14.8066 52.9589 15.0618C53.4361 15.3137 53.804 15.6501 54.0625 16.071C54.3244 16.492 54.4536 16.9527 54.4503 17.4531C54.4536 18.0232 54.2946 18.5071 53.9731 18.9048C53.6549 19.3026 53.2306 19.5694 52.7003 19.7053V19.7848C53.3765 19.8875 53.9001 20.156 54.2714 20.5902C54.6459 21.0244 54.8315 21.563 54.8282 22.206C54.8315 22.7661 54.6757 23.2682 54.3608 23.7124C54.0493 24.1565 53.6234 24.5062 53.0831 24.7614C52.5429 25.0133 51.9248 25.1392 51.2287 25.1392ZM60.2522 25.169C59.4667 25.1657 58.7955 24.9586 58.2387 24.5476C57.6819 24.1366 57.256 23.5384 56.961 22.7528C56.666 21.9673 56.5185 21.0211 56.5185 19.9141C56.5185 18.8104 56.666 17.8674 56.961 17.0852C57.2593 16.303 57.6868 15.7064 58.2437 15.2955C58.8038 14.8845 59.4733 14.679 60.2522 14.679C61.0311 14.679 61.6989 14.8861 62.2557 15.3004C62.8125 15.7114 63.2384 16.308 63.5334 17.0902C63.8317 17.8691 63.9809 18.8104 63.9809 19.9141C63.9809 21.0244 63.8334 21.9723 63.5384 22.7578C63.2434 23.54 62.8175 24.1383 62.2607 24.5526C61.7039 24.9635 61.0344 25.169 60.2522 25.169ZM60.2522 23.8416C60.9416 23.8416 61.4802 23.5052 61.8679 22.8324C62.259 22.1596 62.4546 21.1868 62.4546 19.9141C62.4546 19.0689 62.3651 18.3546 62.1861 17.7713C62.0105 17.1847 61.7569 16.7405 61.4255 16.4389C61.0973 16.134 60.7062 15.9815 60.2522 15.9815C59.5661 15.9815 59.0275 16.3196 58.6364 16.9957C58.2453 17.6719 58.0481 18.6446 58.0448 19.9141C58.0448 20.7625 58.1326 21.4801 58.3083 22.0668C58.4873 22.6501 58.7408 23.0926 59.0689 23.3942C59.3971 23.6925 59.7915 23.8416 60.2522 23.8416ZM69.2893 25.169C68.5038 25.1657 67.8326 24.9586 67.2758 24.5476C66.719 24.1366 66.2931 23.5384 65.9981 22.7528C65.7031 21.9673 65.5556 21.0211 65.5556 19.9141C65.5556 18.8104 65.7031 17.8674 65.9981 17.0852C66.2964 16.303 66.7239 15.7064 67.2808 15.2955C67.8409 14.8845 68.5104 14.679 69.2893 14.679C70.0682 14.679 70.736 14.8861 71.2928 15.3004C71.8497 15.7114 72.2756 16.308 72.5705 17.0902C72.8688 17.8691 73.018 18.8104 73.018 19.9141C73.018 21.0244 72.8705 21.9723 72.5755 22.7578C72.2805 23.54 71.8546 24.1383 71.2978 24.5526C70.741 24.9635 70.0715 25.169 69.2893 25.169ZM69.2893 23.8416C69.9787 23.8416 70.5173 23.5052 70.9051 22.8324C71.2961 22.1596 71.4917 21.1868 71.4917 19.9141C71.4917 19.0689 71.4022 18.3546 71.2232 17.7713C71.0476 17.1847 70.794 16.7405 70.4626 16.4389C70.1345 16.134 69.7434 15.9815 69.2893 15.9815C68.6032 15.9815 68.0646 16.3196 67.6735 16.9957C67.2824 17.6719 67.0852 18.6446 67.0819 19.9141C67.0819 20.7625 67.1697 21.4801 67.3454 22.0668C67.5244 22.6501 67.7779 23.0926 68.106 23.3942C68.4342 23.6925 68.8286 23.8416 69.2893 23.8416Z" fill="#0A0A0B"/>
</svg>
