<svg width="240" height="40" viewBox="0 0 240 40" fill="none" xmlns="http://www.w3.org/2000/svg">
<rect width="240" height="40" fill="#85341D"/>
<path d="M21.9631 19.9091C21.9631 20.9962 21.7642 21.9309 21.3665 22.7131C20.9688 23.492 20.4235 24.0919 19.7308 24.5128C19.0414 24.9304 18.2576 25.1392 17.3793 25.1392C16.4976 25.1392 15.7105 24.9304 15.0178 24.5128C14.3284 24.0919 13.7848 23.4903 13.3871 22.7081C12.9893 21.9259 12.7905 20.9929 12.7905 19.9091C12.7905 18.822 12.9893 17.889 13.3871 17.1101C13.7848 16.3279 14.3284 15.728 15.0178 15.3104C15.7105 14.8894 16.4976 14.679 17.3793 14.679C18.2576 14.679 19.0414 14.8894 19.7308 15.3104C20.4235 15.728 20.9688 16.3279 21.3665 17.1101C21.7642 17.889 21.9631 18.822 21.9631 19.9091ZM20.4418 19.9091C20.4418 19.0805 20.3075 18.3828 20.0391 17.8161C19.7739 17.246 19.4093 16.8151 18.9453 16.5234C18.4846 16.2285 17.9626 16.081 17.3793 16.081C16.7926 16.081 16.2689 16.2285 15.8082 16.5234C15.3475 16.8151 14.983 17.246 14.7145 17.8161C14.4493 18.3828 14.3168 19.0805 14.3168 19.9091C14.3168 20.7377 14.4493 21.437 14.7145 22.0071C14.983 22.5739 15.3475 23.0047 15.8082 23.2997C16.2689 23.5914 16.7926 23.7372 17.3793 23.7372C17.9626 23.7372 18.4846 23.5914 18.9453 23.2997C19.4093 23.0047 19.7739 22.5739 20.0391 22.0071C20.3075 21.437 20.4418 20.7377 20.4418 19.9091ZM23.6691 25V17.3636H25.1058V18.5767H25.1854C25.3246 18.1657 25.5699 17.8426 25.9212 17.6072C26.2758 17.3686 26.6769 17.2493 27.1243 17.2493C27.2171 17.2493 27.3265 17.2526 27.4524 17.2592C27.5817 17.2659 27.6828 17.2741 27.7557 17.2841V18.706C27.696 18.6894 27.59 18.6712 27.4375 18.6513C27.2851 18.6281 27.1326 18.6165 26.9801 18.6165C26.6288 18.6165 26.3156 18.6911 26.0405 18.8402C25.7687 18.986 25.5533 19.1899 25.3942 19.4517C25.2351 19.7102 25.1556 20.0052 25.1556 20.3366V25H23.6691ZM31.106 25.169C30.6221 25.169 30.1846 25.0795 29.7935 24.9006C29.4024 24.7183 29.0925 24.4548 28.8639 24.1101C28.6385 23.7654 28.5258 23.3428 28.5258 22.8423C28.5258 22.4115 28.6086 22.0568 28.7744 21.7784C28.9401 21.5 29.1638 21.2796 29.4455 21.1172C29.7273 20.9548 30.0421 20.8321 30.3901 20.7493C30.7381 20.6664 31.0928 20.6035 31.4541 20.5604C31.9114 20.5073 32.2827 20.4643 32.5677 20.4311C32.8527 20.3946 33.0599 20.3366 33.1891 20.2571C33.3184 20.1776 33.383 20.0483 33.383 19.8693V19.8345C33.383 19.4003 33.2604 19.0639 33.0151 18.8253C32.7732 18.5866 32.4119 18.4673 31.9313 18.4673C31.4309 18.4673 31.0364 18.5784 30.7481 18.8004C30.4631 19.0192 30.2658 19.2628 30.1565 19.5312L28.7595 19.2131C28.9252 18.7491 29.1671 18.3745 29.4853 18.0895C29.8068 17.8011 30.1764 17.5923 30.594 17.4631C31.0116 17.3305 31.4507 17.2642 31.9114 17.2642C32.2164 17.2642 32.5395 17.3007 32.8809 17.3736C33.2256 17.4432 33.5471 17.5724 33.8454 17.7614C34.147 17.9503 34.3939 18.2204 34.5862 18.5717C34.7784 18.9197 34.8745 19.3722 34.8745 19.929V25H33.4228V23.956H33.3631C33.267 24.1482 33.1229 24.3371 32.9306 24.5227C32.7384 24.7083 32.4915 24.8625 32.1899 24.9851C31.8882 25.1077 31.527 25.169 31.106 25.169ZM31.4292 23.9759C31.8402 23.9759 32.1915 23.8946 32.4832 23.7322C32.7782 23.5698 33.0019 23.3577 33.1543 23.0959C33.3101 22.8307 33.388 22.5473 33.388 22.2457V21.2614C33.335 21.3144 33.2322 21.3641 33.0798 21.4105C32.9306 21.4536 32.7599 21.4917 32.5677 21.5249C32.3755 21.5547 32.1882 21.5829 32.0059 21.6094C31.8236 21.6326 31.6711 21.6525 31.5485 21.669C31.2602 21.7055 30.9967 21.7668 30.758 21.853C30.5227 21.9392 30.3338 22.0634 30.1913 22.2259C30.0521 22.3849 29.9825 22.5971 29.9825 22.8622C29.9825 23.2301 30.1184 23.5085 30.3901 23.6974C30.6619 23.883 31.0083 23.9759 31.4292 23.9759ZM38.251 20.4659V25H36.7644V17.3636H38.1913V18.6065H38.2858C38.4614 18.2022 38.7365 17.8774 39.111 17.6321C39.4889 17.3868 39.9645 17.2642 40.5379 17.2642C41.0582 17.2642 41.514 17.3736 41.9051 17.5923C42.2962 17.8078 42.5994 18.1293 42.8149 18.5568C43.0303 18.9844 43.138 19.513 43.138 20.1428V25H41.6515V20.3217C41.6515 19.7682 41.5073 19.3357 41.219 19.0241C40.9306 18.7093 40.5346 18.5518 40.0308 18.5518C39.6861 18.5518 39.3795 18.6264 39.111 18.7756C38.8459 18.9247 38.6354 19.1435 38.4796 19.4318C38.3272 19.7169 38.251 20.0616 38.251 20.4659ZM48.2433 28.0227C47.6368 28.0227 47.1148 27.9432 46.6773 27.7841C46.2431 27.625 45.8885 27.4145 45.6134 27.1527C45.3383 26.8909 45.1328 26.6042 44.9969 26.2926L46.2746 25.7656C46.3641 25.9115 46.4834 26.0656 46.6325 26.228C46.785 26.3937 46.9905 26.5346 47.249 26.6506C47.5109 26.7666 47.8473 26.8246 48.2583 26.8246C48.8217 26.8246 49.2874 26.687 49.6553 26.4119C50.0232 26.1402 50.2071 25.706 50.2071 25.1094V23.608H50.1127C50.0232 23.7704 49.8939 23.951 49.7249 24.1499C49.5592 24.3487 49.3305 24.5211 49.0388 24.6669C48.7471 24.8127 48.3676 24.8857 47.9003 24.8857C47.2971 24.8857 46.7535 24.7448 46.2696 24.4631C45.789 24.178 45.4079 23.7588 45.1261 23.2053C44.8477 22.6484 44.7085 21.964 44.7085 21.152C44.7085 20.34 44.8461 19.6439 45.1212 19.0639C45.3996 18.4839 45.7807 18.0398 46.2646 17.7315C46.7485 17.42 47.2971 17.2642 47.9102 17.2642C48.3842 17.2642 48.767 17.3438 49.0587 17.5028C49.3503 17.6586 49.5774 17.8409 49.7398 18.0497C49.9055 18.2585 50.0331 18.4425 50.1226 18.6016H50.232V17.3636H51.6887V25.169C51.6887 25.8253 51.5362 26.3639 51.2313 26.7848C50.9263 27.2057 50.5137 27.5173 49.9933 27.7195C49.4763 27.9216 48.893 28.0227 48.2433 28.0227ZM48.2284 23.6527C48.656 23.6527 49.0172 23.5533 49.3122 23.3544C49.6105 23.1522 49.8359 22.8639 49.9884 22.4893C50.1441 22.1115 50.222 21.6591 50.222 21.1321C50.222 20.6184 50.1458 20.166 49.9933 19.7749C49.8409 19.3838 49.6172 19.0788 49.3222 18.8601C49.0272 18.638 48.6626 18.527 48.2284 18.527C47.781 18.527 47.4081 18.643 47.1098 18.875C46.8115 19.1037 46.5861 19.4152 46.4337 19.8097C46.2845 20.2041 46.21 20.6449 46.21 21.1321C46.21 21.6326 46.2862 22.0717 46.4387 22.4496C46.5911 22.8274 46.8165 23.1224 47.1148 23.3345C47.4164 23.5466 47.7876 23.6527 48.2284 23.6527ZM56.8835 25.1541C56.1311 25.1541 55.4831 24.9934 54.9396 24.6719C54.3993 24.3471 53.9817 23.8913 53.6867 23.3047C53.3951 22.7147 53.2492 22.0237 53.2492 21.2315C53.2492 20.4493 53.3951 19.7599 53.6867 19.1634C53.9817 18.5668 54.3927 18.1011 54.9197 17.7663C55.45 17.4316 56.0698 17.2642 56.779 17.2642C57.2099 17.2642 57.6275 17.3355 58.0319 17.478C58.4362 17.6205 58.7992 17.8442 59.1207 18.1491C59.4422 18.4541 59.6957 18.8501 59.8813 19.3374C60.0669 19.8213 60.1597 20.4096 60.1597 21.1023V21.6293H54.0894V20.5156H58.7031C58.7031 20.1245 58.6235 19.7782 58.4644 19.4766C58.3053 19.1716 58.0816 18.9313 57.7933 18.7557C57.5082 18.58 57.1735 18.4922 56.789 18.4922C56.3714 18.4922 56.0068 18.5949 55.6952 18.8004C55.387 19.0026 55.1484 19.2678 54.9793 19.5959C54.8136 19.9207 54.7308 20.2737 54.7308 20.6548V21.5249C54.7308 22.0353 54.8202 22.4695 54.9992 22.8274C55.1815 23.1854 55.4351 23.4588 55.7599 23.6477C56.0847 23.8333 56.4642 23.9261 56.8984 23.9261C57.1801 23.9261 57.437 23.8864 57.669 23.8068C57.901 23.724 58.1015 23.6013 58.2705 23.4389C58.4396 23.2765 58.5688 23.076 58.6583 22.8374L60.0653 23.0909C59.9526 23.5052 59.7504 23.8681 59.4587 24.1797C59.1704 24.4879 58.8075 24.7282 58.37 24.9006C57.9358 25.0696 57.4403 25.1541 56.8835 25.1541ZM65.1395 25.1392C64.4269 25.1392 63.7972 25.0166 63.2503 24.7713C62.7067 24.526 62.2808 24.188 61.9726 23.7571C61.6644 23.3262 61.5119 22.8357 61.5152 22.2855C61.5119 21.8546 61.5997 21.4586 61.7787 21.0973C61.961 20.7327 62.2079 20.4295 62.5195 20.1875C62.831 19.9422 63.179 19.7865 63.5635 19.7202V19.6605C63.0564 19.5379 62.6504 19.2661 62.3455 18.8452C62.0406 18.4242 61.8897 17.9403 61.8931 17.3935C61.8897 16.8731 62.0273 16.4091 62.3057 16.0014C62.5874 15.5904 62.9736 15.2673 63.4641 15.032C63.9546 14.7966 64.5131 14.679 65.1395 14.679C65.7593 14.679 66.3128 14.7983 66.8 15.0369C67.2906 15.2723 67.6767 15.5954 67.9584 16.0064C68.2401 16.4141 68.3826 16.8764 68.386 17.3935C68.3826 17.9403 68.2269 18.4242 67.9186 18.8452C67.6104 19.2661 67.2093 19.5379 66.7155 19.6605V19.7202C67.0967 19.7865 67.4397 19.9422 67.7446 20.1875C68.0529 20.4295 68.2981 20.7327 68.4804 21.0973C68.666 21.4586 68.7605 21.8546 68.7638 22.2855C68.7605 22.8357 68.6047 23.3262 68.2965 23.7571C67.9882 24.188 67.5607 24.526 67.0138 24.7713C66.4702 25.0166 65.8455 25.1392 65.1395 25.1392ZM65.1395 23.8814C65.5604 23.8814 65.925 23.8118 66.2333 23.6726C66.5415 23.5301 66.7801 23.3329 66.9492 23.081C67.1182 22.8258 67.2044 22.5275 67.2077 22.1861C67.2044 21.8314 67.1116 21.5182 66.9293 21.2464C66.7503 20.9747 66.5067 20.7609 66.1985 20.6051C65.8902 20.4493 65.5372 20.3714 65.1395 20.3714C64.7385 20.3714 64.3822 20.4493 64.0706 20.6051C63.7591 20.7609 63.5138 20.9747 63.3348 21.2464C63.1558 21.5182 63.068 21.8314 63.0713 22.1861C63.068 22.5275 63.1492 22.8258 63.3149 23.081C63.484 23.3329 63.7243 23.5301 64.0358 23.6726C64.3474 23.8118 64.7153 23.8814 65.1395 23.8814ZM65.1395 19.1435C65.4776 19.1435 65.7775 19.0755 66.0394 18.9396C66.3012 18.8037 66.5067 18.6148 66.6558 18.3729C66.8083 18.1309 66.8862 17.8475 66.8895 17.5227C66.8862 17.2045 66.81 16.9261 66.6608 16.6875C66.515 16.4489 66.3111 16.2649 66.0493 16.1357C65.7875 16.0031 65.4842 15.9368 65.1395 15.9368C64.7882 15.9368 64.4799 16.0031 64.2148 16.1357C63.953 16.2649 63.7491 16.4489 63.6033 16.6875C63.4575 16.9261 63.3862 17.2045 63.3895 17.5227C63.3862 17.8475 63.4591 18.1309 63.6083 18.3729C63.7574 18.6148 63.9629 18.8037 64.2247 18.9396C64.4899 19.0755 64.7948 19.1435 65.1395 19.1435ZM73.9996 25.169C73.2141 25.1657 72.5429 24.9586 71.9861 24.5476C71.4293 24.1366 71.0034 23.5384 70.7084 22.7528C70.4134 21.9673 70.266 21.0211 70.266 19.9141C70.266 18.8104 70.4134 17.8674 70.7084 17.0852C71.0067 16.303 71.4343 15.7064 71.9911 15.2955C72.5512 14.8845 73.2207 14.679 73.9996 14.679C74.7785 14.679 75.4463 14.8861 76.0032 15.3004C76.56 15.7114 76.9859 16.308 77.2809 17.0902C77.5792 17.8691 77.7283 18.8104 77.7283 19.9141C77.7283 21.0244 77.5808 21.9723 77.2858 22.7578C76.9909 23.54 76.565 24.1383 76.0081 24.5526C75.4513 24.9635 74.7818 25.169 73.9996 25.169ZM73.9996 23.8416C74.689 23.8416 75.2276 23.5052 75.6154 22.8324C76.0065 22.1596 76.202 21.1868 76.202 19.9141C76.202 19.0689 76.1125 18.3546 75.9336 17.7713C75.7579 17.1847 75.5044 16.7405 75.1729 16.4389C74.8448 16.134 74.4537 15.9815 73.9996 15.9815C73.3135 15.9815 72.7749 16.3196 72.3838 16.9957C71.9927 17.6719 71.7955 18.6446 71.7922 19.9141C71.7922 20.7625 71.8801 21.4801 72.0557 22.0668C72.2347 22.6501 72.4883 23.0926 72.8164 23.3942C73.1445 23.6925 73.5389 23.8416 73.9996 23.8416ZM82.9467 25.169C82.1612 25.1657 81.49 24.9586 80.9332 24.5476C80.3764 24.1366 79.9505 23.5384 79.6555 22.7528C79.3606 21.9673 79.2131 21.0211 79.2131 19.9141C79.2131 18.8104 79.3606 17.8674 79.6555 17.0852C79.9538 16.303 80.3814 15.7064 80.9382 15.2955C81.4983 14.8845 82.1678 14.679 82.9467 14.679C83.7256 14.679 84.3935 14.8861 84.9503 15.3004C85.5071 15.7114 85.933 16.308 86.228 17.0902C86.5263 17.8691 86.6754 18.8104 86.6754 19.9141C86.6754 21.0244 86.5279 21.9723 86.2329 22.7578C85.938 23.54 85.5121 24.1383 84.9552 24.5526C84.3984 24.9635 83.7289 25.169 82.9467 25.169ZM82.9467 23.8416C83.6361 23.8416 84.1747 23.5052 84.5625 22.8324C84.9536 22.1596 85.1491 21.1868 85.1491 19.9141C85.1491 19.0689 85.0597 18.3546 84.8807 17.7713C84.705 17.1847 84.4515 16.7405 84.12 16.4389C83.7919 16.134 83.4008 15.9815 82.9467 15.9815C82.2606 15.9815 81.7221 16.3196 81.331 16.9957C80.9399 17.6719 80.7427 18.6446 80.7393 19.9141C80.7393 20.7625 80.8272 21.4801 81.0028 22.0668C81.1818 22.6501 81.4354 23.0926 81.7635 23.3942C82.0916 23.6925 82.486 23.8416 82.9467 23.8416Z" fill="white"/>
</svg>
