<svg width="342" height="40" viewBox="0 0 342 40" fill="none" xmlns="http://www.w3.org/2000/svg">
<rect width="341.333" height="40" transform="translate(0.333496)" fill="#44C5C1"/>
<path d="M21.9088 18.1293H20.3576C20.298 17.7978 20.187 17.5062 20.0245 17.2543C19.8621 17.0024 19.6633 16.7886 19.428 16.6129C19.1926 16.4373 18.9291 16.3047 18.6375 16.2152C18.3491 16.1257 18.0425 16.081 17.7177 16.081C17.1311 16.081 16.6058 16.2285 16.1417 16.5234C15.681 16.8184 15.3165 17.2509 15.048 17.821C14.7828 18.3911 14.6503 19.0871 14.6503 19.9091C14.6503 20.7377 14.7828 21.437 15.048 22.0071C15.3165 22.5772 15.6827 23.008 16.1467 23.2997C16.6107 23.5914 17.1327 23.7372 17.7128 23.7372C18.0343 23.7372 18.3392 23.6941 18.6275 23.608C18.9192 23.5185 19.1827 23.3875 19.418 23.2152C19.6533 23.0429 19.8522 22.8324 20.0146 22.5838C20.1803 22.3319 20.2947 22.0436 20.3576 21.7188L21.9088 21.7237C21.8259 22.2242 21.6652 22.6849 21.4265 23.1058C21.1912 23.5234 20.8879 23.8847 20.5167 24.1896C20.1488 24.4912 19.7279 24.7249 19.254 24.8906C18.78 25.0563 18.2629 25.1392 17.7028 25.1392C16.8212 25.1392 16.0357 24.9304 15.3463 24.5128C14.6569 24.0919 14.1133 23.4903 13.7156 22.7081C13.3212 21.9259 13.124 20.9929 13.124 19.9091C13.124 18.822 13.3228 17.889 13.7206 17.1101C14.1183 16.3279 14.6619 15.728 15.3513 15.3104C16.0406 14.8894 16.8245 14.679 17.7028 14.679C18.2431 14.679 18.7468 14.7569 19.2142 14.9126C19.6848 15.0651 20.1074 15.2905 20.4819 15.5888C20.8565 15.8838 21.1664 16.245 21.4116 16.6726C21.6569 17.0968 21.8226 17.5824 21.9088 18.1293ZM24.5947 27.8636C24.3726 27.8636 24.1704 27.8454 23.9881 27.8089C23.8059 27.7758 23.67 27.7393 23.5805 27.6996L23.9384 26.4815C24.2102 26.5545 24.4522 26.5859 24.6643 26.576C24.8764 26.5661 25.0637 26.4865 25.2261 26.3374C25.3918 26.1882 25.5376 25.9446 25.6636 25.6065L25.8475 25.0994L23.0535 17.3636H24.6444L26.5783 23.2898H26.6579L28.5918 17.3636H30.1877L27.0407 26.0192C26.8949 26.4169 26.7093 26.7533 26.4839 27.0284C26.2585 27.3068 25.99 27.5156 25.6785 27.6548C25.3669 27.794 25.0057 27.8636 24.5947 27.8636ZM33.5883 25.169C33.1044 25.169 32.6669 25.0795 32.2758 24.9006C31.8847 24.7183 31.5748 24.4548 31.3461 24.1101C31.1207 23.7654 31.008 23.3428 31.008 22.8423C31.008 22.4115 31.0909 22.0568 31.2566 21.7784C31.4223 21.5 31.6461 21.2796 31.9278 21.1172C32.2095 20.9548 32.5244 20.8321 32.8724 20.7493C33.2204 20.6664 33.575 20.6035 33.9363 20.5604C34.3937 20.5073 34.7649 20.4643 35.0499 20.4311C35.335 20.3946 35.5421 20.3366 35.6714 20.2571C35.8006 20.1776 35.8653 20.0483 35.8653 19.8693V19.8345C35.8653 19.4003 35.7426 19.0639 35.4974 18.8253C35.2554 18.5866 34.8942 18.4673 34.4136 18.4673C33.9131 18.4673 33.5187 18.5784 33.2303 18.8004C32.9453 19.0192 32.7481 19.2628 32.6387 19.5312L31.2417 19.2131C31.4074 18.7491 31.6494 18.3745 31.9676 18.0895C32.289 17.8011 32.6586 17.5923 33.0762 17.4631C33.4938 17.3305 33.933 17.2642 34.3937 17.2642C34.6986 17.2642 35.0218 17.3007 35.3631 17.3736C35.7078 17.4432 36.0293 17.5724 36.3276 17.7614C36.6292 17.9503 36.8762 18.2204 37.0684 18.5717C37.2606 18.9197 37.3568 19.3722 37.3568 19.929V25H35.9051V23.956H35.8454C35.7493 24.1482 35.6051 24.3371 35.4129 24.5227C35.2206 24.7083 34.9737 24.8625 34.6721 24.9851C34.3705 25.1077 34.0092 25.169 33.5883 25.169ZM33.9114 23.9759C34.3224 23.9759 34.6738 23.8946 34.9654 23.7322C35.2604 23.5698 35.4841 23.3577 35.6366 23.0959C35.7924 22.8307 35.8703 22.5473 35.8703 22.2457V21.2614C35.8172 21.3144 35.7145 21.3641 35.562 21.4105C35.4129 21.4536 35.2422 21.4917 35.0499 21.5249C34.8577 21.5547 34.6704 21.5829 34.4881 21.6094C34.3059 21.6326 34.1534 21.6525 34.0308 21.669C33.7424 21.7055 33.4789 21.7668 33.2403 21.853C33.005 21.9392 32.816 22.0634 32.6735 22.2259C32.5343 22.3849 32.4647 22.5971 32.4647 22.8622C32.4647 23.2301 32.6006 23.5085 32.8724 23.6974C33.1442 23.883 33.4905 23.9759 33.9114 23.9759ZM40.8232 20.4659V25H39.3367V17.3636H40.7635V18.6065H40.858C41.0337 18.2022 41.3088 17.8774 41.6833 17.6321C42.0611 17.3868 42.5367 17.2642 43.1101 17.2642C43.6305 17.2642 44.0862 17.3736 44.4773 17.5923C44.8684 17.8078 45.1717 18.1293 45.3871 18.5568C45.6026 18.9844 45.7103 19.513 45.7103 20.1428V25H44.2238V20.3217C44.2238 19.7682 44.0796 19.3357 43.7912 19.0241C43.5029 18.7093 43.1068 18.5518 42.603 18.5518C42.2583 18.5518 41.9517 18.6264 41.6833 18.7756C41.4181 18.9247 41.2077 19.1435 41.0519 19.4318C40.8994 19.7169 40.8232 20.0616 40.8232 20.4659ZM48.027 25L52.4716 16.2102V16.1357H47.331V14.8182H54.0625V16.1804L49.6329 25H48.027ZM59.1174 25.169C58.3319 25.1657 57.6607 24.9586 57.1039 24.5476C56.5471 24.1366 56.1212 23.5384 55.8262 22.7528C55.5312 21.9673 55.3837 21.0211 55.3837 19.9141C55.3837 18.8104 55.5312 17.8674 55.8262 17.0852C56.1245 16.303 56.5521 15.7064 57.1089 15.2955C57.669 14.8845 58.3385 14.679 59.1174 14.679C59.8963 14.679 60.5641 14.8861 61.121 15.3004C61.6778 15.7114 62.1037 16.308 62.3987 17.0902C62.697 17.8691 62.8461 18.8104 62.8461 19.9141C62.8461 21.0244 62.6986 21.9723 62.4036 22.7578C62.1087 23.54 61.6828 24.1383 61.1259 24.5526C60.5691 24.9635 59.8996 25.169 59.1174 25.169ZM59.1174 23.8416C59.8068 23.8416 60.3454 23.5052 60.7332 22.8324C61.1243 22.1596 61.3198 21.1868 61.3198 19.9141C61.3198 19.0689 61.2303 18.3546 61.0514 17.7713C60.8757 17.1847 60.6221 16.7405 60.2907 16.4389C59.9626 16.134 59.5715 15.9815 59.1174 15.9815C58.4313 15.9815 57.8927 16.3196 57.5016 16.9957C57.1105 17.6719 56.9133 18.6446 56.91 19.9141C56.91 20.7625 56.9979 21.4801 57.1735 22.0668C57.3525 22.6501 57.606 23.0926 57.9342 23.3942C58.2623 23.6925 58.6567 23.8416 59.1174 23.8416ZM68.1545 25.169C67.369 25.1657 66.6978 24.9586 66.141 24.5476C65.5842 24.1366 65.1583 23.5384 64.8633 22.7528C64.5683 21.9673 64.4209 21.0211 64.4209 19.9141C64.4209 18.8104 64.5683 17.8674 64.8633 17.0852C65.1616 16.303 65.5892 15.7064 66.146 15.2955C66.7061 14.8845 67.3756 14.679 68.1545 14.679C68.9334 14.679 69.6013 14.8861 70.1581 15.3004C70.7149 15.7114 71.1408 16.308 71.4358 17.0902C71.7341 17.8691 71.8832 18.8104 71.8832 19.9141C71.8832 21.0244 71.7357 21.9723 71.4407 22.7578C71.1458 23.54 70.7199 24.1383 70.163 24.5526C69.6062 24.9635 68.9367 25.169 68.1545 25.169ZM68.1545 23.8416C68.8439 23.8416 69.3825 23.5052 69.7703 22.8324C70.1614 22.1596 70.3569 21.1868 70.3569 19.9141C70.3569 19.0689 70.2674 18.3546 70.0885 17.7713C69.9128 17.1847 69.6593 16.7405 69.3278 16.4389C68.9997 16.134 68.6086 15.9815 68.1545 15.9815C67.4684 15.9815 66.9299 16.3196 66.5388 16.9957C66.1477 17.6719 65.9504 18.6446 65.9471 19.9141C65.9471 20.7625 66.035 21.4801 66.2106 22.0668C66.3896 22.6501 66.6432 23.0926 66.9713 23.3942C67.2994 23.6925 67.6938 23.8416 68.1545 23.8416Z" fill="white"/>
</svg>
