<svg width="240" height="40" viewBox="0 0 240 40" fill="none" xmlns="http://www.w3.org/2000/svg">
<rect width="240" height="40" fill="#D8DAFD"/>
<path d="M13.1186 25V14.8182H16.7479C17.54 14.8182 18.1963 14.9624 18.7166 15.2507C19.237 15.5391 19.6264 15.9335 19.8849 16.4339C20.1435 16.9311 20.2727 17.4912 20.2727 18.1143C20.2727 18.7408 20.1418 19.3042 19.88 19.8047C19.6214 20.3018 19.2304 20.6963 18.7067 20.9879C18.1863 21.2763 17.5317 21.4205 16.7429 21.4205H14.2472V20.1179H16.6037C17.1042 20.1179 17.5102 20.0317 17.8217 19.8594C18.1333 19.6837 18.362 19.4451 18.5078 19.1435C18.6536 18.8419 18.7266 18.4988 18.7266 18.1143C18.7266 17.7299 18.6536 17.3885 18.5078 17.0902C18.362 16.7919 18.1316 16.5582 17.8168 16.3892C17.5052 16.2202 17.0942 16.1357 16.5838 16.1357H14.6548V25H13.1186ZM26.7017 21.8331V17.3636H28.1932V25H26.7316V23.6776H26.652C26.4763 24.0852 26.1946 24.425 25.8068 24.6967C25.4224 24.9652 24.9434 25.0994 24.37 25.0994C23.8795 25.0994 23.4453 24.9917 23.0675 24.7763C22.693 24.5575 22.398 24.2344 22.1825 23.8068C21.9704 23.3793 21.8644 22.8506 21.8644 22.2209V17.3636H23.3509V22.0419C23.3509 22.5623 23.495 22.9766 23.7834 23.2848C24.0718 23.593 24.4463 23.7472 24.907 23.7472C25.1854 23.7472 25.4621 23.6776 25.7372 23.5384C26.0156 23.3991 26.246 23.1887 26.4283 22.907C26.6139 22.6252 26.705 22.2673 26.7017 21.8331ZM30.1005 25V17.3636H31.5373V18.5767H31.6169C31.7561 18.1657 32.0013 17.8426 32.3527 17.6072C32.7073 17.3686 33.1084 17.2493 33.5558 17.2493C33.6486 17.2493 33.758 17.2526 33.8839 17.2592C34.0132 17.2659 34.1143 17.2741 34.1872 17.2841V18.706C34.1275 18.6894 34.0215 18.6712 33.869 18.6513C33.7165 18.6281 33.5641 18.6165 33.4116 18.6165C33.0603 18.6165 32.7471 18.6911 32.472 18.8402C32.2002 18.986 31.9848 19.1899 31.8257 19.4517C31.6666 19.7102 31.587 20.0052 31.587 20.3366V25H30.1005ZM35.3836 27.8636V17.3636H36.8353V18.6016H36.9596C37.0458 18.4425 37.17 18.2585 37.3324 18.0497C37.4949 17.8409 37.7202 17.6586 38.0086 17.5028C38.2969 17.3438 38.6781 17.2642 39.1521 17.2642C39.7685 17.2642 40.3187 17.42 40.8026 17.7315C41.2865 18.0431 41.666 18.4922 41.9411 19.0788C42.2195 19.6655 42.3587 20.3714 42.3587 21.1967C42.3587 22.022 42.2212 22.7296 41.9461 23.3196C41.671 23.9062 41.2932 24.3587 40.8126 24.6768C40.332 24.9917 39.7834 25.1491 39.167 25.1491C38.703 25.1491 38.3235 25.0713 38.0285 24.9155C37.7368 24.7597 37.5081 24.5774 37.3424 24.3686C37.1767 24.1598 37.0491 23.9742 36.9596 23.8118H36.8701V27.8636H35.3836ZM36.8403 21.1818C36.8403 21.7187 36.9182 22.1894 37.0739 22.5938C37.2297 22.9981 37.4551 23.3146 37.7501 23.5433C38.045 23.7687 38.4063 23.8814 38.8339 23.8814C39.278 23.8814 39.6492 23.7637 39.9475 23.5284C40.2458 23.2898 40.4712 22.9666 40.6236 22.5589C40.7794 22.1513 40.8573 21.6922 40.8573 21.1818C40.8573 20.678 40.7811 20.2256 40.6286 19.8246C40.4795 19.4235 40.2541 19.107 39.9525 18.875C39.6542 18.643 39.2813 18.527 38.8339 18.527C38.403 18.527 38.0384 18.638 37.7401 18.8601C37.4451 19.0821 37.2214 19.392 37.069 19.7898C36.9165 20.1875 36.8403 20.6515 36.8403 21.1818ZM45.4207 14.8182V25H43.9342V14.8182H45.4207ZM50.6217 25.1541C49.8694 25.1541 49.2214 24.9934 48.6778 24.6719C48.1376 24.3471 47.72 23.8913 47.425 23.3047C47.1333 22.7147 46.9875 22.0237 46.9875 21.2315C46.9875 20.4493 47.1333 19.7599 47.425 19.1634C47.72 18.5668 48.131 18.1011 48.658 17.7663C49.1883 17.4316 49.808 17.2642 50.5173 17.2642C50.9482 17.2642 51.3658 17.3355 51.7702 17.478C52.1745 17.6205 52.5375 17.8442 52.8589 18.1491C53.1804 18.4541 53.434 18.8501 53.6196 19.3374C53.8052 19.8213 53.898 20.4096 53.898 21.1023V21.6293H47.8277V20.5156H52.4413C52.4413 20.1245 52.3618 19.7782 52.2027 19.4766C52.0436 19.1716 51.8199 18.9313 51.5315 18.7557C51.2465 18.58 50.9117 18.4922 50.5273 18.4922C50.1097 18.4922 49.7451 18.5949 49.4335 18.8004C49.1253 19.0026 48.8866 19.2678 48.7176 19.5959C48.5519 19.9207 48.469 20.2737 48.469 20.6548V21.5249C48.469 22.0353 48.5585 22.4695 48.7375 22.8274C48.9198 23.1854 49.1733 23.4588 49.4982 23.6477C49.823 23.8333 50.2025 23.9261 50.6366 23.9261C50.9184 23.9261 51.1752 23.8864 51.4072 23.8068C51.6393 23.724 51.8398 23.6013 52.0088 23.4389C52.1778 23.2765 52.3071 23.076 52.3966 22.8374L53.8036 23.0909C53.6909 23.5052 53.4887 23.8681 53.197 24.1797C52.9087 24.4879 52.5457 24.7282 52.1082 24.9006C51.6741 25.0696 51.1786 25.1541 50.6217 25.1541ZM55.4374 25V23.8864L58.8828 20.3168C59.2507 19.929 59.5539 19.5893 59.7926 19.2976C60.0345 19.0026 60.2151 18.7225 60.3345 18.4574C60.4538 18.1922 60.5134 17.9105 60.5134 17.6122C60.5134 17.2741 60.4339 16.9825 60.2748 16.7372C60.1157 16.4886 59.8986 16.2981 59.6235 16.1655C59.3484 16.0296 59.0385 15.9616 58.6938 15.9616C58.3293 15.9616 58.0111 16.0362 57.7393 16.1854C57.4675 16.3345 57.2587 16.545 57.1129 16.8168C56.967 17.0885 56.8941 17.4067 56.8941 17.7713H55.4275C55.4275 17.1515 55.57 16.6096 55.8551 16.1456C56.1401 15.6816 56.5312 15.322 57.0284 15.0668C57.5255 14.8082 58.0906 14.679 58.7237 14.679C59.3633 14.679 59.9268 14.8066 60.414 15.0618C60.9045 15.3137 61.2874 15.6584 61.5624 16.0959C61.8375 16.5301 61.9751 17.0206 61.9751 17.5675C61.9751 17.9453 61.9038 18.3149 61.7613 18.6761C61.6221 19.0374 61.3785 19.4401 61.0305 19.8842C60.6825 20.325 60.1986 20.8603 59.5788 21.4901L57.5553 23.608V23.6825H62.1392V25H55.4374ZM67.4781 25.169C66.6926 25.1657 66.0215 24.9586 65.4646 24.5476C64.9078 24.1366 64.4819 23.5384 64.1869 22.7528C63.892 21.9673 63.7445 21.0211 63.7445 19.9141C63.7445 18.8104 63.892 17.8674 64.1869 17.0852C64.4852 16.303 64.9128 15.7064 65.4696 15.2955C66.0297 14.8845 66.6992 14.679 67.4781 14.679C68.257 14.679 68.9249 14.8861 69.4817 15.3004C70.0385 15.7114 70.4644 16.308 70.7594 17.0902C71.0577 17.8691 71.2068 18.8104 71.2068 19.9141C71.2068 21.0244 71.0593 21.9723 70.7644 22.7578C70.4694 23.54 70.0435 24.1383 69.4867 24.5526C68.9298 24.9635 68.2603 25.169 67.4781 25.169ZM67.4781 23.8416C68.1675 23.8416 68.7061 23.5052 69.0939 22.8324C69.485 22.1596 69.6805 21.1868 69.6805 19.9141C69.6805 19.0689 69.5911 18.3546 69.4121 17.7713C69.2364 17.1847 68.9829 16.7405 68.6514 16.4389C68.3233 16.134 67.9322 15.9815 67.4781 15.9815C66.7921 15.9815 66.2535 16.3196 65.8624 16.9957C65.4713 17.6719 65.2741 18.6446 65.2707 19.9141C65.2707 20.7625 65.3586 21.4801 65.5342 22.0668C65.7132 22.6501 65.9668 23.0926 66.2949 23.3942C66.623 23.6925 67.0174 23.8416 67.4781 23.8416ZM76.4252 25.169C75.6397 25.1657 74.9686 24.9586 74.4117 24.5476C73.8549 24.1366 73.429 23.5384 73.134 22.7528C72.8391 21.9673 72.6916 21.0211 72.6916 19.9141C72.6916 18.8104 72.8391 17.8674 73.134 17.0852C73.4323 16.303 73.8599 15.7064 74.4167 15.2955C74.9769 14.8845 75.6464 14.679 76.4252 14.679C77.2041 14.679 77.872 14.8861 78.4288 15.3004C78.9856 15.7114 79.4115 16.308 79.7065 17.0902C80.0048 17.8691 80.1539 18.8104 80.1539 19.9141C80.1539 21.0244 80.0064 21.9723 79.7115 22.7578C79.4165 23.54 78.9906 24.1383 78.4338 24.5526C77.8769 24.9635 77.2074 25.169 76.4252 25.169ZM76.4252 23.8416C77.1146 23.8416 77.6532 23.5052 78.041 22.8324C78.4321 22.1596 78.6277 21.1868 78.6277 19.9141C78.6277 19.0689 78.5382 18.3546 78.3592 17.7713C78.1835 17.1847 77.93 16.7405 77.5985 16.4389C77.2704 16.134 76.8793 15.9815 76.4252 15.9815C75.7392 15.9815 75.2006 16.3196 74.8095 16.9957C74.4184 17.6719 74.2212 18.6446 74.2179 19.9141C74.2179 20.7625 74.3057 21.4801 74.4813 22.0668C74.6603 22.6501 74.9139 23.0926 75.242 23.3942C75.5701 23.6925 75.9645 23.8416 76.4252 23.8416Z" fill="black"/>
</svg>
