<svg width="342" height="40" viewBox="0 0 342 40" fill="none" xmlns="http://www.w3.org/2000/svg">
<rect width="341.333" height="40" transform="translate(0.333496)" fill="#BC58EE"/>
<path d="M13.4521 25V14.8182H17.0814C17.8735 14.8182 18.5298 14.9624 19.0501 15.2507C19.5705 15.5391 19.9599 15.9335 20.2184 16.4339C20.477 16.9311 20.6062 17.4912 20.6062 18.1143C20.6062 18.7408 20.4753 19.3042 20.2135 19.8047C19.9549 20.3018 19.5638 20.6963 19.0402 20.9879C18.5198 21.2763 17.8652 21.4205 17.0764 21.4205H14.5807V20.1179H16.9372C17.4377 20.1179 17.8437 20.0317 18.1552 19.8594C18.4668 19.6837 18.6955 19.4451 18.8413 19.1435C18.9871 18.8419 19.0601 18.4988 19.0601 18.1143C19.0601 17.7299 18.9871 17.3885 18.8413 17.0902C18.6955 16.7919 18.4651 16.5582 18.1503 16.3892C17.8387 16.2202 17.4277 16.1357 16.9173 16.1357H14.9883V25H13.4521ZM27.1252 21.8331V17.3636H28.6167V25H27.1551V23.6776H27.0755C26.8998 24.0852 26.6181 24.425 26.2303 24.6967C25.8459 24.9652 25.3669 25.0994 24.7935 25.0994C24.303 25.0994 23.8688 24.9917 23.491 24.7763C23.1165 24.5575 22.8215 24.2344 22.606 23.8068C22.3939 23.3793 22.2879 22.8506 22.2879 22.2209V17.3636H23.7744V22.0419C23.7744 22.5623 23.9185 22.9766 24.2069 23.2848C24.4953 23.593 24.8698 23.7472 25.3305 23.7472C25.6089 23.7472 25.8856 23.6776 26.1607 23.5384C26.4391 23.3991 26.6695 23.1887 26.8518 22.907C27.0374 22.6252 27.1285 22.2673 27.1252 21.8331ZM30.614 25V17.3636H32.0508V18.5767H32.1304C32.2696 18.1657 32.5148 17.8426 32.8662 17.6072C33.2208 17.3686 33.6218 17.2493 34.0693 17.2493C34.1621 17.2493 34.2715 17.2526 34.3974 17.2592C34.5267 17.2659 34.6278 17.2741 34.7007 17.2841V18.706C34.641 18.6894 34.535 18.6712 34.3825 18.6513C34.23 18.6281 34.0776 18.6165 33.9251 18.6165C33.5738 18.6165 33.2606 18.6911 32.9855 18.8402C32.7137 18.986 32.4983 19.1899 32.3392 19.4517C32.1801 19.7102 32.1005 20.0052 32.1005 20.3366V25H30.614ZM35.9871 27.8636V17.3636H37.4388V18.6016H37.5631C37.6493 18.4425 37.7735 18.2585 37.9359 18.0497C38.0984 17.8409 38.3237 17.6586 38.6121 17.5028C38.9004 17.3438 39.2816 17.2642 39.7555 17.2642C40.372 17.2642 40.9222 17.42 41.4061 17.7315C41.89 18.0431 42.2695 18.4922 42.5446 19.0788C42.823 19.6655 42.9622 20.3714 42.9622 21.1967C42.9622 22.022 42.8247 22.7296 42.5496 23.3196C42.2745 23.9062 41.8966 24.3587 41.4161 24.6768C40.9355 24.9917 40.3869 25.1491 39.7705 25.1491C39.3064 25.1491 38.927 25.0713 38.632 24.9155C38.3403 24.7597 38.1116 24.5774 37.9459 24.3686C37.7802 24.1598 37.6526 23.9742 37.5631 23.8118H37.4736V27.8636H35.9871ZM37.4438 21.1818C37.4438 21.7187 37.5216 22.1894 37.6774 22.5938C37.8332 22.9981 38.0586 23.3146 38.3536 23.5433C38.6485 23.7687 39.0098 23.8814 39.4374 23.8814C39.8815 23.8814 40.2527 23.7637 40.551 23.5284C40.8493 23.2898 41.0747 22.9666 41.2271 22.5589C41.3829 22.1513 41.4608 21.6922 41.4608 21.1818C41.4608 20.678 41.3846 20.2256 41.2321 19.8246C41.083 19.4235 40.8576 19.107 40.556 18.875C40.2577 18.643 39.8848 18.527 39.4374 18.527C39.0065 18.527 38.6419 18.638 38.3436 18.8601C38.0486 19.0821 37.8249 19.392 37.6725 19.7898C37.52 20.1875 37.4438 20.6515 37.4438 21.1818ZM46.1142 14.8182V25H44.6277V14.8182H46.1142ZM51.4052 25.1541C50.6529 25.1541 50.0049 24.9934 49.4613 24.6719C48.9211 24.3471 48.5035 23.8913 48.2085 23.3047C47.9168 22.7147 47.771 22.0237 47.771 21.2315C47.771 20.4493 47.9168 19.7599 48.2085 19.1634C48.5035 18.5668 48.9145 18.1011 49.4415 17.7663C49.9718 17.4316 50.5915 17.2642 51.3008 17.2642C51.7317 17.2642 52.1493 17.3355 52.5537 17.478C52.958 17.6205 53.3209 17.8442 53.6424 18.1491C53.9639 18.4541 54.2175 18.8501 54.4031 19.3374C54.5887 19.8213 54.6815 20.4096 54.6815 21.1023V21.6293H48.6112V20.5156H53.2248C53.2248 20.1245 53.1453 19.7782 52.9862 19.4766C52.8271 19.1716 52.6034 18.9313 52.315 18.7557C52.03 18.58 51.6952 18.4922 51.3108 18.4922C50.8932 18.4922 50.5286 18.5949 50.217 18.8004C49.9088 19.0026 49.6701 19.2678 49.5011 19.5959C49.3354 19.9207 49.2525 20.2737 49.2525 20.6548V21.5249C49.2525 22.0353 49.342 22.4695 49.521 22.8274C49.7033 23.1854 49.9568 23.4588 50.2816 23.6477C50.6065 23.8333 50.986 23.9261 51.4201 23.9261C51.7019 23.9261 51.9587 23.8864 52.1907 23.8068C52.4227 23.724 52.6233 23.6013 52.7923 23.4389C52.9613 23.2765 53.0906 23.076 53.1801 22.8374L54.587 23.0909C54.4744 23.5052 54.2722 23.8681 53.9805 24.1797C53.6922 24.4879 53.3292 24.7282 52.8917 24.9006C52.4575 25.0696 51.962 25.1541 51.4052 25.1541ZM59.6717 25.1392C59.0486 25.1392 58.4885 25.0199 57.9913 24.7812C57.4975 24.5393 57.1031 24.2079 56.8081 23.7869C56.5131 23.366 56.3557 22.8854 56.3358 22.3452H57.8273C57.8637 22.7827 58.0576 23.1423 58.409 23.424C58.7603 23.7057 59.1812 23.8466 59.6717 23.8466C60.0628 23.8466 60.4092 23.7571 60.7108 23.5781C61.0157 23.3958 61.2544 23.1456 61.4267 22.8274C61.6024 22.5092 61.6902 22.1463 61.6902 21.7386C61.6902 21.3243 61.6007 20.9548 61.4217 20.63C61.2428 20.3052 60.9958 20.05 60.681 19.8643C60.3694 19.6787 60.0115 19.5843 59.6071 19.581C59.2989 19.581 58.989 19.634 58.6774 19.7401C58.3659 19.8461 58.114 19.9853 57.9217 20.1577L56.5148 19.9489L57.0865 14.8182H62.6845V16.1357H58.3642L58.0411 18.9844H58.1007C58.2996 18.7921 58.5631 18.6314 58.8912 18.5021C59.2226 18.3729 59.5773 18.3082 59.9551 18.3082C60.5749 18.3082 61.1268 18.4557 61.6107 18.7507C62.0979 19.0457 62.4807 19.4484 62.7591 19.9588C63.0408 20.4659 63.18 21.0492 63.1767 21.7088C63.18 22.3684 63.0309 22.9567 62.7293 23.4737C62.431 23.9908 62.0167 24.3984 61.4864 24.6967C60.9594 24.9917 60.3545 25.1392 59.6717 25.1392ZM68.5373 25.169C67.7518 25.1657 67.0807 24.9586 66.5238 24.5476C65.967 24.1366 65.5411 23.5384 65.2461 22.7528C64.9512 21.9673 64.8037 21.0211 64.8037 19.9141C64.8037 18.8104 64.9512 17.8674 65.2461 17.0852C65.5444 16.303 65.972 15.7064 66.5288 15.2955C67.0889 14.8845 67.7584 14.679 68.5373 14.679C69.3162 14.679 69.9841 14.8861 70.5409 15.3004C71.0977 15.7114 71.5236 16.308 71.8186 17.0902C72.1169 17.8691 72.266 18.8104 72.266 19.9141C72.266 21.0244 72.1185 21.9723 71.8236 22.7578C71.5286 23.54 71.1027 24.1383 70.5459 24.5526C69.989 24.9635 69.3195 25.169 68.5373 25.169ZM68.5373 23.8416C69.2267 23.8416 69.7653 23.5052 70.1531 22.8324C70.5442 22.1596 70.7397 21.1868 70.7397 19.9141C70.7397 19.0689 70.6503 18.3546 70.4713 17.7713C70.2956 17.1847 70.0421 16.7405 69.7106 16.4389C69.3825 16.134 68.9914 15.9815 68.5373 15.9815C67.8513 15.9815 67.3127 16.3196 66.9216 16.9957C66.5305 17.6719 66.3333 18.6446 66.3299 19.9141C66.3299 20.7625 66.4178 21.4801 66.5934 22.0668C66.7724 22.6501 67.026 23.0926 67.3541 23.3942C67.6822 23.6925 68.0766 23.8416 68.5373 23.8416ZM77.5744 25.169C76.7889 25.1657 76.1178 24.9586 75.5609 24.5476C75.0041 24.1366 74.5782 23.5384 74.2832 22.7528C73.9883 21.9673 73.8408 21.0211 73.8408 19.9141C73.8408 18.8104 73.9883 17.8674 74.2832 17.0852C74.5815 16.303 75.0091 15.7064 75.5659 15.2955C76.1261 14.8845 76.7956 14.679 77.5744 14.679C78.3533 14.679 79.0212 14.8861 79.578 15.3004C80.1348 15.7114 80.5607 16.308 80.8557 17.0902C81.154 17.8691 81.3031 18.8104 81.3031 19.9141C81.3031 21.0244 81.1556 21.9723 80.8607 22.7578C80.5657 23.54 80.1398 24.1383 79.583 24.5526C79.0261 24.9635 78.3566 25.169 77.5744 25.169ZM77.5744 23.8416C78.2638 23.8416 78.8024 23.5052 79.1902 22.8324C79.5813 22.1596 79.7769 21.1868 79.7769 19.9141C79.7769 19.0689 79.6874 18.3546 79.5084 17.7713C79.3327 17.1847 79.0792 16.7405 78.7477 16.4389C78.4196 16.134 78.0285 15.9815 77.5744 15.9815C76.8884 15.9815 76.3498 16.3196 75.9587 16.9957C75.5676 17.6719 75.3704 18.6446 75.3671 19.9141C75.3671 20.7625 75.4549 21.4801 75.6305 22.0668C75.8095 22.6501 76.0631 23.0926 76.3912 23.3942C76.7193 23.6925 77.1137 23.8416 77.5744 23.8416Z" fill="white"/>
</svg>
