<svg width="342" height="40" viewBox="0 0 342 40" fill="none" xmlns="http://www.w3.org/2000/svg">
<rect width="341.333" height="40" transform="translate(0.333496)" fill="#812AAC"/>
<path d="M13.4521 25V14.8182H17.0814C17.8735 14.8182 18.5298 14.9624 19.0501 15.2507C19.5705 15.5391 19.9599 15.9335 20.2184 16.4339C20.477 16.9311 20.6062 17.4912 20.6062 18.1143C20.6062 18.7408 20.4753 19.3042 20.2135 19.8047C19.9549 20.3018 19.5638 20.6963 19.0402 20.9879C18.5198 21.2763 17.8652 21.4205 17.0764 21.4205H14.5807V20.1179H16.9372C17.4377 20.1179 17.8437 20.0317 18.1552 19.8594C18.4668 19.6837 18.6955 19.4451 18.8413 19.1435C18.9871 18.8419 19.0601 18.4988 19.0601 18.1143C19.0601 17.7299 18.9871 17.3885 18.8413 17.0902C18.6955 16.7919 18.4651 16.5582 18.1503 16.3892C17.8387 16.2202 17.4277 16.1357 16.9173 16.1357H14.9883V25H13.4521ZM27.1252 21.8331V17.3636H28.6167V25H27.1551V23.6776H27.0755C26.8998 24.0852 26.6181 24.425 26.2303 24.6967C25.8459 24.9652 25.3669 25.0994 24.7935 25.0994C24.303 25.0994 23.8688 24.9917 23.491 24.7763C23.1165 24.5575 22.8215 24.2344 22.606 23.8068C22.3939 23.3793 22.2879 22.8506 22.2879 22.2209V17.3636H23.7744V22.0419C23.7744 22.5623 23.9185 22.9766 24.2069 23.2848C24.4953 23.593 24.8698 23.7472 25.3305 23.7472C25.6089 23.7472 25.8856 23.6776 26.1607 23.5384C26.4391 23.3991 26.6695 23.1887 26.8518 22.907C27.0374 22.6252 27.1285 22.2673 27.1252 21.8331ZM30.614 25V17.3636H32.0508V18.5767H32.1304C32.2696 18.1657 32.5148 17.8426 32.8662 17.6072C33.2208 17.3686 33.6218 17.2493 34.0693 17.2493C34.1621 17.2493 34.2715 17.2526 34.3974 17.2592C34.5267 17.2659 34.6278 17.2741 34.7007 17.2841V18.706C34.641 18.6894 34.535 18.6712 34.3825 18.6513C34.23 18.6281 34.0776 18.6165 33.9251 18.6165C33.5738 18.6165 33.2606 18.6911 32.9855 18.8402C32.7137 18.986 32.4983 19.1899 32.3392 19.4517C32.1801 19.7102 32.1005 20.0052 32.1005 20.3366V25H30.614ZM35.9871 27.8636V17.3636H37.4388V18.6016H37.5631C37.6493 18.4425 37.7735 18.2585 37.9359 18.0497C38.0984 17.8409 38.3237 17.6586 38.6121 17.5028C38.9004 17.3438 39.2816 17.2642 39.7555 17.2642C40.372 17.2642 40.9222 17.42 41.4061 17.7315C41.89 18.0431 42.2695 18.4922 42.5446 19.0788C42.823 19.6655 42.9622 20.3714 42.9622 21.1967C42.9622 22.022 42.8247 22.7296 42.5496 23.3196C42.2745 23.9062 41.8966 24.3587 41.4161 24.6768C40.9355 24.9917 40.3869 25.1491 39.7705 25.1491C39.3064 25.1491 38.927 25.0713 38.632 24.9155C38.3403 24.7597 38.1116 24.5774 37.9459 24.3686C37.7802 24.1598 37.6526 23.9742 37.5631 23.8118H37.4736V27.8636H35.9871ZM37.4438 21.1818C37.4438 21.7187 37.5216 22.1894 37.6774 22.5938C37.8332 22.9981 38.0586 23.3146 38.3536 23.5433C38.6485 23.7687 39.0098 23.8814 39.4374 23.8814C39.8815 23.8814 40.2527 23.7637 40.551 23.5284C40.8493 23.2898 41.0747 22.9666 41.2271 22.5589C41.3829 22.1513 41.4608 21.6922 41.4608 21.1818C41.4608 20.678 41.3846 20.2256 41.2321 19.8246C41.083 19.4235 40.8576 19.107 40.556 18.875C40.2577 18.643 39.8848 18.527 39.4374 18.527C39.0065 18.527 38.6419 18.638 38.3436 18.8601C38.0486 19.0821 37.8249 19.392 37.6725 19.7898C37.52 20.1875 37.4438 20.6515 37.4438 21.1818ZM46.1142 14.8182V25H44.6277V14.8182H46.1142ZM51.4052 25.1541C50.6529 25.1541 50.0049 24.9934 49.4613 24.6719C48.9211 24.3471 48.5035 23.8913 48.2085 23.3047C47.9168 22.7147 47.771 22.0237 47.771 21.2315C47.771 20.4493 47.9168 19.7599 48.2085 19.1634C48.5035 18.5668 48.9145 18.1011 49.4415 17.7663C49.9718 17.4316 50.5915 17.2642 51.3008 17.2642C51.7317 17.2642 52.1493 17.3355 52.5537 17.478C52.958 17.6205 53.3209 17.8442 53.6424 18.1491C53.9639 18.4541 54.2175 18.8501 54.4031 19.3374C54.5887 19.8213 54.6815 20.4096 54.6815 21.1023V21.6293H48.6112V20.5156H53.2248C53.2248 20.1245 53.1453 19.7782 52.9862 19.4766C52.8271 19.1716 52.6034 18.9313 52.315 18.7557C52.03 18.58 51.6952 18.4922 51.3108 18.4922C50.8932 18.4922 50.5286 18.5949 50.217 18.8004C49.9088 19.0026 49.6701 19.2678 49.5011 19.5959C49.3354 19.9207 49.2525 20.2737 49.2525 20.6548V21.5249C49.2525 22.0353 49.342 22.4695 49.521 22.8274C49.7033 23.1854 49.9568 23.4588 50.2816 23.6477C50.6065 23.8333 50.986 23.9261 51.4201 23.9261C51.7019 23.9261 51.9587 23.8864 52.1907 23.8068C52.4227 23.724 52.6233 23.6013 52.7923 23.4389C52.9613 23.2765 53.0906 23.076 53.1801 22.8374L54.587 23.0909C54.4744 23.5052 54.2722 23.8681 53.9805 24.1797C53.6922 24.4879 53.3292 24.7282 52.8917 24.9006C52.4575 25.0696 51.962 25.1541 51.4052 25.1541ZM59.7513 25.1392C59.0387 25.1392 58.409 25.0166 57.8621 24.7713C57.3185 24.526 56.8926 24.188 56.5844 23.7571C56.2761 23.3262 56.1237 22.8357 56.127 22.2855C56.1237 21.8546 56.2115 21.4586 56.3905 21.0973C56.5728 20.7327 56.8197 20.4295 57.1313 20.1875C57.4428 19.9422 57.7908 19.7865 58.1753 19.7202V19.6605C57.6682 19.5379 57.2622 19.2661 56.9573 18.8452C56.6523 18.4242 56.5015 17.9403 56.5048 17.3935C56.5015 16.8731 56.6391 16.4091 56.9175 16.0014C57.1992 15.5904 57.5853 15.2673 58.0759 15.032C58.5664 14.7966 59.1249 14.679 59.7513 14.679C60.3711 14.679 60.9246 14.7983 61.4118 15.0369C61.9023 15.2723 62.2885 15.5954 62.5702 16.0064C62.8519 16.4141 62.9944 16.8764 62.9977 17.3935C62.9944 17.9403 62.8386 18.4242 62.5304 18.8452C62.2222 19.2661 61.8211 19.5379 61.3273 19.6605V19.7202C61.7084 19.7865 62.0515 19.9422 62.3564 20.1875C62.6646 20.4295 62.9099 20.7327 63.0922 21.0973C63.2778 21.4586 63.3723 21.8546 63.3756 22.2855C63.3723 22.8357 63.2165 23.3262 62.9082 23.7571C62.6 24.188 62.1725 24.526 61.6256 24.7713C61.082 25.0166 60.4573 25.1392 59.7513 25.1392ZM59.7513 23.8814C60.1722 23.8814 60.5368 23.8118 60.845 23.6726C61.1533 23.5301 61.3919 23.3329 61.5609 23.081C61.73 22.8258 61.8162 22.5275 61.8195 22.1861C61.8162 21.8314 61.7234 21.5182 61.5411 21.2464C61.3621 20.9747 61.1185 20.7609 60.8102 20.6051C60.502 20.4493 60.149 20.3714 59.7513 20.3714C59.3502 20.3714 58.9939 20.4493 58.6824 20.6051C58.3708 20.7609 58.1256 20.9747 57.9466 21.2464C57.7676 21.5182 57.6798 21.8314 57.6831 22.1861C57.6798 22.5275 57.761 22.8258 57.9267 23.081C58.0957 23.3329 58.336 23.5301 58.6476 23.6726C58.9591 23.8118 59.327 23.8814 59.7513 23.8814ZM59.7513 19.1435C60.0894 19.1435 60.3893 19.0755 60.6511 18.9396C60.913 18.8037 61.1185 18.6148 61.2676 18.3729C61.4201 18.1309 61.498 17.8475 61.5013 17.5227C61.498 17.2045 61.4217 16.9261 61.2726 16.6875C61.1268 16.4489 60.9229 16.2649 60.6611 16.1357C60.3993 16.0031 60.096 15.9368 59.7513 15.9368C59.4 15.9368 59.0917 16.0031 58.8266 16.1357C58.5647 16.2649 58.3609 16.4489 58.2151 16.6875C58.0692 16.9261 57.998 17.2045 58.0013 17.5227C57.998 17.8475 58.0709 18.1309 58.22 18.3729C58.3692 18.6148 58.5747 18.8037 58.8365 18.9396C59.1017 19.0755 59.4066 19.1435 59.7513 19.1435ZM68.7014 25.169C67.9159 25.1657 67.2447 24.9586 66.6879 24.5476C66.1311 24.1366 65.7052 23.5384 65.4102 22.7528C65.1152 21.9673 64.9677 21.0211 64.9677 19.9141C64.9677 18.8104 65.1152 17.8674 65.4102 17.0852C65.7085 16.303 66.1361 15.7064 66.6929 15.2955C67.253 14.8845 67.9225 14.679 68.7014 14.679C69.4803 14.679 70.1481 14.8861 70.7049 15.3004C71.2618 15.7114 71.6877 16.308 71.9826 17.0902C72.2809 17.8691 72.4301 18.8104 72.4301 19.9141C72.4301 21.0244 72.2826 21.9723 71.9876 22.7578C71.6926 23.54 71.2667 24.1383 70.7099 24.5526C70.1531 24.9635 69.4836 25.169 68.7014 25.169ZM68.7014 23.8416C69.3908 23.8416 69.9294 23.5052 70.3172 22.8324C70.7083 22.1596 70.9038 21.1868 70.9038 19.9141C70.9038 19.0689 70.8143 18.3546 70.6353 17.7713C70.4597 17.1847 70.2061 16.7405 69.8747 16.4389C69.5466 16.134 69.1555 15.9815 68.7014 15.9815C68.0153 15.9815 67.4767 16.3196 67.0856 16.9957C66.6945 17.6719 66.4973 18.6446 66.494 19.9141C66.494 20.7625 66.5818 21.4801 66.7575 22.0668C66.9365 22.6501 67.19 23.0926 67.5182 23.3942C67.8463 23.6925 68.2407 23.8416 68.7014 23.8416ZM77.7385 25.169C76.953 25.1657 76.2818 24.9586 75.725 24.5476C75.1682 24.1366 74.7423 23.5384 74.4473 22.7528C74.1523 21.9673 74.0048 21.0211 74.0048 19.9141C74.0048 18.8104 74.1523 17.8674 74.4473 17.0852C74.7456 16.303 75.1732 15.7064 75.73 15.2955C76.2901 14.8845 76.9596 14.679 77.7385 14.679C78.5174 14.679 79.1852 14.8861 79.7421 15.3004C80.2989 15.7114 80.7248 16.308 81.0198 17.0902C81.318 17.8691 81.4672 18.8104 81.4672 19.9141C81.4672 21.0244 81.3197 21.9723 81.0247 22.7578C80.7297 23.54 80.3038 24.1383 79.747 24.5526C79.1902 24.9635 78.5207 25.169 77.7385 25.169ZM77.7385 23.8416C78.4279 23.8416 78.9665 23.5052 79.3543 22.8324C79.7454 22.1596 79.9409 21.1868 79.9409 19.9141C79.9409 19.0689 79.8514 18.3546 79.6725 17.7713C79.4968 17.1847 79.2432 16.7405 78.9118 16.4389C78.5837 16.134 78.1926 15.9815 77.7385 15.9815C77.0524 15.9815 76.5138 16.3196 76.1227 16.9957C75.7316 17.6719 75.5344 18.6446 75.5311 19.9141C75.5311 20.7625 75.6189 21.4801 75.7946 22.0668C75.9736 22.6501 76.2271 23.0926 76.5553 23.3942C76.8834 23.6925 77.2778 23.8416 77.7385 23.8416Z" fill="white"/>
</svg>
