<svg width="342" height="40" viewBox="0 0 342 40" fill="none" xmlns="http://www.w3.org/2000/svg">
<rect width="341.333" height="40" transform="translate(0.333496)" fill="#D496F3"/>
<path d="M13.4521 25V14.8182H17.0814C17.8735 14.8182 18.5298 14.9624 19.0501 15.2507C19.5705 15.5391 19.9599 15.9335 20.2184 16.4339C20.477 16.9311 20.6062 17.4912 20.6062 18.1143C20.6062 18.7408 20.4753 19.3042 20.2135 19.8047C19.9549 20.3018 19.5638 20.6963 19.0402 20.9879C18.5198 21.2763 17.8652 21.4205 17.0764 21.4205H14.5807V20.1179H16.9372C17.4377 20.1179 17.8437 20.0317 18.1552 19.8594C18.4668 19.6837 18.6955 19.4451 18.8413 19.1435C18.9871 18.8419 19.0601 18.4988 19.0601 18.1143C19.0601 17.7299 18.9871 17.3885 18.8413 17.0902C18.6955 16.7919 18.4651 16.5582 18.1503 16.3892C17.8387 16.2202 17.4277 16.1357 16.9173 16.1357H14.9883V25H13.4521ZM27.1252 21.8331V17.3636H28.6167V25H27.1551V23.6776H27.0755C26.8998 24.0852 26.6181 24.425 26.2303 24.6967C25.8459 24.9652 25.3669 25.0994 24.7935 25.0994C24.303 25.0994 23.8688 24.9917 23.491 24.7763C23.1165 24.5575 22.8215 24.2344 22.606 23.8068C22.3939 23.3793 22.2879 22.8506 22.2879 22.2209V17.3636H23.7744V22.0419C23.7744 22.5623 23.9185 22.9766 24.2069 23.2848C24.4953 23.593 24.8698 23.7472 25.3305 23.7472C25.6089 23.7472 25.8856 23.6776 26.1607 23.5384C26.4391 23.3991 26.6695 23.1887 26.8518 22.907C27.0374 22.6252 27.1285 22.2673 27.1252 21.8331ZM30.614 25V17.3636H32.0508V18.5767H32.1304C32.2696 18.1657 32.5148 17.8426 32.8662 17.6072C33.2208 17.3686 33.6218 17.2493 34.0693 17.2493C34.1621 17.2493 34.2715 17.2526 34.3974 17.2592C34.5267 17.2659 34.6278 17.2741 34.7007 17.2841V18.706C34.641 18.6894 34.535 18.6712 34.3825 18.6513C34.23 18.6281 34.0776 18.6165 33.9251 18.6165C33.5738 18.6165 33.2606 18.6911 32.9855 18.8402C32.7137 18.986 32.4983 19.1899 32.3392 19.4517C32.1801 19.7102 32.1005 20.0052 32.1005 20.3366V25H30.614ZM35.9871 27.8636V17.3636H37.4388V18.6016H37.5631C37.6493 18.4425 37.7735 18.2585 37.9359 18.0497C38.0984 17.8409 38.3237 17.6586 38.6121 17.5028C38.9004 17.3438 39.2816 17.2642 39.7555 17.2642C40.372 17.2642 40.9222 17.42 41.4061 17.7315C41.89 18.0431 42.2695 18.4922 42.5446 19.0788C42.823 19.6655 42.9622 20.3714 42.9622 21.1967C42.9622 22.022 42.8247 22.7296 42.5496 23.3196C42.2745 23.9062 41.8966 24.3587 41.4161 24.6768C40.9355 24.9917 40.3869 25.1491 39.7705 25.1491C39.3064 25.1491 38.927 25.0713 38.632 24.9155C38.3403 24.7597 38.1116 24.5774 37.9459 24.3686C37.7802 24.1598 37.6526 23.9742 37.5631 23.8118H37.4736V27.8636H35.9871ZM37.4438 21.1818C37.4438 21.7187 37.5216 22.1894 37.6774 22.5938C37.8332 22.9981 38.0586 23.3146 38.3536 23.5433C38.6485 23.7687 39.0098 23.8814 39.4374 23.8814C39.8815 23.8814 40.2527 23.7637 40.551 23.5284C40.8493 23.2898 41.0747 22.9666 41.2271 22.5589C41.3829 22.1513 41.4608 21.6922 41.4608 21.1818C41.4608 20.678 41.3846 20.2256 41.2321 19.8246C41.083 19.4235 40.8576 19.107 40.556 18.875C40.2577 18.643 39.8848 18.527 39.4374 18.527C39.0065 18.527 38.6419 18.638 38.3436 18.8601C38.0486 19.0821 37.8249 19.392 37.6725 19.7898C37.52 20.1875 37.4438 20.6515 37.4438 21.1818ZM46.1142 14.8182V25H44.6277V14.8182H46.1142ZM51.4052 25.1541C50.6529 25.1541 50.0049 24.9934 49.4613 24.6719C48.9211 24.3471 48.5035 23.8913 48.2085 23.3047C47.9168 22.7147 47.771 22.0237 47.771 21.2315C47.771 20.4493 47.9168 19.7599 48.2085 19.1634C48.5035 18.5668 48.9145 18.1011 49.4415 17.7663C49.9718 17.4316 50.5915 17.2642 51.3008 17.2642C51.7317 17.2642 52.1493 17.3355 52.5537 17.478C52.958 17.6205 53.3209 17.8442 53.6424 18.1491C53.9639 18.4541 54.2175 18.8501 54.4031 19.3374C54.5887 19.8213 54.6815 20.4096 54.6815 21.1023V21.6293H48.6112V20.5156H53.2248C53.2248 20.1245 53.1453 19.7782 52.9862 19.4766C52.8271 19.1716 52.6034 18.9313 52.315 18.7557C52.03 18.58 51.6952 18.4922 51.3108 18.4922C50.8932 18.4922 50.5286 18.5949 50.217 18.8004C49.9088 19.0026 49.6701 19.2678 49.5011 19.5959C49.3354 19.9207 49.2525 20.2737 49.2525 20.6548V21.5249C49.2525 22.0353 49.342 22.4695 49.521 22.8274C49.7033 23.1854 49.9568 23.4588 50.2816 23.6477C50.6065 23.8333 50.986 23.9261 51.4201 23.9261C51.7019 23.9261 51.9587 23.8864 52.1907 23.8068C52.4227 23.724 52.6233 23.6013 52.7923 23.4389C52.9613 23.2765 53.0906 23.076 53.1801 22.8374L54.587 23.0909C54.4744 23.5052 54.2722 23.8681 53.9805 24.1797C53.6922 24.4879 53.3292 24.7282 52.8917 24.9006C52.4575 25.0696 51.962 25.1541 51.4052 25.1541ZM59.8557 25.1392C59.1729 25.1392 58.5631 25.0215 58.0261 24.7862C57.4925 24.5509 57.0699 24.2244 56.7584 23.8068C56.4502 23.3859 56.2844 22.8987 56.2612 22.3452H57.8223C57.8422 22.6468 57.9433 22.9086 58.1256 23.1307C58.3112 23.3494 58.5531 23.5185 58.8514 23.6378C59.1497 23.7571 59.4812 23.8168 59.8457 23.8168C60.2468 23.8168 60.6014 23.7472 60.9097 23.608C61.2212 23.4687 61.4648 23.2749 61.6405 23.0263C61.8162 22.7744 61.904 22.4844 61.904 22.1562C61.904 21.8149 61.8162 21.5149 61.6405 21.2564C61.4681 20.9946 61.2146 20.7891 60.8798 20.6399C60.5484 20.4908 60.1474 20.4162 59.6767 20.4162H58.8166V19.1634H59.6767C60.0546 19.1634 60.386 19.0954 60.671 18.9595C60.9594 18.8236 61.1848 18.6347 61.3472 18.3928C61.5096 18.1475 61.5908 17.8608 61.5908 17.5327C61.5908 17.2178 61.5195 16.9444 61.377 16.7124C61.2378 16.477 61.0389 16.2931 60.7804 16.1605C60.5252 16.0279 60.2236 15.9616 59.8756 15.9616C59.5441 15.9616 59.2342 16.023 58.9459 16.1456C58.6609 16.2649 58.4288 16.4373 58.2499 16.6626C58.0709 16.8847 57.9748 17.1515 57.9615 17.4631H56.475C56.4916 16.9129 56.654 16.429 56.9622 16.0114C57.2738 15.5937 57.6848 15.2673 58.1952 15.032C58.7056 14.7966 59.2724 14.679 59.8955 14.679C60.5484 14.679 61.1118 14.8066 61.5858 15.0618C62.0631 15.3137 62.431 15.6501 62.6895 16.071C62.9513 16.492 63.0806 16.9527 63.0773 17.4531C63.0806 18.0232 62.9215 18.5071 62.6 18.9048C62.2818 19.3026 61.8576 19.5694 61.3273 19.7053V19.7848C62.0034 19.8875 62.5271 20.156 62.8983 20.5902C63.2728 21.0244 63.4584 21.563 63.4551 22.206C63.4584 22.7661 63.3027 23.2682 62.9878 23.7124C62.6762 24.1565 62.2503 24.5062 61.7101 24.7614C61.1698 25.0133 60.5517 25.1392 59.8557 25.1392ZM68.8791 25.169C68.0936 25.1657 67.4225 24.9586 66.8656 24.5476C66.3088 24.1366 65.8829 23.5384 65.5879 22.7528C65.293 21.9673 65.1455 21.0211 65.1455 19.9141C65.1455 18.8104 65.293 17.8674 65.5879 17.0852C65.8862 16.303 66.3138 15.7064 66.8706 15.2955C67.4307 14.8845 68.1002 14.679 68.8791 14.679C69.658 14.679 70.3259 14.8861 70.8827 15.3004C71.4395 15.7114 71.8654 16.308 72.1604 17.0902C72.4587 17.8691 72.6078 18.8104 72.6078 19.9141C72.6078 21.0244 72.4603 21.9723 72.1654 22.7578C71.8704 23.54 71.4445 24.1383 70.8877 24.5526C70.3308 24.9635 69.6613 25.169 68.8791 25.169ZM68.8791 23.8416C69.5685 23.8416 70.1071 23.5052 70.4949 22.8324C70.886 22.1596 71.0815 21.1868 71.0815 19.9141C71.0815 19.0689 70.9921 18.3546 70.8131 17.7713C70.6374 17.1847 70.3839 16.7405 70.0524 16.4389C69.7243 16.134 69.3332 15.9815 68.8791 15.9815C68.193 15.9815 67.6545 16.3196 67.2634 16.9957C66.8723 17.6719 66.6751 18.6446 66.6717 19.9141C66.6717 20.7625 66.7596 21.4801 66.9352 22.0668C67.1142 22.6501 67.3678 23.0926 67.6959 23.3942C68.024 23.6925 68.4184 23.8416 68.8791 23.8416ZM77.9162 25.169C77.1307 25.1657 76.4596 24.9586 75.9027 24.5476C75.3459 24.1366 74.92 23.5384 74.625 22.7528C74.3301 21.9673 74.1826 21.0211 74.1826 19.9141C74.1826 18.8104 74.3301 17.8674 74.625 17.0852C74.9233 16.303 75.3509 15.7064 75.9077 15.2955C76.4678 14.8845 77.1374 14.679 77.9162 14.679C78.6951 14.679 79.363 14.8861 79.9198 15.3004C80.4766 15.7114 80.9025 16.308 81.1975 17.0902C81.4958 17.8691 81.6449 18.8104 81.6449 19.9141C81.6449 21.0244 81.4974 21.9723 81.2025 22.7578C80.9075 23.54 80.4816 24.1383 79.9248 24.5526C79.3679 24.9635 78.6984 25.169 77.9162 25.169ZM77.9162 23.8416C78.6056 23.8416 79.1442 23.5052 79.532 22.8324C79.9231 22.1596 80.1187 21.1868 80.1187 19.9141C80.1187 19.0689 80.0292 18.3546 79.8502 17.7713C79.6745 17.1847 79.421 16.7405 79.0895 16.4389C78.7614 16.134 78.3703 15.9815 77.9162 15.9815C77.2302 15.9815 76.6916 16.3196 76.3005 16.9957C75.9094 17.6719 75.7122 18.6446 75.7089 19.9141C75.7089 20.7625 75.7967 21.4801 75.9723 22.0668C76.1513 22.6501 76.4049 23.0926 76.733 23.3942C77.0611 23.6925 77.4555 23.8416 77.9162 23.8416Z" fill="#0A0A0B"/>
</svg>
