<svg width="240" height="40" viewBox="0 0 240 40" fill="none" xmlns="http://www.w3.org/2000/svg">
<rect width="240" height="40" fill="#B09FF9"/>
<path d="M13.1186 25V14.8182H16.7479C17.54 14.8182 18.1963 14.9624 18.7166 15.2507C19.237 15.5391 19.6264 15.9335 19.8849 16.4339C20.1435 16.9311 20.2727 17.4912 20.2727 18.1143C20.2727 18.7408 20.1418 19.3042 19.88 19.8047C19.6214 20.3018 19.2304 20.6963 18.7067 20.9879C18.1863 21.2763 17.5317 21.4205 16.7429 21.4205H14.2472V20.1179H16.6037C17.1042 20.1179 17.5102 20.0317 17.8217 19.8594C18.1333 19.6837 18.362 19.4451 18.5078 19.1435C18.6536 18.8419 18.7266 18.4988 18.7266 18.1143C18.7266 17.7299 18.6536 17.3885 18.5078 17.0902C18.362 16.7919 18.1316 16.5582 17.8168 16.3892C17.5052 16.2202 17.0942 16.1357 16.5838 16.1357H14.6548V25H13.1186ZM26.7017 21.8331V17.3636H28.1932V25H26.7316V23.6776H26.652C26.4763 24.0852 26.1946 24.425 25.8068 24.6967C25.4224 24.9652 24.9434 25.0994 24.37 25.0994C23.8795 25.0994 23.4453 24.9917 23.0675 24.7763C22.693 24.5575 22.398 24.2344 22.1825 23.8068C21.9704 23.3793 21.8644 22.8506 21.8644 22.2209V17.3636H23.3509V22.0419C23.3509 22.5623 23.495 22.9766 23.7834 23.2848C24.0718 23.593 24.4463 23.7472 24.907 23.7472C25.1854 23.7472 25.4621 23.6776 25.7372 23.5384C26.0156 23.3991 26.246 23.1887 26.4283 22.907C26.6139 22.6252 26.705 22.2673 26.7017 21.8331ZM30.1005 25V17.3636H31.5373V18.5767H31.6169C31.7561 18.1657 32.0013 17.8426 32.3527 17.6072C32.7073 17.3686 33.1084 17.2493 33.5558 17.2493C33.6486 17.2493 33.758 17.2526 33.8839 17.2592C34.0132 17.2659 34.1143 17.2741 34.1872 17.2841V18.706C34.1275 18.6894 34.0215 18.6712 33.869 18.6513C33.7165 18.6281 33.5641 18.6165 33.4116 18.6165C33.0603 18.6165 32.7471 18.6911 32.472 18.8402C32.2002 18.986 31.9848 19.1899 31.8257 19.4517C31.6666 19.7102 31.587 20.0052 31.587 20.3366V25H30.1005ZM35.3836 27.8636V17.3636H36.8353V18.6016H36.9596C37.0458 18.4425 37.17 18.2585 37.3324 18.0497C37.4949 17.8409 37.7202 17.6586 38.0086 17.5028C38.2969 17.3438 38.6781 17.2642 39.1521 17.2642C39.7685 17.2642 40.3187 17.42 40.8026 17.7315C41.2865 18.0431 41.666 18.4922 41.9411 19.0788C42.2195 19.6655 42.3587 20.3714 42.3587 21.1967C42.3587 22.022 42.2212 22.7296 41.9461 23.3196C41.671 23.9062 41.2932 24.3587 40.8126 24.6768C40.332 24.9917 39.7834 25.1491 39.167 25.1491C38.703 25.1491 38.3235 25.0713 38.0285 24.9155C37.7368 24.7597 37.5081 24.5774 37.3424 24.3686C37.1767 24.1598 37.0491 23.9742 36.9596 23.8118H36.8701V27.8636H35.3836ZM36.8403 21.1818C36.8403 21.7187 36.9182 22.1894 37.0739 22.5938C37.2297 22.9981 37.4551 23.3146 37.7501 23.5433C38.045 23.7687 38.4063 23.8814 38.8339 23.8814C39.278 23.8814 39.6492 23.7637 39.9475 23.5284C40.2458 23.2898 40.4712 22.9666 40.6236 22.5589C40.7794 22.1513 40.8573 21.6922 40.8573 21.1818C40.8573 20.678 40.7811 20.2256 40.6286 19.8246C40.4795 19.4235 40.2541 19.107 39.9525 18.875C39.6542 18.643 39.2813 18.527 38.8339 18.527C38.403 18.527 38.0384 18.638 37.7401 18.8601C37.4451 19.0821 37.2214 19.392 37.069 19.7898C36.9165 20.1875 36.8403 20.6515 36.8403 21.1818ZM45.4207 14.8182V25H43.9342V14.8182H45.4207ZM50.6217 25.1541C49.8694 25.1541 49.2214 24.9934 48.6778 24.6719C48.1376 24.3471 47.72 23.8913 47.425 23.3047C47.1333 22.7147 46.9875 22.0237 46.9875 21.2315C46.9875 20.4493 47.1333 19.7599 47.425 19.1634C47.72 18.5668 48.131 18.1011 48.658 17.7663C49.1883 17.4316 49.808 17.2642 50.5173 17.2642C50.9482 17.2642 51.3658 17.3355 51.7702 17.478C52.1745 17.6205 52.5375 17.8442 52.8589 18.1491C53.1804 18.4541 53.434 18.8501 53.6196 19.3374C53.8052 19.8213 53.898 20.4096 53.898 21.1023V21.6293H47.8277V20.5156H52.4413C52.4413 20.1245 52.3618 19.7782 52.2027 19.4766C52.0436 19.1716 51.8199 18.9313 51.5315 18.7557C51.2465 18.58 50.9117 18.4922 50.5273 18.4922C50.1097 18.4922 49.7451 18.5949 49.4335 18.8004C49.1253 19.0026 48.8866 19.2678 48.7176 19.5959C48.5519 19.9207 48.469 20.2737 48.469 20.6548V21.5249C48.469 22.0353 48.5585 22.4695 48.7375 22.8274C48.9198 23.1854 49.1733 23.4588 49.4982 23.6477C49.823 23.8333 50.2025 23.9261 50.6366 23.9261C50.9184 23.9261 51.1752 23.8864 51.4072 23.8068C51.6393 23.724 51.8398 23.6013 52.0088 23.4389C52.1778 23.2765 52.3071 23.076 52.3966 22.8374L53.8036 23.0909C53.6909 23.5052 53.4887 23.8681 53.197 24.1797C52.9087 24.4879 52.5457 24.7282 52.1082 24.9006C51.6741 25.0696 51.1786 25.1541 50.6217 25.1541ZM55.2237 23.0114V21.7685L59.6235 14.8182H60.6029V16.6477H59.9815L56.8345 21.6293V21.7088H62.865V23.0114H55.2237ZM60.0511 25V22.6335L60.061 22.0668V14.8182H61.5177V25H60.0511ZM68.0523 25.169C67.2668 25.1657 66.5957 24.9586 66.0389 24.5476C65.482 24.1366 65.0561 23.5384 64.7612 22.7528C64.4662 21.9673 64.3187 21.0211 64.3187 19.9141C64.3187 18.8104 64.4662 17.8674 64.7612 17.0852C65.0595 16.303 65.487 15.7064 66.0438 15.2955C66.604 14.8845 67.2735 14.679 68.0523 14.679C68.8312 14.679 69.4991 14.8861 70.0559 15.3004C70.6127 15.7114 71.0386 16.308 71.3336 17.0902C71.6319 17.8691 71.781 18.8104 71.781 19.9141C71.781 21.0244 71.6336 21.9723 71.3386 22.7578C71.0436 23.54 70.6177 24.1383 70.0609 24.5526C69.5041 24.9635 68.8345 25.169 68.0523 25.169ZM68.0523 23.8416C68.7417 23.8416 69.2803 23.5052 69.6681 22.8324C70.0592 22.1596 70.2548 21.1868 70.2548 19.9141C70.2548 19.0689 70.1653 18.3546 69.9863 17.7713C69.8106 17.1847 69.5571 16.7405 69.2256 16.4389C68.8975 16.134 68.5064 15.9815 68.0523 15.9815C67.3663 15.9815 66.8277 16.3196 66.4366 16.9957C66.0455 17.6719 65.8483 18.6446 65.845 19.9141C65.845 20.7625 65.9328 21.4801 66.1085 22.0668C66.2874 22.6501 66.541 23.0926 66.8691 23.3942C67.1972 23.6925 67.5916 23.8416 68.0523 23.8416ZM76.9995 25.169C76.2139 25.1657 75.5428 24.9586 74.986 24.5476C74.4291 24.1366 74.0032 23.5384 73.7083 22.7528C73.4133 21.9673 73.2658 21.0211 73.2658 19.9141C73.2658 18.8104 73.4133 17.8674 73.7083 17.0852C74.0066 16.303 74.4341 15.7064 74.9909 15.2955C75.5511 14.8845 76.2206 14.679 76.9995 14.679C77.7783 14.679 78.4462 14.8861 79.003 15.3004C79.5598 15.7114 79.9857 16.308 80.2807 17.0902C80.579 17.8691 80.7282 18.8104 80.7282 19.9141C80.7282 21.0244 80.5807 21.9723 80.2857 22.7578C79.9907 23.54 79.5648 24.1383 79.008 24.5526C78.4512 24.9635 77.7817 25.169 76.9995 25.169ZM76.9995 23.8416C77.6889 23.8416 78.2274 23.5052 78.6152 22.8324C79.0063 22.1596 79.2019 21.1868 79.2019 19.9141C79.2019 19.0689 79.1124 18.3546 78.9334 17.7713C78.7577 17.1847 78.5042 16.7405 78.1728 16.4389C77.8446 16.134 77.4535 15.9815 76.9995 15.9815C76.3134 15.9815 75.7748 16.3196 75.3837 16.9957C74.9926 17.6719 74.7954 18.6446 74.7921 19.9141C74.7921 20.7625 74.8799 21.4801 75.0556 22.0668C75.2345 22.6501 75.4881 23.0926 75.8162 23.3942C76.1443 23.6925 76.5388 23.8416 76.9995 23.8416Z" fill="black"/>
</svg>
