<svg width="342" height="40" viewBox="0 0 342 40" fill="none" xmlns="http://www.w3.org/2000/svg">
<rect width="341.333" height="40" transform="translate(0.333496)" fill="#E8C9F8"/>
<path d="M13.4521 25V14.8182H17.0814C17.8735 14.8182 18.5298 14.9624 19.0501 15.2507C19.5705 15.5391 19.9599 15.9335 20.2184 16.4339C20.477 16.9311 20.6062 17.4912 20.6062 18.1143C20.6062 18.7408 20.4753 19.3042 20.2135 19.8047C19.9549 20.3018 19.5638 20.6963 19.0402 20.9879C18.5198 21.2763 17.8652 21.4205 17.0764 21.4205H14.5807V20.1179H16.9372C17.4377 20.1179 17.8437 20.0317 18.1552 19.8594C18.4668 19.6837 18.6955 19.4451 18.8413 19.1435C18.9871 18.8419 19.0601 18.4988 19.0601 18.1143C19.0601 17.7299 18.9871 17.3885 18.8413 17.0902C18.6955 16.7919 18.4651 16.5582 18.1503 16.3892C17.8387 16.2202 17.4277 16.1357 16.9173 16.1357H14.9883V25H13.4521ZM27.1252 21.8331V17.3636H28.6167V25H27.1551V23.6776H27.0755C26.8998 24.0852 26.6181 24.425 26.2303 24.6967C25.8459 24.9652 25.3669 25.0994 24.7935 25.0994C24.303 25.0994 23.8688 24.9917 23.491 24.7763C23.1165 24.5575 22.8215 24.2344 22.606 23.8068C22.3939 23.3793 22.2879 22.8506 22.2879 22.2209V17.3636H23.7744V22.0419C23.7744 22.5623 23.9185 22.9766 24.2069 23.2848C24.4953 23.593 24.8698 23.7472 25.3305 23.7472C25.6089 23.7472 25.8856 23.6776 26.1607 23.5384C26.4391 23.3991 26.6695 23.1887 26.8518 22.907C27.0374 22.6252 27.1285 22.2673 27.1252 21.8331ZM30.614 25V17.3636H32.0508V18.5767H32.1304C32.2696 18.1657 32.5148 17.8426 32.8662 17.6072C33.2208 17.3686 33.6218 17.2493 34.0693 17.2493C34.1621 17.2493 34.2715 17.2526 34.3974 17.2592C34.5267 17.2659 34.6278 17.2741 34.7007 17.2841V18.706C34.641 18.6894 34.535 18.6712 34.3825 18.6513C34.23 18.6281 34.0776 18.6165 33.9251 18.6165C33.5738 18.6165 33.2606 18.6911 32.9855 18.8402C32.7137 18.986 32.4983 19.1899 32.3392 19.4517C32.1801 19.7102 32.1005 20.0052 32.1005 20.3366V25H30.614ZM35.9871 27.8636V17.3636H37.4388V18.6016H37.5631C37.6493 18.4425 37.7735 18.2585 37.9359 18.0497C38.0984 17.8409 38.3237 17.6586 38.6121 17.5028C38.9004 17.3438 39.2816 17.2642 39.7555 17.2642C40.372 17.2642 40.9222 17.42 41.4061 17.7315C41.89 18.0431 42.2695 18.4922 42.5446 19.0788C42.823 19.6655 42.9622 20.3714 42.9622 21.1967C42.9622 22.022 42.8247 22.7296 42.5496 23.3196C42.2745 23.9062 41.8966 24.3587 41.4161 24.6768C40.9355 24.9917 40.3869 25.1491 39.7705 25.1491C39.3064 25.1491 38.927 25.0713 38.632 24.9155C38.3403 24.7597 38.1116 24.5774 37.9459 24.3686C37.7802 24.1598 37.6526 23.9742 37.5631 23.8118H37.4736V27.8636H35.9871ZM37.4438 21.1818C37.4438 21.7187 37.5216 22.1894 37.6774 22.5938C37.8332 22.9981 38.0586 23.3146 38.3536 23.5433C38.6485 23.7687 39.0098 23.8814 39.4374 23.8814C39.8815 23.8814 40.2527 23.7637 40.551 23.5284C40.8493 23.2898 41.0747 22.9666 41.2271 22.5589C41.3829 22.1513 41.4608 21.6922 41.4608 21.1818C41.4608 20.678 41.3846 20.2256 41.2321 19.8246C41.083 19.4235 40.8576 19.107 40.556 18.875C40.2577 18.643 39.8848 18.527 39.4374 18.527C39.0065 18.527 38.6419 18.638 38.3436 18.8601C38.0486 19.0821 37.8249 19.392 37.6725 19.7898C37.52 20.1875 37.4438 20.6515 37.4438 21.1818ZM46.1142 14.8182V25H44.6277V14.8182H46.1142ZM51.4052 25.1541C50.6529 25.1541 50.0049 24.9934 49.4613 24.6719C48.9211 24.3471 48.5035 23.8913 48.2085 23.3047C47.9168 22.7147 47.771 22.0237 47.771 21.2315C47.771 20.4493 47.9168 19.7599 48.2085 19.1634C48.5035 18.5668 48.9145 18.1011 49.4415 17.7663C49.9718 17.4316 50.5915 17.2642 51.3008 17.2642C51.7317 17.2642 52.1493 17.3355 52.5537 17.478C52.958 17.6205 53.3209 17.8442 53.6424 18.1491C53.9639 18.4541 54.2175 18.8501 54.4031 19.3374C54.5887 19.8213 54.6815 20.4096 54.6815 21.1023V21.6293H48.6112V20.5156H53.2248C53.2248 20.1245 53.1453 19.7782 52.9862 19.4766C52.8271 19.1716 52.6034 18.9313 52.315 18.7557C52.03 18.58 51.6952 18.4922 51.3108 18.4922C50.8932 18.4922 50.5286 18.5949 50.217 18.8004C49.9088 19.0026 49.6701 19.2678 49.5011 19.5959C49.3354 19.9207 49.2525 20.2737 49.2525 20.6548V21.5249C49.2525 22.0353 49.342 22.4695 49.521 22.8274C49.7033 23.1854 49.9568 23.4588 50.2816 23.6477C50.6065 23.8333 50.986 23.9261 51.4201 23.9261C51.7019 23.9261 51.9587 23.8864 52.1907 23.8068C52.4227 23.724 52.6233 23.6013 52.7923 23.4389C52.9613 23.2765 53.0906 23.076 53.1801 22.8374L54.587 23.0909C54.4744 23.5052 54.2722 23.8681 53.9805 24.1797C53.6922 24.4879 53.3292 24.7282 52.8917 24.9006C52.4575 25.0696 51.962 25.1541 51.4052 25.1541ZM56.3109 25V23.8864L59.7563 20.3168C60.1242 19.929 60.4274 19.5893 60.6661 19.2976C60.908 19.0026 61.0886 18.7225 61.208 18.4574C61.3273 18.1922 61.3869 17.9105 61.3869 17.6122C61.3869 17.2741 61.3074 16.9825 61.1483 16.7372C60.9892 16.4886 60.7721 16.2981 60.497 16.1655C60.2219 16.0296 59.912 15.9616 59.5673 15.9616C59.2028 15.9616 58.8846 16.0362 58.6128 16.1854C58.341 16.3345 58.1322 16.545 57.9864 16.8168C57.8405 17.0885 57.7676 17.4067 57.7676 17.7713H56.301C56.301 17.1515 56.4435 16.6096 56.7286 16.1456C57.0136 15.6816 57.4047 15.322 57.9019 15.0668C58.399 14.8082 58.9641 14.679 59.5972 14.679C60.2368 14.679 60.8003 14.8066 61.2875 15.0618C61.778 15.3137 62.1609 15.6584 62.4359 16.0959C62.711 16.5301 62.8486 17.0206 62.8486 17.5675C62.8486 17.9453 62.7773 18.3149 62.6348 18.6761C62.4956 19.0374 62.252 19.4401 61.904 19.8842C61.556 20.325 61.0721 20.8603 60.4523 21.4901L58.4288 23.608V23.6825H63.0127V25H56.3109ZM68.4416 25.169C67.6561 25.1657 66.985 24.9586 66.4281 24.5476C65.8713 24.1366 65.4454 23.5384 65.1504 22.7528C64.8555 21.9673 64.708 21.0211 64.708 19.9141C64.708 18.8104 64.8555 17.8674 65.1504 17.0852C65.4487 16.303 65.8763 15.7064 66.4331 15.2955C66.9932 14.8845 67.6627 14.679 68.4416 14.679C69.2205 14.679 69.8884 14.8861 70.4452 15.3004C71.002 15.7114 71.4279 16.308 71.7229 17.0902C72.0212 17.8691 72.1703 18.8104 72.1703 19.9141C72.1703 21.0244 72.0228 21.9723 71.7279 22.7578C71.4329 23.54 71.007 24.1383 70.4502 24.5526C69.8933 24.9635 69.2238 25.169 68.4416 25.169ZM68.4416 23.8416C69.131 23.8416 69.6696 23.5052 70.0574 22.8324C70.4485 22.1596 70.644 21.1868 70.644 19.9141C70.644 19.0689 70.5546 18.3546 70.3756 17.7713C70.1999 17.1847 69.9464 16.7405 69.6149 16.4389C69.2868 16.134 68.8957 15.9815 68.4416 15.9815C67.7555 15.9815 67.217 16.3196 66.8259 16.9957C66.4348 17.6719 66.2376 18.6446 66.2342 19.9141C66.2342 20.7625 66.3221 21.4801 66.4977 22.0668C66.6767 22.6501 66.9303 23.0926 67.2584 23.3942C67.5865 23.6925 67.9809 23.8416 68.4416 23.8416ZM77.4787 25.169C76.6932 25.1657 76.0221 24.9586 75.4652 24.5476C74.9084 24.1366 74.4825 23.5384 74.1875 22.7528C73.8926 21.9673 73.7451 21.0211 73.7451 19.9141C73.7451 18.8104 73.8926 17.8674 74.1875 17.0852C74.4858 16.303 74.9134 15.7064 75.4702 15.2955C76.0303 14.8845 76.6999 14.679 77.4787 14.679C78.2576 14.679 78.9255 14.8861 79.4823 15.3004C80.0391 15.7114 80.465 16.308 80.76 17.0902C81.0583 17.8691 81.2074 18.8104 81.2074 19.9141C81.2074 21.0244 81.0599 21.9723 80.765 22.7578C80.47 23.54 80.0441 24.1383 79.4873 24.5526C78.9304 24.9635 78.2609 25.169 77.4787 25.169ZM77.4787 23.8416C78.1681 23.8416 78.7067 23.5052 79.0945 22.8324C79.4856 22.1596 79.6812 21.1868 79.6812 19.9141C79.6812 19.0689 79.5917 18.3546 79.4127 17.7713C79.237 17.1847 78.9835 16.7405 78.652 16.4389C78.3239 16.134 77.9328 15.9815 77.4787 15.9815C76.7927 15.9815 76.2541 16.3196 75.863 16.9957C75.4719 17.6719 75.2747 18.6446 75.2714 19.9141C75.2714 20.7625 75.3592 21.4801 75.5348 22.0668C75.7138 22.6501 75.9674 23.0926 76.2955 23.3942C76.6236 23.6925 77.018 23.8416 77.4787 23.8416Z" fill="#0A0A0B"/>
</svg>
