<svg width="342" height="40" viewBox="0 0 342 40" fill="none" xmlns="http://www.w3.org/2000/svg">
<rect width="341.333" height="40" transform="translate(0.333496)" fill="#C570F0"/>
<path d="M13.4521 25V14.8182H17.0814C17.8735 14.8182 18.5298 14.9624 19.0501 15.2507C19.5705 15.5391 19.9599 15.9335 20.2184 16.4339C20.477 16.9311 20.6062 17.4912 20.6062 18.1143C20.6062 18.7408 20.4753 19.3042 20.2135 19.8047C19.9549 20.3018 19.5638 20.6963 19.0402 20.9879C18.5198 21.2763 17.8652 21.4205 17.0764 21.4205H14.5807V20.1179H16.9372C17.4377 20.1179 17.8437 20.0317 18.1552 19.8594C18.4668 19.6837 18.6955 19.4451 18.8413 19.1435C18.9871 18.8419 19.0601 18.4988 19.0601 18.1143C19.0601 17.7299 18.9871 17.3885 18.8413 17.0902C18.6955 16.7919 18.4651 16.5582 18.1503 16.3892C17.8387 16.2202 17.4277 16.1357 16.9173 16.1357H14.9883V25H13.4521ZM27.1252 21.8331V17.3636H28.6167V25H27.1551V23.6776H27.0755C26.8998 24.0852 26.6181 24.425 26.2303 24.6967C25.8459 24.9652 25.3669 25.0994 24.7935 25.0994C24.303 25.0994 23.8688 24.9917 23.491 24.7763C23.1165 24.5575 22.8215 24.2344 22.606 23.8068C22.3939 23.3793 22.2879 22.8506 22.2879 22.2209V17.3636H23.7744V22.0419C23.7744 22.5623 23.9185 22.9766 24.2069 23.2848C24.4953 23.593 24.8698 23.7472 25.3305 23.7472C25.6089 23.7472 25.8856 23.6776 26.1607 23.5384C26.4391 23.3991 26.6695 23.1887 26.8518 22.907C27.0374 22.6252 27.1285 22.2673 27.1252 21.8331ZM30.614 25V17.3636H32.0508V18.5767H32.1304C32.2696 18.1657 32.5148 17.8426 32.8662 17.6072C33.2208 17.3686 33.6218 17.2493 34.0693 17.2493C34.1621 17.2493 34.2715 17.2526 34.3974 17.2592C34.5267 17.2659 34.6278 17.2741 34.7007 17.2841V18.706C34.641 18.6894 34.535 18.6712 34.3825 18.6513C34.23 18.6281 34.0776 18.6165 33.9251 18.6165C33.5738 18.6165 33.2606 18.6911 32.9855 18.8402C32.7137 18.986 32.4983 19.1899 32.3392 19.4517C32.1801 19.7102 32.1005 20.0052 32.1005 20.3366V25H30.614ZM35.9871 27.8636V17.3636H37.4388V18.6016H37.5631C37.6493 18.4425 37.7735 18.2585 37.9359 18.0497C38.0984 17.8409 38.3237 17.6586 38.6121 17.5028C38.9004 17.3438 39.2816 17.2642 39.7555 17.2642C40.372 17.2642 40.9222 17.42 41.4061 17.7315C41.89 18.0431 42.2695 18.4922 42.5446 19.0788C42.823 19.6655 42.9622 20.3714 42.9622 21.1967C42.9622 22.022 42.8247 22.7296 42.5496 23.3196C42.2745 23.9062 41.8966 24.3587 41.4161 24.6768C40.9355 24.9917 40.3869 25.1491 39.7705 25.1491C39.3064 25.1491 38.927 25.0713 38.632 24.9155C38.3403 24.7597 38.1116 24.5774 37.9459 24.3686C37.7802 24.1598 37.6526 23.9742 37.5631 23.8118H37.4736V27.8636H35.9871ZM37.4438 21.1818C37.4438 21.7187 37.5216 22.1894 37.6774 22.5938C37.8332 22.9981 38.0586 23.3146 38.3536 23.5433C38.6485 23.7687 39.0098 23.8814 39.4374 23.8814C39.8815 23.8814 40.2527 23.7637 40.551 23.5284C40.8493 23.2898 41.0747 22.9666 41.2271 22.5589C41.3829 22.1513 41.4608 21.6922 41.4608 21.1818C41.4608 20.678 41.3846 20.2256 41.2321 19.8246C41.083 19.4235 40.8576 19.107 40.556 18.875C40.2577 18.643 39.8848 18.527 39.4374 18.527C39.0065 18.527 38.6419 18.638 38.3436 18.8601C38.0486 19.0821 37.8249 19.392 37.6725 19.7898C37.52 20.1875 37.4438 20.6515 37.4438 21.1818ZM46.1142 14.8182V25H44.6277V14.8182H46.1142ZM51.4052 25.1541C50.6529 25.1541 50.0049 24.9934 49.4613 24.6719C48.9211 24.3471 48.5035 23.8913 48.2085 23.3047C47.9168 22.7147 47.771 22.0237 47.771 21.2315C47.771 20.4493 47.9168 19.7599 48.2085 19.1634C48.5035 18.5668 48.9145 18.1011 49.4415 17.7663C49.9718 17.4316 50.5915 17.2642 51.3008 17.2642C51.7317 17.2642 52.1493 17.3355 52.5537 17.478C52.958 17.6205 53.3209 17.8442 53.6424 18.1491C53.9639 18.4541 54.2175 18.8501 54.4031 19.3374C54.5887 19.8213 54.6815 20.4096 54.6815 21.1023V21.6293H48.6112V20.5156H53.2248C53.2248 20.1245 53.1453 19.7782 52.9862 19.4766C52.8271 19.1716 52.6034 18.9313 52.315 18.7557C52.03 18.58 51.6952 18.4922 51.3108 18.4922C50.8932 18.4922 50.5286 18.5949 50.217 18.8004C49.9088 19.0026 49.6701 19.2678 49.5011 19.5959C49.3354 19.9207 49.2525 20.2737 49.2525 20.6548V21.5249C49.2525 22.0353 49.342 22.4695 49.521 22.8274C49.7033 23.1854 49.9568 23.4588 50.2816 23.6477C50.6065 23.8333 50.986 23.9261 51.4201 23.9261C51.7019 23.9261 51.9587 23.8864 52.1907 23.8068C52.4227 23.724 52.6233 23.6013 52.7923 23.4389C52.9613 23.2765 53.0906 23.076 53.1801 22.8374L54.587 23.0909C54.4744 23.5052 54.2722 23.8681 53.9805 24.1797C53.6922 24.4879 53.3292 24.7282 52.8917 24.9006C52.4575 25.0696 51.962 25.1541 51.4052 25.1541ZM56.0972 23.0114V21.7685L60.497 14.8182H61.4764V16.6477H60.855L57.708 21.6293V21.7088H63.7385V23.0114H56.0972ZM60.9246 25V22.6335L60.9345 22.0668V14.8182H62.3912V25H60.9246ZM69.0158 25.169C68.2303 25.1657 67.5592 24.9586 67.0024 24.5476C66.4455 24.1366 66.0196 23.5384 65.7247 22.7528C65.4297 21.9673 65.2822 21.0211 65.2822 19.9141C65.2822 18.8104 65.4297 17.8674 65.7247 17.0852C66.0229 16.303 66.4505 15.7064 67.0073 15.2955C67.5675 14.8845 68.237 14.679 69.0158 14.679C69.7947 14.679 70.4626 14.8861 71.0194 15.3004C71.5762 15.7114 72.0021 16.308 72.2971 17.0902C72.5954 17.8691 72.7445 18.8104 72.7445 19.9141C72.7445 21.0244 72.597 21.9723 72.3021 22.7578C72.0071 23.54 71.5812 24.1383 71.0244 24.5526C70.4676 24.9635 69.798 25.169 69.0158 25.169ZM69.0158 23.8416C69.7052 23.8416 70.2438 23.5052 70.6316 22.8324C71.0227 22.1596 71.2183 21.1868 71.2183 19.9141C71.2183 19.0689 71.1288 18.3546 70.9498 17.7713C70.7741 17.1847 70.5206 16.7405 70.1891 16.4389C69.861 16.134 69.4699 15.9815 69.0158 15.9815C68.3298 15.9815 67.7912 16.3196 67.4001 16.9957C67.009 17.6719 66.8118 18.6446 66.8085 19.9141C66.8085 20.7625 66.8963 21.4801 67.072 22.0668C67.2509 22.6501 67.5045 23.0926 67.8326 23.3942C68.1607 23.6925 68.5551 23.8416 69.0158 23.8416ZM78.053 25.169C77.2674 25.1657 76.5963 24.9586 76.0395 24.5476C75.4826 24.1366 75.0567 23.5384 74.7618 22.7528C74.4668 21.9673 74.3193 21.0211 74.3193 19.9141C74.3193 18.8104 74.4668 17.8674 74.7618 17.0852C75.0601 16.303 75.4876 15.7064 76.0444 15.2955C76.6046 14.8845 77.2741 14.679 78.053 14.679C78.8318 14.679 79.4997 14.8861 80.0565 15.3004C80.6133 15.7114 81.0392 16.308 81.3342 17.0902C81.6325 17.8691 81.7816 18.8104 81.7816 19.9141C81.7816 21.0244 81.6342 21.9723 81.3392 22.7578C81.0442 23.54 80.6183 24.1383 80.0615 24.5526C79.5047 24.9635 78.8352 25.169 78.053 25.169ZM78.053 23.8416C78.7424 23.8416 79.2809 23.5052 79.6687 22.8324C80.0598 22.1596 80.2554 21.1868 80.2554 19.9141C80.2554 19.0689 80.1659 18.3546 79.9869 17.7713C79.8112 17.1847 79.5577 16.7405 79.2263 16.4389C78.8981 16.134 78.507 15.9815 78.053 15.9815C77.3669 15.9815 76.8283 16.3196 76.4372 16.9957C76.0461 17.6719 75.8489 18.6446 75.8456 19.9141C75.8456 20.7625 75.9334 21.4801 76.1091 22.0668C76.288 22.6501 76.5416 23.0926 76.8697 23.3942C77.1978 23.6925 77.5923 23.8416 78.053 23.8416Z" fill="white"/>
</svg>
