<svg width="342" height="40" viewBox="0 0 342 40" fill="none" xmlns="http://www.w3.org/2000/svg">
<rect width="341.333" height="40" transform="translate(0.333496)" fill="#9D3ACF"/>
<path d="M13.4521 25V14.8182H17.0814C17.8735 14.8182 18.5298 14.9624 19.0501 15.2507C19.5705 15.5391 19.9599 15.9335 20.2184 16.4339C20.477 16.9311 20.6062 17.4912 20.6062 18.1143C20.6062 18.7408 20.4753 19.3042 20.2135 19.8047C19.9549 20.3018 19.5638 20.6963 19.0402 20.9879C18.5198 21.2763 17.8652 21.4205 17.0764 21.4205H14.5807V20.1179H16.9372C17.4377 20.1179 17.8437 20.0317 18.1552 19.8594C18.4668 19.6837 18.6955 19.4451 18.8413 19.1435C18.9871 18.8419 19.0601 18.4988 19.0601 18.1143C19.0601 17.7299 18.9871 17.3885 18.8413 17.0902C18.6955 16.7919 18.4651 16.5582 18.1503 16.3892C17.8387 16.2202 17.4277 16.1357 16.9173 16.1357H14.9883V25H13.4521ZM27.1252 21.8331V17.3636H28.6167V25H27.1551V23.6776H27.0755C26.8998 24.0852 26.6181 24.425 26.2303 24.6967C25.8459 24.9652 25.3669 25.0994 24.7935 25.0994C24.303 25.0994 23.8688 24.9917 23.491 24.7763C23.1165 24.5575 22.8215 24.2344 22.606 23.8068C22.3939 23.3793 22.2879 22.8506 22.2879 22.2209V17.3636H23.7744V22.0419C23.7744 22.5623 23.9185 22.9766 24.2069 23.2848C24.4953 23.593 24.8698 23.7472 25.3305 23.7472C25.6089 23.7472 25.8856 23.6776 26.1607 23.5384C26.4391 23.3991 26.6695 23.1887 26.8518 22.907C27.0374 22.6252 27.1285 22.2673 27.1252 21.8331ZM30.614 25V17.3636H32.0508V18.5767H32.1304C32.2696 18.1657 32.5148 17.8426 32.8662 17.6072C33.2208 17.3686 33.6218 17.2493 34.0693 17.2493C34.1621 17.2493 34.2715 17.2526 34.3974 17.2592C34.5267 17.2659 34.6278 17.2741 34.7007 17.2841V18.706C34.641 18.6894 34.535 18.6712 34.3825 18.6513C34.23 18.6281 34.0776 18.6165 33.9251 18.6165C33.5738 18.6165 33.2606 18.6911 32.9855 18.8402C32.7137 18.986 32.4983 19.1899 32.3392 19.4517C32.1801 19.7102 32.1005 20.0052 32.1005 20.3366V25H30.614ZM35.9871 27.8636V17.3636H37.4388V18.6016H37.5631C37.6493 18.4425 37.7735 18.2585 37.9359 18.0497C38.0984 17.8409 38.3237 17.6586 38.6121 17.5028C38.9004 17.3438 39.2816 17.2642 39.7555 17.2642C40.372 17.2642 40.9222 17.42 41.4061 17.7315C41.89 18.0431 42.2695 18.4922 42.5446 19.0788C42.823 19.6655 42.9622 20.3714 42.9622 21.1967C42.9622 22.022 42.8247 22.7296 42.5496 23.3196C42.2745 23.9062 41.8966 24.3587 41.4161 24.6768C40.9355 24.9917 40.3869 25.1491 39.7705 25.1491C39.3064 25.1491 38.927 25.0713 38.632 24.9155C38.3403 24.7597 38.1116 24.5774 37.9459 24.3686C37.7802 24.1598 37.6526 23.9742 37.5631 23.8118H37.4736V27.8636H35.9871ZM37.4438 21.1818C37.4438 21.7187 37.5216 22.1894 37.6774 22.5938C37.8332 22.9981 38.0586 23.3146 38.3536 23.5433C38.6485 23.7687 39.0098 23.8814 39.4374 23.8814C39.8815 23.8814 40.2527 23.7637 40.551 23.5284C40.8493 23.2898 41.0747 22.9666 41.2271 22.5589C41.3829 22.1513 41.4608 21.6922 41.4608 21.1818C41.4608 20.678 41.3846 20.2256 41.2321 19.8246C41.083 19.4235 40.8576 19.107 40.556 18.875C40.2577 18.643 39.8848 18.527 39.4374 18.527C39.0065 18.527 38.6419 18.638 38.3436 18.8601C38.0486 19.0821 37.8249 19.392 37.6725 19.7898C37.52 20.1875 37.4438 20.6515 37.4438 21.1818ZM46.1142 14.8182V25H44.6277V14.8182H46.1142ZM51.4052 25.1541C50.6529 25.1541 50.0049 24.9934 49.4613 24.6719C48.9211 24.3471 48.5035 23.8913 48.2085 23.3047C47.9168 22.7147 47.771 22.0237 47.771 21.2315C47.771 20.4493 47.9168 19.7599 48.2085 19.1634C48.5035 18.5668 48.9145 18.1011 49.4415 17.7663C49.9718 17.4316 50.5915 17.2642 51.3008 17.2642C51.7317 17.2642 52.1493 17.3355 52.5537 17.478C52.958 17.6205 53.3209 17.8442 53.6424 18.1491C53.9639 18.4541 54.2175 18.8501 54.4031 19.3374C54.5887 19.8213 54.6815 20.4096 54.6815 21.1023V21.6293H48.6112V20.5156H53.2248C53.2248 20.1245 53.1453 19.7782 52.9862 19.4766C52.8271 19.1716 52.6034 18.9313 52.315 18.7557C52.03 18.58 51.6952 18.4922 51.3108 18.4922C50.8932 18.4922 50.5286 18.5949 50.217 18.8004C49.9088 19.0026 49.6701 19.2678 49.5011 19.5959C49.3354 19.9207 49.2525 20.2737 49.2525 20.6548V21.5249C49.2525 22.0353 49.342 22.4695 49.521 22.8274C49.7033 23.1854 49.9568 23.4588 50.2816 23.6477C50.6065 23.8333 50.986 23.9261 51.4201 23.9261C51.7019 23.9261 51.9587 23.8864 52.1907 23.8068C52.4227 23.724 52.6233 23.6013 52.7923 23.4389C52.9613 23.2765 53.0906 23.076 53.1801 22.8374L54.587 23.0909C54.4744 23.5052 54.2722 23.8681 53.9805 24.1797C53.6922 24.4879 53.3292 24.7282 52.8917 24.9006C52.4575 25.0696 51.962 25.1541 51.4052 25.1541ZM56.654 25L61.0986 16.2102V16.1357H55.958V14.8182H62.6895V16.1804L58.2598 25H56.654ZM67.7444 25.169C66.9589 25.1657 66.2877 24.9586 65.7309 24.5476C65.1741 24.1366 64.7482 23.5384 64.4532 22.7528C64.1582 21.9673 64.0107 21.0211 64.0107 19.9141C64.0107 18.8104 64.1582 17.8674 64.4532 17.0852C64.7515 16.303 65.179 15.7064 65.7358 15.2955C66.296 14.8845 66.9655 14.679 67.7444 14.679C68.5232 14.679 69.1911 14.8861 69.7479 15.3004C70.3047 15.7114 70.7306 16.308 71.0256 17.0902C71.3239 17.8691 71.4731 18.8104 71.4731 19.9141C71.4731 21.0244 71.3256 21.9723 71.0306 22.7578C70.7356 23.54 70.3097 24.1383 69.7529 24.5526C69.1961 24.9635 68.5266 25.169 67.7444 25.169ZM67.7444 23.8416C68.4338 23.8416 68.9723 23.5052 69.3601 22.8324C69.7512 22.1596 69.9468 21.1868 69.9468 19.9141C69.9468 19.0689 69.8573 18.3546 69.6783 17.7713C69.5026 17.1847 69.2491 16.7405 68.9177 16.4389C68.5895 16.134 68.1984 15.9815 67.7444 15.9815C67.0583 15.9815 66.5197 16.3196 66.1286 16.9957C65.7375 17.6719 65.5403 18.6446 65.537 19.9141C65.537 20.7625 65.6248 21.4801 65.8005 22.0668C65.9794 22.6501 66.233 23.0926 66.5611 23.3942C66.8892 23.6925 67.2837 23.8416 67.7444 23.8416ZM76.7815 25.169C75.996 25.1657 75.3248 24.9586 74.768 24.5476C74.2112 24.1366 73.7853 23.5384 73.4903 22.7528C73.1953 21.9673 73.0478 21.0211 73.0478 19.9141C73.0478 18.8104 73.1953 17.8674 73.4903 17.0852C73.7886 16.303 74.2161 15.7064 74.7729 15.2955C75.3331 14.8845 76.0026 14.679 76.7815 14.679C77.5604 14.679 78.2282 14.8861 78.785 15.3004C79.3418 15.7114 79.7677 16.308 80.0627 17.0902C80.361 17.8691 80.5102 18.8104 80.5102 19.9141C80.5102 21.0244 80.3627 21.9723 80.0677 22.7578C79.7727 23.54 79.3468 24.1383 78.79 24.5526C78.2332 24.9635 77.5637 25.169 76.7815 25.169ZM76.7815 23.8416C77.4709 23.8416 78.0095 23.5052 78.3972 22.8324C78.7883 22.1596 78.9839 21.1868 78.9839 19.9141C78.9839 19.0689 78.8944 18.3546 78.7154 17.7713C78.5398 17.1847 78.2862 16.7405 77.9548 16.4389C77.6266 16.134 77.2355 15.9815 76.7815 15.9815C76.0954 15.9815 75.5568 16.3196 75.1657 16.9957C74.7746 17.6719 74.5774 18.6446 74.5741 19.9141C74.5741 20.7625 74.6619 21.4801 74.8376 22.0668C75.0166 22.6501 75.2701 23.0926 75.5982 23.3942C75.9264 23.6925 76.3208 23.8416 76.7815 23.8416Z" fill="white"/>
</svg>
