<svg width="240" height="40" viewBox="0 0 240 40" fill="none" xmlns="http://www.w3.org/2000/svg">
<rect width="240" height="40" fill="#C4C0FC"/>
<path d="M13.1186 25V14.8182H16.7479C17.54 14.8182 18.1963 14.9624 18.7166 15.2507C19.237 15.5391 19.6264 15.9335 19.8849 16.4339C20.1435 16.9311 20.2727 17.4912 20.2727 18.1143C20.2727 18.7408 20.1418 19.3042 19.88 19.8047C19.6214 20.3018 19.2304 20.6963 18.7067 20.9879C18.1863 21.2763 17.5317 21.4205 16.7429 21.4205H14.2472V20.1179H16.6037C17.1042 20.1179 17.5102 20.0317 17.8217 19.8594C18.1333 19.6837 18.362 19.4451 18.5078 19.1435C18.6536 18.8419 18.7266 18.4988 18.7266 18.1143C18.7266 17.7299 18.6536 17.3885 18.5078 17.0902C18.362 16.7919 18.1316 16.5582 17.8168 16.3892C17.5052 16.2202 17.0942 16.1357 16.5838 16.1357H14.6548V25H13.1186ZM26.7017 21.8331V17.3636H28.1932V25H26.7316V23.6776H26.652C26.4763 24.0852 26.1946 24.425 25.8068 24.6967C25.4224 24.9652 24.9434 25.0994 24.37 25.0994C23.8795 25.0994 23.4453 24.9917 23.0675 24.7763C22.693 24.5575 22.398 24.2344 22.1825 23.8068C21.9704 23.3793 21.8644 22.8506 21.8644 22.2209V17.3636H23.3509V22.0419C23.3509 22.5623 23.495 22.9766 23.7834 23.2848C24.0718 23.593 24.4463 23.7472 24.907 23.7472C25.1854 23.7472 25.4621 23.6776 25.7372 23.5384C26.0156 23.3991 26.246 23.1887 26.4283 22.907C26.6139 22.6252 26.705 22.2673 26.7017 21.8331ZM30.1005 25V17.3636H31.5373V18.5767H31.6169C31.7561 18.1657 32.0013 17.8426 32.3527 17.6072C32.7073 17.3686 33.1084 17.2493 33.5558 17.2493C33.6486 17.2493 33.758 17.2526 33.8839 17.2592C34.0132 17.2659 34.1143 17.2741 34.1872 17.2841V18.706C34.1275 18.6894 34.0215 18.6712 33.869 18.6513C33.7165 18.6281 33.5641 18.6165 33.4116 18.6165C33.0603 18.6165 32.7471 18.6911 32.472 18.8402C32.2002 18.986 31.9848 19.1899 31.8257 19.4517C31.6666 19.7102 31.587 20.0052 31.587 20.3366V25H30.1005ZM35.3836 27.8636V17.3636H36.8353V18.6016H36.9596C37.0458 18.4425 37.17 18.2585 37.3324 18.0497C37.4949 17.8409 37.7202 17.6586 38.0086 17.5028C38.2969 17.3438 38.6781 17.2642 39.1521 17.2642C39.7685 17.2642 40.3187 17.42 40.8026 17.7315C41.2865 18.0431 41.666 18.4922 41.9411 19.0788C42.2195 19.6655 42.3587 20.3714 42.3587 21.1967C42.3587 22.022 42.2212 22.7296 41.9461 23.3196C41.671 23.9062 41.2932 24.3587 40.8126 24.6768C40.332 24.9917 39.7834 25.1491 39.167 25.1491C38.703 25.1491 38.3235 25.0713 38.0285 24.9155C37.7368 24.7597 37.5081 24.5774 37.3424 24.3686C37.1767 24.1598 37.0491 23.9742 36.9596 23.8118H36.8701V27.8636H35.3836ZM36.8403 21.1818C36.8403 21.7187 36.9182 22.1894 37.0739 22.5938C37.2297 22.9981 37.4551 23.3146 37.7501 23.5433C38.045 23.7687 38.4063 23.8814 38.8339 23.8814C39.278 23.8814 39.6492 23.7637 39.9475 23.5284C40.2458 23.2898 40.4712 22.9666 40.6236 22.5589C40.7794 22.1513 40.8573 21.6922 40.8573 21.1818C40.8573 20.678 40.7811 20.2256 40.6286 19.8246C40.4795 19.4235 40.2541 19.107 39.9525 18.875C39.6542 18.643 39.2813 18.527 38.8339 18.527C38.403 18.527 38.0384 18.638 37.7401 18.8601C37.4451 19.0821 37.2214 19.392 37.069 19.7898C36.9165 20.1875 36.8403 20.6515 36.8403 21.1818ZM45.4207 14.8182V25H43.9342V14.8182H45.4207ZM50.6217 25.1541C49.8694 25.1541 49.2214 24.9934 48.6778 24.6719C48.1376 24.3471 47.72 23.8913 47.425 23.3047C47.1333 22.7147 46.9875 22.0237 46.9875 21.2315C46.9875 20.4493 47.1333 19.7599 47.425 19.1634C47.72 18.5668 48.131 18.1011 48.658 17.7663C49.1883 17.4316 49.808 17.2642 50.5173 17.2642C50.9482 17.2642 51.3658 17.3355 51.7702 17.478C52.1745 17.6205 52.5375 17.8442 52.8589 18.1491C53.1804 18.4541 53.434 18.8501 53.6196 19.3374C53.8052 19.8213 53.898 20.4096 53.898 21.1023V21.6293H47.8277V20.5156H52.4413C52.4413 20.1245 52.3618 19.7782 52.2027 19.4766C52.0436 19.1716 51.8199 18.9313 51.5315 18.7557C51.2465 18.58 50.9117 18.4922 50.5273 18.4922C50.1097 18.4922 49.7451 18.5949 49.4335 18.8004C49.1253 19.0026 48.8866 19.2678 48.7176 19.5959C48.5519 19.9207 48.469 20.2737 48.469 20.6548V21.5249C48.469 22.0353 48.5585 22.4695 48.7375 22.8274C48.9198 23.1854 49.1733 23.4588 49.4982 23.6477C49.823 23.8333 50.2025 23.9261 50.6366 23.9261C50.9184 23.9261 51.1752 23.8864 51.4072 23.8068C51.6393 23.724 51.8398 23.6013 52.0088 23.4389C52.1778 23.2765 52.3071 23.076 52.3966 22.8374L53.8036 23.0909C53.6909 23.5052 53.4887 23.8681 53.197 24.1797C52.9087 24.4879 52.5457 24.7282 52.1082 24.9006C51.6741 25.0696 51.1786 25.1541 50.6217 25.1541ZM58.9822 25.1392C58.2994 25.1392 57.6896 25.0215 57.1526 24.7862C56.619 24.5509 56.1964 24.2244 55.8849 23.8068C55.5767 23.3859 55.4109 22.8987 55.3877 22.3452H56.9488C56.9687 22.6468 57.0698 22.9086 57.2521 23.1307C57.4377 23.3494 57.6796 23.5185 57.9779 23.6378C58.2762 23.7571 58.6077 23.8168 58.9723 23.8168C59.3733 23.8168 59.7279 23.7472 60.0362 23.608C60.3477 23.4687 60.5913 23.2749 60.767 23.0263C60.9427 22.7744 61.0305 22.4844 61.0305 22.1562C61.0305 21.8149 60.9427 21.5149 60.767 21.2564C60.5946 20.9946 60.3411 20.7891 60.0063 20.6399C59.6749 20.4908 59.2739 20.4162 58.8032 20.4162H57.9431V19.1634H58.8032C59.1811 19.1634 59.5125 19.0954 59.7975 18.9595C60.0859 18.8236 60.3113 18.6347 60.4737 18.3928C60.6361 18.1475 60.7173 17.8608 60.7173 17.5327C60.7173 17.2178 60.646 16.9444 60.5035 16.7124C60.3643 16.477 60.1654 16.2931 59.9069 16.1605C59.6517 16.0279 59.3501 15.9616 59.0021 15.9616C58.6706 15.9616 58.3607 16.023 58.0724 16.1456C57.7874 16.2649 57.5553 16.4373 57.3764 16.6626C57.1974 16.8847 57.1013 17.1515 57.088 17.4631H55.6015C55.6181 16.9129 55.7805 16.429 56.0887 16.0114C56.4003 15.5937 56.8113 15.2673 57.3217 15.032C57.8321 14.7966 58.3989 14.679 59.022 14.679C59.6749 14.679 60.2383 14.8066 60.7123 15.0618C61.1896 15.3137 61.5575 15.6501 61.816 16.071C62.0778 16.492 62.2071 16.9527 62.2038 17.4531C62.2071 18.0232 62.048 18.5071 61.7265 18.9048C61.4083 19.3026 60.9841 19.5694 60.4538 19.7053V19.7848C61.1299 19.8875 61.6536 20.156 62.0248 20.5902C62.3993 21.0244 62.5849 21.563 62.5816 22.206C62.5849 22.7661 62.4292 23.2682 62.1143 23.7124C61.8027 24.1565 61.3768 24.5062 60.8366 24.7614C60.2964 25.0133 59.6782 25.1392 58.9822 25.1392ZM67.9156 25.169C67.1301 25.1657 66.459 24.9586 65.9021 24.5476C65.3453 24.1366 64.9194 23.5384 64.6244 22.7528C64.3295 21.9673 64.182 21.0211 64.182 19.9141C64.182 18.8104 64.3295 17.8674 64.6244 17.0852C64.9227 16.303 65.3503 15.7064 65.9071 15.2955C66.4672 14.8845 67.1367 14.679 67.9156 14.679C68.6945 14.679 69.3624 14.8861 69.9192 15.3004C70.476 15.7114 70.9019 16.308 71.1969 17.0902C71.4952 17.8691 71.6443 18.8104 71.6443 19.9141C71.6443 21.0244 71.4968 21.9723 71.2019 22.7578C70.9069 23.54 70.481 24.1383 69.9242 24.5526C69.3673 24.9635 68.6978 25.169 67.9156 25.169ZM67.9156 23.8416C68.605 23.8416 69.1436 23.5052 69.5314 22.8324C69.9225 22.1596 70.118 21.1868 70.118 19.9141C70.118 19.0689 70.0286 18.3546 69.8496 17.7713C69.6739 17.1847 69.4204 16.7405 69.0889 16.4389C68.7608 16.134 68.3697 15.9815 67.9156 15.9815C67.2296 15.9815 66.691 16.3196 66.2999 16.9957C65.9088 17.6719 65.7116 18.6446 65.7082 19.9141C65.7082 20.7625 65.7961 21.4801 65.9717 22.0668C66.1507 22.6501 66.4043 23.0926 66.7324 23.3942C67.0605 23.6925 67.4549 23.8416 67.9156 23.8416ZM76.8627 25.169C76.0772 25.1657 75.4061 24.9586 74.8492 24.5476C74.2924 24.1366 73.8665 23.5384 73.5715 22.7528C73.2766 21.9673 73.1291 21.0211 73.1291 19.9141C73.1291 18.8104 73.2766 17.8674 73.5715 17.0852C73.8698 16.303 74.2974 15.7064 74.8542 15.2955C75.4144 14.8845 76.0839 14.679 76.8627 14.679C77.6416 14.679 78.3095 14.8861 78.8663 15.3004C79.4231 15.7114 79.849 16.308 80.144 17.0902C80.4423 17.8691 80.5914 18.8104 80.5914 19.9141C80.5914 21.0244 80.4439 21.9723 80.149 22.7578C79.854 23.54 79.4281 24.1383 78.8713 24.5526C78.3144 24.9635 77.6449 25.169 76.8627 25.169ZM76.8627 23.8416C77.5521 23.8416 78.0907 23.5052 78.4785 22.8324C78.8696 22.1596 79.0652 21.1868 79.0652 19.9141C79.0652 19.0689 78.9757 18.3546 78.7967 17.7713C78.621 17.1847 78.3675 16.7405 78.036 16.4389C77.7079 16.134 77.3168 15.9815 76.8627 15.9815C76.1767 15.9815 75.6381 16.3196 75.247 16.9957C74.8559 17.6719 74.6587 18.6446 74.6554 19.9141C74.6554 20.7625 74.7432 21.4801 74.9188 22.0668C75.0978 22.6501 75.3514 23.0926 75.6795 23.3942C76.0076 23.6925 76.402 23.8416 76.8627 23.8416Z" fill="black"/>
</svg>
