<svg width="240" height="40" viewBox="0 0 240 40" fill="none" xmlns="http://www.w3.org/2000/svg">
<rect width="240" height="40" fill="#612392"/>
<path d="M13.1186 25V14.8182H16.7479C17.54 14.8182 18.1963 14.9624 18.7166 15.2507C19.237 15.5391 19.6264 15.9335 19.8849 16.4339C20.1435 16.9311 20.2727 17.4912 20.2727 18.1143C20.2727 18.7408 20.1418 19.3042 19.88 19.8047C19.6214 20.3018 19.2304 20.6963 18.7067 20.9879C18.1863 21.2763 17.5317 21.4205 16.7429 21.4205H14.2472V20.1179H16.6037C17.1042 20.1179 17.5102 20.0317 17.8217 19.8594C18.1333 19.6837 18.362 19.4451 18.5078 19.1435C18.6536 18.8419 18.7266 18.4988 18.7266 18.1143C18.7266 17.7299 18.6536 17.3885 18.5078 17.0902C18.362 16.7919 18.1316 16.5582 17.8168 16.3892C17.5052 16.2202 17.0942 16.1357 16.5838 16.1357H14.6548V25H13.1186ZM26.7017 21.8331V17.3636H28.1932V25H26.7316V23.6776H26.652C26.4763 24.0852 26.1946 24.425 25.8068 24.6967C25.4224 24.9652 24.9434 25.0994 24.37 25.0994C23.8795 25.0994 23.4453 24.9917 23.0675 24.7763C22.693 24.5575 22.398 24.2344 22.1825 23.8068C21.9704 23.3793 21.8644 22.8506 21.8644 22.2209V17.3636H23.3509V22.0419C23.3509 22.5623 23.495 22.9766 23.7834 23.2848C24.0718 23.593 24.4463 23.7472 24.907 23.7472C25.1854 23.7472 25.4621 23.6776 25.7372 23.5384C26.0156 23.3991 26.246 23.1887 26.4283 22.907C26.6139 22.6252 26.705 22.2673 26.7017 21.8331ZM30.1005 25V17.3636H31.5373V18.5767H31.6169C31.7561 18.1657 32.0013 17.8426 32.3527 17.6072C32.7073 17.3686 33.1084 17.2493 33.5558 17.2493C33.6486 17.2493 33.758 17.2526 33.8839 17.2592C34.0132 17.2659 34.1143 17.2741 34.1872 17.2841V18.706C34.1275 18.6894 34.0215 18.6712 33.869 18.6513C33.7165 18.6281 33.5641 18.6165 33.4116 18.6165C33.0603 18.6165 32.7471 18.6911 32.472 18.8402C32.2002 18.986 31.9848 19.1899 31.8257 19.4517C31.6666 19.7102 31.587 20.0052 31.587 20.3366V25H30.1005ZM35.3836 27.8636V17.3636H36.8353V18.6016H36.9596C37.0458 18.4425 37.17 18.2585 37.3324 18.0497C37.4949 17.8409 37.7202 17.6586 38.0086 17.5028C38.2969 17.3438 38.6781 17.2642 39.1521 17.2642C39.7685 17.2642 40.3187 17.42 40.8026 17.7315C41.2865 18.0431 41.666 18.4922 41.9411 19.0788C42.2195 19.6655 42.3587 20.3714 42.3587 21.1967C42.3587 22.022 42.2212 22.7296 41.9461 23.3196C41.671 23.9062 41.2932 24.3587 40.8126 24.6768C40.332 24.9917 39.7834 25.1491 39.167 25.1491C38.703 25.1491 38.3235 25.0713 38.0285 24.9155C37.7368 24.7597 37.5081 24.5774 37.3424 24.3686C37.1767 24.1598 37.0491 23.9742 36.9596 23.8118H36.8701V27.8636H35.3836ZM36.8403 21.1818C36.8403 21.7187 36.9182 22.1894 37.0739 22.5938C37.2297 22.9981 37.4551 23.3146 37.7501 23.5433C38.045 23.7687 38.4063 23.8814 38.8339 23.8814C39.278 23.8814 39.6492 23.7637 39.9475 23.5284C40.2458 23.2898 40.4712 22.9666 40.6236 22.5589C40.7794 22.1513 40.8573 21.6922 40.8573 21.1818C40.8573 20.678 40.7811 20.2256 40.6286 19.8246C40.4795 19.4235 40.2541 19.107 39.9525 18.875C39.6542 18.643 39.2813 18.527 38.8339 18.527C38.403 18.527 38.0384 18.638 37.7401 18.8601C37.4451 19.0821 37.2214 19.392 37.069 19.7898C36.9165 20.1875 36.8403 20.6515 36.8403 21.1818ZM45.4207 14.8182V25H43.9342V14.8182H45.4207ZM50.6217 25.1541C49.8694 25.1541 49.2214 24.9934 48.6778 24.6719C48.1376 24.3471 47.72 23.8913 47.425 23.3047C47.1333 22.7147 46.9875 22.0237 46.9875 21.2315C46.9875 20.4493 47.1333 19.7599 47.425 19.1634C47.72 18.5668 48.131 18.1011 48.658 17.7663C49.1883 17.4316 49.808 17.2642 50.5173 17.2642C50.9482 17.2642 51.3658 17.3355 51.7702 17.478C52.1745 17.6205 52.5375 17.8442 52.8589 18.1491C53.1804 18.4541 53.434 18.8501 53.6196 19.3374C53.8052 19.8213 53.898 20.4096 53.898 21.1023V21.6293H47.8277V20.5156H52.4413C52.4413 20.1245 52.3618 19.7782 52.2027 19.4766C52.0436 19.1716 51.8199 18.9313 51.5315 18.7557C51.2465 18.58 50.9117 18.4922 50.5273 18.4922C50.1097 18.4922 49.7451 18.5949 49.4335 18.8004C49.1253 19.0026 48.8866 19.2678 48.7176 19.5959C48.5519 19.9207 48.469 20.2737 48.469 20.6548V21.5249C48.469 22.0353 48.5585 22.4695 48.7375 22.8274C48.9198 23.1854 49.1733 23.4588 49.4982 23.6477C49.823 23.8333 50.2025 23.9261 50.6366 23.9261C50.9184 23.9261 51.1752 23.8864 51.4072 23.8068C51.6393 23.724 51.8398 23.6013 52.0088 23.4389C52.1778 23.2765 52.3071 23.076 52.3966 22.8374L53.8036 23.0909C53.6909 23.5052 53.4887 23.8681 53.197 24.1797C52.9087 24.4879 52.5457 24.7282 52.1082 24.9006C51.6741 25.0696 51.1786 25.1541 50.6217 25.1541ZM58.8778 25.1392C58.1652 25.1392 57.5355 25.0166 56.9886 24.7713C56.445 24.526 56.0191 24.188 55.7109 23.7571C55.4026 23.3262 55.2502 22.8357 55.2535 22.2855C55.2502 21.8546 55.338 21.4586 55.517 21.0973C55.6993 20.7327 55.9462 20.4295 56.2578 20.1875C56.5693 19.9422 56.9173 19.7865 57.3018 19.7202V19.6605C56.7947 19.5379 56.3887 19.2661 56.0838 18.8452C55.7788 18.4242 55.628 17.9403 55.6313 17.3935C55.628 16.8731 55.7656 16.4091 56.044 16.0014C56.3257 15.5904 56.7118 15.2673 57.2024 15.032C57.6929 14.7966 58.2514 14.679 58.8778 14.679C59.4976 14.679 60.0511 14.7983 60.5383 15.0369C61.0288 15.2723 61.415 15.5954 61.6967 16.0064C61.9784 16.4141 62.1209 16.8764 62.1242 17.3935C62.1209 17.9403 61.9651 18.4242 61.6569 18.8452C61.3487 19.2661 60.9476 19.5379 60.4538 19.6605V19.7202C60.8349 19.7865 61.178 19.9422 61.4829 20.1875C61.7911 20.4295 62.0364 20.7327 62.2187 21.0973C62.4043 21.4586 62.4988 21.8546 62.5021 22.2855C62.4988 22.8357 62.343 23.3262 62.0348 23.7571C61.7265 24.188 61.299 24.526 60.7521 24.7713C60.2085 25.0166 59.5838 25.1392 58.8778 25.1392ZM58.8778 23.8814C59.2987 23.8814 59.6633 23.8118 59.9715 23.6726C60.2798 23.5301 60.5184 23.3329 60.6874 23.081C60.8565 22.8258 60.9427 22.5275 60.946 22.1861C60.9427 21.8314 60.8499 21.5182 60.6676 21.2464C60.4886 20.9747 60.245 20.7609 59.9367 20.6051C59.6285 20.4493 59.2755 20.3714 58.8778 20.3714C58.4767 20.3714 58.1205 20.4493 57.8089 20.6051C57.4973 20.7609 57.2521 20.9747 57.0731 21.2464C56.8941 21.5182 56.8063 21.8314 56.8096 22.1861C56.8063 22.5275 56.8875 22.8258 57.0532 23.081C57.2223 23.3329 57.4625 23.5301 57.7741 23.6726C58.0857 23.8118 58.4535 23.8814 58.8778 23.8814ZM58.8778 19.1435C59.2159 19.1435 59.5158 19.0755 59.7776 18.9396C60.0395 18.8037 60.245 18.6148 60.3941 18.3729C60.5466 18.1309 60.6245 17.8475 60.6278 17.5227C60.6245 17.2045 60.5482 16.9261 60.3991 16.6875C60.2533 16.4489 60.0494 16.2649 59.7876 16.1357C59.5258 16.0031 59.2225 15.9368 58.8778 15.9368C58.5265 15.9368 58.2182 16.0031 57.9531 16.1357C57.6912 16.2649 57.4874 16.4489 57.3416 16.6875C57.1957 16.9261 57.1245 17.2045 57.1278 17.5227C57.1245 17.8475 57.1974 18.1309 57.3465 18.3729C57.4957 18.6148 57.7012 18.8037 57.963 18.9396C58.2282 19.0755 58.5331 19.1435 58.8778 19.1435ZM67.7379 25.169C66.9524 25.1657 66.2812 24.9586 65.7244 24.5476C65.1676 24.1366 64.7417 23.5384 64.4467 22.7528C64.1517 21.9673 64.0042 21.0211 64.0042 19.9141C64.0042 18.8104 64.1517 17.8674 64.4467 17.0852C64.745 16.303 65.1726 15.7064 65.7294 15.2955C66.2895 14.8845 66.959 14.679 67.7379 14.679C68.5168 14.679 69.1846 14.8861 69.7414 15.3004C70.2983 15.7114 70.7242 16.308 71.0191 17.0902C71.3174 17.8691 71.4666 18.8104 71.4666 19.9141C71.4666 21.0244 71.3191 21.9723 71.0241 22.7578C70.7291 23.54 70.3032 24.1383 69.7464 24.5526C69.1896 24.9635 68.5201 25.169 67.7379 25.169ZM67.7379 23.8416C68.4273 23.8416 68.9659 23.5052 69.3537 22.8324C69.7448 22.1596 69.9403 21.1868 69.9403 19.9141C69.9403 19.0689 69.8508 18.3546 69.6718 17.7713C69.4962 17.1847 69.2426 16.7405 68.9112 16.4389C68.5831 16.134 68.192 15.9815 67.7379 15.9815C67.0518 15.9815 66.5132 16.3196 66.1221 16.9957C65.731 17.6719 65.5338 18.6446 65.5305 19.9141C65.5305 20.7625 65.6183 21.4801 65.794 22.0668C65.973 22.6501 66.2265 23.0926 66.5547 23.3942C66.8828 23.6925 67.2772 23.8416 67.7379 23.8416ZM76.685 25.169C75.8995 25.1657 75.2283 24.9586 74.6715 24.5476C74.1147 24.1366 73.6888 23.5384 73.3938 22.7528C73.0988 21.9673 72.9513 21.0211 72.9513 19.9141C72.9513 18.8104 73.0988 17.8674 73.3938 17.0852C73.6921 16.303 74.1197 15.7064 74.6765 15.2955C75.2366 14.8845 75.9061 14.679 76.685 14.679C77.4639 14.679 78.1317 14.8861 78.6886 15.3004C79.2454 15.7114 79.6713 16.308 79.9663 17.0902C80.2646 17.8691 80.4137 18.8104 80.4137 19.9141C80.4137 21.0244 80.2662 21.9723 79.9712 22.7578C79.6762 23.54 79.2503 24.1383 78.6935 24.5526C78.1367 24.9635 77.4672 25.169 76.685 25.169ZM76.685 23.8416C77.3744 23.8416 77.913 23.5052 78.3008 22.8324C78.6919 22.1596 78.8874 21.1868 78.8874 19.9141C78.8874 19.0689 78.7979 18.3546 78.619 17.7713C78.4433 17.1847 78.1897 16.7405 77.8583 16.4389C77.5302 16.134 77.1391 15.9815 76.685 15.9815C75.9989 15.9815 75.4603 16.3196 75.0692 16.9957C74.6781 17.6719 74.4809 18.6446 74.4776 19.9141C74.4776 20.7625 74.5655 21.4801 74.7411 22.0668C74.9201 22.6501 75.1736 23.0926 75.5018 23.3942C75.8299 23.6925 76.2243 23.8416 76.685 23.8416Z" fill="white"/>
</svg>
