<svg width="240" height="40" viewBox="0 0 240 40" fill="none" xmlns="http://www.w3.org/2000/svg">
<rect width="240" height="40" fill="#9635EE"/>
<path d="M13.1186 25V14.8182H16.7479C17.54 14.8182 18.1963 14.9624 18.7166 15.2507C19.237 15.5391 19.6264 15.9335 19.8849 16.4339C20.1435 16.9311 20.2727 17.4912 20.2727 18.1143C20.2727 18.7408 20.1418 19.3042 19.88 19.8047C19.6214 20.3018 19.2304 20.6963 18.7067 20.9879C18.1863 21.2763 17.5317 21.4205 16.7429 21.4205H14.2472V20.1179H16.6037C17.1042 20.1179 17.5102 20.0317 17.8217 19.8594C18.1333 19.6837 18.362 19.4451 18.5078 19.1435C18.6536 18.8419 18.7266 18.4988 18.7266 18.1143C18.7266 17.7299 18.6536 17.3885 18.5078 17.0902C18.362 16.7919 18.1316 16.5582 17.8168 16.3892C17.5052 16.2202 17.0942 16.1357 16.5838 16.1357H14.6548V25H13.1186ZM26.7017 21.8331V17.3636H28.1932V25H26.7316V23.6776H26.652C26.4763 24.0852 26.1946 24.425 25.8068 24.6967C25.4224 24.9652 24.9434 25.0994 24.37 25.0994C23.8795 25.0994 23.4453 24.9917 23.0675 24.7763C22.693 24.5575 22.398 24.2344 22.1825 23.8068C21.9704 23.3793 21.8644 22.8506 21.8644 22.2209V17.3636H23.3509V22.0419C23.3509 22.5623 23.495 22.9766 23.7834 23.2848C24.0718 23.593 24.4463 23.7472 24.907 23.7472C25.1854 23.7472 25.4621 23.6776 25.7372 23.5384C26.0156 23.3991 26.246 23.1887 26.4283 22.907C26.6139 22.6252 26.705 22.2673 26.7017 21.8331ZM30.1005 25V17.3636H31.5373V18.5767H31.6169C31.7561 18.1657 32.0013 17.8426 32.3527 17.6072C32.7073 17.3686 33.1084 17.2493 33.5558 17.2493C33.6486 17.2493 33.758 17.2526 33.8839 17.2592C34.0132 17.2659 34.1143 17.2741 34.1872 17.2841V18.706C34.1275 18.6894 34.0215 18.6712 33.869 18.6513C33.7165 18.6281 33.5641 18.6165 33.4116 18.6165C33.0603 18.6165 32.7471 18.6911 32.472 18.8402C32.2002 18.986 31.9848 19.1899 31.8257 19.4517C31.6666 19.7102 31.587 20.0052 31.587 20.3366V25H30.1005ZM35.3836 27.8636V17.3636H36.8353V18.6016H36.9596C37.0458 18.4425 37.17 18.2585 37.3324 18.0497C37.4949 17.8409 37.7202 17.6586 38.0086 17.5028C38.2969 17.3438 38.6781 17.2642 39.1521 17.2642C39.7685 17.2642 40.3187 17.42 40.8026 17.7315C41.2865 18.0431 41.666 18.4922 41.9411 19.0788C42.2195 19.6655 42.3587 20.3714 42.3587 21.1967C42.3587 22.022 42.2212 22.7296 41.9461 23.3196C41.671 23.9062 41.2932 24.3587 40.8126 24.6768C40.332 24.9917 39.7834 25.1491 39.167 25.1491C38.703 25.1491 38.3235 25.0713 38.0285 24.9155C37.7368 24.7597 37.5081 24.5774 37.3424 24.3686C37.1767 24.1598 37.0491 23.9742 36.9596 23.8118H36.8701V27.8636H35.3836ZM36.8403 21.1818C36.8403 21.7187 36.9182 22.1894 37.0739 22.5938C37.2297 22.9981 37.4551 23.3146 37.7501 23.5433C38.045 23.7687 38.4063 23.8814 38.8339 23.8814C39.278 23.8814 39.6492 23.7637 39.9475 23.5284C40.2458 23.2898 40.4712 22.9666 40.6236 22.5589C40.7794 22.1513 40.8573 21.6922 40.8573 21.1818C40.8573 20.678 40.7811 20.2256 40.6286 19.8246C40.4795 19.4235 40.2541 19.107 39.9525 18.875C39.6542 18.643 39.2813 18.527 38.8339 18.527C38.403 18.527 38.0384 18.638 37.7401 18.8601C37.4451 19.0821 37.2214 19.392 37.069 19.7898C36.9165 20.1875 36.8403 20.6515 36.8403 21.1818ZM45.4207 14.8182V25H43.9342V14.8182H45.4207ZM50.6217 25.1541C49.8694 25.1541 49.2214 24.9934 48.6778 24.6719C48.1376 24.3471 47.72 23.8913 47.425 23.3047C47.1333 22.7147 46.9875 22.0237 46.9875 21.2315C46.9875 20.4493 47.1333 19.7599 47.425 19.1634C47.72 18.5668 48.131 18.1011 48.658 17.7663C49.1883 17.4316 49.808 17.2642 50.5173 17.2642C50.9482 17.2642 51.3658 17.3355 51.7702 17.478C52.1745 17.6205 52.5375 17.8442 52.8589 18.1491C53.1804 18.4541 53.434 18.8501 53.6196 19.3374C53.8052 19.8213 53.898 20.4096 53.898 21.1023V21.6293H47.8277V20.5156H52.4413C52.4413 20.1245 52.3618 19.7782 52.2027 19.4766C52.0436 19.1716 51.8199 18.9313 51.5315 18.7557C51.2465 18.58 50.9117 18.4922 50.5273 18.4922C50.1097 18.4922 49.7451 18.5949 49.4335 18.8004C49.1253 19.0026 48.8866 19.2678 48.7176 19.5959C48.5519 19.9207 48.469 20.2737 48.469 20.6548V21.5249C48.469 22.0353 48.5585 22.4695 48.7375 22.8274C48.9198 23.1854 49.1733 23.4588 49.4982 23.6477C49.823 23.8333 50.2025 23.9261 50.6366 23.9261C50.9184 23.9261 51.1752 23.8864 51.4072 23.8068C51.6393 23.724 51.8398 23.6013 52.0088 23.4389C52.1778 23.2765 52.3071 23.076 52.3966 22.8374L53.8036 23.0909C53.6909 23.5052 53.4887 23.8681 53.197 24.1797C52.9087 24.4879 52.5457 24.7282 52.1082 24.9006C51.6741 25.0696 51.1786 25.1541 50.6217 25.1541ZM58.9921 25.1392C58.5381 25.1326 58.0906 25.0497 57.6498 24.8906C57.2123 24.7315 56.8146 24.4664 56.4566 24.0952C56.0987 23.724 55.812 23.2251 55.5965 22.5987C55.3844 21.9723 55.2784 21.1901 55.2784 20.2521C55.2784 19.3639 55.3662 18.575 55.5419 17.8857C55.7208 17.1963 55.9777 16.6146 56.3124 16.1406C56.6472 15.6634 57.0516 15.3004 57.5255 15.0518C57.9995 14.8033 58.5314 14.679 59.1214 14.679C59.7279 14.679 60.2665 14.7983 60.7372 15.0369C61.2078 15.2756 61.589 15.6054 61.8806 16.0263C62.1756 16.4472 62.3629 16.9261 62.4424 17.4631H60.9261C60.8233 17.0388 60.6195 16.6925 60.3146 16.424C60.0097 16.1555 59.6119 16.0213 59.1214 16.0213C58.3757 16.0213 57.794 16.3461 57.3764 16.9957C56.9621 17.6454 56.7533 18.5485 56.7499 19.7053H56.8245C57.0002 19.4169 57.2156 19.1716 57.4708 18.9695C57.7294 18.764 58.0177 18.6065 58.3359 18.4972C58.6574 18.3845 58.9955 18.3281 59.3501 18.3281C59.9401 18.3281 60.4737 18.4723 60.9509 18.7607C61.4315 19.0457 61.8143 19.4401 62.0994 19.9439C62.3844 20.4477 62.5269 21.0244 62.5269 21.674C62.5269 22.3236 62.3794 22.9119 62.0845 23.4389C61.7928 23.9659 61.3818 24.3835 60.8515 24.6918C60.3212 24.9967 59.7014 25.1458 58.9921 25.1392ZM58.9872 23.8466C59.3783 23.8466 59.7279 23.7505 60.0362 23.5582C60.3444 23.366 60.588 23.1075 60.767 22.7827C60.946 22.4579 61.0355 22.0949 61.0355 21.6939C61.0355 21.3028 60.9476 20.9465 60.772 20.625C60.5996 20.3035 60.361 20.0483 60.0561 19.8594C59.7544 19.6705 59.4098 19.576 59.022 19.576C58.727 19.576 58.4535 19.6323 58.2017 19.745C57.9531 19.8577 57.7343 20.0135 57.5454 20.2124C57.3565 20.4112 57.2073 20.6399 57.098 20.8984C56.9919 21.1536 56.9389 21.4238 56.9389 21.7088C56.9389 22.09 57.0267 22.4429 57.2024 22.7678C57.3813 23.0926 57.6249 23.3544 57.9332 23.5533C58.2447 23.7488 58.5961 23.8466 58.9872 23.8466ZM67.7926 25.169C67.0071 25.1657 66.3359 24.9586 65.7791 24.5476C65.2223 24.1366 64.7964 23.5384 64.5014 22.7528C64.2064 21.9673 64.0589 21.0211 64.0589 19.9141C64.0589 18.8104 64.2064 17.8674 64.5014 17.0852C64.7997 16.303 65.2272 15.7064 65.7841 15.2955C66.3442 14.8845 67.0137 14.679 67.7926 14.679C68.5715 14.679 69.2393 14.8861 69.7961 15.3004C70.353 15.7114 70.7789 16.308 71.0738 17.0902C71.3721 17.8691 71.5213 18.8104 71.5213 19.9141C71.5213 21.0244 71.3738 21.9723 71.0788 22.7578C70.7838 23.54 70.3579 24.1383 69.8011 24.5526C69.2443 24.9635 68.5748 25.169 67.7926 25.169ZM67.7926 23.8416C68.482 23.8416 69.0206 23.5052 69.4084 22.8324C69.7994 22.1596 69.995 21.1868 69.995 19.9141C69.995 19.0689 69.9055 18.3546 69.7265 17.7713C69.5509 17.1847 69.2973 16.7405 68.9659 16.4389C68.6378 16.134 68.2467 15.9815 67.7926 15.9815C67.1065 15.9815 66.5679 16.3196 66.1768 16.9957C65.7857 17.6719 65.5885 18.6446 65.5852 19.9141C65.5852 20.7625 65.673 21.4801 65.8487 22.0668C66.0277 22.6501 66.2812 23.0926 66.6093 23.3942C66.9375 23.6925 67.3319 23.8416 67.7926 23.8416ZM76.7397 25.169C75.9542 25.1657 75.283 24.9586 74.7262 24.5476C74.1694 24.1366 73.7435 23.5384 73.4485 22.7528C73.1535 21.9673 73.006 21.0211 73.006 19.9141C73.006 18.8104 73.1535 17.8674 73.4485 17.0852C73.7468 16.303 74.1744 15.7064 74.7312 15.2955C75.2913 14.8845 75.9608 14.679 76.7397 14.679C77.5186 14.679 78.1864 14.8861 78.7432 15.3004C79.3001 15.7114 79.726 16.308 80.0209 17.0902C80.3192 17.8691 80.4684 18.8104 80.4684 19.9141C80.4684 21.0244 80.3209 21.9723 80.0259 22.7578C79.7309 23.54 79.305 24.1383 78.7482 24.5526C78.1914 24.9635 77.5219 25.169 76.7397 25.169ZM76.7397 23.8416C77.4291 23.8416 77.9677 23.5052 78.3555 22.8324C78.7466 22.1596 78.9421 21.1868 78.9421 19.9141C78.9421 19.0689 78.8526 18.3546 78.6736 17.7713C78.498 17.1847 78.2444 16.7405 77.913 16.4389C77.5849 16.134 77.1938 15.9815 76.7397 15.9815C76.0536 15.9815 75.515 16.3196 75.1239 16.9957C74.7328 17.6719 74.5356 18.6446 74.5323 19.9141C74.5323 20.7625 74.6201 21.4801 74.7958 22.0668C74.9748 22.6501 75.2283 23.0926 75.5565 23.3942C75.8846 23.6925 76.279 23.8416 76.7397 23.8416Z" fill="white"/>
</svg>
