<svg width="342" height="40" viewBox="0 0 342 40" fill="none" xmlns="http://www.w3.org/2000/svg">
<rect width="341.333" height="40" transform="translate(0.333496)" fill="#4B1D63"/>
<path d="M13.4521 25V14.8182H17.0814C17.8735 14.8182 18.5298 14.9624 19.0501 15.2507C19.5705 15.5391 19.9599 15.9335 20.2184 16.4339C20.477 16.9311 20.6062 17.4912 20.6062 18.1143C20.6062 18.7408 20.4753 19.3042 20.2135 19.8047C19.9549 20.3018 19.5638 20.6963 19.0402 20.9879C18.5198 21.2763 17.8652 21.4205 17.0764 21.4205H14.5807V20.1179H16.9372C17.4377 20.1179 17.8437 20.0317 18.1552 19.8594C18.4668 19.6837 18.6955 19.4451 18.8413 19.1435C18.9871 18.8419 19.0601 18.4988 19.0601 18.1143C19.0601 17.7299 18.9871 17.3885 18.8413 17.0902C18.6955 16.7919 18.4651 16.5582 18.1503 16.3892C17.8387 16.2202 17.4277 16.1357 16.9173 16.1357H14.9883V25H13.4521ZM27.1252 21.8331V17.3636H28.6167V25H27.1551V23.6776H27.0755C26.8998 24.0852 26.6181 24.425 26.2303 24.6967C25.8459 24.9652 25.3669 25.0994 24.7935 25.0994C24.303 25.0994 23.8688 24.9917 23.491 24.7763C23.1165 24.5575 22.8215 24.2344 22.606 23.8068C22.3939 23.3793 22.2879 22.8506 22.2879 22.2209V17.3636H23.7744V22.0419C23.7744 22.5623 23.9185 22.9766 24.2069 23.2848C24.4953 23.593 24.8698 23.7472 25.3305 23.7472C25.6089 23.7472 25.8856 23.6776 26.1607 23.5384C26.4391 23.3991 26.6695 23.1887 26.8518 22.907C27.0374 22.6252 27.1285 22.2673 27.1252 21.8331ZM30.614 25V17.3636H32.0508V18.5767H32.1304C32.2696 18.1657 32.5148 17.8426 32.8662 17.6072C33.2208 17.3686 33.6218 17.2493 34.0693 17.2493C34.1621 17.2493 34.2715 17.2526 34.3974 17.2592C34.5267 17.2659 34.6278 17.2741 34.7007 17.2841V18.706C34.641 18.6894 34.535 18.6712 34.3825 18.6513C34.23 18.6281 34.0776 18.6165 33.9251 18.6165C33.5738 18.6165 33.2606 18.6911 32.9855 18.8402C32.7137 18.986 32.4983 19.1899 32.3392 19.4517C32.1801 19.7102 32.1005 20.0052 32.1005 20.3366V25H30.614ZM35.9871 27.8636V17.3636H37.4388V18.6016H37.5631C37.6493 18.4425 37.7735 18.2585 37.9359 18.0497C38.0984 17.8409 38.3237 17.6586 38.6121 17.5028C38.9004 17.3438 39.2816 17.2642 39.7555 17.2642C40.372 17.2642 40.9222 17.42 41.4061 17.7315C41.89 18.0431 42.2695 18.4922 42.5446 19.0788C42.823 19.6655 42.9622 20.3714 42.9622 21.1967C42.9622 22.022 42.8247 22.7296 42.5496 23.3196C42.2745 23.9062 41.8966 24.3587 41.4161 24.6768C40.9355 24.9917 40.3869 25.1491 39.7705 25.1491C39.3064 25.1491 38.927 25.0713 38.632 24.9155C38.3403 24.7597 38.1116 24.5774 37.9459 24.3686C37.7802 24.1598 37.6526 23.9742 37.5631 23.8118H37.4736V27.8636H35.9871ZM37.4438 21.1818C37.4438 21.7187 37.5216 22.1894 37.6774 22.5938C37.8332 22.9981 38.0586 23.3146 38.3536 23.5433C38.6485 23.7687 39.0098 23.8814 39.4374 23.8814C39.8815 23.8814 40.2527 23.7637 40.551 23.5284C40.8493 23.2898 41.0747 22.9666 41.2271 22.5589C41.3829 22.1513 41.4608 21.6922 41.4608 21.1818C41.4608 20.678 41.3846 20.2256 41.2321 19.8246C41.083 19.4235 40.8576 19.107 40.556 18.875C40.2577 18.643 39.8848 18.527 39.4374 18.527C39.0065 18.527 38.6419 18.638 38.3436 18.8601C38.0486 19.0821 37.8249 19.392 37.6725 19.7898C37.52 20.1875 37.4438 20.6515 37.4438 21.1818ZM46.1142 14.8182V25H44.6277V14.8182H46.1142ZM51.4052 25.1541C50.6529 25.1541 50.0049 24.9934 49.4613 24.6719C48.9211 24.3471 48.5035 23.8913 48.2085 23.3047C47.9168 22.7147 47.771 22.0237 47.771 21.2315C47.771 20.4493 47.9168 19.7599 48.2085 19.1634C48.5035 18.5668 48.9145 18.1011 49.4415 17.7663C49.9718 17.4316 50.5915 17.2642 51.3008 17.2642C51.7317 17.2642 52.1493 17.3355 52.5537 17.478C52.958 17.6205 53.3209 17.8442 53.6424 18.1491C53.9639 18.4541 54.2175 18.8501 54.4031 19.3374C54.5887 19.8213 54.6815 20.4096 54.6815 21.1023V21.6293H48.6112V20.5156H53.2248C53.2248 20.1245 53.1453 19.7782 52.9862 19.4766C52.8271 19.1716 52.6034 18.9313 52.315 18.7557C52.03 18.58 51.6952 18.4922 51.3108 18.4922C50.8932 18.4922 50.5286 18.5949 50.217 18.8004C49.9088 19.0026 49.6701 19.2678 49.5011 19.5959C49.3354 19.9207 49.2525 20.2737 49.2525 20.6548V21.5249C49.2525 22.0353 49.342 22.4695 49.521 22.8274C49.7033 23.1854 49.9568 23.4588 50.2816 23.6477C50.6065 23.8333 50.986 23.9261 51.4201 23.9261C51.7019 23.9261 51.9587 23.8864 52.1907 23.8068C52.4227 23.724 52.6233 23.6013 52.7923 23.4389C52.9613 23.2765 53.0906 23.076 53.1801 22.8374L54.587 23.0909C54.4744 23.5052 54.2722 23.8681 53.9805 24.1797C53.6922 24.4879 53.3292 24.7282 52.8917 24.9006C52.4575 25.0696 51.962 25.1541 51.4052 25.1541ZM59.6966 14.679C60.1507 14.6823 60.5981 14.7652 61.0389 14.9276C61.4797 15.09 61.8775 15.3551 62.2321 15.723C62.5901 16.0909 62.8751 16.5881 63.0872 17.2145C63.3027 17.8376 63.412 18.6132 63.4154 19.5412C63.4154 20.4328 63.3259 21.2266 63.1469 21.9226C62.9679 22.6153 62.711 23.2003 62.3763 23.6776C62.0448 24.1548 61.6421 24.5178 61.1682 24.7663C60.6942 25.0149 60.1606 25.1392 59.5673 25.1392C58.9608 25.1392 58.4222 25.0199 57.9516 24.7812C57.4809 24.5426 57.0981 24.2128 56.8031 23.7919C56.5082 23.3677 56.3242 22.8804 56.2513 22.3303H57.7676C57.8671 22.7678 58.0692 23.1224 58.3742 23.3942C58.6824 23.6626 59.0801 23.7969 59.5673 23.7969C60.3131 23.7969 60.8948 23.4721 61.3124 22.8224C61.73 22.1695 61.9404 21.258 61.9438 20.0881H61.8642C61.6919 20.3731 61.4764 20.6184 61.2179 20.8239C60.9627 21.0294 60.676 21.1884 60.3578 21.3011C60.0396 21.4138 59.6999 21.4702 59.3386 21.4702C58.752 21.4702 58.2184 21.326 57.7378 21.0376C57.2572 20.7493 56.8744 20.3532 56.5894 19.8494C56.3043 19.3456 56.1618 18.7706 56.1618 18.1243C56.1618 17.4813 56.3076 16.898 56.5993 16.3743C56.8943 15.8506 57.3053 15.4363 57.8323 15.1314C58.3626 14.8232 58.984 14.6723 59.6966 14.679ZM59.7016 15.9716C59.3138 15.9716 58.9641 16.0677 58.6526 16.2599C58.3443 16.4489 58.1007 16.7057 57.9217 17.0305C57.7428 17.352 57.6533 17.71 57.6533 18.1044C57.6533 18.4988 57.7395 18.8568 57.9118 19.1783C58.0875 19.4964 58.3261 19.75 58.6277 19.9389C58.9326 20.1245 59.2806 20.2173 59.6717 20.2173C59.9634 20.2173 60.2352 20.161 60.4871 20.0483C60.739 19.9356 60.9594 19.7798 61.1483 19.581C61.3372 19.3788 61.4847 19.1501 61.5908 18.8949C61.6968 18.6397 61.7499 18.3712 61.7499 18.0895C61.7499 17.715 61.6604 17.367 61.4814 17.0455C61.3057 16.724 61.0638 16.4654 60.7555 16.2699C60.4473 16.071 60.096 15.9716 59.7016 15.9716ZM68.7561 25.169C67.9706 25.1657 67.2994 24.9586 66.7426 24.5476C66.1858 24.1366 65.7599 23.5384 65.4649 22.7528C65.1699 21.9673 65.0224 21.0211 65.0224 19.9141C65.0224 18.8104 65.1699 17.8674 65.4649 17.0852C65.7632 16.303 66.1907 15.7064 66.7476 15.2955C67.3077 14.8845 67.9772 14.679 68.7561 14.679C69.535 14.679 70.2028 14.8861 70.7596 15.3004C71.3165 15.7114 71.7424 16.308 72.0373 17.0902C72.3356 17.8691 72.4848 18.8104 72.4848 19.9141C72.4848 21.0244 72.3373 21.9723 72.0423 22.7578C71.7473 23.54 71.3214 24.1383 70.7646 24.5526C70.2078 24.9635 69.5383 25.169 68.7561 25.169ZM68.7561 23.8416C69.4455 23.8416 69.9841 23.5052 70.3718 22.8324C70.7629 22.1596 70.9585 21.1868 70.9585 19.9141C70.9585 19.0689 70.869 18.3546 70.69 17.7713C70.5144 17.1847 70.2608 16.7405 69.9294 16.4389C69.6013 16.134 69.2102 15.9815 68.7561 15.9815C68.07 15.9815 67.5314 16.3196 67.1403 16.9957C66.7492 17.6719 66.552 18.6446 66.5487 19.9141C66.5487 20.7625 66.6365 21.4801 66.8122 22.0668C66.9912 22.6501 67.2447 23.0926 67.5728 23.3942C67.901 23.6925 68.2954 23.8416 68.7561 23.8416ZM77.7932 25.169C77.0077 25.1657 76.3365 24.9586 75.7797 24.5476C75.2229 24.1366 74.797 23.5384 74.502 22.7528C74.207 21.9673 74.0595 21.0211 74.0595 19.9141C74.0595 18.8104 74.207 17.8674 74.502 17.0852C74.8003 16.303 75.2278 15.7064 75.7847 15.2955C76.3448 14.8845 77.0143 14.679 77.7932 14.679C78.5721 14.679 79.2399 14.8861 79.7967 15.3004C80.3536 15.7114 80.7795 16.308 81.0744 17.0902C81.3727 17.8691 81.5219 18.8104 81.5219 19.9141C81.5219 21.0244 81.3744 21.9723 81.0794 22.7578C80.7844 23.54 80.3585 24.1383 79.8017 24.5526C79.2449 24.9635 78.5754 25.169 77.7932 25.169ZM77.7932 23.8416C78.4826 23.8416 79.0212 23.5052 79.409 22.8324C79.8001 22.1596 79.9956 21.1868 79.9956 19.9141C79.9956 19.0689 79.9061 18.3546 79.7271 17.7713C79.5515 17.1847 79.2979 16.7405 78.9665 16.4389C78.6384 16.134 78.2473 15.9815 77.7932 15.9815C77.1071 15.9815 76.5685 16.3196 76.1774 16.9957C75.7863 17.6719 75.5891 18.6446 75.5858 19.9141C75.5858 20.7625 75.6736 21.4801 75.8493 22.0668C76.0283 22.6501 76.2818 23.0926 76.61 23.3942C76.9381 23.6925 77.3325 23.8416 77.7932 23.8416Z" fill="white"/>
</svg>
