<svg width="240" height="40" viewBox="0 0 240 40" fill="none" xmlns="http://www.w3.org/2000/svg">
<path d="M0 0H240V30C240 35.5228 235.523 40 230 40H10C4.47716 40 0 35.5228 0 30V0Z" fill="#29143A"/>
<path d="M13.1186 25V14.8182H16.7479C17.54 14.8182 18.1963 14.9624 18.7166 15.2507C19.237 15.5391 19.6264 15.9335 19.8849 16.4339C20.1435 16.9311 20.2727 17.4912 20.2727 18.1143C20.2727 18.7408 20.1418 19.3042 19.88 19.8047C19.6214 20.3018 19.2304 20.6963 18.7067 20.9879C18.1863 21.2763 17.5317 21.4205 16.7429 21.4205H14.2472V20.1179H16.6037C17.1042 20.1179 17.5102 20.0317 17.8217 19.8594C18.1333 19.6837 18.362 19.4451 18.5078 19.1435C18.6536 18.8419 18.7266 18.4988 18.7266 18.1143C18.7266 17.7299 18.6536 17.3885 18.5078 17.0902C18.362 16.7919 18.1316 16.5582 17.8168 16.3892C17.5052 16.2202 17.0942 16.1357 16.5838 16.1357H14.6548V25H13.1186ZM26.7017 21.8331V17.3636H28.1932V25H26.7316V23.6776H26.652C26.4763 24.0852 26.1946 24.425 25.8068 24.6967C25.4224 24.9652 24.9434 25.0994 24.37 25.0994C23.8795 25.0994 23.4453 24.9917 23.0675 24.7763C22.693 24.5575 22.398 24.2344 22.1825 23.8068C21.9704 23.3793 21.8644 22.8506 21.8644 22.2209V17.3636H23.3509V22.0419C23.3509 22.5623 23.495 22.9766 23.7834 23.2848C24.0718 23.593 24.4463 23.7472 24.907 23.7472C25.1854 23.7472 25.4621 23.6776 25.7372 23.5384C26.0156 23.3991 26.246 23.1887 26.4283 22.907C26.6139 22.6252 26.705 22.2673 26.7017 21.8331ZM30.1005 25V17.3636H31.5373V18.5767H31.6169C31.7561 18.1657 32.0013 17.8426 32.3527 17.6072C32.7073 17.3686 33.1084 17.2493 33.5558 17.2493C33.6486 17.2493 33.758 17.2526 33.8839 17.2592C34.0132 17.2659 34.1143 17.2741 34.1872 17.2841V18.706C34.1275 18.6894 34.0215 18.6712 33.869 18.6513C33.7165 18.6281 33.5641 18.6165 33.4116 18.6165C33.0603 18.6165 32.7471 18.6911 32.472 18.8402C32.2002 18.986 31.9848 19.1899 31.8257 19.4517C31.6666 19.7102 31.587 20.0052 31.587 20.3366V25H30.1005ZM35.3836 27.8636V17.3636H36.8353V18.6016H36.9596C37.0458 18.4425 37.17 18.2585 37.3324 18.0497C37.4949 17.8409 37.7202 17.6586 38.0086 17.5028C38.2969 17.3438 38.6781 17.2642 39.1521 17.2642C39.7685 17.2642 40.3187 17.42 40.8026 17.7315C41.2865 18.0431 41.666 18.4922 41.9411 19.0788C42.2195 19.6655 42.3587 20.3714 42.3587 21.1967C42.3587 22.022 42.2212 22.7296 41.9461 23.3196C41.671 23.9062 41.2932 24.3587 40.8126 24.6768C40.332 24.9917 39.7834 25.1491 39.167 25.1491C38.703 25.1491 38.3235 25.0713 38.0285 24.9155C37.7368 24.7597 37.5081 24.5774 37.3424 24.3686C37.1767 24.1598 37.0491 23.9742 36.9596 23.8118H36.8701V27.8636H35.3836ZM36.8403 21.1818C36.8403 21.7187 36.9182 22.1894 37.0739 22.5938C37.2297 22.9981 37.4551 23.3146 37.7501 23.5433C38.045 23.7687 38.4063 23.8814 38.8339 23.8814C39.278 23.8814 39.6492 23.7637 39.9475 23.5284C40.2458 23.2898 40.4712 22.9666 40.6236 22.5589C40.7794 22.1513 40.8573 21.6922 40.8573 21.1818C40.8573 20.678 40.7811 20.2256 40.6286 19.8246C40.4795 19.4235 40.2541 19.107 39.9525 18.875C39.6542 18.643 39.2813 18.527 38.8339 18.527C38.403 18.527 38.0384 18.638 37.7401 18.8601C37.4451 19.0821 37.2214 19.392 37.069 19.7898C36.9165 20.1875 36.8403 20.6515 36.8403 21.1818ZM45.4207 14.8182V25H43.9342V14.8182H45.4207ZM50.6217 25.1541C49.8694 25.1541 49.2214 24.9934 48.6778 24.6719C48.1376 24.3471 47.72 23.8913 47.425 23.3047C47.1333 22.7147 46.9875 22.0237 46.9875 21.2315C46.9875 20.4493 47.1333 19.7599 47.425 19.1634C47.72 18.5668 48.131 18.1011 48.658 17.7663C49.1883 17.4316 49.808 17.2642 50.5173 17.2642C50.9482 17.2642 51.3658 17.3355 51.7702 17.478C52.1745 17.6205 52.5375 17.8442 52.8589 18.1491C53.1804 18.4541 53.434 18.8501 53.6196 19.3374C53.8052 19.8213 53.898 20.4096 53.898 21.1023V21.6293H47.8277V20.5156H52.4413C52.4413 20.1245 52.3618 19.7782 52.2027 19.4766C52.0436 19.1716 51.8199 18.9313 51.5315 18.7557C51.2465 18.58 50.9117 18.4922 50.5273 18.4922C50.1097 18.4922 49.7451 18.5949 49.4335 18.8004C49.1253 19.0026 48.8866 19.2678 48.7176 19.5959C48.5519 19.9207 48.469 20.2737 48.469 20.6548V21.5249C48.469 22.0353 48.5585 22.4695 48.7375 22.8274C48.9198 23.1854 49.1733 23.4588 49.4982 23.6477C49.823 23.8333 50.2025 23.9261 50.6366 23.9261C50.9184 23.9261 51.1752 23.8864 51.4072 23.8068C51.6393 23.724 51.8398 23.6013 52.0088 23.4389C52.1778 23.2765 52.3071 23.076 52.3966 22.8374L53.8036 23.0909C53.6909 23.5052 53.4887 23.8681 53.197 24.1797C52.9087 24.4879 52.5457 24.7282 52.1082 24.9006C51.6741 25.0696 51.1786 25.1541 50.6217 25.1541ZM59.3004 14.8182V25H57.7592V16.3594H57.6995L55.2634 17.9503V16.4787L57.8039 14.8182H59.3004ZM65.5094 25.169C64.7239 25.1657 64.0527 24.9586 63.4959 24.5476C62.9391 24.1366 62.5132 23.5384 62.2182 22.7528C61.9232 21.9673 61.7757 21.0211 61.7757 19.9141C61.7757 18.8104 61.9232 17.8674 62.2182 17.0852C62.5165 16.303 62.944 15.7064 63.5009 15.2955C64.061 14.8845 64.7305 14.679 65.5094 14.679C66.2883 14.679 66.9561 14.8861 67.5129 15.3004C68.0698 15.7114 68.4957 16.308 68.7906 17.0902C69.0889 17.8691 69.2381 18.8104 69.2381 19.9141C69.2381 21.0244 69.0906 21.9723 68.7956 22.7578C68.5006 23.54 68.0747 24.1383 67.5179 24.5526C66.9611 24.9635 66.2916 25.169 65.5094 25.169ZM65.5094 23.8416C66.1988 23.8416 66.7374 23.5052 67.1251 22.8324C67.5162 22.1596 67.7118 21.1868 67.7118 19.9141C67.7118 19.0689 67.6223 18.3546 67.4433 17.7713C67.2677 17.1847 67.0141 16.7405 66.6827 16.4389C66.3546 16.134 65.9635 15.9815 65.5094 15.9815C64.8233 15.9815 64.2847 16.3196 63.8936 16.9957C63.5025 17.6719 63.3053 18.6446 63.302 19.9141C63.302 20.7625 63.3898 21.4801 63.5655 22.0668C63.7445 22.6501 63.998 23.0926 64.3261 23.3942C64.6543 23.6925 65.0487 23.8416 65.5094 23.8416ZM74.4565 25.169C73.671 25.1657 72.9998 24.9586 72.443 24.5476C71.8862 24.1366 71.4603 23.5384 71.1653 22.7528C70.8703 21.9673 70.7228 21.0211 70.7228 19.9141C70.7228 18.8104 70.8703 17.8674 71.1653 17.0852C71.4636 16.303 71.8911 15.7064 72.448 15.2955C73.0081 14.8845 73.6776 14.679 74.4565 14.679C75.2354 14.679 75.9032 14.8861 76.46 15.3004C77.0169 15.7114 77.4428 16.308 77.7377 17.0902C78.036 17.8691 78.1852 18.8104 78.1852 19.9141C78.1852 21.0244 78.0377 21.9723 77.7427 22.7578C77.4477 23.54 77.0218 24.1383 76.465 24.5526C75.9082 24.9635 75.2387 25.169 74.4565 25.169ZM74.4565 23.8416C75.1459 23.8416 75.6845 23.5052 76.0723 22.8324C76.4634 22.1596 76.6589 21.1868 76.6589 19.9141C76.6589 19.0689 76.5694 18.3546 76.3904 17.7713C76.2148 17.1847 75.9612 16.7405 75.6298 16.4389C75.3017 16.134 74.9106 15.9815 74.4565 15.9815C73.7704 15.9815 73.2318 16.3196 72.8407 16.9957C72.4496 17.6719 72.2524 18.6446 72.2491 19.9141C72.2491 20.7625 72.3369 21.4801 72.5126 22.0668C72.6916 22.6501 72.9451 23.0926 73.2733 23.3942C73.6014 23.6925 73.9958 23.8416 74.4565 23.8416ZM83.4036 25.169C82.6181 25.1657 81.9469 24.9586 81.3901 24.5476C80.8333 24.1366 80.4074 23.5384 80.1124 22.7528C79.8174 21.9673 79.6699 21.0211 79.6699 19.9141C79.6699 18.8104 79.8174 17.8674 80.1124 17.0852C80.4107 16.303 80.8383 15.7064 81.3951 15.2955C81.9552 14.8845 82.6247 14.679 83.4036 14.679C84.1825 14.679 84.8503 14.8861 85.4072 15.3004C85.964 15.7114 86.3899 16.308 86.6849 17.0902C86.9831 17.8691 87.1323 18.8104 87.1323 19.9141C87.1323 21.0244 86.9848 21.9723 86.6898 22.7578C86.3948 23.54 85.9689 24.1383 85.4121 24.5526C84.8553 24.9635 84.1858 25.169 83.4036 25.169ZM83.4036 23.8416C84.093 23.8416 84.6316 23.5052 85.0194 22.8324C85.4105 22.1596 85.606 21.1868 85.606 19.9141C85.606 19.0689 85.5165 18.3546 85.3376 17.7713C85.1619 17.1847 84.9083 16.7405 84.5769 16.4389C84.2488 16.134 83.8577 15.9815 83.4036 15.9815C82.7175 15.9815 82.1789 16.3196 81.7878 16.9957C81.3967 17.6719 81.1995 18.6446 81.1962 19.9141C81.1962 20.7625 81.284 21.4801 81.4597 22.0668C81.6387 22.6501 81.8922 23.0926 82.2204 23.3942C82.5485 23.6925 82.9429 23.8416 83.4036 23.8416Z" fill="white"/>
</svg>
