<svg width="342" height="40" viewBox="0 0 342 40" fill="none" xmlns="http://www.w3.org/2000/svg">
<rect width="341.333" height="40" transform="translate(0.333496)" fill="#F6E8FC"/>
<path d="M13.4521 25V14.8182H17.0814C17.8735 14.8182 18.5298 14.9624 19.0501 15.2507C19.5705 15.5391 19.9599 15.9335 20.2184 16.4339C20.477 16.9311 20.6062 17.4912 20.6062 18.1143C20.6062 18.7408 20.4753 19.3042 20.2135 19.8047C19.9549 20.3018 19.5638 20.6963 19.0402 20.9879C18.5198 21.2763 17.8652 21.4205 17.0764 21.4205H14.5807V20.1179H16.9372C17.4377 20.1179 17.8437 20.0317 18.1552 19.8594C18.4668 19.6837 18.6955 19.4451 18.8413 19.1435C18.9871 18.8419 19.0601 18.4988 19.0601 18.1143C19.0601 17.7299 18.9871 17.3885 18.8413 17.0902C18.6955 16.7919 18.4651 16.5582 18.1503 16.3892C17.8387 16.2202 17.4277 16.1357 16.9173 16.1357H14.9883V25H13.4521ZM27.1252 21.8331V17.3636H28.6167V25H27.1551V23.6776H27.0755C26.8998 24.0852 26.6181 24.425 26.2303 24.6967C25.8459 24.9652 25.3669 25.0994 24.7935 25.0994C24.303 25.0994 23.8688 24.9917 23.491 24.7763C23.1165 24.5575 22.8215 24.2344 22.606 23.8068C22.3939 23.3793 22.2879 22.8506 22.2879 22.2209V17.3636H23.7744V22.0419C23.7744 22.5623 23.9185 22.9766 24.2069 23.2848C24.4953 23.593 24.8698 23.7472 25.3305 23.7472C25.6089 23.7472 25.8856 23.6776 26.1607 23.5384C26.4391 23.3991 26.6695 23.1887 26.8518 22.907C27.0374 22.6252 27.1285 22.2673 27.1252 21.8331ZM30.614 25V17.3636H32.0508V18.5767H32.1304C32.2696 18.1657 32.5148 17.8426 32.8662 17.6072C33.2208 17.3686 33.6218 17.2493 34.0693 17.2493C34.1621 17.2493 34.2715 17.2526 34.3974 17.2592C34.5267 17.2659 34.6278 17.2741 34.7007 17.2841V18.706C34.641 18.6894 34.535 18.6712 34.3825 18.6513C34.23 18.6281 34.0776 18.6165 33.9251 18.6165C33.5738 18.6165 33.2606 18.6911 32.9855 18.8402C32.7137 18.986 32.4983 19.1899 32.3392 19.4517C32.1801 19.7102 32.1005 20.0052 32.1005 20.3366V25H30.614ZM35.9871 27.8636V17.3636H37.4388V18.6016H37.5631C37.6493 18.4425 37.7735 18.2585 37.9359 18.0497C38.0984 17.8409 38.3237 17.6586 38.6121 17.5028C38.9004 17.3438 39.2816 17.2642 39.7555 17.2642C40.372 17.2642 40.9222 17.42 41.4061 17.7315C41.89 18.0431 42.2695 18.4922 42.5446 19.0788C42.823 19.6655 42.9622 20.3714 42.9622 21.1967C42.9622 22.022 42.8247 22.7296 42.5496 23.3196C42.2745 23.9062 41.8966 24.3587 41.4161 24.6768C40.9355 24.9917 40.3869 25.1491 39.7705 25.1491C39.3064 25.1491 38.927 25.0713 38.632 24.9155C38.3403 24.7597 38.1116 24.5774 37.9459 24.3686C37.7802 24.1598 37.6526 23.9742 37.5631 23.8118H37.4736V27.8636H35.9871ZM37.4438 21.1818C37.4438 21.7187 37.5216 22.1894 37.6774 22.5938C37.8332 22.9981 38.0586 23.3146 38.3536 23.5433C38.6485 23.7687 39.0098 23.8814 39.4374 23.8814C39.8815 23.8814 40.2527 23.7637 40.551 23.5284C40.8493 23.2898 41.0747 22.9666 41.2271 22.5589C41.3829 22.1513 41.4608 21.6922 41.4608 21.1818C41.4608 20.678 41.3846 20.2256 41.2321 19.8246C41.083 19.4235 40.8576 19.107 40.556 18.875C40.2577 18.643 39.8848 18.527 39.4374 18.527C39.0065 18.527 38.6419 18.638 38.3436 18.8601C38.0486 19.0821 37.8249 19.392 37.6725 19.7898C37.52 20.1875 37.4438 20.6515 37.4438 21.1818ZM46.1142 14.8182V25H44.6277V14.8182H46.1142ZM51.4052 25.1541C50.6529 25.1541 50.0049 24.9934 49.4613 24.6719C48.9211 24.3471 48.5035 23.8913 48.2085 23.3047C47.9168 22.7147 47.771 22.0237 47.771 21.2315C47.771 20.4493 47.9168 19.7599 48.2085 19.1634C48.5035 18.5668 48.9145 18.1011 49.4415 17.7663C49.9718 17.4316 50.5915 17.2642 51.3008 17.2642C51.7317 17.2642 52.1493 17.3355 52.5537 17.478C52.958 17.6205 53.3209 17.8442 53.6424 18.1491C53.9639 18.4541 54.2175 18.8501 54.4031 19.3374C54.5887 19.8213 54.6815 20.4096 54.6815 21.1023V21.6293H48.6112V20.5156H53.2248C53.2248 20.1245 53.1453 19.7782 52.9862 19.4766C52.8271 19.1716 52.6034 18.9313 52.315 18.7557C52.03 18.58 51.6952 18.4922 51.3108 18.4922C50.8932 18.4922 50.5286 18.5949 50.217 18.8004C49.9088 19.0026 49.6701 19.2678 49.5011 19.5959C49.3354 19.9207 49.2525 20.2737 49.2525 20.6548V21.5249C49.2525 22.0353 49.342 22.4695 49.521 22.8274C49.7033 23.1854 49.9568 23.4588 50.2816 23.6477C50.6065 23.8333 50.986 23.9261 51.4201 23.9261C51.7019 23.9261 51.9587 23.8864 52.1907 23.8068C52.4227 23.724 52.6233 23.6013 52.7923 23.4389C52.9613 23.2765 53.0906 23.076 53.1801 22.8374L54.587 23.0909C54.4744 23.5052 54.2722 23.8681 53.9805 24.1797C53.6922 24.4879 53.3292 24.7282 52.8917 24.9006C52.4575 25.0696 51.962 25.1541 51.4052 25.1541ZM60.1739 14.8182V25H58.6327V16.3594H58.573L56.1369 17.9503V16.4787L58.6774 14.8182H60.1739ZM66.4729 25.169C65.6874 25.1657 65.0162 24.9586 64.4594 24.5476C63.9026 24.1366 63.4767 23.5384 63.1817 22.7528C62.8867 21.9673 62.7392 21.0211 62.7392 19.9141C62.7392 18.8104 62.8867 17.8674 63.1817 17.0852C63.48 16.303 63.9075 15.7064 64.4644 15.2955C65.0245 14.8845 65.694 14.679 66.4729 14.679C67.2518 14.679 67.9196 14.8861 68.4764 15.3004C69.0332 15.7114 69.4591 16.308 69.7541 17.0902C70.0524 17.8691 70.2016 18.8104 70.2016 19.9141C70.2016 21.0244 70.0541 21.9723 69.7591 22.7578C69.4641 23.54 69.0382 24.1383 68.4814 24.5526C67.9246 24.9635 67.2551 25.169 66.4729 25.169ZM66.4729 23.8416C67.1623 23.8416 67.7009 23.5052 68.0886 22.8324C68.4797 22.1596 68.6753 21.1868 68.6753 19.9141C68.6753 19.0689 68.5858 18.3546 68.4068 17.7713C68.2312 17.1847 67.9776 16.7405 67.6462 16.4389C67.318 16.134 66.927 15.9815 66.4729 15.9815C65.7868 15.9815 65.2482 16.3196 64.8571 16.9957C64.466 17.6719 64.2688 18.6446 64.2655 19.9141C64.2655 20.7625 64.3533 21.4801 64.529 22.0668C64.708 22.6501 64.9615 23.0926 65.2896 23.3942C65.6178 23.6925 66.0122 23.8416 66.4729 23.8416ZM75.51 25.169C74.7245 25.1657 74.0533 24.9586 73.4965 24.5476C72.9397 24.1366 72.5138 23.5384 72.2188 22.7528C71.9238 21.9673 71.7763 21.0211 71.7763 19.9141C71.7763 18.8104 71.9238 17.8674 72.2188 17.0852C72.5171 16.303 72.9446 15.7064 73.5015 15.2955C74.0616 14.8845 74.7311 14.679 75.51 14.679C76.2889 14.679 76.9567 14.8861 77.5135 15.3004C78.0704 15.7114 78.4963 16.308 78.7912 17.0902C79.0895 17.8691 79.2387 18.8104 79.2387 19.9141C79.2387 21.0244 79.0912 21.9723 78.7962 22.7578C78.5012 23.54 78.0753 24.1383 77.5185 24.5526C76.9617 24.9635 76.2922 25.169 75.51 25.169ZM75.51 23.8416C76.1994 23.8416 76.738 23.5052 77.1258 22.8324C77.5169 22.1596 77.7124 21.1868 77.7124 19.9141C77.7124 19.0689 77.6229 18.3546 77.4439 17.7713C77.2683 17.1847 77.0147 16.7405 76.6833 16.4389C76.3552 16.134 75.9641 15.9815 75.51 15.9815C74.8239 15.9815 74.2853 16.3196 73.8942 16.9957C73.5031 17.6719 73.3059 18.6446 73.3026 19.9141C73.3026 20.7625 73.3904 21.4801 73.5661 22.0668C73.7451 22.6501 73.9986 23.0926 74.3267 23.3942C74.6549 23.6925 75.0493 23.8416 75.51 23.8416Z" fill="#0A0A0B"/>
</svg>
