<svg width="240" height="40" viewBox="0 0 240 40" fill="none" xmlns="http://www.w3.org/2000/svg">
<rect width="240" height="40" fill="#7728B9"/>
<path d="M13.1186 25V14.8182H16.7479C17.54 14.8182 18.1963 14.9624 18.7166 15.2507C19.237 15.5391 19.6264 15.9335 19.8849 16.4339C20.1435 16.9311 20.2727 17.4912 20.2727 18.1143C20.2727 18.7408 20.1418 19.3042 19.88 19.8047C19.6214 20.3018 19.2304 20.6963 18.7067 20.9879C18.1863 21.2763 17.5317 21.4205 16.7429 21.4205H14.2472V20.1179H16.6037C17.1042 20.1179 17.5102 20.0317 17.8217 19.8594C18.1333 19.6837 18.362 19.4451 18.5078 19.1435C18.6536 18.8419 18.7266 18.4988 18.7266 18.1143C18.7266 17.7299 18.6536 17.3885 18.5078 17.0902C18.362 16.7919 18.1316 16.5582 17.8168 16.3892C17.5052 16.2202 17.0942 16.1357 16.5838 16.1357H14.6548V25H13.1186ZM26.7017 21.8331V17.3636H28.1932V25H26.7316V23.6776H26.652C26.4763 24.0852 26.1946 24.425 25.8068 24.6967C25.4224 24.9652 24.9434 25.0994 24.37 25.0994C23.8795 25.0994 23.4453 24.9917 23.0675 24.7763C22.693 24.5575 22.398 24.2344 22.1825 23.8068C21.9704 23.3793 21.8644 22.8506 21.8644 22.2209V17.3636H23.3509V22.0419C23.3509 22.5623 23.495 22.9766 23.7834 23.2848C24.0718 23.593 24.4463 23.7472 24.907 23.7472C25.1854 23.7472 25.4621 23.6776 25.7372 23.5384C26.0156 23.3991 26.246 23.1887 26.4283 22.907C26.6139 22.6252 26.705 22.2673 26.7017 21.8331ZM30.1005 25V17.3636H31.5373V18.5767H31.6169C31.7561 18.1657 32.0013 17.8426 32.3527 17.6072C32.7073 17.3686 33.1084 17.2493 33.5558 17.2493C33.6486 17.2493 33.758 17.2526 33.8839 17.2592C34.0132 17.2659 34.1143 17.2741 34.1872 17.2841V18.706C34.1275 18.6894 34.0215 18.6712 33.869 18.6513C33.7165 18.6281 33.5641 18.6165 33.4116 18.6165C33.0603 18.6165 32.7471 18.6911 32.472 18.8402C32.2002 18.986 31.9848 19.1899 31.8257 19.4517C31.6666 19.7102 31.587 20.0052 31.587 20.3366V25H30.1005ZM35.3836 27.8636V17.3636H36.8353V18.6016H36.9596C37.0458 18.4425 37.17 18.2585 37.3324 18.0497C37.4949 17.8409 37.7202 17.6586 38.0086 17.5028C38.2969 17.3438 38.6781 17.2642 39.1521 17.2642C39.7685 17.2642 40.3187 17.42 40.8026 17.7315C41.2865 18.0431 41.666 18.4922 41.9411 19.0788C42.2195 19.6655 42.3587 20.3714 42.3587 21.1967C42.3587 22.022 42.2212 22.7296 41.9461 23.3196C41.671 23.9062 41.2932 24.3587 40.8126 24.6768C40.332 24.9917 39.7834 25.1491 39.167 25.1491C38.703 25.1491 38.3235 25.0713 38.0285 24.9155C37.7368 24.7597 37.5081 24.5774 37.3424 24.3686C37.1767 24.1598 37.0491 23.9742 36.9596 23.8118H36.8701V27.8636H35.3836ZM36.8403 21.1818C36.8403 21.7187 36.9182 22.1894 37.0739 22.5938C37.2297 22.9981 37.4551 23.3146 37.7501 23.5433C38.045 23.7687 38.4063 23.8814 38.8339 23.8814C39.278 23.8814 39.6492 23.7637 39.9475 23.5284C40.2458 23.2898 40.4712 22.9666 40.6236 22.5589C40.7794 22.1513 40.8573 21.6922 40.8573 21.1818C40.8573 20.678 40.7811 20.2256 40.6286 19.8246C40.4795 19.4235 40.2541 19.107 39.9525 18.875C39.6542 18.643 39.2813 18.527 38.8339 18.527C38.403 18.527 38.0384 18.638 37.7401 18.8601C37.4451 19.0821 37.2214 19.392 37.069 19.7898C36.9165 20.1875 36.8403 20.6515 36.8403 21.1818ZM45.4207 14.8182V25H43.9342V14.8182H45.4207ZM50.6217 25.1541C49.8694 25.1541 49.2214 24.9934 48.6778 24.6719C48.1376 24.3471 47.72 23.8913 47.425 23.3047C47.1333 22.7147 46.9875 22.0237 46.9875 21.2315C46.9875 20.4493 47.1333 19.7599 47.425 19.1634C47.72 18.5668 48.131 18.1011 48.658 17.7663C49.1883 17.4316 49.808 17.2642 50.5173 17.2642C50.9482 17.2642 51.3658 17.3355 51.7702 17.478C52.1745 17.6205 52.5375 17.8442 52.8589 18.1491C53.1804 18.4541 53.434 18.8501 53.6196 19.3374C53.8052 19.8213 53.898 20.4096 53.898 21.1023V21.6293H47.8277V20.5156H52.4413C52.4413 20.1245 52.3618 19.7782 52.2027 19.4766C52.0436 19.1716 51.8199 18.9313 51.5315 18.7557C51.2465 18.58 50.9117 18.4922 50.5273 18.4922C50.1097 18.4922 49.7451 18.5949 49.4335 18.8004C49.1253 19.0026 48.8866 19.2678 48.7176 19.5959C48.5519 19.9207 48.469 20.2737 48.469 20.6548V21.5249C48.469 22.0353 48.5585 22.4695 48.7375 22.8274C48.9198 23.1854 49.1733 23.4588 49.4982 23.6477C49.823 23.8333 50.2025 23.9261 50.6366 23.9261C50.9184 23.9261 51.1752 23.8864 51.4072 23.8068C51.6393 23.724 51.8398 23.6013 52.0088 23.4389C52.1778 23.2765 52.3071 23.076 52.3966 22.8374L53.8036 23.0909C53.6909 23.5052 53.4887 23.8681 53.197 24.1797C52.9087 24.4879 52.5457 24.7282 52.1082 24.9006C51.6741 25.0696 51.1786 25.1541 50.6217 25.1541ZM55.7805 25L60.2251 16.2102V16.1357H55.0845V14.8182H61.816V16.1804L57.3863 25H55.7805ZM66.7809 25.169C65.9954 25.1657 65.3242 24.9586 64.7674 24.5476C64.2106 24.1366 63.7847 23.5384 63.4897 22.7528C63.1947 21.9673 63.0472 21.0211 63.0472 19.9141C63.0472 18.8104 63.1947 17.8674 63.4897 17.0852C63.788 16.303 64.2155 15.7064 64.7723 15.2955C65.3325 14.8845 66.002 14.679 66.7809 14.679C67.5597 14.679 68.2276 14.8861 68.7844 15.3004C69.3412 15.7114 69.7671 16.308 70.0621 17.0902C70.3604 17.8691 70.5096 18.8104 70.5096 19.9141C70.5096 21.0244 70.3621 21.9723 70.0671 22.7578C69.7721 23.54 69.3462 24.1383 68.7894 24.5526C68.2326 24.9635 67.5631 25.169 66.7809 25.169ZM66.7809 23.8416C67.4703 23.8416 68.0088 23.5052 68.3966 22.8324C68.7877 22.1596 68.9833 21.1868 68.9833 19.9141C68.9833 19.0689 68.8938 18.3546 68.7148 17.7713C68.5392 17.1847 68.2856 16.7405 67.9542 16.4389C67.626 16.134 67.2349 15.9815 66.7809 15.9815C66.0948 15.9815 65.5562 16.3196 65.1651 16.9957C64.774 17.6719 64.5768 18.6446 64.5735 19.9141C64.5735 20.7625 64.6613 21.4801 64.837 22.0668C65.016 22.6501 65.2695 23.0926 65.5976 23.3942C65.9258 23.6925 66.3202 23.8416 66.7809 23.8416ZM75.728 25.169C74.9425 25.1657 74.2713 24.9586 73.7145 24.5476C73.1577 24.1366 72.7318 23.5384 72.4368 22.7528C72.1418 21.9673 71.9943 21.0211 71.9943 19.9141C71.9943 18.8104 72.1418 17.8674 72.4368 17.0852C72.7351 16.303 73.1626 15.7064 73.7195 15.2955C74.2796 14.8845 74.9491 14.679 75.728 14.679C76.5069 14.679 77.1747 14.8861 77.7315 15.3004C78.2883 15.7114 78.7142 16.308 79.0092 17.0902C79.3075 17.8691 79.4567 18.8104 79.4567 19.9141C79.4567 21.0244 79.3092 21.9723 79.0142 22.7578C78.7192 23.54 78.2933 24.1383 77.7365 24.5526C77.1797 24.9635 76.5102 25.169 75.728 25.169ZM75.728 23.8416C76.4174 23.8416 76.956 23.5052 77.3437 22.8324C77.7348 22.1596 77.9304 21.1868 77.9304 19.9141C77.9304 19.0689 77.8409 18.3546 77.6619 17.7713C77.4863 17.1847 77.2327 16.7405 76.9013 16.4389C76.5731 16.134 76.182 15.9815 75.728 15.9815C75.0419 15.9815 74.5033 16.3196 74.1122 16.9957C73.7211 17.6719 73.5239 18.6446 73.5206 19.9141C73.5206 20.7625 73.6084 21.4801 73.7841 22.0668C73.9631 22.6501 74.2166 23.0926 74.5447 23.3942C74.8729 23.6925 75.2673 23.8416 75.728 23.8416Z" fill="white"/>
</svg>
