<svg width="240" height="40" viewBox="0 0 240 40" fill="none" xmlns="http://www.w3.org/2000/svg">
<path d="M0 10C0 4.47715 4.47715 0 10 0H230C235.523 0 240 4.47715 240 10V40H0V10Z" fill="#FFEDEB"/>
<path d="M13.1186 25V14.8182H16.7479C17.5367 14.8182 18.1913 14.9541 18.7116 15.2259C19.2353 15.4976 19.6264 15.8738 19.8849 16.3544C20.1435 16.8317 20.2727 17.3835 20.2727 18.0099C20.2727 18.633 20.1418 19.1816 19.88 19.6555C19.6214 20.1262 19.2304 20.4924 18.7067 20.7543C18.1863 21.0161 17.5317 21.147 16.7429 21.147H13.9936V19.8246H16.6037C17.1009 19.8246 17.5052 19.7533 17.8168 19.6108C18.1316 19.4683 18.362 19.2611 18.5078 18.9893C18.6536 18.7176 18.7266 18.3911 18.7266 18.0099C18.7266 17.6255 18.652 17.2924 18.5028 17.0107C18.357 16.7289 18.1267 16.5135 17.8118 16.3643C17.5002 16.2119 17.0909 16.1357 16.5838 16.1357H14.6548V25H13.1186ZM18.1449 20.4062L20.6605 25H18.9105L16.4446 20.4062H18.1449ZM25.1282 25.1541C24.3758 25.1541 23.7279 24.9934 23.1843 24.6719C22.6441 24.3471 22.2265 23.8913 21.9315 23.3047C21.6398 22.7147 21.494 22.0237 21.494 21.2315C21.494 20.4493 21.6398 19.7599 21.9315 19.1634C22.2265 18.5668 22.6375 18.1011 23.1644 17.7663C23.6947 17.4316 24.3145 17.2642 25.0238 17.2642C25.4547 17.2642 25.8723 17.3355 26.2767 17.478C26.681 17.6205 27.0439 17.8442 27.3654 18.1491C27.6869 18.4541 27.9405 18.8501 28.1261 19.3374C28.3117 19.8213 28.4045 20.4096 28.4045 21.1023V21.6293H22.3342V20.5156H26.9478C26.9478 20.1245 26.8683 19.7782 26.7092 19.4766C26.5501 19.1716 26.3264 18.9313 26.038 18.7557C25.753 18.58 25.4182 18.4922 25.0338 18.4922C24.6161 18.4922 24.2516 18.5949 23.94 18.8004C23.6318 19.0026 23.3931 19.2678 23.2241 19.5959C23.0584 19.9207 22.9755 20.2737 22.9755 20.6548V21.5249C22.9755 22.0353 23.065 22.4695 23.244 22.8274C23.4263 23.1854 23.6798 23.4588 24.0046 23.6477C24.3294 23.8333 24.7089 23.9261 25.1431 23.9261C25.4249 23.9261 25.6817 23.8864 25.9137 23.8068C26.1457 23.724 26.3463 23.6013 26.5153 23.4389C26.6843 23.2765 26.8136 23.076 26.9031 22.8374L28.31 23.0909C28.1973 23.5052 27.9952 23.8681 27.7035 24.1797C27.4151 24.4879 27.0522 24.7282 26.6147 24.9006C26.1805 25.0696 25.685 25.1541 25.1282 25.1541ZM32.8225 25.1491C32.206 25.1491 31.6558 24.9917 31.1719 24.6768C30.6913 24.3587 30.3135 23.9062 30.0384 23.3196C29.7666 22.7296 29.6307 22.022 29.6307 21.1967C29.6307 20.3714 29.7683 19.6655 30.0434 19.0788C30.3218 18.4922 30.7029 18.0431 31.1868 17.7315C31.6707 17.42 32.2193 17.2642 32.8324 17.2642C33.3064 17.2642 33.6875 17.3438 33.9759 17.5028C34.2676 17.6586 34.4929 17.8409 34.652 18.0497C34.8144 18.2585 34.9404 18.4425 35.0299 18.6016H35.1194V14.8182H36.6059V25H35.1542V23.8118H35.0299C34.9404 23.9742 34.8111 24.1598 34.6421 24.3686C34.4764 24.5774 34.2477 24.7597 33.956 24.9155C33.6643 25.0713 33.2865 25.1491 32.8225 25.1491ZM33.1506 23.8814C33.5782 23.8814 33.9394 23.7687 34.2344 23.5433C34.5327 23.3146 34.7581 22.9981 34.9106 22.5938C35.0663 22.1894 35.1442 21.7187 35.1442 21.1818C35.1442 20.6515 35.068 20.1875 34.9155 19.7898C34.7631 19.392 34.5393 19.0821 34.2444 18.8601C33.9494 18.638 33.5848 18.527 33.1506 18.527C32.7032 18.527 32.3303 18.643 32.032 18.875C31.7337 19.107 31.5083 19.4235 31.3559 19.8246C31.2067 20.2256 31.1321 20.678 31.1321 21.1818C31.1321 21.6922 31.2084 22.1513 31.3608 22.5589C31.5133 22.9666 31.7387 23.2898 32.037 23.5284C32.3386 23.7637 32.7098 23.8814 33.1506 23.8814ZM42.4805 14.8182V25H40.9393V16.3594H40.8797L38.4436 17.9503V16.4787L40.9841 14.8182H42.4805ZM48.6895 25.169C47.904 25.1657 47.2329 24.9586 46.676 24.5476C46.1192 24.1366 45.6933 23.5384 45.3983 22.7528C45.1034 21.9673 44.9559 21.0211 44.9559 19.9141C44.9559 18.8104 45.1034 17.8674 45.3983 17.0852C45.6966 16.303 46.1242 15.7064 46.681 15.2955C47.2411 14.8845 47.9107 14.679 48.6895 14.679C49.4684 14.679 50.1363 14.8861 50.6931 15.3004C51.2499 15.7114 51.6758 16.308 51.9708 17.0902C52.2691 17.8691 52.4182 18.8104 52.4182 19.9141C52.4182 21.0244 52.2707 21.9723 51.9758 22.7578C51.6808 23.54 51.2549 24.1383 50.6981 24.5526C50.1412 24.9635 49.4717 25.169 48.6895 25.169ZM48.6895 23.8416C49.3789 23.8416 49.9175 23.5052 50.3053 22.8324C50.6964 22.1596 50.892 21.1868 50.892 19.9141C50.892 19.0689 50.8025 18.3546 50.6235 17.7713C50.4478 17.1847 50.1943 16.7405 49.8628 16.4389C49.5347 16.134 49.1436 15.9815 48.6895 15.9815C48.0035 15.9815 47.4649 16.3196 47.0738 16.9957C46.6827 17.6719 46.4855 18.6446 46.4822 19.9141C46.4822 20.7625 46.57 21.4801 46.7456 22.0668C46.9246 22.6501 47.1782 23.0926 47.5063 23.3942C47.8344 23.6925 48.2288 23.8416 48.6895 23.8416ZM57.6366 25.169C56.8511 25.1657 56.18 24.9586 55.6232 24.5476C55.0663 24.1366 54.6404 23.5384 54.3455 22.7528C54.0505 21.9673 53.903 21.0211 53.903 19.9141C53.903 18.8104 54.0505 17.8674 54.3455 17.0852C54.6437 16.303 55.0713 15.7064 55.6281 15.2955C56.1883 14.8845 56.8578 14.679 57.6366 14.679C58.4155 14.679 59.0834 14.8861 59.6402 15.3004C60.197 15.7114 60.6229 16.308 60.9179 17.0902C61.2162 17.8691 61.3653 18.8104 61.3653 19.9141C61.3653 21.0244 61.2178 21.9723 60.9229 22.7578C60.6279 23.54 60.202 24.1383 59.6452 24.5526C59.0884 24.9635 58.4188 25.169 57.6366 25.169ZM57.6366 23.8416C58.326 23.8416 58.8646 23.5052 59.2524 22.8324C59.6435 22.1596 59.8391 21.1868 59.8391 19.9141C59.8391 19.0689 59.7496 18.3546 59.5706 17.7713C59.3949 17.1847 59.1414 16.7405 58.8099 16.4389C58.4818 16.134 58.0907 15.9815 57.6366 15.9815C56.9506 15.9815 56.412 16.3196 56.0209 16.9957C55.6298 17.6719 55.4326 18.6446 55.4293 19.9141C55.4293 20.7625 55.5171 21.4801 55.6928 22.0668C55.8717 22.6501 56.1253 23.0926 56.4534 23.3942C56.7815 23.6925 57.1759 23.8416 57.6366 23.8416Z" fill="black"/>
</svg>
