<svg width="342" height="40" viewBox="0 0 342 40" fill="none" xmlns="http://www.w3.org/2000/svg">
<rect width="341.333" height="40" transform="translate(0.666504)" fill="#FCE8ED"/>
<path d="M13.7851 25V14.8182H17.4144C18.2032 14.8182 18.8578 14.9541 19.3782 15.2259C19.9018 15.4976 20.2929 15.8738 20.5514 16.3544C20.81 16.8317 20.9392 17.3835 20.9392 18.0099C20.9392 18.633 20.8083 19.1816 20.5465 19.6555C20.288 20.1262 19.8969 20.4924 19.3732 20.7543C18.8528 21.0161 18.1982 21.147 17.4094 21.147H14.6601V19.8246H17.2702C17.7674 19.8246 18.1717 19.7533 18.4833 19.6108C18.7981 19.4683 19.0285 19.2611 19.1743 18.9893C19.3201 18.7176 19.3931 18.3911 19.3931 18.0099C19.3931 17.6255 19.3185 17.2924 19.1693 17.0107C19.0235 16.7289 18.7932 16.5135 18.4783 16.3643C18.1667 16.2119 17.7574 16.1357 17.2503 16.1357H15.3213V25H13.7851ZM18.8114 20.4062L21.327 25H19.577L17.1111 20.4062H18.8114ZM25.8847 25.1541C25.1324 25.1541 24.4844 24.9934 23.9408 24.6719C23.4006 24.3471 22.983 23.8913 22.688 23.3047C22.3963 22.7147 22.2505 22.0237 22.2505 21.2315C22.2505 20.4493 22.3963 19.7599 22.688 19.1634C22.983 18.5668 23.394 18.1011 23.9209 17.7663C24.4512 17.4316 25.071 17.2642 25.7803 17.2642C26.2112 17.2642 26.6288 17.3355 27.0332 17.478C27.4375 17.6205 27.8004 17.8442 28.1219 18.1491C28.4434 18.4541 28.697 18.8501 28.8826 19.3374C29.0682 19.8213 29.161 20.4096 29.161 21.1023V21.6293H23.0907V20.5156H27.7043C27.7043 20.1245 27.6248 19.7782 27.4657 19.4766C27.3066 19.1716 27.0829 18.9313 26.7945 18.7557C26.5095 18.58 26.1747 18.4922 25.7903 18.4922C25.3726 18.4922 25.0081 18.5949 24.6965 18.8004C24.3883 19.0026 24.1496 19.2678 23.9806 19.5959C23.8149 19.9207 23.732 20.2737 23.732 20.6548V21.5249C23.732 22.0353 23.8215 22.4695 24.0005 22.8274C24.1828 23.1854 24.4363 23.4588 24.7611 23.6477C25.086 23.8333 25.4655 23.9261 25.8996 23.9261C26.1814 23.9261 26.4382 23.8864 26.6702 23.8068C26.9022 23.724 27.1028 23.6013 27.2718 23.4389C27.4408 23.2765 27.5701 23.076 27.6596 22.8374L29.0665 23.0909C28.9539 23.5052 28.7517 23.8681 28.46 24.1797C28.1717 24.4879 27.8087 24.7282 27.3712 24.9006C26.937 25.0696 26.4415 25.1541 25.8847 25.1541ZM33.669 25.1491C33.0525 25.1491 32.5023 24.9917 32.0184 24.6768C31.5378 24.3587 31.16 23.9062 30.8849 23.3196C30.6131 22.7296 30.4772 22.022 30.4772 21.1967C30.4772 20.3714 30.6148 19.6655 30.8899 19.0788C31.1683 18.4922 31.5494 18.0431 32.0333 17.7315C32.5172 17.42 33.0658 17.2642 33.6789 17.2642C34.1529 17.2642 34.534 17.3438 34.8224 17.5028C35.1141 17.6586 35.3394 17.8409 35.4985 18.0497C35.6609 18.2585 35.7869 18.4425 35.8764 18.6016H35.9659V14.8182H37.4524V25H36.0007V23.8118H35.8764C35.7869 23.9742 35.6576 24.1598 35.4886 24.3686C35.3229 24.5774 35.0942 24.7597 34.8025 24.9155C34.5108 25.0713 34.133 25.1491 33.669 25.1491ZM33.9971 23.8814C34.4247 23.8814 34.7859 23.7687 35.0809 23.5433C35.3792 23.3146 35.6046 22.9981 35.7571 22.5938C35.9128 22.1894 35.9907 21.7187 35.9907 21.1818C35.9907 20.6515 35.9145 20.1875 35.762 19.7898C35.6096 19.392 35.3858 19.0821 35.0909 18.8601C34.7959 18.638 34.4313 18.527 33.9971 18.527C33.5497 18.527 33.1768 18.643 32.8785 18.875C32.5802 19.107 32.3548 19.4235 32.2024 19.8246C32.0532 20.2256 31.9786 20.678 31.9786 21.1818C31.9786 21.6922 32.0549 22.1513 32.2073 22.5589C32.3598 22.9666 32.5852 23.2898 32.8835 23.5284C33.1851 23.7637 33.5563 23.8814 33.9971 23.8814ZM43.417 14.8182V25H41.8758V16.3594H41.8162L39.3801 17.9503V16.4787L41.9206 14.8182H43.417ZM49.716 25.169C48.9305 25.1657 48.2594 24.9586 47.7025 24.5476C47.1457 24.1366 46.7198 23.5384 46.4248 22.7528C46.1299 21.9673 45.9824 21.0211 45.9824 19.9141C45.9824 18.8104 46.1299 17.8674 46.4248 17.0852C46.7231 16.303 47.1507 15.7064 47.7075 15.2955C48.2677 14.8845 48.9372 14.679 49.716 14.679C50.4949 14.679 51.1628 14.8861 51.7196 15.3004C52.2764 15.7114 52.7023 16.308 52.9973 17.0902C53.2956 17.8691 53.4447 18.8104 53.4447 19.9141C53.4447 21.0244 53.2972 21.9723 53.0023 22.7578C52.7073 23.54 52.2814 24.1383 51.7246 24.5526C51.1677 24.9635 50.4982 25.169 49.716 25.169ZM49.716 23.8416C50.4054 23.8416 50.944 23.5052 51.3318 22.8324C51.7229 22.1596 51.9185 21.1868 51.9185 19.9141C51.9185 19.0689 51.829 18.3546 51.65 17.7713C51.4743 17.1847 51.2208 16.7405 50.8893 16.4389C50.5612 16.134 50.1701 15.9815 49.716 15.9815C49.03 15.9815 48.4914 16.3196 48.1003 16.9957C47.7092 17.6719 47.512 18.6446 47.5087 19.9141C47.5087 20.7625 47.5965 21.4801 47.7722 22.0668C47.9511 22.6501 48.2047 23.0926 48.5328 23.3942C48.8609 23.6925 49.2553 23.8416 49.716 23.8416ZM58.7532 25.169C57.9676 25.1657 57.2965 24.9586 56.7397 24.5476C56.1828 24.1366 55.7569 23.5384 55.462 22.7528C55.167 21.9673 55.0195 21.0211 55.0195 19.9141C55.0195 18.8104 55.167 17.8674 55.462 17.0852C55.7603 16.303 56.1878 15.7064 56.7446 15.2955C57.3048 14.8845 57.9743 14.679 58.7532 14.679C59.532 14.679 60.1999 14.8861 60.7567 15.3004C61.3135 15.7114 61.7394 16.308 62.0344 17.0902C62.3327 17.8691 62.4818 18.8104 62.4818 19.9141C62.4818 21.0244 62.3344 21.9723 62.0394 22.7578C61.7444 23.54 61.3185 24.1383 60.7617 24.5526C60.2049 24.9635 59.5353 25.169 58.7532 25.169ZM58.7532 23.8416C59.4425 23.8416 59.9811 23.5052 60.3689 22.8324C60.76 22.1596 60.9556 21.1868 60.9556 19.9141C60.9556 19.0689 60.8661 18.3546 60.6871 17.7713C60.5114 17.1847 60.2579 16.7405 59.9264 16.4389C59.5983 16.134 59.2072 15.9815 58.7532 15.9815C58.0671 15.9815 57.5285 16.3196 57.1374 16.9957C56.7463 17.6719 56.5491 18.6446 56.5458 19.9141C56.5458 20.7625 56.6336 21.4801 56.8093 22.0668C56.9882 22.6501 57.2418 23.0926 57.5699 23.3942C57.898 23.6925 58.2925 23.8416 58.7532 23.8416Z" fill="#0A0A0B"/>
</svg>
