<svg width="240" height="40" viewBox="0 0 240 40" fill="none" xmlns="http://www.w3.org/2000/svg">
<rect width="240" height="40" fill="#FDD3D0"/>
<path d="M13.1186 25V14.8182H16.7479C17.5367 14.8182 18.1913 14.9541 18.7116 15.2259C19.2353 15.4976 19.6264 15.8738 19.8849 16.3544C20.1435 16.8317 20.2727 17.3835 20.2727 18.0099C20.2727 18.633 20.1418 19.1816 19.88 19.6555C19.6214 20.1262 19.2304 20.4924 18.7067 20.7543C18.1863 21.0161 17.5317 21.147 16.7429 21.147H13.9936V19.8246H16.6037C17.1009 19.8246 17.5052 19.7533 17.8168 19.6108C18.1316 19.4683 18.362 19.2611 18.5078 18.9893C18.6536 18.7176 18.7266 18.3911 18.7266 18.0099C18.7266 17.6255 18.652 17.2924 18.5028 17.0107C18.357 16.7289 18.1267 16.5135 17.8118 16.3643C17.5002 16.2119 17.0909 16.1357 16.5838 16.1357H14.6548V25H13.1186ZM18.1449 20.4062L20.6605 25H18.9105L16.4446 20.4062H18.1449ZM25.1282 25.1541C24.3758 25.1541 23.7279 24.9934 23.1843 24.6719C22.6441 24.3471 22.2265 23.8913 21.9315 23.3047C21.6398 22.7147 21.494 22.0237 21.494 21.2315C21.494 20.4493 21.6398 19.7599 21.9315 19.1634C22.2265 18.5668 22.6375 18.1011 23.1644 17.7663C23.6947 17.4316 24.3145 17.2642 25.0238 17.2642C25.4547 17.2642 25.8723 17.3355 26.2767 17.478C26.681 17.6205 27.0439 17.8442 27.3654 18.1491C27.6869 18.4541 27.9405 18.8501 28.1261 19.3374C28.3117 19.8213 28.4045 20.4096 28.4045 21.1023V21.6293H22.3342V20.5156H26.9478C26.9478 20.1245 26.8683 19.7782 26.7092 19.4766C26.5501 19.1716 26.3264 18.9313 26.038 18.7557C25.753 18.58 25.4182 18.4922 25.0338 18.4922C24.6161 18.4922 24.2516 18.5949 23.94 18.8004C23.6318 19.0026 23.3931 19.2678 23.2241 19.5959C23.0584 19.9207 22.9755 20.2737 22.9755 20.6548V21.5249C22.9755 22.0353 23.065 22.4695 23.244 22.8274C23.4263 23.1854 23.6798 23.4588 24.0046 23.6477C24.3294 23.8333 24.7089 23.9261 25.1431 23.9261C25.4249 23.9261 25.6817 23.8864 25.9137 23.8068C26.1457 23.724 26.3463 23.6013 26.5153 23.4389C26.6843 23.2765 26.8136 23.076 26.9031 22.8374L28.31 23.0909C28.1973 23.5052 27.9952 23.8681 27.7035 24.1797C27.4151 24.4879 27.0522 24.7282 26.6147 24.9006C26.1805 25.0696 25.685 25.1541 25.1282 25.1541ZM32.8225 25.1491C32.206 25.1491 31.6558 24.9917 31.1719 24.6768C30.6913 24.3587 30.3135 23.9062 30.0384 23.3196C29.7666 22.7296 29.6307 22.022 29.6307 21.1967C29.6307 20.3714 29.7683 19.6655 30.0434 19.0788C30.3218 18.4922 30.7029 18.0431 31.1868 17.7315C31.6707 17.42 32.2193 17.2642 32.8324 17.2642C33.3064 17.2642 33.6875 17.3438 33.9759 17.5028C34.2676 17.6586 34.4929 17.8409 34.652 18.0497C34.8144 18.2585 34.9404 18.4425 35.0299 18.6016H35.1194V14.8182H36.6059V25H35.1542V23.8118H35.0299C34.9404 23.9742 34.8111 24.1598 34.6421 24.3686C34.4764 24.5774 34.2477 24.7597 33.956 24.9155C33.6643 25.0713 33.2865 25.1491 32.8225 25.1491ZM33.1506 23.8814C33.5782 23.8814 33.9394 23.7687 34.2344 23.5433C34.5327 23.3146 34.7581 22.9981 34.9106 22.5938C35.0663 22.1894 35.1442 21.7187 35.1442 21.1818C35.1442 20.6515 35.068 20.1875 34.9155 19.7898C34.7631 19.392 34.5393 19.0821 34.2444 18.8601C33.9494 18.638 33.5848 18.527 33.1506 18.527C32.7032 18.527 32.3303 18.643 32.032 18.875C31.7337 19.107 31.5083 19.4235 31.3559 19.8246C31.2067 20.2256 31.1321 20.678 31.1321 21.1818C31.1321 21.6922 31.2084 22.1513 31.3608 22.5589C31.5133 22.9666 31.7387 23.2898 32.037 23.5284C32.3386 23.7637 32.7098 23.8814 33.1506 23.8814ZM38.6176 25V23.8864L42.0629 20.3168C42.4308 19.929 42.7341 19.5893 42.9727 19.2976C43.2147 19.0026 43.3953 18.7225 43.5146 18.4574C43.6339 18.1922 43.6936 17.9105 43.6936 17.6122C43.6936 17.2741 43.6141 16.9825 43.455 16.7372C43.2959 16.4886 43.0788 16.2981 42.8037 16.1655C42.5286 16.0296 42.2187 15.9616 41.874 15.9616C41.5094 15.9616 41.1912 16.0362 40.9195 16.1854C40.6477 16.3345 40.4389 16.545 40.293 16.8168C40.1472 17.0885 40.0743 17.4067 40.0743 17.7713H38.6077C38.6077 17.1515 38.7502 16.6096 39.0352 16.1456C39.3203 15.6816 39.7114 15.322 40.2085 15.0668C40.7057 14.8082 41.2708 14.679 41.9038 14.679C42.5435 14.679 43.107 14.8066 43.5942 15.0618C44.0847 15.3137 44.4675 15.6584 44.7426 16.0959C45.0177 16.5301 45.1552 17.0206 45.1552 17.5675C45.1552 17.9453 45.084 18.3149 44.9415 18.6761C44.8023 19.0374 44.5587 19.4401 44.2106 19.8842C43.8626 20.325 43.3787 20.8603 42.7589 21.4901L40.7355 23.608V23.6825H45.3193V25H38.6176ZM50.6583 25.169C49.8728 25.1657 49.2016 24.9586 48.6448 24.5476C48.088 24.1366 47.6621 23.5384 47.3671 22.7528C47.0721 21.9673 46.9246 21.0211 46.9246 19.9141C46.9246 18.8104 47.0721 17.8674 47.3671 17.0852C47.6654 16.303 48.0929 15.7064 48.6498 15.2955C49.2099 14.8845 49.8794 14.679 50.6583 14.679C51.4372 14.679 52.105 14.8861 52.6618 15.3004C53.2187 15.7114 53.6446 16.308 53.9395 17.0902C54.2378 17.8691 54.387 18.8104 54.387 19.9141C54.387 21.0244 54.2395 21.9723 53.9445 22.7578C53.6495 23.54 53.2236 24.1383 52.6668 24.5526C52.11 24.9635 51.4405 25.169 50.6583 25.169ZM50.6583 23.8416C51.3477 23.8416 51.8863 23.5052 52.2741 22.8324C52.6652 22.1596 52.8607 21.1868 52.8607 19.9141C52.8607 19.0689 52.7712 18.3546 52.5922 17.7713C52.4166 17.1847 52.163 16.7405 51.8316 16.4389C51.5035 16.134 51.1124 15.9815 50.6583 15.9815C49.9722 15.9815 49.4336 16.3196 49.0425 16.9957C48.6514 17.6719 48.4542 18.6446 48.4509 19.9141C48.4509 20.7625 48.5387 21.4801 48.7144 22.0668C48.8934 22.6501 49.1469 23.0926 49.475 23.3942C49.8032 23.6925 50.1976 23.8416 50.6583 23.8416ZM59.6054 25.169C58.8199 25.1657 58.1487 24.9586 57.5919 24.5476C57.0351 24.1366 56.6092 23.5384 56.3142 22.7528C56.0192 21.9673 55.8717 21.0211 55.8717 19.9141C55.8717 18.8104 56.0192 17.8674 56.3142 17.0852C56.6125 16.303 57.0401 15.7064 57.5969 15.2955C58.157 14.8845 58.8265 14.679 59.6054 14.679C60.3843 14.679 61.0521 14.8861 61.6089 15.3004C62.1658 15.7114 62.5917 16.308 62.8866 17.0902C63.1849 17.8691 63.3341 18.8104 63.3341 19.9141C63.3341 21.0244 63.1866 21.9723 62.8916 22.7578C62.5966 23.54 62.1707 24.1383 61.6139 24.5526C61.0571 24.9635 60.3876 25.169 59.6054 25.169ZM59.6054 23.8416C60.2948 23.8416 60.8334 23.5052 61.2212 22.8324C61.6123 22.1596 61.8078 21.1868 61.8078 19.9141C61.8078 19.0689 61.7183 18.3546 61.5393 17.7713C61.3637 17.1847 61.1101 16.7405 60.7787 16.4389C60.4506 16.134 60.0595 15.9815 59.6054 15.9815C58.9193 15.9815 58.3807 16.3196 57.9896 16.9957C57.5985 17.6719 57.4013 18.6446 57.398 19.9141C57.398 20.7625 57.4858 21.4801 57.6615 22.0668C57.8405 22.6501 58.094 23.0926 58.4222 23.3942C58.7503 23.6925 59.1447 23.8416 59.6054 23.8416Z" fill="black"/>
</svg>
