<svg width="342" height="40" viewBox="0 0 342 40" fill="none" xmlns="http://www.w3.org/2000/svg">
<rect width="341.333" height="40" transform="translate(0.666504)" fill="#F8C9D4"/>
<path d="M13.7851 25V14.8182H17.4144C18.2032 14.8182 18.8578 14.9541 19.3782 15.2259C19.9018 15.4976 20.2929 15.8738 20.5514 16.3544C20.81 16.8317 20.9392 17.3835 20.9392 18.0099C20.9392 18.633 20.8083 19.1816 20.5465 19.6555C20.288 20.1262 19.8969 20.4924 19.3732 20.7543C18.8528 21.0161 18.1982 21.147 17.4094 21.147H14.6601V19.8246H17.2702C17.7674 19.8246 18.1717 19.7533 18.4833 19.6108C18.7981 19.4683 19.0285 19.2611 19.1743 18.9893C19.3201 18.7176 19.3931 18.3911 19.3931 18.0099C19.3931 17.6255 19.3185 17.2924 19.1693 17.0107C19.0235 16.7289 18.7932 16.5135 18.4783 16.3643C18.1667 16.2119 17.7574 16.1357 17.2503 16.1357H15.3213V25H13.7851ZM18.8114 20.4062L21.327 25H19.577L17.1111 20.4062H18.8114ZM25.8847 25.1541C25.1324 25.1541 24.4844 24.9934 23.9408 24.6719C23.4006 24.3471 22.983 23.8913 22.688 23.3047C22.3963 22.7147 22.2505 22.0237 22.2505 21.2315C22.2505 20.4493 22.3963 19.7599 22.688 19.1634C22.983 18.5668 23.394 18.1011 23.9209 17.7663C24.4512 17.4316 25.071 17.2642 25.7803 17.2642C26.2112 17.2642 26.6288 17.3355 27.0332 17.478C27.4375 17.6205 27.8004 17.8442 28.1219 18.1491C28.4434 18.4541 28.697 18.8501 28.8826 19.3374C29.0682 19.8213 29.161 20.4096 29.161 21.1023V21.6293H23.0907V20.5156H27.7043C27.7043 20.1245 27.6248 19.7782 27.4657 19.4766C27.3066 19.1716 27.0829 18.9313 26.7945 18.7557C26.5095 18.58 26.1747 18.4922 25.7903 18.4922C25.3726 18.4922 25.0081 18.5949 24.6965 18.8004C24.3883 19.0026 24.1496 19.2678 23.9806 19.5959C23.8149 19.9207 23.732 20.2737 23.732 20.6548V21.5249C23.732 22.0353 23.8215 22.4695 24.0005 22.8274C24.1828 23.1854 24.4363 23.4588 24.7611 23.6477C25.086 23.8333 25.4655 23.9261 25.8996 23.9261C26.1814 23.9261 26.4382 23.8864 26.6702 23.8068C26.9022 23.724 27.1028 23.6013 27.2718 23.4389C27.4408 23.2765 27.5701 23.076 27.6596 22.8374L29.0665 23.0909C28.9539 23.5052 28.7517 23.8681 28.46 24.1797C28.1717 24.4879 27.8087 24.7282 27.3712 24.9006C26.937 25.0696 26.4415 25.1541 25.8847 25.1541ZM33.669 25.1491C33.0525 25.1491 32.5023 24.9917 32.0184 24.6768C31.5378 24.3587 31.16 23.9062 30.8849 23.3196C30.6131 22.7296 30.4772 22.022 30.4772 21.1967C30.4772 20.3714 30.6148 19.6655 30.8899 19.0788C31.1683 18.4922 31.5494 18.0431 32.0333 17.7315C32.5172 17.42 33.0658 17.2642 33.6789 17.2642C34.1529 17.2642 34.534 17.3438 34.8224 17.5028C35.1141 17.6586 35.3394 17.8409 35.4985 18.0497C35.6609 18.2585 35.7869 18.4425 35.8764 18.6016H35.9659V14.8182H37.4524V25H36.0007V23.8118H35.8764C35.7869 23.9742 35.6576 24.1598 35.4886 24.3686C35.3229 24.5774 35.0942 24.7597 34.8025 24.9155C34.5108 25.0713 34.133 25.1491 33.669 25.1491ZM33.9971 23.8814C34.4247 23.8814 34.7859 23.7687 35.0809 23.5433C35.3792 23.3146 35.6046 22.9981 35.7571 22.5938C35.9128 22.1894 35.9907 21.7187 35.9907 21.1818C35.9907 20.6515 35.9145 20.1875 35.762 19.7898C35.6096 19.392 35.3858 19.0821 35.0909 18.8601C34.7959 18.638 34.4313 18.527 33.9971 18.527C33.5497 18.527 33.1768 18.643 32.8785 18.875C32.5802 19.107 32.3548 19.4235 32.2024 19.8246C32.0532 20.2256 31.9786 20.678 31.9786 21.1818C31.9786 21.6922 32.0549 22.1513 32.2073 22.5589C32.3598 22.9666 32.5852 23.2898 32.8835 23.5284C33.1851 23.7637 33.5563 23.8814 33.9971 23.8814ZM39.5541 25V23.8864L42.9994 20.3168C43.3673 19.929 43.6706 19.5893 43.9092 19.2976C44.1512 19.0026 44.3318 18.7225 44.4511 18.4574C44.5704 18.1922 44.6301 17.9105 44.6301 17.6122C44.6301 17.2741 44.5506 16.9825 44.3915 16.7372C44.2324 16.4886 44.0153 16.2981 43.7402 16.1655C43.4651 16.0296 43.1552 15.9616 42.8105 15.9616C42.4459 15.9616 42.1277 16.0362 41.856 16.1854C41.5842 16.3345 41.3754 16.545 41.2295 16.8168C41.0837 17.0885 41.0108 17.4067 41.0108 17.7713H39.5442C39.5442 17.1515 39.6867 16.6096 39.9717 16.1456C40.2568 15.6816 40.6479 15.322 41.145 15.0668C41.6422 14.8082 42.2073 14.679 42.8403 14.679C43.48 14.679 44.0435 14.8066 44.5307 15.0618C45.0212 15.3137 45.404 15.6584 45.6791 16.0959C45.9542 16.5301 46.0918 17.0206 46.0918 17.5675C46.0918 17.9453 46.0205 18.3149 45.878 18.6761C45.7388 19.0374 45.4952 19.4401 45.1472 19.8842C44.7991 20.325 44.3152 20.8603 43.6954 21.4901L41.672 23.608V23.6825H46.2558V25H39.5541ZM51.6848 25.169C50.8993 25.1657 50.2281 24.9586 49.6713 24.5476C49.1145 24.1366 48.6886 23.5384 48.3936 22.7528C48.0986 21.9673 47.9511 21.0211 47.9511 19.9141C47.9511 18.8104 48.0986 17.8674 48.3936 17.0852C48.6919 16.303 49.1195 15.7064 49.6763 15.2955C50.2364 14.8845 50.9059 14.679 51.6848 14.679C52.4637 14.679 53.1315 14.8861 53.6883 15.3004C54.2452 15.7114 54.6711 16.308 54.966 17.0902C55.2643 17.8691 55.4135 18.8104 55.4135 19.9141C55.4135 21.0244 55.266 21.9723 54.971 22.7578C54.676 23.54 54.2501 24.1383 53.6933 24.5526C53.1365 24.9635 52.467 25.169 51.6848 25.169ZM51.6848 23.8416C52.3742 23.8416 52.9128 23.5052 53.3006 22.8324C53.6917 22.1596 53.8872 21.1868 53.8872 19.9141C53.8872 19.0689 53.7977 18.3546 53.6187 17.7713C53.4431 17.1847 53.1895 16.7405 52.8581 16.4389C52.53 16.134 52.1389 15.9815 51.6848 15.9815C50.9987 15.9815 50.4601 16.3196 50.069 16.9957C49.6779 17.6719 49.4807 18.6446 49.4774 19.9141C49.4774 20.7625 49.5652 21.4801 49.7409 22.0668C49.9199 22.6501 50.1734 23.0926 50.5016 23.3942C50.8297 23.6925 51.2241 23.8416 51.6848 23.8416ZM60.7219 25.169C59.9364 25.1657 59.2652 24.9586 58.7084 24.5476C58.1516 24.1366 57.7257 23.5384 57.4307 22.7528C57.1357 21.9673 56.9882 21.0211 56.9882 19.9141C56.9882 18.8104 57.1357 17.8674 57.4307 17.0852C57.729 16.303 58.1566 15.7064 58.7134 15.2955C59.2735 14.8845 59.943 14.679 60.7219 14.679C61.5008 14.679 62.1686 14.8861 62.7255 15.3004C63.2823 15.7114 63.7082 16.308 64.0032 17.0902C64.3014 17.8691 64.4506 18.8104 64.4506 19.9141C64.4506 21.0244 64.3031 21.9723 64.0081 22.7578C63.7131 23.54 63.2872 24.1383 62.7304 24.5526C62.1736 24.9635 61.5041 25.169 60.7219 25.169ZM60.7219 23.8416C61.4113 23.8416 61.9499 23.5052 62.3377 22.8324C62.7288 22.1596 62.9243 21.1868 62.9243 19.9141C62.9243 19.0689 62.8348 18.3546 62.6559 17.7713C62.4802 17.1847 62.2266 16.7405 61.8952 16.4389C61.5671 16.134 61.176 15.9815 60.7219 15.9815C60.0358 15.9815 59.4972 16.3196 59.1061 16.9957C58.715 17.6719 58.5178 18.6446 58.5145 19.9141C58.5145 20.7625 58.6023 21.4801 58.778 22.0668C58.957 22.6501 59.2105 23.0926 59.5387 23.3942C59.8668 23.6925 60.2612 23.8416 60.7219 23.8416Z" fill="#0A0A0B"/>
</svg>
