<svg width="240" height="40" viewBox="0 0 240 40" fill="none" xmlns="http://www.w3.org/2000/svg">
<rect width="240" height="40" fill="#FCB4B2"/>
<path d="M13.1186 25V14.8182H16.7479C17.5367 14.8182 18.1913 14.9541 18.7116 15.2259C19.2353 15.4976 19.6264 15.8738 19.8849 16.3544C20.1435 16.8317 20.2727 17.3835 20.2727 18.0099C20.2727 18.633 20.1418 19.1816 19.88 19.6555C19.6214 20.1262 19.2304 20.4924 18.7067 20.7543C18.1863 21.0161 17.5317 21.147 16.7429 21.147H13.9936V19.8246H16.6037C17.1009 19.8246 17.5052 19.7533 17.8168 19.6108C18.1316 19.4683 18.362 19.2611 18.5078 18.9893C18.6536 18.7176 18.7266 18.3911 18.7266 18.0099C18.7266 17.6255 18.652 17.2924 18.5028 17.0107C18.357 16.7289 18.1267 16.5135 17.8118 16.3643C17.5002 16.2119 17.0909 16.1357 16.5838 16.1357H14.6548V25H13.1186ZM18.1449 20.4062L20.6605 25H18.9105L16.4446 20.4062H18.1449ZM25.1282 25.1541C24.3758 25.1541 23.7279 24.9934 23.1843 24.6719C22.6441 24.3471 22.2265 23.8913 21.9315 23.3047C21.6398 22.7147 21.494 22.0237 21.494 21.2315C21.494 20.4493 21.6398 19.7599 21.9315 19.1634C22.2265 18.5668 22.6375 18.1011 23.1644 17.7663C23.6947 17.4316 24.3145 17.2642 25.0238 17.2642C25.4547 17.2642 25.8723 17.3355 26.2767 17.478C26.681 17.6205 27.0439 17.8442 27.3654 18.1491C27.6869 18.4541 27.9405 18.8501 28.1261 19.3374C28.3117 19.8213 28.4045 20.4096 28.4045 21.1023V21.6293H22.3342V20.5156H26.9478C26.9478 20.1245 26.8683 19.7782 26.7092 19.4766C26.5501 19.1716 26.3264 18.9313 26.038 18.7557C25.753 18.58 25.4182 18.4922 25.0338 18.4922C24.6161 18.4922 24.2516 18.5949 23.94 18.8004C23.6318 19.0026 23.3931 19.2678 23.2241 19.5959C23.0584 19.9207 22.9755 20.2737 22.9755 20.6548V21.5249C22.9755 22.0353 23.065 22.4695 23.244 22.8274C23.4263 23.1854 23.6798 23.4588 24.0046 23.6477C24.3294 23.8333 24.7089 23.9261 25.1431 23.9261C25.4249 23.9261 25.6817 23.8864 25.9137 23.8068C26.1457 23.724 26.3463 23.6013 26.5153 23.4389C26.6843 23.2765 26.8136 23.076 26.9031 22.8374L28.31 23.0909C28.1973 23.5052 27.9952 23.8681 27.7035 24.1797C27.4151 24.4879 27.0522 24.7282 26.6147 24.9006C26.1805 25.0696 25.685 25.1541 25.1282 25.1541ZM32.8225 25.1491C32.206 25.1491 31.6558 24.9917 31.1719 24.6768C30.6913 24.3587 30.3135 23.9062 30.0384 23.3196C29.7666 22.7296 29.6307 22.022 29.6307 21.1967C29.6307 20.3714 29.7683 19.6655 30.0434 19.0788C30.3218 18.4922 30.7029 18.0431 31.1868 17.7315C31.6707 17.42 32.2193 17.2642 32.8324 17.2642C33.3064 17.2642 33.6875 17.3438 33.9759 17.5028C34.2676 17.6586 34.4929 17.8409 34.652 18.0497C34.8144 18.2585 34.9404 18.4425 35.0299 18.6016H35.1194V14.8182H36.6059V25H35.1542V23.8118H35.0299C34.9404 23.9742 34.8111 24.1598 34.6421 24.3686C34.4764 24.5774 34.2477 24.7597 33.956 24.9155C33.6643 25.0713 33.2865 25.1491 32.8225 25.1491ZM33.1506 23.8814C33.5782 23.8814 33.9394 23.7687 34.2344 23.5433C34.5327 23.3146 34.7581 22.9981 34.9106 22.5938C35.0663 22.1894 35.1442 21.7187 35.1442 21.1818C35.1442 20.6515 35.068 20.1875 34.9155 19.7898C34.7631 19.392 34.5393 19.0821 34.2444 18.8601C33.9494 18.638 33.5848 18.527 33.1506 18.527C32.7032 18.527 32.3303 18.643 32.032 18.875C31.7337 19.107 31.5083 19.4235 31.3559 19.8246C31.2067 20.2256 31.1321 20.678 31.1321 21.1818C31.1321 21.6922 31.2084 22.1513 31.3608 22.5589C31.5133 22.9666 31.7387 23.2898 32.037 23.5284C32.3386 23.7637 32.7098 23.8814 33.1506 23.8814ZM42.1624 25.1392C41.4796 25.1392 40.8697 25.0215 40.3328 24.7862C39.7992 24.5509 39.3766 24.2244 39.065 23.8068C38.7568 23.3859 38.5911 22.8987 38.5679 22.3452H40.129C40.1489 22.6468 40.2499 22.9086 40.4322 23.1307C40.6178 23.3494 40.8598 23.5185 41.1581 23.6378C41.4564 23.7571 41.7878 23.8168 42.1524 23.8168C42.5534 23.8168 42.9081 23.7472 43.2163 23.608C43.5279 23.4687 43.7715 23.2749 43.9472 23.0263C44.1228 22.7744 44.2106 22.4844 44.2106 22.1562C44.2106 21.8149 44.1228 21.5149 43.9472 21.2564C43.7748 20.9946 43.5213 20.7891 43.1865 20.6399C42.8551 20.4908 42.454 20.4162 41.9834 20.4162H41.1233V19.1634H41.9834C42.3612 19.1634 42.6927 19.0954 42.9777 18.9595C43.266 18.8236 43.4914 18.6347 43.6538 18.3928C43.8162 18.1475 43.8974 17.8608 43.8974 17.5327C43.8974 17.2178 43.8262 16.9444 43.6837 16.7124C43.5445 16.477 43.3456 16.2931 43.0871 16.1605C42.8319 16.0279 42.5302 15.9616 42.1822 15.9616C41.8508 15.9616 41.5409 16.023 41.2525 16.1456C40.9675 16.2649 40.7355 16.4373 40.5565 16.6626C40.3775 16.8847 40.2814 17.1515 40.2682 17.4631H38.7817C38.7982 16.9129 38.9606 16.429 39.2689 16.0114C39.5804 15.5937 39.9914 15.2673 40.5018 15.032C41.0123 14.7966 41.579 14.679 42.2021 14.679C42.8551 14.679 43.4185 14.8066 43.8925 15.0618C44.3697 15.3137 44.7376 15.6501 44.9962 16.071C45.258 16.492 45.3873 16.9527 45.3839 17.4531C45.3873 18.0232 45.2282 18.5071 44.9067 18.9048C44.5885 19.3026 44.1642 19.5694 43.6339 19.7053V19.7848C44.3101 19.8875 44.8338 20.156 45.205 20.5902C45.5795 21.0244 45.7651 21.563 45.7618 22.206C45.7651 22.7661 45.6093 23.2682 45.2945 23.7124C44.9829 24.1565 44.557 24.5062 44.0168 24.7614C43.4765 25.0133 42.8584 25.1392 42.1624 25.1392ZM51.0958 25.169C50.3103 25.1657 49.6391 24.9586 49.0823 24.5476C48.5255 24.1366 48.0996 23.5384 47.8046 22.7528C47.5096 21.9673 47.3621 21.0211 47.3621 19.9141C47.3621 18.8104 47.5096 17.8674 47.8046 17.0852C48.1029 16.303 48.5304 15.7064 49.0873 15.2955C49.6474 14.8845 50.3169 14.679 51.0958 14.679C51.8747 14.679 52.5425 14.8861 53.0993 15.3004C53.6562 15.7114 54.0821 16.308 54.377 17.0902C54.6753 17.8691 54.8245 18.8104 54.8245 19.9141C54.8245 21.0244 54.677 21.9723 54.382 22.7578C54.087 23.54 53.6611 24.1383 53.1043 24.5526C52.5475 24.9635 51.878 25.169 51.0958 25.169ZM51.0958 23.8416C51.7852 23.8416 52.3238 23.5052 52.7116 22.8324C53.1027 22.1596 53.2982 21.1868 53.2982 19.9141C53.2982 19.0689 53.2087 18.3546 53.0297 17.7713C52.8541 17.1847 52.6005 16.7405 52.2691 16.4389C51.941 16.134 51.5499 15.9815 51.0958 15.9815C50.4097 15.9815 49.8711 16.3196 49.48 16.9957C49.0889 17.6719 48.8917 18.6446 48.8884 19.9141C48.8884 20.7625 48.9762 21.4801 49.1519 22.0668C49.3309 22.6501 49.5844 23.0926 49.9125 23.3942C50.2407 23.6925 50.6351 23.8416 51.0958 23.8416ZM60.0429 25.169C59.2574 25.1657 58.5862 24.9586 58.0294 24.5476C57.4726 24.1366 57.0467 23.5384 56.7517 22.7528C56.4567 21.9673 56.3092 21.0211 56.3092 19.9141C56.3092 18.8104 56.4567 17.8674 56.7517 17.0852C57.05 16.303 57.4776 15.7064 58.0344 15.2955C58.5945 14.8845 59.264 14.679 60.0429 14.679C60.8218 14.679 61.4896 14.8861 62.0464 15.3004C62.6033 15.7114 63.0292 16.308 63.3241 17.0902C63.6224 17.8691 63.7716 18.8104 63.7716 19.9141C63.7716 21.0244 63.6241 21.9723 63.3291 22.7578C63.0341 23.54 62.6082 24.1383 62.0514 24.5526C61.4946 24.9635 60.8251 25.169 60.0429 25.169ZM60.0429 23.8416C60.7323 23.8416 61.2709 23.5052 61.6587 22.8324C62.0498 22.1596 62.2453 21.1868 62.2453 19.9141C62.2453 19.0689 62.1558 18.3546 61.9768 17.7713C61.8012 17.1847 61.5476 16.7405 61.2162 16.4389C60.8881 16.134 60.497 15.9815 60.0429 15.9815C59.3568 15.9815 58.8182 16.3196 58.4271 16.9957C58.036 17.6719 57.8388 18.6446 57.8355 19.9141C57.8355 20.7625 57.9233 21.4801 58.099 22.0668C58.278 22.6501 58.5315 23.0926 58.8597 23.3942C59.1878 23.6925 59.5822 23.8416 60.0429 23.8416Z" fill="black"/>
</svg>
