<svg width="342" height="40" viewBox="0 0 342 40" fill="none" xmlns="http://www.w3.org/2000/svg">
<rect width="341.333" height="40" transform="translate(0.666504)" fill="#F396AC"/>
<path d="M13.7851 25V14.8182H17.4144C18.2032 14.8182 18.8578 14.9541 19.3782 15.2259C19.9018 15.4976 20.2929 15.8738 20.5514 16.3544C20.81 16.8317 20.9392 17.3835 20.9392 18.0099C20.9392 18.633 20.8083 19.1816 20.5465 19.6555C20.288 20.1262 19.8969 20.4924 19.3732 20.7543C18.8528 21.0161 18.1982 21.147 17.4094 21.147H14.6601V19.8246H17.2702C17.7674 19.8246 18.1717 19.7533 18.4833 19.6108C18.7981 19.4683 19.0285 19.2611 19.1743 18.9893C19.3201 18.7176 19.3931 18.3911 19.3931 18.0099C19.3931 17.6255 19.3185 17.2924 19.1693 17.0107C19.0235 16.7289 18.7932 16.5135 18.4783 16.3643C18.1667 16.2119 17.7574 16.1357 17.2503 16.1357H15.3213V25H13.7851ZM18.8114 20.4062L21.327 25H19.577L17.1111 20.4062H18.8114ZM25.8847 25.1541C25.1324 25.1541 24.4844 24.9934 23.9408 24.6719C23.4006 24.3471 22.983 23.8913 22.688 23.3047C22.3963 22.7147 22.2505 22.0237 22.2505 21.2315C22.2505 20.4493 22.3963 19.7599 22.688 19.1634C22.983 18.5668 23.394 18.1011 23.9209 17.7663C24.4512 17.4316 25.071 17.2642 25.7803 17.2642C26.2112 17.2642 26.6288 17.3355 27.0332 17.478C27.4375 17.6205 27.8004 17.8442 28.1219 18.1491C28.4434 18.4541 28.697 18.8501 28.8826 19.3374C29.0682 19.8213 29.161 20.4096 29.161 21.1023V21.6293H23.0907V20.5156H27.7043C27.7043 20.1245 27.6248 19.7782 27.4657 19.4766C27.3066 19.1716 27.0829 18.9313 26.7945 18.7557C26.5095 18.58 26.1747 18.4922 25.7903 18.4922C25.3726 18.4922 25.0081 18.5949 24.6965 18.8004C24.3883 19.0026 24.1496 19.2678 23.9806 19.5959C23.8149 19.9207 23.732 20.2737 23.732 20.6548V21.5249C23.732 22.0353 23.8215 22.4695 24.0005 22.8274C24.1828 23.1854 24.4363 23.4588 24.7611 23.6477C25.086 23.8333 25.4655 23.9261 25.8996 23.9261C26.1814 23.9261 26.4382 23.8864 26.6702 23.8068C26.9022 23.724 27.1028 23.6013 27.2718 23.4389C27.4408 23.2765 27.5701 23.076 27.6596 22.8374L29.0665 23.0909C28.9539 23.5052 28.7517 23.8681 28.46 24.1797C28.1717 24.4879 27.8087 24.7282 27.3712 24.9006C26.937 25.0696 26.4415 25.1541 25.8847 25.1541ZM33.669 25.1491C33.0525 25.1491 32.5023 24.9917 32.0184 24.6768C31.5378 24.3587 31.16 23.9062 30.8849 23.3196C30.6131 22.7296 30.4772 22.022 30.4772 21.1967C30.4772 20.3714 30.6148 19.6655 30.8899 19.0788C31.1683 18.4922 31.5494 18.0431 32.0333 17.7315C32.5172 17.42 33.0658 17.2642 33.6789 17.2642C34.1529 17.2642 34.534 17.3438 34.8224 17.5028C35.1141 17.6586 35.3394 17.8409 35.4985 18.0497C35.6609 18.2585 35.7869 18.4425 35.8764 18.6016H35.9659V14.8182H37.4524V25H36.0007V23.8118H35.8764C35.7869 23.9742 35.6576 24.1598 35.4886 24.3686C35.3229 24.5774 35.0942 24.7597 34.8025 24.9155C34.5108 25.0713 34.133 25.1491 33.669 25.1491ZM33.9971 23.8814C34.4247 23.8814 34.7859 23.7687 35.0809 23.5433C35.3792 23.3146 35.6046 22.9981 35.7571 22.5938C35.9128 22.1894 35.9907 21.7187 35.9907 21.1818C35.9907 20.6515 35.9145 20.1875 35.762 19.7898C35.6096 19.392 35.3858 19.0821 35.0909 18.8601C34.7959 18.638 34.4313 18.527 33.9971 18.527C33.5497 18.527 33.1768 18.643 32.8785 18.875C32.5802 19.107 32.3548 19.4235 32.2024 19.8246C32.0532 20.2256 31.9786 20.678 31.9786 21.1818C31.9786 21.6922 32.0549 22.1513 32.2073 22.5589C32.3598 22.9666 32.5852 23.2898 32.8835 23.5284C33.1851 23.7637 33.5563 23.8814 33.9971 23.8814ZM43.0989 25.1392C42.4161 25.1392 41.8062 25.0215 41.2693 24.7862C40.7357 24.5509 40.3131 24.2244 40.0016 23.8068C39.6933 23.3859 39.5276 22.8987 39.5044 22.3452H41.0655C41.0854 22.6468 41.1864 22.9086 41.3687 23.1307C41.5543 23.3494 41.7963 23.5185 42.0946 23.6378C42.3929 23.7571 42.7243 23.8168 43.0889 23.8168C43.49 23.8168 43.8446 23.7472 44.1528 23.608C44.4644 23.4687 44.708 23.2749 44.8837 23.0263C45.0593 22.7744 45.1472 22.4844 45.1472 22.1562C45.1472 21.8149 45.0593 21.5149 44.8837 21.2564C44.7113 20.9946 44.4578 20.7891 44.123 20.6399C43.7916 20.4908 43.3905 20.4162 42.9199 20.4162H42.0598V19.1634H42.9199C43.2977 19.1634 43.6292 19.0954 43.9142 18.9595C44.2025 18.8236 44.4279 18.6347 44.5903 18.3928C44.7527 18.1475 44.8339 17.8608 44.8339 17.5327C44.8339 17.2178 44.7627 16.9444 44.6202 16.7124C44.481 16.477 44.2821 16.2931 44.0236 16.1605C43.7684 16.0279 43.4668 15.9616 43.1187 15.9616C42.7873 15.9616 42.4774 16.023 42.1891 16.1456C41.904 16.2649 41.672 16.4373 41.493 16.6626C41.3141 16.8847 41.2179 17.1515 41.2047 17.4631H39.7182C39.7347 16.9129 39.8972 16.429 40.2054 16.0114C40.5169 15.5937 40.9279 15.2673 41.4383 15.032C41.9488 14.7966 42.5155 14.679 43.1386 14.679C43.7916 14.679 44.355 14.8066 44.829 15.0618C45.3062 15.3137 45.6741 15.6501 45.9327 16.071C46.1945 16.492 46.3238 16.9527 46.3204 17.4531C46.3238 18.0232 46.1647 18.5071 45.8432 18.9048C45.525 19.3026 45.1007 19.5694 44.5704 19.7053V19.7848C45.2466 19.8875 45.7703 20.156 46.1415 20.5902C46.516 21.0244 46.7016 21.563 46.6983 22.206C46.7016 22.7661 46.5458 23.2682 46.231 23.7124C45.9194 24.1565 45.4935 24.5062 44.9533 24.7614C44.413 25.0133 43.7949 25.1392 43.0989 25.1392ZM52.1223 25.169C51.3368 25.1657 50.6656 24.9586 50.1088 24.5476C49.552 24.1366 49.1261 23.5384 48.8311 22.7528C48.5361 21.9673 48.3886 21.0211 48.3886 19.9141C48.3886 18.8104 48.5361 17.8674 48.8311 17.0852C49.1294 16.303 49.557 15.7064 50.1138 15.2955C50.6739 14.8845 51.3434 14.679 52.1223 14.679C52.9012 14.679 53.569 14.8861 54.1258 15.3004C54.6827 15.7114 55.1086 16.308 55.4035 17.0902C55.7018 17.8691 55.851 18.8104 55.851 19.9141C55.851 21.0244 55.7035 21.9723 55.4085 22.7578C55.1135 23.54 54.6876 24.1383 54.1308 24.5526C53.574 24.9635 52.9045 25.169 52.1223 25.169ZM52.1223 23.8416C52.8117 23.8416 53.3503 23.5052 53.7381 22.8324C54.1292 22.1596 54.3247 21.1868 54.3247 19.9141C54.3247 19.0689 54.2352 18.3546 54.0562 17.7713C53.8806 17.1847 53.627 16.7405 53.2956 16.4389C52.9675 16.134 52.5764 15.9815 52.1223 15.9815C51.4362 15.9815 50.8976 16.3196 50.5065 16.9957C50.1154 17.6719 49.9182 18.6446 49.9149 19.9141C49.9149 20.7625 50.0027 21.4801 50.1784 22.0668C50.3574 22.6501 50.6109 23.0926 50.9391 23.3942C51.2672 23.6925 51.6616 23.8416 52.1223 23.8416ZM61.1594 25.169C60.3739 25.1657 59.7027 24.9586 59.1459 24.5476C58.5891 24.1366 58.1632 23.5384 57.8682 22.7528C57.5732 21.9673 57.4257 21.0211 57.4257 19.9141C57.4257 18.8104 57.5732 17.8674 57.8682 17.0852C58.1665 16.303 58.5941 15.7064 59.1509 15.2955C59.711 14.8845 60.3805 14.679 61.1594 14.679C61.9383 14.679 62.6061 14.8861 63.163 15.3004C63.7198 15.7114 64.1457 16.308 64.4407 17.0902C64.7389 17.8691 64.8881 18.8104 64.8881 19.9141C64.8881 21.0244 64.7406 21.9723 64.4456 22.7578C64.1506 23.54 63.7247 24.1383 63.1679 24.5526C62.6111 24.9635 61.9416 25.169 61.1594 25.169ZM61.1594 23.8416C61.8488 23.8416 62.3874 23.5052 62.7752 22.8324C63.1663 22.1596 63.3618 21.1868 63.3618 19.9141C63.3618 19.0689 63.2723 18.3546 63.0934 17.7713C62.9177 17.1847 62.6641 16.7405 62.3327 16.4389C62.0046 16.134 61.6135 15.9815 61.1594 15.9815C60.4733 15.9815 59.9347 16.3196 59.5436 16.9957C59.1525 17.6719 58.9553 18.6446 58.952 19.9141C58.952 20.7625 59.0398 21.4801 59.2155 22.0668C59.3945 22.6501 59.648 23.0926 59.9762 23.3942C60.3043 23.6925 60.6987 23.8416 61.1594 23.8416Z" fill="#0A0A0B"/>
</svg>
