<svg width="240" height="40" viewBox="0 0 240 40" fill="none" xmlns="http://www.w3.org/2000/svg">
<rect width="240" height="40" fill="#FA8B8B"/>
<path d="M13.1186 25V14.8182H16.7479C17.5367 14.8182 18.1913 14.9541 18.7116 15.2259C19.2353 15.4976 19.6264 15.8738 19.8849 16.3544C20.1435 16.8317 20.2727 17.3835 20.2727 18.0099C20.2727 18.633 20.1418 19.1816 19.88 19.6555C19.6214 20.1262 19.2304 20.4924 18.7067 20.7543C18.1863 21.0161 17.5317 21.147 16.7429 21.147H13.9936V19.8246H16.6037C17.1009 19.8246 17.5052 19.7533 17.8168 19.6108C18.1316 19.4683 18.362 19.2611 18.5078 18.9893C18.6536 18.7176 18.7266 18.3911 18.7266 18.0099C18.7266 17.6255 18.652 17.2924 18.5028 17.0107C18.357 16.7289 18.1267 16.5135 17.8118 16.3643C17.5002 16.2119 17.0909 16.1357 16.5838 16.1357H14.6548V25H13.1186ZM18.1449 20.4062L20.6605 25H18.9105L16.4446 20.4062H18.1449ZM25.1282 25.1541C24.3758 25.1541 23.7279 24.9934 23.1843 24.6719C22.6441 24.3471 22.2265 23.8913 21.9315 23.3047C21.6398 22.7147 21.494 22.0237 21.494 21.2315C21.494 20.4493 21.6398 19.7599 21.9315 19.1634C22.2265 18.5668 22.6375 18.1011 23.1644 17.7663C23.6947 17.4316 24.3145 17.2642 25.0238 17.2642C25.4547 17.2642 25.8723 17.3355 26.2767 17.478C26.681 17.6205 27.0439 17.8442 27.3654 18.1491C27.6869 18.4541 27.9405 18.8501 28.1261 19.3374C28.3117 19.8213 28.4045 20.4096 28.4045 21.1023V21.6293H22.3342V20.5156H26.9478C26.9478 20.1245 26.8683 19.7782 26.7092 19.4766C26.5501 19.1716 26.3264 18.9313 26.038 18.7557C25.753 18.58 25.4182 18.4922 25.0338 18.4922C24.6161 18.4922 24.2516 18.5949 23.94 18.8004C23.6318 19.0026 23.3931 19.2678 23.2241 19.5959C23.0584 19.9207 22.9755 20.2737 22.9755 20.6548V21.5249C22.9755 22.0353 23.065 22.4695 23.244 22.8274C23.4263 23.1854 23.6798 23.4588 24.0046 23.6477C24.3294 23.8333 24.7089 23.9261 25.1431 23.9261C25.4249 23.9261 25.6817 23.8864 25.9137 23.8068C26.1457 23.724 26.3463 23.6013 26.5153 23.4389C26.6843 23.2765 26.8136 23.076 26.9031 22.8374L28.31 23.0909C28.1973 23.5052 27.9952 23.8681 27.7035 24.1797C27.4151 24.4879 27.0522 24.7282 26.6147 24.9006C26.1805 25.0696 25.685 25.1541 25.1282 25.1541ZM32.8225 25.1491C32.206 25.1491 31.6558 24.9917 31.1719 24.6768C30.6913 24.3587 30.3135 23.9062 30.0384 23.3196C29.7666 22.7296 29.6307 22.022 29.6307 21.1967C29.6307 20.3714 29.7683 19.6655 30.0434 19.0788C30.3218 18.4922 30.7029 18.0431 31.1868 17.7315C31.6707 17.42 32.2193 17.2642 32.8324 17.2642C33.3064 17.2642 33.6875 17.3438 33.9759 17.5028C34.2676 17.6586 34.4929 17.8409 34.652 18.0497C34.8144 18.2585 34.9404 18.4425 35.0299 18.6016H35.1194V14.8182H36.6059V25H35.1542V23.8118H35.0299C34.9404 23.9742 34.8111 24.1598 34.6421 24.3686C34.4764 24.5774 34.2477 24.7597 33.956 24.9155C33.6643 25.0713 33.2865 25.1491 32.8225 25.1491ZM33.1506 23.8814C33.5782 23.8814 33.9394 23.7687 34.2344 23.5433C34.5327 23.3146 34.7581 22.9981 34.9106 22.5938C35.0663 22.1894 35.1442 21.7187 35.1442 21.1818C35.1442 20.6515 35.068 20.1875 34.9155 19.7898C34.7631 19.392 34.5393 19.0821 34.2444 18.8601C33.9494 18.638 33.5848 18.527 33.1506 18.527C32.7032 18.527 32.3303 18.643 32.032 18.875C31.7337 19.107 31.5083 19.4235 31.3559 19.8246C31.2067 20.2256 31.1321 20.678 31.1321 21.1818C31.1321 21.6922 31.2084 22.1513 31.3608 22.5589C31.5133 22.9666 31.7387 23.2898 32.037 23.5284C32.3386 23.7637 32.7098 23.8814 33.1506 23.8814ZM38.4038 23.0114V21.7685L42.8037 14.8182H43.7831V16.6477H43.1616L40.0146 21.6293V21.7088H46.0452V23.0114H38.4038ZM43.2312 25V22.6335L43.2412 22.0668V14.8182H44.6979V25H43.2312ZM51.2325 25.169C50.447 25.1657 49.7758 24.9586 49.219 24.5476C48.6622 24.1366 48.2363 23.5384 47.9413 22.7528C47.6463 21.9673 47.4988 21.0211 47.4988 19.9141C47.4988 18.8104 47.6463 17.8674 47.9413 17.0852C48.2396 16.303 48.6672 15.7064 49.224 15.2955C49.7841 14.8845 50.4536 14.679 51.2325 14.679C52.0114 14.679 52.6792 14.8861 53.2361 15.3004C53.7929 15.7114 54.2188 16.308 54.5138 17.0902C54.8121 17.8691 54.9612 18.8104 54.9612 19.9141C54.9612 21.0244 54.8137 21.9723 54.5187 22.7578C54.2237 23.54 53.7978 24.1383 53.241 24.5526C52.6842 24.9635 52.0147 25.169 51.2325 25.169ZM51.2325 23.8416C51.9219 23.8416 52.4605 23.5052 52.8483 22.8324C53.2394 22.1596 53.4349 21.1868 53.4349 19.9141C53.4349 19.0689 53.3454 18.3546 53.1665 17.7713C52.9908 17.1847 52.7372 16.7405 52.4058 16.4389C52.0777 16.134 51.6866 15.9815 51.2325 15.9815C50.5464 15.9815 50.0078 16.3196 49.6167 16.9957C49.2256 17.6719 49.0284 18.6446 49.0251 19.9141C49.0251 20.7625 49.113 21.4801 49.2886 22.0668C49.4676 22.6501 49.7211 23.0926 50.0493 23.3942C50.3774 23.6925 50.7718 23.8416 51.2325 23.8416ZM60.1796 25.169C59.3941 25.1657 58.7229 24.9586 58.1661 24.5476C57.6093 24.1366 57.1834 23.5384 56.8884 22.7528C56.5934 21.9673 56.446 21.0211 56.446 19.9141C56.446 18.8104 56.5934 17.8674 56.8884 17.0852C57.1867 16.303 57.6143 15.7064 58.1711 15.2955C58.7312 14.8845 59.4007 14.679 60.1796 14.679C60.9585 14.679 61.6263 14.8861 62.1832 15.3004C62.74 15.7114 63.1659 16.308 63.4609 17.0902C63.7592 17.8691 63.9083 18.8104 63.9083 19.9141C63.9083 21.0244 63.7608 21.9723 63.4658 22.7578C63.1709 23.54 62.745 24.1383 62.1881 24.5526C61.6313 24.9635 60.9618 25.169 60.1796 25.169ZM60.1796 23.8416C60.869 23.8416 61.4076 23.5052 61.7954 22.8324C62.1865 22.1596 62.382 21.1868 62.382 19.9141C62.382 19.0689 62.2925 18.3546 62.1136 17.7713C61.9379 17.1847 61.6844 16.7405 61.3529 16.4389C61.0248 16.134 60.6337 15.9815 60.1796 15.9815C59.4935 15.9815 58.9549 16.3196 58.5638 16.9957C58.1728 17.6719 57.9755 18.6446 57.9722 19.9141C57.9722 20.7625 58.0601 21.4801 58.2357 22.0668C58.4147 22.6501 58.6683 23.0926 58.9964 23.3942C59.3245 23.6925 59.7189 23.8416 60.1796 23.8416Z" fill="black"/>
</svg>
