<svg width="342" height="40" viewBox="0 0 342 40" fill="none" xmlns="http://www.w3.org/2000/svg">
<rect width="341.333" height="40" transform="translate(0.666504)" fill="#F0708E"/>
<path d="M13.7851 25V14.8182H17.4144C18.2032 14.8182 18.8578 14.9541 19.3782 15.2259C19.9018 15.4976 20.2929 15.8738 20.5514 16.3544C20.81 16.8317 20.9392 17.3835 20.9392 18.0099C20.9392 18.633 20.8083 19.1816 20.5465 19.6555C20.288 20.1262 19.8969 20.4924 19.3732 20.7543C18.8528 21.0161 18.1982 21.147 17.4094 21.147H14.6601V19.8246H17.2702C17.7674 19.8246 18.1717 19.7533 18.4833 19.6108C18.7981 19.4683 19.0285 19.2611 19.1743 18.9893C19.3201 18.7176 19.3931 18.3911 19.3931 18.0099C19.3931 17.6255 19.3185 17.2924 19.1693 17.0107C19.0235 16.7289 18.7932 16.5135 18.4783 16.3643C18.1667 16.2119 17.7574 16.1357 17.2503 16.1357H15.3213V25H13.7851ZM18.8114 20.4062L21.327 25H19.577L17.1111 20.4062H18.8114ZM25.8847 25.1541C25.1324 25.1541 24.4844 24.9934 23.9408 24.6719C23.4006 24.3471 22.983 23.8913 22.688 23.3047C22.3963 22.7147 22.2505 22.0237 22.2505 21.2315C22.2505 20.4493 22.3963 19.7599 22.688 19.1634C22.983 18.5668 23.394 18.1011 23.9209 17.7663C24.4512 17.4316 25.071 17.2642 25.7803 17.2642C26.2112 17.2642 26.6288 17.3355 27.0332 17.478C27.4375 17.6205 27.8004 17.8442 28.1219 18.1491C28.4434 18.4541 28.697 18.8501 28.8826 19.3374C29.0682 19.8213 29.161 20.4096 29.161 21.1023V21.6293H23.0907V20.5156H27.7043C27.7043 20.1245 27.6248 19.7782 27.4657 19.4766C27.3066 19.1716 27.0829 18.9313 26.7945 18.7557C26.5095 18.58 26.1747 18.4922 25.7903 18.4922C25.3726 18.4922 25.0081 18.5949 24.6965 18.8004C24.3883 19.0026 24.1496 19.2678 23.9806 19.5959C23.8149 19.9207 23.732 20.2737 23.732 20.6548V21.5249C23.732 22.0353 23.8215 22.4695 24.0005 22.8274C24.1828 23.1854 24.4363 23.4588 24.7611 23.6477C25.086 23.8333 25.4655 23.9261 25.8996 23.9261C26.1814 23.9261 26.4382 23.8864 26.6702 23.8068C26.9022 23.724 27.1028 23.6013 27.2718 23.4389C27.4408 23.2765 27.5701 23.076 27.6596 22.8374L29.0665 23.0909C28.9539 23.5052 28.7517 23.8681 28.46 24.1797C28.1717 24.4879 27.8087 24.7282 27.3712 24.9006C26.937 25.0696 26.4415 25.1541 25.8847 25.1541ZM33.669 25.1491C33.0525 25.1491 32.5023 24.9917 32.0184 24.6768C31.5378 24.3587 31.16 23.9062 30.8849 23.3196C30.6131 22.7296 30.4772 22.022 30.4772 21.1967C30.4772 20.3714 30.6148 19.6655 30.8899 19.0788C31.1683 18.4922 31.5494 18.0431 32.0333 17.7315C32.5172 17.42 33.0658 17.2642 33.6789 17.2642C34.1529 17.2642 34.534 17.3438 34.8224 17.5028C35.1141 17.6586 35.3394 17.8409 35.4985 18.0497C35.6609 18.2585 35.7869 18.4425 35.8764 18.6016H35.9659V14.8182H37.4524V25H36.0007V23.8118H35.8764C35.7869 23.9742 35.6576 24.1598 35.4886 24.3686C35.3229 24.5774 35.0942 24.7597 34.8025 24.9155C34.5108 25.0713 34.133 25.1491 33.669 25.1491ZM33.9971 23.8814C34.4247 23.8814 34.7859 23.7687 35.0809 23.5433C35.3792 23.3146 35.6046 22.9981 35.7571 22.5938C35.9128 22.1894 35.9907 21.7187 35.9907 21.1818C35.9907 20.6515 35.9145 20.1875 35.762 19.7898C35.6096 19.392 35.3858 19.0821 35.0909 18.8601C34.7959 18.638 34.4313 18.527 33.9971 18.527C33.5497 18.527 33.1768 18.643 32.8785 18.875C32.5802 19.107 32.3548 19.4235 32.2024 19.8246C32.0532 20.2256 31.9786 20.678 31.9786 21.1818C31.9786 21.6922 32.0549 22.1513 32.2073 22.5589C32.3598 22.9666 32.5852 23.2898 32.8835 23.5284C33.1851 23.7637 33.5563 23.8814 33.9971 23.8814ZM39.3403 23.0114V21.7685L43.7402 14.8182H44.7196V16.6477H44.0981L40.9511 21.6293V21.7088H46.9817V23.0114H39.3403ZM44.1677 25V22.6335L44.1777 22.0668V14.8182H45.6344V25H44.1677ZM52.259 25.169C51.4735 25.1657 50.8023 24.9586 50.2455 24.5476C49.6887 24.1366 49.2628 23.5384 48.9678 22.7528C48.6728 21.9673 48.5253 21.0211 48.5253 19.9141C48.5253 18.8104 48.6728 17.8674 48.9678 17.0852C49.2661 16.303 49.6937 15.7064 50.2505 15.2955C50.8106 14.8845 51.4801 14.679 52.259 14.679C53.0379 14.679 53.7057 14.8861 54.2626 15.3004C54.8194 15.7114 55.2453 16.308 55.5403 17.0902C55.8386 17.8691 55.9877 18.8104 55.9877 19.9141C55.9877 21.0244 55.8402 21.9723 55.5452 22.7578C55.2503 23.54 54.8244 24.1383 54.2675 24.5526C53.7107 24.9635 53.0412 25.169 52.259 25.169ZM52.259 23.8416C52.9484 23.8416 53.487 23.5052 53.8748 22.8324C54.2659 22.1596 54.4614 21.1868 54.4614 19.9141C54.4614 19.0689 54.3719 18.3546 54.193 17.7713C54.0173 17.1847 53.7637 16.7405 53.4323 16.4389C53.1042 16.134 52.7131 15.9815 52.259 15.9815C51.5729 15.9815 51.0343 16.3196 50.6432 16.9957C50.2521 17.6719 50.0549 18.6446 50.0516 19.9141C50.0516 20.7625 50.1395 21.4801 50.3151 22.0668C50.4941 22.6501 50.7476 23.0926 51.0758 23.3942C51.4039 23.6925 51.7983 23.8416 52.259 23.8416ZM61.2961 25.169C60.5106 25.1657 59.8394 24.9586 59.2826 24.5476C58.7258 24.1366 58.2999 23.5384 58.0049 22.7528C57.7099 21.9673 57.5625 21.0211 57.5625 19.9141C57.5625 18.8104 57.7099 17.8674 58.0049 17.0852C58.3032 16.303 58.7308 15.7064 59.2876 15.2955C59.8477 14.8845 60.5172 14.679 61.2961 14.679C62.075 14.679 62.7429 14.8861 63.2997 15.3004C63.8565 15.7114 64.2824 16.308 64.5774 17.0902C64.8757 17.8691 65.0248 18.8104 65.0248 19.9141C65.0248 21.0244 64.8773 21.9723 64.5823 22.7578C64.2874 23.54 63.8615 24.1383 63.3046 24.5526C62.7478 24.9635 62.0783 25.169 61.2961 25.169ZM61.2961 23.8416C61.9855 23.8416 62.5241 23.5052 62.9119 22.8324C63.303 22.1596 63.4985 21.1868 63.4985 19.9141C63.4985 19.0689 63.409 18.3546 63.2301 17.7713C63.0544 17.1847 62.8009 16.7405 62.4694 16.4389C62.1413 16.134 61.7502 15.9815 61.2961 15.9815C60.61 15.9815 60.0715 16.3196 59.6804 16.9957C59.2893 17.6719 59.092 18.6446 59.0887 19.9141C59.0887 20.7625 59.1766 21.4801 59.3522 22.0668C59.5312 22.6501 59.7848 23.0926 60.1129 23.3942C60.441 23.6925 60.8354 23.8416 61.2961 23.8416Z" fill="white"/>
</svg>
