<svg width="240" height="40" viewBox="0 0 240 40" fill="none" xmlns="http://www.w3.org/2000/svg">
<rect width="240" height="40" fill="#F9505B"/>
<path d="M13.1186 25V14.8182H16.7479C17.5367 14.8182 18.1913 14.9541 18.7116 15.2259C19.2353 15.4976 19.6264 15.8738 19.8849 16.3544C20.1435 16.8317 20.2727 17.3835 20.2727 18.0099C20.2727 18.633 20.1418 19.1816 19.88 19.6555C19.6214 20.1262 19.2304 20.4924 18.7067 20.7543C18.1863 21.0161 17.5317 21.147 16.7429 21.147H13.9936V19.8246H16.6037C17.1009 19.8246 17.5052 19.7533 17.8168 19.6108C18.1316 19.4683 18.362 19.2611 18.5078 18.9893C18.6536 18.7176 18.7266 18.3911 18.7266 18.0099C18.7266 17.6255 18.652 17.2924 18.5028 17.0107C18.357 16.7289 18.1267 16.5135 17.8118 16.3643C17.5002 16.2119 17.0909 16.1357 16.5838 16.1357H14.6548V25H13.1186ZM18.1449 20.4062L20.6605 25H18.9105L16.4446 20.4062H18.1449ZM25.1282 25.1541C24.3758 25.1541 23.7279 24.9934 23.1843 24.6719C22.6441 24.3471 22.2265 23.8913 21.9315 23.3047C21.6398 22.7147 21.494 22.0237 21.494 21.2315C21.494 20.4493 21.6398 19.7599 21.9315 19.1634C22.2265 18.5668 22.6375 18.1011 23.1644 17.7663C23.6947 17.4316 24.3145 17.2642 25.0238 17.2642C25.4547 17.2642 25.8723 17.3355 26.2767 17.478C26.681 17.6205 27.0439 17.8442 27.3654 18.1491C27.6869 18.4541 27.9405 18.8501 28.1261 19.3374C28.3117 19.8213 28.4045 20.4096 28.4045 21.1023V21.6293H22.3342V20.5156H26.9478C26.9478 20.1245 26.8683 19.7782 26.7092 19.4766C26.5501 19.1716 26.3264 18.9313 26.038 18.7557C25.753 18.58 25.4182 18.4922 25.0338 18.4922C24.6161 18.4922 24.2516 18.5949 23.94 18.8004C23.6318 19.0026 23.3931 19.2678 23.2241 19.5959C23.0584 19.9207 22.9755 20.2737 22.9755 20.6548V21.5249C22.9755 22.0353 23.065 22.4695 23.244 22.8274C23.4263 23.1854 23.6798 23.4588 24.0046 23.6477C24.3294 23.8333 24.7089 23.9261 25.1431 23.9261C25.4249 23.9261 25.6817 23.8864 25.9137 23.8068C26.1457 23.724 26.3463 23.6013 26.5153 23.4389C26.6843 23.2765 26.8136 23.076 26.9031 22.8374L28.31 23.0909C28.1973 23.5052 27.9952 23.8681 27.7035 24.1797C27.4151 24.4879 27.0522 24.7282 26.6147 24.9006C26.1805 25.0696 25.685 25.1541 25.1282 25.1541ZM32.8225 25.1491C32.206 25.1491 31.6558 24.9917 31.1719 24.6768C30.6913 24.3587 30.3135 23.9062 30.0384 23.3196C29.7666 22.7296 29.6307 22.022 29.6307 21.1967C29.6307 20.3714 29.7683 19.6655 30.0434 19.0788C30.3218 18.4922 30.7029 18.0431 31.1868 17.7315C31.6707 17.42 32.2193 17.2642 32.8324 17.2642C33.3064 17.2642 33.6875 17.3438 33.9759 17.5028C34.2676 17.6586 34.4929 17.8409 34.652 18.0497C34.8144 18.2585 34.9404 18.4425 35.0299 18.6016H35.1194V14.8182H36.6059V25H35.1542V23.8118H35.0299C34.9404 23.9742 34.8111 24.1598 34.6421 24.3686C34.4764 24.5774 34.2477 24.7597 33.956 24.9155C33.6643 25.0713 33.2865 25.1491 32.8225 25.1491ZM33.1506 23.8814C33.5782 23.8814 33.9394 23.7687 34.2344 23.5433C34.5327 23.3146 34.7581 22.9981 34.9106 22.5938C35.0663 22.1894 35.1442 21.7187 35.1442 21.1818C35.1442 20.6515 35.068 20.1875 34.9155 19.7898C34.7631 19.392 34.5393 19.0821 34.2444 18.8601C33.9494 18.638 33.5848 18.527 33.1506 18.527C32.7032 18.527 32.3303 18.643 32.032 18.875C31.7337 19.107 31.5083 19.4235 31.3559 19.8246C31.2067 20.2256 31.1321 20.678 31.1321 21.1818C31.1321 21.6922 31.2084 22.1513 31.3608 22.5589C31.5133 22.9666 31.7387 23.2898 32.037 23.5284C32.3386 23.7637 32.7098 23.8814 33.1506 23.8814ZM41.9784 25.1392C41.3553 25.1392 40.7952 25.0199 40.298 24.7812C39.8042 24.5393 39.4097 24.2079 39.1148 23.7869C38.8198 23.366 38.6624 22.8854 38.6425 22.3452H40.1339C40.1704 22.7827 40.3643 23.1423 40.7156 23.424C41.0669 23.7057 41.4879 23.8466 41.9784 23.8466C42.3695 23.8466 42.7159 23.7571 43.0175 23.5781C43.3224 23.3958 43.561 23.1456 43.7334 22.8274C43.909 22.5092 43.9969 22.1463 43.9969 21.7386C43.9969 21.3243 43.9074 20.9548 43.7284 20.63C43.5494 20.3052 43.3025 20.05 42.9876 19.8643C42.6761 19.6787 42.3181 19.5843 41.9138 19.581C41.6055 19.581 41.2956 19.634 40.9841 19.7401C40.6725 19.8461 40.4206 19.9853 40.2284 20.1577L38.8214 19.9489L39.3932 14.8182H44.9912V16.1357H40.6709L40.3477 18.9844H40.4074C40.6062 18.7921 40.8697 18.6314 41.1979 18.5021C41.5293 18.3729 41.8839 18.3082 42.2618 18.3082C42.8816 18.3082 43.4334 18.4557 43.9173 18.7507C44.4045 19.0457 44.7874 19.4484 45.0658 19.9588C45.3475 20.4659 45.4867 21.0492 45.4834 21.7088C45.4867 22.3684 45.3375 22.9567 45.0359 23.4737C44.7376 23.9908 44.3233 24.3984 43.793 24.6967C43.266 24.9917 42.6612 25.1392 41.9784 25.1392ZM50.754 25.169C49.9685 25.1657 49.2973 24.9586 48.7405 24.5476C48.1837 24.1366 47.7578 23.5384 47.4628 22.7528C47.1678 21.9673 47.0203 21.0211 47.0203 19.9141C47.0203 18.8104 47.1678 17.8674 47.4628 17.0852C47.7611 16.303 48.1887 15.7064 48.7455 15.2955C49.3056 14.8845 49.9751 14.679 50.754 14.679C51.5329 14.679 52.2007 14.8861 52.7575 15.3004C53.3144 15.7114 53.7403 16.308 54.0352 17.0902C54.3335 17.8691 54.4827 18.8104 54.4827 19.9141C54.4827 21.0244 54.3352 21.9723 54.0402 22.7578C53.7452 23.54 53.3193 24.1383 52.7625 24.5526C52.2057 24.9635 51.5362 25.169 50.754 25.169ZM50.754 23.8416C51.4434 23.8416 51.982 23.5052 52.3698 22.8324C52.7609 22.1596 52.9564 21.1868 52.9564 19.9141C52.9564 19.0689 52.8669 18.3546 52.6879 17.7713C52.5123 17.1847 52.2587 16.7405 51.9273 16.4389C51.5992 16.134 51.2081 15.9815 50.754 15.9815C50.0679 15.9815 49.5293 16.3196 49.1382 16.9957C48.7471 17.6719 48.5499 18.6446 48.5466 19.9141C48.5466 20.7625 48.6344 21.4801 48.8101 22.0668C48.9891 22.6501 49.2426 23.0926 49.5708 23.3942C49.8989 23.6925 50.2933 23.8416 50.754 23.8416ZM59.7011 25.169C58.9156 25.1657 58.2444 24.9586 57.6876 24.5476C57.1308 24.1366 56.7049 23.5384 56.4099 22.7528C56.1149 21.9673 55.9674 21.0211 55.9674 19.9141C55.9674 18.8104 56.1149 17.8674 56.4099 17.0852C56.7082 16.303 57.1358 15.7064 57.6926 15.2955C58.2527 14.8845 58.9222 14.679 59.7011 14.679C60.48 14.679 61.1478 14.8861 61.7047 15.3004C62.2615 15.7114 62.6874 16.308 62.9824 17.0902C63.2806 17.8691 63.4298 18.8104 63.4298 19.9141C63.4298 21.0244 63.2823 21.9723 62.9873 22.7578C62.6923 23.54 62.2664 24.1383 61.7096 24.5526C61.1528 24.9635 60.4833 25.169 59.7011 25.169ZM59.7011 23.8416C60.3905 23.8416 60.9291 23.5052 61.3169 22.8324C61.708 22.1596 61.9035 21.1868 61.9035 19.9141C61.9035 19.0689 61.814 18.3546 61.635 17.7713C61.4594 17.1847 61.2058 16.7405 60.8744 16.4389C60.5463 16.134 60.1552 15.9815 59.7011 15.9815C59.015 15.9815 58.4764 16.3196 58.0853 16.9957C57.6942 17.6719 57.497 18.6446 57.4937 19.9141C57.4937 20.7625 57.5815 21.4801 57.7572 22.0668C57.9362 22.6501 58.1897 23.0926 58.5179 23.3942C58.846 23.6925 59.2404 23.8416 59.7011 23.8416Z" fill="white"/>
</svg>
