<svg width="342" height="40" viewBox="0 0 342 40" fill="none" xmlns="http://www.w3.org/2000/svg">
<rect width="341.333" height="40" transform="translate(0.666504)" fill="#EE587B"/>
<path d="M13.7851 25V14.8182H17.4144C18.2032 14.8182 18.8578 14.9541 19.3782 15.2259C19.9018 15.4976 20.2929 15.8738 20.5514 16.3544C20.81 16.8317 20.9392 17.3835 20.9392 18.0099C20.9392 18.633 20.8083 19.1816 20.5465 19.6555C20.288 20.1262 19.8969 20.4924 19.3732 20.7543C18.8528 21.0161 18.1982 21.147 17.4094 21.147H14.6601V19.8246H17.2702C17.7674 19.8246 18.1717 19.7533 18.4833 19.6108C18.7981 19.4683 19.0285 19.2611 19.1743 18.9893C19.3201 18.7176 19.3931 18.3911 19.3931 18.0099C19.3931 17.6255 19.3185 17.2924 19.1693 17.0107C19.0235 16.7289 18.7932 16.5135 18.4783 16.3643C18.1667 16.2119 17.7574 16.1357 17.2503 16.1357H15.3213V25H13.7851ZM18.8114 20.4062L21.327 25H19.577L17.1111 20.4062H18.8114ZM25.8847 25.1541C25.1324 25.1541 24.4844 24.9934 23.9408 24.6719C23.4006 24.3471 22.983 23.8913 22.688 23.3047C22.3963 22.7147 22.2505 22.0237 22.2505 21.2315C22.2505 20.4493 22.3963 19.7599 22.688 19.1634C22.983 18.5668 23.394 18.1011 23.9209 17.7663C24.4512 17.4316 25.071 17.2642 25.7803 17.2642C26.2112 17.2642 26.6288 17.3355 27.0332 17.478C27.4375 17.6205 27.8004 17.8442 28.1219 18.1491C28.4434 18.4541 28.697 18.8501 28.8826 19.3374C29.0682 19.8213 29.161 20.4096 29.161 21.1023V21.6293H23.0907V20.5156H27.7043C27.7043 20.1245 27.6248 19.7782 27.4657 19.4766C27.3066 19.1716 27.0829 18.9313 26.7945 18.7557C26.5095 18.58 26.1747 18.4922 25.7903 18.4922C25.3726 18.4922 25.0081 18.5949 24.6965 18.8004C24.3883 19.0026 24.1496 19.2678 23.9806 19.5959C23.8149 19.9207 23.732 20.2737 23.732 20.6548V21.5249C23.732 22.0353 23.8215 22.4695 24.0005 22.8274C24.1828 23.1854 24.4363 23.4588 24.7611 23.6477C25.086 23.8333 25.4655 23.9261 25.8996 23.9261C26.1814 23.9261 26.4382 23.8864 26.6702 23.8068C26.9022 23.724 27.1028 23.6013 27.2718 23.4389C27.4408 23.2765 27.5701 23.076 27.6596 22.8374L29.0665 23.0909C28.9539 23.5052 28.7517 23.8681 28.46 24.1797C28.1717 24.4879 27.8087 24.7282 27.3712 24.9006C26.937 25.0696 26.4415 25.1541 25.8847 25.1541ZM33.669 25.1491C33.0525 25.1491 32.5023 24.9917 32.0184 24.6768C31.5378 24.3587 31.16 23.9062 30.8849 23.3196C30.6131 22.7296 30.4772 22.022 30.4772 21.1967C30.4772 20.3714 30.6148 19.6655 30.8899 19.0788C31.1683 18.4922 31.5494 18.0431 32.0333 17.7315C32.5172 17.42 33.0658 17.2642 33.6789 17.2642C34.1529 17.2642 34.534 17.3438 34.8224 17.5028C35.1141 17.6586 35.3394 17.8409 35.4985 18.0497C35.6609 18.2585 35.7869 18.4425 35.8764 18.6016H35.9659V14.8182H37.4524V25H36.0007V23.8118H35.8764C35.7869 23.9742 35.6576 24.1598 35.4886 24.3686C35.3229 24.5774 35.0942 24.7597 34.8025 24.9155C34.5108 25.0713 34.133 25.1491 33.669 25.1491ZM33.9971 23.8814C34.4247 23.8814 34.7859 23.7687 35.0809 23.5433C35.3792 23.3146 35.6046 22.9981 35.7571 22.5938C35.9128 22.1894 35.9907 21.7187 35.9907 21.1818C35.9907 20.6515 35.9145 20.1875 35.762 19.7898C35.6096 19.392 35.3858 19.0821 35.0909 18.8601C34.7959 18.638 34.4313 18.527 33.9971 18.527C33.5497 18.527 33.1768 18.643 32.8785 18.875C32.5802 19.107 32.3548 19.4235 32.2024 19.8246C32.0532 20.2256 31.9786 20.678 31.9786 21.1818C31.9786 21.6922 32.0549 22.1513 32.2073 22.5589C32.3598 22.9666 32.5852 23.2898 32.8835 23.5284C33.1851 23.7637 33.5563 23.8814 33.9971 23.8814ZM42.9149 25.1392C42.2918 25.1392 41.7317 25.0199 41.2345 24.7812C40.7407 24.5393 40.3463 24.2079 40.0513 23.7869C39.7563 23.366 39.5989 22.8854 39.579 22.3452H41.0704C41.1069 22.7827 41.3008 23.1423 41.6521 23.424C42.0034 23.7057 42.4244 23.8466 42.9149 23.8466C43.306 23.8466 43.6524 23.7571 43.954 23.5781C44.2589 23.3958 44.4975 23.1456 44.6699 22.8274C44.8455 22.5092 44.9334 22.1463 44.9334 21.7386C44.9334 21.3243 44.8439 20.9548 44.6649 20.63C44.4859 20.3052 44.239 20.05 43.9241 19.8643C43.6126 19.6787 43.2546 19.5843 42.8503 19.581C42.542 19.581 42.2321 19.634 41.9206 19.7401C41.609 19.8461 41.3571 19.9853 41.1649 20.1577L39.7579 19.9489L40.3297 14.8182H45.9277V16.1357H41.6074L41.2842 18.9844H41.3439C41.5427 18.7921 41.8062 18.6314 42.1344 18.5021C42.4658 18.3729 42.8204 18.3082 43.1983 18.3082C43.8181 18.3082 44.3699 18.4557 44.8538 18.7507C45.341 19.0457 45.7239 19.4484 46.0023 19.9588C46.284 20.4659 46.4232 21.0492 46.4199 21.7088C46.4232 22.3684 46.274 22.9567 45.9724 23.4737C45.6741 23.9908 45.2598 24.3984 44.7295 24.6967C44.2025 24.9917 43.5977 25.1392 42.9149 25.1392ZM51.7805 25.169C50.995 25.1657 50.3238 24.9586 49.767 24.5476C49.2102 24.1366 48.7843 23.5384 48.4893 22.7528C48.1943 21.9673 48.0468 21.0211 48.0468 19.9141C48.0468 18.8104 48.1943 17.8674 48.4893 17.0852C48.7876 16.303 49.2152 15.7064 49.772 15.2955C50.3321 14.8845 51.0016 14.679 51.7805 14.679C52.5594 14.679 53.2272 14.8861 53.784 15.3004C54.3409 15.7114 54.7668 16.308 55.0617 17.0902C55.36 17.8691 55.5092 18.8104 55.5092 19.9141C55.5092 21.0244 55.3617 21.9723 55.0667 22.7578C54.7717 23.54 54.3458 24.1383 53.789 24.5526C53.2322 24.9635 52.5627 25.169 51.7805 25.169ZM51.7805 23.8416C52.4699 23.8416 53.0085 23.5052 53.3963 22.8324C53.7874 22.1596 53.9829 21.1868 53.9829 19.9141C53.9829 19.0689 53.8934 18.3546 53.7144 17.7713C53.5388 17.1847 53.2852 16.7405 52.9538 16.4389C52.6257 16.134 52.2346 15.9815 51.7805 15.9815C51.0944 15.9815 50.5558 16.3196 50.1647 16.9957C49.7736 17.6719 49.5764 18.6446 49.5731 19.9141C49.5731 20.7625 49.6609 21.4801 49.8366 22.0668C50.0156 22.6501 50.2691 23.0926 50.5973 23.3942C50.9254 23.6925 51.3198 23.8416 51.7805 23.8416ZM60.8176 25.169C60.0321 25.1657 59.3609 24.9586 58.8041 24.5476C58.2473 24.1366 57.8214 23.5384 57.5264 22.7528C57.2314 21.9673 57.0839 21.0211 57.0839 19.9141C57.0839 18.8104 57.2314 17.8674 57.5264 17.0852C57.8247 16.303 58.2523 15.7064 58.8091 15.2955C59.3692 14.8845 60.0387 14.679 60.8176 14.679C61.5965 14.679 62.2643 14.8861 62.8212 15.3004C63.378 15.7114 63.8039 16.308 64.0989 17.0902C64.3972 17.8691 64.5463 18.8104 64.5463 19.9141C64.5463 21.0244 64.3988 21.9723 64.1038 22.7578C63.8088 23.54 63.3829 24.1383 62.8261 24.5526C62.2693 24.9635 61.5998 25.169 60.8176 25.169ZM60.8176 23.8416C61.507 23.8416 62.0456 23.5052 62.4334 22.8324C62.8245 22.1596 63.02 21.1868 63.02 19.9141C63.02 19.0689 62.9305 18.3546 62.7516 17.7713C62.5759 17.1847 62.3223 16.7405 61.9909 16.4389C61.6628 16.134 61.2717 15.9815 60.8176 15.9815C60.1315 15.9815 59.5929 16.3196 59.2018 16.9957C58.8107 17.6719 58.6135 18.6446 58.6102 19.9141C58.6102 20.7625 58.698 21.4801 58.8737 22.0668C59.0527 22.6501 59.3062 23.0926 59.6344 23.3942C59.9625 23.6925 60.3569 23.8416 60.8176 23.8416Z" fill="white"/>
</svg>
