<svg width="342" height="40" viewBox="0 0 342 40" fill="none" xmlns="http://www.w3.org/2000/svg">
<rect width="341.333" height="40" transform="translate(0.666504)" fill="#E9476D"/>
<path d="M13.7851 25V14.8182H17.4144C18.2032 14.8182 18.8578 14.9541 19.3782 15.2259C19.9018 15.4976 20.2929 15.8738 20.5514 16.3544C20.81 16.8317 20.9392 17.3835 20.9392 18.0099C20.9392 18.633 20.8083 19.1816 20.5465 19.6555C20.288 20.1262 19.8969 20.4924 19.3732 20.7543C18.8528 21.0161 18.1982 21.147 17.4094 21.147H14.6601V19.8246H17.2702C17.7674 19.8246 18.1717 19.7533 18.4833 19.6108C18.7981 19.4683 19.0285 19.2611 19.1743 18.9893C19.3201 18.7176 19.3931 18.3911 19.3931 18.0099C19.3931 17.6255 19.3185 17.2924 19.1693 17.0107C19.0235 16.7289 18.7932 16.5135 18.4783 16.3643C18.1667 16.2119 17.7574 16.1357 17.2503 16.1357H15.3213V25H13.7851ZM18.8114 20.4062L21.327 25H19.577L17.1111 20.4062H18.8114ZM25.8847 25.1541C25.1324 25.1541 24.4844 24.9934 23.9408 24.6719C23.4006 24.3471 22.983 23.8913 22.688 23.3047C22.3963 22.7147 22.2505 22.0237 22.2505 21.2315C22.2505 20.4493 22.3963 19.7599 22.688 19.1634C22.983 18.5668 23.394 18.1011 23.9209 17.7663C24.4512 17.4316 25.071 17.2642 25.7803 17.2642C26.2112 17.2642 26.6288 17.3355 27.0332 17.478C27.4375 17.6205 27.8004 17.8442 28.1219 18.1491C28.4434 18.4541 28.697 18.8501 28.8826 19.3374C29.0682 19.8213 29.161 20.4096 29.161 21.1023V21.6293H23.0907V20.5156H27.7043C27.7043 20.1245 27.6248 19.7782 27.4657 19.4766C27.3066 19.1716 27.0829 18.9313 26.7945 18.7557C26.5095 18.58 26.1747 18.4922 25.7903 18.4922C25.3726 18.4922 25.0081 18.5949 24.6965 18.8004C24.3883 19.0026 24.1496 19.2678 23.9806 19.5959C23.8149 19.9207 23.732 20.2737 23.732 20.6548V21.5249C23.732 22.0353 23.8215 22.4695 24.0005 22.8274C24.1828 23.1854 24.4363 23.4588 24.7611 23.6477C25.086 23.8333 25.4655 23.9261 25.8996 23.9261C26.1814 23.9261 26.4382 23.8864 26.6702 23.8068C26.9022 23.724 27.1028 23.6013 27.2718 23.4389C27.4408 23.2765 27.5701 23.076 27.6596 22.8374L29.0665 23.0909C28.9539 23.5052 28.7517 23.8681 28.46 24.1797C28.1717 24.4879 27.8087 24.7282 27.3712 24.9006C26.937 25.0696 26.4415 25.1541 25.8847 25.1541ZM33.669 25.1491C33.0525 25.1491 32.5023 24.9917 32.0184 24.6768C31.5378 24.3587 31.16 23.9062 30.8849 23.3196C30.6131 22.7296 30.4772 22.022 30.4772 21.1967C30.4772 20.3714 30.6148 19.6655 30.8899 19.0788C31.1683 18.4922 31.5494 18.0431 32.0333 17.7315C32.5172 17.42 33.0658 17.2642 33.6789 17.2642C34.1529 17.2642 34.534 17.3438 34.8224 17.5028C35.1141 17.6586 35.3394 17.8409 35.4985 18.0497C35.6609 18.2585 35.7869 18.4425 35.8764 18.6016H35.9659V14.8182H37.4524V25H36.0007V23.8118H35.8764C35.7869 23.9742 35.6576 24.1598 35.4886 24.3686C35.3229 24.5774 35.0942 24.7597 34.8025 24.9155C34.5108 25.0713 34.133 25.1491 33.669 25.1491ZM33.9971 23.8814C34.4247 23.8814 34.7859 23.7687 35.0809 23.5433C35.3792 23.3146 35.6046 22.9981 35.7571 22.5938C35.9128 22.1894 35.9907 21.7187 35.9907 21.1818C35.9907 20.6515 35.9145 20.1875 35.762 19.7898C35.6096 19.392 35.3858 19.0821 35.0909 18.8601C34.7959 18.638 34.4313 18.527 33.9971 18.527C33.5497 18.527 33.1768 18.643 32.8785 18.875C32.5802 19.107 32.3548 19.4235 32.2024 19.8246C32.0532 20.2256 31.9786 20.678 31.9786 21.1818C31.9786 21.6922 32.0549 22.1513 32.2073 22.5589C32.3598 22.9666 32.5852 23.2898 32.8835 23.5284C33.1851 23.7637 33.5563 23.8814 33.9971 23.8814ZM43.1088 25.1392C42.6547 25.1326 42.2073 25.0497 41.7665 24.8906C41.329 24.7315 40.9312 24.4664 40.5733 24.0952C40.2153 23.724 39.9286 23.2251 39.7132 22.5987C39.5011 21.9723 39.395 21.1901 39.395 20.2521C39.395 19.3639 39.4829 18.575 39.6585 17.8857C39.8375 17.1963 40.0944 16.6146 40.4291 16.1406C40.7639 15.6634 41.1682 15.3004 41.6422 15.0518C42.1161 14.8033 42.6481 14.679 43.2381 14.679C43.8446 14.679 44.3832 14.7983 44.8538 15.0369C45.3245 15.2756 45.7056 15.6054 45.9973 16.0263C46.2923 16.4472 46.4795 16.9261 46.5591 17.4631H45.0427C44.94 17.0388 44.7362 16.6925 44.4312 16.424C44.1263 16.1555 43.7286 16.0213 43.2381 16.0213C42.4923 16.0213 41.9106 16.3461 41.493 16.9957C41.0787 17.6454 40.8699 18.5485 40.8666 19.7053H40.9412C41.1168 19.4169 41.3323 19.1716 41.5875 18.9695C41.846 18.764 42.1344 18.6065 42.4525 18.4972C42.774 18.3845 43.1121 18.3281 43.4668 18.3281C44.0567 18.3281 44.5903 18.4723 45.0676 18.7607C45.5482 19.0457 45.931 19.4401 46.216 19.9439C46.5011 20.4477 46.6436 21.0244 46.6436 21.674C46.6436 22.3236 46.4961 22.9119 46.2011 23.4389C45.9095 23.9659 45.4985 24.3835 44.9682 24.6918C44.4379 24.9967 43.8181 25.1458 43.1088 25.1392ZM43.1038 23.8466C43.4949 23.8466 43.8446 23.7505 44.1528 23.5582C44.4611 23.366 44.7047 23.1075 44.8837 22.7827C45.0626 22.4579 45.1521 22.0949 45.1521 21.6939C45.1521 21.3028 45.0643 20.9465 44.8886 20.625C44.7163 20.3035 44.4776 20.0483 44.1727 19.8594C43.8711 19.6705 43.5264 19.576 43.1386 19.576C42.8436 19.576 42.5702 19.6323 42.3183 19.745C42.0697 19.8577 41.851 20.0135 41.6621 20.2124C41.4731 20.4112 41.324 20.6399 41.2146 20.8984C41.1086 21.1536 41.0555 21.4238 41.0555 21.7088C41.0555 22.09 41.1434 22.4429 41.319 22.7678C41.498 23.0926 41.7416 23.3544 42.0498 23.5533C42.3614 23.7488 42.7127 23.8466 43.1038 23.8466ZM51.9992 25.169C51.2137 25.1657 50.5426 24.9586 49.9858 24.5476C49.4289 24.1366 49.003 23.5384 48.7081 22.7528C48.4131 21.9673 48.2656 21.0211 48.2656 19.9141C48.2656 18.8104 48.4131 17.8674 48.7081 17.0852C49.0063 16.303 49.4339 15.7064 49.9907 15.2955C50.5509 14.8845 51.2204 14.679 51.9992 14.679C52.7781 14.679 53.446 14.8861 54.0028 15.3004C54.5596 15.7114 54.9855 16.308 55.2805 17.0902C55.5788 17.8691 55.7279 18.8104 55.7279 19.9141C55.7279 21.0244 55.5804 21.9723 55.2855 22.7578C54.9905 23.54 54.5646 24.1383 54.0078 24.5526C53.451 24.9635 52.7814 25.169 51.9992 25.169ZM51.9992 23.8416C52.6886 23.8416 53.2272 23.5052 53.615 22.8324C54.0061 22.1596 54.2017 21.1868 54.2017 19.9141C54.2017 19.0689 54.1122 18.3546 53.9332 17.7713C53.7575 17.1847 53.504 16.7405 53.1725 16.4389C52.8444 16.134 52.4533 15.9815 51.9992 15.9815C51.3132 15.9815 50.7746 16.3196 50.3835 16.9957C49.9924 17.6719 49.7952 18.6446 49.7919 19.9141C49.7919 20.7625 49.8797 21.4801 50.0554 22.0668C50.2343 22.6501 50.4879 23.0926 50.816 23.3942C51.1441 23.6925 51.5385 23.8416 51.9992 23.8416ZM61.0364 25.169C60.2508 25.1657 59.5797 24.9586 59.0229 24.5476C58.466 24.1366 58.0401 23.5384 57.7452 22.7528C57.4502 21.9673 57.3027 21.0211 57.3027 19.9141C57.3027 18.8104 57.4502 17.8674 57.7452 17.0852C58.0435 16.303 58.471 15.7064 59.0278 15.2955C59.588 14.8845 60.2575 14.679 61.0364 14.679C61.8152 14.679 62.4831 14.8861 63.0399 15.3004C63.5967 15.7114 64.0226 16.308 64.3176 17.0902C64.6159 17.8691 64.765 18.8104 64.765 19.9141C64.765 21.0244 64.6176 21.9723 64.3226 22.7578C64.0276 23.54 63.6017 24.1383 63.0449 24.5526C62.4881 24.9635 61.8186 25.169 61.0364 25.169ZM61.0364 23.8416C61.7257 23.8416 62.2643 23.5052 62.6521 22.8324C63.0432 22.1596 63.2388 21.1868 63.2388 19.9141C63.2388 19.0689 63.1493 18.3546 62.9703 17.7713C62.7946 17.1847 62.5411 16.7405 62.2097 16.4389C61.8815 16.134 61.4904 15.9815 61.0364 15.9815C60.3503 15.9815 59.8117 16.3196 59.4206 16.9957C59.0295 17.6719 58.8323 18.6446 58.829 19.9141C58.829 20.7625 58.9168 21.4801 59.0925 22.0668C59.2714 22.6501 59.525 23.0926 59.8531 23.3942C60.1812 23.6925 60.5757 23.8416 61.0364 23.8416Z" fill="white"/>
</svg>
