<svg width="240" height="40" viewBox="0 0 240 40" fill="none" xmlns="http://www.w3.org/2000/svg">
<rect width="240" height="40" fill="#D3203F"/>
<path d="M13.1186 25V14.8182H16.7479C17.5367 14.8182 18.1913 14.9541 18.7116 15.2259C19.2353 15.4976 19.6264 15.8738 19.8849 16.3544C20.1435 16.8317 20.2727 17.3835 20.2727 18.0099C20.2727 18.633 20.1418 19.1816 19.88 19.6555C19.6214 20.1262 19.2304 20.4924 18.7067 20.7543C18.1863 21.0161 17.5317 21.147 16.7429 21.147H13.9936V19.8246H16.6037C17.1009 19.8246 17.5052 19.7533 17.8168 19.6108C18.1316 19.4683 18.362 19.2611 18.5078 18.9893C18.6536 18.7176 18.7266 18.3911 18.7266 18.0099C18.7266 17.6255 18.652 17.2924 18.5028 17.0107C18.357 16.7289 18.1267 16.5135 17.8118 16.3643C17.5002 16.2119 17.0909 16.1357 16.5838 16.1357H14.6548V25H13.1186ZM18.1449 20.4062L20.6605 25H18.9105L16.4446 20.4062H18.1449ZM25.1282 25.1541C24.3758 25.1541 23.7279 24.9934 23.1843 24.6719C22.6441 24.3471 22.2265 23.8913 21.9315 23.3047C21.6398 22.7147 21.494 22.0237 21.494 21.2315C21.494 20.4493 21.6398 19.7599 21.9315 19.1634C22.2265 18.5668 22.6375 18.1011 23.1644 17.7663C23.6947 17.4316 24.3145 17.2642 25.0238 17.2642C25.4547 17.2642 25.8723 17.3355 26.2767 17.478C26.681 17.6205 27.0439 17.8442 27.3654 18.1491C27.6869 18.4541 27.9405 18.8501 28.1261 19.3374C28.3117 19.8213 28.4045 20.4096 28.4045 21.1023V21.6293H22.3342V20.5156H26.9478C26.9478 20.1245 26.8683 19.7782 26.7092 19.4766C26.5501 19.1716 26.3264 18.9313 26.038 18.7557C25.753 18.58 25.4182 18.4922 25.0338 18.4922C24.6161 18.4922 24.2516 18.5949 23.94 18.8004C23.6318 19.0026 23.3931 19.2678 23.2241 19.5959C23.0584 19.9207 22.9755 20.2737 22.9755 20.6548V21.5249C22.9755 22.0353 23.065 22.4695 23.244 22.8274C23.4263 23.1854 23.6798 23.4588 24.0046 23.6477C24.3294 23.8333 24.7089 23.9261 25.1431 23.9261C25.4249 23.9261 25.6817 23.8864 25.9137 23.8068C26.1457 23.724 26.3463 23.6013 26.5153 23.4389C26.6843 23.2765 26.8136 23.076 26.9031 22.8374L28.31 23.0909C28.1973 23.5052 27.9952 23.8681 27.7035 24.1797C27.4151 24.4879 27.0522 24.7282 26.6147 24.9006C26.1805 25.0696 25.685 25.1541 25.1282 25.1541ZM32.8225 25.1491C32.206 25.1491 31.6558 24.9917 31.1719 24.6768C30.6913 24.3587 30.3135 23.9062 30.0384 23.3196C29.7666 22.7296 29.6307 22.022 29.6307 21.1967C29.6307 20.3714 29.7683 19.6655 30.0434 19.0788C30.3218 18.4922 30.7029 18.0431 31.1868 17.7315C31.6707 17.42 32.2193 17.2642 32.8324 17.2642C33.3064 17.2642 33.6875 17.3438 33.9759 17.5028C34.2676 17.6586 34.4929 17.8409 34.652 18.0497C34.8144 18.2585 34.9404 18.4425 35.0299 18.6016H35.1194V14.8182H36.6059V25H35.1542V23.8118H35.0299C34.9404 23.9742 34.8111 24.1598 34.6421 24.3686C34.4764 24.5774 34.2477 24.7597 33.956 24.9155C33.6643 25.0713 33.2865 25.1491 32.8225 25.1491ZM33.1506 23.8814C33.5782 23.8814 33.9394 23.7687 34.2344 23.5433C34.5327 23.3146 34.7581 22.9981 34.9106 22.5938C35.0663 22.1894 35.1442 21.7187 35.1442 21.1818C35.1442 20.6515 35.068 20.1875 34.9155 19.7898C34.7631 19.392 34.5393 19.0821 34.2444 18.8601C33.9494 18.638 33.5848 18.527 33.1506 18.527C32.7032 18.527 32.3303 18.643 32.032 18.875C31.7337 19.107 31.5083 19.4235 31.3559 19.8246C31.2067 20.2256 31.1321 20.678 31.1321 21.1818C31.1321 21.6922 31.2084 22.1513 31.3608 22.5589C31.5133 22.9666 31.7387 23.2898 32.037 23.5284C32.3386 23.7637 32.7098 23.8814 33.1506 23.8814ZM42.1723 25.1392C41.7182 25.1326 41.2708 25.0497 40.83 24.8906C40.3925 24.7315 39.9947 24.4664 39.6368 24.0952C39.2788 23.724 38.9921 23.2251 38.7767 22.5987C38.5646 21.9723 38.4585 21.1901 38.4585 20.2521C38.4585 19.3639 38.5463 18.575 38.722 17.8857C38.901 17.1963 39.1579 16.6146 39.4926 16.1406C39.8274 15.6634 40.2317 15.3004 40.7057 15.0518C41.1796 14.8033 41.7116 14.679 42.3016 14.679C42.9081 14.679 43.4467 14.7983 43.9173 15.0369C44.388 15.2756 44.7691 15.6054 45.0608 16.0263C45.3558 16.4472 45.543 16.9261 45.6226 17.4631H44.1062C44.0035 17.0388 43.7997 16.6925 43.4947 16.424C43.1898 16.1555 42.7921 16.0213 42.3016 16.0213C41.5558 16.0213 40.9741 16.3461 40.5565 16.9957C40.1422 17.6454 39.9334 18.5485 39.9301 19.7053H40.0047C40.1803 19.4169 40.3958 19.1716 40.651 18.9695C40.9095 18.764 41.1979 18.6065 41.516 18.4972C41.8375 18.3845 42.1756 18.3281 42.5302 18.3281C43.1202 18.3281 43.6538 18.4723 44.1311 18.7607C44.6117 19.0457 44.9945 19.4401 45.2795 19.9439C45.5646 20.4477 45.7071 21.0244 45.7071 21.674C45.7071 22.3236 45.5596 22.9119 45.2646 23.4389C44.973 23.9659 44.562 24.3835 44.0317 24.6918C43.5014 24.9967 42.8816 25.1458 42.1723 25.1392ZM42.1673 23.8466C42.5584 23.8466 42.9081 23.7505 43.2163 23.5582C43.5246 23.366 43.7682 23.1075 43.9472 22.7827C44.1261 22.4579 44.2156 22.0949 44.2156 21.6939C44.2156 21.3028 44.1278 20.9465 43.9521 20.625C43.7798 20.3035 43.5411 20.0483 43.2362 19.8594C42.9346 19.6705 42.5899 19.576 42.2021 19.576C41.9071 19.576 41.6337 19.6323 41.3818 19.745C41.1332 19.8577 40.9145 20.0135 40.7256 20.2124C40.5366 20.4112 40.3875 20.6399 40.2781 20.8984C40.1721 21.1536 40.119 21.4238 40.119 21.7088C40.119 22.09 40.2069 22.4429 40.3825 22.7678C40.5615 23.0926 40.8051 23.3544 41.1133 23.5533C41.4249 23.7488 41.7762 23.8466 42.1673 23.8466ZM50.9727 25.169C50.1872 25.1657 49.5161 24.9586 48.9592 24.5476C48.4024 24.1366 47.9765 23.5384 47.6815 22.7528C47.3866 21.9673 47.2391 21.0211 47.2391 19.9141C47.2391 18.8104 47.3866 17.8674 47.6815 17.0852C47.9798 16.303 48.4074 15.7064 48.9642 15.2955C49.5244 14.8845 50.1939 14.679 50.9727 14.679C51.7516 14.679 52.4195 14.8861 52.9763 15.3004C53.5331 15.7114 53.959 16.308 54.254 17.0902C54.5523 17.8691 54.7014 18.8104 54.7014 19.9141C54.7014 21.0244 54.5539 21.9723 54.259 22.7578C53.964 23.54 53.5381 24.1383 52.9813 24.5526C52.4244 24.9635 51.7549 25.169 50.9727 25.169ZM50.9727 23.8416C51.6621 23.8416 52.2007 23.5052 52.5885 22.8324C52.9796 22.1596 53.1752 21.1868 53.1752 19.9141C53.1752 19.0689 53.0857 18.3546 52.9067 17.7713C52.731 17.1847 52.4775 16.7405 52.146 16.4389C51.8179 16.134 51.4268 15.9815 50.9727 15.9815C50.2867 15.9815 49.7481 16.3196 49.357 16.9957C48.9659 17.6719 48.7687 18.6446 48.7654 19.9141C48.7654 20.7625 48.8532 21.4801 49.0288 22.0668C49.2078 22.6501 49.4614 23.0926 49.7895 23.3942C50.1176 23.6925 50.512 23.8416 50.9727 23.8416ZM59.9199 25.169C59.1343 25.1657 58.4632 24.9586 57.9064 24.5476C57.3495 24.1366 56.9236 23.5384 56.6287 22.7528C56.3337 21.9673 56.1862 21.0211 56.1862 19.9141C56.1862 18.8104 56.3337 17.8674 56.6287 17.0852C56.927 16.303 57.3545 15.7064 57.9113 15.2955C58.4715 14.8845 59.141 14.679 59.9199 14.679C60.6987 14.679 61.3666 14.8861 61.9234 15.3004C62.4802 15.7114 62.9061 16.308 63.2011 17.0902C63.4994 17.8691 63.6485 18.8104 63.6485 19.9141C63.6485 21.0244 63.5011 21.9723 63.2061 22.7578C62.9111 23.54 62.4852 24.1383 61.9284 24.5526C61.3716 24.9635 60.702 25.169 59.9199 25.169ZM59.9199 23.8416C60.6092 23.8416 61.1478 23.5052 61.5356 22.8324C61.9267 22.1596 62.1223 21.1868 62.1223 19.9141C62.1223 19.0689 62.0328 18.3546 61.8538 17.7713C61.6781 17.1847 61.4246 16.7405 61.0931 16.4389C60.765 16.134 60.3739 15.9815 59.9199 15.9815C59.2338 15.9815 58.6952 16.3196 58.3041 16.9957C57.913 17.6719 57.7158 18.6446 57.7125 19.9141C57.7125 20.7625 57.8003 21.4801 57.976 22.0668C58.1549 22.6501 58.4085 23.0926 58.7366 23.3942C59.0647 23.6925 59.4591 23.8416 59.9199 23.8416Z" fill="white"/>
</svg>
