<svg width="240" height="40" viewBox="0 0 240 40" fill="none" xmlns="http://www.w3.org/2000/svg">
<rect width="240" height="40" fill="#A81E37"/>
<path d="M13.1186 25V14.8182H16.7479C17.5367 14.8182 18.1913 14.9541 18.7116 15.2259C19.2353 15.4976 19.6264 15.8738 19.8849 16.3544C20.1435 16.8317 20.2727 17.3835 20.2727 18.0099C20.2727 18.633 20.1418 19.1816 19.88 19.6555C19.6214 20.1262 19.2304 20.4924 18.7067 20.7543C18.1863 21.0161 17.5317 21.147 16.7429 21.147H13.9936V19.8246H16.6037C17.1009 19.8246 17.5052 19.7533 17.8168 19.6108C18.1316 19.4683 18.362 19.2611 18.5078 18.9893C18.6536 18.7176 18.7266 18.3911 18.7266 18.0099C18.7266 17.6255 18.652 17.2924 18.5028 17.0107C18.357 16.7289 18.1267 16.5135 17.8118 16.3643C17.5002 16.2119 17.0909 16.1357 16.5838 16.1357H14.6548V25H13.1186ZM18.1449 20.4062L20.6605 25H18.9105L16.4446 20.4062H18.1449ZM25.1282 25.1541C24.3758 25.1541 23.7279 24.9934 23.1843 24.6719C22.6441 24.3471 22.2265 23.8913 21.9315 23.3047C21.6398 22.7147 21.494 22.0237 21.494 21.2315C21.494 20.4493 21.6398 19.7599 21.9315 19.1634C22.2265 18.5668 22.6375 18.1011 23.1644 17.7663C23.6947 17.4316 24.3145 17.2642 25.0238 17.2642C25.4547 17.2642 25.8723 17.3355 26.2767 17.478C26.681 17.6205 27.0439 17.8442 27.3654 18.1491C27.6869 18.4541 27.9405 18.8501 28.1261 19.3374C28.3117 19.8213 28.4045 20.4096 28.4045 21.1023V21.6293H22.3342V20.5156H26.9478C26.9478 20.1245 26.8683 19.7782 26.7092 19.4766C26.5501 19.1716 26.3264 18.9313 26.038 18.7557C25.753 18.58 25.4182 18.4922 25.0338 18.4922C24.6161 18.4922 24.2516 18.5949 23.94 18.8004C23.6318 19.0026 23.3931 19.2678 23.2241 19.5959C23.0584 19.9207 22.9755 20.2737 22.9755 20.6548V21.5249C22.9755 22.0353 23.065 22.4695 23.244 22.8274C23.4263 23.1854 23.6798 23.4588 24.0046 23.6477C24.3294 23.8333 24.7089 23.9261 25.1431 23.9261C25.4249 23.9261 25.6817 23.8864 25.9137 23.8068C26.1457 23.724 26.3463 23.6013 26.5153 23.4389C26.6843 23.2765 26.8136 23.076 26.9031 22.8374L28.31 23.0909C28.1973 23.5052 27.9952 23.8681 27.7035 24.1797C27.4151 24.4879 27.0522 24.7282 26.6147 24.9006C26.1805 25.0696 25.685 25.1541 25.1282 25.1541ZM32.8225 25.1491C32.206 25.1491 31.6558 24.9917 31.1719 24.6768C30.6913 24.3587 30.3135 23.9062 30.0384 23.3196C29.7666 22.7296 29.6307 22.022 29.6307 21.1967C29.6307 20.3714 29.7683 19.6655 30.0434 19.0788C30.3218 18.4922 30.7029 18.0431 31.1868 17.7315C31.6707 17.42 32.2193 17.2642 32.8324 17.2642C33.3064 17.2642 33.6875 17.3438 33.9759 17.5028C34.2676 17.6586 34.4929 17.8409 34.652 18.0497C34.8144 18.2585 34.9404 18.4425 35.0299 18.6016H35.1194V14.8182H36.6059V25H35.1542V23.8118H35.0299C34.9404 23.9742 34.8111 24.1598 34.6421 24.3686C34.4764 24.5774 34.2477 24.7597 33.956 24.9155C33.6643 25.0713 33.2865 25.1491 32.8225 25.1491ZM33.1506 23.8814C33.5782 23.8814 33.9394 23.7687 34.2344 23.5433C34.5327 23.3146 34.7581 22.9981 34.9106 22.5938C35.0663 22.1894 35.1442 21.7187 35.1442 21.1818C35.1442 20.6515 35.068 20.1875 34.9155 19.7898C34.7631 19.392 34.5393 19.0821 34.2444 18.8601C33.9494 18.638 33.5848 18.527 33.1506 18.527C32.7032 18.527 32.3303 18.643 32.032 18.875C31.7337 19.107 31.5083 19.4235 31.3559 19.8246C31.2067 20.2256 31.1321 20.678 31.1321 21.1818C31.1321 21.6922 31.2084 22.1513 31.3608 22.5589C31.5133 22.9666 31.7387 23.2898 32.037 23.5284C32.3386 23.7637 32.7098 23.8814 33.1506 23.8814ZM38.9606 25L43.4052 16.2102V16.1357H38.2646V14.8182H44.9962V16.1804L40.5665 25H38.9606ZM49.961 25.169C49.1755 25.1657 48.5043 24.9586 47.9475 24.5476C47.3907 24.1366 46.9648 23.5384 46.6698 22.7528C46.3748 21.9673 46.2274 21.0211 46.2274 19.9141C46.2274 18.8104 46.3748 17.8674 46.6698 17.0852C46.9681 16.303 47.3957 15.7064 47.9525 15.2955C48.5126 14.8845 49.1821 14.679 49.961 14.679C50.7399 14.679 51.4078 14.8861 51.9646 15.3004C52.5214 15.7114 52.9473 16.308 53.2423 17.0902C53.5406 17.8691 53.6897 18.8104 53.6897 19.9141C53.6897 21.0244 53.5422 21.9723 53.2472 22.7578C52.9523 23.54 52.5264 24.1383 51.9695 24.5526C51.4127 24.9635 50.7432 25.169 49.961 25.169ZM49.961 23.8416C50.6504 23.8416 51.189 23.5052 51.5768 22.8324C51.9679 22.1596 52.1634 21.1868 52.1634 19.9141C52.1634 19.0689 52.0739 18.3546 51.895 17.7713C51.7193 17.1847 51.4658 16.7405 51.1343 16.4389C50.8062 16.134 50.4151 15.9815 49.961 15.9815C49.2749 15.9815 48.7364 16.3196 48.3453 16.9957C47.9542 17.6719 47.757 18.6446 47.7536 19.9141C47.7536 20.7625 47.8415 21.4801 48.0171 22.0668C48.1961 22.6501 48.4497 23.0926 48.7778 23.3942C49.1059 23.6925 49.5003 23.8416 49.961 23.8416ZM58.9081 25.169C58.1226 25.1657 57.4515 24.9586 56.8946 24.5476C56.3378 24.1366 55.9119 23.5384 55.6169 22.7528C55.322 21.9673 55.1745 21.0211 55.1745 19.9141C55.1745 18.8104 55.322 17.8674 55.6169 17.0852C55.9152 16.303 56.3428 15.7064 56.8996 15.2955C57.4597 14.8845 58.1292 14.679 58.9081 14.679C59.687 14.679 60.3549 14.8861 60.9117 15.3004C61.4685 15.7114 61.8944 16.308 62.1894 17.0902C62.4877 17.8691 62.6368 18.8104 62.6368 19.9141C62.6368 21.0244 62.4893 21.9723 62.1944 22.7578C61.8994 23.54 61.4735 24.1383 60.9167 24.5526C60.3598 24.9635 59.6903 25.169 58.9081 25.169ZM58.9081 23.8416C59.5975 23.8416 60.1361 23.5052 60.5239 22.8324C60.915 22.1596 61.1105 21.1868 61.1105 19.9141C61.1105 19.0689 61.0211 18.3546 60.8421 17.7713C60.6664 17.1847 60.4129 16.7405 60.0814 16.4389C59.7533 16.134 59.3622 15.9815 58.9081 15.9815C58.2221 15.9815 57.6835 16.3196 57.2924 16.9957C56.9013 17.6719 56.7041 18.6446 56.7007 19.9141C56.7007 20.7625 56.7886 21.4801 56.9642 22.0668C57.1432 22.6501 57.3968 23.0926 57.7249 23.3942C58.053 23.6925 58.4474 23.8416 58.9081 23.8416Z" fill="white"/>
</svg>
