<svg width="342" height="40" viewBox="0 0 342 40" fill="none" xmlns="http://www.w3.org/2000/svg">
<rect width="341.333" height="40" transform="translate(0.666504)" fill="#CF3A5D"/>
<path d="M13.7851 25V14.8182H17.4144C18.2032 14.8182 18.8578 14.9541 19.3782 15.2259C19.9018 15.4976 20.2929 15.8738 20.5514 16.3544C20.81 16.8317 20.9392 17.3835 20.9392 18.0099C20.9392 18.633 20.8083 19.1816 20.5465 19.6555C20.288 20.1262 19.8969 20.4924 19.3732 20.7543C18.8528 21.0161 18.1982 21.147 17.4094 21.147H14.6601V19.8246H17.2702C17.7674 19.8246 18.1717 19.7533 18.4833 19.6108C18.7981 19.4683 19.0285 19.2611 19.1743 18.9893C19.3201 18.7176 19.3931 18.3911 19.3931 18.0099C19.3931 17.6255 19.3185 17.2924 19.1693 17.0107C19.0235 16.7289 18.7932 16.5135 18.4783 16.3643C18.1667 16.2119 17.7574 16.1357 17.2503 16.1357H15.3213V25H13.7851ZM18.8114 20.4062L21.327 25H19.577L17.1111 20.4062H18.8114ZM25.8847 25.1541C25.1324 25.1541 24.4844 24.9934 23.9408 24.6719C23.4006 24.3471 22.983 23.8913 22.688 23.3047C22.3963 22.7147 22.2505 22.0237 22.2505 21.2315C22.2505 20.4493 22.3963 19.7599 22.688 19.1634C22.983 18.5668 23.394 18.1011 23.9209 17.7663C24.4512 17.4316 25.071 17.2642 25.7803 17.2642C26.2112 17.2642 26.6288 17.3355 27.0332 17.478C27.4375 17.6205 27.8004 17.8442 28.1219 18.1491C28.4434 18.4541 28.697 18.8501 28.8826 19.3374C29.0682 19.8213 29.161 20.4096 29.161 21.1023V21.6293H23.0907V20.5156H27.7043C27.7043 20.1245 27.6248 19.7782 27.4657 19.4766C27.3066 19.1716 27.0829 18.9313 26.7945 18.7557C26.5095 18.58 26.1747 18.4922 25.7903 18.4922C25.3726 18.4922 25.0081 18.5949 24.6965 18.8004C24.3883 19.0026 24.1496 19.2678 23.9806 19.5959C23.8149 19.9207 23.732 20.2737 23.732 20.6548V21.5249C23.732 22.0353 23.8215 22.4695 24.0005 22.8274C24.1828 23.1854 24.4363 23.4588 24.7611 23.6477C25.086 23.8333 25.4655 23.9261 25.8996 23.9261C26.1814 23.9261 26.4382 23.8864 26.6702 23.8068C26.9022 23.724 27.1028 23.6013 27.2718 23.4389C27.4408 23.2765 27.5701 23.076 27.6596 22.8374L29.0665 23.0909C28.9539 23.5052 28.7517 23.8681 28.46 24.1797C28.1717 24.4879 27.8087 24.7282 27.3712 24.9006C26.937 25.0696 26.4415 25.1541 25.8847 25.1541ZM33.669 25.1491C33.0525 25.1491 32.5023 24.9917 32.0184 24.6768C31.5378 24.3587 31.16 23.9062 30.8849 23.3196C30.6131 22.7296 30.4772 22.022 30.4772 21.1967C30.4772 20.3714 30.6148 19.6655 30.8899 19.0788C31.1683 18.4922 31.5494 18.0431 32.0333 17.7315C32.5172 17.42 33.0658 17.2642 33.6789 17.2642C34.1529 17.2642 34.534 17.3438 34.8224 17.5028C35.1141 17.6586 35.3394 17.8409 35.4985 18.0497C35.6609 18.2585 35.7869 18.4425 35.8764 18.6016H35.9659V14.8182H37.4524V25H36.0007V23.8118H35.8764C35.7869 23.9742 35.6576 24.1598 35.4886 24.3686C35.3229 24.5774 35.0942 24.7597 34.8025 24.9155C34.5108 25.0713 34.133 25.1491 33.669 25.1491ZM33.9971 23.8814C34.4247 23.8814 34.7859 23.7687 35.0809 23.5433C35.3792 23.3146 35.6046 22.9981 35.7571 22.5938C35.9128 22.1894 35.9907 21.7187 35.9907 21.1818C35.9907 20.6515 35.9145 20.1875 35.762 19.7898C35.6096 19.392 35.3858 19.0821 35.0909 18.8601C34.7959 18.638 34.4313 18.527 33.9971 18.527C33.5497 18.527 33.1768 18.643 32.8785 18.875C32.5802 19.107 32.3548 19.4235 32.2024 19.8246C32.0532 20.2256 31.9786 20.678 31.9786 21.1818C31.9786 21.6922 32.0549 22.1513 32.2073 22.5589C32.3598 22.9666 32.5852 23.2898 32.8835 23.5284C33.1851 23.7637 33.5563 23.8814 33.9971 23.8814ZM39.8972 25L44.3418 16.2102V16.1357H39.2011V14.8182H45.9327V16.1804L41.503 25H39.8972ZM50.9875 25.169C50.202 25.1657 49.5309 24.9586 48.974 24.5476C48.4172 24.1366 47.9913 23.5384 47.6963 22.7528C47.4014 21.9673 47.2539 21.0211 47.2539 19.9141C47.2539 18.8104 47.4014 17.8674 47.6963 17.0852C47.9946 16.303 48.4222 15.7064 48.979 15.2955C49.5391 14.8845 50.2086 14.679 50.9875 14.679C51.7664 14.679 52.4343 14.8861 52.9911 15.3004C53.5479 15.7114 53.9738 16.308 54.2688 17.0902C54.5671 17.8691 54.7162 18.8104 54.7162 19.9141C54.7162 21.0244 54.5687 21.9723 54.2737 22.7578C53.9788 23.54 53.5529 24.1383 52.996 24.5526C52.4392 24.9635 51.7697 25.169 50.9875 25.169ZM50.9875 23.8416C51.6769 23.8416 52.2155 23.5052 52.6033 22.8324C52.9944 22.1596 53.1899 21.1868 53.1899 19.9141C53.1899 19.0689 53.1005 18.3546 52.9215 17.7713C52.7458 17.1847 52.4923 16.7405 52.1608 16.4389C51.8327 16.134 51.4416 15.9815 50.9875 15.9815C50.3014 15.9815 49.7629 16.3196 49.3718 16.9957C48.9807 17.6719 48.7835 18.6446 48.7801 19.9141C48.7801 20.7625 48.868 21.4801 49.0436 22.0668C49.2226 22.6501 49.4762 23.0926 49.8043 23.3942C50.1324 23.6925 50.5268 23.8416 50.9875 23.8416ZM60.0246 25.169C59.2391 25.1657 58.568 24.9586 58.0111 24.5476C57.4543 24.1366 57.0284 23.5384 56.7334 22.7528C56.4385 21.9673 56.291 21.0211 56.291 19.9141C56.291 18.8104 56.4385 17.8674 56.7334 17.0852C57.0317 16.303 57.4593 15.7064 58.0161 15.2955C58.5762 14.8845 59.2458 14.679 60.0246 14.679C60.8035 14.679 61.4714 14.8861 62.0282 15.3004C62.585 15.7114 63.0109 16.308 63.3059 17.0902C63.6042 17.8691 63.7533 18.8104 63.7533 19.9141C63.7533 21.0244 63.6058 21.9723 63.3109 22.7578C63.0159 23.54 62.59 24.1383 62.0332 24.5526C61.4763 24.9635 60.8068 25.169 60.0246 25.169ZM60.0246 23.8416C60.714 23.8416 61.2526 23.5052 61.6404 22.8324C62.0315 22.1596 62.2271 21.1868 62.2271 19.9141C62.2271 19.0689 62.1376 18.3546 61.9586 17.7713C61.7829 17.1847 61.5294 16.7405 61.1979 16.4389C60.8698 16.134 60.4787 15.9815 60.0246 15.9815C59.3386 15.9815 58.8 16.3196 58.4089 16.9957C58.0178 17.6719 57.8206 18.6446 57.8172 19.9141C57.8172 20.7625 57.9051 21.4801 58.0807 22.0668C58.2597 22.6501 58.5133 23.0926 58.8414 23.3942C59.1695 23.6925 59.5639 23.8416 60.0246 23.8416Z" fill="white"/>
</svg>
