<svg width="342" height="40" viewBox="0 0 342 40" fill="none" xmlns="http://www.w3.org/2000/svg">
<rect width="341.333" height="40" transform="translate(0.666504)" fill="#AC2A48"/>
<path d="M13.7851 25V14.8182H17.4144C18.2032 14.8182 18.8578 14.9541 19.3782 15.2259C19.9018 15.4976 20.2929 15.8738 20.5514 16.3544C20.81 16.8317 20.9392 17.3835 20.9392 18.0099C20.9392 18.633 20.8083 19.1816 20.5465 19.6555C20.288 20.1262 19.8969 20.4924 19.3732 20.7543C18.8528 21.0161 18.1982 21.147 17.4094 21.147H14.6601V19.8246H17.2702C17.7674 19.8246 18.1717 19.7533 18.4833 19.6108C18.7981 19.4683 19.0285 19.2611 19.1743 18.9893C19.3201 18.7176 19.3931 18.3911 19.3931 18.0099C19.3931 17.6255 19.3185 17.2924 19.1693 17.0107C19.0235 16.7289 18.7932 16.5135 18.4783 16.3643C18.1667 16.2119 17.7574 16.1357 17.2503 16.1357H15.3213V25H13.7851ZM18.8114 20.4062L21.327 25H19.577L17.1111 20.4062H18.8114ZM25.8847 25.1541C25.1324 25.1541 24.4844 24.9934 23.9408 24.6719C23.4006 24.3471 22.983 23.8913 22.688 23.3047C22.3963 22.7147 22.2505 22.0237 22.2505 21.2315C22.2505 20.4493 22.3963 19.7599 22.688 19.1634C22.983 18.5668 23.394 18.1011 23.9209 17.7663C24.4512 17.4316 25.071 17.2642 25.7803 17.2642C26.2112 17.2642 26.6288 17.3355 27.0332 17.478C27.4375 17.6205 27.8004 17.8442 28.1219 18.1491C28.4434 18.4541 28.697 18.8501 28.8826 19.3374C29.0682 19.8213 29.161 20.4096 29.161 21.1023V21.6293H23.0907V20.5156H27.7043C27.7043 20.1245 27.6248 19.7782 27.4657 19.4766C27.3066 19.1716 27.0829 18.9313 26.7945 18.7557C26.5095 18.58 26.1747 18.4922 25.7903 18.4922C25.3726 18.4922 25.0081 18.5949 24.6965 18.8004C24.3883 19.0026 24.1496 19.2678 23.9806 19.5959C23.8149 19.9207 23.732 20.2737 23.732 20.6548V21.5249C23.732 22.0353 23.8215 22.4695 24.0005 22.8274C24.1828 23.1854 24.4363 23.4588 24.7611 23.6477C25.086 23.8333 25.4655 23.9261 25.8996 23.9261C26.1814 23.9261 26.4382 23.8864 26.6702 23.8068C26.9022 23.724 27.1028 23.6013 27.2718 23.4389C27.4408 23.2765 27.5701 23.076 27.6596 22.8374L29.0665 23.0909C28.9539 23.5052 28.7517 23.8681 28.46 24.1797C28.1717 24.4879 27.8087 24.7282 27.3712 24.9006C26.937 25.0696 26.4415 25.1541 25.8847 25.1541ZM33.669 25.1491C33.0525 25.1491 32.5023 24.9917 32.0184 24.6768C31.5378 24.3587 31.16 23.9062 30.8849 23.3196C30.6131 22.7296 30.4772 22.022 30.4772 21.1967C30.4772 20.3714 30.6148 19.6655 30.8899 19.0788C31.1683 18.4922 31.5494 18.0431 32.0333 17.7315C32.5172 17.42 33.0658 17.2642 33.6789 17.2642C34.1529 17.2642 34.534 17.3438 34.8224 17.5028C35.1141 17.6586 35.3394 17.8409 35.4985 18.0497C35.6609 18.2585 35.7869 18.4425 35.8764 18.6016H35.9659V14.8182H37.4524V25H36.0007V23.8118H35.8764C35.7869 23.9742 35.6576 24.1598 35.4886 24.3686C35.3229 24.5774 35.0942 24.7597 34.8025 24.9155C34.5108 25.0713 34.133 25.1491 33.669 25.1491ZM33.9971 23.8814C34.4247 23.8814 34.7859 23.7687 35.0809 23.5433C35.3792 23.3146 35.6046 22.9981 35.7571 22.5938C35.9128 22.1894 35.9907 21.7187 35.9907 21.1818C35.9907 20.6515 35.9145 20.1875 35.762 19.7898C35.6096 19.392 35.3858 19.0821 35.0909 18.8601C34.7959 18.638 34.4313 18.527 33.9971 18.527C33.5497 18.527 33.1768 18.643 32.8785 18.875C32.5802 19.107 32.3548 19.4235 32.2024 19.8246C32.0532 20.2256 31.9786 20.678 31.9786 21.1818C31.9786 21.6922 32.0549 22.1513 32.2073 22.5589C32.3598 22.9666 32.5852 23.2898 32.8835 23.5284C33.1851 23.7637 33.5563 23.8814 33.9971 23.8814ZM42.9945 25.1392C42.2819 25.1392 41.6521 25.0166 41.1052 24.7713C40.5617 24.526 40.1358 24.188 39.8275 23.7571C39.5193 23.3262 39.3668 22.8357 39.3702 22.2855C39.3668 21.8546 39.4547 21.4586 39.6337 21.0973C39.8159 20.7327 40.0629 20.4295 40.3744 20.1875C40.686 19.9422 41.034 19.7865 41.4185 19.7202V19.6605C40.9114 19.5379 40.5053 19.2661 40.2004 18.8452C39.8955 18.4242 39.7447 17.9403 39.748 17.3935C39.7447 16.8731 39.8822 16.4091 40.1606 16.0014C40.4424 15.5904 40.8285 15.2673 41.319 15.032C41.8096 14.7966 42.368 14.679 42.9945 14.679C43.6142 14.679 44.1677 14.7983 44.655 15.0369C45.1455 15.2723 45.5316 15.5954 45.8133 16.0064C46.0951 16.4141 46.2376 16.8764 46.2409 17.3935C46.2376 17.9403 46.0818 18.4242 45.7736 18.8452C45.4653 19.2661 45.0643 19.5379 44.5704 19.6605V19.7202C44.9516 19.7865 45.2946 19.9422 45.5996 20.1875C45.9078 20.4295 46.1531 20.7327 46.3354 21.0973C46.521 21.4586 46.6154 21.8546 46.6187 22.2855C46.6154 22.8357 46.4597 23.3262 46.1514 23.7571C45.8432 24.188 45.4156 24.526 44.8687 24.7713C44.3252 25.0166 43.7004 25.1392 42.9945 25.1392ZM42.9945 23.8814C43.4154 23.8814 43.78 23.8118 44.0882 23.6726C44.3964 23.5301 44.6351 23.3329 44.8041 23.081C44.9731 22.8258 45.0593 22.5275 45.0626 22.1861C45.0593 21.8314 44.9665 21.5182 44.7842 21.2464C44.6052 20.9747 44.3616 20.7609 44.0534 20.6051C43.7452 20.4493 43.3922 20.3714 42.9945 20.3714C42.5934 20.3714 42.2371 20.4493 41.9256 20.6051C41.614 20.7609 41.3687 20.9747 41.1898 21.2464C41.0108 21.5182 40.923 21.8314 40.9263 22.1861C40.923 22.5275 41.0042 22.8258 41.1699 23.081C41.3389 23.3329 41.5792 23.5301 41.8908 23.6726C42.2023 23.8118 42.5702 23.8814 42.9945 23.8814ZM42.9945 19.1435C43.3325 19.1435 43.6325 19.0755 43.8943 18.9396C44.1561 18.8037 44.3616 18.6148 44.5108 18.3729C44.6632 18.1309 44.7411 17.8475 44.7445 17.5227C44.7411 17.2045 44.6649 16.9261 44.5158 16.6875C44.3699 16.4489 44.1661 16.2649 43.9043 16.1357C43.6424 16.0031 43.3391 15.9368 42.9945 15.9368C42.6431 15.9368 42.3349 16.0031 42.0697 16.1357C41.8079 16.2649 41.6041 16.4489 41.4582 16.6875C41.3124 16.9261 41.2411 17.2045 41.2445 17.5227C41.2411 17.8475 41.3141 18.1309 41.4632 18.3729C41.6123 18.6148 41.8178 18.8037 42.0797 18.9396C42.3448 19.0755 42.6498 19.1435 42.9945 19.1435ZM51.9446 25.169C51.159 25.1657 50.4879 24.9586 49.9311 24.5476C49.3742 24.1366 48.9483 23.5384 48.6534 22.7528C48.3584 21.9673 48.2109 21.0211 48.2109 19.9141C48.2109 18.8104 48.3584 17.8674 48.6534 17.0852C48.9517 16.303 49.3792 15.7064 49.936 15.2955C50.4962 14.8845 51.1657 14.679 51.9446 14.679C52.7234 14.679 53.3913 14.8861 53.9481 15.3004C54.5049 15.7114 54.9308 16.308 55.2258 17.0902C55.5241 17.8691 55.6733 18.8104 55.6733 19.9141C55.6733 21.0244 55.5258 21.9723 55.2308 22.7578C54.9358 23.54 54.5099 24.1383 53.9531 24.5526C53.3963 24.9635 52.7268 25.169 51.9446 25.169ZM51.9446 23.8416C52.634 23.8416 53.1725 23.5052 53.5603 22.8324C53.9514 22.1596 54.147 21.1868 54.147 19.9141C54.147 19.0689 54.0575 18.3546 53.8785 17.7713C53.7028 17.1847 53.4493 16.7405 53.1179 16.4389C52.7897 16.134 52.3986 15.9815 51.9446 15.9815C51.2585 15.9815 50.7199 16.3196 50.3288 16.9957C49.9377 17.6719 49.7405 18.6446 49.7372 19.9141C49.7372 20.7625 49.825 21.4801 50.0007 22.0668C50.1796 22.6501 50.4332 23.0926 50.7613 23.3942C51.0894 23.6925 51.4839 23.8416 51.9446 23.8416ZM60.9817 25.169C60.1962 25.1657 59.525 24.9586 58.9682 24.5476C58.4114 24.1366 57.9855 23.5384 57.6905 22.7528C57.3955 21.9673 57.248 21.0211 57.248 19.9141C57.248 18.8104 57.3955 17.8674 57.6905 17.0852C57.9888 16.303 58.4163 15.7064 58.9731 15.2955C59.5333 14.8845 60.2028 14.679 60.9817 14.679C61.7605 14.679 62.4284 14.8861 62.9852 15.3004C63.542 15.7114 63.9679 16.308 64.2629 17.0902C64.5612 17.8691 64.7104 18.8104 64.7104 19.9141C64.7104 21.0244 64.5629 21.9723 64.2679 22.7578C63.9729 23.54 63.547 24.1383 62.9902 24.5526C62.4334 24.9635 61.7639 25.169 60.9817 25.169ZM60.9817 23.8416C61.6711 23.8416 62.2097 23.5052 62.5974 22.8324C62.9885 22.1596 63.1841 21.1868 63.1841 19.9141C63.1841 19.0689 63.0946 18.3546 62.9156 17.7713C62.74 17.1847 62.4864 16.7405 62.155 16.4389C61.8268 16.134 61.4357 15.9815 60.9817 15.9815C60.2956 15.9815 59.757 16.3196 59.3659 16.9957C58.9748 17.6719 58.7776 18.6446 58.7743 19.9141C58.7743 20.7625 58.8621 21.4801 59.0378 22.0668C59.2168 22.6501 59.4703 23.0926 59.7984 23.3942C60.1266 23.6925 60.521 23.8416 60.9817 23.8416Z" fill="white"/>
</svg>
