<svg width="240" height="40" viewBox="0 0 240 40" fill="none" xmlns="http://www.w3.org/2000/svg">
<rect width="240" height="40" fill="#841A2F"/>
<path d="M13.1186 25V14.8182H16.7479C17.5367 14.8182 18.1913 14.9541 18.7116 15.2259C19.2353 15.4976 19.6264 15.8738 19.8849 16.3544C20.1435 16.8317 20.2727 17.3835 20.2727 18.0099C20.2727 18.633 20.1418 19.1816 19.88 19.6555C19.6214 20.1262 19.2304 20.4924 18.7067 20.7543C18.1863 21.0161 17.5317 21.147 16.7429 21.147H13.9936V19.8246H16.6037C17.1009 19.8246 17.5052 19.7533 17.8168 19.6108C18.1316 19.4683 18.362 19.2611 18.5078 18.9893C18.6536 18.7176 18.7266 18.3911 18.7266 18.0099C18.7266 17.6255 18.652 17.2924 18.5028 17.0107C18.357 16.7289 18.1267 16.5135 17.8118 16.3643C17.5002 16.2119 17.0909 16.1357 16.5838 16.1357H14.6548V25H13.1186ZM18.1449 20.4062L20.6605 25H18.9105L16.4446 20.4062H18.1449ZM25.1282 25.1541C24.3758 25.1541 23.7279 24.9934 23.1843 24.6719C22.6441 24.3471 22.2265 23.8913 21.9315 23.3047C21.6398 22.7147 21.494 22.0237 21.494 21.2315C21.494 20.4493 21.6398 19.7599 21.9315 19.1634C22.2265 18.5668 22.6375 18.1011 23.1644 17.7663C23.6947 17.4316 24.3145 17.2642 25.0238 17.2642C25.4547 17.2642 25.8723 17.3355 26.2767 17.478C26.681 17.6205 27.0439 17.8442 27.3654 18.1491C27.6869 18.4541 27.9405 18.8501 28.1261 19.3374C28.3117 19.8213 28.4045 20.4096 28.4045 21.1023V21.6293H22.3342V20.5156H26.9478C26.9478 20.1245 26.8683 19.7782 26.7092 19.4766C26.5501 19.1716 26.3264 18.9313 26.038 18.7557C25.753 18.58 25.4182 18.4922 25.0338 18.4922C24.6161 18.4922 24.2516 18.5949 23.94 18.8004C23.6318 19.0026 23.3931 19.2678 23.2241 19.5959C23.0584 19.9207 22.9755 20.2737 22.9755 20.6548V21.5249C22.9755 22.0353 23.065 22.4695 23.244 22.8274C23.4263 23.1854 23.6798 23.4588 24.0046 23.6477C24.3294 23.8333 24.7089 23.9261 25.1431 23.9261C25.4249 23.9261 25.6817 23.8864 25.9137 23.8068C26.1457 23.724 26.3463 23.6013 26.5153 23.4389C26.6843 23.2765 26.8136 23.076 26.9031 22.8374L28.31 23.0909C28.1973 23.5052 27.9952 23.8681 27.7035 24.1797C27.4151 24.4879 27.0522 24.7282 26.6147 24.9006C26.1805 25.0696 25.685 25.1541 25.1282 25.1541ZM32.8225 25.1491C32.206 25.1491 31.6558 24.9917 31.1719 24.6768C30.6913 24.3587 30.3135 23.9062 30.0384 23.3196C29.7666 22.7296 29.6307 22.022 29.6307 21.1967C29.6307 20.3714 29.7683 19.6655 30.0434 19.0788C30.3218 18.4922 30.7029 18.0431 31.1868 17.7315C31.6707 17.42 32.2193 17.2642 32.8324 17.2642C33.3064 17.2642 33.6875 17.3438 33.9759 17.5028C34.2676 17.6586 34.4929 17.8409 34.652 18.0497C34.8144 18.2585 34.9404 18.4425 35.0299 18.6016H35.1194V14.8182H36.6059V25H35.1542V23.8118H35.0299C34.9404 23.9742 34.8111 24.1598 34.6421 24.3686C34.4764 24.5774 34.2477 24.7597 33.956 24.9155C33.6643 25.0713 33.2865 25.1491 32.8225 25.1491ZM33.1506 23.8814C33.5782 23.8814 33.9394 23.7687 34.2344 23.5433C34.5327 23.3146 34.7581 22.9981 34.9106 22.5938C35.0663 22.1894 35.1442 21.7187 35.1442 21.1818C35.1442 20.6515 35.068 20.1875 34.9155 19.7898C34.7631 19.392 34.5393 19.0821 34.2444 18.8601C33.9494 18.638 33.5848 18.527 33.1506 18.527C32.7032 18.527 32.3303 18.643 32.032 18.875C31.7337 19.107 31.5083 19.4235 31.3559 19.8246C31.2067 20.2256 31.1321 20.678 31.1321 21.1818C31.1321 21.6922 31.2084 22.1513 31.3608 22.5589C31.5133 22.9666 31.7387 23.2898 32.037 23.5284C32.3386 23.7637 32.7098 23.8814 33.1506 23.8814ZM42.0579 25.1392C41.3454 25.1392 40.7156 25.0166 40.1687 24.7713C39.6252 24.526 39.1993 24.188 38.891 23.7571C38.5828 23.3262 38.4303 22.8357 38.4337 22.2855C38.4303 21.8546 38.5182 21.4586 38.6972 21.0973C38.8794 20.7327 39.1264 20.4295 39.4379 20.1875C39.7495 19.9422 40.0975 19.7865 40.482 19.7202V19.6605C39.9749 19.5379 39.5688 19.2661 39.2639 18.8452C38.959 18.4242 38.8082 17.9403 38.8115 17.3935C38.8082 16.8731 38.9457 16.4091 39.2241 16.0014C39.5059 15.5904 39.892 15.2673 40.3825 15.032C40.8731 14.7966 41.4315 14.679 42.0579 14.679C42.6777 14.679 43.2312 14.7983 43.7185 15.0369C44.209 15.2723 44.5951 15.5954 44.8768 16.0064C45.1586 16.4141 45.3011 16.8764 45.3044 17.3935C45.3011 17.9403 45.1453 18.4242 44.8371 18.8452C44.5288 19.2661 44.1278 19.5379 43.6339 19.6605V19.7202C44.0151 19.7865 44.3581 19.9422 44.6631 20.1875C44.9713 20.4295 45.2166 20.7327 45.3989 21.0973C45.5845 21.4586 45.6789 21.8546 45.6822 22.2855C45.6789 22.8357 45.5231 23.3262 45.2149 23.7571C44.9067 24.188 44.4791 24.526 43.9322 24.7713C43.3887 25.0166 42.7639 25.1392 42.0579 25.1392ZM42.0579 23.8814C42.4789 23.8814 42.8435 23.8118 43.1517 23.6726C43.4599 23.5301 43.6986 23.3329 43.8676 23.081C44.0366 22.8258 44.1228 22.5275 44.1261 22.1861C44.1228 21.8314 44.03 21.5182 43.8477 21.2464C43.6687 20.9747 43.4251 20.7609 43.1169 20.6051C42.8087 20.4493 42.4557 20.3714 42.0579 20.3714C41.6569 20.3714 41.3006 20.4493 40.9891 20.6051C40.6775 20.7609 40.4322 20.9747 40.2533 21.2464C40.0743 21.5182 39.9865 21.8314 39.9898 22.1861C39.9865 22.5275 40.0677 22.8258 40.2334 23.081C40.4024 23.3329 40.6427 23.5301 40.9543 23.6726C41.2658 23.8118 41.6337 23.8814 42.0579 23.8814ZM42.0579 19.1435C42.396 19.1435 42.696 19.0755 42.9578 18.9396C43.2196 18.8037 43.4251 18.6148 43.5743 18.3729C43.7267 18.1309 43.8046 17.8475 43.8079 17.5227C43.8046 17.2045 43.7284 16.9261 43.5793 16.6875C43.4334 16.4489 43.2296 16.2649 42.9677 16.1357C42.7059 16.0031 42.4026 15.9368 42.0579 15.9368C41.7066 15.9368 41.3984 16.0031 41.1332 16.1357C40.8714 16.2649 40.6676 16.4489 40.5217 16.6875C40.3759 16.9261 40.3046 17.2045 40.3079 17.5227C40.3046 17.8475 40.3775 18.1309 40.5267 18.3729C40.6758 18.6148 40.8813 18.8037 41.1432 18.9396C41.4083 19.0755 41.7133 19.1435 42.0579 19.1435ZM50.9181 25.169C50.1325 25.1657 49.4614 24.9586 48.9046 24.5476C48.3477 24.1366 47.9218 23.5384 47.6269 22.7528C47.3319 21.9673 47.1844 21.0211 47.1844 19.9141C47.1844 18.8104 47.3319 17.8674 47.6269 17.0852C47.9252 16.303 48.3527 15.7064 48.9095 15.2955C49.4697 14.8845 50.1392 14.679 50.9181 14.679C51.6969 14.679 52.3648 14.8861 52.9216 15.3004C53.4784 15.7114 53.9043 16.308 54.1993 17.0902C54.4976 17.8691 54.6467 18.8104 54.6467 19.9141C54.6467 21.0244 54.4993 21.9723 54.2043 22.7578C53.9093 23.54 53.4834 24.1383 52.9266 24.5526C52.3698 24.9635 51.7003 25.169 50.9181 25.169ZM50.9181 23.8416C51.6074 23.8416 52.146 23.5052 52.5338 22.8324C52.9249 22.1596 53.1205 21.1868 53.1205 19.9141C53.1205 19.0689 53.031 18.3546 52.852 17.7713C52.6763 17.1847 52.4228 16.7405 52.0913 16.4389C51.7632 16.134 51.3721 15.9815 50.9181 15.9815C50.232 15.9815 49.6934 16.3196 49.3023 16.9957C48.9112 17.6719 48.714 18.6446 48.7107 19.9141C48.7107 20.7625 48.7985 21.4801 48.9742 22.0668C49.1531 22.6501 49.4067 23.0926 49.7348 23.3942C50.0629 23.6925 50.4574 23.8416 50.9181 23.8416ZM59.8652 25.169C59.0797 25.1657 58.4085 24.9586 57.8517 24.5476C57.2949 24.1366 56.869 23.5384 56.574 22.7528C56.279 21.9673 56.1315 21.0211 56.1315 19.9141C56.1315 18.8104 56.279 17.8674 56.574 17.0852C56.8723 16.303 57.2998 15.7064 57.8566 15.2955C58.4168 14.8845 59.0863 14.679 59.8652 14.679C60.644 14.679 61.3119 14.8861 61.8687 15.3004C62.4255 15.7114 62.8514 16.308 63.1464 17.0902C63.4447 17.8691 63.5939 18.8104 63.5939 19.9141C63.5939 21.0244 63.4464 21.9723 63.1514 22.7578C62.8564 23.54 62.4305 24.1383 61.8737 24.5526C61.3169 24.9635 60.6474 25.169 59.8652 25.169ZM59.8652 23.8416C60.5546 23.8416 61.0931 23.5052 61.4809 22.8324C61.872 22.1596 62.0676 21.1868 62.0676 19.9141C62.0676 19.0689 61.9781 18.3546 61.7991 17.7713C61.6234 17.1847 61.3699 16.7405 61.0385 16.4389C60.7103 16.134 60.3192 15.9815 59.8652 15.9815C59.1791 15.9815 58.6405 16.3196 58.2494 16.9957C57.8583 17.6719 57.6611 18.6446 57.6578 19.9141C57.6578 20.7625 57.7456 21.4801 57.9213 22.0668C58.1002 22.6501 58.3538 23.0926 58.6819 23.3942C59.01 23.6925 59.4045 23.8416 59.8652 23.8416Z" fill="white"/>
</svg>
