<svg xmlns="http://www.w3.org/2000/svg" width="24" height="24" fill="none" viewBox="0 0 24 24"><path fill="#CACACE" d="M2 8.8c0-1.68 0-2.52.327-3.162a3 3 0 0 1 1.311-1.311C4.28 4 5.12 4 6.8 4h10.4c1.68 0 2.52 0 3.162.327a3 3 0 0 1 1.311 1.311C22 6.28 22 7.12 22 8.8v6.4c0 1.68 0 2.52-.327 3.162a3 3 0 0 1-1.311 1.311C19.72 20 18.88 20 17.2 20H6.8c-1.68 0-2.52 0-3.162-.327a3 3 0 0 1-1.311-1.311C2 17.72 2 16.88 2 15.2V8.8Z"/><path fill="#3D3D42" fill-rule="evenodd" d="M6.175 8.434a1 1 0 0 1 1.39-.259l3.87 2.654a1 1 0 0 0 1.13 0l3.87-2.654a1 1 0 0 1 1.13 1.65l-3.868 2.654a3 3 0 0 1-3.394 0L6.434 9.825a1 1 0 0 1-.259-1.39Zm16.532 9.859a1 1 0 0 1 0 1.414l-2 2a1 1 0 0 1-1.414-1.414l.293-.293H16a1 1 0 1 1 0-2h3.586l-.293-.293a1 1 0 0 1 1.414-1.414l2 2Z" clip-rule="evenodd"/></svg>