<svg xmlns="http://www.w3.org/2000/svg" width="24" height="24" fill="none" viewBox="0 0 24 24"><path fill="#C1C1C4" d="M8.053 2.817A3 3 0 0 1 10.11 2H17a3 3 0 0 1 3 3v14a3 3 0 0 1-3 3H7a3 3 0 0 1-3-3V7.93a3 3 0 0 1 .943-2.183l3.11-2.93Z"/><path fill="#414245" fill-rule="evenodd" d="M17.94 14.646a1.5 1.5 0 0 1 2.12 0l1.647 1.647a1 1 0 0 1-1.414 1.414L20 17.414V21a1 1 0 1 1-2 0v-3.586l-.293.293a1 1 0 0 1-1.414-1.414l1.646-1.647ZM8.053 2.817A3 3 0 0 1 10.11 2h.09a1.1 1.1 0 0 1 1.1 1.1v2.785a3 3 0 0 1-3 3H5.085C4.485 8.885 4 8.399 4 7.8a2.7 2.7 0 0 1 .847-1.963l3.206-3.02Z" clip-rule="evenodd"/></svg>