<svg xmlns="http://www.w3.org/2000/svg" width="24" height="24" fill="none" viewBox="0 0 24 24"><path fill="#BFC0CE" d="M18.25 6.5c.69 0 1.25.56 1.25 1.25v8.5c0 .69-.56 1.25-1.25 1.25H10v-11h8.25Zm-12.5 0c-.69 0-1.25.56-1.25 1.25v8.5c0 .69.56 1.25 1.25 1.25H8.5v-11H5.75Z"/><path fill="#484C5B" fill-rule="evenodd" d="M18.25 5A2.75 2.75 0 0 1 21 7.75v8.5A2.75 2.75 0 0 1 18.25 19H5.75A2.75 2.75 0 0 1 3 16.25v-8.5A2.75 2.75 0 0 1 5.75 5h12.5Zm1.25 2.75c0-.69-.56-1.25-1.25-1.25H10v11h8.25c.69 0 1.25-.56 1.25-1.25v-8.5Zm-11 9.75H5.75c-.69 0-1.25-.56-1.25-1.25v-8.5c0-.69.56-1.25 1.25-1.25H8.5v11Z" clip-rule="evenodd"/></svg>