<svg xmlns="http://www.w3.org/2000/svg" width="24" height="24" fill="none" viewBox="0 0 24 24"><path fill="#C5C6CA" d="M12.556 5a2.75 2.75 0 0 0-1.906.768L8.343 7.985A2.75 2.75 0 0 0 7.5 9.967v6.283A2.75 2.75 0 0 0 10.25 19h5.89c1.293 0 2.41-.9 2.687-2.162l1.124-5.134a2.75 2.75 0 0 0-2.686-3.339H15.75a.25.25 0 0 1-.25-.25V6.75A1.75 1.75 0 0 0 13.75 5z"/><path fill="#4D505A" fill-rule="evenodd" d="M4.75 9.5a.75.75 0 0 1 .75.75v8a.75.75 0 0 1-1.5 0v-8a.75.75 0 0 1 .75-.75" clip-rule="evenodd"/></svg>