<svg xmlns="http://www.w3.org/2000/svg" width="24" height="24" fill="none" viewBox="0 0 24 24"><mask id="a" width="21" height="20" x="2" y="2" maskUnits="userSpaceOnUse" style="mask-type:alpha"><path fill="#FFE37D" fill-rule="evenodd" d="M12.048 4.173V3.34c0-.83-.745-1.452-1.564-1.322-5.012.786-8.795 5.27-8.464 10.572.313 5.004 4.387 9.082 9.391 9.39 5.303.332 9.793-3.455 10.575-8.467a1.346 1.346 0 0 0-1.322-1.564h-.837a7.775 7.775 0 0 0-7.775-7.775z" clip-rule="evenodd"/></mask><g mask="url(#a)"><path fill="url(#b)" d="M12.052 19.723a7.775 7.775 0 1 0 0-15.55 7.775 7.775 0 0 0 0 15.55"/><path fill="url(#c)" d="M16.408 11.948a4.36 4.36 0 0 0-4.356-4.356h-.004V3.339c0-.83-.745-1.452-1.564-1.322-5.012.786-8.795 5.27-8.464 10.572.313 5.004 4.387 9.082 9.391 9.39 5.303.332 9.793-3.455 10.575-8.467a1.346 1.346 0 0 0-1.322-1.564h-4.255Z"/><g opacity=".5"><g filter="url(#d)"><path fill="#420926" d="M11.052 20.723a7.775 7.775 0 1 0 0-15.55 7.775 7.775 0 0 0 0 15.55"/></g><g filter="url(#e)"><path fill="#FFE37D" d="M12.052 19.723a7.775 7.775 0 1 0 0-15.55 7.775 7.775 0 0 0 0 15.55"/></g></g></g><defs><linearGradient id="b" x1="13.191" x2="17.082" y1="10.876" y2="7.223" gradientUnits="userSpaceOnUse"><stop stop-color="#fff"/><stop offset="1" stop-color="#FFE37D"/></linearGradient><linearGradient id="c" x1="8.537" x2="18.348" y1="15.866" y2="4.933" gradientUnits="userSpaceOnUse"><stop stop-color="#DF2B76"/><stop offset="1" stop-color="#FFB90D"/></linearGradient><filter id="d" width="21.55" height="21.55" x=".277" y="2.173" color-interpolation-filters="sRGB" filterUnits="userSpaceOnUse"><feFlood flood-opacity="0" result="BackgroundImageFix"/><feBlend in="SourceGraphic" in2="BackgroundImageFix" result="shape"/><feGaussianBlur result="effect1_foregroundBlur_4150_91291" stdDeviation="1.5"/></filter><filter id="e" width="19.55" height="19.55" x="2.277" y="2.173" color-interpolation-filters="sRGB" filterUnits="userSpaceOnUse"><feFlood flood-opacity="0" result="BackgroundImageFix"/><feBlend in="SourceGraphic" in2="BackgroundImageFix" result="shape"/><feGaussianBlur result="effect1_foregroundBlur_4150_91291" stdDeviation="1"/></filter></defs></svg>