<svg xmlns="http://www.w3.org/2000/svg" width="24" height="24" fill="none" viewBox="0 0 24 24"><path fill="#C5C6CA" d="M11.252 18.987a1 1 0 0 0 1.025 1.006l3.38-.084a1 1 0 0 0 .702-.313l3.164-3.353A1.75 1.75 0 0 0 20 15.042V8.72a1 1 0 0 0-.345-.755L15.58 4.428A1.75 1.75 0 0 0 14.433 4H8.358a1 1 0 0 0-.69.275L4.312 7.47A1 1 0 0 0 4 8.194v3.937a1 1 0 0 0 1 1h4.891c.229.649.743 1.16 1.392 1.387z"/><path fill="#4D505A" fill-rule="evenodd" d="M9.368 18.545a.75.75 0 0 1-1.018.297 7.03 7.03 0 0 1-2.782-2.781.75.75 0 0 1 1.316-.721 5.53 5.53 0 0 0 2.187 2.187.75.75 0 0 1 .297 1.018" clip-rule="evenodd"/></svg>