<svg xmlns="http://www.w3.org/2000/svg" width="24" height="24" fill="none" viewBox="0 0 24 24"><path fill="#4D505A" d="M11.752 5.307a.75.75 0 1 0-1.004-1.114l-2.5 2.25a.75.75 0 0 0 0 1.114l2.5 2.25a.75.75 0 1 0 1.004-1.114l-1.048-.943h2.546c2.9 0 5.25 2.35 5.25 5.25v.25a.75.75 0 0 0 1.5 0V13a6.75 6.75 0 0 0-6.75-6.75h-2.546z"/><path fill="#C5C6CA" d="M5.5 10.75a.75.75 0 0 0-1.5 0V11a6.75 6.75 0 0 0 6.75 6.75h2.546l-1.048.942a.75.75 0 1 0 1.004 1.116l2.5-2.25a.75.75 0 0 0 0-1.116l-2.5-2.25a.75.75 0 1 0-1.004 1.115l1.048.943H10.75A5.25 5.25 0 0 1 5.5 11z"/></svg>