<svg xmlns="http://www.w3.org/2000/svg" width="24" height="24" fill="none" viewBox="0 0 24 24"><path fill="#C5C6CA" d="M7.75 3A2.75 2.75 0 0 0 5 5.75v7.5a.75.75 0 0 0 1.5 0v-7.5c0-.69.56-1.25 1.25-1.25h7.504a.75.75 0 0 0 0-1.5zM19 20.028V4.189l-14 14v1.839a1 1 0 0 0 1.562.827l4.735-3.22a1.25 1.25 0 0 1 1.406 0l4.735 3.22A1 1 0 0 0 19 20.028"/><path fill="#4D505A" fill-rule="evenodd" d="M19.78 4.22a.75.75 0 0 1 0 1.06l-14.5 14.5a.75.75 0 0 1-1.06-1.06l14.5-14.5a.75.75 0 0 1 1.06 0" clip-rule="evenodd"/></svg>