<svg xmlns="http://www.w3.org/2000/svg" width="24" height="24" fill="none" viewBox="0 0 24 24"><path fill="#C5C6CA" fill-rule="evenodd" d="M8 3a1 1 0 0 1 1-1h8a3 3 0 0 1 3 3v7a1 1 0 1 1-2 0V5a1 1 0 0 0-1-1H9a1 1 0 0 1-1-1Zm-4-.414 15.293 15.293A2.414 2.414 0 0 1 17.586 22h-.758a3 3 0 0 1-2.12-.879l-2-2a1 1 0 0 0-1.415 0l-2 2A3 3 0 0 1 7.172 22H7a3 3 0 0 1-3-3V2.586Z" clip-rule="evenodd"/><path fill="#4D505A" fill-rule="evenodd" d="M2.293 2.293a1 1 0 0 1 1.414 0l18 18a1 1 0 0 1-1.414 1.414l-18-18a1 1 0 0 1 0-1.414Z" clip-rule="evenodd"/></svg>