<svg xmlns="http://www.w3.org/2000/svg" width="24" height="24" fill="none" viewBox="0 0 24 24"><path fill="#CACACE" d="M20 18.586 4.656 3.24l-.484 1.597A4 4 0 0 0 4 6v14c0 1.684 1.953 2.614 3.26 1.554l4.11-3.335a1 1 0 0 1 1.26 0l4.11 3.335c1.307 1.06 3.26.13 3.26-1.553v-1.415Z"/><path fill="#CACACE" fill-rule="evenodd" d="M8 3a1 1 0 0 1 1-1h7a4 4 0 0 1 4 4v7a1 1 0 1 1-2 0V6a2 2 0 0 0-2-2H9a1 1 0 0 1-1-1Z" clip-rule="evenodd"/><path fill="#3D3D42" fill-rule="evenodd" d="M2.293 2.293a1 1 0 0 1 1.414 0l18 18a1 1 0 0 1-1.414 1.414l-18-18a1 1 0 0 1 0-1.414Z" clip-rule="evenodd"/></svg>