<svg xmlns="http://www.w3.org/2000/svg" width="24" height="24" fill="none" viewBox="0 0 24 24"><path fill="#101116" d="M7.75 3A2.75 2.75 0 0 0 5 5.75v7.5a.75.75 0 0 0 1.5 0v-7.5c0-.69.56-1.25 1.25-1.25h7.504a.75.75 0 0 0 0-1.5z"/><path fill="#101116" fill-rule="evenodd" d="m19 6.06.78-.78a.75.75 0 0 0-1.06-1.06l-14.5 14.5A.75.75 0 0 0 5 19.957v.07a1 1 0 0 0 1.562.828l4.735-3.22a1.25 1.25 0 0 1 1.406 0l4.735 3.22A1 1 0 0 0 19 20.028zm-1.5 1.5v11.523l-3.954-2.688a2.75 2.75 0 0 0-3.092 0L6.5 19.082v-.522z" clip-rule="evenodd"/></svg>