<svg xmlns="http://www.w3.org/2000/svg" width="24" height="24" fill="none" viewBox="0 0 24 24"><path fill="#3D3D42" fill-rule="evenodd" d="M3.436 5.184C3 6.04 3 7.16 3 9.4v5.2c0 2.24 0 3.36.436 4.216a4 4 0 0 0 1.748 1.748C6.04 21 7.16 21 9.4 21h5.2c2.24 0 3.36 0 4.216-.436a4 4 0 0 0 1.748-1.748C21 17.96 21 16.84 21 14.6V9.4c0-2.24 0-3.36-.436-4.216a4 4 0 0 0-1.748-1.748C17.96 3 16.84 3 14.6 3H9.4c-2.24 0-3.36 0-4.216.436a4 4 0 0 0-1.748 1.748ZM8 13a1 1 0 1 0 0-2 1 1 0 0 0 0 2Zm5-1a1 1 0 1 1-2 0 1 1 0 0 1 2 0Zm3 1a1 1 0 1 0 0-2 1 1 0 0 0 0 2Zm-7 3a1 1 0 1 1-2 0 1 1 0 0 1 2 0Zm3 1a1 1 0 1 0 0-2 1 1 0 0 0 0 2Zm5-1a1 1 0 1 1-2 0 1 1 0 0 1 2 0ZM8 7a1 1 0 0 0 0 2h8a1 1 0 1 0 0-2H8Z" clip-rule="evenodd"/></svg>