<svg xmlns="http://www.w3.org/2000/svg" width="24" height="24" fill="none" viewBox="0 0 24 24"><mask id="a" width="21" height="20" x="1" y="2" maskUnits="userSpaceOnUse" style="mask-type:alpha"><path fill="#D9D9D9" d="M9.937 20.743 1.179 4.763V4.76c-.529-.962.179-2.132 1.283-2.132h18.076c1.442 0 2.01 1.847.812 2.644l-1.58.85a7.94 7.94 0 0 1 1.273 4.32c0 4.438-3.635 8.035-8.12 8.035h-.245v1.577c0 1.497-2.018 2.005-2.741.689"/></mask><g mask="url(#a)"><path fill="url(#b)" d="M4.803 10.443c0-3.79 2.653-6.968 6.222-7.81h3.796c3.57.842 6.222 4.02 6.222 7.81 0 4.436-3.636 8.034-8.12 8.034a8.1 8.1 0 0 1-5.257-1.916l-2.797-5.106a8 8 0 0 1-.066-1.012"/><path fill="url(#c)" d="m1.179 4.764 8.758 15.979c.723 1.316 2.741.808 2.741-.689v-4.929c2.621 0 4.745-2.1 4.745-4.694 0-.97-.296-1.866-.805-2.616l4.732-2.543c1.198-.797.63-2.644-.812-2.644H2.462C1.358 2.628.65 3.798 1.18 4.76z"/><g opacity=".5"><g filter="url(#d)"><path fill="#074A2E" d="M12.013 2.25c-4.065 0-7.361 3.26-7.361 7.283s3.296 7.283 7.361 7.283c4.066 0 7.362-3.26 7.362-7.283s-3.296-7.284-7.362-7.284Z"/></g><g filter="url(#e)"><path fill="#FFE37D" d="M12.879 3.115c-4.066 0-7.362 3.26-7.362 7.283s3.296 7.284 7.362 7.284c4.065 0 7.361-3.261 7.361-7.284s-3.296-7.283-7.361-7.283"/></g></g></g><defs><linearGradient id="b" x1="14.304" x2="18.414" y1="11.266" y2="13.768" gradientUnits="userSpaceOnUse"><stop stop-color="#fff"/><stop offset="1" stop-color="#FFE37D"/></linearGradient><linearGradient id="c" x1="10.979" x2="18.319" y1="9.554" y2="15.521" gradientUnits="userSpaceOnUse"><stop stop-color="#10A74C"/><stop offset="1" stop-color="#93F317"/></linearGradient><filter id="d" width="20.723" height="20.567" x="1.652" y="-.751" color-interpolation-filters="sRGB" filterUnits="userSpaceOnUse"><feFlood flood-opacity="0" result="BackgroundImageFix"/><feBlend in="SourceGraphic" in2="BackgroundImageFix" result="shape"/><feGaussianBlur result="effect1_foregroundBlur_6408_7076" stdDeviation="1.5"/></filter><filter id="e" width="18.723" height="18.567" x="3.517" y="1.115" color-interpolation-filters="sRGB" filterUnits="userSpaceOnUse"><feFlood flood-opacity="0" result="BackgroundImageFix"/><feBlend in="SourceGraphic" in2="BackgroundImageFix" result="shape"/><feGaussianBlur result="effect1_foregroundBlur_6408_7076" stdDeviation="1"/></filter></defs></svg>