<svg xmlns="http://www.w3.org/2000/svg" width="24" height="24" fill="none" viewBox="0 0 24 24"><path fill="#343846" fill-rule="evenodd" d="M15.822 12.284a.75.75 0 0 1 0-1.061l1.72-1.721H8.75a.75.75 0 1 1 0-1.5h8.793L15.82 6.28a.75.75 0 1 1 1.06-1.06l2.826 2.825a1 1 0 0 1 0 1.414l-2.824 2.825a.75.75 0 0 1-1.061 0" clip-rule="evenodd"/><path fill="#BCC3CD" fill-rule="evenodd" d="M8.178 11.716a.75.75 0 0 1 0 1.061l-1.72 1.721h8.792a.75.75 0 0 1 0 1.5H6.457L8.18 17.72a.75.75 0 1 1-1.06 1.06l-2.826-2.825a1 1 0 0 1 0-1.414l2.824-2.825a.75.75 0 0 1 1.061 0" clip-rule="evenodd"/></svg>