<svg xmlns="http://www.w3.org/2000/svg" width="16" height="12" fill="none" viewBox="0 0 16 12"><g clip-path="url(#a)"><mask id="b" width="16" height="12" x="0" y="0" maskUnits="userSpaceOnUse" style="mask-type:luminance"><path fill="#fff" d="M0 0h16v12H0z"/></mask><g mask="url(#b)"><path fill="#FFD018" fill-rule="evenodd" d="M4 0h8v12H4V0Z" clip-rule="evenodd"/><path fill="#2E42A5" fill-rule="evenodd" d="M0 0h4v12H0V0Z" clip-rule="evenodd"/><path fill="#E31D1C" fill-rule="evenodd" d="M12 0h4v12h-4V0Z" clip-rule="evenodd"/><path fill="#BF9937" fill-rule="evenodd" d="M4.9 3.607a1 1 0 0 1 1.007-1l4.395.031a1 1 0 0 1 .993 1v4.007s-.444 2-3.146 2S4.9 7.6 4.9 7.6V3.607Z" clip-rule="evenodd"/><path fill="#BF9937" fill-rule="evenodd" d="M5.15 4.2a.75.75 0 1 0 0-1.5.75.75 0 0 0 0 1.5Zm0 2.2a.75.75 0 1 0 0-1.5.75.75 0 0 0 0 1.5Zm0 1.8a.75.75 0 1 0 0-1.5.75.75 0 0 0 0 1.5Zm5.7-4a.75.75 0 1 0 0-1.5.75.75 0 0 0 0 1.5Zm0 2.2a.75.75 0 1 0 0-1.5.75.75 0 0 0 0 1.5Zm0 1.8a.75.75 0 1 0 0-1.5.75.75 0 0 0 0 1.5Z" clip-rule="evenodd"/><path fill="#805440" d="m5.912 8.335.052-.127c.604.26 1.291.389 2.062.389.77 0 1.44-.13 2.007-.388l.055.126c-.586.266-1.273.4-2.062.4-.788 0-1.493-.133-2.114-.4Z"/><path fill="#BF9937" fill-rule="evenodd" d="M6.115 3.81h3.77v3.514s0 .31-.329.446c-.328.136-.713.087-.713.087s-.37-.08-.564 0a1.65 1.65 0 0 1-.255.084v.01L8 7.946l-.024.005v-.01a1.711 1.711 0 0 1-.255-.084c-.195-.08-.564 0-.564 0s-.385.049-.713-.087a.51.51 0 0 1-.33-.446V3.81Z" clip-rule="evenodd"/><mask id="c" width="4" height="5" x="6" y="3" maskUnits="userSpaceOnUse" style="mask-type:luminance"><path fill="#fff" fill-rule="evenodd" d="M6.115 3.81h3.77v3.514s0 .31-.329.446c-.328.136-.713.087-.713.087s-.37-.08-.564 0a1.65 1.65 0 0 1-.255.084v.01L8 7.946l-.024.005v-.01a1.711 1.711 0 0 1-.255-.084c-.195-.08-.564 0-.564 0s-.385.049-.713-.087a.51.51 0 0 1-.33-.446V3.81Z" clip-rule="evenodd"/></mask><g mask="url(#c)"><path fill="#D00F3A" d="M6.062 3.765H7.89v1.95H6.062z"/><path fill="#FEDF00" fill-rule="evenodd" d="M8.093 3.765H9.99v1.95H8.093v-1.95Zm0 2.167h1.829v2.022H8.093V5.932Z" clip-rule="evenodd"/><path fill="#FEDF00" d="M6.062 5.932H7.89v2.022H6.062z"/><path fill="#D00F3A" fill-rule="evenodd" d="M9.062 7.265a.5.5 0 1 0 0-1 .5.5 0 0 0 0 1Z" clip-rule="evenodd"/><path fill="#FEDF00" fill-rule="evenodd" d="M7.015 5.218V4.104l.47.533-.241.58c-.09-.03-.12.035-.074.152.027.07.048.12.07.16-.08-.082-.114-.133-.114-.187a.21.21 0 0 0-.015-.095c-.005-.01-.047-.018-.074-.024l-.022-.005Zm-.22 0-.242-.581.46-.529v1.114l-.021.004c-.024.005-.06.012-.064.021a.21.21 0 0 0-.015.095c0 .054-.033.105-.114.186.021-.038.043-.089.07-.159.046-.117.015-.182-.074-.151Z" clip-rule="evenodd"/><path fill="#D00F3A" d="M8.505 4.29h1v1h-1z"/><path fill="#D00F3A" fill-rule="evenodd" d="M6.562 6.38h1v1h-1v-1Z" clip-rule="evenodd"/></g></g></g><defs><clipPath id="a"><rect width="16" height="12" fill="#fff" rx="1"/></clipPath></defs></svg>