<svg xmlns="http://www.w3.org/2000/svg" width="24" height="24" fill="none" viewBox="0 0 24 24"><path fill="#265FB5" d="M24 18a2.667 2.667 0 0 1-2.667 2.667H2.667A2.667 2.667 0 0 1 0 18V6a2.667 2.667 0 0 1 2.667-2.667h18.666A2.667 2.667 0 0 1 24 6v12Z"/><path fill="#fff" d="M18.355 12.622c-.034-.35.534-1.219.078-1.156-.558.076-.994-.308-1.183-.299.604-.854.155-1.07.02-1.625-.237-.972.521-1.448-.833-1.656-.88-.135-1.488-.044-1.753-1.05-.389.273-.85.34-1.288.15-.28-.123-.367-.355-.63-.468-.2-.085-.617-.084-.84-.12-.616-.097-.933.177-1.485.085.052.08.06.183.097.268-.34.012-.547.24-.584.558-.498-.05-.625.6-.569 1.008l-.052.016.021.021c-.105 1.083-.545 1.625-1.655 1.795-.731.112-1.38-.373-2.012-.764a2.849 2.849 0 0 1-.51-.416c-.187-.208-.319-.498-.5-.646-.084-.068-.261-.126-.236.014-.115.718.41 1.614 1.014 1.96-.828.381.21.61.358.74.004.002.36.493.363.512.057.35-.185.31-.21.591-.027.291-.027.525.07.815l-.02.02c.004.234-.173.15-.402.098.031.708.706.77.819.908.363.446.238 1.094.662 1.51 1.042 1.021 2.23.418 3.411.59.663.096 1.23.652 1.831.024.706.774-.543 1.69-.238 1.952.088.074.18.106.274.111-.018.047-.045.09-.057.14.848.08 1.741.283 2.535-.134-.002.127.084.282.088.35.195-.233.347-.22.595-.344.31-.155.857-.34 1.063-.65.246-.37-.14-.88.632-.722.06-.267.085-.239.227-.416-.213-.533.42-.893.61-1.275.037-.077.04-.434.09-.569.097-.257.371-.4.447-.72.139-.592-.199-.694-.248-1.206Z"/></svg>