<svg xmlns="http://www.w3.org/2000/svg" width="16" height="12" fill="none" viewBox="0 0 16 12"><g clip-path="url(#a)"><mask id="b" width="16" height="12" x="0" y="0" maskUnits="userSpaceOnUse" style="mask-type:alpha"><path fill="#fff" d="M0 0h16v12H0z"/></mask><g mask="url(#b)"><path fill="#5BA3DA" fill-rule="evenodd" d="M0 0v12h16V0H0Z" clip-rule="evenodd"/><mask id="c" width="16" height="12" x="0" y="0" maskUnits="userSpaceOnUse" style="mask-type:alpha"><path fill="#fff" fill-rule="evenodd" d="M0 0v12h16V0H0Z" clip-rule="evenodd"/></mask><g fill-rule="evenodd" clip-rule="evenodd" mask="url(#c)"><path fill="#EF2929" d="M2.78 4.29.242 3.536l2.595-.74.633-2.36.731 2.433 2.4.642-2.407.723-.718 2.324L2.78 4.29Z"/><path fill="red" d="M2.78 4.29.242 3.536l2.595-.74.633-2.36.731 2.433 2.4.642-2.407.723-.718 2.324L2.78 4.29Z"/><path fill="#FAD615" d="M16 7H0v1h16V7Zm0 2H0v1h16V9Z"/></g></g></g><defs><clipPath id="a"><rect width="16" height="12" fill="#fff" rx="1"/></clipPath></defs></svg>