<svg xmlns="http://www.w3.org/2000/svg" width="24" height="24" fill="none" viewBox="0 0 24 24"><path fill="#4189DD" d="M21.333 3.333H2.667A2.667 2.667 0 0 0 0 6v8.703h24V6a2.667 2.667 0 0 0-2.667-2.667ZM4.184 7.517l-.629 2.038-.628-2.038L.889 6.89l2.038-.629.628-2.038.629 2.038 2.038.629-2.038.628Zm-1.517 13.15h18.666a2.66 2.66 0 0 0 2.578-2.019H.09a2.66 2.66 0 0 0 2.578 2.019ZM0 16.019h24v1.314H0V16.02Z"/><path fill="#fff" d="m3.555 4.222-.628 2.039-2.038.628 2.038.629.629 2.038.629-2.038 2.038-.629-2.039-.628-.629-2.039Zm.485 3.151-.484 1.57-.485-1.57-1.57-.484 1.57-.484.484-1.57.485 1.57 1.57.484-1.57.484Z"/><path fill="#D21034" d="m3.555 4.835-.484 1.57-1.57.484 1.57.484.484 1.57.485-1.57 1.57-.484-1.57-.484-.485-1.57Z"/><path fill="#F9D616" d="M0 14.703h24v1.315H0v-1.315ZM0 18c0 .225.036.44.089.648H23.91c.053-.209.089-.423.089-.648v-.667H0V18Z"/></svg>