<svg xmlns="http://www.w3.org/2000/svg" width="16" height="12" fill="none" viewBox="0 0 16 12"><g clip-path="url(#a)"><mask id="b" width="16" height="12" x="0" y="0" maskUnits="userSpaceOnUse" style="mask-type:luminance"><path fill="#fff" d="M0 0h16v12H0z"/></mask><g mask="url(#b)"><path fill="#FECA00" fill-rule="evenodd" d="M0 0v12h16V0H0Z" clip-rule="evenodd"/><mask id="c" width="16" height="12" x="0" y="0" maskUnits="userSpaceOnUse" style="mask-type:luminance"><path fill="#fff" fill-rule="evenodd" d="M0 0v12h16V0H0Z" clip-rule="evenodd"/></mask><g mask="url(#c)"><path fill="#DB501C" fill-rule="evenodd" d="M0 0v4h16V0H0Z" clip-rule="evenodd"/><path fill="#5EAA22" fill-rule="evenodd" d="M0 8v4h16V8H0Z" clip-rule="evenodd"/><path stroke="#DB501C" stroke-width=".75" d="M5.824 5.63S5.638 7.534 7.33 7.534h1.261s1.781-.116 1.574-1.904"/><path fill="#FECA00" stroke="#68B9E8" stroke-width=".75" d="M9.125 5.9a1.125 1.125 0 1 1-2.25 0 1.125 1.125 0 0 1 2.25 0Z"/><path fill="#DB501C" fill-rule="evenodd" d="M8 6a.5.5 0 1 0 0-1 .5.5 0 0 0 0 1Z" clip-rule="evenodd"/><path fill="#5EAA22" fill-rule="evenodd" d="M8.05 6.8c.47 0 .85-.18.85-.4 0-.22-.38-.4-.85-.4s-.85.18-.85.4c0 .22.38.4.85.4Z" clip-rule="evenodd"/><path fill="#674F28" fill-rule="evenodd" d="M8.05 5c.663 0 1.2-.18 1.2-.4 0-.221-.537-.4-1.2-.4-.663 0-1.2.179-1.2.4 0 .22.537.4 1.2.4Z" clip-rule="evenodd"/></g></g></g><defs><clipPath id="a"><rect width="16" height="12" fill="#fff" rx="1"/></clipPath></defs></svg>