<svg xmlns="http://www.w3.org/2000/svg" width="24" height="24" fill="none" viewBox="0 0 24 24"><path fill="#009B3A" d="M24 18a2.667 2.667 0 0 1-2.667 2.667H2.667A2.667 2.667 0 0 1 0 18V6a2.667 2.667 0 0 1 2.667-2.667h18.666A2.667 2.667 0 0 1 24 6v12Z"/><path fill="#FEDF01" d="M21.819 12 12 19.416 2.181 12 12 4.583 21.819 12Z"/><path fill="#002776" d="M11.984 16.255a4.305 4.305 0 1 0 0-8.61 4.305 4.305 0 0 0 0 8.61Z"/><path fill="#CBE9D4" d="M8.185 9.925a4.27 4.27 0 0 0-.448 1.348c2.663-.193 6.278 1.261 7.829 3.064.268-.403.467-.854.589-1.336-1.915-1.872-5.278-3.087-7.97-3.076Z"/><path fill="#88C9F9" d="M8 12.155h.667v.667H8v-.667Zm.667 1.334h.666v.666h-.666v-.666Z"/><path fill="#55ACEE" d="M10 12.155h.667v.667H10v-.667Zm1.333.667H12v.667h-.667v-.667ZM14 14.155h.667v.667H14v-.667Zm-2 .667h.667v.667H12v-.667Zm2-4h.667v.667H14v-.667Z"/><path fill="#3B88C3" d="M12.667 13.489h.666v.666h-.666v-.666Z"/></svg>