<svg xmlns="http://www.w3.org/2000/svg" width="16" height="12" fill="none" viewBox="0 0 16 12"><g clip-path="url(#a)"><mask id="b" width="16" height="12" x="0" y="0" maskUnits="userSpaceOnUse" style="mask-type:luminance"><path fill="#fff" d="M0 0h16v12H0z"/></mask><g mask="url(#b)"><path fill="#093" fill-rule="evenodd" d="M0 0v12h16V0H0Z" clip-rule="evenodd"/><mask id="c" width="16" height="12" x="0" y="0" maskUnits="userSpaceOnUse" style="mask-type:luminance"><path fill="#fff" fill-rule="evenodd" d="M0 0v12h16V0H0Z" clip-rule="evenodd"/></mask><g mask="url(#c)"><g fill-rule="evenodd" clip-rule="evenodd" filter="url(#d)"><path fill="#FFD221" d="m7.963 1.852 6.101 4.252-6.184 3.982L1.904 6.02l6.06-4.169Z"/><path fill="url(#e)" d="m7.963 1.852 6.101 4.252-6.184 3.982L1.904 6.02l6.06-4.169Z"/></g><path fill="#2E42A5" fill-rule="evenodd" d="M8 8.6a2.5 2.5 0 1 0 0-5 2.5 2.5 0 0 0 0 5Z" clip-rule="evenodd"/><mask id="f" width="6" height="6" x="5" y="3" maskUnits="userSpaceOnUse" style="mask-type:luminance"><path fill="#fff" fill-rule="evenodd" d="M8 8.6a2.5 2.5 0 1 0 0-5 2.5 2.5 0 0 0 0 5Z" clip-rule="evenodd"/></mask><g fill="#F7FCFF" mask="url(#f)"><path fill-rule="evenodd" d="m7.19 7.285-.112.059.022-.125-.09-.088.124-.018L7.19 7l.056.113.125.018-.09.088.02.125-.111-.059Zm1 0-.112.059.022-.125-.09-.088.124-.018L8.19 7l.056.113.125.018-.09.088.02.125-.111-.059Zm0 .6-.112.059.022-.125-.09-.088.124-.018.056-.113.056.113.125.018-.09.088.02.125-.111-.059Zm-.5-2.1-.112.059.022-.125-.09-.088.124-.018.056-.113.056.113.125.018-.09.088.02.125-.111-.059Zm0 1-.112.059.022-.125-.09-.088.124-.018.056-.113.056.113.125.018-.09.088.02.125-.111-.059Zm-.7-.5-.112.059.022-.125-.09-.088.124-.018L6.99 6l.056.113.125.018-.09.088.02.125-.111-.059Zm-.7.4-.112.059.022-.125-.09-.088.124-.018.056-.113.056.113.125.018-.09.088.02.125-.111-.06Zm2.3-1.7-.112.059.022-.125-.09-.088.124-.018.056-.113.056.113.125.018-.09.088.02.125-.111-.059Z" clip-rule="evenodd"/><path d="m4.962 5.499.076-.998c2.399.181 4.292.97 5.656 2.373l-.717.697C8.795 6.355 7.131 5.662 4.962 5.5Z"/></g></g></g></g><defs><linearGradient id="e" x1="16" x2="16" y1="12" y2="0" gradientUnits="userSpaceOnUse"><stop stop-color="#FFC600"/><stop offset="1" stop-color="#FFDE42"/></linearGradient><clipPath id="a"><rect width="16" height="12" fill="#fff" rx="1"/></clipPath><filter id="d" width="12.16" height="8.234" x="1.904" y="1.852" color-interpolation-filters="sRGB" filterUnits="userSpaceOnUse"><feFlood flood-opacity="0" result="BackgroundImageFix"/><feColorMatrix in="SourceAlpha" result="hardAlpha" values="0 0 0 0 0 0 0 0 0 0 0 0 0 0 0 0 0 0 127 0"/><feOffset/><feColorMatrix values="0 0 0 0 0.0313726 0 0 0 0 0.368627 0 0 0 0 0 0 0 0 0.28 0"/><feBlend in2="BackgroundImageFix" result="effect1_dropShadow_157_65777"/><feBlend in="SourceGraphic" in2="effect1_dropShadow_157_65777" result="shape"/></filter></defs></svg>