<svg xmlns="http://www.w3.org/2000/svg" width="24" height="25" fill="none" viewBox="0 0 24 25"><path fill="#CC212D" d="M8 4.111v17.333h8V4.111H8Zm5.255 10.393L12 13.594l-1.255.91.48-1.474-1.255-.912h1.55l.48-1.475.48 1.475h1.55l-1.255.911.48 1.475Z"/><path fill="#288541" d="M2.667 4.111A2.667 2.667 0 0 0 0 6.778v12a2.667 2.667 0 0 0 2.667 2.666H8V4.111H2.667Z"/><path fill="#FEE833" d="M21.333 4.111H16v17.333h5.333A2.667 2.667 0 0 0 24 18.778v-12a2.667 2.667 0 0 0-2.667-2.667Zm-8.854 8.007L12 10.643l-.48 1.475H9.97l1.255.912-.48 1.474 1.255-.91 1.255.91-.48-1.474 1.255-.912h-1.55Z"/></svg>