<svg xmlns="http://www.w3.org/2000/svg" width="16" height="12" fill="none" viewBox="0 0 16 12"><g clip-path="url(#a)"><mask id="b" width="16" height="12" x="0" y="0" maskUnits="userSpaceOnUse" style="mask-type:alpha"><path fill="#fff" d="M0 0h16v12H0z"/></mask><g mask="url(#b)"><path fill="#C51918" fill-rule="evenodd" d="M0 0v12h16V0H0Z" clip-rule="evenodd"/><mask id="c" width="16" height="12" x="0" y="0" maskUnits="userSpaceOnUse" style="mask-type:alpha"><path fill="#fff" fill-rule="evenodd" d="M0 0v12h16V0H0Z" clip-rule="evenodd"/></mask><g mask="url(#c)"><path fill="#F7FCFF" fill-rule="evenodd" d="M7 0h2v5h7v2H9v5H7V7H0V5h7V0Z" clip-rule="evenodd"/><path fill="#4257BF" d="M0 0h7v5H0zm9 7h7v5H9z"/><path fill="#309404" d="m6.818 5.555.498.048c-.085.89.026 1.265.206 1.265v.5c-.623 0-.815-.65-.704-1.813Zm2.395 0-.497.048c.085.89-.026 1.265-.206 1.265v.5c.622 0 .815-.65.703-1.813Z"/><path fill="#003994" d="M7.364 5.346h.473v.738h-.473zm.726.877h.474v.375c0 .2-.163.364-.364.364h-.11v-.739Z"/><path fill="#DE2110" d="M8.055 5.3h.473v.738h-.473zm-.691.923h.472v.739h-.109a.364.364 0 0 1-.363-.364v-.375Z"/><path fill="#00319C" d="m7.167 5.305-.334-.372c.353-.318.721-.483 1.1-.483.38 0 .747.165 1.1.483l-.334.372c-.267-.241-.521-.355-.766-.355-.244 0-.498.114-.766.355Z"/><path fill="#DE2110" d="m7.204 7.797-.335-.372c.353-.318.721-.483 1.1-.483.38 0 .748.165 1.1.483l-.334.372c-.267-.24-.521-.355-.766-.355-.244 0-.498.114-.765.355Z"/></g></g></g><defs><clipPath id="a"><rect width="16" height="12" fill="#fff" rx="1"/></clipPath></defs></svg>