<svg xmlns="http://www.w3.org/2000/svg" width="24" height="25" fill="none" viewBox="0 0 24 25"><path fill="#ED1C23" d="M24 18.444a2.667 2.667 0 0 1-2.667 2.667H2.667A2.667 2.667 0 0 1 0 18.444v-12a2.667 2.667 0 0 1 2.667-2.666h18.666A2.667 2.667 0 0 1 24 6.444v12Z"/><path fill="#034EA2" d="M0 11.778h24v4.666H0v-4.666Z"/><path fill="#FD0" d="M24 11.778V6.444a2.667 2.667 0 0 0-2.667-2.666H2.667A2.667 2.667 0 0 0 0 6.444v5.334h24Z"/><path fill="#FD0" d="M15.333 13.11c0 .737-.597 1.334-1.333 1.334h-4a1.334 1.334 0 0 1-1.333-1.333v-2c0-.736.597-1.333 1.333-1.333h4c.736 0 1.333.597 1.333 1.333v2Z"/><path fill="#034EA2" d="M14.667 12.444c0 .736-.598 2-1.334 2h-2.666c-.736 0-1.334-1.264-1.334-2v-.666c0-.736.598-1.334 1.334-1.334h2.666c.736 0 1.334.598 1.334 1.334v.666Z"/><path fill="#ED1C23" d="M14 12.444c0 .736-.597 2-1.333 2h-1.334c-.736 0-1.333-1.264-1.333-2v-.666c0-.736.597-1.334 1.333-1.334h1.334c.736 0 1.333.598 1.333 1.334v.666Z"/><path fill="#6DBE46" d="M13.315 9.868c-.088.325-.64.576-1.315.576-.675 0-1.227-.251-1.315-.576-.804.114-.685.328-.685.576 0 .368.527.667 2 .667 1.473 0 2-.299 2-.667 0-.248.119-.462-.685-.576Z"/><path fill="#A6D388" d="M12.667 13.111a.666.666 0 1 1-1.334 0v-2a.667.667 0 0 1 1.334 0v2Z"/><path fill="#662113" d="M14.333 8.444c.294 0 .572.035.831.092-.415-.718-1.83-1.425-3.164-.092-1.333-1.333-2.749-.626-3.164.092a3.88 3.88 0 0 1 .83-.092c1.29 0 2.334.598 2.334 1.334 0-.736 1.044-1.334 2.333-1.334Z"/><path fill="#8ED2E7" d="M12 14.444c.736 0 1.333-1.044 1.333-2.333 0-1.289-.597-2.333-1.333-2.333s-1.333 1.044-1.333 2.333c0 1.289.597 2.333 1.333 2.333Z"/><path fill="#6DBE46" d="M11.667 11.778c-.358 0-.692.086-.994.23-.001.034-.006.068-.006.103 0 1.289.597 2.333 1.333 2.333.669 0 1.217-.863 1.313-1.986a2.328 2.328 0 0 0-1.646-.68Z"/><path fill="#FFCC4D" d="M12 15.778c1.105 0 2-.299 2-.667 0-.368-.895-.667-2-.667s-2 .299-2 .667c0 .368.895.667 2 .667Z"/><path fill="#034EA2" d="M13.333 15.778c0 .552-.597.666-1.333.666s-1.333-.114-1.333-.666.597-1.334 1.333-1.334 1.333.782 1.333 1.334Z"/><path fill="#ED1C23" d="M11.333 15.778c0-.552.299-1.334.667-1.334.368 0 .667.782.667 1.334s-.299.666-.667.666c-.368 0-.667-.114-.667-.666Z"/><path fill="#CCD6DD" d="M11.333 7.778c0-.368.299 0 .667 0 .368 0 .667-.368.667 0a.667.667 0 0 1-1.334 0Z"/><path fill="#fff" d="M12 12.444c.368 0 .667-.149.667-.333 0-.184-.299-.333-.667-.333-.368 0-.667.149-.667.333 0 .184.299.333.667.333Z"/><path fill="#C1694F" d="M8.667 11.111c.368 0 .666-.15.666-.333 0-.184-.298-.334-.666-.334-.369 0-.667.15-.667.334 0 .184.298.333.667.333Zm.666-1.333c.369 0 .667-.15.667-.334 0-.184-.298-.333-.667-.333-.368 0-.666.15-.666.333 0 .185.298.334.666.334Zm6 1.333c.368 0 .667-.15.667-.333 0-.184-.299-.334-.667-.334-.368 0-.666.15-.666.334 0 .184.298.333.666.333Zm-.666-1.333c.368 0 .666-.15.666-.334 0-.184-.298-.333-.666-.333-.368 0-.667.15-.667.333 0 .185.299.334.667.334Z"/></svg>