<svg xmlns="http://www.w3.org/2000/svg" width="16" height="12" fill="none" viewBox="0 0 16 12"><g clip-path="url(#a)"><mask id="b" width="17" height="12" x="0" y="0" maskUnits="userSpaceOnUse" style="mask-type:alpha"><path fill="#fff" d="M0 0h17v12H0z"/></mask><g fill-rule="evenodd" clip-rule="evenodd" mask="url(#b)"><path fill="#43B764" d="M0 0v6h16V0H0Z"/><path fill="#B4D7F4" d="M0 6v6h16V6H0Z"/><path fill="#BE0027" d="m0 0 16.5 6L0 12V0Z"/><path fill="#F3E294" d="m4.557 8.684-.477.01a4.742 4.742 0 0 1-.096-.128 3.157 3.157 0 0 1-.355-1.458v.13c-.002.58-.002.827.355 1.328.102.198.225.392.37.58l.616-.472-.413.01Z"/><path fill="#F3E294" d="M1 6.25a3.25 3.25 0 1 0 6.5 0 3.25 3.25 0 0 0-6.5 0Zm5.5 0a2.25 2.25 0 1 1-4.5 0 2.25 2.25 0 0 1 4.5 0Z"/></g></g><defs><clipPath id="a"><rect width="16" height="12" fill="#fff" rx="1"/></clipPath></defs></svg>