<svg width="16" height="12" viewBox="0 0 16 12" fill="none" xmlns="http://www.w3.org/2000/svg"><g clip-path="url(#a)"><mask id="b" style="mask-type:alpha" maskUnits="userSpaceOnUse" x="0" y="0" width="17" height="12"><path fill="#fff" d="M0 0h17v12H0z"/></mask><g mask="url(#b)" fill-rule="evenodd" clip-rule="evenodd"><path d="M0 0v6h16V0H0Z" fill="#43B764"/><path d="M0 6v6h16V6H0Z" fill="#B4D7F4"/><path d="m0 0 16.5 6L0 12V0Z" fill="#BE0027"/><path d="m4.557 8.684-.478.01a4.762 4.762 0 0 1-.095-.128 3.157 3.157 0 0 1-.355-1.458v.13c-.002.58-.002.827.355 1.328.102.198.225.392.37.58l.616-.472-.413.01Z" fill="#F3E294"/><path d="M1 6.25a3.25 3.25 0 1 0 6.5 0 3.25 3.25 0 0 0-6.5 0Zm5.5 0a2.25 2.25 0 1 1-4.5 0 2.25 2.25 0 0 1 4.5 0Z" fill="#F3E294"/></g></g><defs><clipPath id="a"><path d="M0 1a1 1 0 0 1 1-1h14a1 1 0 0 1 1 1v10a1 1 0 0 1-1 1H1a1 1 0 0 1-1-1V1Z" fill="#fff"/></clipPath></defs></svg>