<svg xmlns="http://www.w3.org/2000/svg" width="16" height="12" fill="none" viewBox="0 0 16 12"><g clip-path="url(#a)"><mask id="b" width="16" height="12" x="0" y="0" maskUnits="userSpaceOnUse" style="mask-type:alpha"><path fill="#fff" d="M0 0h16v12H0z"/></mask><g mask="url(#b)"><path fill="#F7FCFF" fill-rule="evenodd" d="M0 0v12.288h16.384V0H0Z" clip-rule="evenodd"/><mask id="c" width="17" height="13" x="0" y="0" maskUnits="userSpaceOnUse" style="mask-type:alpha"><path fill="#fff" fill-rule="evenodd" d="M0 0v12.288h16.384V0H0Z" clip-rule="evenodd"/></mask><g fill-rule="evenodd" clip-rule="evenodd" mask="url(#c)"><path fill="#009D00" d="M0 0v4.096h16.384V0H0Z"/><path fill="#fff" d="M0 4.096v4.096h16.384V4.096H0Z"/><path fill="#F80000" d="M0 8.192v4.096h16.384V8.192H0Z"/></g><path fill="#0075D5" fill-rule="evenodd" d="M0 0v12.288l4.096-6.066L0 0Z" clip-rule="evenodd"/><path fill="#FFD500" stroke="#000" stroke-width=".03" d="m7.46 4.55.003.011-.016-.014-.103-.095-.012.139.011.001-.019.01-.122.069.128.055.005-.01.004.02.028.138.092-.105-.009-.008.022.003.138.016-.071-.12-.01.006.01-.02.058-.126-.137.03Zm.512 0 .003.011-.016-.014-.103-.095-.012.139.011.001-.019.01-.122.069.128.055.005-.01.004.02.028.138.092-.105-.009-.008.022.003.138.016-.071-.12-.01.006.01-.02.058-.126-.137.03Zm.512 0 .003.011-.016-.014-.103-.095-.012.139.011.001-.019.01-.122.069.128.055.005-.01.004.02.028.138.092-.105-.009-.008.022.003.138.016-.071-.12-.01.006.01-.02.058-.126-.137.03Zm.512 0L9 4.561l-.016-.014-.103-.095-.012.139.011.001-.019.01-.122.069.128.055.005-.01.004.02.028.138.092-.105-.009-.008.022.003.138.016-.071-.12-.01.006.01-.02.058-.126-.137.03Zm.512 0 .003.011-.016-.014-.103-.095-.012.139.011.001-.019.01-.122.069.128.055.005-.01.004.02.028.138.092-.105-.009-.008.022.003.138.016-.071-.12-.01.006.01-.02.058-.126-.137.03Zm.512 0 .003.011-.016-.014-.103-.095-.012.139.011.001-.019.01-.122.069.128.055.005-.01.004.02.028.138.092-.105-.009-.008.022.003.138.016-.071-.12-.01.006.01-.02.058-.126-.137.03Z"/><path stroke="#373737" stroke-width=".06" d="M7.71 5.15h1.988v1.506a.994.994 0 0 1-1.988 0V5.15Z"/><path fill="#6F3E1D" fill-rule="evenodd" d="M8.564 6.123s-.103 1.212-.206 1.285c-.104.073.494.11.55.055.058-.055-.26-1.042-.15-1.34.109-.297.285-.321.285-.321s-.222-.047-.286.042c-.063.09-.252-.042-.252-.042l.059.321Z" clip-rule="evenodd"/><path fill="#009D29" fill-rule="evenodd" d="M8.541 6.055h-.08s-.053.21-.176.105c-.124-.105-.298-.068-.298-.068s.016-.126.205-.176c.19-.05.27-.456.27-.456s.268-.1.431.105c.163.204.393.117.393.117s.168.095.084.234-.227.24-.352.139c-.125-.101-.477 0-.477 0Z" clip-rule="evenodd"/></g></g><defs><clipPath id="a"><rect width="16" height="12" fill="#fff" rx="1"/></clipPath></defs></svg>