<svg xmlns="http://www.w3.org/2000/svg" width="24" height="25" fill="none" viewBox="0 0 24 25"><path fill="#FCD116" d="M21.333 4H10v8.667h14v-6A2.667 2.667 0 0 0 21.333 4Z"/><path fill="#009E49" d="M10 21.333h11.333A2.667 2.667 0 0 0 24 18.667v-6H10v8.666Z"/><path fill="#CE1126" d="M10 4H2.667A2.667 2.667 0 0 0 0 6.667v12a2.667 2.667 0 0 0 2.667 2.666H10V4ZM6.667 15.333 4.969 14.1 3.27 15.333l.648-1.996-1.698-1.234h2.1l.649-1.996.648 1.996h2.099l-1.698 1.234.649 1.996Z"/><path fill="#000" d="m5.617 12.103-.648-1.996-.649 1.996H2.221l1.698 1.234-.648 1.996L4.969 14.1l1.698 1.234-.649-1.996 1.698-1.234H5.617Z"/></svg>