<svg xmlns="http://www.w3.org/2000/svg" width="24" height="24" fill="none" viewBox="0 0 24 24"><path fill="#00247D" d="M21.333 3.333H2.667c-.137 0-.272.01-.403.03l-.003 1.17-1.82-.003A2.656 2.656 0 0 0 0 6v12a2.667 2.667 0 0 0 2.667 2.667h18.666A2.667 2.667 0 0 0 24 18V6a2.667 2.667 0 0 0-2.667-2.667Z"/><path fill="#F9D050" d="M22.493 15.147c-.186.026-.264.293-.344.453 0 0-.186.16-.48.133 0 0 .135-.213.268-.427.133-.213.054-.48-.133-.506-.186-.027-.213-.134-.453-.347-.24-.213-.667-.24-.747-.053-.08.186-.454.32-.4.587.053.266.186.613.32.826 0 0-.631.4-1.139.587-.506.187-.874.213-.874.213s-.532-.026-1.039-.213c-.507-.187-.99-.587-.99-.587.133-.213.267-.56.321-.826.053-.266-.32-.401-.4-.587-.08-.187-.507-.16-.747.053s-.266.32-.454.347c-.186.026-.267.293-.133.506l.265.427c-.293.027-.48-.133-.48-.133-.08-.16-.163-.427-.35-.453-.187-.027-.19.159-.164.347.027.186.15.533.23.746.08.213.22.24.514.293.293.054.735-.186.735-.186 1.041 1.013 2.538.986 2.538.986s1.644.027 2.684-.986c0 0 .514.24.808.186.294-.053.472-.08.551-.293.08-.213.223-.56.25-.746.027-.188.03-.374-.157-.347Z"/><path fill="#DB1C1C" d="M22.392 16.213s.213-.64.266-.854c.053-.212-.16-.293-.32-.16-.16.135-.4.908-.4.908s.08-.16.24-.134c.16.027.214.24.214.24Zm-1.28-.986s.293-.348.32-.56c.026-.213-.267-.48-.481-.454-.213.027-.374.187-.32.373.054.187.24.56.24.56s0-.053.107-.053.133.134.133.134Zm-6.495.986s-.213-.64-.267-.854c-.053-.212.16-.293.32-.16.16.135.4.908.4.908s-.08-.16-.24-.134c-.16.027-.213.24-.213.24Zm1.28-.986s-.293-.348-.32-.56c-.026-.213.267-.48.48-.454.214.027.374.187.32.373-.053.187-.24.56-.24.56s0-.053-.106-.053c-.107 0-.134.134-.134.134Z"/><path fill="#CF1B2B" d="M18.511 10.559h-2.154v1.952h4.667v-1.952h-2.513Z"/><path fill="#fff" d="M20.18 15.572c.374-.454.844-1.28.844-2.427v-.99c-.143-.003-.297-.016-.335-.005-.246.07-.288.329-.586.329-.346 0-.441-.347-.788-.347-.347 0-.46.347-.807.347-.293 0-.537-.347-.803-.347-.267 0-.562.347-.802.347-.212 0-.352-.27-.546-.334l.001 1c0 .798.162 1.431.351 1.91.11.278.416.694.471.738 0 0 .63.136.996.78 0 0 .065.046.343.046.277 0 .338-.06.338-.06.364-.667.99-.582 1.324-.987Z"/><path fill="#0B50A0" d="M16.82 13.92c.32 0 .72-.293.933-.293.214 0 .4.292.694.292.293 0 .666-.292.853-.292.187 0 .48.292.773.292.293 0 .4-.292.666-.292.053 0 .21.02.253.04.027-.175.04-.466.031-.738-.111-.003-.189-.007-.242-.007-.032 0-.071-.006-.116.01-.226.079-.274.321-.564.321-.346 0-.44-.346-.787-.346-.347 0-.46.346-.807.346-.293 0-.537-.346-.804-.346-.266 0-.562.346-.802.346-.164 0-.284-.163-.42-.265a.382.382 0 0 0-.124-.062c-.016.37.02.735.02.735.132.077.192.258.444.258Zm2.51 1.573c-.343 0-.453.337-.79.344-.337-.007-.447-.344-.79-.344-.232 0-.417.198-.57.3.177.113.436.184.775.436.241.18.585.198.585.198s.344-.02.585-.198c.34-.252.598-.323.776-.436-.154-.102-.339-.3-.571-.3Zm1.54-1.414c-.373 0-.345.347-.69.347-.348 0-.428-.347-.774-.347-.347 0-.454.347-.8.347-.294 0-.534-.347-.8-.347-.267 0-.56.347-.8.347-.183 0-.381-.201-.571-.298 0 0 .092.557.27.916.06.027.142.049.22.049.32 0 .72-.293.934-.293.213 0 .4.293.693.293.293 0 .667-.293.853-.293.187 0 .48.293.773.293.19 0 .32-.128.448-.215.123-.225.215-.485.29-.797a.48.48 0 0 0-.045-.002Z"/><path fill="#059334" d="m17.227 13.223.237-.805.243.803.839-.024-.688.48.281.79-.668-.507-.665.513.275-.793-.692-.474.838.017Zm2.454 0 .236-.805.244.803.839-.024-.689.48.282.79-.669-.507-.664.513.275-.793-.693-.474.84.017Z"/><path fill="#059334" d="m18.455 14.663.236-.806.244.804.838-.024-.688.48.282.79-.669-.506-.665.512.275-.792-.693-.475.84.017Z"/><path fill="#F9D050" d="M16.79 10.732c.166-.137.32.08.347.213.026.134.186.32.346.32 0 0 .107-.32.187-.48.08-.16.293-.213.427-.16.134.054.374.027.347.267-.027.24-.107.347-.107.347s.48.026.694 0c.213-.027.454-.16.614-.08.159.08.4.106.48.053.08-.053.133-.213-.054-.187-.186.028-.346.028-.506.054-.16.026-.854.054-.854-.16 0-.213.266-.24.32-.213.054.027.454-.267.534-.133.08.133.08.293-.16.293s-.588-.053-.588.027.108.133.268.133c.159 0 .426-.107.612-.107.187 0 .454-.213.614-.08.16.134.293.32.16.4-.133.08-.614.107-.774.08 0 0 .187.107.348.134.16.027.48.08.454.24-.028.16.052.373-.16.346-.214-.026-.187-.133-.134-.213.054-.08-.08-.16-.32-.133-.239.026-.533-.107-.533-.107s-.08.213.027.267c0 0-.32.133-.507.16-.187.026-.373.106-.373 0 0-.107.133-.267.24-.214.106.054.292-.027.347-.027.053 0-.187-.16-.054-.213.133-.054-.106-.08-.24 0-.133.08-.933.293-1.2.4-.266.106-.507.08-.613.133-.107.053-.32-.08-.214-.213.107-.134.16-.214.24-.134.08.08.214.054.4 0 .187-.053-.106-.106-.159-.16-.053-.053-.267-.373-.267-.453-.003-.08-.483-.16-.19-.4Zm.988-2.013c-.16-.24-.64-.56-.64-.56l.453.134s-.213-.294-.453-.347c.053 0 .48.053.613.16 0 0-.374-.427-.56-.507 0 0 .454.134.614.294l-.187-.4s.347.16.453.373c0 0-.106-.427-.32-.64 0 0 .32.187.428.347l.079-.381.235.212.161-.296.188.306.323-.335s-.08.26-.106.5c0 0 .133-.216.426-.323 0 0-.373.572-.426.785 0 0 .533-.528.88-.661 0 0-.481.563-.614.777 0 0 .4-.346.773-.452 0 0-.48.507-.56.614 0 0 .267-.107.613-.08 0 0-.799.453-.986.613-.187.16-1.387-.133-1.387-.133Z"/><path fill="#fff" d="M17.399 9.896c-.288.053-.367.21-.341.367.026.158.21.288.393.21.183-.08.268-.118.341-.131.178-.033.42-.105.42-.105s.288.052.445 0c0 0 .288.13.524.026 0 0 .577.262.839.158.262-.105.048-.456-.079-.498-.236-.08-.812-.158-1.258-.184-.446-.026-1.284.157-1.284.157Z"/><path fill="#073163" d="M19.965 9.92a3.113 3.113 0 0 0-.437-.096s.037.148.063.308c.018.107.024.226.082.293a.574.574 0 0 0 .372 0c.266-.106.049-.463-.08-.506Zm-1.562-.183c.082.096.132.348.247.505.041.025.305.143.53.03.025-.045-.187-.515-.187-.515a6.529 6.529 0 0 0-.59-.02Zm-.574.598c.041.024.362-.07.362-.092-.004-.042-.04-.1-.092-.218a.851.851 0 0 0-.161-.235 9.98 9.98 0 0 0-.545.099c.112.19.236.326.436.446Z"/><path fill="#059334" d="M16.525 8.826s.08-.294.426-.294c.347 0 .187.213.587.24.4.027 1.814.213 2.027.32.213.107.48.08.613.053.133-.027.027.134-.106.214-.133.08-.4.026-.4.026s.293.267.373.454c.08.186 0 .266-.133.186-.133-.08-.293.08-.32-.026-.027-.107-.293-.48-.293-.48s-.774-.107-.987.08c-.213.186-.475.256-.907.213-.266-.027-.426-.16-.372-.32a.358.358 0 0 1 .186-.213s-.027-.32-.133-.24c-.107.08-.347.026-.374-.027-.027-.053-.187-.186-.187-.186Z"/><path fill="#059334" d="M17.377 8.72c.115-.07.667-.32 1.094-.294.427.027.694.133.986.293.294.16.267.294.428.347.16.053.08.133 0 .213-.08.08-.348.534-1.201.507-.853-.027-.933-.267-1.067-.373-.133-.107-.213-.374-.213-.454 0-.08-.16-.16-.027-.24Z"/><path fill="#00493D" d="M18.978 9.52c.29-.08.681-.185.872-.469-.123-.06-.123-.185-.392-.332a2.15 2.15 0 0 0-.986-.293c-.301-.02-.666.1-.894.197-.013.189-.013.416-.013.416s.24.134.427.294c.186.16.692.266.986.186Z"/><path fill="#00247D" d="M12.667 12V3.333h-10c-.214 0-.403.03-.403.03l-.003 1.17-1.82-.003s-.028.04-.084.137A2.659 2.659 0 0 0 0 6v6h12.667Z"/><path fill="#EEE" d="M12.667 3.333h-1.554L8 5.513v-2.18H4.667v1.713L2.264 3.363a2.63 2.63 0 0 0-1.115.444L4.284 6H3.127L.645 4.26a2.81 2.81 0 0 0-.204.27L2.542 6H0v3.333h2.59L0 11.177V12h2.221l2.446-1.712V12H8V9.82L11.112 12h1.555v-1.353L10.79 9.333h1.877V6H10.79l1.876-1.314V3.333Z"/><path fill="#CF1B2B" d="M7.333 3.333h-2v3.334H0v2h5.333V12h2V8.667h5.334v-2H7.333V3.333Z"/><path fill="#CF1B2B" d="M12.667 3.333h-.974L8 5.92V6h1.047l3.62-2.534v-.132Zm-11.518.474c-.187.13-.356.282-.504.454L3.127 6h1.156L1.15 3.807Zm3.142 5.526L.49 12h1.152l3.025-2.12v-.548H4.29Zm8.376 2.535v-.813l-2.458-1.722H9.047l3.62 2.535Z"/></svg>