<svg xmlns="http://www.w3.org/2000/svg" width="24" height="25" fill="none" viewBox="0 0 24 25"><path fill="#FFCC4D" d="M24 18.667a2.667 2.667 0 0 1-2.667 2.666H2.667A2.667 2.667 0 0 1 0 18.667v-12A2.667 2.667 0 0 1 2.667 4h18.666A2.667 2.667 0 0 1 24 6.667v12Z"/><path fill="#DD2E44" d="M23.333 18.667a2 2 0 0 1-2 2H2.667a2 2 0 0 1-2-2v-12a2 2 0 0 1 2-2h18.666a2 2 0 0 1 2 2v12Z"/><path fill="#FFCC4D" d="M15.257 12.267c.402-1.606-.903-3.028-.903-3.028l-.342 1.668-.703.926.292.52-.292.161-.691-.958.256-.58.89-.459-.985-.326-.598.696-.181.768-.228-.768-.645-.696-.926.211.776.517.31.637-.636.989-.347-.193.292-.52-.703-.926-.342-1.667s-1.304 1.421-.902 3.028c.402 1.606 2.134 1.831 2.134 1.831l-1.102.745-.644.052-.11.708.584.271.513-.563 1.279-.468-.73 1.062 1.427.762 1.38-.76-.713-1.006v-.042l1.226.454.508.563.581-.271-.112-.708-.646-.052-1.101-.745c0-.001 1.731-.227 2.134-1.833Z"/><path fill="#5C913B" d="M12 13.667v.864s-.12-.18-.5-.292c-.5-.146-.583-.572-.583-.572H12Zm.001 0v.864s.121-.18.5-.292c.5-.146.584-.572.584-.572H12Z"/><path fill="#269" d="M11.156 11.865s.49.198.844.02v1.698h-1.083s-.042-.364.104-.844c.091-.299-.084-.54-.084-.54l.219-.334Zm1.69 0s-.49.198-.845.02v1.698h1.084s.041-.364-.104-.844c-.092-.299.083-.54.083-.54l-.219-.334Zm2.54 2.916a.531.531 0 1 1-1.063.001.531.531 0 0 1 1.062 0Z"/><path fill="#FFCC4D" d="M12.687 10.015c0 .147-.291.266-.651.266-.36 0-.651-.119-.651-.266 0-.146.291-.265.651-.265.36 0 .651.119.651.265Z"/><path fill="#FFCC4D" d="M12.02 8.834c-.563 0-1.02.263-1.02.588 0 .325.457.589 1.02.589.565 0 1.021-.263 1.021-.589 0-.325-.456-.588-1.02-.588Zm-.718.835c-.125-.055-.125-.2-.104-.305.02-.104.198-.208.198-.208s-.12.253-.019.36c.102.11.05.207-.075.153Zm.43-.009c-.045-.014-.05-.064-.079-.149-.028-.084-.06-.146-.039-.25.02-.105.28-.192.28-.192s-.072.212-.051.316c.02.104.104.215.104.215s-.169.074-.214.06Zm.645-.149c-.028.085-.034.135-.079.15-.045.013-.215-.06-.215-.06s.084-.11.104-.215c.021-.104-.052-.316-.052-.316s.26.087.281.191c.021.104-.01.167-.039.25Zm.352.158c-.125.054-.177-.044-.075-.152s-.019-.36-.019-.36.178.103.198.207c.021.105.021.25-.104.305Zm2.654 5.17a.136.136 0 0 1-.164.098l-.736-.191a.135.135 0 1 1 .067-.263l.736.191a.133.133 0 0 1 .097.165Z"/><path fill="#FFCC4D" d="M14.997 14.754a.119.119 0 0 1-.146.086.119.119 0 0 1-.086-.147l.165-.754a.12.12 0 0 1 .146-.085.119.119 0 0 1 .085.146l-.164.754Zm-5.107 1.83c-.04.015-.11-.069-.157-.186l-1.296-3.294c-.047-.118-.052-.227-.012-.243l.066-.026c.04-.015.209.029.256.146l1.296 3.294c.047.118-.047.266-.087.282l-.066.026Zm1.566-3.752h1.087v.751h-1.087v-.751Z"/></svg>