<svg xmlns="http://www.w3.org/2000/svg" width="24" height="25" fill="none" viewBox="0 0 24 25"><path fill="#EA2839" d="M0 18.556a2.667 2.667 0 0 0 2.667 2.666h18.666A2.667 2.667 0 0 0 24 18.556v-2.667H0v2.667Z"/><path fill="#34B232" d="M0 9.222h24v6.667H0V9.222Z"/><path fill="#FECB01" d="M21.333 3.889H2.667A2.667 2.667 0 0 0 0 6.556v2.666h24V6.556a2.667 2.667 0 0 0-2.667-2.667Z"/><path fill="#fff" d="m12 6.396 1.569 4.826h5.075l-4.106 2.89 1.568 4.778L12 15.884l-4.106 2.972 1.569-4.738-4.106-2.896h5.075L12 6.396Z"/></svg>