<svg xmlns="http://www.w3.org/2000/svg" width="24" height="25" fill="none" viewBox="0 0 24 25"><path fill="#006847" d="M2.667 3.667A2.667 2.667 0 0 0 0 6.332v12A2.667 2.667 0 0 0 2.667 21h4.666V3.666H2.667Z"/><path fill="#CE1126" d="M21.333 3.667h-4.666V21h4.666A2.667 2.667 0 0 0 24 18.333v-12a2.667 2.667 0 0 0-2.667-2.667Z"/><path fill="#EEE" d="M7.333 3.667h9.334V21H7.333V3.666Z"/><path fill="#A6D388" d="M15.333 12.333a3.333 3.333 0 1 1-6.666 0H8a4 4 0 0 0 8 0h-.667Z"/><path fill="#5C913B" d="M9.029 13.846a.332.332 0 0 0-.449-.145.334.334 0 0 0-.146.448c.06.118.126.234.197.344v.001l.003.004.005.008.002.005.001.001.003.003v.001l.002.003v.002l.002.003v.001l.002.004.001.001.002.003.001.002.002.002v.002l.002.003h.001l.001.003.002.004.001.001.002.003v.002l.005.006v.001l.004.005c.034.052.07.101.107.151a.332.332 0 0 0 .465.067.332.332 0 0 0 .068-.466 3.974 3.974 0 0 1-.286-.473Zm-.332-1.055a3.523 3.523 0 0 1-.03-.555.333.333 0 0 0-.324-.343l-.024.001a.333.333 0 0 0-.318.323c-.002.07-.002.138-.001.208v.082l.001.002v.024l.001.002v.02l.001.006v.007c.006.107.017.213.031.318a.333.333 0 0 0 .375.283.335.335 0 0 0 .288-.378Zm3.53 2.867h-.004l-.083.006a3.39 3.39 0 0 1-.473-.014.334.334 0 0 0-.067.663l.083.008h.008l.004.001h.016l.004.001.003.001h.021c.102.007.204.01.306.009h.026l.005-.001h.052l.004-.001h.013l.004-.001h.019l.003-.001h.012l.084-.005a.33.33 0 0 0 .302-.35.328.328 0 0 0-.342-.316Zm-1.626-.299a3.375 3.375 0 0 1-.483-.274.33.33 0 0 0-.202-.058.333.333 0 0 0-.175.607v.001l.004.002.004.004.004.003.004.003c.178.121.366.227.562.318a.332.332 0 0 0 .442-.162.332.332 0 0 0-.16-.444Zm3.353-.265a.331.331 0 0 0-.165.053 3.419 3.419 0 0 1-.49.258.332.332 0 0 0 .142.64.352.352 0 0 0 .116-.025l.089-.04h.001l.004-.003h.002l.002-.002h.003l.003-.001.001-.001.004-.001.001-.001.002-.002.004-.001h.002l.003-.002h.001l.004-.002h.001l.003-.003h.002l.004-.002h.001l.004-.002.004-.002.001-.001.004-.002h.001l.004-.003.005-.001.005-.003h.001l.003-.002h.001l.004-.003.006-.001.004-.003.005-.003.01-.004.005-.002.009-.006.005-.002.004-.002h.001l.01-.005.003-.002h.001l.015-.008.004-.001.01-.006.004-.002h.001c0-.001.002-.002.005-.002a.008.008 0 0 1 .004-.003l.005-.003.004-.002.01-.004.005-.003.004-.003.005-.002.004-.002h.001l.004-.003.005-.003.005-.002v-.001l.004-.001.001-.001.003-.002h.002l.003-.003h.001l.004-.002.001-.001.004-.001v-.001l.005-.002h.001l.003-.003h.001l.004-.002.001-.001.003-.002h.002l.003-.002.002-.001.002-.002.002-.001.002-.001.002-.002.004-.001h.002l.002-.002.002-.001.003-.002.001-.001.003-.001.003-.002.002-.002h.003l.001-.002.003-.001.002-.001.002-.002.003-.001.002-.002h.002c.001-.001.004-.001.005-.003-.001 0-.001 0 0 0l.003-.002.004-.003H14l.004-.003.008-.004.006-.004a.062.062 0 0 1 .013-.007c.043-.025.086-.051.127-.078a.333.333 0 0 0 .102-.46.37.37 0 0 0-.305-.15Zm1.714-3.079-.016.001a.333.333 0 0 0-.32.332c0 .185-.016.371-.047.553a.334.334 0 1 0 .658.112v-.005l.001-.001v-.008l.001-.001v-.006c.002 0 .002-.002.002-.003v-.004c.014-.086.026-.172.034-.26v-.003l.001-.003v-.008l.001-.002V12.7l.002-.001-.002-.002v-.003c.002 0 .002-.001.002-.002v-.012l.001-.002v-.001c.009-.109.014-.219.014-.33a.334.334 0 0 0-.332-.333Zm-.295 1.798a.334.334 0 0 0-.454.13 3.173 3.173 0 0 1-.308.462.333.333 0 0 0 .522.414 4.417 4.417 0 0 0 .227-.316v-.001l.003-.004.003-.005.003-.004.003-.004a.007.007 0 0 0 .002-.005h.001l.003-.005.002-.004.003-.004.001-.002.001-.003.002-.001.002-.004h.001l.001-.004.001-.001.003-.003v-.001l.002-.003.001-.002.003-.002.001-.002v-.003l.002-.001.002-.004v-.001l.003-.004.001-.001.001-.003.002-.002.001-.002.001-.002.002-.003.001-.002.001-.002.002-.002.001-.002.001-.003.002-.002.002-.003.002-.002v-.002l.001-.002.002-.003.002-.002v-.002l.003-.003v-.002l.002-.003.001-.001.001-.002.002-.004.002-.002v-.001l.002-.003c0-.001 0-.002.002-.002v-.002l.002-.003.002-.003.001-.002.001-.002c0-.001 0-.002.002-.002l.001-.003.001-.001.002-.004.001-.001.001-.003.002-.001.001-.003.001-.002.002-.004v-.001l.002-.003.001-.002.003-.003.002-.005.001-.001.001-.004.004-.004.002-.004.002-.005.002-.001.016-.031a.332.332 0 0 0-.132-.448Z"/><path fill="#55ACEE" d="M12 15c1.105 0 2-.299 2-.667 0-.368-.895-.667-2-.667s-2 .299-2 .667c0 .368.895.667 2 .667Z"/><path fill="#FFCC4D" d="M12.333 15c.553 0 1-.299 1-.667 0-.368-.447-.667-1-.667-.552 0-1 .299-1 .667 0 .368.448.667 1 .667Z"/><path fill="#5C913B" d="M12.745 14.516a.333.333 0 0 1-.293-.493c.106-.196.218-.374.334-.53a6.669 6.669 0 0 1-.287.006c-.184 0-.352-.15-.352-.334 0-.184.13-.333.315-.333h.055c.197 0 .4-.011.581-.028a.327.327 0 0 1 .273.104 1.609 1.609 0 0 1 .215-.128.326.326 0 0 1 .141-.063l.024-.004a.837.837 0 0 1 .249-.046.332.332 0 0 1 .318.431c-.055.177-.177.217-.39.26a.8.8 0 0 0-.16.085.338.338 0 0 1-.399-.022.333.333 0 0 1-.001.409 3.664 3.664 0 0 0-.33.512.332.332 0 0 1-.293.174Zm-.947-1.06a.33.33 0 0 1-.044-.002 4.656 4.656 0 0 1-.704-.147.333.333 0 0 1-.225-.415l.004-.013-.008.015a.333.333 0 0 1-.454.128 2.753 2.753 0 0 1-.604-.454.334.334 0 0 1 .471-.471c.131.131.285.246.459.343.142.08.204.25.152.398a.334.334 0 0 1 .394-.17c.184.054.386.096.6.125a.333.333 0 0 1-.041.664Zm-1.635-1.559c-.284 0-.651-.11-.874-.372-.341-.403-.542-.92-.511-1.316.008-.106-.095-.191-.197-.218-.058-.015-.16-.024-.208.079a.167.167 0 0 1-.303-.14c.105-.226.338-.327.595-.261.239.062.468.276.445.566-.024.308.15.74.433 1.074.149.176.408.247.584.254.143.007.216-.026.231-.04-.037-.088-.531-.348-.742-.459-.18-.094-.233-.223-.246-.315-.045-.303.267-.61.568-.906.106-.105.207-.204.261-.276.062-.082.052-.137.04-.171-.046-.125-.245-.248-.485-.301-.222-.05-.372-.157-.445-.32-.097-.214-.046-.494.156-.856a.166.166 0 1 1 .291.162c-.19.341-.171.496-.143.558.028.061.099.104.213.13.282.062.621.23.725.51.06.162.03.335-.085.488-.07.092-.179.2-.294.314-.172.169-.493.484-.472.62.004.028.04.053.071.068.501.263.834.453.902.686a.304.304 0 0 1-.028.239c-.065.113-.2.182-.39.2a.989.989 0 0 1-.092.003Z"/><path fill="#FFCC4D" d="M13 13c.184 0 .333-.299.333-.667 0-.368-.149-.667-.333-.667-.184 0-.333.299-.333.667 0 .368.149.667.333.667Zm-1.472-1.208c0 .192-.23.347-.514.347-.283 0-.514-.155-.514-.347 0-.192.23-.347.514-.347.283 0 .514.155.514.347Zm-.791-3.085c.033.142-.152.307-.413.369s-.5-.003-.534-.144c-.033-.142.151-.307.412-.37.262-.06.501.003.535.145Z"/><path fill="#C1694F" d="M15.022 12.303c.06.047.162-.486.147-.652 0-.011-.02-.364.055-.616.046-.085.049-.722-.022-.889.056-.005.123-.023.131-.09-.258.095-.319-.545-.568-.913-.241-.369-.54-.584-.853-.808a.653.653 0 0 1 .108-.18c-.383.192-.98-.503-1.863-.451-.198.02-.292.031-.343.153-.165.013-.332.05-.332.267 0 .052.047.147.153.147.144.042.261.01.359.211l.026.208s-.129-.165-.2-.19l.044-.09c-.067-.038-.185-.007-.185-.007s-.256-.12-.462-.088l-.04-.166c-.036.102-.117.097-.128.194-.023-.07-.053-.156-.074-.225-.073.099-.052.205-.078.308-.028.024-.085.025-.1-.041-.007-.082-.017-.089-.017-.186-.052.092-.115.136-.135.293l-.056-.173c.002.204-.174.326-.34.471-.048.087.007.087.011.132l.088.044.158-.011c.026.032.005.035.073.056.184.051.414-.17.594.178-.083.069-.166.231-.14.262.034 0-.066.046.068.004a1.17 1.17 0 0 0-.234.326c-.016.038.056-.006.041.064l.033-.004c-.319.346-.01.717-.044.916.053.086.06-.002.126-.01.056.245.218.394.316.588l-.208.002c.005.092.088.179.154.26l-.139.044a.753.753 0 0 0-.235.182c-.046.112.222.139.352.159l-.005.135c.202.02.435-.04.435-.052l.051-.039.114.063c.038 0 .097-.152.07-.269.073.087.143.228.216.316l.069-.01c.062.1.148.199.211.298l.07.027c.04-.014.075-.019.097-.099l.032.056.111-.076.077-.015.058.094c.034-.012.068-.086.07-.165.034.069.044.063.069.081l.051-.108.277.259.21.012c.074.05.279.083.313 0 .168.073.366-.009.356-.089a.71.71 0 0 0 .393.01c.029-.003.102-.075.033-.129-.512-.356-1.27-.945-1.562-1.087 0-.106-.08-.485-.165-.589l.07-.116c.199.186.27.168.377.197.113.09.152.227.266.352l.101.018a1.721 1.721 0 0 0-.37-.582c.11.055.291.201.413.307.08.134.103.24.176.409.054.034.108.158.101.055-.013-.194-.15-.501-.15-.523.218.172.215.44.281.603.056.083.084.193.108.167l-.064-.504-.038-.184c.161.092.218.446.294.87 0 .067.027.141.023.184.035.043.074.161.073.091 0 0 0-.69-.047-.847-.012-.085.02-.222.02-.222l.18.881v.21l.089.089c.016-.174.036-.346.054-.518l-.066-.616v-.176c-.002-.062.056-.051.093.02.009.151.009.269.015.42.026.172.044.298.056.517.008.177.016.603.053.595Z"/></svg>