<svg xmlns="http://www.w3.org/2000/svg" width="16" height="12" fill="none" viewBox="0 0 16 12"><g clip-path="url(#a)"><mask id="b" width="16" height="12" x="0" y="0" maskUnits="userSpaceOnUse" style="mask-type:alpha"><path fill="#fff" d="M0 0h16v12H0z"/></mask><g mask="url(#b)"><path fill="#F7FCFF" fill-rule="evenodd" d="M0 0v12h16V0H0Z" clip-rule="evenodd"/><mask id="c" width="16" height="12" x="0" y="0" maskUnits="userSpaceOnUse" style="mask-type:alpha"><path fill="#fff" fill-rule="evenodd" d="M0 0v12h16V0H0Z" clip-rule="evenodd"/></mask><g mask="url(#c)"><path fill="#FECA00" fill-rule="evenodd" d="M0 0v4h16V0H0Z" clip-rule="evenodd"/><path fill="#093" fill-rule="evenodd" d="M0 8v4h16V8H0Z" clip-rule="evenodd"/><path fill="#272727" stroke="#fff" d="M0 3.5h-.5v5h17v-5H0Z"/></g><path fill="#F50100" fill-rule="evenodd" d="M0 0v12l9-6-9-6Z" clip-rule="evenodd"/><mask id="d" width="9" height="12" x="0" y="0" maskUnits="userSpaceOnUse" style="mask-type:alpha"><path fill="#fff" fill-rule="evenodd" d="M0 0v12l9-6-9-6Z" clip-rule="evenodd"/></mask><g mask="url(#d)"><path fill="#FECA00" fill-rule="evenodd" d="m4.034 7.177-1.89 1.525.868-2.038-1.49-1.435H3.28L4.002 3.5l.766 1.73h1.754L4.955 6.663l.784 2.038-1.705-1.525Z" clip-rule="evenodd"/><path fill="#F7FCFF" fill-rule="evenodd" d="m3.078 5.992-.32 1.07s1.081-.01 1.211.099c.392-.244 1.198-.099 1.198-.099l-.429-1.145s-.543-.246-.769-.111c-.552-.125-.891.186-.891.186Z" clip-rule="evenodd"/><path fill="#000" d="M5.782 7.608a.25.25 0 0 1-.4.3l-2.09-2.775a.25.25 0 1 1 .4-.3l2.09 2.775Z"/><path stroke="#000" stroke-linecap="round" stroke-linejoin="round" stroke-width=".5" d="m3.487 4.92-.2-.24"/><path fill="#000" fill-rule="evenodd" d="m2.802 4.681-.604.968.302.523.691-1.027.125-.318-.125-.146h-.389ZM2.02 7.554l.464.54L5.998 4.02l-1.597.996L2.02 7.554Z" clip-rule="evenodd"/></g></g></g><defs><clipPath id="a"><rect width="16" height="12" fill="#fff" rx="1"/></clipPath></defs></svg>