<svg xmlns="http://www.w3.org/2000/svg" width="16" height="12" fill="none" viewBox="0 0 16 12"><g clip-path="url(#a)"><mask id="b" width="16" height="12" x="0" y="0" maskUnits="userSpaceOnUse" style="mask-type:luminance"><path fill="#fff" d="M0 0h16v12H0z"/></mask><g mask="url(#b)"><path fill="#F7FCFF" fill-rule="evenodd" d="M0 0v12h16V0H0Z" clip-rule="evenodd"/><mask id="c" width="16" height="12" x="0" y="0" maskUnits="userSpaceOnUse" style="mask-type:luminance"><path fill="#fff" fill-rule="evenodd" d="M0 0v12h16V0H0Z" clip-rule="evenodd"/></mask><g mask="url(#c)"><path fill="#272727" fill-rule="evenodd" d="M6 6a2 2 0 1 0 4 0 2 2 0 0 0-4 0Zm3.5 0a1.5 1.5 0 1 1-3 0 1.5 1.5 0 0 1 3 0Z" clip-rule="evenodd"/><path fill="#F05234" fill-rule="evenodd" d="M0 0v4h16V0H0Z" clip-rule="evenodd"/><path fill="#3D58DB" fill-rule="evenodd" d="M0 8v4h16V8H0Z" clip-rule="evenodd"/><path fill="#73BE4A" d="m7.289 4.928.285.411c-.285.197-.37.47-.262.875.107.398.343.584.76.599l-.018.5c-.636-.023-1.061-.359-1.225-.97-.16-.6-.006-1.092.46-1.415Z"/><path fill="#73BE4A" d="m8.712 4.928-.284.411c.284.197.37.47.261.875-.106.398-.342.584-.76.599l.018.5c.636-.023 1.061-.359 1.225-.97.161-.6.007-1.092-.46-1.415Z"/><path fill="#FBCD17" fill-rule="evenodd" d="M8.001 6.374a.5.5 0 1 0 0-1 .5.5 0 0 0 0 1Z" clip-rule="evenodd"/></g></g></g><defs><clipPath id="a"><rect width="16" height="12" fill="#fff" rx="1"/></clipPath></defs></svg>