<svg xmlns="http://www.w3.org/2000/svg" width="16" height="12" fill="none" viewBox="0 0 16 12"><g clip-path="url(#a)"><mask id="b" width="16" height="12" x="0" y="0" maskUnits="userSpaceOnUse" style="mask-type:alpha"><path fill="#fff" d="M0 0h16v12H0z"/></mask><g mask="url(#b)"><path fill="#E31D1C" fill-rule="evenodd" d="M0 0h16v12H0V0Z" clip-rule="evenodd"/><path fill="#F7FCFF" fill-rule="evenodd" d="M0 1v1h16V1H0Zm0 2v1h16V3H0Zm0 3V5h16v1H0Zm0 1v1h16V7H0Zm0 3V9h16v1H0Zm0 2v-1h16v1H0Z" clip-rule="evenodd"/><path fill="#2E42A5" d="M0 0h9v7H0z"/><path fill="#F7FCFF" fill-rule="evenodd" d="m1.04 2.174.53-.37.411.297h-.233l.47.416-.158.584h-.249l-.242-.537-.206.537H.748l.47.416-.178.657.53-.37.411.297h-.233l.47.416-.158.584h-.249l-.242-.537-.206.537H.748l.47.416-.178.657.53-.37.513.37-.16-.657.412-.416h-.19l.425-.296.411.296h-.233l.47.416-.178.657.53-.37.513.37-.16-.657.412-.416h-.19l.425-.296.411.296h-.233l.47.416-.178.657.53-.37.513.37-.16-.657.412-.416h-.19l.425-.296.411.296h-.233l.47.416-.178.657.53-.37.513.37-.16-.657.412-.416h-.524l-.242-.537-.206.537h-.298l-.142-.584.412-.416h-.19l.425-.296.513.369-.16-.657.412-.416h-.524l-.242-.537-.206.537h-.298l-.142-.584.412-.416h-.19l.425-.296.513.369-.16-.657.412-.416h-.524L7.569.564l-.206.537h-.615l.47.416-.158.584h-.249l-.242-.537-.206.537h-.298l-.142-.584.412-.416h-.524L5.569.564l-.206.537h-.615l.47.416-.158.584h-.249l-.242-.537-.206.537h-.298l-.142-.584.412-.416h-.524L3.569.564l-.206.537h-.615l.47.416-.158.584h-.249l-.242-.537-.206.537h-.298l-.142-.584.412-.416h-.524L1.569.564l-.206.537H.748l.47.416-.178.657ZM7.06 4.1l.159-.584-.47-.416h.232l-.411-.296-.425.296h.19l-.412.416.142.584h.298l.206-.537.242.537h.249Zm-1.079 0-.411-.296-.425.296h.19l-.412.416.142.584h.298l.206-.537.242.537h.249l.159-.584-.47-.416h.232Zm-1.762.416-.16.584h-.248l-.242-.537-.206.537h-.298l-.142-.584.412-.416h-.19l.425-.296.411.296h-.233l.47.416Zm.144-.416h-.298l-.142-.584.412-.416h-.19l.425-.296.411.296h-.233l.47.416-.158.584h-.249l-.242-.537-.206.537Zm-1.303 0 .159-.584-.47-.416h.232l-.411-.296-.425.296h.19l-.412.416.142.584h.298l.206-.537.242.537h.249Zm3.159-1.584-.16.584h-.248l-.242-.537-.206.537h-.298l-.142-.584.412-.416h-.19l.425-.296.411.296h-.233l.47.416ZM3.98 2.1l-.411-.296-.425.296h.19l-.412.416.142.584h.298l.206-.537.242.537h.249l.159-.584-.47-.416h.232Z" clip-rule="evenodd"/></g></g><defs><clipPath id="a"><rect width="16" height="12" fill="#fff" rx="1"/></clipPath></defs></svg>