<svg xmlns="http://www.w3.org/2000/svg" width="24" height="25" fill="none" viewBox="0 0 24 25"><path fill="#244AA5" d="M24 18.333A2.667 2.667 0 0 1 21.333 21H2.667A2.667 2.667 0 0 1 0 18.333v-12a2.667 2.667 0 0 1 2.667-2.667h18.666A2.667 2.667 0 0 1 24 6.333v12Z"/><path fill="#D0A650" d="m11.342 9.464.14-.003c.081.085.166.168.25.252-.001.064.025.111.09.13-.057.016-.117.02-.176.027a.262.262 0 0 1-.09.078c.01.095.097.15.156.214.063.006.132.005.18.053l.137.003.001.179c.057-.006.128.004.145-.067h.3c.026.056.088.06.138.083l.024.124c.05-.066.098-.149.191-.152l.089.119c.052.004.106.01.13.066l.092.003c0 .112-.008.224.007.334l.055.034c.001.089.001.178 0 .267.056.047.15.09.199.008h.08c.033.05.075.093.125.125.002.088 0 .175.002.262.116.042.041.2.064.294.058.04.105.092.132.159.016-.03.034-.06.051-.089l.2.004c.03.036.06.07.093.106l.055.059a.31.31 0 0 1 .13.058l.119.007c.031.072.112.062.176.075l-.088.065c-.002.146.011.293-.006.438l-.054.03a.32.32 0 0 1-.064.208l.123-.002.005.068h.057a.873.873 0 0 1 .007-.068h.106l.004.066c.064.012.156-.024.192.05.164.003.328.002.493 0l.007.088.075.088c.055 0 .11 0 .167.002l-.006.097c.051.045.107.086.178.086l.002-.122.108.001.008-.067c.078.005.18-.02.198.085l.064-.096c.052.016.095.05.138.082l.001.089c.09.019.055.116.063.18l-.114.09-.001.277-.11.002v.316c-.065.052-.122.109-.18.164v.194l-.126.106v.082a.294.294 0 0 1-.157.08 4.066 4.066 0 0 0-.085.103l-.078.02.097.058c-.002.127-.003.254-.002.38-.076.065-.177.061-.27.06l-.099.12c-.07 0-.12.047-.163.095.002.061.003.122.006.182.106.056.148.212.285.207.001.1.02.217-.077.283-.042-.002-.087-.002-.128-.002-.067.096-.212.031-.312.048v-.111l-.092-.003a3.744 3.744 0 0 1-.096.108.297.297 0 0 0-.142.067c-.066.005-.132.003-.198.003l-.005.068-.149-.003a.238.238 0 0 0-.079.151l-.103.088c.003.072.004.149-.071.182.015.08-.044.222.07.244l-.003.088c-.155.006-.31.003-.465.004l-.003-.157c-.112-.032-.042-.176-.062-.26l-.067-.003.001-.104c-.05-.006-.109.002-.13-.055h-.091l-.008-.126h-.283a2.055 2.055 0 0 0-.006.087 2.19 2.19 0 0 0-.08.088l-.143.001-.075.11c-.069 0-.14.001-.21.004a.663.663 0 0 1-.081.082l-.003.088c-.054.005-.113.006-.128.07h-.138c-.03.037-.058.074-.086.112h-.256c-.04.1-.161.051-.242.066a.475.475 0 0 1-.127.123 6.809 6.809 0 0 0-.002.164l-.067.004-.002.159-.114.09c.004.143.004.284.001.427l.114.091v.375a2.049 2.049 0 0 0-.078.078l-.097.002-.002.099-.076.074-.311.001c-.047.061-.097.12-.147.178l-.208-.001a.305.305 0 0 0-.058-.15c-.005-.139-.002-.277-.002-.415.057-.056.114-.114.174-.168v-.181l-.058-.033c-.012-.187 0-.376-.004-.566H10.3c-.009-.058.002-.134-.077-.14 0-.142 0-.284.002-.426l-.104-.089c-.009-.055-.009-.117-.072-.138l-.002-.122c-.075-.033-.062-.153.017-.17-.066-.057-.127-.12-.19-.18l-.002-.077c-.073-.014-.139-.05-.21-.069-.02-.05-.07-.055-.118-.057l-.046-.051a.184.184 0 0 1-.113-.055l-.082-.002c-.026-.111-.078-.215-.064-.333a.928.928 0 0 1-.08-.082c-.144-.006-.288.002-.431-.003a.117.117 0 0 1-.093-.037 1.911 1.911 0 0 0-.1-.094c-.002-.096.004-.192-.004-.287-.025-.067-.067-.124-.106-.182l-.003-.087-.064-.01v-.09c-.069-.04-.04-.128-.051-.194l-.172-.004v-.089l-.086-.081-.093-.006-.002-.09c-.053-.034-.067-.089-.065-.148l.116-.005c0-.105.002-.211-.004-.317-.034-.066-.064-.137-.119-.188l-.055-.068-.082-.007-.076-.076-.001-.13c-.088-.018-.055-.114-.067-.179-.106-.07-.012-.198.018-.285a.915.915 0 0 1 .064-.07 1.19 1.19 0 0 0 .107-.128h.153l.09.116.102-.006v.118c.191 0 .382-.001.574.002.005-.056-.005-.125.066-.137.002-.11.002-.219.005-.328.067-.005.143.008.193-.05l.091-.005v-.178c.092 0 .185.005.277-.004l.032-.066c.062-.004.1.029.116.087a2.98 2.98 0 0 1 .104-.12.263.263 0 0 0 .151-.086c.06-.05.137-.075.206-.114l-.067-.067c-.003-.082-.058-.139-.122-.182a7.34 7.34 0 0 1 0-.242c.048-.044.096-.09.142-.137h.124c.074-.1.166-.186.263-.263v-.092l.096.002c.01.059.06.064.108.066a.555.555 0 0 1 .08-.088l.006-.074c.09-.06.029-.195.049-.287.044-.044.108-.079.128-.142-.018-.063-.082-.096-.125-.14.032-.148-.105-.214-.18-.313l-.103-.012c-.012-.049-.007-.11-.056-.141a5.608 5.608 0 0 1-.002-.21c.149-.003.298.01.446-.006l.03-.05c.063-.04.132-.068.189-.117.062-.002.124-.002.186-.002l.09-.114.101.004a.99.99 0 0 0 .009-.061Z"/><path fill="#EDEDED" d="m18.68 6.475-.256.787-.815-.009.669.488-.26.772.669-.486.654.486-.254-.787.664-.473h-.828l-.242-.778Zm-2.67-.72-.257.787-.817-.009.67.486-.26.774.67-.486.655.486-.256-.788.666-.472h-.828l-.244-.778Zm-2.673-.352-.257.787-.816-.008.67.486-.26.773.669-.486.655.486-.255-.788.665-.472h-.828l-.243-.778ZM5.319 6.475l.256.787.816-.009-.67.487.26.773-.669-.486-.655.486.256-.788-.666-.472h.828l.244-.778Zm2.672-.72.256.787.816-.009-.669.486.26.774-.67-.486-.655.486.256-.788-.665-.472h.827l.244-.778Zm2.673-.352.256.787.816-.008-.67.486.26.773-.669-.486-.655.486.256-.788-.665-.472h.828l.243-.778Z"/></svg>