<svg xmlns="http://www.w3.org/2000/svg" width="24" height="25" fill="none" viewBox="0 0 24 25"><path fill="#1A8A00" d="M21.333 3.555H2.667A2.667 2.667 0 0 0 0 6.222v12a2.667 2.667 0 0 0 2.667 2.667h18.666A2.667 2.667 0 0 0 24 18.222v-12a2.667 2.667 0 0 0-2.667-2.667Z"/><path fill="#EF7D00" d="M20.667 20.889h.666A2.667 2.667 0 0 0 24 18.222v-8h-3.333V20.89Z"/><path fill="#141414" d="M17.333 10.222h3.334V20.89h-3.334V10.222Z"/><path fill="#DE200F" d="M14 10.222h3.333V20.89H14V10.222Z"/><path fill="#EF7D00" d="M23.389 5.726c-.073-.014-.478.217-.478.217s.376-.433.29-.433c-.087 0-.578.23-.578.23s.304-.375.202-.332c-.101.044-.65.289-1.069.464.059-.1.043-.248 0-.248s-.29.159-.665.246c-.376.087-.938.405-1.184.362-.246-.044-.737 0-.737 0s-.144-.217-.029-.275c.115-.058.203.087.203.087s.203-.087.203-.21c0-.122-.348-.137-.348-.137s-.145-.187-.375-.187c-.607 0-.65.65-.65.65s-.247-.087-.477-.145c-.232-.058-.636-.029-1.04-.275-.404-.246-.665-.332-.174.188-.723-.246-1.098-.736-1.2-.524-.101.214.275.466.275.466s-.203-.057-.375-.216c-.174-.16-.42-.26-.188.086-.303-.086-.086.232-.086.232s-.246.072 0 .245c.245.173.693.246.693.246s-.203.144-.073.202c.13.058.348.015.348.015s-.174.144 0 .202c.173.058.39 0 .39 0s-.072.144.1.209c.174.065.449-.08.449-.08s-.13.087 0 .16c.13.071.332-.08.332-.08s-.115.195 0 .224c.115.029.303-.115.303-.115s-.115.187 0 .202c.116.014.376-.13.376-.13s-.159.202 0 .202.347-.101.347-.101-.043.159.087.217c.13.058.317-.102.317-.102s.044.304.015.477c-.029.173.187.043.187.043s-.03.26-.203.246c-.173-.014-.347.217-.288.275.058.058.288-.043.288-.043s-.014.318.072.29c.087-.026.232-.204.232-.204s.086.232.145.203c.058-.03.087-.159.087-.231 0-.073.158-.102.158-.102s.043.289.101.233c.059-.057.072-.247.159-.305.086-.057.058.332.144.304.088-.03.044-.29.015-.376-.029-.087.174.072.16 0-.015-.073-.175-.217-.175-.217s.202.073.145 0c-.057-.073-.087-.26 0-.22.087.041.16-.127.16-.127s.23.174.374.116c.144-.058-.187-.26-.187-.26s.506.173.617.144c.112-.03-.17-.216-.17-.216s.318.072.376 0c.057-.073-.207-.13-.207-.13s.35.058.394 0c.044-.058-.1-.13-.1-.13s.577-.014.693-.217c.578.015 1.213-.447 1.271-.549.058-.101-.1-.101-.1-.101s.347-.275.303-.318c-.043-.043-.231.057-.231.057s.448-.39.376-.404Zm-4.291 2.485c-.187 0-.059-.1-.088-.202-.03-.101.101-.014.087-.101-.016-.087 0-.506 0-.506.144.145.216.333.202.477-.014.145.072.159.101.231.03.073-.115.1-.302.1Z"/></svg>