<svg xmlns="http://www.w3.org/2000/svg" width="24" height="24" fill="none" viewBox="0 0 24 24"><g clip-path="url(#a)"><path fill="#000" fill-rule="evenodd" d="M18.93 3.09a2.1 2.1 0 0 1 1.966 1.965l.387 6.204a3.1 3.1 0 0 1-.902 2.386l-6.931 6.932a3.1 3.1 0 0 1-4.385 0L3.41 14.92a3.1 3.1 0 0 1 0-4.384l6.932-6.932a3.1 3.1 0 0 1 2.385-.902l6.205.388Zm-.225 2.19-6.116-.382a.9.9 0 0 0-.693.261L7.056 10l6.93 6.93 4.84-4.84a.9.9 0 0 0 .262-.693l-.383-6.116ZM12.43 18.485l-6.93-6.93-.536.536a.9.9 0 0 0 0 1.273l5.657 5.657a.9.9 0 0 0 1.273 0l.536-.536ZM14.5 7.9a1.6 1.6 0 1 1 0 3.2 1.6 1.6 0 0 1 0-3.2Z" clip-rule="evenodd"/></g><defs><clipPath id="a"><path fill="#fff" d="M0 0h24v24H0z"/></clipPath></defs></svg>