<svg xmlns="http://www.w3.org/2000/svg" width="24" height="24" fill="none" viewBox="0 0 24 24"><path fill="#C5C6CA" d="M18 7.821A1.82 1.82 0 0 0 16.179 6h-4.223a1.82 1.82 0 0 0-1.287.533l-5.822 5.822a2.89 2.89 0 0 0 0 4.09l2.708 2.708a2.89 2.89 0 0 0 4.09 0l5.822-5.822A1.82 1.82 0 0 0 18 12.044z"/><path fill="#4D505A" fill-rule="evenodd" d="M19.371 3.936a.75.75 0 0 1 0 1.06l-5.5 5.5a.75.75 0 0 1-1.06-1.06l5.5-5.5a.75.75 0 0 1 1.06 0m-7.84 13.445a.75.75 0 0 1-1.061 0l-3.85-3.85a.75.75 0 1 1 1.06-1.061l3.85 3.85a.75.75 0 0 1 0 1.06Z" clip-rule="evenodd"/></svg>