<svg width="24" height="24" viewBox="0 0 24 24" fill="none" xmlns="http://www.w3.org/2000/svg"><path fill-rule="evenodd" clip-rule="evenodd" d="M12.829 3a3 3 0 0 0-2.122.879L6.354 8.232a.5.5 0 0 0 0 .707l8.707 8.707a.5.5 0 0 0 .707 0l4.354-4.353A3 3 0 0 0 21 11.172V5a2 2 0 0 0-2-2h-6.17ZM17 8a1 1 0 1 1-2 0 1 1 0 0 1 2 0Z" fill="#3D3D42"/><path d="M13.646 19.768a.5.5 0 0 0 0-.707L4.94 10.354a.5.5 0 0 0-.707 0l-.642.642a2 2 0 0 0 0 2.828l6.586 6.586a2 2 0 0 0 2.828 0l.643-.642Z" fill="#3D3D42"/></svg>