<svg xmlns="http://www.w3.org/2000/svg" width="24" height="24" fill="none" viewBox="0 0 24 24"><mask id="b" width="18" height="20" x="3" y="2" maskUnits="userSpaceOnUse" style="mask-type:alpha"><path fill="url(#a)" d="M5.63 6.532A7.74 7.74 0 0 0 3.38 12c0 2.136.86 4.069 2.25 5.468l-2.24 2.254c-.833.841-.241 2.278.94 2.278h6.53c5.413 0 9.99-4.27 10.138-9.719C21.143 6.833 16.644 2 11.066 2H4.329c-1.181 0-1.77 1.437-.938 2.278z"/></mask><g mask="url(#b)"><path fill="url(#c)" d="M18.745 12c0-4.271-3.44-7.733-7.683-7.733S3.38 7.729 3.38 12s3.44 7.733 7.682 7.733 7.683-3.462 7.683-7.733"/><path fill="url(#d)" d="M8.02 8.933A4.33 4.33 0 0 0 6.756 12c0 1.2.482 2.281 1.262 3.063l-4.628 4.66c-.835.84-.243 2.277.938 2.277h6.53c5.413 0 9.99-4.27 10.138-9.719S16.644 2 11.066 2H4.329c-1.181 0-1.77 1.437-.938 2.278l4.628 4.659z"/><g opacity=".65"><g filter="url(#e)"><path fill="#2791DE" d="M19.48 12c0-4.271-3.439-7.733-7.682-7.733S4.116 7.729 4.116 12s3.44 7.733 7.682 7.733 7.683-3.462 7.683-7.733Z"/></g><g filter="url(#f)"><path fill="#FFE37D" d="M18.745 12c0-4.271-3.44-7.733-7.683-7.733S3.38 7.729 3.38 12s3.44 7.733 7.682 7.733 7.683-3.462 7.683-7.733"/></g></g></g><defs><linearGradient id="a" x1="-.02" x2="17.549" y1="12" y2="12" gradientUnits="userSpaceOnUse"><stop stop-color="#80BC17"/><stop offset="1" stop-color="#FFD900"/></linearGradient><linearGradient id="c" x1="7.843" x2="4.517" y1="12" y2="12" gradientUnits="userSpaceOnUse"><stop stop-color="#fff"/><stop offset="1" stop-color="#FFE37D"/></linearGradient><linearGradient id="d" x1="15.5" x2="-3.291" y1="12.5" y2="10.517" gradientUnits="userSpaceOnUse"><stop stop-color="#4560EE"/><stop offset="1" stop-color="#65E4EF"/></linearGradient><filter id="e" width="21.365" height="21.467" x="1.116" y="1.267" color-interpolation-filters="sRGB" filterUnits="userSpaceOnUse"><feFlood flood-opacity="0" result="BackgroundImageFix"/><feBlend in="SourceGraphic" in2="BackgroundImageFix" result="shape"/><feGaussianBlur result="effect1_foregroundBlur_6408_7078" stdDeviation="1.5"/></filter><filter id="f" width="19.365" height="19.467" x="1.38" y="2.267" color-interpolation-filters="sRGB" filterUnits="userSpaceOnUse"><feFlood flood-opacity="0" result="BackgroundImageFix"/><feBlend in="SourceGraphic" in2="BackgroundImageFix" result="shape"/><feGaussianBlur result="effect1_foregroundBlur_6408_7078" stdDeviation="1"/></filter></defs></svg>