<svg xmlns="http://www.w3.org/2000/svg" width="24" height="24" fill="none" viewBox="0 0 24 24"><path fill="#4D505A" fill-rule="evenodd" d="M13.397 5.015a.75.75 0 0 1 .589.882l-2.5 12.5a.75.75 0 0 1-1.471-.294l2.5-12.5a.75.75 0 0 1 .882-.588" clip-rule="evenodd"/><path fill="#C5C6CA" fill-rule="evenodd" d="M8.8 8.24a.75.75 0 0 1-.04 1.06L5.852 12l2.908 2.7a.75.75 0 1 1-1.02 1.1l-3.5-3.25a.75.75 0 0 1 0-1.1l3.5-3.25a.75.75 0 0 1 1.06.04m6.4 0a.75.75 0 0 1 1.06-.04l3.5 3.25a.75.75 0 0 1 0 1.1l-3.5 3.25a.75.75 0 1 1-1.02-1.1l2.908-2.7-2.908-2.7a.75.75 0 0 1-.04-1.06" clip-rule="evenodd"/></svg>