<svg xmlns="http://www.w3.org/2000/svg" width="24" height="24" fill="none" viewBox="0 0 24 24"><path fill="#C5C6CA" fill-rule="evenodd" d="M7.707 7.293a1 1 0 0 1 0 1.414L4.414 12l3.293 3.293a1 1 0 1 1-1.414 1.414l-3.647-3.646a1.5 1.5 0 0 1 0-2.122l.707.707-.707-.707 3.647-3.646a1 1 0 0 1 1.414 0Zm8.586 0a1 1 0 0 1 1.414 0l3.646 3.646a1.5 1.5 0 0 1 0 2.122l-3.646 3.646a1 1 0 0 1-1.414-1.414L19.586 12l-3.293-3.293a1 1 0 0 1 0-1.414Z" clip-rule="evenodd"/><path fill="#4D505A" fill-rule="evenodd" d="M14.07 4.034a1 1 0 0 1 .708 1.225l-3.624 13.523a1 1 0 0 1-1.932-.518l3.624-13.523a1 1 0 0 1 1.224-.707Z" clip-rule="evenodd"/></svg>