<svg xmlns="http://www.w3.org/2000/svg" width="24" height="24" fill="none" viewBox="0 0 24 24"><path fill="#fff" fill-rule="evenodd" d="M14.07 4.034a1 1 0 0 1 .708 1.225l-3.624 13.523a1 1 0 0 1-1.931-.518l3.623-13.523a1 1 0 0 1 1.225-.707Zm2.223 3.259a1 1 0 0 1 1.414 0l3.647 3.646a1.5 1.5 0 0 1 0 2.122l-3.647 3.646a1 1 0 0 1-1.414-1.414L19.586 12l-3.293-3.293a1 1 0 0 1 0-1.414Zm-8.586 0a1 1 0 0 1 0 1.414L4.414 12l3.293 3.293a1 1 0 1 1-1.414 1.414l-3.646-3.646a1.5 1.5 0 0 1 0-2.122l3.646-3.646a1 1 0 0 1 1.414 0Z" clip-rule="evenodd"/></svg>