<svg xmlns="http://www.w3.org/2000/svg" width="24" height="24" fill="none" viewBox="0 0 24 24"><path fill="#C8C8CB" fill-rule="evenodd" d="M10.838 3.601a2 2 0 0 1 2.325 0l5.58 3.987A3 3 0 0 1 20 10.029V18a3 3 0 0 1-3 3H7a3 3 0 0 1-3-3v-7.97a3 3 0 0 1 1.256-2.442l5.582-3.987Z" clip-rule="evenodd"/><path fill="#4F5257" fill-rule="evenodd" d="M10.838 3.601a2 2 0 0 1 2.325 0l6.428 4.592L21.6 9.7a1 1 0 0 1-1.2 1.6l-1.992-1.493L12 5.229 5.59 9.807 3.6 11.3a1 1 0 0 1-1.2-1.6l2.01-1.507 6.428-4.592ZM10 16a2 2 0 1 1 4 0v5h-4v-5Z" clip-rule="evenodd"/></svg>