<svg xmlns="http://www.w3.org/2000/svg" width="24" height="24" fill="none" viewBox="0 0 24 24"><path fill="#C5C6CA" d="M17.25 18.25h-.864A2.5 2.5 0 0 1 14 20h-4a2.5 2.5 0 0 1-2.386-1.75H6.75A2.75 2.75 0 0 1 4 15.5V11a2.75 2.75 0 0 1 2.75-2.75h10.5A2.75 2.75 0 0 1 20 11v4.5a2.75 2.75 0 0 1-2.75 2.75"/><path fill="#4D505A" d="M7.5 6.75A2.75 2.75 0 0 1 10.25 4h3.5a2.75 2.75 0 0 1 2.75 2.75v1.496H15V6.75c0-.69-.56-1.25-1.25-1.25h-3.5C9.56 5.5 9 6.06 9 6.75v1.496H7.5zm1 6.5a1 1 0 0 0-1 1v3.25A2.5 2.5 0 0 0 10 20h4a2.5 2.5 0 0 0 2.5-2.5v-3.25a1 1 0 0 0-1-1z"/></svg>