<svg width="24" height="24" viewBox="0 0 24 24" fill="none" xmlns="http://www.w3.org/2000/svg"><path d="M8 17.6c0-.56 0-.84.109-1.054a1 1 0 0 1 .437-.437C8.76 16 9.04 16 9.6 16h4.8c.56 0 .84 0 1.054.109a1 1 0 0 1 .437.437C16 16.76 16 17.04 16 17.6v.2c0 1.12 0 1.68-.218 2.108a2 2 0 0 1-.874.874C14.48 21 13.92 21 12.8 21h-1.6c-1.12 0-1.68 0-2.108-.218a2 2 0 0 1-.874-.874C8 19.48 8 18.92 8 17.8v-.2Z" fill="#3D3D42"/><path d="M3 11.2c0-1.12 0-1.68.218-2.108a2 2 0 0 1 .874-.874C4.52 8 5.08 8 6.2 8h11.6c1.12 0 1.68 0 2.108.218a2 2 0 0 1 .874.874C21 9.52 21 10.08 21 11.2v4.6c0 1.12 0 1.68-.218 2.108a2 2 0 0 1-.874.874c-.272.139-.597.189-1.085.207-.286.011-.428.017-.54-.037a.498.498 0 0 1-.227-.22c-.057-.109-.057-.263-.056-.571v-.607c0-.238 0-.523-.02-.774a3.016 3.016 0 0 0-.307-1.142 3 3 0 0 0-1.311-1.311 3.015 3.015 0 0 0-1.142-.307c-.251-.02-.536-.02-.774-.02H9.554c-.238 0-.523 0-.774.02-.29.024-.706.085-1.142.307a3 3 0 0 0-1.311 1.311 3.015 3.015 0 0 0-.307 1.142c-.02.251-.02.535-.02.774v.607c.001.308.001.462-.056.572a.498.498 0 0 1-.227.22c-.112.053-.254.047-.54.036-.488-.018-.813-.069-1.085-.207a2 2 0 0 1-.874-.874C3 17.48 3 16.92 3 15.8v-4.6Zm5-6c0-.2 0-.68.218-1.108a2 2 0 0 1 .874-.874C9.52 3 10.08 3 11.2 3h1.6c1.12 0 1.68 0 2.108.218a2 2 0 0 1 .874.874C16 4.52 16 5 16 5.2v.2c0 .56 0 .84-.109 1.054a1 1 0 0 1-.437.437C15.24 7 14.96 7 14.4 7H9.6c-.56 0-.84 0-1.054-.109a1 1 0 0 1-.437-.437C8 6.24 8 5.96 8 5.4v-.2Z" fill="#3D3D42"/></svg>