<svg xmlns="http://www.w3.org/2000/svg" width="24" height="24" fill="none" viewBox="0 0 24 24"><path fill="#fff" fill-rule="evenodd" d="M10 5a1 1 0 0 0-1 1v2h6V6a1 1 0 0 0-1-1h-4Zm7 3V6a3 3 0 0 0-3-3h-4a3 3 0 0 0-3 3v2H6a3 3 0 0 0-3 3v5a3 3 0 0 0 3 3h1.17A3.001 3.001 0 0 0 10 21h4a3.001 3.001 0 0 0 2.83-2H18a3 3 0 0 0 3-3v-5a3 3 0 0 0-3-3h-1Zm0 9h1a1 1 0 0 0 1-1v-5a1 1 0 0 0-1-1H6a1 1 0 0 0-1 1v5a1 1 0 0 0 1 1h1v-1.5A1.5 1.5 0 0 1 8.5 14h7a1.5 1.5 0 0 1 1.5 1.5V17Zm-2 1a1 1 0 0 1-1 1h-4a1 1 0 0 1-1-1v-2h6v2Z" clip-rule="evenodd"/></svg>