<svg xmlns="http://www.w3.org/2000/svg" width="24" height="24" fill="none" viewBox="0 0 24 24"><path fill="#101116" fill-rule="evenodd" d="M15.75 4A2.75 2.75 0 0 0 13 6.75v10.5A2.75 2.75 0 0 0 15.75 20h1.5A2.75 2.75 0 0 0 20 17.25V6.75A2.75 2.75 0 0 0 17.25 4h-1.5ZM14.5 6.75c0-.69.56-1.25 1.25-1.25h1.5c.69 0 1.25.56 1.25 1.25v10.5c0 .69-.56 1.25-1.25 1.25h-1.5c-.69 0-1.25-.56-1.25-1.25V6.75ZM6.75 10A2.75 2.75 0 0 0 4 12.75v4.5A2.75 2.75 0 0 0 6.75 20h1.5A2.75 2.75 0 0 0 11 17.25v-4.5A2.75 2.75 0 0 0 8.25 10h-1.5ZM5.5 12.75c0-.69.56-1.25 1.25-1.25h1.5c.69 0 1.25.56 1.25 1.25v4.5c0 .69-.56 1.25-1.25 1.25h-1.5c-.69 0-1.25-.56-1.25-1.25v-4.5Z" clip-rule="evenodd"/></svg>