<svg width="24" height="24" viewBox="0 0 24 24" fill="none" xmlns="http://www.w3.org/2000/svg"><path fill-rule="evenodd" clip-rule="evenodd" d="M3 7.8c0-1.68 0-2.52.327-3.162a3 3 0 0 1 1.311-1.311C5.28 3 6.12 3 7.8 3h8.4c1.68 0 2.52 0 3.162.327a3 3 0 0 1 1.311 1.311C21 5.28 21 6.12 21 7.8v8.4c0 1.68 0 2.52-.327 3.162a3 3 0 0 1-1.311 1.311C18.72 21 17.88 21 16.2 21H7.8c-1.68 0-2.52 0-3.162-.327a3 3 0 0 1-1.311-1.311C3 18.72 3 17.88 3 16.2V7.8ZM5 14a1 1 0 1 1 2 0v4a1 1 0 1 1-2 0v-4Zm5-7a1 1 0 0 0-1 1v10a1 1 0 1 0 2 0V8a1 1 0 0 0-1-1Zm3 3a1 1 0 1 1 2 0v8a1 1 0 1 1-2 0v-8Zm5-5a1 1 0 0 0-1 1v12a1 1 0 1 0 2 0V6a1 1 0 0 0-1-1Z" fill="#3D3D42"/></svg>