<svg xmlns="http://www.w3.org/2000/svg" width="24" height="24" fill="none" viewBox="0 0 24 24"><path fill="#C5C6CA" d="M12.41 4.112a1 1 0 0 0-.82 0l-7 3.154a1 1 0 0 0-.59.912v7.644a1 1 0 0 0 .59.912l7 3.153a1 1 0 0 0 .82 0l7-3.153a1 1 0 0 0 .59-.912V8.178a1 1 0 0 0-.59-.912z"/><path fill="#4D505A" fill-rule="evenodd" d="M5.32 8.148a.75.75 0 0 1 .996-.364L12 10.424l5.684-2.64a.75.75 0 0 1 .632 1.36L12.75 11.73V18a.75.75 0 0 1-1.5 0v-6.271L5.684 9.145a.75.75 0 0 1-.364-.997" clip-rule="evenodd"/></svg>