<svg xmlns="http://www.w3.org/2000/svg" width="24" height="24" fill="none" viewBox="0 0 24 24"><path fill="#C1C1C4" fill-rule="evenodd" d="M10.658 2.553a3 3 0 0 1 2.684 0l6 3A3 3 0 0 1 21 8.236v7.528a3 3 0 0 1-1.658 2.683l-6 3a3 3 0 0 1-2.684 0l-6-3A3 3 0 0 1 3 15.764V8.236a3 3 0 0 1 1.658-2.683l6-3Z" clip-rule="evenodd"/><path fill="#414245" fill-rule="evenodd" d="M5.106 7.553a1 1 0 0 1 1.341-.447L12 9.882l5.553-2.776a1 1 0 1 1 .894 1.788L13 11.618V19a1 1 0 1 1-2 0v-7.382L5.553 8.894a1 1 0 0 1-.447-1.341Z" clip-rule="evenodd"/></svg>