<svg xmlns="http://www.w3.org/2000/svg" width="24" height="24" fill="none" viewBox="0 0 24 24"><path fill="#C8C8CB" fill-rule="evenodd" d="M3 6a3 3 0 0 1 3-3h12a3 3 0 0 1 3 3v12a3 3 0 0 1-3 3H6a3 3 0 0 1-3-3V6Z" clip-rule="evenodd"/><path fill="#4F5257" d="M3 17.69V15.4l1.508-.842 1.504-.86a3 3 0 0 1 2.976 0l1.26.721a1 1 0 0 0 1.161-.12l2.273-2.02a3 3 0 0 1 3.657-.255L21 14.464v2.405l-4.77-3.18a1 1 0 0 0-1.22.084l-2.272 2.02a3 3 0 0 1-3.481.363l-1.26-.72a1 1 0 0 0-.993 0l-1.516.866L3 17.69ZM9 7a2 2 0 1 0 0 4 2 2 0 0 0 0-4Z"/></svg>