<svg xmlns="http://www.w3.org/2000/svg" width="24" height="24" fill="none" viewBox="0 0 24 24"><path fill="#C5C6CA" d="M6.75 4A2.75 2.75 0 0 0 4 6.75v10.5A2.75 2.75 0 0 0 6.75 20h10.5A2.75 2.75 0 0 0 20 17.25V6.75A2.75 2.75 0 0 0 17.25 4z"/><path fill="#4D505A" d="M9.25 10.5a1.25 1.25 0 1 0 0-2.5 1.25 1.25 0 0 0 0 2.5m4.966 2.682a1.25 1.25 0 0 1 1.618-.024l1.346 1.108a.75.75 0 0 0 .953-1.158L16.788 12a2.75 2.75 0 0 0-3.56.054l-1.86 1.627a1.25 1.25 0 0 1-1.218.245l-1.16-.386a2.75 2.75 0 0 0-2.022.112l-.906.418a.75.75 0 0 0 .628 1.362l.906-.418a1.25 1.25 0 0 1 .92-.051l1.16.387a2.75 2.75 0 0 0 2.681-.54l1.86-1.627Z"/></svg>