<svg xmlns="http://www.w3.org/2000/svg" width="24" height="24" fill="none" viewBox="0 0 24 24"><path fill="#3D3D42" fill-rule="evenodd" d="M3 9.4c0-2.24 0-3.36.436-4.216a4 4 0 0 1 1.748-1.748C6.04 3 7.16 3 9.4 3h5.2c2.24 0 3.36 0 4.216.436a4 4 0 0 1 1.748 1.748C21 6.04 21 7.16 21 9.4v3.52c0 .48 0 .72-.1.854a.5.5 0 0 1-.366.199c-.167.01-.368-.12-.77-.383l-2.846-1.854-.096-.062c-.395-.26-.792-.52-1.242-.62a2.498 2.498 0 0 0-1.186.026c-.445.119-.83.395-1.215.671l-.093.067-2.506 1.789c-.479.342-.538.37-.579.382a.5.5 0 0 1-.212.018c-.042-.006-.105-.023-.635-.28l-.528-.258-.083-.04c-.349-.17-.7-.342-1.08-.4a2.5 2.5 0 0 0-1 .05c-.373.096-.705.302-1.034.507l-.079.048-1.935 1.197A.272.272 0 0 1 3 14.6V9.4Zm.495 7.733c-.155.096-.232.143-.288.215a.535.535 0 0 0-.096.217c-.016.09-.002.168.027.326.065.354.16.653.298.925a4 4 0 0 0 1.748 1.748C6.04 21 7.16 21 9.4 21h5.2c2.24 0 3.36 0 4.216-.436a4 4 0 0 0 1.748-1.748c.218-.429.328-.924.382-1.593.013-.157.019-.235 0-.314a.517.517 0 0 0-.094-.191c-.05-.064-.12-.11-.26-.2l-4.766-3.106c-.563-.367-.633-.394-.68-.405a.5.5 0 0 0-.236.005c-.046.013-.115.043-.662.433l-2.505 1.79-.082.058c-.338.243-.679.487-1.072.608a2.5 2.5 0 0 1-1.061.088c-.408-.053-.785-.237-1.16-.42l-.089-.044-.528-.258c-.492-.239-.55-.255-.59-.261a.5.5 0 0 0-.2.01c-.038.01-.094.032-.56.32l-2.906 1.797ZM11 9a2 2 0 1 1-4 0 2 2 0 0 1 4 0Z" clip-rule="evenodd"/></svg>