<svg xmlns="http://www.w3.org/2000/svg" width="24" height="24" fill="none" viewBox="0 0 24 24"><path fill="#101116" fill-rule="evenodd" d="M4.846 4A.846.846 0 0 0 4 4.846v8.308a.846.846 0 0 0 .846.846H5a1 1 0 1 1 0 2h-.154A2.846 2.846 0 0 1 2 13.154V4.846A2.846 2.846 0 0 1 4.846 2h8.308A2.846 2.846 0 0 1 16 4.846V5a1 1 0 1 1-2 0v-.154A.846.846 0 0 0 13.154 4H4.846Zm6 6a.846.846 0 0 0-.846.846v8.308c0 .467.379.846.846.846h8.308a.846.846 0 0 0 .846-.846v-8.308a.846.846 0 0 0-.846-.846h-8.308ZM8 10.846A2.846 2.846 0 0 1 10.846 8h8.308A2.846 2.846 0 0 1 22 10.846v8.308A2.846 2.846 0 0 1 19.154 22h-8.308A2.846 2.846 0 0 1 8 19.154v-8.308Z" clip-rule="evenodd"/></svg>