<svg xmlns="http://www.w3.org/2000/svg" width="24" height="24" fill="none" viewBox="0 0 24 24"><path fill="#BFC0CE" d="M5.75 6.5c-.69 0-1.25.56-1.25 1.25v8.5c0 .69.56 1.25 1.25 1.25H14v-11zm12.5 0c.69 0 1.25.56 1.25 1.25v8.5c0 .69-.56 1.25-1.25 1.25H15.5v-11z"/><path fill="#484C5B" fill-rule="evenodd" d="M5.75 5A2.75 2.75 0 0 0 3 7.75v8.5A2.75 2.75 0 0 0 5.75 19h12.5A2.75 2.75 0 0 0 21 16.25v-8.5A2.75 2.75 0 0 0 18.25 5zM4.5 7.75c0-.69.56-1.25 1.25-1.25H14v11H5.75c-.69 0-1.25-.56-1.25-1.25zm11 9.75h2.75c.69 0 1.25-.56 1.25-1.25v-8.5c0-.69-.56-1.25-1.25-1.25H15.5z" clip-rule="evenodd"/></svg>