<svg xmlns="http://www.w3.org/2000/svg" width="24" height="24" fill="none" viewBox="0 0 24 24"><path fill="#C8C8CB" fill-rule="evenodd" d="M4 5a3 3 0 0 1 3-3h10a3 3 0 0 1 3 3v14a3 3 0 0 1-3 3h-.172a3 3 0 0 1-2.12-.879l-1.83-1.828a1 1 0 0 0-.706-.293h-.344a1 1 0 0 0-.707.293L9.293 21.12a3 3 0 0 1-2.121.88H7a3 3 0 0 1-3-3V5Z" clip-rule="evenodd"/><path fill="#4F5257" fill-rule="evenodd" d="M15.707 7.293a1 1 0 0 1 0 1.414l-3.646 3.647a1.5 1.5 0 0 1-2.122 0l-1.646-1.647a1 1 0 0 1 1.414-1.414L11 10.586l3.293-3.293a1 1 0 0 1 1.414 0Z" clip-rule="evenodd"/></svg>