<svg xmlns="http://www.w3.org/2000/svg" width="24" height="24" fill="none" viewBox="0 0 24 24"><path fill="#3D3D42" fill-rule="evenodd" d="M4 7a5 5 0 0 1 5-5h6a5 5 0 0 1 5 5v11.99c0 2.553-2.987 3.939-4.937 2.29l-2.417-2.044a1 1 0 0 0-1.292 0L8.937 21.28C6.987 22.929 4 21.543 4 18.99V7Zm5-3a3 3 0 0 0-3 3v11.99a1 1 0 0 0 1.646.763l2.417-2.044a3 3 0 0 1 3.874 0l2.417 2.044A1 1 0 0 0 18 18.989V7a3 3 0 0 0-3-3H9Z" clip-rule="evenodd"/><path fill="#3D3D42" fill-rule="evenodd" d="M15.707 7.293a1 1 0 0 1 0 1.414l-4 4a1 1 0 0 1-1.414 0l-2-2a1 1 0 0 1 1.414-1.414L11 10.586l3.293-3.293a1 1 0 0 1 1.414 0Z" clip-rule="evenodd"/></svg>