<svg xmlns="http://www.w3.org/2000/svg" width="24" height="24" fill="none" viewBox="0 0 24 24"><path fill="#101116" fill-rule="evenodd" d="M4.317 18.272c-.66.62-.22 1.728.687 1.728h6.982c2.05 0 4.102-.781 5.667-2.343a7.99 7.99 0 0 0 0-11.314A8 8 0 0 0 11.986 4H5.004c-.907 0-1.347 1.107-.687 1.728l5.07 4.766a3 3 0 0 0 0 3.012zm7.669.228h-5.72l4.453-4.186c.426-.4.386-1.01.09-1.382a1.5 1.5 0 0 1 0-1.864c.296-.373.336-.982-.09-1.382L6.266 5.5h5.72c1.667 0 3.333.634 4.604 1.904a6.49 6.49 0 0 1 0 9.192 6.5 6.5 0 0 1-4.604 1.904" clip-rule="evenodd"/><path fill="#101116" d="M5.255 13.967a.751.751 0 0 0 1.442-.42 5.5 5.5 0 0 1 0-3.094.752.752 0 0 0-1.442-.42 7 7 0 0 0 0 3.934"/></svg>