<svg xmlns="http://www.w3.org/2000/svg" width="24" height="24" fill="none" viewBox="0 0 24 24"><path fill="#C5C6CA" d="M6.75 6A2.75 2.75 0 0 0 4 8.75v8.5A2.75 2.75 0 0 0 6.75 20h10.5A2.75 2.75 0 0 0 20 17.25v-8.5A2.75 2.75 0 0 0 17.25 6z"/><path fill="#4D505A" fill-rule="evenodd" d="M8 4a.75.75 0 0 1 .75.75v3.5a.75.75 0 0 1-1.5 0v-3.5A.75.75 0 0 1 8 4m8 0a.75.75 0 0 1 .75.75v3.5a.75.75 0 0 1-1.5 0v-3.5A.75.75 0 0 1 16 4m-8.25 6.5a.75.75 0 0 0 0 1.5h8.5a.75.75 0 0 0 0-1.5z" clip-rule="evenodd"/></svg>