<svg xmlns="http://www.w3.org/2000/svg" width="24" height="24" fill="none" viewBox="0 0 24 24"><path fill="#101116" d="M7 11.25a.75.75 0 0 1 .75-.75h8.5a.75.75 0 0 1 0 1.5h-8.5a.75.75 0 0 1-.75-.75"/><path fill="#101116" fill-rule="evenodd" d="M8.75 4.75a.75.75 0 0 0-1.5 0V6h-.5A2.75 2.75 0 0 0 4 8.75v8.5A2.75 2.75 0 0 0 6.75 20h10.5A2.75 2.75 0 0 0 20 17.25v-8.5A2.75 2.75 0 0 0 17.25 6h-.5V4.75a.75.75 0 0 0-1.5 0V6h-6.5zM7.25 7.5v.75a.75.75 0 0 0 1.5 0V7.5h6.5v.75a.75.75 0 0 0 1.5 0V7.5h.5c.69 0 1.25.56 1.25 1.25v8.5c0 .69-.56 1.25-1.25 1.25H6.75c-.69 0-1.25-.56-1.25-1.25v-8.5c0-.69.56-1.25 1.25-1.25z" clip-rule="evenodd"/></svg>