<svg xmlns="http://www.w3.org/2000/svg" width="24" height="24" fill="none" viewBox="0 0 24 24"><path fill="#101116" fill-rule="evenodd" d="M7 4a1 1 0 0 0-1 1v14a1 1 0 0 0 1 1h.172a1 1 0 0 0 .707-.293l1.828-1.828A3 3 0 0 1 11.828 17h.344a3 3 0 0 1 2.12.879l1.83 1.828a1 1 0 0 0 .706.293H17a1 1 0 0 0 1-1V5a1 1 0 0 0-1-1H7ZM4 5a3 3 0 0 1 3-3h10a3 3 0 0 1 3 3v14a3 3 0 0 1-3 3h-.172a3 3 0 0 1-2.12-.879l-1.83-1.828a1 1 0 0 0-.706-.293h-.344a1 1 0 0 0-.707.293L9.293 21.12a3 3 0 0 1-2.121.88H7a3 3 0 0 1-3-3V5Zm8 2a1 1 0 0 1 1 1v1h1a1 1 0 1 1 0 2h-1v1a1 1 0 1 1-2 0v-1h-1a1 1 0 1 1 0-2h1V8a1 1 0 0 1 1-1Z" clip-rule="evenodd"/></svg>