<svg xmlns="http://www.w3.org/2000/svg" width="24" height="24" fill="none" viewBox="0 0 24 24"><path fill="#C5C6CA" fill-rule="evenodd" d="M4.045 6.641a4.75 4.75 0 0 0 0 6.718l7.248 7.248a1 1 0 0 0 1.414 0l7.248-7.248a4.75 4.75 0 0 0 0-6.718L17.834 4.52a1 1 0 0 0-1.415 0l-2.895 2.895a3 3 0 0 0-3.048 0L7.58 4.52a1 1 0 0 0-1.415 0l-2.12 2.12Z" clip-rule="evenodd"/><path fill="#4D505A" d="M10.033 3.28a.75.75 0 0 0 .42 1.44 5.53 5.53 0 0 1 3.094 0 .75.75 0 1 0 .42-1.44 7.03 7.03 0 0 0-3.934 0"/></svg>