<svg xmlns="http://www.w3.org/2000/svg" width="24" height="24" fill="none" viewBox="0 0 24 24"><path fill="#C8C8CB" fill-rule="evenodd" d="M4 10a8 8 0 1 1 13.495 5.814c-.335.317-.495.67-.495.975V17a3 3 0 0 1-3 3h-4a3 3 0 0 1-3-3v-.211c0-.306-.16-.658-.496-.975A7.98 7.98 0 0 1 4 10Z" clip-rule="evenodd"/><path fill="#4F5257" fill-rule="evenodd" d="M9.293 10.293a1 1 0 0 1 1.414 0L12 11.586l1.293-1.293a1 1 0 1 1 1.414 1.414L13 13.414v4.649A2 2 0 0 1 12.5 22h-1a2 2 0 0 1-.5-3.937v-4.649l-1.707-1.707a1 1 0 0 1 0-1.414Z" clip-rule="evenodd"/></svg>