<svg width="32" height="24" viewBox="0 0 32 24" fill="none" xmlns="http://www.w3.org/2000/svg">
<mask id="mask0_157_78164" style="mask-type:alpha" maskUnits="userSpaceOnUse" x="0" y="0" width="32" height="24">
<rect width="32" height="24" fill="white"/>
</mask>
<g mask="url(#mask0_157_78164)">
<path fill-rule="evenodd" clip-rule="evenodd" d="M0 0V24H32V0H0Z" fill="#2E42A5"/>
<mask id="mask1_157_78164" style="mask-type:alpha" maskUnits="userSpaceOnUse" x="0" y="0" width="32" height="24">
<path fill-rule="evenodd" clip-rule="evenodd" d="M0 0V24H32V0H0Z" fill="white"/>
</mask>
<g mask="url(#mask1_157_78164)">
<path fill-rule="evenodd" clip-rule="evenodd" d="M20.9431 11.8562L20.9463 12.2066C20.9732 15.1566 21.0821 17.0865 21.2757 18.011C21.4365 18.7787 22.0209 20.0518 22.7083 21.0726C23.5726 22.3561 24.4947 23.1368 25.3772 23.1368C26.2628 23.1368 27.1856 22.4108 28.0462 21.2011C28.7525 20.2082 29.3574 18.9486 29.5983 18.0204C29.8964 16.8714 30.0353 14.9356 30.0184 12.2035L30.0163 11.8556L29.6984 12.0202C29.0577 12.3518 28.3679 12.5174 27.6258 12.5174C26.8923 12.5174 26.1844 12.2982 25.4978 11.8563L25.38 11.7805L25.2606 11.8537C24.536 12.2979 23.8552 12.5174 23.217 12.5174C22.5706 12.5174 21.9206 12.3521 21.2648 12.0194L20.9431 11.8562ZM21.4887 17.9695C21.2987 17.0627 21.1904 15.1411 21.1636 12.2048C21.8497 12.5529 22.5341 12.7269 23.217 12.7269C23.8998 12.7269 24.6199 12.4948 25.3772 12.0306C26.0985 12.4948 26.848 12.7269 27.6258 12.7269C28.4036 12.7269 29.1287 12.5529 29.8012 12.2048C29.8179 14.9205 29.68 16.842 29.3875 17.9695C28.9486 19.6607 27.1084 22.9273 25.3772 22.9273C23.6459 22.9273 21.7736 19.3297 21.4887 17.9695Z" fill="#FBE625"/>
<path fill-rule="evenodd" clip-rule="evenodd" d="M21.1636 12.2047C21.1636 12.2047 21.2037 16.6092 21.4887 17.9694C21.7736 19.3297 23.6459 22.9272 25.3771 22.9272C27.1084 22.9272 28.9486 19.6606 29.3875 17.9694C29.8263 16.2783 29.8011 12.2047 29.8011 12.2047C29.8011 12.2047 28.7924 12.7269 27.6258 12.7269C26.4591 12.7269 25.3771 12.0305 25.3771 12.0305C25.3771 12.0305 24.2412 12.7269 23.2169 12.7269C22.1927 12.7269 21.1636 12.2047 21.1636 12.2047Z" fill="#F5FBFF"/>
<mask id="mask2_157_78164" style="mask-type:alpha" maskUnits="userSpaceOnUse" x="21" y="12" width="9" height="11">
<path fill-rule="evenodd" clip-rule="evenodd" d="M21.1636 12.2047C21.1636 12.2047 21.2037 16.6092 21.4887 17.9694C21.7736 19.3297 23.6459 22.9272 25.3771 22.9272C27.1084 22.9272 28.9486 19.6606 29.3875 17.9694C29.8263 16.2783 29.8011 12.2047 29.8011 12.2047C29.8011 12.2047 28.7924 12.7269 27.6258 12.7269C26.4591 12.7269 25.3771 12.0305 25.3771 12.0305C25.3771 12.0305 24.2412 12.7269 23.2169 12.7269C22.1927 12.7269 21.1636 12.2047 21.1636 12.2047Z" fill="white"/>
</mask>
<g mask="url(#mask2_157_78164)">
<path fill-rule="evenodd" clip-rule="evenodd" d="M24.6399 15.4883C24.6399 15.776 24.2289 16.6134 23.9907 16.8277C23.8145 16.9864 23.8689 16.6179 23.9091 16.3459L23.9091 16.3459C23.9232 16.2504 23.9356 16.1668 23.9356 16.1221L23.9356 16.1025C23.9356 16.046 23.9357 16.0152 23.93 15.9855C23.9232 15.9499 23.9083 15.9159 23.8754 15.8411L23.8754 15.8411C23.8631 15.8131 23.8483 15.7793 23.8304 15.7376C23.4489 14.9237 23.7188 14.534 23.8387 14.3609C23.8571 14.3344 23.8719 14.313 23.8804 14.2959C23.8985 14.2593 23.9325 14.2264 23.9706 14.1897C24.0663 14.0974 24.1872 13.9809 24.1416 13.7195C24.0779 13.3544 24.464 12.886 24.464 12.886C24.464 12.886 24.3704 13.7944 24.8141 13.5718C25.1025 13.4272 25.6252 13.6347 26.0901 13.8193C26.3405 13.9187 26.5741 14.0115 26.7453 14.039C27.0911 14.0946 27.2805 13.9493 27.3978 13.8594C27.4464 13.8222 27.4826 13.7944 27.5124 13.7944C27.6141 13.7944 27.734 13.8148 27.734 13.889C27.734 13.9632 27.2786 14.1805 27.0496 14.2483C26.8771 14.2994 27.0541 14.4402 27.2025 14.5581C27.251 14.5967 27.2964 14.6328 27.3256 14.6626C27.4438 14.7833 27.5521 15.4416 27.2786 15.0275C27.0051 14.6133 26.4228 14.3365 25.9279 14.2959C25.433 14.2553 24.809 14.631 24.734 15.0275C24.6591 15.424 25.3195 15.3513 25.3195 15.3513C25.3195 15.3513 25.2712 15.4132 25.0583 15.4883C24.8453 15.5634 24.6399 15.4883 24.6399 15.4883ZM24.1421 15.4572C24.1421 15.515 24.0934 15.5619 24.0334 15.5619C23.9734 15.5619 23.9248 15.515 23.9248 15.4572C23.9248 15.3993 23.9734 15.3524 24.0334 15.3524C24.0934 15.3524 24.1421 15.3993 24.1421 15.4572ZM26.5821 17.4011C26.2792 17.2967 25.3475 17.3432 25.0959 17.4827C25.0959 17.4827 25.062 17.2666 24.8931 17.1168C24.7241 16.967 24.6466 16.9548 24.6466 16.9548C24.6466 16.9548 25.0303 17.4971 24.6472 17.6238C24.2641 17.7505 23.633 17.3868 23.4286 16.9343C23.2241 16.4818 23.184 15.8383 23.4136 15.3983C23.6432 14.9582 23.1199 15.3722 23.0717 15.5341C23.0598 15.574 23.0502 15.6312 23.04 15.6924C23.0088 15.8793 22.9715 16.1024 22.8431 15.9763C22.6728 15.8089 22.262 15.5159 22.197 15.5519C22.1321 15.5879 22.1725 15.7026 22.2218 15.7916C22.2362 15.8177 22.278 15.8359 22.3342 15.8603C22.4697 15.9192 22.6885 16.0145 22.8076 16.3439C22.8665 16.507 22.8986 16.7563 22.9331 17.0234C22.997 17.5195 23.0689 18.0773 23.3353 18.2594C23.745 18.5397 22.9051 18.8981 22.9051 18.8981C22.9051 18.8981 23.502 19.0087 23.7905 18.776C23.9969 18.6095 24.1575 18.6587 24.2846 18.6977C24.3352 18.7131 24.3804 18.727 24.4212 18.7251C24.4403 18.7242 24.4662 18.7268 24.4982 18.73C24.7078 18.7509 25.1795 18.7981 25.7064 18.0698C25.7342 18.034 25.7565 18.0047 25.775 17.9803L25.7751 17.9803C25.8246 17.9153 25.8471 17.8857 25.8749 17.8625C25.8981 17.8432 25.9251 17.8283 25.9745 17.801L25.9745 17.801L25.9745 17.801L25.9917 17.7915C26.0308 17.7698 26.1099 17.74 26.2002 17.7061L26.2002 17.7061L26.2002 17.7061C26.4576 17.6094 26.8063 17.4784 26.5821 17.4011ZM25.3288 17.8817C25.3794 17.8536 25.444 17.8734 25.4731 17.9259C25.5022 17.9784 25.4848 18.0436 25.4342 18.0717C25.3836 18.0997 25.319 18.0799 25.2899 18.0275C25.2608 17.975 25.2782 17.9097 25.3288 17.8817ZM25.8419 14.8743C25.9193 15.1852 26.4657 15.9413 26.7198 16.0763C26.7198 16.0763 26.557 16.2224 26.5234 16.4457C26.4897 16.669 26.5217 16.7406 26.5217 16.7406C26.5217 16.7406 26.7675 16.1234 27.0824 16.3757C27.3974 16.6281 27.4361 17.3554 27.1679 17.7733C26.8998 18.1912 26.3819 18.5754 25.8878 18.6225C25.3938 18.6695 26.0259 18.883 26.188 18.8352C26.2279 18.8235 26.2812 18.8003 26.338 18.7756C26.5118 18.7 26.7192 18.6097 26.6833 18.7861C26.6357 19.0201 26.6137 19.5242 26.6793 19.5591C26.7448 19.5939 26.8191 19.4976 26.8668 19.4078C26.8808 19.3815 26.8733 19.3365 26.8632 19.2761C26.8389 19.1304 26.7996 18.8949 27.011 18.6157C27.1157 18.4774 27.3073 18.3147 27.5125 18.1403C27.8938 17.8165 28.3224 17.4524 28.3301 17.1298C28.3419 16.6335 29.1 17.1427 29.1 17.1427C29.1 17.1427 28.8677 16.5819 28.5154 16.4667C28.2633 16.3843 28.2171 16.2228 28.1806 16.095C28.166 16.0442 28.153 15.9986 28.1292 15.9655C28.1181 15.95 28.1061 15.9268 28.0913 15.8982C27.9948 15.7111 27.7774 15.2898 26.8797 15.2445C26.8345 15.2407 26.7977 15.238 26.7671 15.2357C26.6857 15.2296 26.6486 15.2268 26.614 15.2161C26.5851 15.2071 26.558 15.1926 26.5081 15.1661C26.5026 15.1631 26.4969 15.1601 26.4908 15.1568C26.4513 15.1359 26.3833 15.0857 26.3057 15.0284L26.3057 15.0284C26.0844 14.8653 25.7846 14.6442 25.8419 14.8743ZM26.962 15.7034C26.9109 15.6762 26.8923 15.6113 26.9205 15.5583C26.9486 15.5053 27.0129 15.4844 27.064 15.5115C27.1151 15.5387 27.1336 15.6037 27.1055 15.6566C27.0773 15.7096 27.0131 15.7306 26.962 15.7034Z" fill="#FF9800"/>
<path fill-rule="evenodd" clip-rule="evenodd" d="M21.426 19.7522H28.705V23.2093H21.426V19.7522Z" fill="#36C6FF"/>
</g>
<rect width="18" height="14" fill="#2B409A"/>
<mask id="mask3_157_78164" style="mask-type:alpha" maskUnits="userSpaceOnUse" x="0" y="0" width="18" height="14">
<rect width="18" height="14" fill="white"/>
</mask>
<g mask="url(#mask3_157_78164)">
<path d="M-2.00415 12.9999L1.9568 14.7371L18.09 1.88878L20.1793 -0.692749L15.9436 -1.27337L9.3633 4.26332L4.06679 7.99375L-2.00415 12.9999Z" fill="#F7FCFF"/>
<path d="M-1.46191 14.217L0.556007 15.2251L19.429 -0.932617H16.5956L-1.46191 14.217Z" fill="#F50100"/>
<path d="M20.0044 12.9999L16.0434 14.7371L-0.0897522 1.88878L-2.17906 -0.692749L2.0566 -1.27337L8.63695 4.26332L13.9335 7.99375L20.0044 12.9999Z" fill="#F7FCFF"/>
<path d="M19.8691 13.8732L17.8512 14.8813L9.81489 7.96339L7.43229 7.19046L-2.3802 -0.684069H0.453194L10.2602 7.00356L12.8651 7.93038L19.8691 13.8732Z" fill="#F50100"/>
<mask id="path-16-outside-1_157_78164" maskUnits="userSpaceOnUse" x="-2" y="-2" width="22" height="18" fill="black">
<rect fill="white" x="-2" y="-2" width="22" height="18"/>
<path fill-rule="evenodd" clip-rule="evenodd" d="M9.98451 0H7.98451V6H0V8H7.98451V14H9.98451V8H18V6H9.98451V0Z"/>
</mask>
<path fill-rule="evenodd" clip-rule="evenodd" d="M9.98451 0H7.98451V6H0V8H7.98451V14H9.98451V8H18V6H9.98451V0Z" fill="#F50100"/>
<path d="M7.98451 0V-1.5H6.48451V0H7.98451ZM9.98451 0H11.4845V-1.5H9.98451V0ZM7.98451 6V7.5H9.48451V6H7.98451ZM0 6V4.5H-1.5V6H0ZM0 8H-1.5V9.5H0V8ZM7.98451 8H9.48451V6.5H7.98451V8ZM7.98451 14H6.48451V15.5H7.98451V14ZM9.98451 14V15.5H11.4845V14H9.98451ZM9.98451 8V6.5H8.48451V8H9.98451ZM18 8V9.5H19.5V8H18ZM18 6H19.5V4.5H18V6ZM9.98451 6H8.48451V7.5H9.98451V6ZM7.98451 1.5H9.98451V-1.5H7.98451V1.5ZM9.48451 6V0H6.48451V6H9.48451ZM0 7.5H7.98451V4.5H0V7.5ZM1.5 8V6H-1.5V8H1.5ZM7.98451 6.5H0V9.5H7.98451V6.5ZM9.48451 14V8H6.48451V14H9.48451ZM9.98451 12.5H7.98451V15.5H9.98451V12.5ZM8.48451 8V14H11.4845V8H8.48451ZM18 6.5H9.98451V9.5H18V6.5ZM16.5 6V8H19.5V6H16.5ZM9.98451 7.5H18V4.5H9.98451V7.5ZM8.48451 0V6H11.4845V0H8.48451Z" fill="#F7FCFF" mask="url(#path-16-outside-1_157_78164)"/>
</g>
</g>
</g>
</svg>
