<svg width="32" height="24" viewBox="0 0 32 24" fill="none" xmlns="http://www.w3.org/2000/svg">
<mask id="mask0_157_78187" style="mask-type:alpha" maskUnits="userSpaceOnUse" x="0" y="0" width="32" height="24">
<rect width="32" height="24" fill="white"/>
</mask>
<g mask="url(#mask0_157_78187)">
<path fill-rule="evenodd" clip-rule="evenodd" d="M0 0V24H32V0H0Z" fill="#FFD221"/>
<mask id="mask1_157_78187" style="mask-type:alpha" maskUnits="userSpaceOnUse" x="0" y="0" width="32" height="24">
<path fill-rule="evenodd" clip-rule="evenodd" d="M0 0V24H32V0H0Z" fill="white"/>
</mask>
<g mask="url(#mask1_157_78187)">
<path d="M-3.06689 10.6152L-1.0589 6.03613L33.7678 21.3081L31.7598 25.8872L-3.06689 10.6152Z" fill="#313131"/>
<path d="M-3.01733 5.56944L-1.01019 0.98999L35.5484 17.0134L33.5413 21.5929L-3.01733 5.56944Z" fill="#FAF9F9"/>
<path fill-rule="evenodd" clip-rule="evenodd" d="M7.33082 12.3972C5.91226 10.6564 6.14941 9.479 6.14941 9.479C6.14941 9.479 7.60117 9.53206 7.58498 10.4682C7.58498 10.8638 8.10571 11.2382 8.55433 11.5608C8.8938 11.8049 9.19199 12.0193 9.19199 12.1907C9.19199 12.5886 9.4916 16.6005 9.4916 16.6005C9.4916 16.6005 9.28233 16.9657 8.27998 16.9657C7.27762 16.9657 7.33082 16.3884 7.33082 16.3884C7.93851 15.6433 7.33082 12.3972 7.33082 12.3972ZM24.6697 12.3972C26.0882 10.6564 25.8511 9.479 25.8511 9.479C25.8511 9.479 24.3993 9.53206 24.4155 10.4682C24.4155 10.8638 23.8948 11.2382 23.4462 11.5608C23.1067 11.8049 22.8085 12.0193 22.8085 12.1907C22.8085 12.5886 22.5089 16.6005 22.5089 16.6005C22.5089 16.6005 22.7181 16.9657 23.7205 16.9657C24.7229 16.9657 24.6697 16.3884 24.6697 16.3884C24.062 15.6433 24.6697 12.3972 24.6697 12.3972Z" fill="#CF1225"/>
<path fill-rule="evenodd" clip-rule="evenodd" d="M16.0597 2.87476L17.1865 3.67911L16.4481 3.87639L17.1865 4.5146L16.2672 4.28171V4.92648H17.1865L17.4939 6.43788L17.1382 6.18554L16.7824 6.43788L16.4266 6.18554L16.0709 6.43788L15.7044 6.18554L15.338 6.43788L14.9715 6.18554L14.605 6.43788L15.0666 4.92648H15.9173V2.87476H16.0597ZM21.085 7.9514C21.085 7.9514 20.7416 8.25502 20.0049 7.9514C19.7589 7.84997 19.4891 7.67264 19.2077 7.48764C18.6468 7.11883 18.0394 6.71953 17.4806 6.83027C16.6415 6.99655 16.2686 7.39703 16.2686 7.39703V6.47467H16.1669H16.0093H15.9076V7.39703C15.9076 7.39703 15.5347 6.99655 14.6957 6.83027C14.1369 6.71953 13.5295 7.11883 12.9685 7.48764C12.6871 7.67264 12.4174 7.84997 12.1713 7.9514C11.4347 8.25502 11.0913 7.9514 11.0913 7.9514C11.0913 7.9514 11.0913 8.20842 11.6389 8.60425C11.8765 8.77598 12.1481 8.76362 12.3796 8.69457C12.2082 8.82389 12.1251 8.97582 12.3983 9.09756C12.9644 9.34985 13.895 8.68586 13.997 8.61104C13.8833 8.69555 12.7586 9.54136 13.2741 9.54136C13.8167 9.54136 14.6957 8.83037 14.6957 8.83037C14.6957 8.83037 13.6291 9.85369 14.2029 10.0131C14.5681 10.1146 15.0042 9.58235 15.2092 9.26706C15.2158 9.33407 15.2773 9.37508 15.3444 9.41976C15.4304 9.47702 15.5254 9.5403 15.5254 9.67204C15.5254 9.84091 15.5673 9.86989 15.604 9.8953C15.6327 9.91514 15.6583 9.9328 15.6583 10.0131V10.2464L15.5254 10.4423C15.5254 10.4423 15.5254 10.7471 15.6583 10.9893C15.7589 11.1728 15.7071 11.3271 15.6183 11.5915C15.5899 11.6762 15.5576 11.7722 15.5254 11.884C15.3926 12.3451 15.6583 13.1326 15.6583 13.1326H15.5254C15.5254 13.1326 15.6583 13.2296 15.6583 13.6179C15.6583 13.9341 15.5702 14.1137 15.4039 14.4528C15.3659 14.5302 15.3239 14.6159 15.2779 14.7134C15.0304 15.2382 15.5254 15.9055 15.5254 15.9055C15.5254 15.9055 14.6957 15.5414 14.862 15.9055C14.9897 16.1852 15.6908 16.4572 16.0093 16.5685V16.621C16.0093 16.621 16.0385 16.612 16.0881 16.5954C16.1378 16.612 16.1669 16.621 16.1669 16.621V16.5685C16.4855 16.4572 17.1866 16.1852 17.3143 15.9055C17.4806 15.5414 16.6509 15.9055 16.6509 15.9055C16.6509 15.9055 17.1459 15.2382 16.8984 14.7134C16.8524 14.6159 16.8104 14.5302 16.7724 14.4528L16.7724 14.4528C16.6061 14.1137 16.518 13.9341 16.518 13.6179C16.518 13.2296 16.6509 13.1326 16.6509 13.1326H16.518C16.518 13.1326 16.7837 12.3451 16.6509 11.884C16.6186 11.7722 16.5864 11.6762 16.558 11.5915C16.4692 11.3271 16.4174 11.1728 16.518 10.9893C16.6509 10.7471 16.6509 10.4423 16.6509 10.4423L16.518 10.2464V10.0131C16.518 9.9328 16.5435 9.91514 16.5722 9.8953C16.609 9.86989 16.6509 9.84091 16.6509 9.67204C16.6509 9.5403 16.7459 9.47702 16.8318 9.41976C16.8989 9.37508 16.9605 9.33407 16.9671 9.26706C17.172 9.58235 17.6081 10.1146 17.9734 10.0131C18.5472 9.85369 17.4806 8.83037 17.4806 8.83037C17.4806 8.83037 18.3596 9.54136 18.9022 9.54136C19.4177 9.54136 18.293 8.69554 18.1793 8.61104C18.2813 8.68586 19.2119 9.34986 19.778 9.09756C20.0512 8.97582 19.9681 8.82389 19.7967 8.69457C20.0282 8.76362 20.2998 8.77598 20.5374 8.60425C21.085 8.20842 21.085 7.9514 21.085 7.9514ZM19.2611 8.41784C19.2611 8.41784 19.4947 8.60447 19.7967 8.69457C19.5919 8.54008 19.2611 8.41784 19.2611 8.41784ZM16.8984 9.09756C16.8084 8.97772 16.8501 9.08702 16.9671 9.26706C16.9713 9.22395 16.9528 9.17009 16.8984 9.09756ZM15.2779 9.09756C15.3679 8.97772 15.3262 9.08702 15.2092 9.26706C15.2049 9.22395 15.2235 9.17009 15.2779 9.09756ZM14.0061 8.60425C14.0061 8.60425 14.003 8.60662 13.997 8.61104C14.0029 8.60659 14.0061 8.60425 14.0061 8.60425ZM12.9151 8.41784C12.9151 8.41784 12.6816 8.60447 12.3796 8.69457C12.5843 8.54008 12.9151 8.41784 12.9151 8.41784Z" fill="#CF1225"/>
<path fill-rule="evenodd" clip-rule="evenodd" d="M11.2291 9.57812C11.2291 9.57812 10.0355 11.2017 10.1683 12.9365C10.3012 14.6713 11.7166 18.7075 15.9156 18.7075C15.9517 18.7075 15.9876 18.7065 16.0233 18.7065C20.4726 18.7065 21.7356 14.2563 21.7356 12.6559C21.7356 11.0417 20.7289 9.57812 20.7289 9.57812C20.7289 9.57812 20.8466 11.7441 20.7289 12.6559C20.3742 15.4064 18.6414 16.6769 15.9935 16.6769C13.3292 16.6769 11.6805 15.3584 11.2291 12.6559C11.0832 11.7822 11.2291 9.57812 11.2291 9.57812Z" fill="#CF1225"/>
<path fill-rule="evenodd" clip-rule="evenodd" d="M9.06543 19.7512C9.06543 19.7512 9.28209 19.1307 9.54843 19.1307C9.81477 19.1307 9.03884 18.5922 9.54843 18.4399C10.058 18.2876 10.8422 19.0469 10.8422 18.2876C10.8422 17.5282 10.179 17.1139 10.6663 17.1139C11.1535 17.1139 11.6619 16.9685 11.6619 16.9685C11.6619 16.9685 13.7351 19.1307 15.8106 19.1307C17.8861 19.1307 20.382 17.1139 20.382 17.1139C20.382 17.1139 21.3019 16.88 21.3019 17.2448C21.3019 17.6097 21.1001 18.1605 21.1001 18.1605C21.1001 18.1605 21.7447 18.0334 22.0726 18.1605C22.4006 18.2876 22.0726 18.8955 22.0726 18.8955V19.1307C22.0726 19.1307 22.9259 18.9428 22.9259 19.279C22.9259 19.6152 22.514 19.4232 21.6793 19.5192C20.8447 19.6152 20.5279 20.2678 20.0036 20.2678C19.4792 20.2678 19.3662 19.7512 19.3662 19.7512C19.3662 19.7512 17.7414 20.632 15.8106 20.632C13.8798 20.632 12.7135 19.7512 12.7135 19.7512C12.7135 19.7512 12.8957 20.6554 12.2788 20.4616C11.6619 20.2678 11.0308 19.0388 10.2896 19.279C9.54843 19.5192 9.06543 19.7512 9.06543 19.7512Z" fill="#CF1225"/>
<path fill-rule="evenodd" clip-rule="evenodd" d="M12.0618 16.1648C12.0983 16.1308 12.135 16.093 12.1831 16.0408C12.3192 15.893 12.3561 15.8538 12.384 15.8359C12.3896 15.8612 12.3934 15.9025 12.3934 15.9592C12.3934 16.3357 12.4068 16.62 12.4434 16.8177C12.4696 16.9585 12.5058 17.0497 12.5699 17.0932C12.6635 17.1566 12.7579 17.1014 12.8454 16.9698C13.0457 16.6687 13.4227 16.6315 13.4227 16.7464C13.4227 16.7762 13.411 16.8084 13.3378 16.9878C13.3251 17.0187 13.3151 17.0438 13.3059 17.0681C13.2545 17.2035 13.2316 17.3014 13.2427 17.3865C13.2593 17.5136 13.353 17.5852 13.5047 17.5852C13.6734 17.5852 13.7842 17.476 13.9068 17.261C13.9187 17.24 13.9508 17.1816 13.9644 17.1568L13.9645 17.1566L13.9645 17.1566L13.9706 17.1456C13.993 17.1053 14.0094 17.0782 14.0246 17.0572C14.0692 16.9949 14.079 16.9997 14.178 17.2336C14.204 17.2953 14.2576 17.4252 14.3039 17.5377C14.3405 17.6265 14.3726 17.7045 14.3832 17.7294C14.4482 17.8822 14.4938 17.9723 14.5418 18.0353C14.652 18.1801 14.7836 18.1789 14.9407 18.0445C14.9718 18.0179 15.0065 17.9917 15.0467 17.964C15.0676 17.9496 15.1174 17.9176 15.1651 17.887L15.1651 17.887C15.2103 17.8579 15.2534 17.8301 15.2681 17.8199C15.3592 17.7562 15.4045 17.7061 15.4036 17.6321C15.4024 17.5386 15.3244 17.4799 15.1687 17.422C15.1379 17.4105 15.114 17.3997 15.0967 17.3918L15.0966 17.3917L15.0965 17.3917C15.0838 17.3859 15.0747 17.3818 15.0689 17.3802C15.0728 17.3795 15.0785 17.3766 15.0874 17.3721L15.0952 17.3682C15.1928 17.3197 15.3899 17.2842 15.5658 17.2842L15.5668 17.2842C15.575 17.2842 15.5799 17.2842 15.5828 17.2866C15.5872 17.2903 15.587 17.2994 15.5865 17.322L15.5864 17.3246C15.5852 17.3776 15.5738 17.4289 15.5303 17.5918L15.5154 17.6489C15.4661 17.8402 15.4525 17.9559 15.4863 18.0557C15.5359 18.2019 15.6769 18.2527 15.8959 18.2093C16.1922 18.1507 16.3365 18.033 16.3742 17.8527C16.3836 17.8075 16.3855 17.7729 16.3856 17.7024C16.3857 17.5862 16.3864 17.5852 16.4856 17.5852C16.6269 17.5852 16.6828 17.6353 16.7422 17.7743C16.7474 17.7865 16.7527 17.7992 16.7634 17.8251C16.8324 17.9916 16.8965 18.064 17.041 18.064C17.1375 18.064 17.2047 18.0235 17.1928 17.9299C17.1898 17.9061 17.1817 17.8851 17.1672 17.8557L17.1556 17.833L17.1556 17.833C17.1478 17.8179 17.1386 17.8 17.1349 17.7924C17.0453 17.609 17.0808 17.4689 17.3892 17.2715C17.4773 17.2151 17.6135 17.1197 17.7314 17.037L17.7314 17.037L17.7314 17.037L17.7315 17.037C17.8164 16.9775 17.8918 16.9246 17.9331 16.8977C17.9364 16.9228 17.9388 16.9572 17.941 17.0073C17.9419 17.0271 17.9441 17.0891 17.9459 17.1391L17.9483 17.2035C17.9614 17.5383 18.031 17.8448 18.1326 17.9692C18.3047 18.1799 18.4708 17.9852 18.5838 17.5215C18.6919 17.0779 18.8462 16.6596 18.9966 16.4057C19.0703 16.2813 19.1393 16.2033 19.1919 16.1796C19.2268 16.1639 19.2514 16.1751 19.2875 16.2407C19.4233 16.4874 19.6324 16.7163 19.8091 16.7844C20.0714 16.8854 20.2271 16.6726 20.2271 16.1993C20.2271 15.8025 20.2915 15.4861 20.3981 15.242C20.4347 15.158 20.4737 15.0893 20.5122 15.0347C20.5343 15.0034 20.5505 14.9845 20.5581 14.977L20.4449 14.8554C20.3929 14.9063 20.3198 15.0099 20.2485 15.1732C20.1323 15.4392 20.0631 15.7791 20.0631 16.1993C20.0631 16.5735 19.9895 16.6742 19.8667 16.6269C19.7334 16.5755 19.5489 16.3735 19.4302 16.1579C19.3556 16.0225 19.245 15.9719 19.126 16.0256C19.035 16.0666 18.9462 16.1669 18.8565 16.3184C18.6964 16.5887 18.5366 17.022 18.4248 17.4807C18.3762 17.6801 18.3257 17.807 18.2583 17.8611C18.1867 17.7735 18.1239 17.4969 18.1121 17.1967L18.1098 17.134L18.1098 17.1338C18.108 17.0835 18.1057 17.0203 18.1048 16.9997C18.102 16.9368 18.0988 16.8953 18.0936 16.8616C18.077 16.7538 18.0225 16.6903 17.9244 16.716C17.8859 16.726 17.701 16.8546 17.5346 16.9703L17.5346 16.9703L17.5346 16.9703C17.4419 17.0347 17.355 17.0951 17.3025 17.1288C16.9211 17.373 16.8614 17.608 16.9884 17.8679L16.9986 17.888C16.9681 17.8739 16.9469 17.838 16.9142 17.7593C16.9038 17.7339 16.898 17.72 16.8924 17.7067C16.8094 17.5127 16.7025 17.417 16.4856 17.417C16.277 17.417 16.2219 17.5046 16.2217 17.7022C16.2216 17.7611 16.2201 17.7874 16.2139 17.8174C16.1916 17.9241 16.1019 17.9972 15.8649 18.0441C15.7167 18.0735 15.6589 18.0526 15.6411 18.0004C15.6221 17.9442 15.6332 17.8499 15.6739 17.6918L15.6885 17.6362C15.7365 17.4558 15.7487 17.4016 15.7503 17.3284C15.7531 17.2016 15.6911 17.116 15.5658 17.116C15.3672 17.116 15.1467 17.1557 15.0237 17.2168C14.8219 17.3171 14.8619 17.4868 15.1129 17.5802C15.1622 17.5985 15.1948 17.6142 15.2146 17.6237L15.2146 17.6237C15.2286 17.6305 15.2362 17.6341 15.2387 17.6334C15.2369 17.6338 15.2323 17.6375 15.2246 17.6438C15.2143 17.6521 15.1984 17.6651 15.1758 17.6808C15.1639 17.6892 15.126 17.7135 15.0842 17.7404L15.0841 17.7405L15.0841 17.7405L15.0841 17.7405L15.0839 17.7406C15.0344 17.7724 14.9794 17.8078 14.9554 17.8243C14.9108 17.855 14.8716 17.8846 14.8357 17.9153C14.744 17.9937 14.7183 17.994 14.671 17.9317C14.6341 17.8833 14.5931 17.8023 14.5335 17.6621C14.5232 17.638 14.4918 17.5618 14.4558 17.4743C14.4092 17.3613 14.3549 17.2295 14.3283 17.1666C14.1874 16.8335 14.0351 16.7587 13.8925 16.9574C13.8728 16.9849 13.8536 17.0167 13.8283 17.0621L13.8208 17.0757C13.8065 17.1017 13.7762 17.1568 13.7652 17.1761C13.6702 17.3429 13.5949 17.417 13.5047 17.417C13.4302 17.417 13.4101 17.4016 13.4052 17.3642C13.3989 17.316 13.4169 17.2391 13.4586 17.1293C13.4673 17.1064 13.4768 17.0826 13.489 17.0528C13.5802 16.8293 13.5866 16.8116 13.5866 16.7464C13.5866 16.4053 12.9828 16.4649 12.7101 16.8749C12.6869 16.9098 12.667 16.9326 12.6525 16.9439C12.6385 16.9223 12.6195 16.8673 12.6045 16.7862C12.5704 16.6023 12.5573 16.3253 12.5573 15.9592C12.5573 15.7273 12.4877 15.6046 12.3378 15.6714C12.27 15.7017 12.2675 15.7043 12.0639 15.9252C12.0185 15.9746 11.9844 16.0097 11.9516 16.0403C11.9092 16.0798 11.8725 16.1079 11.8409 16.1245C11.7943 16.1491 11.7765 16.1338 11.7513 16.0255C11.7253 15.9131 11.7167 15.7545 11.7168 15.4903L11.7171 15.3796L11.7175 15.2655C11.7175 15.078 11.6673 14.973 11.5449 14.973C11.503 14.973 11.4609 14.9872 11.4076 15.0143C11.389 15.0238 11.3694 15.0346 11.3433 15.0497L11.3333 15.0555L11.2775 15.0878C11.1646 15.1522 11.0897 15.1814 11.0192 15.1814C11.006 15.1814 10.9983 15.1835 10.9949 15.1844L10.9949 15.1844C10.9935 15.1848 10.9928 15.185 10.9927 15.1848C10.9925 15.1846 10.9931 15.184 10.9942 15.1826C10.9972 15.179 11.0045 15.1703 11.014 15.1515C11.0606 15.06 11.1858 14.9124 11.3871 14.7145L11.2738 14.593C11.0601 14.803 10.9259 14.9612 10.8687 15.0737C10.7896 15.2292 10.8509 15.3496 11.0192 15.3496C11.1256 15.3496 11.2214 15.3123 11.3572 15.2348C11.5142 15.1451 11.522 15.1412 11.5449 15.1412C11.5449 15.1412 11.5535 15.1592 11.5535 15.2655L11.5532 15.3789L11.5529 15.4902C11.5528 15.7679 11.5618 15.9348 11.5919 16.0645C11.6382 16.2641 11.7516 16.3608 11.9158 16.2741C11.9622 16.2497 12.0097 16.2134 12.0618 16.1648ZM12.4012 15.8257C12.4024 15.8259 12.4033 15.8259 12.4036 15.8257L12.4012 15.8257ZM15.064 17.3723C15.061 17.3703 15.0596 17.3691 15.0595 17.3689C15.0612 17.3758 15.0627 17.38 15.0653 17.3818L15.064 17.3723ZM17.9652 16.879L17.9634 16.8794L17.9646 16.8792L17.9652 16.879Z" fill="#F6E017"/>
<path fill-rule="evenodd" clip-rule="evenodd" d="M13.8327 19.7503C13.76 19.9465 13.6453 20.0115 13.5157 19.9134C13.4763 19.8836 13.438 19.8412 13.3847 19.7726L13.3727 19.7569C13.3443 19.7195 13.2736 19.6266 13.2476 19.5943C13.136 19.4553 13.0398 19.3683 12.9353 19.3238L12.9258 19.3197L12.9257 19.3197C12.7984 19.2654 12.771 19.2538 12.7441 19.241L12.7148 19.2268C12.5616 19.152 12.4742 19.0746 12.39 18.9296C12.3241 18.8162 12.2604 18.6627 12.1523 18.3657L12.3059 18.3069C12.4105 18.5944 12.4717 18.7416 12.5308 18.8435C12.5975 18.9584 12.6601 19.0138 12.7853 19.0749L12.8114 19.0876C12.837 19.0998 12.8631 19.1109 12.9893 19.1646L12.9893 19.1646L12.9982 19.1684C13.1329 19.2259 13.2469 19.3289 13.3741 19.4873C13.4025 19.5226 13.4784 19.6224 13.5042 19.6563L13.5042 19.6563L13.5128 19.6676C13.5576 19.7253 13.5885 19.7595 13.613 19.778C13.6263 19.7881 13.627 19.7888 13.6253 19.7898C13.6367 19.7829 13.6569 19.7513 13.6795 19.6905C13.7298 19.5549 13.6856 19.4498 13.5634 19.3404C13.5589 19.3363 13.5464 19.3263 13.53 19.3132L13.53 19.3132L13.53 19.3132L13.53 19.3132C13.4831 19.2756 13.4046 19.2127 13.3901 19.1911C13.3435 19.1218 13.3834 19.0515 13.4554 19.0324C13.4878 19.0237 13.5356 19.0205 13.6121 19.0205C13.8768 19.0205 13.9496 19.176 13.9987 19.5737L13.9995 19.5802C14.0382 19.8936 14.0773 19.9797 14.2111 19.9797C14.362 19.9797 14.4539 19.9196 14.6144 19.7483L14.6495 19.7107C14.854 19.4931 14.9972 19.4199 15.2377 19.4865C15.4298 19.5397 15.512 19.6341 15.5313 19.7806C15.5334 19.797 15.5345 19.8087 15.5366 19.8366C15.546 19.9601 15.5678 19.9797 15.8068 19.9797C15.9882 19.9797 16.1569 19.9894 16.377 20.0088L16.4036 20.0112C16.4552 20.0159 16.5649 20.0259 16.5979 20.0286C16.6695 20.0345 16.7204 20.0373 16.7606 20.0373C16.7892 20.0373 16.8112 20.0358 16.8263 20.0332C16.8325 19.985 16.8609 19.9511 16.9758 19.821C16.9891 19.806 16.9993 19.7942 17.0088 19.783C17.0625 19.7196 17.0862 19.6772 17.0847 19.6704C17.0845 19.6691 17.0364 19.6518 16.9067 19.6518C16.7876 19.6518 16.728 19.637 16.7172 19.5529C16.7082 19.4826 16.7488 19.4487 16.8389 19.4008C16.942 19.3459 17.13 19.2746 17.3555 19.2028C17.5726 19.1337 17.8018 19.0715 17.9761 19.0349C18.0704 19.0151 18.1471 19.0031 18.203 18.9999C18.3096 18.9939 18.373 19.0087 18.373 19.1047C18.373 19.1447 18.4855 19.2822 18.5977 19.3446C18.7317 19.4191 18.8268 19.3908 18.8925 19.2159C18.9883 18.9605 19.1881 18.6847 19.3828 18.5268C19.4873 18.4421 19.5835 18.3965 19.6666 18.404C19.7789 18.4141 19.8376 18.5105 19.8376 18.6561H19.6736C19.6736 18.5878 19.6644 18.5727 19.6523 18.5716C19.6214 18.5688 19.559 18.5984 19.4845 18.6588C19.3126 18.7982 19.1307 19.0494 19.0455 19.2764C18.9422 19.5516 18.7361 19.6129 18.5196 19.4925C18.3869 19.4187 18.26 19.2785 18.2211 19.1675C18.1657 19.1705 18.096 19.1815 18.009 19.1997C17.8403 19.2351 17.6163 19.2959 17.4041 19.3634C17.2636 19.4082 17.1383 19.4527 17.0424 19.4918C17.1594 19.5086 17.2271 19.5521 17.2448 19.634C17.2625 19.7158 17.2226 19.787 17.1326 19.8933C17.1222 19.9056 17.1112 19.9182 17.0973 19.934C17.0179 20.0238 16.9887 20.0623 16.9887 20.0638C16.9887 20.175 16.9042 20.2056 16.7606 20.2056C16.715 20.2056 16.6604 20.2025 16.5848 20.1963C16.5509 20.1935 16.439 20.1833 16.3881 20.1787L16.3629 20.1764C16.1471 20.1573 15.9826 20.1479 15.8068 20.1479C15.484 20.1479 15.3893 20.0628 15.3732 19.8497C15.3713 19.825 15.3704 19.8153 15.3688 19.8032C15.3584 19.7243 15.3239 19.6846 15.195 19.6489C15.0269 19.6023 14.9348 19.6494 14.7675 19.8275L14.7326 19.8648C14.5437 20.0665 14.4192 20.1479 14.2111 20.1479C13.9757 20.1479 13.8986 20.022 13.8497 19.6964C13.8452 19.714 13.8395 19.732 13.8327 19.7503ZM13.8464 19.6014L13.8454 19.5948C13.8299 19.4916 13.8139 19.4125 13.7935 19.3528C13.8745 19.4552 13.9027 19.5681 13.8621 19.6964C13.8566 19.6664 13.8514 19.6348 13.8464 19.6014ZM16.8453 19.4792L16.8493 19.4804L16.8473 19.4796L16.8453 19.4792ZM16.8421 20.0295L16.838 20.0309L16.8407 20.0303L16.8421 20.0295Z" fill="#F6E017"/>
</g>
</g>
</svg>
