<svg width="32" height="24" viewBox="0 0 32 24" fill="none" xmlns="http://www.w3.org/2000/svg">
<mask id="mask0_157_78198" style="mask-type:alpha" maskUnits="userSpaceOnUse" x="0" y="0" width="32" height="24">
<rect width="32" height="24" fill="white"/>
</mask>
<g mask="url(#mask0_157_78198)">
<path fill-rule="evenodd" clip-rule="evenodd" d="M0 0V24H32V0H0Z" fill="#0168B4"/>
<mask id="mask1_157_78198" style="mask-type:alpha" maskUnits="userSpaceOnUse" x="0" y="0" width="32" height="24">
<path fill-rule="evenodd" clip-rule="evenodd" d="M0 0V24H32V0H0Z" fill="white"/>
</mask>
<g mask="url(#mask1_157_78198)">
<path fill-rule="evenodd" clip-rule="evenodd" d="M0 0V3H32V0H0Z" fill="#E93C43"/>
<path fill-rule="evenodd" clip-rule="evenodd" d="M0 21V24H32V21H0Z" fill="#E93C43"/>
<path d="M16 18C12.6863 18 10 15.3137 10 12C10 8.68629 12.6863 6 16 6C19.3137 6 22 8.68629 22 12C22 15.3137 19.3137 18 16 18Z" fill="#F7FCFF"/>
<path d="M16 20C11.5817 20 8 16.4183 8 12C8 7.58172 11.5817 4 16 4C20.4183 4 24 7.58172 24 12C24 16.4183 20.4183 20 16 20Z" fill="white"/>
<path fill-rule="evenodd" clip-rule="evenodd" d="M16 19C19.866 19 23 15.866 23 12C23 8.13401 19.866 5 16 5C12.134 5 9 8.13401 9 12C9 15.866 12.134 19 16 19Z" stroke="#9C4C17" stroke-width="0.5"/>
<path fill-rule="evenodd" clip-rule="evenodd" d="M15.5729 4.08276L15.4176 4.41765C15.6738 4.55674 15.7709 4.87152 15.7709 5.06221C15.7709 5.25094 15.6708 5.3949 15.4176 5.5271L15.5729 5.87327C15.679 5.81787 15.7839 5.77127 15.883 5.7272C16.2387 5.56921 16.5209 5.44384 16.5209 5.06221C16.5209 4.59591 16.0934 4.36451 15.6318 4.11468L15.5729 4.08276ZM17.8133 4.29262L17.5718 4.57175C17.7796 4.77604 17.7863 5.10541 17.7337 5.28871C17.6817 5.47013 17.5457 5.5809 17.266 5.63821L17.3198 6.01376C17.437 5.98974 17.5507 5.97386 17.6582 5.95885C18.0436 5.90501 18.3495 5.86228 18.4546 5.49544C18.5832 5.0472 18.236 4.70692 17.8611 4.33954L17.8133 4.29262ZM19.6082 5.32231L19.9207 5.126L19.9528 5.18485C20.2038 5.64577 20.4364 6.0727 20.1824 6.46378C19.9745 6.78383 19.6696 6.73527 19.2852 6.67407C19.1781 6.657 19.0647 6.63895 18.9456 6.62764L19.0039 6.25277C19.2882 6.27976 19.4506 6.21357 19.5534 6.0553C19.6573 5.89537 19.7472 5.57845 19.6082 5.32231ZM21.6917 6.51504L21.3371 6.61759C21.4001 6.90214 21.2263 7.18198 21.0824 7.30708C20.94 7.4309 20.7656 7.44976 20.4998 7.34545L20.3404 7.68972C20.4518 7.73343 20.5558 7.78202 20.6541 7.82797L20.6541 7.82798C21.0066 7.99274 21.2864 8.12348 21.5744 7.87312C21.9264 7.56719 21.8205 7.09271 21.7062 6.58044L21.6917 6.51504ZM22.6314 8.34614L23.0005 8.3453L22.9964 8.41218C22.9651 8.9361 22.9361 9.42138 22.5135 9.61845C22.1676 9.77973 21.9347 9.57693 21.6412 9.32138C21.5593 9.2501 21.4728 9.17473 21.3777 9.102L21.6259 8.81501C21.8526 8.98855 22.0254 9.01848 22.1965 8.93872C22.3693 8.85813 22.6135 8.63704 22.6314 8.34614ZM23.7511 10.4834L23.3978 10.3763C23.2958 10.6493 22.9976 10.7893 22.8087 10.8159C22.6218 10.8421 22.4653 10.763 22.2992 10.5307L21.978 10.7326C22.0476 10.83 22.1084 10.9274 22.1658 11.0195C22.3718 11.3497 22.5352 11.6117 22.9131 11.5586C23.3749 11.4937 23.5445 11.0381 23.7277 10.5462L23.7511 10.4834ZM23.5514 12.531L23.8614 12.7313L23.8216 12.7852C23.51 13.2075 23.2213 13.5987 22.7596 13.5338C22.3816 13.4807 22.2968 13.1837 22.1898 12.8096C22.16 12.7052 22.1284 12.5949 22.0883 12.4821L22.4527 12.3765C22.5484 12.6456 22.6771 12.7648 22.8639 12.7911C23.0528 12.8176 23.378 12.7652 23.5514 12.531ZM23.3355 14.936L23.0976 14.6538C22.8633 14.8271 22.537 14.7821 22.3641 14.7016C22.1931 14.6218 22.105 14.4702 22.0921 14.1849L21.7128 14.1793C21.7182 14.2989 21.7161 14.4136 21.7141 14.5221C21.707 14.9112 21.7013 15.22 22.0472 15.3813C22.4698 15.5784 22.8602 15.2887 23.2817 14.9759L23.3355 14.936ZM22.0609 16.5496L22.2118 16.8864L22.1491 16.91C21.6577 17.0944 21.2025 17.2653 20.8506 16.9594C20.5626 16.709 20.6531 16.4137 20.7672 16.0417C20.7991 15.9379 20.8327 15.8282 20.8605 15.7118L21.2236 15.8217C21.1573 16.0995 21.2002 16.2695 21.3427 16.3933C21.4866 16.5184 21.7879 16.6516 22.0609 16.5496ZM20.5857 18.442L20.5334 18.0766C20.2429 18.0995 19.99 17.8884 19.8861 17.7285C19.7833 17.5702 19.7889 17.3949 19.9292 17.1462L19.6105 16.9404C19.5517 17.0446 19.4891 17.1408 19.4299 17.2318C19.2177 17.558 19.0493 17.8169 19.2571 18.1369C19.5111 18.528 19.9957 18.4892 20.5189 18.4474L20.5857 18.442ZM18.6323 19.124L18.5754 19.4887L18.51 19.4742C17.9974 19.3613 17.5226 19.2567 17.3941 18.8085C17.2889 18.4417 17.5256 18.2433 17.824 17.9934C17.9072 17.9237 17.9952 17.85 18.0819 17.7675L18.3265 18.0575C18.1196 18.2544 18.063 18.4204 18.115 18.6018C18.1676 18.7851 18.3478 19.0609 18.6323 19.124ZM16.3657 19.9171L16.5209 19.5822C16.2648 19.4431 16.1676 19.1283 16.1676 18.9376C16.1676 18.7489 16.2678 18.6049 16.5209 18.4727L16.3657 18.1266C16.2596 18.182 16.1547 18.2286 16.0555 18.2726L16.0555 18.2726L16.0555 18.2726C15.6999 18.4306 15.4176 18.556 15.4176 18.9376C15.4176 19.4039 15.8452 19.6353 16.3068 19.8851L16.3657 19.9171ZM14.3668 19.4281L14.1253 19.7072L14.0774 19.6603C13.7026 19.2929 13.3554 18.9526 13.4839 18.5044C13.5891 18.1375 13.895 18.0948 14.2804 18.041L14.2804 18.041C14.3879 18.026 14.5016 18.0101 14.6188 17.9861L14.6726 18.3616C14.3928 18.4189 14.2569 18.5297 14.2049 18.7111C14.1523 18.8944 14.1589 19.2238 14.3668 19.4281ZM12.0178 18.8738L12.3304 18.6775C12.1914 18.4214 12.2813 18.1045 12.3852 17.9445C12.488 17.7863 12.6504 17.7201 12.9347 17.7471L12.993 17.3722C12.8739 17.3609 12.7605 17.3428 12.6533 17.3258C12.269 17.2646 11.964 17.216 11.7562 17.5361C11.5022 17.9271 11.7347 18.3541 11.9858 18.815L12.0178 18.8738ZM10.6015 17.3822L10.2469 17.4848L10.2323 17.4194C10.1181 16.9071 10.0122 16.4326 10.3641 16.1267C10.6521 15.8763 10.9319 16.0071 11.2845 16.1719C11.3828 16.2178 11.4868 16.2664 11.5982 16.3101L11.4388 16.6544C11.173 16.5501 10.9986 16.5689 10.8562 16.6927C10.7123 16.8179 10.5384 17.0977 10.6015 17.3822ZM8.93809 15.6545L9.30721 15.6537C9.32502 15.3628 9.56925 15.1417 9.74208 15.0611C9.91312 14.9814 10.0859 15.0113 10.3127 15.1848L10.5608 14.8978C10.4658 14.8251 10.3792 14.7497 10.2974 14.6785C10.0039 14.4229 9.77098 14.2201 9.42512 14.3814C9.0025 14.5784 8.97347 15.0637 8.94213 15.5877L8.93809 15.6545ZM8.54072 13.6235L8.18749 13.5164L8.2109 13.4536C8.39405 12.9617 8.5637 12.5061 9.02546 12.4412C9.40337 12.3881 9.56681 12.6502 9.77276 12.9804C9.83019 13.0725 9.89094 13.1699 9.96057 13.2672L9.63937 13.4691C9.47323 13.2368 9.31673 13.1577 9.12984 13.1839C8.94101 13.2105 8.64281 13.3505 8.54072 13.6235ZM8.07715 11.2685L8.38718 11.4689C8.56055 11.2346 8.88579 11.1822 9.07463 11.2087C9.26152 11.235 9.39014 11.3542 9.48582 11.6233L9.85023 11.5177C9.81013 11.405 9.77858 11.2946 9.74875 11.1903L9.74875 11.1903C9.64179 10.8161 9.55692 10.5192 9.17901 10.466C8.71724 10.4011 8.42859 10.7923 8.11696 11.2147L8.07715 11.2685ZM8.84095 9.34605L8.60304 9.06383L8.65686 9.02393C9.07836 8.71117 9.46877 8.42147 9.89138 8.61854C10.2373 8.77982 10.2316 9.08859 10.2245 9.47769C10.2225 9.58621 10.2204 9.70097 10.2258 9.82053L9.84644 9.81492C9.8336 9.52964 9.74546 9.37803 9.57442 9.29827C9.40159 9.21768 9.07524 9.1727 8.84095 9.34605ZM9.72676 7.11338L9.87767 7.45025C10.1507 7.3482 10.452 7.48139 10.5959 7.60649C10.7383 7.73031 10.7813 7.90034 10.715 8.17811L11.0781 8.28806C11.1059 8.17165 11.1395 8.06191 11.1713 7.95814C11.2854 7.58608 11.376 7.29083 11.0879 7.04046C10.736 6.73454 10.2809 6.9054 9.7895 7.08986L9.72676 7.11338ZM11.4051 5.9232L11.3529 5.55779L11.4197 5.55248C11.9429 5.5106 12.4275 5.47181 12.6815 5.86289C12.8893 6.18294 12.7209 6.4418 12.5087 6.76801C12.4495 6.85898 12.3869 6.9552 12.3281 7.05944L12.0094 6.85366C12.1497 6.60493 12.1552 6.42964 12.0525 6.27137C11.9486 6.11144 11.6957 5.90036 11.4051 5.9232ZM13.3632 4.51115L13.3063 4.87585C13.5908 4.93895 13.771 5.21476 13.8235 5.39806C13.8755 5.57948 13.8189 5.74546 13.6121 5.94232L13.8567 6.23229C13.9434 6.14979 14.0314 6.07608 14.1146 6.00639C14.4129 5.75649 14.6497 5.55818 14.5445 5.19134C14.4159 4.7431 13.9412 4.63851 13.4286 4.52559C13.4068 4.5208 13.385 4.51599 13.3632 4.51115Z" fill="#5B8C39"/>
<path fill-rule="evenodd" clip-rule="evenodd" d="M12.2788 13.9869C12.2788 13.9869 11.179 13.9628 11.179 14.4681C11.179 14.9734 11.179 15.5332 11.7289 15.2533C12.2788 14.9734 12.9511 14.8628 13.3067 15.058C13.6623 15.2533 14.4909 15.65 15.659 15.65C16.827 15.65 16.7491 15.2533 17.8248 15.2533C18.9006 15.2533 20.8212 15.1676 20.3764 14.8179C19.9316 14.4681 19.4081 14.2467 19.0084 14.2467C18.6087 14.2467 18.3023 14.2467 17.4619 13.8349C16.6216 13.423 15.6834 13.3857 14.7381 13.5185C13.7928 13.6513 13.668 13.9869 13.109 13.9869C12.5499 13.9869 12.2788 13.9869 12.2788 13.9869Z" fill="#247805"/>
<path d="M16.0998 15.65C16.1703 15.8898 16.1704 15.8898 16.1705 15.8897L16.1708 15.8897L16.1715 15.8895L16.1734 15.8889L16.1794 15.8871L16.1997 15.8806C16.2169 15.875 16.2412 15.8669 16.2715 15.856C16.332 15.8342 16.4171 15.8013 16.5185 15.756C16.7206 15.6656 16.9913 15.524 17.2634 15.3189C17.8083 14.9084 18.3761 14.2277 18.3761 13.1917V13.1838V13.1758V13.1679V13.1599V13.152V13.144V13.1361V13.1282V13.1203V13.1123V13.1044V13.0965V13.0886V13.0807V13.0729V13.065V13.0571V13.0492V13.0414V13.0335V13.0257V13.0178V13.01V13.0021V12.9943V12.9865V12.9787V12.9709V12.9631V12.9553V12.9475V12.9397V12.9319V12.9242V12.9164V12.9086V12.9009V12.8931V12.8854V12.8777V12.87V12.8622V12.8545V12.8468V12.8391V12.8314V12.8238V12.8161V12.8084V12.8008V12.7931V12.7855V12.7778V12.7702V12.7626V12.755V12.7474V12.7397V12.7322V12.7246V12.717V12.7094V12.7019V12.6943V12.6868V12.6792V12.6717V12.6642V12.6567V12.6491V12.6416V12.6342V12.6267V12.6192V12.6117V12.6043V12.5968V12.5894V12.5819V12.5745V12.5671V12.5597V12.5523V12.5449V12.5375V12.5302V12.5228V12.5154V12.5081V12.5007V12.4934V12.4861V12.4788V12.4715V12.4642V12.4569V12.4496V12.4424V12.4351V12.4278V12.4206V12.4134V12.4062V12.3989V12.3917V12.3846V12.3774V12.3702V12.363V12.3559V12.3487V12.3416V12.3345V12.3274V12.3203V12.3132V12.3061V12.299V12.2919V12.2849V12.2778V12.2708V12.2638V12.2568V12.2498V12.2428V12.2358V12.2288V12.2218V12.2149V12.2079V12.201V12.1941V12.1872V12.1803V12.1734V12.1665V12.1596V12.1528V12.1459V12.1391V12.1323V12.1255V12.1187V12.1119V12.1051V12.0983V12.0916V12.0848V12.0781V12.0713V12.0646V12.0579V12.0512V12.0446V12.0379V12.0312V12.0246V12.018V12.0113V12.0047V11.9981V11.9915V11.985V11.9784V11.9718V11.9653V11.9588V11.9523V11.9458V11.9393V11.9328V11.9263V11.9199V11.9134V11.907V11.9006V11.8942V11.8878V11.8814V11.875V11.8687V11.8623V11.856V11.8497V11.8434V11.8371V11.8308V11.8245V11.8183V11.812V11.8058V11.7996V11.7934V11.7872V11.781V11.7749V11.7687V11.7626V11.7565V11.7504V11.7443V11.7382V11.7321V11.7261V11.72V11.714V11.708V11.702V11.696V11.69V11.684V11.6781V11.6722V11.6662V11.6603V11.6544V11.6486V11.6427V11.6369V11.631V11.6252V11.6194V11.6136V11.6078V11.6021V11.5963V11.5906V11.5848V11.5791V11.5734V11.5678V11.5621V11.5565V11.5508V11.5452V11.5396V11.534V11.5284V11.5229V11.5173V11.5118V11.5063V11.5008V11.4953V11.4898V11.4844V11.4789V11.4735V11.4681V11.4627V11.4573V11.452V11.4466V11.4413V11.436V11.4307V11.4254V11.4201V11.4149V11.4096V11.4044V11.3992V11.394V11.3888V11.3837V11.3785V11.3734V11.3683V11.3632V11.3581V11.3531V11.348V11.343V11.338V11.333V11.328V11.323V11.3181V11.3131V11.3082V11.3033V11.2985V11.2936V11.2887V11.2839V11.2791V11.2743V11.2695V11.2647V11.26V11.2553V11.2506V11.2459V11.2412V11.2365V11.2319V11.2272V11.2226V11.218V11.2135V11.2089V11.2044V11.1998V11.1953V11.1908V11.1864V11.1819V11.1775V11.1731V11.1687V11.1643V11.1599V11.1556V11.1512V11.1469V11.1426V11.1384V11.1341V11.1299V11.1256V11.1214V11.1173V11.1131V11.1089V11.1048V11.1007V11.0966V11.0925V11.0885V11.0844V11.0804V11.0764V11.0724V11.0685V11.0645V11.0337V11.0299V11.0261V11.0224V11.0187V11.015V11.0113V11.0077V11.004V11.0004V10.9968V10.9932V10.9897V10.9861V10.9826V10.9791V10.9756V10.9722V10.9687V10.9653V10.9619V10.9585V10.9552V10.9518V10.9485V10.9452V10.9419V10.9386V10.9354V10.9322V10.929V10.9258V10.9226V10.9195V10.9164V10.9133V10.9102V10.9071V10.9041V10.9011V10.8981V10.8951V10.8922V10.8892V10.8863V10.8834V10.8806V10.8777V10.8749V10.8721V10.8693V10.8665V10.8638V10.861V10.8583V10.8557V10.853V10.8504V10.8478V10.8452V10.8426V10.84V10.8375V10.835V10.8325V10.83V10.8276V10.8252V10.8228V10.8204V10.818V10.8157V10.8134V10.8111V10.8088V10.8066V10.8044V10.8022V10.8V10.7978V10.7957V10.7936V10.7915V10.7894V10.7874V10.7854V10.7834V10.7814V10.7794V10.7775V10.7756V10.7737V10.7718V10.77V10.7682V10.7664V10.7646V10.7629V10.7611V10.7594V10.7577V10.7561V10.7545V10.7528V10.7513V10.7497V10.7481V10.7466V10.7451V10.7437V10.7422V10.7408V10.7394V10.738V10.7367V10.7353V10.734V10.7328V10.7315V10.7303V10.7291V10.7279V10.7267V10.7256V10.7245V10.7234V10.7223V10.7213V10.7202V10.7193V10.7183V10.7173V10.7164V10.7155V10.7147V10.7138V10.713V10.7122V10.7114V10.7107V10.71V10.7093V10.7086V10.7079V10.7073V10.7067V10.7062V10.7056V10.7051V10.7046V10.7041V10.7037V10.7032V10.7028V10.7025V10.7021V10.7018V10.7015V10.7012V10.701V10.7008V10.7006V10.7004V10.7003V10.7002V10.7001V10.7V10.7L18.1261 10.7H18.3761V10.45H18.1261H14.0735H13.8235V10.7H14.0735L13.8235 10.7V10.7V10.7001V10.7002V10.7003V10.7005V10.7007V10.7009V10.7012V10.7015V10.7018V10.7022V10.7025V10.7029V10.7034V10.7039V10.7043V10.7049V10.7054V10.706V10.7066V10.7073V10.708V10.7087V10.7094V10.7102V10.711V10.7118V10.7126V10.7135V10.7144V10.7154V10.7163V10.7173V10.7183V10.7194V10.7205V10.7216V10.7227V10.7239V10.7251V10.7263V10.7275V10.7288V10.7301V10.7314V10.7328V10.7342V10.7356V10.737V10.7385V10.74V10.7415V10.7431V10.7447V10.7463V10.7479V10.7496V10.7512V10.753V10.7547V10.7565V10.7582V10.7601V10.7619V10.7638V10.7657V10.7676V10.7696V10.7715V10.7735V10.7756V10.7776V10.7797V10.7818V10.7839V10.7861V10.7883V10.7905V10.7927V10.795V10.7972V10.7995V10.8019V10.8042V10.8066V10.809V10.8115V10.8139V10.8164V10.8189V10.8214V10.824V10.8266V10.8292V10.8318V10.8345V10.8371V10.8398V10.8426V10.8453V10.8481V10.8509V10.8537V10.8565V10.8594V10.8623V10.8652V10.8682V10.8711V10.8741V10.8771V10.8801V10.8832V10.8863V10.8894V10.8925V10.8956V10.8988V10.902V10.9052V10.9084V10.9117V10.915V10.9183V10.9216V10.9249V10.9283V10.9317V10.9351V10.9385V10.942V10.9455V10.949V10.9525V10.956V10.9596V10.9632V10.9668V10.9704V10.9741V10.9777V10.9814V10.9851V10.9889V10.9926V10.9964V11.0002V11.004V11.0078V11.0117V11.0156V11.0195V11.0234V11.0273V11.0313V11.0353V11.0393V11.0433V11.0473V11.0514V11.0554V11.0595V11.0636V11.0678V11.0719V11.0761V11.0803V11.0845V11.0887V11.093V11.0973V11.1016V11.1059V11.1102V11.1145V11.1189V11.1233V11.1277V11.1321V11.1365V11.141V11.1455V11.1499V11.1545V11.159V11.1635V11.1681V11.1727V11.1773V11.1819V11.1865V11.1912V11.1958V11.2005V11.2052V11.21V11.2147V11.2195V11.2242V11.229V11.2338V11.2386V11.2435V11.2483V11.2532V11.2581V11.263V11.2679V11.2729V11.2778V11.2828V11.2878V11.2928V11.2978V11.3028V11.3079V11.313V11.318V11.3231V11.3283V11.3334V11.3385V11.3437V11.3489V11.3541V11.3593V11.3645V11.3697V11.375V11.3803V11.3855V11.3908V11.3961V11.4015V11.4068V11.4122V11.4175V11.4229V11.4283V11.4337V11.4391V11.4446V11.45V11.4555V11.461V11.4665V11.472V11.4775V11.4831V11.4886V11.4942V11.4997V11.5053V11.5109V11.5166V11.5222V11.5278V11.5335V11.5392V11.5448V11.5505V11.5562V11.562V11.5677V11.5734V11.5792V11.585V11.5907V11.5965V11.6023V11.6082V11.614V11.6198V11.6257V11.6316V11.6374V11.6433V11.6492V11.6551V11.6611V11.667V11.6729V11.6789V11.6849V11.6908V11.6968V11.7028V11.7088V11.7149V11.7209V11.7269V11.733V11.7391V11.7451V11.7512V11.7573V11.7634V11.7696V11.7757V11.7818V11.788V11.7941V11.8003V11.8065V11.8127V11.8189V11.8251V11.8313V11.8375V11.8437V11.85V11.8562V11.8625V11.8688V11.875V11.8813V11.8876V11.8939V11.9003V11.9066V11.9129V11.9192V11.9256V11.932V11.9383V11.9447V11.9511V11.9575V11.9639V11.9703V11.9767V11.9831V11.9895V11.996V12.0024V12.0089V12.0153V12.0218V12.0283V12.0348V12.0413V12.0478V12.0543V12.0608V12.0673V12.0738V12.0804V12.0869V12.0934V12.1V12.1065V12.1131V12.1197V12.1263V12.1328V12.1394V12.146V12.1526V12.1592V12.1659V12.1725V12.1791V12.1857V12.1924V12.199V12.2057V12.2123V12.219V12.2256V12.2323V12.239V12.2457V12.2523V12.259V12.2657V12.2724V12.2791V12.2858V12.2926V12.2993V12.306V12.3127V12.3195V12.3262V12.3329V12.3397V12.3464V12.3532V12.3599V12.3667V12.3734V12.3802V12.387V12.3938V12.4005V12.4073V12.4141V12.4209V12.4277V12.4345V12.4413V12.4481V12.4549V12.4617V12.4685V12.4753V12.4821V12.4889V12.4957V12.5026V12.5094V12.5162V12.523V12.5299V12.5367V12.5435V12.5504V12.5572V12.564V12.5709V12.5777V12.5846V12.5914V12.5983V12.6051V12.612V12.6188V12.6257V12.6325V12.6394V12.6462V12.6531V12.6599V12.6668V12.6737V12.6805V12.6874V12.6942V12.7011V12.708V12.7148V12.7217V12.7286V12.756V12.8109V12.8383V12.852V12.8657V12.8931V12.9205V12.9478V12.9751V13.0296V13.0839V13.1109V13.1379V13.1917C13.8235 14.2017 14.3932 14.8816 14.9345 15.2969C15.2056 15.5049 15.4754 15.6516 15.6769 15.7463C15.7779 15.7937 15.8626 15.8285 15.9229 15.8518C15.9531 15.8634 15.9772 15.8721 15.9942 15.8781L16.0144 15.885L16.0203 15.887L16.0222 15.8876L16.0229 15.8878L16.0231 15.8879C16.0232 15.8879 16.0233 15.888 16.0998 15.65ZM16.0998 15.65L16.1703 15.8898L16.0965 15.9115L16.0233 15.888L16.0998 15.65Z" fill="white" stroke="#565656" stroke-width="0.5"/>
<mask id="mask2_157_78198" style="mask-type:alpha" maskUnits="userSpaceOnUse" x="13" y="10" width="6" height="7">
<path d="M16.0998 15.65C16.1703 15.8898 16.1704 15.8898 16.1705 15.8897L16.1708 15.8897L16.1715 15.8895L16.1734 15.8889L16.1794 15.8871L16.1997 15.8806C16.2169 15.875 16.2412 15.8669 16.2715 15.856C16.332 15.8342 16.4171 15.8013 16.5185 15.756C16.7206 15.6656 16.9913 15.524 17.2634 15.3189C17.8083 14.9084 18.3761 14.2277 18.3761 13.1917V13.1838V13.1758V13.1679V13.1599V13.152V13.144V13.1361V13.1282V13.1203V13.1123V13.1044V13.0965V13.0886V13.0807V13.0729V13.065V13.0571V13.0492V13.0414V13.0335V13.0257V13.0178V13.01V13.0021V12.9943V12.9865V12.9787V12.9709V12.9631V12.9553V12.9475V12.9397V12.9319V12.9242V12.9164V12.9086V12.9009V12.8931V12.8854V12.8777V12.87V12.8622V12.8545V12.8468V12.8391V12.8314V12.8238V12.8161V12.8084V12.8008V12.7931V12.7855V12.7778V12.7702V12.7626V12.755V12.7474V12.7397V12.7322V12.7246V12.717V12.7094V12.7019V12.6943V12.6868V12.6792V12.6717V12.6642V12.6567V12.6491V12.6416V12.6342V12.6267V12.6192V12.6117V12.6043V12.5968V12.5894V12.5819V12.5745V12.5671V12.5597V12.5523V12.5449V12.5375V12.5302V12.5228V12.5154V12.5081V12.5007V12.4934V12.4861V12.4788V12.4715V12.4642V12.4569V12.4496V12.4424V12.4351V12.4278V12.4206V12.4134V12.4062V12.3989V12.3917V12.3846V12.3774V12.3702V12.363V12.3559V12.3487V12.3416V12.3345V12.3274V12.3203V12.3132V12.3061V12.299V12.2919V12.2849V12.2778V12.2708V12.2638V12.2568V12.2498V12.2428V12.2358V12.2288V12.2218V12.2149V12.2079V12.201V12.1941V12.1872V12.1803V12.1734V12.1665V12.1596V12.1528V12.1459V12.1391V12.1323V12.1255V12.1187V12.1119V12.1051V12.0983V12.0916V12.0848V12.0781V12.0713V12.0646V12.0579V12.0512V12.0446V12.0379V12.0312V12.0246V12.018V12.0113V12.0047V11.9981V11.9915V11.985V11.9784V11.9718V11.9653V11.9588V11.9523V11.9458V11.9393V11.9328V11.9263V11.9199V11.9134V11.907V11.9006V11.8942V11.8878V11.8814V11.875V11.8687V11.8623V11.856V11.8497V11.8434V11.8371V11.8308V11.8245V11.8183V11.812V11.8058V11.7996V11.7934V11.7872V11.781V11.7749V11.7687V11.7626V11.7565V11.7504V11.7443V11.7382V11.7321V11.7261V11.72V11.714V11.708V11.702V11.696V11.69V11.684V11.6781V11.6722V11.6662V11.6603V11.6544V11.6486V11.6427V11.6369V11.631V11.6252V11.6194V11.6136V11.6078V11.6021V11.5963V11.5906V11.5848V11.5791V11.5734V11.5678V11.5621V11.5565V11.5508V11.5452V11.5396V11.534V11.5284V11.5229V11.5173V11.5118V11.5063V11.5008V11.4953V11.4898V11.4844V11.4789V11.4735V11.4681V11.4627V11.4573V11.452V11.4466V11.4413V11.436V11.4307V11.4254V11.4201V11.4149V11.4096V11.4044V11.3992V11.394V11.3888V11.3837V11.3785V11.3734V11.3683V11.3632V11.3581V11.3531V11.348V11.343V11.338V11.333V11.328V11.323V11.3181V11.3131V11.3082V11.3033V11.2985V11.2936V11.2887V11.2839V11.2791V11.2743V11.2695V11.2647V11.26V11.2553V11.2506V11.2459V11.2412V11.2365V11.2319V11.2272V11.2226V11.218V11.2135V11.2089V11.2044V11.1998V11.1953V11.1908V11.1864V11.1819V11.1775V11.1731V11.1687V11.1643V11.1599V11.1556V11.1512V11.1469V11.1426V11.1384V11.1341V11.1299V11.1256V11.1214V11.1173V11.1131V11.1089V11.1048V11.1007V11.0966V11.0925V11.0885V11.0844V11.0804V11.0764V11.0724V11.0685V11.0645V11.0337V11.0299V11.0261V11.0224V11.0187V11.015V11.0113V11.0077V11.004V11.0004V10.9968V10.9932V10.9897V10.9861V10.9826V10.9791V10.9756V10.9722V10.9687V10.9653V10.9619V10.9585V10.9552V10.9518V10.9485V10.9452V10.9419V10.9386V10.9354V10.9322V10.929V10.9258V10.9226V10.9195V10.9164V10.9133V10.9102V10.9071V10.9041V10.9011V10.8981V10.8951V10.8922V10.8892V10.8863V10.8834V10.8806V10.8777V10.8749V10.8721V10.8693V10.8665V10.8638V10.861V10.8583V10.8557V10.853V10.8504V10.8478V10.8452V10.8426V10.84V10.8375V10.835V10.8325V10.83V10.8276V10.8252V10.8228V10.8204V10.818V10.8157V10.8134V10.8111V10.8088V10.8066V10.8044V10.8022V10.8V10.7978V10.7957V10.7936V10.7915V10.7894V10.7874V10.7854V10.7834V10.7814V10.7794V10.7775V10.7756V10.7737V10.7718V10.77V10.7682V10.7664V10.7646V10.7629V10.7611V10.7594V10.7577V10.7561V10.7545V10.7528V10.7513V10.7497V10.7481V10.7466V10.7451V10.7437V10.7422V10.7408V10.7394V10.738V10.7367V10.7353V10.734V10.7328V10.7315V10.7303V10.7291V10.7279V10.7267V10.7256V10.7245V10.7234V10.7223V10.7213V10.7202V10.7193V10.7183V10.7173V10.7164V10.7155V10.7147V10.7138V10.713V10.7122V10.7114V10.7107V10.71V10.7093V10.7086V10.7079V10.7073V10.7067V10.7062V10.7056V10.7051V10.7046V10.7041V10.7037V10.7032V10.7028V10.7025V10.7021V10.7018V10.7015V10.7012V10.701V10.7008V10.7006V10.7004V10.7003V10.7002V10.7001V10.7V10.7L18.1261 10.7H18.3761V10.45H18.1261H14.0735H13.8235V10.7H14.0735L13.8235 10.7V10.7V10.7001V10.7002V10.7003V10.7005V10.7007V10.7009V10.7012V10.7015V10.7018V10.7022V10.7025V10.7029V10.7034V10.7039V10.7043V10.7049V10.7054V10.706V10.7066V10.7073V10.708V10.7087V10.7094V10.7102V10.711V10.7118V10.7126V10.7135V10.7144V10.7154V10.7163V10.7173V10.7183V10.7194V10.7205V10.7216V10.7227V10.7239V10.7251V10.7263V10.7275V10.7288V10.7301V10.7314V10.7328V10.7342V10.7356V10.737V10.7385V10.74V10.7415V10.7431V10.7447V10.7463V10.7479V10.7496V10.7512V10.753V10.7547V10.7565V10.7582V10.7601V10.7619V10.7638V10.7657V10.7676V10.7696V10.7715V10.7735V10.7756V10.7776V10.7797V10.7818V10.7839V10.7861V10.7883V10.7905V10.7927V10.795V10.7972V10.7995V10.8019V10.8042V10.8066V10.809V10.8115V10.8139V10.8164V10.8189V10.8214V10.824V10.8266V10.8292V10.8318V10.8345V10.8371V10.8398V10.8426V10.8453V10.8481V10.8509V10.8537V10.8565V10.8594V10.8623V10.8652V10.8682V10.8711V10.8741V10.8771V10.8801V10.8832V10.8863V10.8894V10.8925V10.8956V10.8988V10.902V10.9052V10.9084V10.9117V10.915V10.9183V10.9216V10.9249V10.9283V10.9317V10.9351V10.9385V10.942V10.9455V10.949V10.9525V10.956V10.9596V10.9632V10.9668V10.9704V10.9741V10.9777V10.9814V10.9851V10.9889V10.9926V10.9964V11.0002V11.004V11.0078V11.0117V11.0156V11.0195V11.0234V11.0273V11.0313V11.0353V11.0393V11.0433V11.0473V11.0514V11.0554V11.0595V11.0636V11.0678V11.0719V11.0761V11.0803V11.0845V11.0887V11.093V11.0973V11.1016V11.1059V11.1102V11.1145V11.1189V11.1233V11.1277V11.1321V11.1365V11.141V11.1455V11.1499V11.1545V11.159V11.1635V11.1681V11.1727V11.1773V11.1819V11.1865V11.1912V11.1958V11.2005V11.2052V11.21V11.2147V11.2195V11.2242V11.229V11.2338V11.2386V11.2435V11.2483V11.2532V11.2581V11.263V11.2679V11.2729V11.2778V11.2828V11.2878V11.2928V11.2978V11.3028V11.3079V11.313V11.318V11.3231V11.3283V11.3334V11.3385V11.3437V11.3489V11.3541V11.3593V11.3645V11.3697V11.375V11.3803V11.3855V11.3908V11.3961V11.4015V11.4068V11.4122V11.4175V11.4229V11.4283V11.4337V11.4391V11.4446V11.45V11.4555V11.461V11.4665V11.472V11.4775V11.4831V11.4886V11.4942V11.4997V11.5053V11.5109V11.5166V11.5222V11.5278V11.5335V11.5392V11.5448V11.5505V11.5562V11.562V11.5677V11.5734V11.5792V11.585V11.5907V11.5965V11.6023V11.6082V11.614V11.6198V11.6257V11.6316V11.6374V11.6433V11.6492V11.6551V11.6611V11.667V11.6729V11.6789V11.6849V11.6908V11.6968V11.7028V11.7088V11.7149V11.7209V11.7269V11.733V11.7391V11.7451V11.7512V11.7573V11.7634V11.7696V11.7757V11.7818V11.788V11.7941V11.8003V11.8065V11.8127V11.8189V11.8251V11.8313V11.8375V11.8437V11.85V11.8562V11.8625V11.8688V11.875V11.8813V11.8876V11.8939V11.9003V11.9066V11.9129V11.9192V11.9256V11.932V11.9383V11.9447V11.9511V11.9575V11.9639V11.9703V11.9767V11.9831V11.9895V11.996V12.0024V12.0089V12.0153V12.0218V12.0283V12.0348V12.0413V12.0478V12.0543V12.0608V12.0673V12.0738V12.0804V12.0869V12.0934V12.1V12.1065V12.1131V12.1197V12.1263V12.1328V12.1394V12.146V12.1526V12.1592V12.1659V12.1725V12.1791V12.1857V12.1924V12.199V12.2057V12.2123V12.219V12.2256V12.2323V12.239V12.2457V12.2523V12.259V12.2657V12.2724V12.2791V12.2858V12.2926V12.2993V12.306V12.3127V12.3195V12.3262V12.3329V12.3397V12.3464V12.3532V12.3599V12.3667V12.3734V12.3802V12.387V12.3938V12.4005V12.4073V12.4141V12.4209V12.4277V12.4345V12.4413V12.4481V12.4549V12.4617V12.4685V12.4753V12.4821V12.4889V12.4957V12.5026V12.5094V12.5162V12.523V12.5299V12.5367V12.5435V12.5504V12.5572V12.564V12.5709V12.5777V12.5846V12.5914V12.5983V12.6051V12.612V12.6188V12.6257V12.6325V12.6394V12.6462V12.6531V12.6599V12.6668V12.6737V12.6805V12.6874V12.6942V12.7011V12.708V12.7148V12.7217V12.7286V12.756V12.8109V12.8383V12.852V12.8657V12.8931V12.9205V12.9478V12.9751V13.0296V13.0839V13.1109V13.1379V13.1917C13.8235 14.2017 14.3932 14.8816 14.9345 15.2969C15.2056 15.5049 15.4754 15.6516 15.6769 15.7463C15.7779 15.7937 15.8626 15.8285 15.9229 15.8518C15.9531 15.8634 15.9772 15.8721 15.9942 15.8781L16.0144 15.885L16.0203 15.887L16.0222 15.8876L16.0229 15.8878L16.0231 15.8879C16.0232 15.8879 16.0233 15.888 16.0998 15.65ZM16.0998 15.65L16.1703 15.8898L16.0965 15.9115L16.0233 15.888L16.0998 15.65Z" fill="white" stroke="white" stroke-width="0.5"/>
</mask>
<g mask="url(#mask2_157_78198)">
<path opacity="0.4" fill-rule="evenodd" clip-rule="evenodd" d="M14.1965 13.9088L16.1299 12.4846L18.1628 14.0702V16.3271H14.1965V13.9088Z" fill="#84CEFF"/>
<path fill-rule="evenodd" clip-rule="evenodd" d="M14.2578 14.4124H17.8499V14.9124H14.2578V14.4124Z" fill="#006AC9"/>
<path fill-rule="evenodd" clip-rule="evenodd" d="M14.4419 14.9075H17.7577V15.1726H14.4419V14.9075Z" fill="#59C800"/>
<path fill-rule="evenodd" clip-rule="evenodd" d="M14.4419 15.2375H17.7577V15.7375H14.4419V15.2375Z" fill="#FFD800"/>
<path fill-rule="evenodd" clip-rule="evenodd" d="M18.7262 14.5106L16.136 12.5326L16.136 9.8623H18.7262V14.5106Z" fill="#F7D85D"/>
<path fill-rule="evenodd" clip-rule="evenodd" d="M15.5471 13.4224C15.5471 13.4224 15.629 13.8473 15.6916 13.8473C15.7542 13.8473 15.8675 13.4224 15.8675 13.4224C15.8675 13.4224 15.8809 13.8473 15.9439 13.8473C16.0069 13.8473 15.9991 13.4912 16.0998 13.4224C16.1362 13.3975 16.1822 13.8451 16.2382 13.8473C16.2852 13.8491 16.4001 13.4224 16.4001 13.4224C16.4001 13.4224 16.4349 13.8473 16.4893 13.8473C16.5437 13.8473 16.6524 13.4224 16.6524 13.4224V14.4949H15.5471V13.4224Z" fill="#F5F6F6"/>
<path fill-rule="evenodd" clip-rule="evenodd" d="M16.0998 14.8399C16.6594 14.8399 17.113 14.7442 17.113 14.6261C17.113 14.5081 16.6594 14.4124 16.0998 14.4124C15.5403 14.4124 15.0867 14.5081 15.0867 14.6261C15.0867 14.7442 15.5403 14.8399 16.0998 14.8399Z" fill="#892E2E"/>
<path d="M14.2893 11.104L14.4976 10.9414L15.8984 12.3809L15.6901 12.5435L14.2893 11.104Z" fill="#A46031"/>
<path d="M14.5145 12.7674L14.2932 12.6191L15.6555 10.988L15.8767 11.1363L14.5145 12.7674Z" fill="#892E2E"/>
<path d="M16.4077 11.3181L16.616 11.189L18.0168 12.332L17.8085 12.4611L16.4077 11.3181Z" fill="#A46031"/>
<path d="M16.7008 12.486L16.4417 12.31L17.774 11.2356L18.0581 11.4696L16.7008 12.486Z" fill="#F5F6F6"/>
</g>
<path fill-rule="evenodd" clip-rule="evenodd" d="M14.5667 16.5347L15.2171 16.7384V17.2999H14.5667V16.5347Z" fill="#6699FF"/>
<path fill-rule="evenodd" clip-rule="evenodd" d="M14.1021 15.387L14.468 15.5907V16.1522H14.1021V15.387Z" fill="#6699FF"/>
<path fill-rule="evenodd" clip-rule="evenodd" d="M17.54 16.5347L16.8896 16.7384V17.2999H17.54V16.5347Z" fill="#6699FF"/>
<path fill-rule="evenodd" clip-rule="evenodd" d="M18.0046 15.387L17.6387 15.5907V16.1522H18.0046V15.387Z" fill="#6699FF"/>
<path d="M13.7477 16.5761C13.6286 16.5761 13.5295 16.5789 13.4162 16.5843C13.1415 16.5975 13.1243 16.5972 13.0485 16.566C13.0029 16.5473 12.9575 16.5171 12.8921 16.4634C12.737 16.336 12.5698 16.0435 12.3884 15.5846L12.389 15.5653C12.6129 15.0812 13.0733 15.0212 13.7582 15.3801C13.9386 15.4746 14.4646 15.7605 14.4602 15.7582C14.6995 15.8862 14.8672 15.9682 15.0321 16.0346C15.3739 16.1722 15.6962 16.2347 16.1096 16.2347C16.3578 16.2347 16.6454 16.1642 16.9808 16.031C17.1746 15.954 17.3763 15.86 17.6222 15.7351C17.6546 15.7187 18.1693 15.451 18.2966 15.3897C18.5194 15.2825 18.6663 15.2306 18.7675 15.2306C18.7951 15.2306 18.8165 15.2305 18.8699 15.2302C18.9625 15.2296 19.0064 15.2296 19.0598 15.2302C19.5535 15.2362 19.7972 15.3185 19.7972 15.5756C19.7972 15.8185 19.6392 16.1482 19.3242 16.5668L19.3088 16.5759C18.6857 16.6599 18.3243 16.6599 18.2131 16.5711C18.1828 16.5469 18.0997 16.5579 17.9469 16.6068C17.8778 16.629 17.5073 16.7615 17.3928 16.7994C16.9163 16.9574 16.5079 17.0423 16.0919 17.0423C15.4585 17.0423 14.7653 16.7966 14.012 16.3058C14.1486 16.4793 14.0622 16.5761 13.7477 16.5761Z" fill="white"/>
<path fill-rule="evenodd" clip-rule="evenodd" d="M13.4162 16.5843C13.5295 16.5789 13.6286 16.5761 13.7477 16.5761C14.0622 16.5761 14.1486 16.4793 14.012 16.3058C14.7653 16.7966 15.4585 17.0423 16.0919 17.0423C16.5079 17.0423 16.9163 16.9574 17.3928 16.7994C17.451 16.7801 17.5754 16.7364 17.6927 16.6952C17.8061 16.6553 17.9129 16.6177 17.9469 16.6068C18.0997 16.5579 18.1828 16.5469 18.2131 16.5711C18.3243 16.6599 18.6857 16.6599 19.3088 16.5759L19.3242 16.5668C19.6392 16.1482 19.7972 15.8185 19.7972 15.5756C19.7972 15.3185 19.5535 15.2362 19.0598 15.2302C19.0064 15.2296 18.9625 15.2296 18.8699 15.2302C18.8165 15.2305 18.7951 15.2306 18.7675 15.2306C18.6663 15.2306 18.5194 15.2825 18.2966 15.3897C18.196 15.4382 17.8532 15.6156 17.698 15.6959C17.657 15.7172 17.629 15.7317 17.6222 15.7351C17.3763 15.86 17.1746 15.954 16.9808 16.031C16.6454 16.1642 16.3578 16.2347 16.1096 16.2347C15.6962 16.2347 15.3739 16.1722 15.0321 16.0346C14.8672 15.9682 14.6995 15.8862 14.4602 15.7582C14.4646 15.7605 13.9386 15.4746 13.7582 15.3801C13.0733 15.0212 12.6129 15.0812 12.389 15.5653L12.3884 15.5846C12.5698 16.0435 12.737 16.336 12.8921 16.4634C12.9575 16.5171 13.0029 16.5473 13.0485 16.566C13.1243 16.5972 13.1415 16.5975 13.4162 16.5843ZM13.0657 16.5216C13.0252 16.505 12.9832 16.477 12.921 16.426C12.775 16.3061 12.6124 16.0225 12.4354 15.5764C12.6474 15.13 13.0774 15.077 13.7371 15.4227C13.9172 15.5171 14.4429 15.8028 14.4388 15.8006C14.6794 15.9294 14.8485 16.012 15.0152 16.0792C15.3624 16.219 15.6904 16.2825 16.1096 16.2825C16.3645 16.2825 16.6572 16.2107 16.9975 16.0756C17.1928 15.998 17.3957 15.9034 17.6428 15.778C17.6498 15.7745 17.6782 15.7598 17.7199 15.7382C17.8756 15.6576 18.2165 15.4811 18.3163 15.4331C18.5329 15.3288 18.6755 15.2784 18.7675 15.2784C18.7952 15.2784 18.8167 15.2783 18.8702 15.278C18.9625 15.2774 19.0062 15.2774 19.0593 15.278C19.5269 15.2837 19.7507 15.3593 19.7507 15.5756C19.7507 15.8037 19.5986 16.1225 19.2933 16.5298C18.6918 16.6103 18.3375 16.6099 18.2416 16.5333C18.1934 16.4948 18.103 16.5067 17.9331 16.5612C17.8985 16.5723 17.7905 16.6103 17.6763 16.6504C17.5594 16.6915 17.4361 16.7348 17.3786 16.7539C16.9062 16.9105 16.5022 16.9945 16.0919 16.9945C15.3921 16.9945 14.615 16.6887 13.7609 16.0764L13.734 16.1154C14.1239 16.4082 14.1239 16.5283 13.7477 16.5283C13.6278 16.5283 13.528 16.5311 13.414 16.5365C13.1491 16.5492 13.1322 16.5489 13.0657 16.5216Z" fill="#666666"/>
<path d="M13.0281 15.8084L12.9609 15.7423C13.1125 15.5792 13.3132 15.5381 13.5549 15.618C13.649 15.6491 14.2615 16.0031 14.4251 16.0862C15.023 16.3897 15.5921 16.5592 16.1966 16.5592C17.0657 16.5592 17.9052 16.2849 18.7127 15.7378C19.0179 15.4903 19.2089 15.4903 19.2089 15.7754H19.116C19.116 15.6053 19.0263 15.6053 18.767 15.8153C17.9415 16.3748 17.0844 16.6549 16.1966 16.6549C15.5759 16.6549 14.9936 16.4815 14.384 16.172C14.2126 16.085 13.6101 15.7367 13.5265 15.7091C13.317 15.6398 13.1536 15.6733 13.0281 15.8084Z" fill="#565757"/>
<path fill-rule="evenodd" clip-rule="evenodd" d="M16.4901 6.9436L16.3092 6.9445C16.3136 7.68703 16.1473 8.15608 15.8235 8.35753C15.7979 8.37342 15.766 8.39235 15.731 8.41268C15.7003 8.3302 15.6606 8.23059 15.6097 8.10593L15.5936 8.06637C15.4014 7.59341 15.3586 7.37526 15.4573 7.31698L15.3594 7.17735C15.1417 7.30587 15.1887 7.54516 15.4241 8.12439L15.4403 8.16413C15.4988 8.30748 15.5418 8.41638 15.5728 8.50277L15.5533 8.51377L15.5533 8.51377L15.5533 8.51377C15.5436 8.51926 15.534 8.52466 15.5247 8.52993C15.4307 8.48212 15.3218 8.45807 15.1978 8.45807C14.6222 8.45807 14.2233 8.30726 13.9916 8.0089L13.8442 8.10529C14.1138 8.45225 14.5683 8.62411 15.1978 8.62411C15.2492 8.62411 15.2975 8.63028 15.3424 8.64269C15.2508 8.72084 15.2385 8.80271 15.2385 9.08426C15.2385 9.26052 15.2766 9.49438 15.3526 9.78668C15.294 9.71173 15.2395 9.6763 15.1841 9.6763V9.84234C15.1761 9.84234 15.1708 9.84115 15.1687 9.84067L15.1679 9.8405L15.167 9.83977L15.1661 9.83924L15.1681 9.84075L15.1679 9.8405C15.1733 9.84457 15.181 9.85198 15.1902 9.86265C15.2155 9.89213 15.2463 9.93964 15.2816 10.0043C15.3551 10.1393 15.4455 10.3444 15.5519 10.6187L15.6077 10.6004L15.6121 10.6128L15.642 10.6039V10.6089H15.6992L15.7001 10.6549L15.8809 10.6512C15.8805 10.6336 15.8802 10.6163 15.88 10.5991L15.9139 10.6029C15.9506 10.3317 15.972 10.0856 15.9779 9.86487C16.0413 9.68925 16.135 9.56219 16.2576 9.48308C16.5664 9.28393 16.7476 9.09244 16.7972 8.90241L16.6212 8.86376C16.5841 9.00595 16.4297 9.16917 16.1536 9.34724C16.0854 9.39123 16.025 9.44547 15.9724 9.50988C15.955 9.23707 15.9055 9.01645 15.823 8.84904V8.8C15.823 8.73261 15.8131 8.66681 15.7866 8.5768C15.838 8.54731 15.887 8.51862 15.925 8.49497C16.3108 8.25497 16.4948 7.73589 16.4901 6.9436ZM15.5127 8.73189C15.5621 8.77317 15.6052 8.8264 15.642 8.89168V10.1391C15.4935 9.66876 15.4194 9.31634 15.4194 9.08426C15.4194 8.82429 15.4268 8.7914 15.4871 8.74755C15.4909 8.74484 15.4998 8.73943 15.5127 8.73189Z" fill="#984800"/>
<path fill-rule="evenodd" clip-rule="evenodd" d="M16.9831 7.08529C16.8463 7.12546 16.6708 7.1354 16.4844 7.10588C16.2784 7.07324 16.0998 6.99882 15.9808 6.90614C15.9881 6.9292 15.9917 6.95285 15.9913 6.9769C15.9873 7.20611 15.6196 7.38557 15.17 7.37772C14.7204 7.36987 14.3592 7.17769 14.3632 6.94848C14.3672 6.71926 14.7349 6.53981 15.1845 6.54766C15.4549 6.55238 15.6933 6.62377 15.8395 6.72979C15.8267 6.69463 15.8225 6.65898 15.8281 6.62369C15.8604 6.4199 16.2066 6.30539 16.6013 6.36791C16.9961 6.43043 17.2899 6.64632 17.2577 6.8501C17.2518 6.88708 17.2356 6.92112 17.2107 6.9517C17.4051 6.89572 17.6728 6.90892 17.9461 7.00304C18.4185 7.16569 18.7289 7.50841 18.6393 7.76853C18.5497 8.02864 18.0942 8.10765 17.6218 7.94499C17.565 7.92542 17.5105 7.90325 17.4588 7.87893C17.3314 8.07672 16.9738 8.18125 16.5778 8.11852C16.109 8.04427 15.7638 7.76382 15.8069 7.4921C15.8499 7.22039 16.2648 7.06031 16.7336 7.13456C16.8015 7.14532 16.8668 7.1604 16.9288 7.17916C16.9407 7.14463 16.9591 7.11329 16.9831 7.08529ZM14.2732 6.98398C14.3732 7.16444 14.1709 7.46781 13.8213 7.66157C13.4718 7.85534 13.1073 7.86613 13.0073 7.68568C12.9072 7.50522 13.1095 7.20185 13.4591 7.00808C13.8087 6.81432 14.1731 6.80352 14.2732 6.98398ZM15.3665 8.11812C15.3621 8.37026 14.9131 8.56688 14.3636 8.55729C13.8142 8.5477 13.3723 8.33553 13.3767 8.08339C13.3811 7.83126 13.8301 7.63463 14.3796 7.64422C14.9291 7.65382 15.3709 7.86599 15.3665 8.11812ZM14.7334 9.88176C15.2293 9.82088 15.6086 9.58706 15.5807 9.35952C15.5528 9.13198 15.1281 8.99688 14.6323 9.05776C14.1364 9.11865 13.757 9.35247 13.785 9.58001C13.8129 9.80755 14.2376 9.94265 14.7334 9.88176ZM16.5624 10.1855C17.0005 10.2866 17.4017 10.1694 17.4584 9.92373C17.5151 9.67802 17.2059 9.39684 16.7678 9.29569C16.3297 9.19454 15.9286 9.31174 15.8718 9.55745C15.8151 9.80316 16.1243 10.0843 16.5624 10.1855ZM16.9489 9.25273C17.611 9.38142 18.1867 9.28507 18.2348 9.03753C18.2829 8.78999 17.7852 8.48499 17.1232 8.3563C16.4611 8.2276 15.8854 8.32395 15.8373 8.57149C15.7891 8.81903 16.2868 9.12403 16.9489 9.25273Z" fill="#247805"/>
<path fill-rule="evenodd" clip-rule="evenodd" d="M12.245 10.9392C12.245 10.9392 11.9321 13.9094 11.9321 14.3119C11.9321 14.7144 12.5079 14.3119 12.5079 14.3119C12.5079 14.3119 12.5925 12.8935 12.7886 12.3666C12.9847 11.8396 13.0772 12.4185 13.0772 12.7262C13.0772 13.0338 13.0772 14.473 13.0772 14.473C13.0772 14.473 13.7938 14.5705 13.7938 14.3119C13.7938 14.0533 13.4957 10.9392 13.4957 10.9392H12.4118H12.245Z" fill="white"/>
<path fill-rule="evenodd" clip-rule="evenodd" d="M12.2052 10.8975L12.2013 10.9351C11.9924 12.9177 11.8882 14.0414 11.8882 14.3119C11.8882 14.6304 12.1267 14.6304 12.5342 14.3455L12.5508 14.3339L12.552 14.3143C12.6082 13.3724 12.7013 12.727 12.8302 12.3805C12.9079 12.1717 12.9305 12.1624 12.9654 12.2485C13.0063 12.3491 13.0333 12.5543 13.0333 12.7262V14.5092L13.0711 14.5143C13.5737 14.5828 13.838 14.5234 13.838 14.3119C13.838 14.201 13.7862 13.5892 13.6984 12.6305L13.6887 12.525C13.6561 12.1702 13.6212 11.7961 13.5862 11.4261L13.5525 11.0698L13.543 10.9705L13.5396 10.9355L13.536 10.8975H12.2052ZM12.4652 14.2899C12.1171 14.5301 11.9763 14.5268 11.9763 14.3119C11.9763 14.0474 12.0793 12.9352 12.285 10.981H13.4555L13.4647 11.0773L13.4985 11.4336C13.5334 11.8035 13.5684 12.1775 13.601 12.5322L13.6106 12.6377C13.6978 13.5894 13.7499 14.205 13.7499 14.3119C13.7499 14.4416 13.5483 14.4905 13.1214 14.4366V12.7262C13.1214 12.5449 13.0932 12.3306 13.0477 12.2184C12.9724 12.0332 12.8467 12.0852 12.7472 12.3527C12.6156 12.7063 12.522 13.3512 12.4652 14.2899Z" fill="#979797"/>
<path fill-rule="evenodd" clip-rule="evenodd" d="M11.2065 9.91757C11.2065 9.91757 11.4523 10.8021 11.561 10.8021C11.6698 10.8021 12.3301 10.2593 12.3301 10.2593V10.996H13.5603V10.6697L13.7182 10.996L13.9333 10.8954L14.3055 10.4568H13.9333C13.9333 10.4568 13.8252 9.7524 13.8252 9.641C13.8252 9.52961 13.8296 9.30923 13.5603 9.22947C13.2911 9.14971 13.1591 9.00848 13.1591 9.00848C13.1591 9.00848 13.7388 8.17822 13.2973 8.17822C12.8559 8.17822 12.6561 8.28466 12.6561 8.28466C12.6561 8.28466 12.6561 8.77762 12.6561 8.89305C12.6561 9.00848 12.0228 8.87181 12.0228 9.22947C12.0228 9.58713 11.7275 9.91757 11.7275 9.91757L11.6524 9.67803L11.2065 9.91757Z" fill="#FF863B"/>
<path fill-rule="evenodd" clip-rule="evenodd" d="M13.0667 8.38286C13.31 8.38286 13.5072 8.28595 13.5072 8.16641C13.5072 8.04686 13.31 7.94995 13.0667 7.94995C12.8234 7.94995 12.6262 8.04686 12.6262 8.16641C12.6262 8.28595 12.8234 8.38286 13.0667 8.38286Z" fill="black"/>
<path d="M10.847 10.2598L10.6482 10.0947C11.0312 9.67995 11.4575 9.37823 11.9264 9.19094C12.3705 9.01358 12.9508 8.73053 13.6663 8.34204L13.7976 8.55954C13.0736 8.95264 12.4845 9.24001 12.029 9.42192C11.5984 9.59389 11.2046 9.8727 10.847 10.2598Z" fill="#740000"/>
<path fill-rule="evenodd" clip-rule="evenodd" d="M13.6577 8.43301L13.8247 9.21719L14.566 8.8251L13.9822 8.17627L13.6577 8.43301Z" fill="#F9FCFF" stroke="#6C6C6C" stroke-width="0.5"/>
<path fill-rule="evenodd" clip-rule="evenodd" d="M19.8591 11.3071C19.8591 11.3071 20.1694 14.4071 20.1694 14.8272C20.1694 15.2473 19.5983 14.8272 19.5983 14.8272C19.5983 14.8272 19.5144 13.3468 19.3199 12.7969C19.1254 12.2469 19.0336 12.8511 19.0336 13.1722C19.0336 13.4933 19.0336 14.9953 19.0336 14.9953C19.0336 14.9953 18.3228 15.0971 18.3228 14.8272C18.3228 14.5573 18.6185 11.3071 18.6185 11.3071H19.6936H19.8591Z" fill="white"/>
<path fill-rule="evenodd" clip-rule="evenodd" d="M19.8986 11.2634L19.9026 11.3027C20.1097 13.372 20.2131 14.5448 20.2131 14.8271C20.2131 15.1595 19.9765 15.1595 19.5724 14.8622L19.5558 14.85L19.5547 14.8296C19.499 13.8465 19.4066 13.1729 19.2787 12.8113C19.2016 12.5934 19.1793 12.5836 19.1446 12.6735C19.104 12.7785 19.0773 12.9926 19.0773 13.1721V15.033L19.0398 15.0384C18.5412 15.1098 18.2791 15.0478 18.2791 14.8271C18.2791 14.7114 18.3304 14.0728 18.4175 13.0722L18.4272 12.962C18.4595 12.5918 18.4942 12.2014 18.5288 11.8152L18.5623 11.4433L18.5717 11.3397L18.575 11.3031L18.5786 11.2634H19.8986ZM19.6407 14.8041C19.9861 15.0548 20.1257 15.0514 20.1257 14.8271C20.1257 14.551 20.0236 13.3902 19.8195 11.3506H18.6585L18.6494 11.4511L18.6159 11.823C18.5812 12.2091 18.5466 12.5994 18.5142 12.9696L18.5046 13.0797C18.4181 14.073 18.3665 14.7155 18.3665 14.8271C18.3665 14.9624 18.5665 15.0135 18.9899 14.9572V13.1721C18.9899 12.9828 19.0178 12.7592 19.063 12.6421C19.1377 12.4488 19.2624 12.5031 19.3611 12.7823C19.4916 13.1513 19.5845 13.8244 19.6407 14.8041Z" fill="#979797"/>
<path fill-rule="evenodd" clip-rule="evenodd" d="M20.9106 10.1781C20.9106 10.1781 20.6669 11.1013 20.559 11.1013C20.4511 11.1013 19.7962 10.5348 19.7962 10.5348V11.3038H18.5759V10.9632L18.4193 11.3038L18.2059 11.1988L17.8368 10.7409H18.2059C18.2059 10.7409 18.3132 10.0058 18.3132 9.88949C18.3132 9.77323 18.3088 9.54323 18.5759 9.45998C18.8429 9.37673 18.9739 9.22933 18.9739 9.22933C18.9739 9.22933 18.3989 8.36279 18.8368 8.36279C19.2746 8.36279 19.4728 8.47388 19.4728 8.47388C19.4728 8.47388 19.4728 8.98839 19.4728 9.10886C19.4728 9.22933 20.101 9.08669 20.101 9.45998C20.101 9.83327 20.3939 10.1781 20.3939 10.1781L20.4684 9.92814L20.9106 10.1781Z" fill="#824028"/>
<path fill-rule="evenodd" clip-rule="evenodd" d="M19.0657 8.57634C18.8244 8.57634 18.6288 8.4752 18.6288 8.35043C18.6288 8.22566 18.8244 8.12451 19.0657 8.12451C19.3071 8.12451 19.5027 8.22566 19.5027 8.35043C19.5027 8.4752 19.3071 8.57634 19.0657 8.57634Z" fill="black"/>
<path d="M21.5252 10.3457L18.8526 8.95265C18.8526 8.95265 18.8031 8.48467 18.2869 8.34378C17.7707 8.20288 17.359 7.98486 17.359 7.98486L17.124 8.34378C17.124 8.34378 16.7054 8.23331 18.2869 8.95265C19.8684 9.67199 18.2273 8.56275 18.6769 8.95265L21.5252 10.3457Z" fill="#BA611F"/>
</g>
</g>
</svg>
