<svg width="32" height="24" viewBox="0 0 32 24" fill="none" xmlns="http://www.w3.org/2000/svg">
<mask id="mask0_157_78222" style="mask-type:alpha" maskUnits="userSpaceOnUse" x="0" y="0" width="32" height="24">
<rect width="32" height="24" fill="white"/>
</mask>
<g mask="url(#mask0_157_78222)">
<path fill-rule="evenodd" clip-rule="evenodd" d="M0 0V24H32V0H0Z" fill="#C51918"/>
<mask id="mask1_157_78222" style="mask-type:alpha" maskUnits="userSpaceOnUse" x="0" y="0" width="32" height="24">
<path fill-rule="evenodd" clip-rule="evenodd" d="M0 0V24H32V0H0Z" fill="white"/>
</mask>
<g mask="url(#mask1_157_78222)">
<rect width="14" height="10" fill="#4257BF"/>
<rect x="18" y="14" width="14" height="10" fill="#4257BF"/>
<path fill-rule="evenodd" clip-rule="evenodd" d="M13 0H19V9H32V15H19V24H13V15H0V9H13V0Z" fill="#F7FCFF"/>
<path fill-rule="evenodd" clip-rule="evenodd" d="M13.8653 10.5247C13.8275 10.3496 13.785 10.1333 13.785 10.1333C13.6902 10.3638 13.6604 10.5735 13.6984 10.761C13.6582 10.8201 13.6217 10.8754 13.5891 10.9271C13.4872 10.7836 13.3601 10.5151 13.3601 10.5151C13.3645 10.5933 13.3625 10.673 13.3606 10.7504C13.356 10.9324 13.3517 11.1016 13.4318 11.2075L13.4308 11.2096C13.4149 11.2447 13.3997 11.2797 13.3854 11.3147C13.275 11.1973 13.0919 10.9856 13.0919 10.9856C13.1062 11.2395 13.172 11.4395 13.2917 11.5822C13.2701 11.6566 13.2522 11.7306 13.238 11.8042C13.1455 11.7021 13.0562 11.6012 13.0562 11.6012C13.0693 11.8328 13.1056 11.9858 13.2 12.1144C13.1981 12.151 13.1971 12.1874 13.1971 12.2237C13.0993 12.1161 12.9998 12.0037 12.9998 12.0037C13.0136 12.2482 13.103 12.409 13.2207 12.5429C13.2324 12.6203 13.2483 12.6969 13.2685 12.7726L13.2798 12.8145C13.1438 12.7433 12.9944 12.6622 12.9944 12.6622C13.085 12.8734 13.213 12.9926 13.3578 13.0772C13.3893 13.1752 13.4226 13.2699 13.4576 13.361C13.2976 13.312 13.0575 13.2316 13.0575 13.2316C13.2019 13.4519 13.3736 13.5447 13.557 13.6005C13.5947 13.6845 13.6338 13.7647 13.6743 13.8408C13.5221 13.7928 13.342 13.7325 13.342 13.7325C13.4821 13.9464 13.6481 14.0401 13.8255 14.0965C13.9428 14.2744 14.0685 14.4203 14.1997 14.5291C14.0488 14.592 13.8555 14.6681 13.8555 14.6681C14.0697 14.7326 14.2399 14.714 14.3944 14.6609L14.405 14.6664C14.4683 14.6987 14.5392 14.7293 14.6191 14.7591C14.4947 14.8097 14.3752 14.8568 14.3752 14.8568C14.5854 14.9201 14.7532 14.9034 14.9053 14.8526L14.9127 14.8547C14.9841 14.8755 15.0568 14.8954 15.1527 14.9207C15.0893 14.9039 15.3232 14.9655 15.3707 14.9784C15.5228 15.0196 15.6094 15.0486 15.651 15.0736C15.6549 15.0759 15.6577 15.0779 15.6595 15.0791C15.6613 15.0803 15.6621 15.0808 15.6617 15.0803L15.778 14.9901C15.7645 14.9703 15.7458 14.9545 15.7216 14.94C15.6645 14.9057 15.572 14.8747 15.4062 14.8297C15.359 14.8169 15.1325 14.7573 15.1838 14.7709C15.0907 14.7462 15.0198 14.7269 14.9505 14.7067L14.8967 14.6908C14.9093 14.5306 14.8851 14.3634 14.7726 14.1745C14.7726 14.1745 14.734 14.4679 14.7073 14.6291C14.6151 14.5963 14.5357 14.5631 14.4671 14.528C14.4472 14.5178 14.4273 14.5067 14.4075 14.4945C14.3937 14.3305 14.3418 14.1662 14.1946 13.9954C14.1946 13.9954 14.2026 14.1776 14.2068 14.3349C14.109 14.2393 14.014 14.1196 13.9238 13.9787L14.0089 14.0258C14.0094 13.8248 13.9721 13.6254 13.7918 13.4163C13.7918 13.4163 13.8004 13.6134 13.8045 13.7747C13.7515 13.6757 13.7006 13.569 13.6522 13.4552C13.697 13.2944 13.7059 13.1203 13.6248 12.9064C13.6248 12.9064 13.584 13.0357 13.5408 13.1671C13.5282 13.1311 13.5158 13.0946 13.5036 13.0575C13.5974 12.8895 13.6571 12.703 13.6077 12.4432C13.6077 12.4432 13.5029 12.6446 13.423 12.7903C13.4175 12.7705 13.4121 12.7507 13.4068 12.7307C13.3895 12.6658 13.3756 12.6002 13.3651 12.5339C13.4996 12.4118 13.6086 12.2601 13.6487 12.0138C13.6487 12.0138 13.4679 12.1794 13.3418 12.2894C13.3401 12.2337 13.3407 12.1775 13.3437 12.1209C13.4889 12.0254 13.6145 11.8962 13.6931 11.671C13.6931 11.671 13.5127 11.7859 13.3722 11.8715C13.3817 11.8168 13.3936 11.7617 13.4076 11.7063C13.5805 11.6064 13.733 11.4744 13.8233 11.2156C13.8233 11.2156 13.6415 11.3314 13.5008 11.417C13.519 11.3704 13.5388 11.3236 13.5602 11.2766C13.5854 11.2212 13.6213 11.155 13.6678 11.0781C13.8224 11.0223 13.9673 10.9297 14.0939 10.7436C14.0939 10.7436 13.9653 10.7841 13.8334 10.824C13.9074 10.7164 13.9943 10.596 14.0941 10.4628L13.9817 10.367C13.9408 10.4216 13.902 10.4742 13.8653 10.5247Z" fill="#5AB92D"/>
<path fill-rule="evenodd" clip-rule="evenodd" d="M17.9128 10.5247C17.9505 10.3496 17.9931 10.1333 17.9931 10.1333C18.0878 10.3638 18.1177 10.5735 18.0796 10.761C18.1199 10.8201 18.1564 10.8754 18.189 10.9271C18.2909 10.7836 18.418 10.5151 18.418 10.5151C18.4136 10.5933 18.4156 10.673 18.4175 10.7504C18.4221 10.9324 18.4264 11.1016 18.3463 11.2075L18.3472 11.2096C18.3632 11.2447 18.3784 11.2797 18.3927 11.3147C18.503 11.1973 18.6862 10.9856 18.6862 10.9856C18.6719 11.2395 18.606 11.4395 18.4864 11.5822C18.508 11.6566 18.5259 11.7306 18.5401 11.8042C18.6326 11.7021 18.7219 11.6012 18.7219 11.6012C18.7088 11.8328 18.6725 11.9858 18.5781 12.1144C18.58 12.151 18.581 12.1874 18.581 12.2237C18.6788 12.1161 18.7782 12.0037 18.7782 12.0037C18.7644 12.2482 18.6751 12.409 18.5574 12.5429C18.5457 12.6203 18.5297 12.6969 18.5096 12.7726L18.4983 12.8145C18.6343 12.7433 18.7837 12.6622 18.7837 12.6622C18.693 12.8734 18.565 12.9926 18.4203 13.0772C18.3888 13.1752 18.3555 13.2699 18.3205 13.361C18.4805 13.312 18.7205 13.2316 18.7205 13.2316C18.5762 13.4519 18.4045 13.5447 18.2211 13.6005C18.1834 13.6845 18.1443 13.7647 18.1038 13.8408C18.2559 13.7928 18.4361 13.7325 18.4361 13.7325C18.296 13.9464 18.13 14.0401 17.9526 14.0965C17.8353 14.2744 17.7096 14.4203 17.5784 14.5291C17.7293 14.592 17.9225 14.6681 17.9225 14.6681C17.7083 14.7326 17.5382 14.714 17.3837 14.6609L17.3731 14.6664C17.3097 14.6987 17.2389 14.7293 17.159 14.7591C17.2834 14.8097 17.4028 14.8568 17.4028 14.8568C17.1927 14.9201 17.0249 14.9034 16.8728 14.8526L16.8654 14.8547C16.794 14.8755 16.7212 14.8954 16.6254 14.9207C16.6888 14.9039 16.4549 14.9655 16.4074 14.9784C16.2553 15.0196 16.1687 15.0486 16.1271 15.0736C16.1232 15.0759 16.1204 15.0779 16.1186 15.0791C16.1167 15.0803 16.116 15.0808 16.1164 15.0803L16.0001 14.9901C16.0135 14.9703 16.0323 14.9545 16.0565 14.94C16.1136 14.9057 16.2061 14.8747 16.3719 14.8297C16.419 14.8169 16.6456 14.7573 16.5943 14.7709C16.6874 14.7462 16.7583 14.7269 16.8276 14.7067L16.8814 14.6908C16.8687 14.5306 16.893 14.3634 17.0055 14.1745C17.0055 14.1745 17.0441 14.4679 17.0708 14.6291C17.163 14.5963 17.2424 14.5631 17.311 14.528C17.3309 14.5178 17.3507 14.5067 17.3705 14.4945C17.3843 14.3305 17.4362 14.1662 17.5835 13.9954C17.5835 13.9954 17.5755 14.1776 17.5712 14.3349C17.6691 14.2393 17.7641 14.1196 17.8543 13.9787L17.7691 14.0258C17.7686 13.8248 17.806 13.6254 17.9863 13.4163C17.9863 13.4163 17.9777 13.6134 17.9735 13.7747C18.0266 13.6757 18.0775 13.569 18.1258 13.4552C18.081 13.2944 18.0722 13.1203 18.1533 12.9064C18.1533 12.9064 18.1941 13.0357 18.2373 13.1671C18.2499 13.1311 18.2623 13.0946 18.2745 13.0575C18.1807 12.8895 18.1209 12.703 18.1704 12.4432C18.1704 12.4432 18.2752 12.6446 18.3551 12.7903C18.3606 12.7705 18.3659 12.7507 18.3713 12.7307C18.3885 12.6658 18.4025 12.6002 18.413 12.5339C18.2785 12.4118 18.1694 12.2601 18.1294 12.0138C18.1294 12.0138 18.3102 12.1794 18.4362 12.2894C18.438 12.2337 18.4374 12.1775 18.4344 12.1209C18.2892 12.0254 18.1635 11.8962 18.085 11.671C18.085 11.671 18.2654 11.7859 18.4059 11.8715C18.3963 11.8168 18.3845 11.7617 18.3705 11.7063C18.1976 11.6064 18.0451 11.4744 17.9548 11.2156C17.9548 11.2156 18.1365 11.3314 18.2772 11.417C18.2591 11.3704 18.2393 11.3236 18.2179 11.2766C18.1927 11.2212 18.1568 11.155 18.1103 11.0781C17.9557 11.0223 17.8108 10.9297 17.6842 10.7436C17.6842 10.7436 17.8127 10.7841 17.9447 10.824C17.8707 10.7164 17.7838 10.596 17.684 10.4628L17.7964 10.367C17.8373 10.4216 17.8761 10.4742 17.9128 10.5247Z" fill="#5AB92D"/>
<path d="M13.2515 9.31567C13.6511 9.03466 14.3838 8.79205 14.7608 8.79205C14.7627 8.79205 14.7667 8.79115 14.7773 8.78676C14.8086 8.77381 15.0151 8.64592 15.028 8.63852C15.2945 8.48601 15.5732 8.40576 15.9529 8.40576V9.07243C15.6803 9.07243 15.5022 9.12372 15.3235 9.22596C15.3546 9.20816 15.0882 9.37322 15.0033 9.40832C14.9243 9.44102 14.8449 9.45872 14.7608 9.45872C14.5083 9.45872 13.8947 9.66188 13.5954 9.87229C13.4879 9.94791 13.4978 9.92483 13.5011 9.96991C13.5132 10.1338 13.5008 10.2341 13.4 10.362C13.3868 10.3787 13.366 10.4704 13.3642 10.6312L12.7393 10.6233C12.7422 10.3608 12.782 10.1537 12.8765 9.99802C12.8628 9.72885 12.9574 9.52243 13.2515 9.31567Z" fill="#003994"/>
<path d="M13.5856 9.56525L13.5166 9.45405C13.8374 9.22763 14.1366 9.11339 14.4142 9.11339C14.5061 9.11339 14.611 9.08893 14.733 9.04183C14.8147 9.01027 14.8984 8.97127 15.0107 8.91413C15.4179 8.70717 15.4295 8.7019 15.537 8.7019H15.9056V8.83524H15.537C15.4592 8.83524 15.434 8.84666 15.0645 9.0345C14.9488 9.09333 14.8618 9.13386 14.7755 9.1672C14.6411 9.21913 14.5228 9.24673 14.4142 9.24673C14.1637 9.24673 13.8874 9.35222 13.5856 9.56525Z" fill="#EBCA5E"/>
<path d="M18.4985 9.31567C18.0989 9.03466 17.3662 8.79205 16.9892 8.79205C16.9873 8.79205 16.9833 8.79115 16.9727 8.78676C16.9414 8.77381 16.7349 8.64592 16.722 8.63852C16.4555 8.48601 16.1768 8.40576 15.7971 8.40576V9.07243C16.0697 9.07243 16.2478 9.12372 16.4265 9.22596C16.3954 9.20816 16.6618 9.37322 16.7467 9.40832C16.8257 9.44102 16.9051 9.45872 16.9892 9.45872C17.2417 9.45872 17.8553 9.66188 18.1546 9.87229C18.2621 9.94791 18.2522 9.92483 18.2489 9.96991C18.2368 10.1338 18.2492 10.2341 18.35 10.362C18.3632 10.3787 18.384 10.4704 18.3858 10.6312L19.0107 10.6233C19.0078 10.3608 18.968 10.1537 18.8735 9.99802C18.8872 9.72885 18.7926 9.52243 18.4985 9.31567Z" fill="#003994"/>
<path d="M18.1144 9.56525L18.1833 9.45405C17.8625 9.22763 17.5634 9.11339 17.2858 9.11339C17.1938 9.11339 17.0889 9.08893 16.967 9.04183C16.8853 9.01027 16.8016 8.97127 16.6892 8.91413C16.2821 8.70717 16.2705 8.7019 16.1629 8.7019H15.7944V8.83524H16.1629C16.2407 8.83524 16.2659 8.84666 16.6354 9.0345C16.7512 9.09333 16.8381 9.13386 16.9244 9.1672C17.0589 9.21913 17.1772 9.24673 17.2858 9.24673C17.5363 9.24673 17.8125 9.35222 18.1144 9.56525Z" fill="#EBCA5E"/>
<path d="M13.8221 10.0193L14.1482 10.3739V11.8467H14.4774V11.9404L14.9593 12.1721C14.9593 12.1721 15.0321 11.1978 14.8055 10.9411C14.5789 10.6844 14.9593 10.6212 14.9593 10.6212L15.5378 11.2004V10.0193H13.8221Z" fill="#003994"/>
<path d="M17.738 10.0193L17.4118 10.3739V11.8467H17.0826V11.9404L16.6007 12.1721C16.6007 12.1721 16.5279 11.1978 16.7545 10.9411C16.9812 10.6844 16.6007 10.6212 16.6007 10.6212L16.0222 11.2004V10.0193H17.738Z" fill="#D62818"/>
<path d="M14.877 10.5964L14.8279 10.6569L15.7896 11.5459L15.8413 11.5433L16.6367 10.6543L16.5825 10.599L15.8118 11.4605L14.877 10.5964Z" fill="#FFC300"/>
<path d="M14.7404 10.9697L14.6778 11.0302L15.9053 11.9192L15.9713 11.9166L16.9866 11.0276L16.9173 10.9723L15.9336 11.8338L14.7404 10.9697Z" fill="#FFC300"/>
<path d="M14.1765 12.4219H14.5987L14.8868 12.5098C14.8868 12.5098 14.9794 13.1709 15.4422 13.1709L15.5181 14.0171L15.1594 13.8234C15.1594 13.8234 14.9262 13.9264 14.8868 13.9264C14.8473 13.9264 14.5149 14.1128 14.5149 13.9264C14.5149 13.7399 14.1765 13.4382 14.1765 13.4382V12.4219Z" fill="#D62818"/>
<path d="M17.5181 12.4219H17.0959L16.8078 12.5098C16.8078 12.5098 16.7152 13.1709 16.2524 13.1709L16.1765 14.0171L16.5352 13.8234C16.5352 13.8234 16.7684 13.9264 16.8078 13.9264C16.8473 13.9264 17.1797 14.1128 17.1797 13.9264C17.1797 13.7399 17.5181 13.4382 17.5181 13.4382V12.4219Z" fill="#003994"/>
<path d="M16.6137 12.5017L17.1137 12.5019C17.1136 12.8759 16.9816 13.179 16.7216 13.3841L16.4243 12.9553C16.5518 12.8548 16.6136 12.7126 16.6137 12.5017Z" fill="#D62818"/>
<path d="M15.304 11.4731V12.1744H15.8853C15.8853 12.1744 15.8307 12.7003 15.8307 13.032C15.8307 13.3638 15.8853 13.7943 15.8853 13.7943C15.8853 13.7943 16.0276 13.7232 16.0276 13.2746C16.0276 12.826 16.0276 12.1258 16.0276 12.1258L16.4869 12.1744L16.4383 11.542H16.2446C16.2446 11.542 16.5425 11.9361 16.2446 11.9361C15.9468 11.9361 15.6045 12.0131 15.5396 12.0131C15.4746 12.0131 15.304 11.4731 15.304 11.4731Z" fill="#D62818"/>
<path d="M15.8095 12.3208C15.8095 12.3208 15.4829 12.5131 15.4829 12.8261C15.4829 13.139 15.6462 13.4958 15.6462 13.4958C15.6462 13.4958 15.5687 12.7911 15.6891 12.6036C15.8095 12.4162 15.8095 12.3208 15.8095 12.3208Z" fill="#003994"/>
<path d="M15.2779 12.5525C15.2779 12.5525 15.2594 12.7789 15.3936 12.7789C15.5278 12.7789 15.2779 12.5525 15.2779 12.5525Z" fill="#003994"/>
<path d="M16.4276 11.944L16.479 12.1224L15.6244 12.4022L15.4329 11.6065L15.6024 11.5601L15.7483 12.1664L16.4276 11.944Z" fill="#373737"/>
<path fill-rule="evenodd" clip-rule="evenodd" d="M14.0359 15.4086L13.9609 15.4723C13.9358 15.4387 13.9143 15.4049 13.8964 15.3711C13.8212 15.3451 13.7501 15.3105 13.6915 15.2693C13.6103 15.2122 13.5266 15.2122 13.4206 15.2747L13.2997 15.0413C13.484 14.9327 13.667 14.9327 13.8291 15.0467C13.8311 15.0481 13.8331 15.0494 13.8352 15.0508C13.8577 14.919 13.944 14.8018 14.0926 14.7172C14.3475 14.572 15.4627 14.4192 15.8015 14.4192V14.8459C15.5265 14.8459 14.4591 14.9922 14.281 15.0936C14.2758 15.0966 14.2709 15.0993 14.2665 15.1018C14.2429 15.1149 14.2304 15.1219 14.228 15.1315C14.226 15.1395 14.2314 15.1494 14.2437 15.1664C14.2533 15.1655 14.2598 15.1638 14.2624 15.161L14.4398 15.3489C14.3662 15.4278 14.2032 15.4411 14.0359 15.4086ZM12.8413 15.4161C12.8413 15.4161 13.2109 15.7409 13.4778 15.6622C13.7446 15.5834 13.8273 15.4948 13.8273 15.4948C13.8273 15.4948 13.5609 15.4593 13.2781 15.4161C12.9953 15.373 12.8413 15.4161 12.8413 15.4161Z" fill="#D62818"/>
<path fill-rule="evenodd" clip-rule="evenodd" d="M14.0651 15.1795L14.11 15.1155C13.978 15.0099 14.0124 14.9509 14.2652 14.8941C14.2873 14.8892 14.3096 14.8843 14.3321 14.8795L14.3321 14.8795C14.5651 14.8299 14.8195 14.7877 15.0733 14.7571C15.3526 14.7235 15.632 14.7038 15.8806 14.7038C15.632 14.7038 15.3531 14.7234 15.0733 14.7571C14.8181 14.7878 14.5631 14.8301 14.3321 14.8795L14.3175 14.801C14.5528 14.7509 14.8096 14.7083 15.0659 14.6775C15.3475 14.6436 15.6294 14.6238 15.8806 14.6238C15.6293 14.6238 15.348 14.6435 15.0659 14.6775C14.783 14.7115 14.5004 14.7596 14.2498 14.8158C13.9449 14.8842 13.8659 15.0202 14.0651 15.1795Z" fill="#EBCA5E"/>
<path fill-rule="evenodd" clip-rule="evenodd" d="M17.4641 15.4086L17.5391 15.4723C17.5642 15.4387 17.5857 15.4049 17.6036 15.3711C17.6788 15.3451 17.7499 15.3105 17.8085 15.2693C17.8897 15.2122 17.9734 15.2122 18.0794 15.2747L18.2003 15.0413C18.016 14.9327 17.833 14.9327 17.6709 15.0467C17.6689 15.0481 17.6669 15.0494 17.6648 15.0508C17.6423 14.919 17.556 14.8018 17.4074 14.7172C17.1525 14.572 16.0373 14.4192 15.6985 14.4192V14.8459C15.9735 14.8459 17.0409 14.9922 17.219 15.0936C17.2242 15.0966 17.2291 15.0993 17.2335 15.1018C17.2571 15.1149 17.2696 15.1219 17.272 15.1315C17.274 15.1395 17.2686 15.1494 17.2563 15.1664C17.2467 15.1655 17.2402 15.1638 17.2376 15.161L17.0602 15.3489C17.1338 15.4278 17.2968 15.4411 17.4641 15.4086ZM18.6587 15.4161C18.6587 15.4161 18.2891 15.7409 18.0222 15.6622C17.7554 15.5834 17.6727 15.4948 17.6727 15.4948C17.6727 15.4948 17.9391 15.4593 18.2219 15.4161C18.5047 15.373 18.6587 15.4161 18.6587 15.4161Z" fill="#D62818"/>
<path fill-rule="evenodd" clip-rule="evenodd" d="M17.4349 15.1795L17.39 15.1155C17.522 15.0099 17.4876 14.9509 17.2348 14.8941C17.2127 14.8892 17.1904 14.8843 17.1679 14.8795L17.1679 14.8795C16.9349 14.8299 16.6805 14.7877 16.4267 14.7571C16.1474 14.7235 15.868 14.7038 15.6194 14.7038C15.868 14.7038 16.1469 14.7234 16.4267 14.7571C16.6819 14.7878 16.9369 14.8301 17.1679 14.8795L17.1825 14.801C16.9472 14.7509 16.6904 14.7083 16.4341 14.6775C16.1525 14.6436 15.8706 14.6238 15.6194 14.6238C15.8707 14.6238 16.152 14.6435 16.4341 14.6775C16.717 14.7115 16.9996 14.7596 17.2502 14.8158C17.5551 14.8842 17.6341 15.0202 17.4349 15.1795Z" fill="#EBCA5E"/>
<path d="M15.3655 15.5103L15.1711 15.1683C15.3481 15.0539 15.5754 14.9993 15.8513 14.9993C16.1285 14.9993 16.3531 15.0543 16.5239 15.1708L16.3218 15.5078C16.2189 15.4376 16.0626 15.3993 15.8513 15.3993C15.6388 15.3993 15.4774 15.438 15.3655 15.5103Z" fill="#D62818"/>
</g>
</g>
</svg>
