<svg width="32" height="24" viewBox="0 0 32 24" fill="none" xmlns="http://www.w3.org/2000/svg">
<mask id="mask0_157_78233" style="mask-type:alpha" maskUnits="userSpaceOnUse" x="0" y="0" width="32" height="24">
<rect width="32" height="24" fill="white"/>
</mask>
<g mask="url(#mask0_157_78233)">
<path fill-rule="evenodd" clip-rule="evenodd" d="M0 0V24H32V0H0Z" fill="#2E42A5"/>
<mask id="mask1_157_78233" style="mask-type:alpha" maskUnits="userSpaceOnUse" x="0" y="0" width="32" height="24">
<path fill-rule="evenodd" clip-rule="evenodd" d="M0 0V24H32V0H0Z" fill="white"/>
</mask>
<g mask="url(#mask1_157_78233)">
<path d="M25.9503 19.714C24.9216 19.714 24.2057 19.4712 23.6961 19.0478C23.1843 18.6225 22.8487 17.9888 22.6341 17.1443C22.4191 16.2985 22.3312 15.2635 22.2983 14.0611C22.2753 13.2161 22.2795 12.2991 22.2841 11.3158C22.2857 10.9791 22.2873 10.6347 22.2878 10.2827H29.7038C29.8362 12.6901 29.8836 15.0362 29.4124 16.7958C29.1702 17.7 28.7967 18.4261 28.2479 18.9257C27.7044 19.4206 26.9664 19.714 25.9503 19.714Z" fill="#6DC2FF" stroke="#F7FCFF" stroke-width="0.5"/>
<mask id="mask2_157_78233" style="mask-type:alpha" maskUnits="userSpaceOnUse" x="22" y="10" width="9" height="10">
<path d="M25.9503 19.714C24.9216 19.714 24.2057 19.4712 23.6961 19.0478C23.1843 18.6225 22.8487 17.9888 22.6341 17.1443C22.4191 16.2985 22.3312 15.2635 22.2983 14.0611C22.2753 13.2161 22.2795 12.2991 22.2841 11.3158C22.2857 10.9791 22.2873 10.6347 22.2878 10.2827H29.7038C29.8362 12.6901 29.8836 15.0362 29.4124 16.7958C29.1702 17.7 28.7967 18.4261 28.2479 18.9257C27.7044 19.4206 26.9664 19.714 25.9503 19.714Z" fill="white" stroke="white" stroke-width="0.5"/>
</mask>
<g mask="url(#mask2_157_78233)">
<path fill-rule="evenodd" clip-rule="evenodd" d="M24.5222 13.5871C24.5222 13.5871 24.1275 13.2952 23.9582 12.8223C23.789 12.3494 23.4541 11.0904 23.4541 10.9811C23.4541 10.8718 23.0085 10.9811 23.0085 10.9811C23.0085 10.9811 23.0148 10.4487 23.1829 10.4487C23.3511 10.4487 23.3574 9.95509 23.7654 10.0794C24.1733 10.2037 24.4942 10.6596 24.9099 10.6596C25.3257 10.6596 27.0637 10.7922 27.3431 10.7922C27.6224 10.7922 28.3589 11.3818 28.3589 11.8232C28.3589 12.2646 28.158 12.9222 28.0001 12.9222C27.8421 12.9222 27.6433 13.3048 27.3431 13.1785C27.0428 13.0522 26.3259 12.7921 25.6837 12.9222C25.0415 13.0522 24.9099 12.9705 24.9099 13.1785C24.9099 13.3865 24.5222 13.5871 24.5222 13.5871Z" fill="#E1E5E8"/>
<path fill-rule="evenodd" clip-rule="evenodd" d="M23.6001 13.2788H28.7557L27.8677 14.4263H24.2249L23.6001 13.2788Z" fill="#49801E"/>
<path d="M23.5332 18.2958C23.5332 18.2958 24.4242 18.6145 24.7966 18.5757C25.209 18.5328 25.5741 18.0627 25.8497 18.0627C26.1248 18.0627 26.6545 18.533 27.0659 18.5757C27.4389 18.6145 28.1662 18.2958 28.1662 18.2958" stroke="white" stroke-width="1.06667"/>
<path d="M22.5547 16.9363C22.8628 16.6754 23.5332 16.6564 23.5332 16.6564C23.5332 16.6564 24.4242 16.9751 24.7966 16.9363C25.209 16.8934 25.5741 16.4233 25.8497 16.4233C26.1249 16.4233 26.6546 16.8936 27.066 16.9363C27.4389 16.9751 28.1663 16.6564 28.1663 16.6564C28.1663 16.6564 28.5728 16.1993 29.0832 16.6819" stroke="white" stroke-width="1.06667"/>
<path d="M22.461 15.5298L21.7866 14.7033C22.051 14.4876 22.495 14.2749 23.1431 14.0399L23.4577 14.0248C24.1296 14.1974 24.5788 14.2723 24.7433 14.2558C24.7976 14.2503 24.8883 14.2063 25.054 14.0963C25.5246 13.7842 25.5703 13.7588 25.8497 13.7588C26.105 13.7588 26.1577 13.7833 26.6914 14.0715C26.7905 14.1246 26.8277 14.1439 26.8813 14.1697C26.994 14.2238 27.0747 14.2513 27.119 14.2558C27.2472 14.2686 27.5052 14.2088 27.8663 14.0635C28.3358 13.6367 28.9306 13.6809 29.4423 14.1471C29.7836 14.458 30.0576 14.7093 30.2645 14.9009L29.5394 15.6833C29.3351 15.494 29.0632 15.2447 28.7239 14.9356C28.589 14.8127 28.6181 14.8134 28.5581 14.8784L28.3736 15.008C27.8134 15.2446 27.371 15.353 27.0127 15.3171C26.8204 15.2979 26.6344 15.2344 26.4197 15.1313C26.3478 15.0968 26.2964 15.0701 26.1845 15.0101C25.9269 14.8709 25.8291 14.8255 25.8497 14.8255C25.8945 14.8255 25.8323 14.8601 25.6436 14.9852C25.3402 15.1865 25.1291 15.2891 24.8497 15.3171C24.5409 15.3481 24.0592 15.2736 23.3548 15.0989C22.8972 15.272 22.5932 15.4219 22.461 15.5298Z" fill="white"/>
</g>
<path d="M22.9632 18.3938C22.9632 18.3938 23.9472 19.3363 23.353 19.9748C22.7589 20.6134 22.2141 20.2425 22.2141 20.2425" stroke="#B85F3C"/>
<path d="M29.0499 18.3938C29.0499 18.3938 28.066 19.3363 28.6601 19.9748C29.2543 20.6134 29.7991 20.2425 29.7991 20.2425" stroke="#B85F3C"/>
<path d="M22.3206 19.1533C22.3206 19.1533 24.0158 20.7733 26.0997 20.7733C28.1837 20.7733 29.8606 19.5357 29.8606 19.5357" stroke="#CB8B73"/>
<rect width="18" height="14" fill="#2B409A"/>
<mask id="mask3_157_78233" style="mask-type:alpha" maskUnits="userSpaceOnUse" x="0" y="0" width="18" height="14">
<rect width="18" height="14" fill="white"/>
</mask>
<g mask="url(#mask3_157_78233)">
<path d="M-2.00415 12.9999L1.9568 14.7371L18.09 1.88878L20.1793 -0.692749L15.9436 -1.27337L9.3633 4.26332L4.06679 7.99375L-2.00415 12.9999Z" fill="#F7FCFF"/>
<path d="M-1.46191 14.217L0.556007 15.2251L19.429 -0.932617H16.5956L-1.46191 14.217Z" fill="#F50100"/>
<path d="M20.0044 12.9999L16.0434 14.7371L-0.0897522 1.88878L-2.17906 -0.692749L2.0566 -1.27337L8.63695 4.26332L13.9335 7.99375L20.0044 12.9999Z" fill="#F7FCFF"/>
<path d="M19.8691 13.8732L17.8512 14.8813L9.81489 7.96339L7.43229 7.19046L-2.3802 -0.684069H0.453194L10.2602 7.00356L12.8651 7.93038L19.8691 13.8732Z" fill="#F50100"/>
<mask id="path-21-outside-1_157_78233" maskUnits="userSpaceOnUse" x="-2" y="-2" width="22" height="18" fill="black">
<rect fill="white" x="-2" y="-2" width="22" height="18"/>
<path fill-rule="evenodd" clip-rule="evenodd" d="M9.98451 0H7.98451V6H0V8H7.98451V14H9.98451V8H18V6H9.98451V0Z"/>
</mask>
<path fill-rule="evenodd" clip-rule="evenodd" d="M9.98451 0H7.98451V6H0V8H7.98451V14H9.98451V8H18V6H9.98451V0Z" fill="#F50100"/>
<path d="M7.98451 0V-1.5H6.48451V0H7.98451ZM9.98451 0H11.4845V-1.5H9.98451V0ZM7.98451 6V7.5H9.48451V6H7.98451ZM0 6V4.5H-1.5V6H0ZM0 8H-1.5V9.5H0V8ZM7.98451 8H9.48451V6.5H7.98451V8ZM7.98451 14H6.48451V15.5H7.98451V14ZM9.98451 14V15.5H11.4845V14H9.98451ZM9.98451 8V6.5H8.48451V8H9.98451ZM18 8V9.5H19.5V8H18ZM18 6H19.5V4.5H18V6ZM9.98451 6H8.48451V7.5H9.98451V6ZM7.98451 1.5H9.98451V-1.5H7.98451V1.5ZM9.48451 6V0H6.48451V6H9.48451ZM0 7.5H7.98451V4.5H0V7.5ZM1.5 8V6H-1.5V8H1.5ZM7.98451 6.5H0V9.5H7.98451V6.5ZM9.48451 14V8H6.48451V14H9.48451ZM9.98451 12.5H7.98451V15.5H9.98451V12.5ZM8.48451 8V14H11.4845V8H8.48451ZM18 6.5H9.98451V9.5H18V6.5ZM16.5 6V8H19.5V6H16.5ZM9.98451 7.5H18V4.5H9.98451V7.5ZM8.48451 0V6H11.4845V0H8.48451Z" fill="#F7FCFF" mask="url(#path-21-outside-1_157_78233)"/>
</g>
</g>
</g>
</svg>
