<svg width="32" height="24" viewBox="0 0 32 24" fill="none" xmlns="http://www.w3.org/2000/svg">
<mask id="mask0_157_78256" style="mask-type:alpha" maskUnits="userSpaceOnUse" x="0" y="0" width="32" height="24">
<rect width="32" height="24" fill="white"/>
</mask>
<g mask="url(#mask0_157_78256)">
<path fill-rule="evenodd" clip-rule="evenodd" d="M0 0.100098H32V24.1001H0V0.100098Z" fill="#2B409A"/>
</g>
<rect width="18" height="14" fill="#2B409A"/>
<mask id="mask1_157_78256" style="mask-type:alpha" maskUnits="userSpaceOnUse" x="0" y="0" width="18" height="14">
<rect width="18" height="14" fill="white"/>
</mask>
<g mask="url(#mask1_157_78256)">
<path d="M-2.00415 12.9999L1.9568 14.7371L18.09 1.88878L20.1793 -0.692749L15.9436 -1.27337L9.3633 4.26332L4.06679 7.99375L-2.00415 12.9999Z" fill="#F7FCFF"/>
<path d="M-1.46191 14.217L0.556007 15.2251L19.429 -0.932617H16.5956L-1.46191 14.217Z" fill="#F50100"/>
<path d="M20.0044 12.9999L16.0434 14.7371L-0.0897522 1.88878L-2.17906 -0.692749L2.0566 -1.27337L8.63695 4.26332L13.9335 7.99375L20.0044 12.9999Z" fill="#F7FCFF"/>
<path d="M19.8691 13.8732L17.8512 14.8813L9.81489 7.96339L7.43229 7.19046L-2.3802 -0.684069H0.453194L10.2602 7.00356L12.8651 7.93038L19.8691 13.8732Z" fill="#F50100"/>
<mask id="path-10-outside-1_157_78256" maskUnits="userSpaceOnUse" x="-2" y="-2" width="22" height="18" fill="black">
<rect fill="white" x="-2" y="-2" width="22" height="18"/>
<path fill-rule="evenodd" clip-rule="evenodd" d="M9.98451 0H7.98451V6H0V8H7.98451V14H9.98451V8H18V6H9.98451V0Z"/>
</mask>
<path fill-rule="evenodd" clip-rule="evenodd" d="M9.98451 0H7.98451V6H0V8H7.98451V14H9.98451V8H18V6H9.98451V0Z" fill="#F50100"/>
<path d="M7.98451 0V-1.5H6.48451V0H7.98451ZM9.98451 0H11.4845V-1.5H9.98451V0ZM7.98451 6V7.5H9.48451V6H7.98451ZM0 6V4.5H-1.5V6H0ZM0 8H-1.5V9.5H0V8ZM7.98451 8H9.48451V6.5H7.98451V8ZM7.98451 14H6.48451V15.5H7.98451V14ZM9.98451 14V15.5H11.4845V14H9.98451ZM9.98451 8V6.5H8.48451V8H9.98451ZM18 8V9.5H19.5V8H18ZM18 6H19.5V4.5H18V6ZM9.98451 6H8.48451V7.5H9.98451V6ZM7.98451 1.5H9.98451V-1.5H7.98451V1.5ZM9.48451 6V0H6.48451V6H9.48451ZM0 7.5H7.98451V4.5H0V7.5ZM1.5 8V6H-1.5V8H1.5ZM7.98451 6.5H0V9.5H7.98451V6.5ZM9.48451 14V8H6.48451V14H9.48451ZM9.98451 12.5H7.98451V15.5H9.98451V12.5ZM8.48451 8V14H11.4845V8H8.48451ZM18 6.5H9.98451V9.5H18V6.5ZM16.5 6V8H19.5V6H16.5ZM9.98451 7.5H18V4.5H9.98451V7.5ZM8.48451 0V6H11.4845V0H8.48451Z" fill="#F7FCFF" mask="url(#path-10-outside-1_157_78256)"/>
</g>
<path d="M24.3178 18.5516C24.2564 18.5516 24.0334 18.4315 24.0334 18.4315C24.0334 18.4315 23.8719 18.6871 23.7872 18.7019C23.7026 18.717 23.2644 18.5443 23.2644 18.5443C23.2644 18.5443 22.9568 18.7846 22.8876 18.7695C22.8184 18.7547 22.111 18.6044 22.111 18.6044L21.7266 18.3639C21.7266 18.3639 21.5113 18.7094 21.5036 18.7019C21.4959 18.6943 20.8577 18.5742 20.8577 18.5742C20.8577 18.5742 21.0499 18.3113 21.0499 18.3038C21.0499 18.2963 20.9576 18.2661 20.9576 18.2661L20.8192 18.3789L20.2502 18.4315L20.3887 18.0406L20.6116 17.7102L23.3413 15.1177L24.6869 17.5448L24.4871 18.2736C24.4871 18.2736 24.3793 18.5516 24.3178 18.5516Z" fill="#6A4C2D"/>
<path d="M21.7105 18.061C21.8055 18.176 23.058 19.4563 23.261 20.062C23.4641 20.6677 21.614 19.894 21.614 19.894C21.614 19.894 23.9436 18.3809 25.1073 18.3809C26.271 18.3809 28.5582 19.894 28.5582 19.894C28.5582 19.894 27.0234 20.9749 27.0392 20.2933C27.0549 19.6118 27.7596 18.2692 28.6006 18.061" stroke="#FFBB00" stroke-width="0.5" stroke-linecap="round" stroke-linejoin="round"/>
<path d="M29.5417 18.16L29.1591 18.0175L28.8203 17.5689L27.4174 17.4657L26.1384 17.1167L25.5991 17.4764L25.8895 17.8556L26.5991 18.1167L29.5417 18.16Z" fill="#F7FCFF"/>
<path d="M23.9388 9.86616C23.9518 9.89892 24.2378 9.84083 24.2986 10.0122C24.6066 9.55753 24.9679 9.99113 24.9679 9.99113L25.272 9.6311L25.6153 9.95622L25.9303 9.9317L26.2594 10.7043L23.6619 10.6555C23.6619 10.6555 23.9257 9.8334 23.9388 9.86616Z" fill="#656263"/>
<path d="M26.6313 13.154C26.6104 12.9094 26.3935 12.8808 26.2725 12.889C26.1512 12.8971 26.0428 12.999 26.0428 12.999L25.6422 12.7503C25.6422 12.7503 25.8427 11.5146 26.0553 11.4372C26.2574 11.2948 26.2931 11.2332 26.2931 11.2008C26.2931 11.1681 26.2181 11.0357 26.2181 11.0357L24.9118 10.8848L23.6766 11.0275C23.6766 11.0275 23.5807 11.2209 23.5932 11.2781C23.6058 11.335 23.6099 11.3964 23.831 11.5636C24.0759 11.7476 24.2441 12.8034 24.2441 12.8034C24.2441 12.8034 23.8979 12.9704 23.877 12.95C23.8561 12.9298 23.7518 12.9094 23.6975 12.9176C23.6434 12.9257 23.4639 13.0154 23.4639 13.2477C23.4639 13.4804 23.6434 13.615 23.6434 13.615C23.6434 13.615 24.8243 14.4804 24.9996 14.7983C25.1708 14.415 26.2931 13.5496 26.4266 13.4842C26.481 13.4518 26.6522 13.3986 26.6313 13.154Z" fill="#656263"/>
<path d="M27.8101 12.0017C27.9082 11.9378 28.5617 11.9058 28.7187 12.0017C28.8754 12.0976 28.9343 12.5701 28.9343 12.5701C28.9343 12.5701 29.0324 12.7362 29.0389 12.8575C29.0453 12.9789 29.0585 13.0619 29.0585 13.0619C29.0585 13.0619 29.5814 13.7263 29.5878 14.3266C29.6467 14.7353 29.6335 15.8273 29.4704 16.2424C29.4636 16.7599 29.2416 17.0983 29.2416 17.0983C29.2416 17.0983 29.2937 17.1876 29.2873 17.2835C29.2805 17.3794 29.2284 17.4687 29.2284 17.4687L28.7384 17.6793L28.1959 17.59L27.5813 15.7953L27.7251 12.7616L27.7644 12.6085L27.6991 12.1997C27.6991 12.1997 27.7123 12.0655 27.8101 12.0017Z" fill="black"/>
<path d="M24.262 13.5942C24.262 13.5942 24.9232 13.5942 24.9946 13.8039C25.1198 13.5244 25.6916 13.542 25.6916 13.542C26.0371 13.5303 26.3827 13.5187 26.728 13.5071C26.7341 14.3221 26.7399 15.1371 26.746 15.9521C26.5436 16.9007 25.8405 17.5705 25.0661 17.8557C24.1426 17.5645 23.5589 16.802 23.3685 15.9345C23.3324 15.1604 23.2967 14.3859 23.261 13.6118C23.5947 13.6058 23.9283 13.6002 24.262 13.5942Z" fill="#F7FCFF"/>
<path d="M23.6174 13.6027L25.0753 17.3991L26.3923 13.52C25.9837 13.5458 25.1072 13.4571 24.9984 13.8212C24.8298 13.4955 23.9077 13.6269 23.6174 13.6027V13.6027Z" fill="#006B00"/>
<path fill-rule="evenodd" clip-rule="evenodd" d="M25.3073 14.1982C25.3073 14.1982 25.4398 14.5441 25.3073 14.7153C25.1747 14.8866 25.3182 15.0269 25.3982 15.0269C25.4782 15.0269 25.7527 15.2988 25.53 15.2988C25.3073 15.2988 25.1815 15.2141 25.1815 15.4531C25.1815 15.6921 25.4892 16.7683 25.3982 17.0264C25.3073 17.2844 25.3299 17.4819 25.4604 17.4163C25.5909 17.3507 25.6725 17.1821 25.6012 16.8575C25.53 16.5328 25.4604 16.6094 25.4604 16.3288C25.4604 16.0483 25.53 15.736 25.53 15.736C25.53 15.736 25.647 15.8237 25.5638 16.144C25.4805 16.4644 25.6669 16.9062 25.6669 17.0264C25.6669 17.1466 25.6725 17.4773 25.6012 17.5101C25.53 17.5428 25.4646 17.7425 25.3982 17.5903C25.3318 17.4381 25.2902 17.1871 25.2051 17.3598C25.12 17.5325 25.1364 17.9296 25.0479 17.9488C24.9594 17.9679 24.8272 18.1561 24.8272 18.0806C24.8272 18.0051 24.7026 17.8685 24.7405 17.7414C24.7785 17.6143 24.8118 17.5993 24.8426 17.7212C24.8733 17.8431 25.0026 17.8419 25.0026 17.7414C25.0026 17.6409 24.9573 17.6899 25.0026 17.461C25.0479 17.2321 25.0983 16.9291 25.0026 16.9473C24.907 16.9655 24.7601 17.1146 24.7405 16.8396C24.721 16.5646 24.6424 16.4359 24.7057 16.3824C24.769 16.3288 24.8533 16.1375 24.8803 16.288C24.9073 16.4384 24.7884 16.5822 24.8078 16.6363C24.8272 16.6905 24.838 16.8133 24.9203 16.7105C25.0026 16.6076 25.0511 16.438 25.1126 16.5952C25.1742 16.7525 25.1755 16.6284 25.0479 16.3288C24.9203 16.0293 24.8119 15.8627 24.8272 15.5997C24.8426 15.3367 24.8219 15.2382 24.8426 15.1537C24.8633 15.0692 24.6141 14.6575 24.6773 14.539C24.7405 14.4204 24.7648 14.0377 24.8426 14.1066C24.9203 14.1755 24.9604 14.268 24.9203 14.371C24.8803 14.474 24.8403 14.5764 24.8803 14.6459C24.9203 14.7153 25.0577 14.916 25.0852 14.8655C25.1126 14.815 25.2051 14.8639 25.2051 14.5781C25.2051 14.2924 25.1021 14.192 25.167 14.1241C25.2319 14.0563 25.3073 14.1982 25.3073 14.1982Z" fill="#FFD100"/>
<path d="M26.4007 13.5206L26.5973 13.5159L26.2462 13.9504L26.6674 14.4309L25.8389 15.4509L26.6207 16.3703C26.5348 16.5762 26.4351 16.7636 26.3022 16.9331L25.853 16.4479L26.6674 15.4556L25.9981 14.7145L26.4007 13.5206V13.5206Z" fill="#1E5AA6"/>
<path d="M23.3811 13.6121L23.7743 14.0281L23.358 14.5359L24.2238 15.4556L23.5076 16.3933C23.5935 16.5992 23.7167 16.8278 23.8493 16.997L24.2753 16.4709L23.4001 15.5195L24.0414 14.7236L23.5919 13.6074L23.3811 13.6121Z" fill="#1E5AA6"/>
<path d="M24.5655 16.0775L24.2566 16.4799L25.3612 17.7289C25.5562 17.6327 25.7093 17.5229 25.8763 17.3905L25.3004 16.7409L25.5346 16.0684L25.8715 16.4479L24.8184 17.7609C24.6421 17.6877 24.4471 17.5732 24.2707 17.4314L24.8277 16.7409L24.5655 16.0775V16.0775Z" fill="#1E5AA6"/>
<path d="M28.3852 12.8513C28.3852 12.9152 28.4548 16.6834 28.5311 16.6474C28.7206 16.5578 28.7642 16.7534 28.7642 16.7534C28.7642 16.7534 28.8296 17.3732 28.6661 17.4562C28.372 17.6093 28.2434 17.6431 28.2434 17.6431L27.9605 17.437C27.9605 17.437 27.6728 17.0345 27.6075 16.8556C27.5422 16.677 27.4637 15.8787 27.4897 15.706C27.5158 15.5337 27.5354 14.5244 27.5226 14.4735C27.5094 14.4222 27.4572 13.5792 27.4897 13.4516C27.5226 13.3239 27.725 12.7617 27.7185 12.7617C27.7185 12.7617 28.3852 12.7875 28.3852 12.8513Z" fill="url(#paint0_linear_157_78256)"/>
<path d="M27.7318 12.2061C27.8688 12.2061 27.9734 12.3211 28.0062 12.4233C28.0127 12.468 27.993 12.5 27.9995 12.5831C28.0062 12.6661 27.0062 12.6019 26.9998 12.5956C26.9998 12.5956 27.4637 12.1551 27.7318 12.2061Z" fill="#FF7000"/>
<path d="M28.8296 17.6666C28.8296 17.6666 29.1433 17.5962 29.2283 17.4877C29.2807 17.4494 29.5552 17.8902 28.8296 17.6666Z" fill="white" stroke="black" stroke-width="0.5" stroke-linejoin="round"/>
<path d="M28.3087 12.4604C28.3087 12.488 28.2864 12.5104 28.2587 12.5104C28.2311 12.5104 28.2087 12.488 28.2087 12.4604C28.2087 12.4328 28.2311 12.4104 28.2587 12.4104C28.2864 12.4104 28.3087 12.4328 28.3087 12.4604Z" fill="black"/>
<path d="M25.8205 11.9089C25.8205 11.9089 26.3411 12.4595 26.678 12.4535C26.7391 12.6151 26.5248 12.7654 26.4392 12.8371C26.2677 12.7834 26.1126 12.8469 25.7146 12.3683C25.7394 12.063 25.8266 11.9209 25.8205 11.9089Z" fill="#F7FCFF"/>
<path d="M27.8905 9.13818C27.9394 9.49129 27.8875 9.57328 27.8645 9.72155C27.8415 9.86983 28.7689 9.92457 29.0077 9.63121C28.9832 9.76296 28.7048 10.2991 27.4432 10.2931C27.921 10.7361 27.2904 11.0892 27.0207 10.9814C27.5169 10.6103 26.8801 10.389 26.5249 10.6283C26.5922 10.4248 27.0883 9.40168 27.8905 9.13818Z" fill="#F7FCFF"/>
<path fill-rule="evenodd" clip-rule="evenodd" d="M27.0502 11.6167C26.9556 11.2278 26.9098 10.7811 27.1189 10.6102C26.8432 10.4247 26.5433 10.6162 26.5433 10.6162C26.5412 10.6208 26.5356 10.6287 26.5276 10.6397C26.4635 10.7283 26.2492 11.0245 26.5433 11.5564C25.7595 11.353 26.0874 12.0645 26.1453 12.1182C26.1758 12.0044 26.5922 11.8969 26.6964 12.4773C26.7315 12.5949 26.5203 12.7646 26.4526 12.819C26.4376 12.8311 26.4296 12.8375 26.4329 12.8364C26.4329 12.8364 27.0962 12.971 27.182 12.0947C27.2956 12.0271 27.8458 11.6603 27.829 10.9036C27.3235 10.914 27.1001 11.471 27.0502 11.6167Z" fill="#0000FF"/>
<path d="M24.0875 12.0645C24.0875 12.0645 23.5795 12.4952 23.2915 12.3575C23.0772 12.4833 22.8262 12.2619 22.8262 12.2619C22.8262 12.2619 23.12 13.3209 24.1735 12.555C24.1551 12.3217 24.0998 12.0824 24.0875 12.0645V12.0645Z" fill="#F7FCFF"/>
<path d="M23.2853 12.3396C23.3281 12.1182 23.5057 12.0103 23.6467 12.2198C23.8365 12.2559 24.0263 11.4959 23.3526 11.6214C23.5424 10.6281 22.9731 10.2571 22.9731 10.2571C22.9731 10.2571 22.771 11.3582 22.8628 11.5617C22.9547 11.7651 22.7281 11.1846 21.9994 11.023C21.9871 11.855 22.8138 12.244 22.8138 12.244C22.8138 12.244 23.0466 12.4534 23.2853 12.3396V12.3396Z" fill="#0000FF"/>
<path d="M22.5965 11.1389C22.3822 11.2047 21.861 10.8904 22.1917 10.4832C21.1078 10.4593 20.5177 9.54364 20.879 9.71825C21.2402 9.89286 21.4983 9.52079 21.7678 9.71825C21.4371 9.41923 21.8832 9.17993 21.8832 9.17993C21.8832 9.17993 22.8079 9.4494 22.9732 10.2512C22.9181 10.4068 22.8936 10.682 22.8813 10.67C22.8813 10.664 22.3087 10.6601 22.5965 11.1389Z" fill="#F7FCFF"/>
<path d="M24.3268 7.43135C24.3316 7.4039 25.0244 7.16595 25.071 6.77261C25.1177 6.37927 25.0617 6.64452 25.0617 6.64452C25.0617 6.64452 25.2538 6.46614 25.1837 6.37005C25.1132 6.274 25.1367 6.49359 25.0244 6.489C24.9121 6.48441 24.9729 6.25113 24.9729 6.25113C24.9729 6.25113 24.9636 6.22368 24.9308 6.20996C24.8838 6.21453 24.7763 6.11389 24.7763 6.11389C24.7763 6.11389 24.7062 6.02241 24.645 6.3106C24.6779 6.6171 24.8793 6.55761 24.8793 6.75891C24.8793 6.96018 24.7013 7.1157 24.6499 7.12029C24.5984 7.12485 24.617 6.95103 24.617 6.95103C24.617 6.95103 24.589 6.86868 24.5704 6.86868C24.5517 6.86868 24.6733 6.85038 24.6547 6.62166C24.6125 6.3472 24.5797 6.68571 24.5047 6.67197C24.4298 6.65826 24.4861 6.4204 24.5141 6.39295C24.5421 6.3655 24.4813 6.25114 24.3175 6.5439C24.3033 6.68571 24.2847 6.5073 24.2518 6.51645C24.1959 6.63081 24.2052 6.71316 24.2847 6.81837C24.4018 6.92358 24.4768 7.02879 24.4719 7.08369C24.4674 7.13859 24.4063 7.26209 24.3223 7.26209C24.238 7.26209 24.3268 7.11114 24.3223 7.0608C24.3175 7.01049 24.1772 6.82752 24.1772 6.82752C24.1772 6.82752 24.0787 6.67197 24.0881 6.66741C24.0974 6.66282 23.8635 6.89154 24.0038 7.01049C23.8963 6.99678 23.887 7.03794 23.887 7.03794C23.887 7.09284 24.0321 7.1157 24.0507 7.21175C24.0694 7.30784 23.9008 7.36271 23.9008 7.36271C23.9008 7.36271 23.9713 7.45877 24.1675 7.27124C24.1724 7.39016 24.0929 7.47251 24.0929 7.47251C24.1582 7.50147 24.2097 7.49842 24.219 7.57316C24.219 7.57315 24.3223 7.45876 24.3268 7.43135Z" fill="#CDAD56"/>
<path d="M23.5768 7.57313C23.5768 7.57313 23.4893 7.4462 23.4854 7.4212C23.4812 7.39623 23.0549 7.45277 22.8532 6.94459C22.722 6.70317 22.8532 6.84469 22.8532 6.84469L22.8612 6.72813C22.8612 6.72813 22.7215 6.56123 22.7812 6.47382C22.8408 6.38641 22.8162 6.5862 22.893 6.58661C22.9883 6.58246 22.9367 6.37015 22.9367 6.37015C22.9367 6.37015 22.9446 6.34519 22.9725 6.3327C23.0121 6.33686 23.0285 6.46209 23.0642 6.47043C23.0999 6.47876 23.1739 6.32305 23.1971 6.29103C23.2299 6.28645 23.2286 6.16204 23.2804 6.42427C23.2528 6.70317 23.0163 6.64905 23.0163 6.83221C23.0163 7.01533 23.1672 7.15686 23.2109 7.16104C23.2547 7.16519 23.2389 7.00703 23.2389 7.00703C23.2389 7.00703 23.2628 6.9321 23.2785 6.9321C23.2946 6.9321 23.1395 6.96119 23.1556 6.75307C23.1913 6.55821 23.2705 6.76561 23.3342 6.7531C23.3979 6.74062 23.3268 6.54705 23.3451 6.5175C23.3493 6.48794 23.4429 6.361 23.4793 6.64113C23.4912 6.77017 23.5633 6.53007 23.5909 6.53841C23.6389 6.64245 23.57 6.78143 23.5025 6.87717C23.403 6.97289 23.358 7.07778 23.3622 7.12774C23.366 7.17767 23.3895 7.23974 23.4613 7.23974C23.5327 7.23974 23.4854 7.15271 23.4893 7.10693C23.4931 7.06115 23.6125 6.91292 23.6125 6.91292C23.636 6.87635 23.6164 6.808 23.6411 6.7764C23.6801 6.77681 23.6962 6.72398 23.7357 6.86966C23.7756 7.01533 23.8233 6.77391 23.8233 6.77391C23.8233 6.77391 23.8789 6.95292 23.7596 7.06115C23.8509 7.04866 23.859 7.08611 23.859 7.08611C23.859 7.13607 23.8155 7.15686 23.7995 7.24427C23.7834 7.33168 23.8471 7.38164 23.8471 7.38164C23.8471 7.38164 23.7875 7.46906 23.6206 7.29838C23.6164 7.40661 23.6843 7.48154 23.6843 7.48154C23.6283 7.50792 23.5848 7.50512 23.5768 7.57313V7.57313Z" fill="#CDAD56"/>
<path d="M24.6755 7.47455C24.5732 7.77348 24.2041 7.66006 24.2041 7.66006C24.2041 7.66006 24.2164 7.80967 24.1797 7.88145C24.2099 7.90373 24.4281 8.07156 24.6572 8.11486C24.9867 8.17711 25.6614 8.00679 25.8879 8.25846C26.1144 8.51012 26.1025 8.71325 26.1025 8.71325C26.1025 8.71325 25.8078 8.74691 25.8897 8.85071C25.9429 8.91811 26.0895 8.9682 26.1025 9.03786C26.1439 9.25959 25.9642 9.65854 26.0288 9.80841C25.9268 9.81753 25.9188 9.92192 25.9188 9.92192C25.913 10.0405 25.6186 9.97003 25.6186 9.97003C25.6186 9.97003 25.8023 9.50907 25.8145 9.40154C25.8268 9.29369 25.6858 9.1022 25.5758 9.1022C25.4654 9.1022 25.386 9.44336 25.386 9.44336C25.386 9.44336 25.3309 9.70056 25.3493 9.72446C25.3676 9.74835 25.2756 9.64082 25.2756 9.64082C25.2756 9.64082 25.2467 9.74529 25.1993 9.80841C25.146 9.8794 25.0735 9.90997 25.0735 9.90997C25.0735 9.90997 25.0185 9.75433 25.0369 9.69459C25.0552 9.63484 25.3371 9.40154 25.3126 9.23395C25.3017 9.15998 25.292 9.03088 25.1993 8.98805C25.082 8.93382 24.8669 8.97337 24.737 8.94662C24.6655 9.06824 24.6327 9.73641 24.6816 9.77854C24.7309 9.82036 24.5594 9.90997 24.5594 9.90997L24.3573 9.91594C24.3541 9.82539 24.4763 9.57793 24.4763 9.36852C24.4763 9.15911 24.4918 8.93467 24.4918 8.93467C24.4918 8.93467 24.356 8.96886 24.2836 9.1022C24.2229 9.214 24.223 9.42533 24.2286 9.4553C24.2408 9.52102 24.3019 9.70653 24.2836 9.76062C24.2653 9.81438 23.947 9.88607 23.947 9.88607L23.9345 9.71251C23.9345 9.71251 24.0693 9.62887 24.0693 9.41946C24.0693 9.21005 24.0815 8.91071 24.0754 8.89279C24.0718 8.88202 23.9651 8.42375 23.8249 8.11486C23.7313 7.90884 23.5869 7.81445 23.5796 7.79769C23.5613 7.75581 23.5613 7.70792 23.5613 7.70792C23.5613 7.70792 23.3589 7.85155 23.1201 7.54637C23.3389 7.3639 23.5735 7.49848 23.5735 7.49848C23.5735 7.49848 23.6346 7.33092 23.9162 7.3429C24.198 7.35488 24.253 7.51046 24.2408 7.4925C24.2408 7.4925 24.449 7.31296 24.6755 7.47455Z" fill="#923F00"/>
<path d="M25.7813 10.5879C25.7861 10.5879 26.3013 10.603 26.3064 10.8721C26.3116 11.141 26.1484 11.0715 26.1433 11.0715C26.1381 11.0715 25.7659 11.0265 25.7659 11.0265L25.7813 10.5879Z" fill="#0000FF"/>
<path d="M25.2812 10.5132C25.2812 10.5132 25.9238 10.5085 25.8881 10.7823C25.8524 11.0565 25.6892 11.0018 25.6892 11.0018L25.3781 10.9767L25.2812 10.5132V10.5132Z" fill="#F7FCFF"/>
<path d="M24.9192 10.4832L25.2915 10.513C25.2915 10.513 25.5158 10.5429 25.5058 10.7523C25.4955 10.9617 25.276 10.9667 25.276 10.9667L24.9141 10.9466L24.9192 10.4832Z" fill="#0000FF"/>
<path d="M24.0473 10.5879C24.0421 10.5879 23.527 10.603 23.5218 10.8721C23.517 11.141 23.6801 11.0715 23.6853 11.0715C23.6904 11.0715 24.0627 11.0265 24.0627 11.0265L24.0473 10.5879Z" fill="#F7FCFF"/>
<path d="M24.547 10.5132C24.547 10.5132 23.9044 10.5085 23.9402 10.7823C23.9759 11.0565 24.139 11.0018 24.139 11.0018L24.4501 10.9767L24.547 10.5132V10.5132Z" fill="#0000FF"/>
<path d="M24.9094 10.4832L24.5371 10.513C24.5371 10.513 24.3126 10.5429 24.3229 10.7523C24.3331 10.9617 24.5523 10.9667 24.5523 10.9667L24.9143 10.9466L24.9094 10.4832Z" fill="#F7FCFF"/>
<path d="M26.2868 13.1648C26.3852 13.1968 26.3103 13.4952 26.2633 13.5229L25.9061 13.5091C25.9061 13.5091 26.1738 13.1236 26.2868 13.1648Z" fill="#5E0043"/>
<path d="M24.071 13.5778C23.9867 13.463 23.8644 13.1464 23.7518 13.2335C23.653 13.2655 23.7283 13.5639 23.7753 13.5916L24.071 13.5778Z" fill="#5E0043"/>
<path d="M23.6277 11.3636L24.916 12.1874L26.0763 11.4249C26.0763 11.4249 26.3183 11.2945 26.2974 11.2008C26.2768 11.1067 26.1931 11.1435 26.1513 11.1599C26.1098 11.1762 24.9369 11.9878 24.9369 11.9878L23.6892 11.2168C23.6892 11.2168 23.5975 11.1885 23.5807 11.2454C23.564 11.3026 23.6151 11.335 23.6277 11.3636V11.3636Z" fill="#B4B6B9"/>
<path d="M27.9468 17.4276C27.9468 17.4276 27.3836 17.5976 27.5405 17.6024C27.6567 17.606 28.2161 17.6024 28.2161 17.6024L27.9468 17.4276Z" fill="#FF7000"/>
<path d="M28.1749 17.6136L27.6748 17.6277C27.6748 17.6277 27.549 17.7394 27.541 17.7661C27.5333 17.7931 27.6237 17.8007 27.6237 17.8007C27.6237 17.8007 28.1395 17.9318 28.5298 17.8469C28.7267 17.7796 28.7611 17.6988 28.6231 17.6498C28.4854 17.6007 28.1787 17.6155 28.1749 17.6136Z" fill="#FF7000"/>
<path d="M22.3906 12.9899C22.3906 12.9899 22.3255 13.1899 22.3906 13.2899C22.4557 13.3899 22.865 14.1989 22.865 14.1989C22.865 14.1989 23.1441 13.8625 23.2464 13.8534C23.3488 13.8445 23.3021 14.7262 23.3021 14.7262C23.3021 14.7262 23.1348 14.8806 23.0325 14.8715C22.9301 14.8624 23.2834 15.217 23.2741 15.517C23.2648 15.817 22.8092 17.3077 22.6417 17.3347C22.4743 17.3621 22.3298 17.054 22.3298 16.7878C22.3298 16.5215 22.5022 16.0987 22.4929 15.9805C22.4836 15.8622 21.6609 17.2474 21.6111 17.4637C21.6016 17.5047 21.6558 17.6529 21.6558 17.6529C21.6558 17.6529 21.3333 17.6793 21.4046 18.0894C20.4558 17.762 19.9908 17.1986 20.0001 16.626C20.0036 16.4065 19.7944 15.8901 20.0001 15.32C20.3313 14.4022 21.1384 13.3546 21.1442 13.2537C21.1535 13.0899 21.2186 13.0173 21.2279 12.9264C21.2372 12.8355 21.2 12.3718 21.293 12.29C21.386 12.2083 21.8697 12.0083 21.9906 12.0174C22.1115 12.0265 22.2138 12.1083 22.2138 12.1083C22.2138 12.1083 22.6697 12.1083 22.6976 12.2809C22.7255 12.4538 22.6045 12.5173 22.6045 12.5173C22.6045 12.5173 22.6697 12.7629 22.3906 12.9899Z" fill="#8A9396"/>
<path d="M22.6619 18.1455C22.8156 18.2518 23.1705 18.3147 23.1705 18.3147C23.1705 18.3147 22.2986 18.5496 21.4127 18.0936C21.3316 17.7386 21.6027 17.6594 21.6698 17.6566C21.8263 17.6157 22.5082 18.0389 22.6619 18.1455Z" fill="#2B2B2B"/>
<path d="M23.7292 18.1078C24.6833 18.6121 24.7854 18.2726 25.4427 17.7933C25.4883 17.7601 25.7053 18.5631 26.6264 18.1078C27.9299 17.4635 25.5089 16.3897 25.1667 16.413C24.8246 16.4369 22.7752 17.6036 23.7292 18.1078Z" fill="#00713D"/>
<defs>
<linearGradient id="paint0_linear_157_78256" x1="28.2751" y1="15.6073" x2="29.0177" y2="15.5992" gradientUnits="userSpaceOnUse">
<stop stop-color="#D5DFFF"/>
<stop offset="1" stop-color="white"/>
</linearGradient>
</defs>
</svg>
