<svg width="32" height="24" viewBox="0 0 32 24" fill="none" xmlns="http://www.w3.org/2000/svg">
<mask id="mask0_157_78272" style="mask-type:alpha" maskUnits="userSpaceOnUse" x="0" y="0" width="32" height="24">
<rect width="32" height="24" fill="white"/>
</mask>
<g mask="url(#mask0_157_78272)">
<path fill-rule="evenodd" clip-rule="evenodd" d="M0 0V24H32V0H0Z" fill="#F7FCFF"/>
<mask id="mask1_157_78272" style="mask-type:alpha" maskUnits="userSpaceOnUse" x="0" y="0" width="32" height="24">
<path fill-rule="evenodd" clip-rule="evenodd" d="M0 0V24H32V0H0Z" fill="white"/>
</mask>
<g mask="url(#mask1_157_78272)">
<path fill-rule="evenodd" clip-rule="evenodd" d="M-1.50562 3.29149L-0.0184705 4.70851C1.20956 3.54766 2.36827 3 3.46944 3C4.00147 3 4.22803 3.1285 4.84161 3.70851C5.81484 4.6285 6.46983 5 7.70092 5C8.93201 5 9.587 4.6285 10.5602 3.70851C11.1738 3.1285 11.4004 3 11.9324 3C12.4644 3 12.691 3.1285 13.3046 3.70851C14.2778 4.6285 14.9328 5 16.1639 5C17.395 5 18.05 4.6285 19.0232 3.70851C19.6368 3.1285 19.8633 3 20.3954 3C20.9274 3 21.154 3.1285 21.7675 3.70851C22.7408 4.6285 23.3958 5 24.6268 5C25.8579 5 26.5129 4.6285 27.4862 3.70851C28.0997 3.1285 28.3263 3 28.8583 3C29.9595 3 31.1182 3.54766 32.3462 4.70851L33.8334 3.29149C32.2404 1.78567 30.5782 1 28.8583 1C27.6272 1 26.9722 1.3715 25.999 2.29149C25.3854 2.8715 25.1589 3 24.6268 3C24.0948 3 23.8683 2.8715 23.2547 2.29149C22.2814 1.3715 21.6265 1 20.3954 1C19.1643 1 18.5093 1.3715 17.5361 2.29149C16.9225 2.8715 16.6959 3 16.1639 3C15.6319 3 15.4053 2.8715 14.7917 2.29149C13.8185 1.3715 13.1635 1 11.9324 1C10.7013 1 10.0463 1.3715 9.07309 2.29149C8.45952 2.8715 8.23295 3 7.70092 3C7.16889 3 6.94233 2.8715 6.32875 2.29149C5.35552 1.3715 4.70053 1 3.46944 1C1.74962 1 0.0873463 1.78567 -1.50562 3.29149ZM-0.0184705 8.70851L-1.50562 7.29149C0.0873463 5.78567 1.74962 5 3.46944 5C4.70053 5 5.35552 5.3715 6.32875 6.29149C6.94233 6.8715 7.16889 7 7.70092 7C8.23295 7 8.45952 6.8715 9.07309 6.29149C10.0463 5.3715 10.7013 5 11.9324 5C13.1635 5 13.8185 5.3715 14.7917 6.29149C15.4053 6.8715 15.6319 7 16.1639 7C16.6959 7 16.9225 6.8715 17.5361 6.29149C18.5093 5.3715 19.1643 5 20.3954 5C21.6265 5 22.2814 5.3715 23.2547 6.29149C23.8683 6.8715 24.0948 7 24.6268 7C25.1589 7 25.3854 6.8715 25.999 6.29149C26.9722 5.3715 27.6272 5 28.8583 5C30.5782 5 32.2404 5.78567 33.8334 7.29149L32.3462 8.70851C31.1182 7.54766 29.9595 7 28.8583 7C28.3263 7 28.0997 7.1285 27.4862 7.70851C26.5129 8.6285 25.8579 9 24.6268 9C23.3958 9 22.7408 8.6285 21.7675 7.70851C21.154 7.1285 20.9274 7 20.3954 7C19.8633 7 19.6368 7.1285 19.0232 7.70851C18.05 8.6285 17.395 9 16.1639 9C14.9328 9 14.2778 8.6285 13.3046 7.70851C12.691 7.1285 12.4644 7 11.9324 7C11.4004 7 11.1738 7.1285 10.5602 7.70851C9.587 8.6285 8.93201 9 7.70092 9C6.46983 9 5.81484 8.6285 4.84161 7.70851C4.22803 7.1285 4.00147 7 3.46944 7C2.36827 7 1.20956 7.54766 -0.0184705 8.70851ZM-0.0184705 12.7085L-1.50562 11.2915C0.0873463 9.78567 1.74962 9 3.46944 9C4.70053 9 5.35552 9.3715 6.32875 10.2915C6.94233 10.8715 7.16889 11 7.70092 11C8.23295 11 8.45952 10.8715 9.07309 10.2915C10.0463 9.3715 10.7013 9 11.9324 9C13.1635 9 13.8185 9.3715 14.7917 10.2915C15.4053 10.8715 15.6319 11 16.1639 11C16.6959 11 16.9225 10.8715 17.5361 10.2915C18.5093 9.3715 19.1643 9 20.3954 9C21.6265 9 22.2814 9.3715 23.2547 10.2915C23.8683 10.8715 24.0948 11 24.6268 11C25.1589 11 25.3854 10.8715 25.999 10.2915C26.9722 9.3715 27.6272 9 28.8583 9C30.5782 9 32.2404 9.78567 33.8334 11.2915L32.3462 12.7085C31.1182 11.5477 29.9595 11 28.8583 11C28.3263 11 28.0997 11.1285 27.4862 11.7085C26.5129 12.6285 25.8579 13 24.6268 13C23.3958 13 22.7408 12.6285 21.7675 11.7085C21.154 11.1285 20.9274 11 20.3954 11C19.8633 11 19.6368 11.1285 19.0232 11.7085C18.05 12.6285 17.395 13 16.1639 13C14.9328 13 14.2778 12.6285 13.3046 11.7085C12.691 11.1285 12.4644 11 11.9324 11C11.4004 11 11.1738 11.1285 10.5602 11.7085C9.587 12.6285 8.93201 13 7.70092 13C6.46983 13 5.81484 12.6285 4.84161 11.7085C4.22803 11.1285 4.00147 11 3.46944 11C2.36827 11 1.20956 11.5477 -0.0184705 12.7085ZM-0.0184705 16.7085L-1.50562 15.2915C0.0873463 13.7857 1.74962 13 3.46944 13C4.70053 13 5.35552 13.3715 6.32875 14.2915C6.94233 14.8715 7.16889 15 7.70092 15C8.23295 15 8.45952 14.8715 9.07309 14.2915C10.0463 13.3715 10.7013 13 11.9324 13C13.1635 13 13.8185 13.3715 14.7917 14.2915C15.4053 14.8715 15.6319 15 16.1639 15C16.6959 15 16.9225 14.8715 17.5361 14.2915C18.5093 13.3715 19.1643 13 20.3954 13C21.6265 13 22.2814 13.3715 23.2547 14.2915C23.8683 14.8715 24.0948 15 24.6268 15C25.1589 15 25.3854 14.8715 25.999 14.2915C26.9722 13.3715 27.6272 13 28.8583 13C30.5782 13 32.2404 13.7857 33.8334 15.2915L32.3462 16.7085C31.1182 15.5477 29.9595 15 28.8583 15C28.3263 15 28.0997 15.1285 27.4862 15.7085C26.5129 16.6285 25.8579 17 24.6268 17C23.3958 17 22.7408 16.6285 21.7675 15.7085C21.154 15.1285 20.9274 15 20.3954 15C19.8633 15 19.6368 15.1285 19.0232 15.7085C18.05 16.6285 17.395 17 16.1639 17C14.9328 17 14.2778 16.6285 13.3046 15.7085C12.691 15.1285 12.4644 15 11.9324 15C11.4004 15 11.1738 15.1285 10.5602 15.7085C9.587 16.6285 8.93201 17 7.70092 17C6.46983 17 5.81484 16.6285 4.84161 15.7085C4.22803 15.1285 4.00147 15 3.46944 15C2.36827 15 1.20956 15.5477 -0.0184705 16.7085ZM-0.0184705 20.7085L-1.50562 19.2915C0.0873463 17.7857 1.74962 17 3.46944 17C4.70053 17 5.35552 17.3715 6.32875 18.2915C6.94233 18.8715 7.16889 19 7.70092 19C8.23295 19 8.45952 18.8715 9.07309 18.2915C10.0463 17.3715 10.7013 17 11.9324 17C13.1635 17 13.8185 17.3715 14.7917 18.2915C15.4053 18.8715 15.6319 19 16.1639 19C16.6959 19 16.9225 18.8715 17.5361 18.2915C18.5093 17.3715 19.1643 17 20.3954 17C21.6265 17 22.2814 17.3715 23.2547 18.2915C23.8683 18.8715 24.0948 19 24.6268 19C25.1589 19 25.3854 18.8715 25.999 18.2915C26.9722 17.3715 27.6272 17 28.8583 17C30.5782 17 32.2404 17.7857 33.8334 19.2915L32.3462 20.7085C31.1182 19.5477 29.9595 19 28.8583 19C28.3263 19 28.0997 19.1285 27.4862 19.7085C26.5129 20.6285 25.8579 21 24.6268 21C23.3958 21 22.7408 20.6285 21.7675 19.7085C21.154 19.1285 20.9274 19 20.3954 19C19.8633 19 19.6368 19.1285 19.0232 19.7085C18.05 20.6285 17.395 21 16.1639 21C14.9328 21 14.2778 20.6285 13.3046 19.7085C12.691 19.1285 12.4644 19 11.9324 19C11.4004 19 11.1738 19.1285 10.5602 19.7085C9.587 20.6285 8.93201 21 7.70092 21C6.46983 21 5.81484 20.6285 4.84161 19.7085C4.22803 19.1285 4.00147 19 3.46944 19C2.36827 19 1.20956 19.5477 -0.0184705 20.7085ZM-0.0184705 24.7085L-1.50562 23.2915C0.0873463 21.7857 1.74962 21 3.46944 21C4.70053 21 5.35552 21.3715 6.32875 22.2915C6.94233 22.8715 7.16889 23 7.70092 23C8.23295 23 8.45952 22.8715 9.07309 22.2915C10.0463 21.3715 10.7013 21 11.9324 21C13.1635 21 13.8185 21.3715 14.7917 22.2915C15.4053 22.8715 15.6319 23 16.1639 23C16.6959 23 16.9225 22.8715 17.5361 22.2915C18.5093 21.3715 19.1643 21 20.3954 21C21.6265 21 22.2814 21.3715 23.2547 22.2915C23.8683 22.8715 24.0948 23 24.6268 23C25.1589 23 25.3854 22.8715 25.999 22.2915C26.9722 21.3715 27.6272 21 28.8583 21C30.5782 21 32.2404 21.7857 33.8334 23.2915L32.3462 24.7085C31.1182 23.5477 29.9595 23 28.8583 23C28.3263 23 28.0997 23.1285 27.4862 23.7085C26.5129 24.6285 25.8579 25 24.6268 25C23.3958 25 22.7408 24.6285 21.7675 23.7085C21.154 23.1285 20.9274 23 20.3954 23C19.8633 23 19.6368 23.1285 19.0232 23.7085C18.05 24.6285 17.395 25 16.1639 25C14.9328 25 14.2778 24.6285 13.3046 23.7085C12.691 23.1285 12.4644 23 11.9324 23C11.4004 23 11.1738 23.1285 10.5602 23.7085C9.587 24.6285 8.93201 25 7.70092 25C6.46983 25 5.81484 24.6285 4.84161 23.7085C4.22803 23.1285 4.00147 23 3.46944 23C2.36827 23 1.20956 23.5477 -0.0184705 24.7085Z" fill="#2E42A5"/>
<mask id="mask2_157_78272" style="mask-type:alpha" maskUnits="userSpaceOnUse" x="0" y="0" width="14" height="10">
<rect width="14" height="10" fill="white"/>
</mask>
<g mask="url(#mask2_157_78272)">
<rect width="14" height="12" fill="#2E42A5"/>
<path d="M-2.15796 11.333L1.4983 12.8772L16.3905 1.45651L18.3191 -0.838189L14.4092 -1.3543L8.33507 3.5672L3.44599 6.88315L-2.15796 11.333Z" fill="white"/>
<path d="M-1.65747 12.4149L0.205226 13.311L17.6265 -1.05138H15.011L-1.65747 12.4149Z" fill="#F50100"/>
<path d="M18.1577 11.333L14.5015 12.8772L-0.390728 1.45651L-2.31932 -0.838189L1.59052 -1.3543L7.66469 3.5672L12.5538 6.88315L18.1577 11.333Z" fill="white"/>
<path d="M18.033 12.1095L16.1703 13.0056L8.75211 6.85632L6.55279 6.16927L-2.5049 -0.83031H0.110548L9.16315 6.00313L11.5677 6.82698L18.033 12.1095Z" fill="#F50100"/>
<mask id="path-12-outside-1_157_78272" maskUnits="userSpaceOnUse" x="-0.984619" y="-1" width="16" height="12" fill="black">
<rect fill="white" x="-0.984619" y="-1" width="16" height="12"/>
<path fill-rule="evenodd" clip-rule="evenodd" d="M7.99989 0H5.99989V4H0.0153809V6H5.99989V10H7.99989V6H14.0154V4H7.99989V0Z"/>
</mask>
<path fill-rule="evenodd" clip-rule="evenodd" d="M7.99989 0H5.99989V4H0.0153809V6H5.99989V10H7.99989V6H14.0154V4H7.99989V0Z" fill="#F50100"/>
<path d="M5.99989 0V-1H4.99989V0H5.99989ZM7.99989 0H8.99989V-1H7.99989V0ZM5.99989 4V5H6.99989V4H5.99989ZM0.0153809 4V3H-0.984619V4H0.0153809ZM0.0153809 6H-0.984619V7H0.0153809V6ZM5.99989 6H6.99989V5H5.99989V6ZM5.99989 10H4.99989V11H5.99989V10ZM7.99989 10V11H8.99989V10H7.99989ZM7.99989 6V5H6.99989V6H7.99989ZM14.0154 6V7H15.0154V6H14.0154ZM14.0154 4H15.0154V3H14.0154V4ZM7.99989 4H6.99989V5H7.99989V4ZM5.99989 1H7.99989V-1H5.99989V1ZM6.99989 4V0H4.99989V4H6.99989ZM0.0153809 5H5.99989V3H0.0153809V5ZM1.01538 6V4H-0.984619V6H1.01538ZM5.99989 5H0.0153809V7H5.99989V5ZM6.99989 10V6H4.99989V10H6.99989ZM7.99989 9H5.99989V11H7.99989V9ZM6.99989 6V10H8.99989V6H6.99989ZM14.0154 5H7.99989V7H14.0154V5ZM13.0154 4V6H15.0154V4H13.0154ZM7.99989 5H14.0154V3H7.99989V5ZM6.99989 0V4H8.99989V0H6.99989Z" fill="#F7FCFF" mask="url(#path-12-outside-1_157_78272)"/>
</g>
<rect x="20.3999" y="9.37866" width="1" height="12.6214" rx="0.5" fill="#D86D00"/>
<mask id="path-15-outside-2_157_78272" maskUnits="userSpaceOnUse" x="14.5125" y="0.0576172" width="12" height="12" fill="black">
<rect fill="white" x="14.5125" y="0.0576172" width="12" height="12"/>
<path fill-rule="evenodd" clip-rule="evenodd" d="M20.4043 2.05762C21.2315 3.19212 21.5707 4.53281 21.6012 5.89682C22.5351 4.63133 24.0928 3.59752 24.8212 3.15543C24.1528 3.62286 23.8056 4.31584 23.415 5.09561C23.2233 5.47829 23.0211 5.88186 22.7654 6.28994C24.357 5.71817 25.9379 5.57137 25.9379 5.57137C24.8773 5.87232 23.8989 6.48677 22.9483 7.08382C22.6014 7.30169 22.2582 7.51724 21.916 7.71439C24.9878 8.87137 25.4603 10.5446 25.4603 10.5446C25.0838 10.2121 24.2714 9.85644 22.7372 9.18472L22.7371 9.18465L22.7363 9.18429C22.4426 9.0557 22.1224 8.91553 21.7738 8.76173C22.0029 9.60544 22.2809 10.2655 22.5462 10.8956L22.6251 11.0833C22.6251 11.0833 20.4995 10.5093 20.0957 8.86141C18.9033 9.81902 17.6148 10.3641 17.0104 10.5801C17.0104 10.5801 18.4497 9.01764 19.5067 7.98078C18.1188 7.82433 15.5125 7.69624 15.5125 7.69624L15.6977 7.65218C16.7457 7.40249 18.3672 7.01617 19.853 7.03639C18.2596 6.14357 17.2798 4.93497 16.9787 4.52879C17.2323 4.75298 17.9387 5.03367 18.9026 5.41668C19.3094 5.57833 19.762 5.75821 20.2459 5.95975C20.338 4.27581 20.4043 2.05762 20.4043 2.05762ZM16.8792 4.38914C16.8892 4.4333 16.9231 4.47969 16.9787 4.52879C16.9126 4.43963 16.8792 4.38914 16.8792 4.38914ZM25.2195 2.92384C25.0747 2.99303 24.9426 3.07051 24.8212 3.15543C25.0679 3.00569 25.2195 2.92384 25.2195 2.92384ZM20.6896 7.0164C20.7515 6.98892 20.8201 6.97365 20.8922 6.97365C20.9301 6.97365 20.967 6.97787 21.0025 6.98586C21.0129 6.95631 21.0238 6.92682 21.0352 6.8974L20.704 6.92021L20.6896 7.0164Z"/>
</mask>
<path fill-rule="evenodd" clip-rule="evenodd" d="M20.4043 2.05762C21.2315 3.19212 21.5707 4.53281 21.6012 5.89682C22.5351 4.63133 24.0928 3.59752 24.8212 3.15543C24.1528 3.62286 23.8056 4.31584 23.415 5.09561C23.2233 5.47829 23.0211 5.88186 22.7654 6.28994C24.357 5.71817 25.9379 5.57137 25.9379 5.57137C24.8773 5.87232 23.8989 6.48677 22.9483 7.08382C22.6014 7.30169 22.2582 7.51724 21.916 7.71439C24.9878 8.87137 25.4603 10.5446 25.4603 10.5446C25.0838 10.2121 24.2714 9.85644 22.7372 9.18472L22.7371 9.18465L22.7363 9.18429C22.4426 9.0557 22.1224 8.91553 21.7738 8.76173C22.0029 9.60544 22.2809 10.2655 22.5462 10.8956L22.6251 11.0833C22.6251 11.0833 20.4995 10.5093 20.0957 8.86141C18.9033 9.81902 17.6148 10.3641 17.0104 10.5801C17.0104 10.5801 18.4497 9.01764 19.5067 7.98078C18.1188 7.82433 15.5125 7.69624 15.5125 7.69624L15.6977 7.65218C16.7457 7.40249 18.3672 7.01617 19.853 7.03639C18.2596 6.14357 17.2798 4.93497 16.9787 4.52879C17.2323 4.75298 17.9387 5.03367 18.9026 5.41668C19.3094 5.57833 19.762 5.75821 20.2459 5.95975C20.338 4.27581 20.4043 2.05762 20.4043 2.05762ZM16.8792 4.38914C16.8892 4.4333 16.9231 4.47969 16.9787 4.52879C16.9126 4.43963 16.8792 4.38914 16.8792 4.38914ZM25.2195 2.92384C25.0747 2.99303 24.9426 3.07051 24.8212 3.15543C25.0679 3.00569 25.2195 2.92384 25.2195 2.92384ZM20.6896 7.0164C20.7515 6.98892 20.8201 6.97365 20.8922 6.97365C20.9301 6.97365 20.967 6.97787 21.0025 6.98586C21.0129 6.95631 21.0238 6.92682 21.0352 6.8974L20.704 6.92021L20.6896 7.0164Z" fill="#449A01"/>
<path d="M21.6012 5.89682L21.2513 5.90463L21.2742 6.92943L21.8828 6.10464L21.6012 5.89682ZM20.4043 2.05762L20.6871 1.85141L20.0849 1.02566L20.0544 2.04716L20.4043 2.05762ZM23.415 5.09561L23.1021 4.93884V4.93885L23.415 5.09561ZM22.7654 6.28994L22.4688 6.10407L21.9315 6.96142L22.8837 6.61933L22.7654 6.28994ZM25.9379 5.57137L26.0334 5.90808L25.9055 5.22287L25.9379 5.57137ZM22.9483 7.08382L22.7621 6.78743L22.7547 6.79208L22.7476 6.79709L22.9483 7.08382ZM22.9483 7.08383L23.1358 7.37935L23.1425 7.3751L23.149 7.37056L22.9483 7.08383ZM22.9482 7.08388L23.1356 7.3795L23.1357 7.3794L22.9482 7.08388ZM22.9481 7.08394L23.1339 7.38055L23.1355 7.37957L22.9481 7.08394ZM22.948 7.08402L22.7621 6.78742L22.7618 6.78762L22.948 7.08402ZM21.916 7.71439L21.7413 7.41113L21.0995 7.78087L21.7926 8.04193L21.916 7.71439ZM25.4603 10.5446L25.2287 10.807L26.1205 11.5942L25.7972 10.4494L25.4603 10.5446ZM22.7372 9.18472L22.8776 8.86411L22.8774 8.86401L22.7372 9.18472ZM22.7369 9.18457L22.5965 9.50519L22.5967 9.50528L22.7369 9.18457ZM21.7738 8.76173L21.9151 8.44151L21.2438 8.1453L21.4361 8.85344L21.7738 8.76173ZM22.5462 10.8956L22.8688 10.7599L22.8687 10.7597L22.5462 10.8956ZM22.6251 11.0833L22.5338 11.4212L23.2253 11.6078L22.9477 10.9476L22.6251 11.0833ZM20.0957 8.86141L20.4356 8.77812L20.3049 8.24452L19.8765 8.58852L20.0957 8.86141ZM17.0104 10.5801L16.753 10.3429L17.1282 10.9097L17.0104 10.5801ZM19.5067 7.98078L19.7518 8.23064L20.277 7.7154L19.5459 7.63298L19.5067 7.98078ZM15.5125 7.69624L15.4315 7.35574L15.4953 8.04582L15.5125 7.69624ZM15.6977 7.65218L15.7787 7.99269L15.7789 7.99265L15.6977 7.65218ZM19.853 7.03639L19.8483 7.38636L20.0241 6.73106L19.853 7.03639ZM18.9026 5.41668L19.0318 5.09142H19.0318L18.9026 5.41668ZM20.2459 5.95975L20.1113 6.28285L20.5683 6.47322L20.5953 5.97887L20.2459 5.95975ZM16.8792 4.38914L17.1711 4.19607L16.5379 4.46702L16.8792 4.38914ZM25.2195 2.92384L25.3858 3.2318L25.0686 2.60803L25.2195 2.92384ZM20.6896 7.0164L20.3434 6.96472L20.2494 7.59464L20.8316 7.33631L20.6896 7.0164ZM21.0025 6.98586L20.9256 7.32731L21.2293 7.39569L21.3326 7.10211L21.0025 6.98586ZM21.0352 6.8974L21.3617 7.02336L21.5595 6.51046L21.0111 6.54823L21.0352 6.8974ZM20.704 6.92021L20.6799 6.57103L20.3993 6.59036L20.3578 6.86853L20.704 6.92021ZM21.9511 5.88901C21.9195 4.4732 21.5667 3.0577 20.6871 1.85141L20.1215 2.26383C20.8964 3.32654 21.222 4.59242 21.2513 5.90463L21.9511 5.88901ZM24.6396 2.85622C23.9066 3.30113 22.297 4.36442 21.3196 5.68899L21.8828 6.10464C22.7731 4.89823 24.279 3.89392 25.0028 3.45463L24.6396 2.85622ZM23.7279 5.25237C24.126 4.45769 24.4381 3.85044 25.0218 3.44225L24.6206 2.8686C23.8675 3.39528 23.4852 4.174 23.1021 4.93884L23.7279 5.25237ZM23.062 6.47581C23.3279 6.05152 23.537 5.63347 23.7279 5.25237L23.1021 4.93885C22.9096 5.3231 22.7144 5.71221 22.4688 6.10407L23.062 6.47581ZM25.9379 5.57137C25.9055 5.22287 25.9055 5.22288 25.9054 5.22288C25.9054 5.22289 25.9053 5.22289 25.9053 5.2229C25.9052 5.22291 25.905 5.22292 25.9049 5.22293C25.9046 5.22296 25.9042 5.223 25.9037 5.22305C25.9027 5.22315 25.9013 5.22328 25.8995 5.22345C25.896 5.22379 25.8909 5.22429 25.8844 5.22495C25.8714 5.22627 25.8526 5.22824 25.8283 5.23092C25.7798 5.2363 25.7095 5.24454 25.6205 5.25622C25.4425 5.27955 25.1894 5.31664 24.8858 5.3719C24.28 5.48219 23.4668 5.66606 22.6471 5.96055L22.8837 6.61933C23.6555 6.34206 24.4286 6.16664 25.0112 6.06059C25.3018 6.00768 25.5433 5.97233 25.7115 5.95027C25.7956 5.93925 25.8612 5.93156 25.9054 5.92667C25.9275 5.92423 25.9442 5.92248 25.9551 5.92137C25.9606 5.92082 25.9646 5.92042 25.9671 5.92017C25.9684 5.92005 25.9693 5.91996 25.9698 5.91991C25.9701 5.91989 25.9703 5.91987 25.9703 5.91987C25.9704 5.91986 25.9704 5.91986 25.9704 5.91986C25.9704 5.91986 25.9703 5.91987 25.9703 5.91987C25.9703 5.91987 25.9703 5.91987 25.9379 5.57137ZM23.1344 7.38022C24.0937 6.77773 25.0296 6.19294 26.0334 5.90808L25.8424 5.23467C24.7251 5.5517 23.7041 6.19582 22.7621 6.78743L23.1344 7.38022ZM23.149 7.37056L23.149 7.37055L22.7476 6.79709L22.7476 6.7971L23.149 7.37056ZM23.1357 7.3794L23.1358 7.37935L22.7607 6.78832L22.7607 6.78836L23.1357 7.3794ZM23.1355 7.37957L23.1356 7.3795L22.7608 6.78826L22.7607 6.78832L23.1355 7.37957ZM23.1338 7.38062L23.1339 7.38054L22.7623 6.78735L22.7621 6.78742L23.1338 7.38062ZM22.0907 8.01765C22.4396 7.81666 22.7884 7.59754 23.1341 7.38041L22.7618 6.78762C22.414 7.00609 22.0766 7.21794 21.7413 7.41113L22.0907 8.01765ZM25.4603 10.5446C25.7972 10.4494 25.7971 10.4492 25.797 10.4489C25.797 10.4488 25.7969 10.4485 25.7968 10.4484C25.7967 10.448 25.7966 10.4476 25.7965 10.4471C25.7962 10.4462 25.796 10.4453 25.7956 10.4442C25.795 10.442 25.7942 10.4395 25.7933 10.4365C25.7915 10.4306 25.7891 10.4231 25.7861 10.414C25.78 10.396 25.7714 10.3718 25.7596 10.3421C25.7362 10.2826 25.7004 10.201 25.648 10.1017C25.5432 9.90291 25.3721 9.63401 25.1013 9.33036C24.5583 8.72162 23.6234 7.98348 22.0394 7.38685L21.7926 8.04193C23.2804 8.60228 24.1176 9.27922 24.5789 9.79632C24.8102 10.0556 24.9492 10.2773 25.0289 10.4284C25.0688 10.504 25.094 10.5622 25.1084 10.5987C25.1156 10.617 25.1201 10.6299 25.1225 10.6369C25.1237 10.6404 25.1243 10.6425 25.1244 10.6429C25.1245 10.6432 25.1245 10.643 25.1243 10.6425C25.1242 10.6422 25.1241 10.6419 25.124 10.6414C25.1239 10.6412 25.1238 10.6409 25.1238 10.6406C25.1237 10.6405 25.1237 10.6402 25.1236 10.6402C25.1236 10.6399 25.1235 10.6397 25.4603 10.5446ZM22.5969 9.50534C23.3666 9.84236 23.9458 10.096 24.3801 10.3068C24.8204 10.5204 25.0793 10.6751 25.2287 10.807L25.692 10.2822C25.4648 10.0816 25.1292 9.89223 24.6857 9.67699C24.2361 9.45885 23.642 9.19881 22.8776 8.86411L22.5969 9.50534ZM22.5967 9.50528L22.5971 9.50543L22.8774 8.86401L22.8771 8.86387L22.5967 9.50528ZM21.6326 9.08194C21.9819 9.23608 22.3027 9.37653 22.5965 9.50519L22.8773 8.86396C22.5834 8.73527 22.2635 8.5952 21.9151 8.44151L21.6326 9.08194ZM22.8687 10.7597C22.6034 10.1295 22.3339 9.48878 22.1116 8.67001L21.4361 8.85344C21.672 9.7221 21.9583 10.4014 22.2236 11.0314L22.8687 10.7597ZM22.9477 10.9476L22.8688 10.7599L22.2235 11.0312L22.3024 11.2189L22.9477 10.9476ZM19.7558 8.94471C19.9901 9.90093 20.716 10.5206 21.3316 10.8903C21.6439 11.0779 21.9413 11.2095 22.1603 11.2942C22.2702 11.3368 22.3613 11.3679 22.426 11.3886C22.4583 11.399 22.4841 11.4068 22.5024 11.4122C22.5115 11.4149 22.5188 11.417 22.5241 11.4185C22.5267 11.4192 22.5289 11.4198 22.5305 11.4202C22.5313 11.4205 22.532 11.4207 22.5326 11.4208C22.5328 11.4209 22.5331 11.4209 22.5333 11.421C22.5334 11.421 22.5335 11.4211 22.5336 11.4211C22.5337 11.4211 22.5338 11.4212 22.6251 11.0833C22.7163 10.7454 22.7164 10.7454 22.7165 10.7454C22.7165 10.7454 22.7166 10.7454 22.7167 10.7455C22.7168 10.7455 22.7168 10.7455 22.7168 10.7455C22.7169 10.7455 22.7168 10.7455 22.7166 10.7454C22.7162 10.7453 22.7153 10.7451 22.7139 10.7447C22.7111 10.7439 22.7064 10.7425 22.6998 10.7406C22.6868 10.7368 22.6665 10.7307 22.6399 10.7221C22.5868 10.7051 22.5087 10.6785 22.413 10.6414C22.2209 10.5671 21.9616 10.4522 21.692 10.2903C21.1439 9.96106 20.6051 9.46982 20.4356 8.77812L19.7558 8.94471ZM17.1282 10.9097C17.7536 10.6862 19.0813 10.125 20.3148 9.13431L19.8765 8.58852C18.7253 9.51306 17.4761 10.042 16.8926 10.2505L17.1282 10.9097ZM19.2616 7.73092C18.7283 8.25406 18.1006 8.90771 17.6079 9.42876C17.3611 9.68966 17.1475 9.91805 16.9956 10.0812C16.9196 10.1628 16.8591 10.2282 16.8174 10.2731C16.7966 10.2956 16.7806 10.313 16.7697 10.3248C16.7642 10.3307 16.7601 10.3352 16.7573 10.3383C16.7559 10.3398 16.7548 10.3409 16.7541 10.3417C16.7537 10.3421 16.7534 10.3424 16.7533 10.3426C16.7532 10.3427 16.7531 10.3428 16.753 10.3428C16.753 10.3429 16.753 10.3429 16.753 10.3429C16.753 10.3429 16.753 10.3429 17.0104 10.5801C17.2678 10.8172 17.2678 10.8172 17.2678 10.8172C17.2678 10.8172 17.2678 10.8172 17.2679 10.8171C17.2679 10.8171 17.268 10.817 17.268 10.8169C17.2682 10.8168 17.2685 10.8165 17.2688 10.8161C17.2695 10.8154 17.2705 10.8143 17.2718 10.8128C17.2746 10.8099 17.2786 10.8055 17.284 10.7997C17.2947 10.7881 17.3105 10.7709 17.3312 10.7486C17.3724 10.7041 17.4325 10.6393 17.508 10.5582C17.6589 10.3961 17.8712 10.169 18.1165 9.90972C18.6076 9.39034 19.2281 8.74435 19.7518 8.23064L19.2616 7.73092ZM15.5125 7.69624C15.4953 8.04582 15.4953 8.04582 15.4953 8.04582C15.4953 8.04582 15.4953 8.04582 15.4954 8.04583C15.4954 8.04583 15.4956 8.04583 15.4957 8.04584C15.496 8.04586 15.4965 8.04588 15.4971 8.04591C15.4983 8.04597 15.5001 8.04606 15.5026 8.04618C15.5075 8.04643 15.5148 8.04679 15.5245 8.04728C15.5438 8.04825 15.5723 8.04969 15.6092 8.05159C15.6828 8.05538 15.7897 8.06098 15.9224 8.06818C16.1877 8.0826 16.5559 8.10344 16.9673 8.12916C17.7922 8.18073 18.783 8.25142 19.4675 8.32857L19.5459 7.63298C18.8424 7.55368 17.8361 7.48211 17.0109 7.43052C16.5972 7.40466 16.2271 7.38371 15.9604 7.36922C15.827 7.36197 15.7194 7.35634 15.6451 7.35251C15.608 7.3506 15.5792 7.34914 15.5596 7.34816C15.5498 7.34767 15.5424 7.3473 15.5373 7.34705C15.5348 7.34692 15.5329 7.34683 15.5316 7.34676C15.531 7.34673 15.5305 7.34671 15.5302 7.34669C15.53 7.34668 15.5299 7.34668 15.5298 7.34667C15.5297 7.34667 15.5297 7.34667 15.5297 7.34667C15.5296 7.34666 15.5296 7.34666 15.5125 7.69624ZM15.6168 7.31168L15.4315 7.35574L15.5934 8.03675L15.7787 7.99269L15.6168 7.31168ZM19.8578 6.68643C18.3212 6.66551 16.6576 7.06369 15.6166 7.31171L15.7789 7.99265C16.8339 7.74128 18.4131 7.36683 19.8483 7.38636L19.8578 6.68643ZM16.6975 4.73723C17.0138 5.16388 18.0285 6.41528 19.6819 7.34173L20.0241 6.73106C18.4907 5.87186 17.5458 4.70605 17.2598 4.32036L16.6975 4.73723ZM19.0318 5.09142C18.5475 4.89898 18.1374 4.73593 17.8164 4.59333C17.4824 4.44492 17.2911 4.33783 17.2104 4.26653L16.7469 4.79106C16.9199 4.94394 17.2087 5.08929 17.5322 5.23303C17.8688 5.38257 18.2937 5.55137 18.7733 5.74194L19.0318 5.09142ZM20.3804 5.63666C19.8936 5.43386 19.4384 5.25298 19.0318 5.09142L18.7733 5.74194C19.1803 5.90368 19.6305 6.08256 20.1113 6.28285L20.3804 5.63666ZM20.4043 2.05762C20.0544 2.04716 20.0544 2.04717 20.0544 2.04718C20.0544 2.0472 20.0544 2.04722 20.0544 2.04725C20.0544 2.04731 20.0544 2.04741 20.0544 2.04754C20.0544 2.0478 20.0544 2.0482 20.0544 2.04872C20.0543 2.04978 20.0543 2.05136 20.0542 2.05347C20.0541 2.05768 20.0539 2.06398 20.0537 2.07227C20.0531 2.08885 20.0524 2.11343 20.0514 2.14532C20.0494 2.2091 20.0465 2.30215 20.0426 2.41909C20.035 2.65299 20.0239 2.98241 20.0098 3.36437C19.9818 4.1287 19.9423 5.10179 19.8964 5.94064L20.5953 5.97887C20.6416 5.13377 20.6812 4.15579 20.7094 3.39005C20.7234 3.00697 20.7346 2.67659 20.7423 2.44195C20.7461 2.32463 20.7491 2.23122 20.7511 2.16712C20.7521 2.13507 20.7528 2.11034 20.7533 2.09361C20.7536 2.08524 20.7538 2.07888 20.7539 2.07459C20.754 2.07245 20.754 2.07083 20.754 2.06974C20.7541 2.06919 20.7541 2.06878 20.7541 2.0685C20.7541 2.06837 20.7541 2.06826 20.7541 2.06819C20.7541 2.06815 20.7541 2.06812 20.7541 2.06811C20.7541 2.06809 20.7541 2.06807 20.4043 2.05762ZM16.5379 4.46702C16.5724 4.61819 16.6723 4.72512 16.7469 4.79106L17.2104 4.26653C17.1962 4.25395 17.1935 4.24932 17.1963 4.25323C17.1991 4.25708 17.2125 4.2767 17.2204 4.31125L16.5379 4.46702ZM17.2598 4.32036C17.2288 4.27851 17.2058 4.24625 17.191 4.22504C17.1836 4.21444 17.1782 4.2066 17.1749 4.20171C17.1732 4.19926 17.1721 4.19756 17.1715 4.19661C17.1711 4.19614 17.171 4.19585 17.1709 4.19576C17.1709 4.19572 17.1709 4.19572 17.1709 4.19577C17.1709 4.1958 17.1709 4.19584 17.171 4.19589C17.171 4.19591 17.171 4.19594 17.171 4.19597C17.171 4.19599 17.1711 4.196 17.1711 4.19602C17.1711 4.19603 17.1711 4.19604 17.1711 4.19605C17.1711 4.19606 17.1711 4.19607 16.8792 4.38914C16.5872 4.5822 16.5872 4.58222 16.5872 4.58223C16.5873 4.58224 16.5873 4.58225 16.5873 4.58226C16.5873 4.58228 16.5873 4.5823 16.5873 4.58232C16.5873 4.58237 16.5874 4.58241 16.5874 4.58246C16.5875 4.58256 16.5875 4.58267 16.5876 4.5828C16.5878 4.58305 16.588 4.58334 16.5882 4.58369C16.5887 4.58438 16.5893 4.58527 16.59 4.58635C16.5914 4.58852 16.5934 4.59145 16.5959 4.59513C16.6009 4.6025 16.608 4.61285 16.6172 4.62602C16.6356 4.65234 16.6624 4.68991 16.6975 4.73723L17.2598 4.32036ZM25.0686 2.60803C24.9066 2.68544 24.7579 2.77259 24.6206 2.8686L25.0218 3.44225C25.1274 3.36843 25.2428 3.30062 25.3704 3.23964L25.0686 2.60803ZM25.0028 3.45463C25.1232 3.38157 25.22 3.3253 25.2862 3.28755C25.3193 3.26868 25.3447 3.25445 25.3616 3.24508C25.3701 3.2404 25.3764 3.23693 25.3805 3.23471C25.3825 3.2336 25.384 3.2328 25.3849 3.23231C25.3853 3.23207 25.3856 3.2319 25.3858 3.23182C25.3859 3.23177 25.3859 3.23175 25.3859 3.23175C25.3859 3.23175 25.3859 3.23175 25.3859 3.23176C25.3859 3.23176 25.3859 3.23177 25.3859 3.23177C25.3858 3.23178 25.3858 3.23178 25.3858 3.23178C25.3858 3.23179 25.3858 3.2318 25.2195 2.92384C25.0532 2.61587 25.0532 2.61588 25.0532 2.61589C25.0532 2.61589 25.0531 2.6159 25.0531 2.6159C25.0531 2.61592 25.0531 2.61593 25.0531 2.61594C25.053 2.61597 25.0529 2.61601 25.0529 2.61604C25.0527 2.61612 25.0526 2.61622 25.0523 2.61633C25.0519 2.61657 25.0513 2.61688 25.0506 2.61727C25.0492 2.61806 25.0471 2.61916 25.0445 2.62058C25.0393 2.62342 25.0319 2.62752 25.0223 2.63285C25.003 2.64351 24.9752 2.6591 24.9395 2.67942C24.8683 2.72003 24.7659 2.77955 24.6396 2.85622L25.0028 3.45463ZM20.8922 6.62365C20.7702 6.62365 20.6534 6.64955 20.5476 6.69648L20.8316 7.33631C20.8496 7.32829 20.8699 7.32365 20.8922 7.32365V6.62365ZM21.0794 6.64441C21.0189 6.63077 20.9561 6.62365 20.8922 6.62365V7.32365C20.9041 7.32365 20.9152 7.32496 20.9256 7.32731L21.0794 6.64441ZM21.3326 7.10211C21.3419 7.07588 21.3516 7.04963 21.3617 7.02336L20.7086 6.77144C20.696 6.80402 20.684 6.83674 20.6724 6.86961L21.3326 7.10211ZM21.0111 6.54823L20.6799 6.57103L20.728 7.26938L21.0592 7.24657L21.0111 6.54823ZM20.3578 6.86853L20.3434 6.96472L21.0358 7.06807L21.0501 6.97188L20.3578 6.86853Z" fill="white" mask="url(#path-15-outside-2_157_78272)"/>
<path fill-rule="evenodd" clip-rule="evenodd" d="M24.2851 15.8188V15.6384C23.7584 15.1835 23.2068 14.956 22.6304 14.956C22.0778 14.6617 21.5184 14.5474 20.9523 14.6133C20.9525 14.6112 20.9526 14.6101 20.9526 14.6101C20.1014 14.5099 19.2436 14.956 19.2436 14.956C18.3789 14.956 17.5889 15.6384 17.5889 15.6384V15.8188L18.6217 17.0672C18.6217 17.0672 18.9124 18.2687 20.9484 17.9863V17.9894C20.9484 17.9894 22.2963 17.9451 22.391 17.9072C22.4286 17.8921 22.4676 17.8784 22.5074 17.8644C22.7715 17.7717 23.0729 17.6658 23.2523 17.0672L24.2851 15.8188ZM20.9484 14.6685C20.919 15.0841 20.7511 17.5894 20.9484 17.9779V14.6685Z" fill="#F50100"/>
<path fill-rule="evenodd" clip-rule="evenodd" d="M19.2662 14.4169C19.376 14.0116 19.5683 13.8744 20.0366 13.8744C20.3274 13.8744 20.5469 13.9559 20.6997 14.1157V15.1986H20.7815V15.327C20.7165 15.3746 20.6833 15.4784 20.7047 15.5888C20.7121 15.6267 20.7251 15.6614 20.7422 15.6914C20.7078 15.679 20.6689 15.672 20.6279 15.672C20.4865 15.672 20.3719 15.7548 20.3719 15.8569C20.3719 15.959 20.4865 16.0417 20.6279 16.0417C20.7692 16.0417 20.8839 15.959 20.8839 15.8569C20.8839 15.9083 20.9129 15.9548 20.9599 15.9884H20.8342H20.8309C20.8309 16.2668 20.7127 16.4442 20.5358 16.4442C20.4122 16.4442 20.3252 16.3762 20.2621 16.2263L20.0871 15.8102L20.0685 16.2761C20.062 16.4403 20.0026 16.5055 19.8549 16.5055C19.7115 16.5055 19.6085 16.399 19.5389 16.159C19.5596 16.1629 19.5814 16.165 19.6039 16.165C19.7452 16.165 19.8599 16.0822 19.8599 15.9801C19.8599 15.878 19.7452 15.7953 19.6039 15.7953C19.5756 15.7953 19.5484 15.7986 19.5229 15.8047C19.539 15.7572 19.5431 15.7003 19.5317 15.6415C19.5047 15.5027 19.4016 15.406 19.3014 15.4255C19.2011 15.445 19.1418 15.5733 19.1687 15.7121C19.1761 15.7499 19.1891 15.7846 19.2062 15.8147C19.1718 15.8023 19.1329 15.7953 19.0919 15.7953C18.9505 15.7953 18.8359 15.878 18.8359 15.9801C18.8359 16.0822 18.9505 16.165 19.0919 16.165C19.2065 16.165 19.3035 16.1106 19.3361 16.0356L19.3281 16.1443C19.3053 16.4511 19.2358 16.595 19.1329 16.6152C18.9926 16.6427 18.8862 16.6296 18.8118 16.5812L18.6607 16.4828V16.6502C18.6132 16.6563 18.5317 16.6456 18.4201 16.6164L18.4027 16.713L18.2148 16.5003C18.2717 16.5085 18.3385 16.4968 18.4014 16.4633C18.5263 16.3969 18.5886 16.27 18.5407 16.1799C18.4928 16.0898 18.3527 16.0705 18.2279 16.1369C18.2017 16.1508 18.1782 16.1674 18.158 16.1858C18.1556 16.1655 18.1513 16.1449 18.145 16.1242C18.1037 15.989 17.991 15.9036 17.8934 15.9334C17.8497 15.9468 17.8164 15.981 17.7966 16.0268L17.7209 15.941L17.6507 16.0308L17.7791 16.1762C17.7816 16.1947 17.7857 16.2135 17.7914 16.2323C17.8271 16.349 17.916 16.4286 18.0024 16.429L18.3773 16.8535L18.3766 16.8572L18.3818 16.8586L18.5899 17.0942C18.6204 17.1618 18.6475 17.2242 18.6712 17.2813C18.6965 17.4036 18.7345 17.5391 18.7886 17.6219C18.7935 17.646 18.796 17.6659 18.796 17.6817C18.796 17.8087 19.0706 17.8841 19.6066 17.9616C20.0266 18.0223 20.5221 18.063 20.9275 18.0691V18.0699L20.9789 18.0697L21.0303 18.0699V18.0691C21.4356 18.063 21.9312 18.0223 22.3511 17.9616C22.8871 17.8841 23.1618 17.8087 23.1618 17.6817C23.1618 17.5984 23.2308 17.398 23.3678 17.0942L24.3071 16.0308L24.2369 15.941L24.0029 16.206L24.0066 16.1945C24.0479 16.0593 24.0023 15.9255 23.9047 15.8957C23.807 15.8658 23.6944 15.9512 23.653 16.0864C23.6467 16.1071 23.6424 16.1278 23.64 16.148C23.6198 16.1296 23.5963 16.113 23.5701 16.0991C23.4453 16.0327 23.3053 16.052 23.2573 16.1422C23.2094 16.2323 23.2717 16.3592 23.3966 16.4256C23.5214 16.4919 23.6615 16.4727 23.7094 16.3825C23.7122 16.3773 23.7146 16.372 23.7166 16.3666C23.7283 16.3747 23.7411 16.381 23.755 16.3853C23.7853 16.3946 23.817 16.3927 23.8477 16.3817L23.4821 16.7956L23.4497 16.6164C23.3382 16.6456 23.2567 16.6563 23.2092 16.6502V16.4828L23.058 16.5812C22.9837 16.6296 22.8772 16.6427 22.737 16.6152C22.634 16.595 22.5645 16.4511 22.5418 16.1443L22.54 16.1199C22.5752 16.141 22.6175 16.1561 22.664 16.1627C22.804 16.1823 22.9291 16.1163 22.9433 16.0152C22.9575 15.9141 22.8555 15.8162 22.7155 15.7966C22.6833 15.792 22.6519 15.792 22.6224 15.796C22.6479 15.7498 22.6616 15.6907 22.6583 15.6271C22.6509 15.4859 22.5622 15.3757 22.4603 15.3811C22.3583 15.3864 22.2817 15.5052 22.2891 15.6464C22.2908 15.6797 22.297 15.7112 22.3069 15.7399C22.2774 15.7259 22.2442 15.7158 22.2085 15.7108C22.0685 15.6911 21.9434 15.7571 21.9292 15.8582C21.915 15.9593 22.017 16.0572 22.157 16.0769C22.2364 16.0881 22.3109 16.0717 22.3632 16.037L22.342 16.1186C22.2724 16.3871 22.1662 16.5055 22.015 16.5055C21.8673 16.5055 21.8079 16.4403 21.8014 16.2761L21.7828 15.8102L21.6077 16.2263C21.5446 16.3762 21.4577 16.4442 21.334 16.4442C21.1655 16.4442 21.0503 16.2831 21.0398 16.0271C21.0705 16.0365 21.1043 16.0417 21.1399 16.0417C21.2812 16.0417 21.3959 15.959 21.3959 15.8569C21.3959 15.7548 21.2812 15.672 21.1399 15.672C21.1116 15.672 21.0844 15.6753 21.0589 15.6815C21.075 15.6339 21.0791 15.577 21.0677 15.5183C21.0564 15.4606 21.0321 15.4101 21.0002 15.3723H21.1911V15.2177V14.1347C21.3439 13.975 21.5634 13.8934 21.8542 13.8934C22.3224 13.8934 22.5147 14.0307 22.6246 14.4359C22.6946 14.6942 22.6267 14.9146 22.4065 15.1203L22.5321 15.315C22.7781 15.0852 22.8866 14.8108 22.8485 14.5067C23.3753 14.4856 23.7689 14.5532 24.0274 14.7051C24.2526 14.8374 24.2937 15.1729 24.1234 15.7567L24.3166 15.8384C24.5171 15.1514 24.4598 14.6849 24.1173 14.4836C23.8154 14.3063 23.3755 14.2341 22.7953 14.2624L22.7959 14.2801C22.6494 13.8228 22.3754 13.647 21.8542 13.647C21.5895 13.647 21.3677 13.7084 21.1911 13.8328V13.7702H20.7815V13.8787C20.5933 13.7107 20.3439 13.6279 20.0366 13.6279C19.526 13.6279 19.2527 13.7967 19.104 14.2334L19.1072 14.1392C18.527 14.1109 18.0871 14.183 17.7852 14.3604C17.4426 14.5616 17.3854 15.0282 17.5858 15.7152L17.7791 15.6335C17.6087 15.0497 17.6499 14.7141 17.875 14.5819C18.1347 14.4293 18.5306 14.3618 19.0607 14.3837C18.9814 14.7293 19.085 15.0402 19.3586 15.296L19.4842 15.1013C19.2641 14.8955 19.1962 14.6751 19.2662 14.4169ZM20.8839 15.8569C20.8839 15.8394 20.8872 15.8225 20.8935 15.8065C20.8865 15.8057 20.8795 15.8043 20.8726 15.8025C20.8799 15.8197 20.8839 15.838 20.8839 15.8569ZM19.3429 15.9438C19.3412 15.9377 19.3391 15.9317 19.3366 15.9258L19.3441 15.9275L19.3429 15.9438ZM23.4102 16.8771C23.2424 16.9128 23.1213 16.9092 23.0571 16.8462C22.9566 16.8814 22.8387 16.8848 22.7041 16.8585C22.5603 16.8303 22.4602 16.7152 22.4 16.5243C22.3214 16.6449 22.2219 16.7193 22.1028 16.7434C22.7581 16.8553 23.2171 17.0125 23.2171 17.0125C23.2171 17.0125 23.2058 17.1293 23.1783 17.2666C23.2074 17.1947 23.2419 17.1148 23.2818 17.0267L23.2917 17.0112L23.4102 16.8771ZM21.7936 16.6966C21.7366 16.6625 21.6911 16.6131 21.6582 16.5494C21.6093 16.6013 21.5538 16.6393 21.492 16.6627C21.5951 16.6722 21.6958 16.6837 21.7936 16.6966ZM21.1305 16.6387C21.0508 16.5944 20.9845 16.5233 20.9349 16.4323C20.8858 16.5227 20.82 16.5934 20.741 16.6378C20.7878 16.6361 20.8349 16.6349 20.8822 16.6343V16.6337L20.9233 16.6339L20.9643 16.6337V16.6343C21.0201 16.635 21.0755 16.6366 21.1305 16.6387ZM18.6586 17.0028L18.5632 16.8947C18.6778 16.9084 18.7626 16.8954 18.8128 16.8462C18.9133 16.8814 19.0312 16.8848 19.1658 16.8585C19.3095 16.8303 19.4096 16.7152 19.4699 16.5243C19.5462 16.6414 19.6422 16.715 19.7568 16.7412C19.1918 16.8367 18.7703 16.9667 18.6586 17.0028ZM20.3734 16.661C20.2742 16.6699 20.177 16.6806 20.0826 16.6927C20.1366 16.6588 20.18 16.6107 20.2117 16.5494C20.2594 16.6001 20.3134 16.6375 20.3734 16.661ZM22.8925 17.6841C22.9643 17.7245 23.0218 17.6842 23.0673 17.6068C23.0633 17.6282 23.0609 17.6475 23.0599 17.6648C23.0539 17.6696 23.0447 17.6753 23.0326 17.6814C22.9989 17.6984 22.9473 17.7166 22.8803 17.735C22.7486 17.7712 22.5611 17.8071 22.3389 17.8392C21.905 17.9019 21.3891 17.9432 20.9789 17.9464C20.5687 17.9432 20.0527 17.9019 19.6188 17.8392C19.3966 17.8071 19.2091 17.7712 19.0774 17.735C19.0213 17.7196 18.976 17.7043 18.9429 17.6897C18.9466 17.6881 18.9502 17.6862 18.954 17.6841C19.1777 17.5581 20.6569 17.4399 20.9233 17.4195C21.1896 17.4399 22.6689 17.5581 22.8925 17.6841ZM23.1899 17.6615C23.1895 17.6619 23.189 17.6625 23.1884 17.6634L23.1892 17.6621L23.1899 17.6615Z" fill="#FECA00"/>
<path d="M19.1327 14.0384L19.1309 14.1617C18.223 14.1426 17.7021 14.302 17.5699 14.6199C17.4332 14.9485 17.4587 15.3479 17.6502 15.8224L17.5581 15.8762C17.3537 15.37 17.3258 14.9314 17.4784 14.5647C17.6354 14.1872 18.1863 14.0186 19.1327 14.0384Z" fill="white"/>
<path d="M19.3084 15.1312L19.2559 15.237C19.0582 15.0949 18.9592 14.8525 18.9592 14.5183C18.9592 14.038 19.1648 13.7564 19.6195 13.5637C19.9097 13.4407 20.3062 13.4911 20.81 13.7109L20.7751 13.8268C20.2914 13.6157 19.9172 13.5681 19.6535 13.6799C19.2365 13.8567 19.0616 14.0962 19.0616 14.5183C19.0616 14.8115 19.1438 15.0129 19.3084 15.1312Z" fill="white"/>
<path d="M22.7061 14.1617L22.7079 14.2849C23.6159 14.2659 24.1367 14.4253 24.2689 14.7432C24.4056 15.0717 24.3802 15.4712 24.1887 15.9457L24.2808 15.9995C24.4851 15.4933 24.513 15.0547 24.3605 14.688C24.2035 14.3105 23.6525 14.1418 22.7061 14.1617Z" fill="white"/>
<path d="M22.3854 15.1569L22.4379 15.2627C22.6357 15.1206 22.7346 14.8781 22.7346 14.5439C22.7346 14.0637 22.529 13.782 22.0743 13.5893C21.7841 13.4663 21.3877 13.5167 20.8839 13.7365L20.9188 13.8524C21.4024 13.6414 21.7766 13.5938 22.0403 13.7055C22.4574 13.8823 22.6322 14.1218 22.6322 14.5439C22.6322 14.8372 22.55 15.0386 22.3854 15.1569Z" fill="white"/>
</g>
</g>
</svg>
