<svg width="32" height="24" viewBox="0 0 32 24" fill="none" xmlns="http://www.w3.org/2000/svg">
<mask id="mask0_157_78274" style="mask-type:alpha" maskUnits="userSpaceOnUse" x="0" y="0" width="32" height="24">
<rect width="32" height="24" fill="white"/>
</mask>
<g mask="url(#mask0_157_78274)">
<path fill-rule="evenodd" clip-rule="evenodd" d="M0 0V24H32V0H0Z" fill="#F7FCFF"/>
<mask id="mask1_157_78274" style="mask-type:alpha" maskUnits="userSpaceOnUse" x="0" y="0" width="32" height="24">
<path fill-rule="evenodd" clip-rule="evenodd" d="M0 0V24H32V0H0Z" fill="white"/>
</mask>
<g mask="url(#mask1_157_78274)">
<path fill-rule="evenodd" clip-rule="evenodd" d="M0 0V8H32V0H0Z" fill="#5EAA22"/>
<path fill-rule="evenodd" clip-rule="evenodd" d="M0 16V24H32V16H0Z" fill="#E31D1C"/>
<path fill-rule="evenodd" clip-rule="evenodd" d="M4.60068 16.3918V17.0257H2.26991V16.3918H4.60068ZM0.565702 17.9841H0.358728V17.7308H0.813422V18.618H1.39292V18.6248H1.95436V16.7832H1.59563V17.9909H1.54024V16.6872H1.18151V17.9841H1.17215V17.7308V16.6872H0.813422V17.097H0V18.618H0.179364H0.565702V17.9841ZM2.06653 18.3394H2.42525V17.7109H2.82525V18.6246H3.95067V17.0781H3.37354V17.712H3.59194V17.9907H3.18398V17.0771H2.06653V18.3394ZM4.35849 17.9841H4.56546V18.618H4.17912H3.99976V17.097H4.81318V16.6872H5.17191V17.7308V17.9841H5.18127V16.6872H5.54V17.9909H5.59539V16.7832H5.95412V18.6248H5.39268V18.618H4.81318V17.7308H4.35849V17.9841ZM8.60044 16.3918V17.0257H6.26967V16.3918H8.60044ZM6.06629 18.3394H6.42502V17.7109H6.82501V18.6246H7.95043V17.0781H7.3733V17.712H7.5917V17.9907H7.18374V17.0771H6.06629V18.3394ZM8.42967 17.9841H8.63665V18.618H8.25031H8.07094V17.097H8.88437V16.6872H9.2431V17.7308V17.9841H9.25246V16.6872H9.61119V17.9909H9.66658V16.7832H10.0253V18.6248H9.46386V18.618H8.88437V17.7308H8.42967V17.9841ZM12.6716 16.3918V17.0257H10.3409V16.3918H12.6716ZM10.1375 18.3394H10.4962V17.7109H10.8962V18.6246H12.0216V17.0781H11.4445V17.712H11.6629V17.9907H11.2549V17.0771H10.1375V18.3394ZM12.4294 17.9841H12.6364V18.618H12.2501H12.0707V17.097H12.8841V16.6872H13.2429V17.7308V17.9841H13.2522V16.6872H13.6109V17.9909H13.6663V16.7832H14.0251V18.6248H13.4636V18.618H12.8841V17.7308H12.4294V17.9841ZM16.6714 16.3918V17.0257H14.3406V16.3918H16.6714ZM14.1372 18.3394H14.496V17.7109H14.896V18.6246H16.0214V17.0781H15.4442V17.712H15.6626V17.9907H15.2547V17.0771H14.1372V18.3394ZM16.4292 17.9841H16.6362V18.618H16.2498H16.0705V17.097H16.8839V16.6872H17.2426V17.7308V17.9841H17.252V16.6872H17.6107V17.9909H17.6661V16.7832H18.0248V18.6248H17.4634V18.618H16.8839V17.7308H16.4292V17.9841ZM20.6711 16.3918V17.0257H18.3404V16.3918H20.6711ZM18.137 18.3394H18.4957V17.7109H18.8957V18.6246H20.0211V17.0781H19.444V17.712H19.6624V17.9907H19.2544V17.0771H18.137V18.3394ZM20.5004 17.9841H20.7074V18.618H20.321H20.1417V17.097H20.9551V16.6872H21.3138V17.7308V17.9841H21.3232V16.6872H21.6819V17.9909H21.7373V16.7832H22.096V18.6248H21.5346V18.618H20.9551V17.7308H20.5004V17.9841ZM24.7423 16.3918V17.0257H22.4116V16.3918H24.7423ZM22.2082 18.3394H22.5669V17.7109H22.9669V18.6246H24.0923V17.0781H23.5152V17.712H23.7336V17.9907H23.3256V17.0771H22.2082V18.3394ZM24.5716 17.9841H24.7785V18.618H24.3922H24.2128V17.097H25.0263V16.6872H25.385V17.7308V17.9841H25.3944V16.6872H25.7531V17.9909H25.8085V16.7832H26.1672V18.6248H25.6058V18.618H25.0263V17.7308H24.5716V17.9841ZM28.8135 16.3918V17.0257H26.4827V16.3918H28.8135ZM26.2794 18.3394H26.6381V17.7109H27.0381V18.6246H28.1635V17.0781H27.5864V17.712H27.8048V17.9907H27.3968V17.0771H26.2794V18.3394ZM28.6427 17.9841H28.8497V18.618H28.4634H28.284V17.097H29.0974V16.6872H29.4562V17.7308V17.9841H29.4655V16.6872H29.8243V17.9909H29.8797V16.7832H30.2384V18.6248H29.6769V18.618H29.0974V17.7308H28.6427V17.9841ZM32.8847 16.3918V17.0257H30.5539V16.3918H32.8847ZM30.3505 18.3394H30.7093V17.7109H31.1093V18.6246H32.2347V17.0781H31.6576V17.712H31.876V17.9907H31.468V17.0771H30.3505V18.3394ZM32.6425 17.9841H32.8495V18.618H32.4631H32.2838V17.097H33.0972V16.6872H33.4559V17.7308V17.9841H33.4653V16.6872H33.824V17.9909H33.8794V16.7832H34.2381V18.6248H33.6767V18.618H33.0972V17.7308H32.6425V17.9841ZM36.8845 16.3918V17.0257H34.5537V16.3918H36.8845ZM34.3503 18.3394H34.709V17.7109H35.109V18.6246H36.2344V17.0781H35.6573V17.712H35.8757V17.9907H35.4678V17.0771H34.3503V18.3394ZM36.8565 17.9841H37.0635V18.618H36.6772H36.4978V17.097H37.3112V16.6872H37.67V17.7308V17.9841H37.6793V16.6872H38.0381V17.9909H38.0934V16.7832H38.4522V18.6248H37.8907V18.618H37.3112V17.7308H36.8565V17.9841ZM41.0985 16.3918V17.0257H38.7677V16.3918H41.0985ZM38.5643 18.3394H38.9231V17.7109H39.3231V18.6246H40.4485V17.0781H39.8713V17.712H40.0897V17.9907H39.6818V17.0771H38.5643V18.3394Z" fill="#F7FCFF"/>
<path fill-rule="evenodd" clip-rule="evenodd" d="M0.484465 5.39185V6.02573H-1.8463V5.39185H0.484465ZM-3.55051 6.98408H-3.75748V6.73084H-3.30279V7.61796H-2.72329V7.62476H-2.16185V5.78317H-2.52058V6.99088H-2.57597V5.68718H-2.9347V6.98408H-2.94406V6.73084V5.68718H-3.30279V6.09696H-4.11621V7.61796H-3.93685H-3.55051V6.98408ZM-2.04968 7.3394H-1.69096V6.71094H-1.29096V7.62459H-0.165545V6.07807H-0.742676V6.71195H-0.524274V6.99071H-0.932228V6.07706H-2.04968V7.3394ZM0.242278 6.98408H0.449251V7.61796H0.0629139H-0.116451V6.09696H0.696971V5.68718H1.0557V6.73084V6.98408H1.06506V5.68718H1.42379V6.99088H1.47918V5.78317H1.83791V7.62476H1.27647V7.61796H0.696971V6.73084H0.242278V6.98408ZM4.48423 5.39185V6.02573H2.15346V5.39185H4.48423ZM1.95008 7.3394H2.3088V6.71094H2.7088V7.62459H3.83422V6.07807H3.25708V6.71195H3.47549V6.99071H3.06753V6.07706H1.95008V7.3394ZM4.31346 6.98408H4.52044V7.61796H4.1341H3.95473V6.09696H4.76816V5.68718H5.12688V6.73084V6.98408H5.13625V5.68718H5.49498V6.99088H5.55037V5.78317H5.9091V7.62476H5.34765V7.61796H4.76816V6.73084H4.31346V6.98408ZM8.55541 5.39185V6.02573H6.22465V5.39185H8.55541ZM6.02126 7.3394H6.37999V6.71094H6.77999V7.62459H7.9054V6.07807H7.32827V6.71195H7.54667V6.99071H7.13872V6.07706H6.02126V7.3394ZM8.31322 6.98408H8.5202V7.61796H8.13386H7.95449V6.09696H8.76792V5.68718H9.12665V6.73084V6.98408H9.13601V5.68718H9.49474V6.99088H9.55013V5.78317H9.90886V7.62476H9.34741V7.61796H8.76792V6.73084H8.31322V6.98408ZM12.5552 5.39185V6.02573H10.2244V5.39185H12.5552ZM10.021 7.3394H10.3797V6.71094H10.7797V7.62459H11.9052V6.07807H11.328V6.71195H11.5464V6.99071H11.1385V6.07706H10.021V7.3394ZM12.313 6.98408H12.52V7.61796H12.1336H11.9543V6.09696H12.7677V5.68718H13.1264V6.73084V6.98408H13.1358V5.68718H13.4945V6.99088H13.5499V5.78317H13.9086V7.62476H13.3472V7.61796H12.7677V6.73084H12.313V6.98408ZM16.5549 5.39185V6.02573H14.2242V5.39185H16.5549ZM14.0208 7.3394H14.3795V6.71094H14.7795V7.62459H15.9049V6.07807H15.3278V6.71195H15.5462V6.99071H15.1382V6.07706H14.0208V7.3394ZM16.3842 6.98408H16.5911V7.61796H16.2048H16.0254V6.09696H16.8389V5.68718H17.1976V6.73084V6.98408H17.207V5.68718H17.5657V6.99088H17.6211V5.78317H17.9798V7.62476H17.4184V7.61796H16.8389V6.73084H16.3842V6.98408ZM20.6261 5.39185V6.02573H18.2954V5.39185H20.6261ZM18.092 7.3394H18.4507V6.71094H18.8507V7.62459H19.9761V6.07807H19.399V6.71195H19.6174V6.99071H19.2094V6.07706H18.092V7.3394ZM20.4554 6.98408H20.6623V7.61796H20.276H20.0966V6.09696H20.91V5.68718H21.2688V6.73084V6.98408H21.2781V5.68718H21.6369V6.99088H21.6923V5.78317H22.051V7.62476H21.4895V7.61796H20.91V6.73084H20.4554V6.98408ZM24.6973 5.39185V6.02573H22.3665V5.39185H24.6973ZM22.1632 7.3394H22.5219V6.71094H22.9219V7.62459H24.0473V6.07807H23.4702V6.71195H23.6886V6.99071H23.2806V6.07706H22.1632V7.3394ZM24.5265 6.98408H24.7335V7.61796H24.3472H24.1678V6.09696H24.9812V5.68718H25.34V6.73084V6.98408H25.3493V5.68718H25.7081V6.99088H25.7634V5.78317H26.1222V7.62476H25.5607V7.61796H24.9812V6.73084H24.5265V6.98408ZM28.7685 5.39185V6.02573H26.4377V5.39185H28.7685ZM26.2343 7.3394H26.5931V6.71094H26.9931V7.62459H28.1185V6.07807H27.5413V6.71195H27.7597V6.99071H27.3518V6.07706H26.2343V7.3394ZM28.5263 6.98408H28.7333V7.61796H28.3469H28.1676V6.09696H28.981V5.68718H29.3397V6.73084V6.98408H29.3491V5.68718H29.7078V6.99088H29.7632V5.78317H30.1219V7.62476H29.5605V7.61796H28.981V6.73084H28.5263V6.98408ZM32.7682 5.39185V6.02573H30.4375V5.39185H32.7682ZM30.2341 7.3394H30.5928V6.71094H30.9928V7.62459H32.1182V6.07807H31.5411V6.71195H31.7595V6.99071H31.3516V6.07706H30.2341V7.3394ZM32.7403 6.98408H32.9473V7.61796H32.561H32.3816V6.09696H33.195V5.68718H33.5538V6.73084V6.98408H33.5631V5.68718H33.9218V6.99088H33.9772V5.78317H34.336V7.62476H33.7745V7.61796H33.195V6.73084H32.7403V6.98408ZM36.9823 5.39185V6.02573H34.6515V5.39185H36.9823ZM34.4481 7.3394H34.8069V6.71094H35.2069V7.62459H36.3323V6.07807H35.7551V6.71195H35.9735V6.99071H35.5656V6.07706H34.4481V7.3394Z" fill="#F7FCFF"/>
<path fill-rule="evenodd" clip-rule="evenodd" d="M14.6062 8.25C14.6062 8.25 15.0335 8.475 15.4709 8.475C15.9083 8.475 16.3483 8.25 16.3483 8.25V8.55C16.3483 8.55 15.8679 8.775 15.4424 8.775C15.0169 8.775 14.6062 8.55 14.6062 8.55V8.25ZM11.4563 11.7906C11.4563 10.0126 13.8983 8.85 13.8983 8.85C13.8983 8.85 12.4869 9.60621 12.4869 11.7161C12.4869 13.826 13.2196 14.7397 13.2196 14.7397C13.2196 14.7397 11.4563 13.5686 11.4563 11.7906ZM19.694 11.6925C19.694 9.91448 17.2543 8.85 17.2543 8.85C17.2543 8.85 18.6657 9.60621 18.6657 11.7161C18.6657 13.826 17.933 14.7397 17.933 14.7397C17.933 14.7397 19.694 13.4705 19.694 11.6925ZM13.1234 12.1776C13.0304 10.402 14.5074 8.81052 14.5074 8.81052C14.5074 8.81052 13.9698 9.54185 14.0802 11.6488C14.1181 12.3723 14.4031 13.4486 14.7621 14.0832V8.925H16.2621V14.1279C16.6216 13.5352 16.8986 12.5246 16.9371 11.7906C17.0475 9.68361 16.5357 8.81052 16.5357 8.81052C16.5357 8.81052 18.0127 10.402 17.9197 12.1776C17.8643 13.2351 17.0506 14.3534 16.4015 15.0851C16.7169 15.1554 17.1396 15.2411 17.7208 15.3559C17.7332 15.4202 17.6037 15.4172 17.3463 15.4113C17.0622 15.4047 16.6223 15.3946 16.0455 15.4675C15.7804 15.7393 15.5958 15.9004 15.5958 15.9004C15.5958 15.9004 15.5666 15.861 15.5215 15.8064C15.4765 15.861 15.4473 15.9004 15.4473 15.9004C15.4473 15.9004 15.2627 15.7393 14.9975 15.4675C14.4208 15.3946 13.9808 15.4047 13.6967 15.4113C13.4394 15.4172 13.3099 15.4202 13.3223 15.3559C13.9035 15.2411 14.3262 15.1554 14.6416 15.0851C13.9925 14.3534 13.1788 13.2351 13.1234 12.1776Z" fill="#E31D1C"/>
</g>
</g>
</svg>
