<svg width="32" height="24" viewBox="0 0 32 24" fill="none" xmlns="http://www.w3.org/2000/svg">
<mask id="mask0_157_78286" style="mask-type:alpha" maskUnits="userSpaceOnUse" x="0" y="0" width="32" height="24">
<rect width="32" height="24" fill="white"/>
</mask>
<g mask="url(#mask0_157_78286)">
<path fill-rule="evenodd" clip-rule="evenodd" d="M0 0V24H32V0H0Z" fill="#C51918"/>
<path fill-rule="evenodd" clip-rule="evenodd" d="M0 0V24L32 0H0Z" fill="#5EAA22"/>
<path d="M0.635865 27.952L1.35923 28.759L2.2606 28.1573L38.5215 3.95383L39.7207 3.15339L38.7584 2.0798L33.4376 -3.85584L32.7142 -4.6628L31.8128 -4.06116L-4.44811 20.1423L-5.64731 20.9428L-4.68493 22.0164L0.635865 27.952Z" fill="#272727" stroke="#FFD018" stroke-width="2.5"/>
<path fill-rule="evenodd" clip-rule="evenodd" d="M12.0886 16.9182L11 18.8129L10.3048 16.6786L8.14267 15.9913L9.94432 14.8906L9.72724 12.6582L11.5054 14.0253L13.3471 13.0044L12.8306 15.2784L14.3083 16.979L12.0886 16.9182Z" fill="#F7FCFF"/>
<path fill-rule="evenodd" clip-rule="evenodd" d="M22.0886 10.365L21 12.2596L20.3048 10.1253L18.1427 9.43806L19.9443 8.33743L19.7272 6.105L21.5054 7.47211L23.3471 6.45121L22.8306 8.72522L24.3083 10.4258L22.0886 10.365Z" fill="#F7FCFF"/>
</g>
</svg>
