<svg width="32" height="24" viewBox="0 0 32 24" fill="none" xmlns="http://www.w3.org/2000/svg">
<mask id="mask0_157_78305" style="mask-type:alpha" maskUnits="userSpaceOnUse" x="0" y="0" width="32" height="24">
<rect width="32" height="24" fill="white"/>
</mask>
<g mask="url(#mask0_157_78305)">
<path fill-rule="evenodd" clip-rule="evenodd" d="M22 0H32V24H22V0Z" fill="#D9071E"/>
<path fill-rule="evenodd" clip-rule="evenodd" d="M0 0H12V24H0V0Z" fill="#3D58DB"/>
<path fill-rule="evenodd" clip-rule="evenodd" d="M10 0H22V24H10V0Z" fill="#FBCD17"/>
<path fill-rule="evenodd" clip-rule="evenodd" d="M21.7184 19.6141L20.6653 20.1895L17.1747 13.8007L18.2278 13.2253L21.7184 19.6141ZM10.5134 19.7678L11.5665 20.3431L15.0571 13.9543L14.004 13.379L10.5134 19.7678Z" fill="#FD1900"/>
<path fill-rule="evenodd" clip-rule="evenodd" d="M11.3779 9.38897V14.9403C11.3779 16.1735 10.3161 17.7806 9.78055 18.3785C9.24502 18.9764 8.1814 20.3462 8.1814 20.3462V5.40827C8.1814 3.7327 9.78055 3.15712 9.78055 3.15712C9.78055 3.15712 11.1084 3.41981 11.3779 5.40827V7.34623C11.7889 7.66988 13.1613 8.66246 14.0478 8.24345C15.1004 7.74595 15.464 6.31899 15.464 6.31899C15.464 6.31899 15.3656 4.8791 14.9335 4.8791C14.5015 4.8791 14.467 2.85083 16.1216 2.85083C17.7762 2.85083 17.9691 3.63265 17.9691 4.25588C17.9691 4.58257 17.7072 5.10686 17.458 5.60578C17.2318 6.05866 17.016 6.49063 17.016 6.73496C17.016 7.24845 17.4029 8.24345 17.9691 8.24345C18.3661 8.24345 20.276 7.50145 21.3814 7.05824V5.40827C21.651 3.41981 22.9788 3.15712 22.9788 3.15712C22.9788 3.15712 24.5779 3.7327 24.5779 5.40827V20.3462C24.5779 20.3462 23.5143 18.9764 22.9788 18.3785C22.4432 17.7806 21.3814 16.1735 21.3814 14.9403V9.38897H11.3779ZM13.1501 19.8321C14.2316 19.1279 15.8138 15.9701 15.8138 15.9701L16.3391 16.0921C16.3391 16.0921 17.1412 18.1838 19.4995 19.8321C16.9857 20.503 16.3391 21.8501 16.3391 21.8501C16.3391 20.7724 13.1501 19.8321 13.1501 19.8321ZM12.9759 17.8333C13.7049 17.8333 14.2959 17.2736 14.2959 16.5833C14.2959 15.8929 13.7049 15.3333 12.9759 15.3333C12.2469 15.3333 11.6559 15.8929 11.6559 16.5833C11.6559 17.2736 12.2469 17.8333 12.9759 17.8333ZM20.7199 16.5833C20.7199 17.2736 20.1289 17.8333 19.3999 17.8333C18.6709 17.8333 18.0799 17.2736 18.0799 16.5833C18.0799 15.8929 18.6709 15.3333 19.3999 15.3333C20.1289 15.3333 20.7199 15.8929 20.7199 16.5833Z" fill="#A77B3B"/>
<path d="M25.14 10.4077L26.0579 10.8045L22.3183 19.4564L21.4004 19.0596L25.14 10.4077Z" fill="#FDFF00"/>
<path opacity="0.3" fill-rule="evenodd" clip-rule="evenodd" d="M11.04 7.8335H21.6V15.4724C21.6 15.4724 18.913 16.2817 16.32 17.6099C14.406 16.19 11.04 15.4724 11.04 15.4724V7.8335Z" fill="#E1E5E8"/>
<mask id="mask1_157_78305" style="mask-type:alpha" maskUnits="userSpaceOnUse" x="11" y="7" width="11" height="11">
<path fill-rule="evenodd" clip-rule="evenodd" d="M11.04 7.8335H21.6V15.4724C21.6 15.4724 18.913 16.2817 16.32 17.6099C14.406 16.19 11.04 15.4724 11.04 15.4724V7.8335Z" fill="white"/>
</mask>
<g mask="url(#mask1_157_78305)">
<rect x="11.04" y="12.8335" width="10.56" height="5" fill="#3D58DB"/>
<rect x="11.04" y="7.8335" width="10.56" height="5" fill="#FD1900"/>
<path fill-rule="evenodd" clip-rule="evenodd" d="M15.7867 10.0824L14.9864 10.1486L15.448 9.52595L14.956 8.8811L15.7605 8.98468L16.0689 8.2736L16.4117 8.99984L17.212 8.9336L16.7505 9.55626L17.2424 10.2011L16.438 10.0975L16.1295 10.8086L15.7867 10.0824Z" fill="#FDFF00"/>
<path fill-rule="evenodd" clip-rule="evenodd" d="M14.35 8.67175C14.35 8.67175 12.2001 9.97975 12.9167 10.9187C13.6333 11.8576 14.5354 11.9778 14.5354 11.9778C14.5354 11.9778 12.3362 15.2771 16.2069 17.162C20.3509 15.3424 18.1716 11.9778 18.1716 11.9778C18.1716 11.9778 19.4472 11.6956 19.7026 10.6804C19.958 9.66516 18.0352 8.50073 18.0352 8.50073C18.0352 8.50073 19.2349 10.2395 18.961 10.6804C18.6871 11.1212 17.22 11.57 16.2069 11.57C15.1938 11.57 13.6294 11.2856 13.3769 10.5152C13.1245 9.74491 14.35 8.67175 14.35 8.67175Z" fill="#FDFF00"/>
<path fill-rule="evenodd" clip-rule="evenodd" d="M12.36 12.0002L13.68 12.8336L12.36 13.6669L11.04 12.8336L12.36 12.0002Z" fill="#FDFF00"/>
<path fill-rule="evenodd" clip-rule="evenodd" d="M20.28 12.0002L21.6 12.8336L20.28 13.6669L18.96 12.8336L20.28 12.0002Z" fill="#FDFF00"/>
<path fill-rule="evenodd" clip-rule="evenodd" d="M12.3199 15.3002C12.5408 15.3002 12.7199 15.1212 12.7199 14.9002C12.7199 14.6793 12.5408 14.5002 12.3199 14.5002C12.099 14.5002 11.9199 14.6793 11.9199 14.9002C11.9199 15.1212 12.099 15.3002 12.3199 15.3002Z" fill="#FDFF00"/>
<path fill-rule="evenodd" clip-rule="evenodd" d="M20.8302 14.5429C20.4868 14.2649 19.9605 14.3456 19.6546 14.7233C19.3488 15.101 19.3792 15.6326 19.7225 15.9107C19.9092 16.0618 19.8118 15.4614 20.0943 15.0793C20.3315 14.7585 20.9869 14.6698 20.8302 14.5429Z" fill="#FDFF00"/>
</g>
<path fill-rule="evenodd" clip-rule="evenodd" d="M4.73657 11.529C4.73657 11.529 5.7907 12.7753 6.78326 12.3678C7.77583 11.9603 7.53518 10.4995 7.53518 10.4995L6.78326 11.1816H6.1432V11.529L5.6433 11.1816V11.529H4.73657ZM5.4495 13.4441C5.4495 13.4441 6.73428 14.5646 7.59987 14.248C8.46546 13.9313 8.24811 12.4146 8.24811 12.4146L7.49619 13.0967H6.85613V13.4441L6.35623 13.0967V13.4441H5.4495ZM8.9093 15.987C8.04371 16.3036 6.75893 15.1831 6.75893 15.1831H7.66566V14.8357L8.16556 15.1831V14.8357H8.80562L9.55754 14.1536C9.55754 14.1536 9.7749 15.6703 8.9093 15.987Z" fill="#048F02"/>
<path fill-rule="evenodd" clip-rule="evenodd" d="M13.9792 2.24854H12.9792V2.84412H12.5085V3.84412H12.9792V5.58875H13.9792V3.84412H14.5514V2.84412H13.9792V2.24854Z" fill="#FDFF00"/>
<path fill-rule="evenodd" clip-rule="evenodd" d="M15.1579 3.38452L12.8418 3.98117L15.1579 4.71305V3.38452Z" fill="#DB4400"/>
</g>
</svg>
