<svg width="32" height="24" viewBox="0 0 32 24" fill="none" xmlns="http://www.w3.org/2000/svg">
<mask id="mask0_157_78324" style="mask-type:alpha" maskUnits="userSpaceOnUse" x="0" y="0" width="32" height="24">
<rect width="32" height="24" fill="white"/>
</mask>
<g mask="url(#mask0_157_78324)">
<path fill-rule="evenodd" clip-rule="evenodd" d="M22 0H32V24H22V0Z" fill="#D9071E"/>
<path fill-rule="evenodd" clip-rule="evenodd" d="M0 0H12V24H0V0Z" fill="#006923"/>
<path fill-rule="evenodd" clip-rule="evenodd" d="M10 0H22V24H10V0Z" fill="white"/>
<path fill-rule="evenodd" clip-rule="evenodd" d="M13.0555 8.34173C12.9492 8.79689 13.0184 8.90433 13.5323 8.90433C13.559 8.90433 13.6014 8.97976 13.6474 9.06182C13.6979 9.15184 13.753 9.24983 13.7967 9.26497C13.778 9.2898 13.5826 9.64294 13.5816 10.265C13.5815 10.3931 13.641 10.6041 13.6983 10.8069C13.7605 11.0274 13.82 11.238 13.7967 11.3213C13.7588 11.4568 13.5889 11.3091 13.4573 11.1947C13.382 11.1293 13.3193 11.0747 13.3008 11.0902C13.2068 11.1693 13.1583 10.5431 13.129 10.1648C13.1159 9.99635 13.1067 9.87703 13.0989 9.89096C13.0661 9.81861 13.0527 9.72972 13.0395 9.6419C13.0107 9.45092 12.9827 9.26497 12.7573 9.26497H12.1772V9.69207C12.1772 9.69207 12.5129 9.69207 12.5129 10.4866C12.5184 10.6054 12.6751 11.6502 13.0555 11.6556C12.8326 11.6606 12.8342 11.7051 12.8352 11.7312L12.8353 11.7358C12.8353 12.375 13.3695 12.4441 13.8688 12.2637C14.1688 12.1552 14.4874 11.9435 14.7259 11.6826C15.0625 11.3143 15.1041 10.8375 14.6621 10.5761C14.5047 10.483 14.334 10.4471 14.0952 10.4338C14.1424 10.2936 14.0977 10.1685 14.0628 10.0708C14.0337 9.98915 14.0114 9.92675 14.0555 9.89096C14.5561 9.48494 14.6007 9.11072 14.2365 8.77504C14.1892 8.7315 14.1435 8.67246 14.0964 8.61169L14.0964 8.61169C14.0077 8.49713 13.9142 8.37642 13.7967 8.34173C13.851 8.23221 13.9241 8.09951 14.0159 7.94665L13.1586 7.43188C13.0032 7.69075 13.0291 7.89322 13.0518 8.06967C13.0642 8.16652 13.0756 8.25553 13.0555 8.34173ZM13.9878 11.0079L13.9723 11.0245L13.9828 11.015C13.9845 11.0121 13.9861 11.0097 13.9878 11.0079ZM13.5342 11.3213C13.5339 11.3214 13.5345 11.3212 13.5356 11.321L13.5358 11.321L13.5454 11.3191C13.5415 11.3197 13.5379 11.3205 13.5358 11.321L13.5342 11.3213ZM13.0989 11.6551C13.0872 11.6551 13.076 11.6552 13.0653 11.6554L13.0837 11.655L13.0989 11.6551Z" fill="#A8AC71"/>
<path fill-rule="evenodd" clip-rule="evenodd" d="M14.384 7.91333C14.384 7.91333 13.6972 8.44599 13.8257 9.01387C13.9541 9.58175 15.3076 9.01387 15.144 8.4636C14.9804 7.91333 14.384 7.91333 14.384 7.91333Z" fill="#FCCA3D"/>
<path fill-rule="evenodd" clip-rule="evenodd" d="M19.2663 12.4028C19.2663 12.4028 20.1913 9.66142 18.7209 8.24239C17.2506 6.82335 15.5515 6.91831 15.5515 6.91831C15.5515 6.91831 15.0622 7.28185 15.5515 7.55911C16.0408 7.83637 15.8358 8.10221 15.8358 8.10221C15.8358 8.10221 15.0163 7.27017 14.4723 7.75628C13.9284 8.24239 14.9801 8.16841 14.8688 8.53443C14.7575 8.90045 14.2858 10.5255 14.975 11.3459C15.6643 12.1664 14.3233 11.9883 14.5961 11.9883C14.8688 11.9883 15.8358 12.1793 15.8358 11.9883C15.8358 11.7974 16.1719 12.7308 16.4596 12.7308C16.7473 12.7308 16.9693 12.4028 16.9693 12.4028C16.9693 12.4028 17.3726 12.7308 17.6184 12.7308C17.8641 12.7308 18.7209 12.5161 18.7209 12.5161L17.1015 11.1516C17.1015 11.1516 17.1991 10.5497 16.9693 10.4195C16.7396 10.2892 18.8111 11.5739 18.9733 11.9883C19.1356 12.4028 19.2663 12.4028 19.2663 12.4028Z" fill="#8F4620"/>
<path d="M11.0664 11.7266C11.0664 11.7266 11.2166 11.248 11.3773 11.2148C11.5166 11.186 11.8094 11.4441 11.8094 11.4441C12.3297 14.334 13.5876 15.4627 15.6749 15.4627C17.7867 15.4627 19.0666 14.605 19.8135 11.9398C19.8135 11.9398 20.2106 11.5343 20.3507 11.5794C20.5032 11.6284 20.6943 12.1649 20.6943 12.1649C19.8375 15.2225 18.2185 16.5839 15.6749 16.5839C13.1067 16.5839 11.6638 15.0448 11.0664 11.7266Z" fill="#9FAB2F"/>
<path fill-rule="evenodd" clip-rule="evenodd" d="M13.3341 13.6562C13.3341 13.6562 16.3385 14.2936 17.5243 14.2936C18.7102 14.2936 16.4839 15.2614 15.6152 15.2614C15.2352 15.2614 14.7772 15.031 14.2412 14.5703C14.1451 14.4878 14.2382 14.303 13.9455 14.3005C13.5374 14.2969 13.0304 14.2012 13.0789 14.1429C13.125 14.0874 13.7188 14.0706 13.6616 14.01C13.5672 13.9099 13.3341 13.6562 13.3341 13.6562Z" fill="#2FC2DC"/>
<rect x="14.6665" y="14.0999" width="2" height="1.07143" rx="0.166667" fill="#F9AA51"/>
<path d="M12.1755 12.1358C12.1755 12.1358 12.1755 11.7607 12.4295 11.5615C12.7207 11.3331 12.9942 11.5615 12.9942 11.5615C14.0596 13.0801 15.6529 13.5797 17.8813 13.0583C17.8813 13.0583 18.5476 13.276 18.5811 13.419C18.6236 13.6006 18.1092 14.032 18.1092 14.032C15.5041 14.6415 13.4905 14.0101 12.1755 12.1358Z" fill="#259485"/>
<path fill-rule="evenodd" clip-rule="evenodd" d="M16.5912 12.3501C16.5912 12.3501 15.3775 12.989 15.782 12.989C16.1866 12.989 17.7699 13.3084 17.4618 12.989C17.1537 12.6695 16.5912 12.3501 16.5912 12.3501Z" fill="#FCCA3D"/>
<path fill-rule="evenodd" clip-rule="evenodd" d="M15.1563 11.5882C15.1563 11.5882 14.9257 10.9221 14.4458 10.9221C13.9659 10.9221 14.1014 11.4685 13.8706 11.4685C13.6398 11.4685 14.0856 11.853 14.2843 11.853C14.483 11.853 15.1563 11.5882 15.1563 11.5882Z" fill="#FCCA3D"/>
</g>
</svg>
