<svg width="32" height="24" viewBox="0 0 32 24" fill="none" xmlns="http://www.w3.org/2000/svg">
<mask id="mask0_157_78339" style="mask-type:alpha" maskUnits="userSpaceOnUse" x="0" y="0" width="32" height="24">
<rect width="32" height="24" fill="white"/>
</mask>
<g mask="url(#mask0_157_78339)">
<path fill-rule="evenodd" clip-rule="evenodd" d="M0 0V24H32V0H0Z" fill="#F50101"/>
<mask id="mask1_157_78339" style="mask-type:alpha" maskUnits="userSpaceOnUse" x="0" y="0" width="32" height="24">
<path fill-rule="evenodd" clip-rule="evenodd" d="M0 0V24H32V0H0Z" fill="white"/>
</mask>
<g mask="url(#mask1_157_78339)">
<path fill-rule="evenodd" clip-rule="evenodd" d="M0 0V8H32V0H0Z" fill="#F7FCFF"/>
<path fill-rule="evenodd" clip-rule="evenodd" d="M0 16V24H32V16H0Z" fill="#5EAA22"/>
<rect width="12" height="24" fill="#F50101"/>
<path fill-rule="evenodd" clip-rule="evenodd" d="M10.7703 2.03278C10.7798 1.94156 10.6631 1.90646 10.6166 1.98549C10.2537 2.60193 9.34412 4.06838 7.84686 5.98606V5.06838C7.70404 4.91316 7.24873 4.49558 7.24873 4.49558V3.57926L8.07242 2.83387L6.94115 1.99992L5.7488 2.83387L6.65005 3.57926V4.49558C6.65005 4.93498 6.10366 5.06838 6.10366 5.06838L6.00362 5.87667C4.61067 4.06788 3.74222 2.65753 3.37446 2.02717C3.327 1.94582 3.20761 1.98414 3.22164 2.07728C3.33264 2.81443 3.66463 4.45004 4.58172 6.19637H4.33576V6.16385C4.33576 6.11583 4.29683 6.0769 4.2488 6.0769H2.14011C2.09208 6.0769 2.05315 6.11583 2.05315 6.16385V7.48994C2.05315 7.53796 2.09208 7.5769 2.14011 7.5769H4.2488C4.29683 7.5769 4.33576 7.53796 4.33576 7.48994V6.79374H4.60133C4.6914 7.00144 4.89825 7.14782 5.14016 7.15207C5.30915 7.41279 5.49242 7.67281 5.69115 7.92958C5.23401 7.88436 2.21264 7.62713 2.21264 8.72632C2.21264 9.38242 2.94753 9.72971 3.86916 9.90922C2.94117 10.7496 2.06525 11.5402 1.66225 11.9038C1.59686 11.9628 1.64797 12.065 1.73346 12.0438C2.45314 11.8655 4.33959 11.3152 6.13543 10.0901L6.19136 10.0902C6.69711 10.0902 7.04888 9.87076 7.29337 9.57379C9.1199 11.0647 11.1863 11.7533 12.0833 12C12.1764 12.0256 12.2267 11.9051 12.1474 11.8501C11.4188 11.3444 9.77592 10.1273 8.09603 8.35948L8.14011 8.30788C8.48284 7.90342 8.78148 7.48739 9.04169 7.07024C9.15058 7.00657 9.23729 6.90972 9.28758 6.79374H9.55315L9.55315 7.48994C9.55315 7.53796 9.59208 7.5769 9.64011 7.5769H11.7488C11.7968 7.5769 11.8358 7.53796 11.8358 7.48994V6.16385C11.8358 6.11583 11.7968 6.0769 11.7488 6.0769H9.64011C9.61784 6.0769 9.59753 6.08526 9.58215 6.09903C10.4445 4.35353 10.6976 2.73393 10.7703 2.03278ZM9.55315 6.19637L9.55315 6.16385L9.55344 6.15673L9.53349 6.19637H9.55315ZM5.64011 6.56077C5.64011 6.828 5.42112 7.04464 5.15098 7.04464C4.88084 7.04464 4.66185 6.828 4.66185 6.56077C4.66185 6.29353 4.88084 6.0769 5.15098 6.0769C5.42112 6.0769 5.64011 6.29353 5.64011 6.56077ZM8.2488 6.56077C8.2488 6.828 8.4678 7.04464 8.73793 7.04464C9.00807 7.04464 9.22707 6.828 9.22707 6.56077C9.22707 6.29353 9.00807 6.0769 8.73793 6.0769C8.4678 6.0769 8.2488 6.29353 8.2488 6.56077Z" fill="#F7FCFF"/>
</g>
</g>
</svg>
