<svg width="32" height="24" viewBox="0 0 32 24" fill="none" xmlns="http://www.w3.org/2000/svg">
<mask id="mask0_157_78345" style="mask-type:alpha" maskUnits="userSpaceOnUse" x="0" y="0" width="32" height="24">
<rect width="32" height="24" fill="white"/>
</mask>
<g mask="url(#mask0_157_78345)">
<path fill-rule="evenodd" clip-rule="evenodd" d="M8 0H32V24H8V0Z" fill="#2F8D00"/>
<path fill-rule="evenodd" clip-rule="evenodd" d="M0 0H8V24H0V0Z" fill="#F7FCFF"/>
<path fill-rule="evenodd" clip-rule="evenodd" d="M22.4296 15.3062C22.4296 15.3062 17.9638 16.4705 14.4191 14.0955C10.8744 11.7206 12.6563 6.24772 12.6563 6.24772C10.8073 6.51677 7.90368 13.2626 12.5841 16.6461C17.2645 20.0295 21.7483 16.7772 22.4296 15.3062ZM17.4739 8.86645L15.1024 10.0261L17.6042 10.4717L17.9419 12.9172L19.359 10.8344L22.1475 11.0224L19.9634 9.39352L21.1261 7.21716L18.9518 8.21302L17.3365 6.69434L17.4739 8.86645Z" fill="#F1F9FF"/>
</g>
</svg>
