<svg xmlns="http://www.w3.org/2000/svg" width="24" height="24" fill="none" viewBox="0 0 24 24"><path fill="#101116" d="M12.75 7.75V8h1.5a.75.75 0 0 1 0 1.5h-2.875a.875.875 0 0 0 0 1.75h1.25a2.375 2.375 0 0 1 .125 4.747v.253a.75.75 0 0 1-1.5 0V16h-1.5a.75.75 0 0 1 0-1.5h2.875a.875.875 0 0 0 0-1.75h-1.25a2.375 2.375 0 0 1-.125-4.747V7.75a.75.75 0 0 1 1.5 0"/><path fill="#101116" fill-rule="evenodd" d="M12 4a8 8 0 1 0 0 16 8 8 0 0 0 0-16m-6.5 8a6.5 6.5 0 1 1 13 0 6.5 6.5 0 0 1-13 0" clip-rule="evenodd"/></svg>