<svg xmlns="http://www.w3.org/2000/svg" width="24" height="24" fill="none" viewBox="0 0 24 24"><mask id="a" width="22" height="22" x="1" y="1" maskUnits="userSpaceOnUse" style="mask-type:alpha"><path fill="#FFE37D" fill-rule="evenodd" d="M12.542 21.416c0 .965-1.166 1.446-1.848.765l-8.876-8.872a1.083 1.083 0 0 1 0-1.533l9.955-9.958a1.083 1.083 0 0 1 1.533 0l8.873 8.875c.685.682.2 1.848-.765 1.848h-2.589a6.28 6.28 0 0 1-6.28 6.281h-.003z" clip-rule="evenodd"/></mask><g mask="url(#a)"><path fill="url(#b)" d="M12.545 6.26a6.28 6.28 0 0 0-6.28 6.28 6.28 6.28 0 1 0 12.56 0 6.28 6.28 0 0 0-6.28-6.28"/><path fill="url(#c)" d="M10.694 22.18c.682.682 1.848.201 1.848-.764v-5.354a3.52 3.52 0 0 0 3.52-3.521h5.352c.966 0 1.45-1.166.765-1.848l-8.873-8.875a1.083 1.083 0 0 0-1.533 0l-9.955 9.958a1.083 1.083 0 0 0 0 1.533z"/><g opacity=".5"><g filter="url(#d)"><path fill="#550B33" d="M12.545 5.137a6.28 6.28 0 0 0-6.28 6.282 6.28 6.28 0 1 0 12.56 0 6.28 6.28 0 0 0-6.28-6.282"/></g><g filter="url(#e)"><path fill="#FFE37D" d="M12.545 6.26a6.28 6.28 0 0 0-6.28 6.28 6.28 6.28 0 1 0 12.56 0 6.28 6.28 0 0 0-6.28-6.28"/></g></g></g><defs><linearGradient id="b" x1="13.314" x2="16.343" y1="13.181" y2="15.698" gradientUnits="userSpaceOnUse"><stop stop-color="#fff"/><stop offset="1" stop-color="#FFE37D"/></linearGradient><linearGradient id="c" x1="11.5" x2="18" y1="11" y2="18" gradientUnits="userSpaceOnUse"><stop stop-color="#DC2A54"/><stop offset="1" stop-color="#D078FC"/></linearGradient><filter id="d" width="16.56" height="16.563" x="4.266" y="3.137" color-interpolation-filters="sRGB" filterUnits="userSpaceOnUse"><feFlood flood-opacity="0" result="BackgroundImageFix"/><feBlend in="SourceGraphic" in2="BackgroundImageFix" result="shape"/><feGaussianBlur result="effect1_foregroundBlur_6408_7077" stdDeviation="1"/></filter><filter id="e" width="16.56" height="16.563" x="4.266" y="4.259" color-interpolation-filters="sRGB" filterUnits="userSpaceOnUse"><feFlood flood-opacity="0" result="BackgroundImageFix"/><feBlend in="SourceGraphic" in2="BackgroundImageFix" result="shape"/><feGaussianBlur result="effect1_foregroundBlur_6408_7077" stdDeviation="1"/></filter></defs></svg>