<svg xmlns="http://www.w3.org/2000/svg" width="24" height="24" fill="none" viewBox="0 0 24 24"><path fill="#0B0B0E" fill-rule="evenodd" d="M8.9 4c0-1.16.94-2.1 2.1-2.1h2c1.16 0 2.1.94 2.1 2.1v1.072a.9.9 0 0 0 1.35.78l.928-.537a2.1 2.1 0 0 1 2.869.769l1 1.732a2.1 2.1 0 0 1-.769 2.869l-.928.536a.9.9 0 0 0 0 1.559l.928.535a2.1 2.1 0 0 1 .769 2.869l-1 1.732a2.1 2.1 0 0 1-2.869.769l-.928-.536a.9.9 0 0 0-1.35.78V20a2.1 2.1 0 0 1-2.1 2.1h-2A2.1 2.1 0 0 1 8.9 20v-1.072a.9.9 0 0 0-1.35-.78l-.928.537a2.1 2.1 0 0 1-2.869-.769l-1-1.732a2.1 2.1 0 0 1 .769-2.869l.928-.535a.9.9 0 0 0 0-1.56l-.928-.535a2.1 2.1 0 0 1-.769-2.869l1-1.732a2.1 2.1 0 0 1 2.869-.769l.928.536a.9.9 0 0 0 1.35-.78V4Zm2.2.1v.972c0 2.386-2.583 3.878-4.65 2.684l-.842-.485-.9 1.559.842.485c2.067 1.194 2.067 4.177 0 5.37l-.842.486.9 1.559.842-.486c2.067-1.194 4.65.298 4.65 2.684v.972h1.8v-.972c0-2.386 2.583-3.878 4.65-2.684l.842.486.9-1.56-.842-.485c-2.067-1.194-2.067-4.177 0-5.37l.842-.486-.9-1.558-.842.486c-2.067 1.193-4.65-.299-4.65-2.685V4.1h-1.8ZM9.9 12a2.1 2.1 0 1 1 4.2 0 2.1 2.1 0 0 1-4.2 0Z" clip-rule="evenodd"/></svg>