<svg xmlns="http://www.w3.org/2000/svg" width="24" height="24" fill="none" viewBox="0 0 24 24"><path fill="#C1C1C4" fill-rule="evenodd" d="M9 4a2 2 0 0 1 2-2h2a2 2 0 0 1 2 2v1.072a1 1 0 0 0 1.5.866l.928-.536a2 2 0 0 1 2.732.732l1 1.732a2 2 0 0 1-.732 2.732l-.928.536a1 1 0 0 0 0 1.732l.928.536a2 2 0 0 1 .732 2.732l-1 1.732a2 2 0 0 1-2.732.732l-.928-.536a1 1 0 0 0-1.5.866V20a2 2 0 0 1-2 2h-2a2 2 0 0 1-2-2v-1.072a1 1 0 0 0-1.5-.866l-.928.536a2 2 0 0 1-2.732-.732l-1-1.732a2 2 0 0 1 .732-2.732l.928-.536a1 1 0 0 0 0-1.732l-.928-.536a2 2 0 0 1-.732-2.732l1-1.732a2 2 0 0 1 2.732-.732l.928.536A1 1 0 0 0 9 5.072V4Z" clip-rule="evenodd"/><path fill="#414245" fill-rule="evenodd" d="M10 12a2 2 0 1 1 4 0 2 2 0 0 1-4 0Z" clip-rule="evenodd"/></svg>