<svg xmlns="http://www.w3.org/2000/svg" width="24" height="24" fill="none" viewBox="0 0 24 24"><path fill="#C5C6CA" d="M11.871 4a1.75 1.75 0 0 0-1.733 1.51l-.087.633c-.012.084-.087.208-.266.28l-.191.08c-.176.076-.317.042-.385-.009l-.308-.23a1.75 1.75 0 0 0-2.287.162l-.188.188A1.75 1.75 0 0 0 6.264 8.9l.23.308c.051.068.085.209.008.385l-.08.191c-.07.18-.195.254-.28.266l-.631.087A1.75 1.75 0 0 0 4 11.87v.258a1.75 1.75 0 0 0 1.51 1.733l.633.087c.084.012.208.087.28.266q.037.096.08.191c.076.176.042.317-.009.385l-.23.308a1.75 1.75 0 0 0 .162 2.287l.188.188a1.75 1.75 0 0 0 2.287.162l.308-.23c.068-.051.209-.085.385-.008q.095.041.191.08c.18.07.254.195.266.28l.087.631a1.75 1.75 0 0 0 1.733 1.511h.258a1.75 1.75 0 0 0 1.733-1.51l.087-.633c.012-.084.087-.208.266-.28q.096-.037.191-.08c.176-.076.317-.042.385.009l.308.23a1.75 1.75 0 0 0 2.287-.162l.188-.188a1.75 1.75 0 0 0 .162-2.287l-.23-.308c-.051-.068-.085-.209-.008-.385q.041-.095.08-.191c.07-.18.195-.254.28-.266l.631-.087A1.75 1.75 0 0 0 20 12.13v-.258a1.75 1.75 0 0 0-1.51-1.733l-.633-.087c-.084-.012-.208-.087-.28-.266l-.08-.191c-.076-.176-.042-.317.009-.385l.23-.308a1.75 1.75 0 0 0-.162-2.287l-.188-.188a1.75 1.75 0 0 0-2.287-.162l-.308.23c-.068.051-.209.085-.385.008l-.191-.08c-.18-.07-.254-.195-.266-.28l-.087-.631A1.75 1.75 0 0 0 12.13 4z"/><circle cx="12" cy="12" r="1.25" fill="#4D505A"/></svg>