<svg xmlns="http://www.w3.org/2000/svg" width="24" height="24" fill="none" viewBox="0 0 24 24"><path fill="#101116" d="M9 16.25a1.25 1.25 0 1 0 0-2.5 1.25 1.25 0 0 0 0 2.5"/><path fill="#101116" fill-rule="evenodd" d="M4 6.75A2.75 2.75 0 0 1 6.75 4h4.5c.857 0 1.623.392 2.127 1.007.193-.027.458-.053.754-.05.559.003 1.444.106 2.043.744l3.08 3.273a2.75 2.75 0 0 1-.038 3.809l-2.93 2.992a.75.75 0 1 1-1.072-1.05l2.93-2.992a1.25 1.25 0 0 0 .018-1.73l-3.08-3.275c-.156-.165-.49-.269-.961-.272q-.07 0-.136.002.015.144.015.292v10.5A2.75 2.75 0 0 1 11.25 20h-4.5A2.75 2.75 0 0 1 4 17.25zM6.75 5.5c-.69 0-1.25.56-1.25 1.25v10.5c0 .69.56 1.25 1.25 1.25h4.5c.69 0 1.25-.56 1.25-1.25V6.75c0-.69-.56-1.25-1.25-1.25z" clip-rule="evenodd"/></svg>