<svg xmlns="http://www.w3.org/2000/svg" width="35.775" height="10.158" viewBox="0 0 35.775 10.158">
  <g id="Group_35" data-name="Group 35" transform="translate(0.001 0.005)">
    <path id="Path_13" data-name="Path 13" d="M10.772,3.322Q9.33,5.354,7.886,7.386c-.073.1-.14.207-.215.308-.806,1.1-1.788,1.133-2.609.045C4.184,6.574,3.357,5.37,2.505,4.185c-.179-.25-.363-.5-.56-.765-.225.237-.138.476-.139.69-.009,1.814,0,3.628-.006,5.444,0,.767-.029.749-.968.788-.611.025-.841-.146-.834-.8C.031,6.7.026,3.868,0,1.031,0,.449.158.256.769.22A2.362,2.362,0,0,1,2.841,1.273C3.95,2.632,4.969,4.057,5.953,5.506c.321.473.486.412.78-.005Q8.048,3.634,9.415,1.8A11.019,11.019,0,0,1,10.469.654c.56-.56,1.273-.426,1.953-.376.269.02.279.279.279.488q.006,4.505.005,9.009c0,.4-.167.583-.566.551-.063-.005-.125,0-.188,0-1.042.013-1.043.013-1.043-1.005q0-2.969,0-5.94Z" transform="translate(0 -0.192)" fill="#e41c24"/>
    <path id="Path_14" data-name="Path 14" d="M215.864.437c.771,0,1.542-.005,2.314,0a2.552,2.552,0,0,1,2.569,2.522c.023,1.605.025,3.21,0,4.814a2.773,2.773,0,0,1-2.711,2.737c-1.229.033-2.46.03-3.688,0a3.117,3.117,0,0,1-2.88-3.2,3.045,3.045,0,0,1,2.878-3.116c1.042-.024,2.085-.011,3.126-.006a1.31,1.31,0,0,0,.928-.3.8.8,0,0,0-.28-1.422,2.186,2.186,0,0,0-.74-.088c-1.333,0-2.668-.019-4,.008-.522.01-.687-.188-.691-.694-.009-1.262-.028-1.261,1.241-1.261Zm.65,5.579a9.34,9.34,0,0,0-1.914.08,1.454,1.454,0,0,0-1.1,1.415,1.349,1.349,0,0,0,1.373,1.2c.853.021,1.708.006,2.562,0a1.357,1.357,0,0,0,1.143-.649,2.573,2.573,0,0,0,.26-1.57c.01-.344-.16-.485-.5-.48C217.776,6.023,217.214,6.016,216.514,6.016Z" transform="translate(-184.991 -0.384)" fill="#e41c24"/>
    <path id="Path_15" data-name="Path 15" d="M139.21,6.549c.607-1.385,1.069-2.768,1.643-4.108a8.978,8.978,0,0,1,.677-1.336A2.37,2.37,0,0,1,143.8.057a.434.434,0,0,1,.341.12A1.7,1.7,0,0,1,143.808,2a2.269,2.269,0,0,0-1.053,1.113,22,22,0,0,0-1.231,3.343,11.055,11.055,0,0,1-1.231,2.931,1.273,1.273,0,0,1-2.373-.085A20.644,20.644,0,0,1,136.6,5.592c-.237-.69-.461-1.386-.74-2.06A2.34,2.34,0,0,0,134.5,1.99c-.373-.124-.265-.481-.272-.756-.024-1.257.367-1.51,1.526-.973A3.564,3.564,0,0,1,137.424,1.9a26.29,26.29,0,0,1,1.561,4.02C139.058,6.128,139.134,6.339,139.21,6.549Z" transform="translate(-117.418 0)" fill="#e41c24"/>
    <path id="Path_16" data-name="Path 16" d="M114,5.285c0,1.439-.018,2.878.009,4.317.009.528-.143.8-.707.729a3.371,3.371,0,0,0-.562,0c-.357.016-.545-.124-.543-.5q.006-4.535,0-9.072c0-.379.187-.491.542-.511,1.26-.069,1.263-.075,1.263,1.167Q114,3.347,114,5.285Z" transform="translate(-98.154 -0.193)" fill="#e41c24"/>
  </g>
</svg>
