<?xml version="1.0" encoding="UTF-8" standalone="no"?>
<!DOCTYPE svg PUBLIC "-//W3C//DTD SVG 1.1//EN" "http://www.w3.org/Graphics/SVG/1.1/DTD/svg11.dtd">
<svg width="100%" height="100%" viewBox="0 0 151 171" version="1.1" xmlns="http://www.w3.org/2000/svg" xmlns:xlink="http://www.w3.org/1999/xlink" xml:space="preserve" xmlns:serif="http://www.serif.com/" style="fill-rule:evenodd;clip-rule:evenodd;stroke-linejoin:round;stroke-miterlimit:1.41421;">
    <g transform="matrix(1,0,0,1,-1130,-994.65)">
        <g transform="matrix(1,0,0,1,1130.1,988.05)">
            <g transform="matrix(1,0,0,1,0,-302.1)">
                <path d="M131.5,341.9C131.4,341 130.6,340.6 130,340.6C129.4,340.6 116.3,339.6 116.3,339.6C116.3,339.6 107.2,330.5 106.1,329.6C105.1,328.6 103.2,328.9 102.4,329.1C102.3,329.1 100.4,329.7 97.3,330.7C94.2,321.8 88.9,313.7 79.4,313.7L78.5,313.7C75.9,310.3 72.5,308.7 69.7,308.7C47.7,308.7 37.1,336.2 33.8,350.2C25.2,352.9 19.1,354.7 18.4,355C13.6,356.5 13.5,356.6 12.9,361.1C12.4,364.5 -0.1,461.2 -0.1,461.2L97.2,479.4L150,468C150.1,467.8 131.6,342.8 131.5,341.9ZM91.9,332.1C89.5,332.8 86.6,333.7 83.7,334.7L83.7,332.9C83.7,327.5 83,323.1 81.7,319.6C86.7,320.2 89.8,325.7 91.9,332.1ZM75.6,320.7C76.9,324.1 77.8,328.9 77.8,335.5L77.8,336.5C72.4,338.2 66.7,339.9 60.8,341.8C64.1,329.2 70.4,323 75.6,320.7ZM69.2,314.5C70.2,314.5 71.2,314.9 72,315.5C64.9,318.8 57.4,327.1 54.3,343.9C49.6,345.4 45.1,346.7 40.8,348.1C44.4,335.3 53.4,314.5 69.2,314.5Z" style="fill:rgb(149,191,71);fill-rule:nonzero;"/>
            </g>
            <g transform="matrix(1,0,0,1,0,-302.1)">
                <path d="M130,340.4C129.4,340.4 116.3,339.4 116.3,339.4C116.3,339.4 107.2,330.3 106.1,329.4C105.7,329 105.2,328.8 104.8,328.8L97.5,479.4L150.3,468C150.3,468 131.8,342.8 131.7,341.9C131.3,341 130.6,340.6 130,340.4Z" style="fill:rgb(94,142,62);fill-rule:nonzero;"/>
            </g>
            <g transform="matrix(1,0,0,1,0,-302.1)">
                <path d="M79.4,369.6L73,388.9C73,388.9 67.2,385.8 60.3,385.8C50,385.8 49.5,392.3 49.5,393.9C49.5,402.7 72.5,406.1 72.5,426.8C72.5,443.1 62.2,453.6 48.3,453.6C31.5,453.6 23.1,443.2 23.1,443.2L27.6,428.4C27.6,428.4 36.4,436 43.8,436C48.7,436 50.7,432.2 50.7,429.4C50.7,417.9 31.9,417.4 31.9,398.4C31.9,382.5 43.3,367.1 66.4,367.1C75,367 79.4,369.6 79.4,369.6Z" style="fill:white;fill-rule:nonzero;"/>
            </g>
        </g>
    </g>
</svg>
