<svg id="woocommerce" xmlns="http://www.w3.org/2000/svg" width="35.369" height="21.053" viewBox="0 0 35.369 21.053">
  <path id="Path_168" data-name="Path 168" d="M3.283,0H32.072a3.3,3.3,0,0,1,3.3,3.3V14.286a3.3,3.3,0,0,1-3.3,3.3H21.748l1.417,3.47-6.232-3.47H3.3a3.3,3.3,0,0,1-3.3-3.3V3.3A3.283,3.283,0,0,1,3.283,0Z" transform="translate(0)" fill="#9b5c8f"/>
  <path id="Path_169" data-name="Path 169" d="M13.034,15.172a1.157,1.157,0,0,1,.906-.446,1.05,1.05,0,0,1,1.251,1.035q.669,4.507,1.452,7.635l3.149-6a1.365,1.365,0,0,1,1.078-.863c.633-.043,1.021.359,1.179,1.208a26.868,26.868,0,0,0,1.366,4.917q.561-5.478,1.9-7.908a1.1,1.1,0,0,1,.949-.633,1.25,1.25,0,0,1,.906.288,1.126,1.126,0,0,1,.446.82,1.248,1.248,0,0,1-.144.69,17.4,17.4,0,0,0-1.395,5.19,26.787,26.787,0,0,0-.4,5.478,1.706,1.706,0,0,1-.172.949.927.927,0,0,1-.762.518,1.445,1.445,0,0,1-1.136-.532A14.235,14.235,0,0,1,20.425,21.4q-1.4,2.76-2.07,4.141c-.848,1.625-1.567,2.459-2.171,2.5-.388.029-.719-.3-1.006-.992A62.29,62.29,0,0,1,12.8,16.135a1.224,1.224,0,0,1,.23-.963Zm30.9,2.257a3.311,3.311,0,0,0-2.3-1.668,3.777,3.777,0,0,0-.776-.086,3.877,3.877,0,0,0-3.379,2.157,7.617,7.617,0,0,0-1.121,4.054,5.567,5.567,0,0,0,.69,2.847,3.311,3.311,0,0,0,2.3,1.668,3.767,3.767,0,0,0,.776.086A3.844,3.844,0,0,0,43.5,24.33a7.7,7.7,0,0,0,1.121-4.069,5.306,5.306,0,0,0-.69-2.832ZM42.12,21.412a3.8,3.8,0,0,1-1.093,2.128,1.382,1.382,0,0,1-1.164.46c-.345-.072-.633-.374-.848-.935a3.645,3.645,0,0,1-.259-1.308,5,5,0,0,1,.1-1.049A4.651,4.651,0,0,1,39.618,19c.475-.7.978-.992,1.5-.891.345.072.633.374.848.935a3.648,3.648,0,0,1,.259,1.308,5.046,5.046,0,0,1-.1,1.064Zm-7.189-3.983a3.341,3.341,0,0,0-2.3-1.668,3.776,3.776,0,0,0-.776-.086,3.877,3.877,0,0,0-3.379,2.157,7.618,7.618,0,0,0-1.121,4.054,5.567,5.567,0,0,0,.69,2.847,3.311,3.311,0,0,0,2.3,1.668,3.768,3.768,0,0,0,.776.086A3.844,3.844,0,0,0,34.5,24.33a7.7,7.7,0,0,0,1.121-4.069,5.44,5.44,0,0,0-.69-2.832Zm-1.826,3.983a3.8,3.8,0,0,1-1.093,2.128,1.382,1.382,0,0,1-1.165.46c-.345-.072-.632-.374-.848-.935a3.651,3.651,0,0,1-.259-1.308,5,5,0,0,1,.1-1.049A4.649,4.649,0,0,1,30.6,19c.474-.7.978-.992,1.5-.891.345.072.633.374.848.935a3.645,3.645,0,0,1,.259,1.308,4.242,4.242,0,0,1-.1,1.064Z" transform="translate(-11.02 -12.167)" fill="#fff"/>
</svg>
