<svg xmlns="http://www.w3.org/2000/svg" width="24" height="24" fill="none" viewBox="0 0 24 24"><path fill="#C5C6CA" fill-rule="evenodd" d="M6.274 3.546A2 2 0 0 1 7.648 3H14a2 2 0 0 1 2 2v11a2 2 0 0 1-2 2H6a2 2 0 0 1-2-2V6.556a2 2 0 0 1 .627-1.454l1.647-1.556Z" clip-rule="evenodd"/><path fill="#4D505A" d="M16 6v10a2 2 0 0 1-2 2H8v1a2 2 0 0 0 2 2h8a2 2 0 0 0 2-2V8a2 2 0 0 0-2-2h-2Z"/><path fill="#4D505A" fill-rule="evenodd" d="M6.274 3.546A2 2 0 0 1 7.648 3H8.4a1.1 1.1 0 0 1 1.1 1.1v2.15a2 2 0 0 1-2 2H5.1A1.1 1.1 0 0 1 4 7.15v-.594a2 2 0 0 1 .627-1.454l1.647-1.556Z" clip-rule="evenodd"/></svg>