<svg xmlns="http://www.w3.org/2000/svg" width="24" height="24" fill="none" viewBox="0 0 24 24"><mask id="a" width="19" height="20" x="3" y="2" maskUnits="userSpaceOnUse" style="mask-type:alpha"><path fill="#FFE37D" fill-rule="evenodd" d="M6.257 2.5h9.386c.49 0 .944.263 1.188.686l4.693 8.128c.244.423.244.949 0 1.372l-4.693 8.128a1.38 1.38 0 0 1-1.188.686H6.257c-.492 0-.945-.263-1.189-.686l-.548-.948a1.37 1.37 0 0 1 .217-1.657l.589-.589A7.93 7.93 0 0 1 3 12a7.93 7.93 0 0 1 2.326-5.62l-.589-.589a1.38 1.38 0 0 1-.217-1.657l.548-.948A1.38 1.38 0 0 1 6.257 2.5" clip-rule="evenodd"/></mask><g mask="url(#a)"><path fill="url(#b)" d="M10.954 19.953a7.953 7.953 0 1 0 0-15.906 7.953 7.953 0 0 0 0 15.906"/><path fill="url(#c)" d="M15.646 2.5h-9.39c-.49 0-.94.263-1.188.686l-.548.948a1.38 1.38 0 0 0 .217 1.657L7.796 8.85A4.44 4.44 0 0 0 6.489 12c0 1.23.5 2.346 1.307 3.15l-3.059 3.06a1.37 1.37 0 0 0-.217 1.657l.548.948c.244.423.697.686 1.189.686h9.386c.49 0 .94-.263 1.188-.686l4.693-8.128a1.38 1.38 0 0 0 0-1.372L16.83 3.186a1.37 1.37 0 0 0-1.188-.686h.003Z"/><g opacity=".5"><g filter="url(#d)"><path fill="#4F1D0A" d="M11.903 19.953a7.953 7.953 0 1 0 0-15.906 7.953 7.953 0 0 0 0 15.906"/></g><g filter="url(#e)"><path fill="#FFE37D" d="M10.954 19.953a7.953 7.953 0 1 0 0-15.906 7.953 7.953 0 0 0 0 15.906"/></g></g></g><defs><linearGradient id="b" x1="8.638" x2="4.04" y1="11.973" y2="11.92" gradientUnits="userSpaceOnUse"><stop stop-color="#fff"/><stop offset="1" stop-color="#FFE37D"/></linearGradient><linearGradient id="c" x1="11.715" x2="23.44" y1="12" y2="12" gradientUnits="userSpaceOnUse"><stop stop-color="#E7910A"/><stop offset="1" stop-color="#DF2B76"/></linearGradient><filter id="d" width="21.907" height="21.907" x=".95" y="1.046" color-interpolation-filters="sRGB" filterUnits="userSpaceOnUse"><feFlood flood-opacity="0" result="BackgroundImageFix"/><feBlend in="SourceGraphic" in2="BackgroundImageFix" result="shape"/><feGaussianBlur result="effect1_foregroundBlur_4150_91290" stdDeviation="1.5"/></filter><filter id="e" width="19.907" height="19.907" x="1" y="2.046" color-interpolation-filters="sRGB" filterUnits="userSpaceOnUse"><feFlood flood-opacity="0" result="BackgroundImageFix"/><feBlend in="SourceGraphic" in2="BackgroundImageFix" result="shape"/><feGaussianBlur result="effect1_foregroundBlur_4150_91290" stdDeviation="1"/></filter></defs></svg>