<svg width="24" height="24" viewBox="0 0 24 24" fill="none" xmlns="http://www.w3.org/2000/svg"><path fill-rule="evenodd" clip-rule="evenodd" d="M12 4a8 8 0 1 0 0 16 8 8 0 0 0 0-16ZM2 12C2 6.477 6.477 2 12 2s10 4.477 10 10-4.477 10-10 10S2 17.523 2 12Z" fill="#3D3D42"/><path fill-rule="evenodd" clip-rule="evenodd" d="M11.133 9.5a1 1 0 1 1-1.731-1A3 3 0 0 1 15 10c0 1.098-.673 1.994-1.5 2.5-.664.406-.25 1.5-1.503 1.5a1 1 0 0 1-.994-1.104c.027-.529.263-.96.52-1.272.271-.33.628-.6.9-.762 1.517-.902-.333-2.747-1.29-1.361Zm.864 5.5a1 1 0 1 0 0 2 1 1 0 0 0 0-2Z" fill="#3D3D42"/></svg>