<svg xmlns="http://www.w3.org/2000/svg" width="24" height="24" fill="none" viewBox="0 0 24 24"><path fill="#C5C6CA" d="M14.75 4A1.75 1.75 0 0 0 13 5.75v3.5c0 .966.784 1.75 1.75 1.75h3.5A1.75 1.75 0 0 0 20 9.25v-3.5A1.75 1.75 0 0 0 18.25 4zm0 9A1.75 1.75 0 0 0 13 14.75v3.5c0 .966.784 1.75 1.75 1.75h3.5A1.75 1.75 0 0 0 20 18.25v-3.5A1.75 1.75 0 0 0 18.25 13zm-9 0A1.75 1.75 0 0 0 4 14.75v3.5c0 .966.784 1.75 1.75 1.75h3.5A1.75 1.75 0 0 0 11 18.25v-3.5A1.75 1.75 0 0 0 9.25 13z"/><path fill="#4D505A" d="M5.75 4A1.75 1.75 0 0 0 4 5.75v3.5c0 .966.784 1.75 1.75 1.75h3.5A1.75 1.75 0 0 0 11 9.25v-3.5A1.75 1.75 0 0 0 9.25 4z"/></svg>