<svg width="24" height="24" viewBox="0 0 24 24" fill="none" xmlns="http://www.w3.org/2000/svg"><path fill-rule="evenodd" clip-rule="evenodd" d="M17.032 3h-.064c-.439 0-.817 0-1.13.021-.33.023-.66.072-.986.207a3 3 0 0 0-1.624 1.624 3.07 3.07 0 0 0-.207.986C13 6.15 13 6.529 13 6.968v.064c0 .439 0 .817.021 1.13.023.33.072.66.207.986a3 3 0 0 0 1.624 1.624c.326.135.656.184.986.207.313.021.691.021 1.13.021h.064c.439 0 .817 0 1.13-.021.33-.023.66-.072.986-.207a3 3 0 0 0 1.624-1.624c.135-.326.184-.656.207-.986C21 7.85 21 7.471 21 7.032v-.064c0-.439 0-.817-.021-1.13a3.072 3.072 0 0 0-.207-.986 3 3 0 0 0-1.624-1.624 3.07 3.07 0 0 0-.986-.207C17.85 3 17.471 3 17.032 3Zm-1.415 2.076c.042-.017.129-.044.357-.06C16.21 5.002 16.52 5 17 5s.79 0 1.026.017c.228.015.315.042.357.06a1 1 0 0 1 .54.54c.018.042.045.129.06.357C19 6.21 19 6.52 19 7s0 .79-.017 1.026c-.015.228-.042.315-.06.357a1 1 0 0 1-.54.54c-.042.018-.129.045-.357.06C17.79 9 17.48 9 17 9s-.79 0-1.026-.017c-.228-.015-.315-.042-.357-.06a1 1 0 0 1-.54-.54c-.018-.042-.045-.129-.06-.357A16.888 16.888 0 0 1 15 7c0-.48 0-.79.017-1.026.015-.228.042-.315.06-.357a1 1 0 0 1 .54-.54ZM6.968 13h.064c.439 0 .817 0 1.13.021.33.023.66.072.986.207a3 3 0 0 1 1.624 1.624c.135.326.184.656.207.986.021.313.021.691.021 1.13v.064c0 .439 0 .817-.021 1.13-.023.33-.072.66-.207.986a3 3 0 0 1-1.624 1.624 3.072 3.072 0 0 1-.986.207C7.85 21 7.471 21 7.032 21h-.064c-.439 0-.817 0-1.13-.021a3.072 3.072 0 0 1-.986-.207 3 3 0 0 1-1.624-1.624 3.07 3.07 0 0 1-.207-.986C3 17.85 3 17.471 3 17.032v-.064c0-.439 0-.817.021-1.13.023-.33.072-.66.207-.986a3 3 0 0 1 1.624-1.624 3.07 3.07 0 0 1 .986-.207C6.15 13 6.529 13 6.968 13Zm-.994 2.017c-.228.015-.315.042-.357.06a1 1 0 0 0-.54.54c-.018.042-.045.129-.06.357C5 16.21 5 16.52 5 17s0 .79.017 1.026c.015.228.042.315.06.357a1 1 0 0 0 .54.54c.042.018.129.045.357.06C6.21 19 6.52 19 7 19s.79 0 1.026-.017c.228-.015.315-.042.357-.06a1 1 0 0 0 .54-.54c.018-.042.045-.129.06-.357C9 17.79 9 17.48 9 17s0-.79-.017-1.026c-.015-.228-.042-.315-.06-.357a1 1 0 0 0-.54-.54c-.042-.018-.129-.045-.357-.06A16.888 16.888 0 0 0 7 15c-.48 0-.79 0-1.026.017ZM16.968 13h.064c.439 0 .817 0 1.13.021.33.023.66.072.986.207a3 3 0 0 1 1.624 1.624c.135.326.184.656.207.986.021.313.021.691.021 1.13v.064c0 .439 0 .817-.021 1.13-.023.33-.072.66-.207.986a3 3 0 0 1-1.624 1.624 3.073 3.073 0 0 1-.986.207c-.313.021-.691.021-1.13.021h-.064c-.439 0-.817 0-1.13-.021a3.072 3.072 0 0 1-.986-.207 3 3 0 0 1-1.624-1.624 3.07 3.07 0 0 1-.207-.986C13 17.85 13 17.471 13 17.032v-.064c0-.439 0-.817.021-1.13.023-.33.072-.66.207-.986a3 3 0 0 1 1.624-1.624c.326-.135.656-.184.986-.207.313-.021.691-.021 1.13-.021Zm-.994 2.017c-.228.015-.315.042-.357.06a1 1 0 0 0-.54.54c-.018.042-.045.129-.06.357C15 16.21 15 16.52 15 17s0 .79.017 1.026c.015.228.042.315.06.357a1 1 0 0 0 .54.54c.042.018.129.045.357.06C16.21 19 16.52 19 17 19s.79 0 1.026-.017c.228-.015.315-.042.357-.06a1 1 0 0 0 .54-.54c.018-.042.045-.129.06-.357C19 17.79 19 17.48 19 17s0-.79-.017-1.026c-.015-.228-.042-.315-.06-.357a1 1 0 0 0-.54-.54c-.042-.018-.129-.045-.357-.06A16.885 16.885 0 0 0 17 15c-.48 0-.79 0-1.026.017ZM6.968 3h.064c.439 0 .817 0 1.13.021.33.023.66.072.986.207a3 3 0 0 1 1.624 1.624c.135.326.184.656.207.986.021.313.021.691.021 1.13v.064c0 .439 0 .817-.021 1.13-.023.33-.072.66-.207.986a3 3 0 0 1-1.624 1.624 3.072 3.072 0 0 1-.986.207C7.85 11 7.471 11 7.032 11h-.064c-.439 0-.817 0-1.13-.021a3.072 3.072 0 0 1-.986-.207 3 3 0 0 1-1.624-1.624 3.07 3.07 0 0 1-.207-.986C3 7.85 3 7.471 3 7.032v-.064c0-.439 0-.817.021-1.13.023-.33.072-.66.207-.986a3 3 0 0 1 1.624-1.624 3.07 3.07 0 0 1 .986-.207C6.15 3 6.529 3 6.968 3Zm-.994 2.017c-.228.015-.315.042-.357.06a1 1 0 0 0-.54.54c-.018.042-.045.129-.06.357C5 6.21 5 6.52 5 7s0 .79.017 1.026c.015.228.042.315.06.357a1 1 0 0 0 .54.54c.042.018.129.045.357.06C6.21 9 6.52 9 7 9s.79 0 1.026-.017c.228-.015.315-.042.357-.06a1 1 0 0 0 .54-.54c.018-.042.045-.129.06-.357C9 7.79 9 7.48 9 7s0-.79-.017-1.026c-.015-.228-.042-.315-.06-.357a1 1 0 0 0-.54-.54c-.042-.018-.129-.045-.357-.06A16.91 16.91 0 0 0 7 5c-.48 0-.79 0-1.026.017Z" fill="#3D3D42"/></svg>