<svg xmlns="http://www.w3.org/2000/svg" width="24" height="24" fill="none" viewBox="0 0 24 24"><path fill="#3E3E42" fill-rule="evenodd" d="M2 7a3 3 0 0 1 3-3h5a3 3 0 0 1 3 3h3.225a3 3 0 0 1 2.021.783l2.775 2.53A3 3 0 0 1 22 12.53V15a3.001 3.001 0 0 1-2.128 2.872A3.001 3.001 0 0 1 14.17 18H9.829a3.001 3.001 0 0 1-5.7-.128A3.001 3.001 0 0 1 2 15V7Zm16 10a1 1 0 1 1-2 0 1 1 0 0 1 2 0ZM7 18a1 1 0 1 0 0-2 1 1 0 0 0 0 2Z" clip-rule="evenodd"/><path fill="#C9C9CD" d="M5 4a3 3 0 0 0-3 3v8c0 1.354.897 2.498 2.129 2.872a3 3 0 1 1 5.7.128H13V7a3 3 0 0 0-3-3H5Z"/></svg>