<svg xmlns="http://www.w3.org/2000/svg" width="24" height="24" fill="none" viewBox="0 0 24 24"><path fill="#C5C6CA" d="M20.317 11.105 17.68 9.077l-.534-2.67A1.75 1.75 0 0 0 15.43 5H5.75A2.75 2.75 0 0 0 3 7.75V14c0 1.526 1.254 2.75 2.765 2.75H18.25A2.75 2.75 0 0 0 21 14v-1.508a1.75 1.75 0 0 0-.683-1.387"/><path fill="#4D505A" d="M15.041 6.75a.25.25 0 0 1 .246.205l.249 1.366a1 1 0 0 1-.984 1.179H11.75a.25.25 0 0 1-.25-.25v-2.4a.1.1 0 0 1 .1-.1zm-10.02 9.157a2.75 2.75 0 1 1 5.458.687 2.75 2.75 0 0 1-5.458-.687m8.5 0a2.75 2.75 0 1 1 5.458.687 2.75 2.75 0 0 1-5.458-.687"/></svg>