<svg xmlns="http://www.w3.org/2000/svg" width="24" height="24" fill="none" viewBox="0 0 24 24"><path fill="#fff" fill-rule="evenodd" d="M2 7a3 3 0 0 1 3-3h5a3 3 0 0 1 3 3h3.333a3 3 0 0 1 1.8.6l2.667 2A3 3 0 0 1 22 12v3a3 3 0 0 1-2.664 2.981A3.001 3.001 0 0 1 13.67 18h-3.342a3.001 3.001 0 0 1-5.665-.019A3 3 0 0 1 2 15V7Zm2.689 8.95a3.001 3.001 0 0 1 5.64.05H11V7a1 1 0 0 0-1-1H5a1 1 0 0 0-1 1v8a1 1 0 0 0 .689.95ZM13 16h.67a3.001 3.001 0 0 1 5.641-.05A1 1 0 0 0 20 15v-3a1 1 0 0 0-.4-.8l-2.667-2a1 1 0 0 0-.6-.2H13v7Zm-5.5 0a1 1 0 1 0 0 2 1 1 0 0 0 0-2Zm9 0a1 1 0 1 0 0 2 1 1 0 0 0 0-2Z" clip-rule="evenodd"/></svg>