<svg xmlns="http://www.w3.org/2000/svg" width="24" height="24" fill="none" viewBox="0 0 24 24"><path fill="#C5C6CA" d="M11.445 19a2.75 2.75 0 0 0 1.906-.768l2.305-2.217a2.75 2.75 0 0 0 .844-1.982V7.75A2.75 2.75 0 0 0 13.75 5H7.86c-1.292 0-2.41.9-2.687 2.162L4.05 12.296a2.75 2.75 0 0 0 2.686 3.339H8.25a.25.25 0 0 1 .25.25v1.365c0 .966.784 1.75 1.75 1.75z"/><path fill="#4D505A" fill-rule="evenodd" d="M19.25 14.5a.75.75 0 0 1-.75-.75v-8a.75.75 0 0 1 1.5 0v8a.75.75 0 0 1-.75.75" clip-rule="evenodd"/></svg>