<svg xmlns="http://www.w3.org/2000/svg" width="24" height="24" fill="none" viewBox="0 0 24 24"><path fill="#4D505A" fill-rule="evenodd" d="M14.11 4.863a1 1 0 0 1 1.344-.437 8.5 8.5 0 0 1 3.715 3.715 1 1 0 1 1-1.782.908 6.5 6.5 0 0 0-2.84-2.84 1 1 0 0 1-.438-1.346Z" clip-rule="evenodd"/><path fill="#C5C6CA" fill-rule="evenodd" d="M11.445 2.015C12.33 1.967 13 2.687 13 3.5v4.937A3.706 3.706 0 0 1 15.563 11H20.5c.814 0 1.533.67 1.485 1.555C21.697 17.82 17.337 22 12 22 6.477 22 2 17.523 2 12c0-5.337 4.18-9.696 9.445-9.985Z" clip-rule="evenodd"/></svg>