<svg xmlns="http://www.w3.org/2000/svg" width="24" height="24" fill="none" viewBox="0 0 24 24"><path fill="#101116" fill-rule="evenodd" d="M16.687 5.527a1.75 1.75 0 0 0-2.475 0l-8.777 8.777a2.75 2.75 0 0 0-.742 1.36l-.677 3.112a1 1 0 0 0 1.19 1.19l3.112-.677a2.75 2.75 0 0 0 1.36-.743l8.777-8.777a1.75 1.75 0 0 0 0-2.475zm-1.414 1.06a.25.25 0 0 1 .354 0l1.767 1.768a.25.25 0 0 1 0 .354l-8.777 8.777a1.25 1.25 0 0 1-.618.337l-2.352.512.511-2.352a1.25 1.25 0 0 1 .338-.619z" clip-rule="evenodd"/><path fill="#101116" d="M13.75 18.5a.75.75 0 0 0 0 1.5h5.5a.75.75 0 0 0 0-1.5z"/></svg>