<svg xmlns="http://www.w3.org/2000/svg" width="24" height="24" fill="none" viewBox="0 0 24 24"><path fill="#101116" d="M8.5 10.75a.75.75 0 0 0-1.5 0v2.5a.75.75 0 0 0 1.5 0zm7.75-.75a.75.75 0 0 1 .75.75v2.5a.75.75 0 0 1-1.5 0v-2.5a.75.75 0 0 1 .75-.75M12 13.25a1.25 1.25 0 1 0 0-2.5 1.25 1.25 0 0 0 0 2.5"/><path fill="#101116" fill-rule="evenodd" d="M5.5 4.75A2.75 2.75 0 0 0 2.75 7.5v9a2.75 2.75 0 0 0 2.75 2.75h13a2.75 2.75 0 0 0 2.75-2.75v-9a2.75 2.75 0 0 0-2.75-2.75zM4.25 7.5c0-.69.56-1.25 1.25-1.25h13c.69 0 1.25.56 1.25 1.25v9c0 .69-.56 1.25-1.25 1.25h-13c-.69 0-1.25-.56-1.25-1.25z" clip-rule="evenodd"/></svg>