<svg xmlns="http://www.w3.org/2000/svg" width="24" height="24" fill="none" viewBox="0 0 24 24"><path fill="#C1C1C4" fill-rule="evenodd" d="M12 4.93A5 5 0 0 1 19.071 12l-2.828 2.829-1.414-1.415 2.828-2.828a3 3 0 0 0-4.243-4.243l-2.828 2.829-1.414-1.414L12 4.929Zm-2.828 5.656-2.829 2.828a3 3 0 1 0 4.243 4.243l2.828-2.828 1.415 1.414L12 19.07A5 5 0 0 1 4.929 12l2.828-2.83 1.415 1.415Z" clip-rule="evenodd"/><path fill="#414245" fill-rule="evenodd" d="M14.828 9.171a1 1 0 0 1 0 1.415l-4.242 4.242a1 1 0 0 1-1.415-1.414l4.243-4.243a1 1 0 0 1 1.414 0Z" clip-rule="evenodd"/></svg>