<svg xmlns="http://www.w3.org/2000/svg" width="24" height="24" fill="none" viewBox="0 0 24 24"><path fill="#C5C6CA" d="M18.817 6.75H5.184l.913 10.733A2.75 2.75 0 0 0 8.837 20h6.326a2.75 2.75 0 0 0 2.74-2.517z"/><path fill="#4D505A" fill-rule="evenodd" d="M4.75 8.25a.75.75 0 0 1 0-1.5h3.761a2.75 2.75 0 0 1 2.739-2.5h1.5a2.75 2.75 0 0 1 2.739 2.5h3.761a.75.75 0 0 1 0 1.5zm9.225-1.5c-.116-.57-.62-1-1.225-1h-1.5c-.605 0-1.11.43-1.225 1z" clip-rule="evenodd"/><path fill="#4D505A" d="M10.5 13a.75.75 0 0 1 .75.75v2a.75.75 0 0 1-1.5 0v-2a.75.75 0 0 1 .75-.75m3.75.75a.75.75 0 0 0-1.5 0v2a.75.75 0 0 0 1.5 0z"/></svg>