<svg width="24" height="24" viewBox="0 0 24 24" fill="none" xmlns="http://www.w3.org/2000/svg"><path fill-rule="evenodd" clip-rule="evenodd" d="M7 8v10a2 2 0 0 0 2 2h6a2 2 0 0 0 2-2V8h2v10a4 4 0 0 1-4 4H9a4 4 0 0 1-4-4V8h2Z" fill="#3D3D42"/><path d="M10 11a1 1 0 0 0-1 1v4a1 1 0 1 0 2 0v-4a1 1 0 0 0-1-1Zm4 0a1 1 0 0 0-1 1v4a1 1 0 1 0 2 0v-4a1 1 0 0 0-1-1Z" fill="#3D3D42"/><path fill-rule="evenodd" clip-rule="evenodd" d="M8 6V5a3 3 0 0 1 3-3h2a3 3 0 0 1 3 3v1h3a1 1 0 1 1 0 2H5a1 1 0 0 1 0-2h3Zm2-1a1 1 0 0 1 1-1h2a1 1 0 0 1 1 1v1h-4V5Z" fill="#3D3D42"/></svg>