<svg xmlns="http://www.w3.org/2000/svg" width="24" height="24" fill="none" viewBox="0 0 24 24"><path fill="#000" fill-rule="evenodd" d="M1.9 7A3.1 3.1 0 0 1 5 3.9h14A3.1 3.1 0 0 1 22.1 7v10a3.1 3.1 0 0 1-3.1 3.1H5A3.1 3.1 0 0 1 1.9 17V7ZM5 6.1a.9.9 0 0 0-.9.9v10a.9.9 0 0 0 .9.9h14a.9.9 0 0 0 .9-.9V7a.9.9 0 0 0-.9-.9H5Zm1.182 2.164a1.1 1.1 0 0 1 1.554-.082L12 12.02l4.264-3.838a1.1 1.1 0 0 1 1.472 1.636l-4.666 4.199a1.6 1.6 0 0 1-2.14 0l-4.666-4.2a1.1 1.1 0 0 1-.082-1.553Z" clip-rule="evenodd"/></svg>