<svg xmlns="http://www.w3.org/2000/svg" width="24" height="24" fill="none" viewBox="0 0 24 24"><mask id="b" width="18" height="18" x="3" y="3" maskUnits="userSpaceOnUse" style="mask-type:alpha"><path fill="url(#a)" d="m20.966 20.041-2.296-7.834a.76.76 0 0 1 0-.418l2.296-7.834a.747.747 0 0 0-.925-.924l-7.834 2.295a.76.76 0 0 1-.418 0L3.955 3.034a.747.747 0 0 0-.924.925l2.295 7.834c.04.136.04.282 0 .418l-2.295 7.834a.747.747 0 0 0 .924.924l7.834-2.296a.76.76 0 0 1 .418 0l7.834 2.296a.747.747 0 0 0 .925-.924z"/></mask><g mask="url(#b)"><g filter="url(#c)"><circle cx="6.5" cy="6.5" r="6.5" fill="#B004A4"/></g><g filter="url(#d)"><circle cx="17.5" cy="6.5" r="6.5" fill="#FEBD10"/></g><g filter="url(#e)"><circle cx="17.5" cy="17.5" r="6.5" fill="#98C729"/></g><g filter="url(#f)"><circle cx="6.5" cy="17.5" r="6.5" fill="#536CFE"/></g><g filter="url(#g)"><path fill="#F9D984" d="m16.485 16.022-1.149-3.918a.4.4 0 0 1 0-.208l1.149-3.918a.372.372 0 0 0-.463-.462l-3.918 1.148a.4.4 0 0 1-.208 0L7.978 7.516a.372.372 0 0 0-.462.462l1.148 3.918a.4.4 0 0 1 0 .208l-1.148 3.918a.372.372 0 0 0 .462.463l3.918-1.149a.4.4 0 0 1 .208 0l3.918 1.149a.372.372 0 0 0 .463-.463"/></g></g><defs><filter id="c" width="21" height="21" x="-4" y="-4" color-interpolation-filters="sRGB" filterUnits="userSpaceOnUse"><feFlood flood-opacity="0" result="BackgroundImageFix"/><feBlend in="SourceGraphic" in2="BackgroundImageFix" result="shape"/><feGaussianBlur result="effect1_foregroundBlur_4150_91298" stdDeviation="2"/></filter><filter id="d" width="21" height="21" x="7" y="-4" color-interpolation-filters="sRGB" filterUnits="userSpaceOnUse"><feFlood flood-opacity="0" result="BackgroundImageFix"/><feBlend in="SourceGraphic" in2="BackgroundImageFix" result="shape"/><feGaussianBlur result="effect1_foregroundBlur_4150_91298" stdDeviation="2"/></filter><filter id="e" width="21" height="21" x="7" y="7" color-interpolation-filters="sRGB" filterUnits="userSpaceOnUse"><feFlood flood-opacity="0" result="BackgroundImageFix"/><feBlend in="SourceGraphic" in2="BackgroundImageFix" result="shape"/><feGaussianBlur result="effect1_foregroundBlur_4150_91298" stdDeviation="2"/></filter><filter id="f" width="21" height="21" x="-4" y="7" color-interpolation-filters="sRGB" filterUnits="userSpaceOnUse"><feFlood flood-opacity="0" result="BackgroundImageFix"/><feBlend in="SourceGraphic" in2="BackgroundImageFix" result="shape"/><feGaussianBlur result="effect1_foregroundBlur_4150_91298" stdDeviation="2"/></filter><filter id="g" width="13" height="13" x="5.5" y="5.5" color-interpolation-filters="sRGB" filterUnits="userSpaceOnUse"><feFlood flood-opacity="0" result="BackgroundImageFix"/><feBlend in="SourceGraphic" in2="BackgroundImageFix" result="shape"/><feGaussianBlur result="effect1_foregroundBlur_4150_91298" stdDeviation="1"/></filter><radialGradient id="a" cx="0" cy="0" r="1" gradientTransform="matrix(-8.9982 -9.00008 9.53138 -9.52939 11.998 12)" gradientUnits="userSpaceOnUse"><stop stop-color="#B003A4"/><stop offset=".083" stop-color="#D2434E"/><stop offset=".167" stop-color="#EB8315"/><stop offset=".25" stop-color="#FEBD10"/><stop offset=".333" stop-color="#FCBC05"/><stop offset=".417" stop-color="#E4C217"/><stop offset=".5" stop-color="#93C729"/><stop offset=".583" stop-color="#2CC2A2"/><stop offset=".667" stop-color="#17B8E5"/><stop offset=".75" stop-color="#536BFE"/><stop offset=".833" stop-color="#5F60F1"/><stop offset=".917" stop-color="#9A2AB0"/><stop offset="1" stop-color="#B003A4"/></radialGradient></defs></svg>