<svg xmlns="http://www.w3.org/2000/svg" width="24" height="24" fill="none" viewBox="0 0 24 24"><path fill="#3D3D42" d="M10.062 20.495c-.068-.268.162-.495.438-.495h3c.276 0 .507.227.438.495a2 2 0 0 1-3.876 0ZM6.881 6.881a5.983 5.983 0 0 0-.88 3.128v1.326c0 .734-.346 1.425-.932 1.866C3.02 14.741 4.11 18 6.672 18h10.657c.212 0 .415-.023.606-.065L6.881 6.881ZM12 2a1 1 0 0 0-1 1v1a1 1 0 1 0 0 2h1a4 4 0 0 1 4 4v1a1 1 0 1 0 2 0v-1a6.002 6.002 0 0 0-5-5.917V3a1 1 0 0 0-1-1Z"/><path fill="#3D3D42" fill-rule="evenodd" d="M2.293 2.293a1 1 0 0 1 1.414 0l18 18a1 1 0 0 1-1.414 1.414l-18-18a1 1 0 0 1 0-1.414Z" clip-rule="evenodd"/></svg>