<svg xmlns="http://www.w3.org/2000/svg" width="24" height="24" fill="none" viewBox="0 0 24 24"><path fill="#fff" fill-rule="evenodd" d="M2.293 2.293a1 1 0 0 1 1.414 0l18 18a1 1 0 0 1-1.414 1.414l-3.226-3.226C15.613 19.371 13.882 20 12 20c-2.819 0-5.3-1.41-7.041-3.014-.878-.809-1.599-1.693-2.106-2.53C2.365 13.655 2 12.777 2 12c0-.929.527-2.032 1.22-3.018a12.606 12.606 0 0 1 2.078-2.27L2.293 3.707a1 1 0 0 1 0-1.414ZM6.717 8.13a10.656 10.656 0 0 0-1.86 2.002C4.223 11.031 4 11.708 4 12c0 .225.138.72.562 1.418.403.664 1 1.405 1.751 2.096C7.83 16.91 9.848 18 12 18c1.27 0 2.496-.38 3.604-.982l-1.697-1.697a3.83 3.83 0 0 1-5.228-5.228L6.717 8.131Zm3.493 3.493a1.827 1.827 0 0 0 2.165 2.166l-2.165-2.165ZM11 5a1 1 0 0 1 1-1c2.819 0 5.3 1.41 7.041 3.014.878.809 1.599 1.693 2.107 2.53.487.802.852 1.68.852 2.456 0 .795-.384 1.701-.895 2.527a1 1 0 0 1-1.7-1.054c.447-.723.595-1.24.595-1.473 0-.225-.138-.72-.562-1.418-.403-.664-1-1.405-1.752-2.096C16.171 7.09 14.152 6 12 6a1 1 0 0 1-1-1Z" clip-rule="evenodd"/></svg>