<svg width="24" height="24" viewBox="0 0 24 24" fill="none" xmlns="http://www.w3.org/2000/svg"><path d="M5 4h14v16.5a.5.5 0 0 1-.692.462l-1.988-.829a1 1 0 0 0-.654-.04l-2.857.8a2.999 2.999 0 0 1-1.618 0l-2.857-.8a1 1 0 0 0-.654.04l-1.988.829A.5.5 0 0 1 5 20.5V4Z" fill="#CACACE"/><path fill-rule="evenodd" clip-rule="evenodd" d="M9 9a1 1 0 0 0 0 2h2a1 1 0 1 0 0-2H9Zm6 0a1 1 0 1 0 0 2 1 1 0 0 0 0-2Zm-7 5a1 1 0 0 1 1-1h2a1 1 0 1 1 0 2H9a1 1 0 0 1-1-1Zm7-1a1 1 0 1 0 0 2 1 1 0 0 0 0-2Z" fill="#3D3D42"/><path d="M3 4a1 1 0 0 1 1-1h16a1 1 0 1 1 0 2H4a1 1 0 0 1-1-1Z" fill="#3D3D42"/></svg>