<svg xmlns="http://www.w3.org/2000/svg" width="24" height="24" fill="none" viewBox="0 0 24 24"><mask id="b" width="24" height="22" x="0" y="1" maskUnits="userSpaceOnUse" style="mask-type:alpha"><path fill="url(#a)" fill-rule="evenodd" d="M17.484 3.78A7.7 7.7 0 0 0 12 1.5a7.7 7.7 0 0 0-5.494 2.291l-.66-.66a1.333 1.333 0 0 0-1.886 0L2.032 5.06a5.905 5.905 0 0 0 0 8.349l9.025 9.025a1.333 1.333 0 0 0 1.886 0l9.025-9.025a5.905 5.905 0 0 0 0-8.35L20.03 3.122a1.33 1.33 0 0 0-1.886 0l-.66.66Z" clip-rule="evenodd"/></mask><g mask="url(#b)"><path fill="url(#c)" d="M12 16.967A7.733 7.733 0 1 0 12 1.5a7.733 7.733 0 0 0 0 15.467"/><path fill="url(#d)" d="m15.08 6.185-.016-.016a4.334 4.334 0 0 0-6.128 0l-.026.026-3.064-3.064a1.333 1.333 0 0 0-1.886 0L2.032 5.06a5.905 5.905 0 0 0 0 8.349l9.025 9.025a1.333 1.333 0 0 0 1.886 0l9.025-9.025a5.905 5.905 0 0 0 0-8.35L20.03 3.122a1.33 1.33 0 0 0-1.886 0z"/><g opacity=".5"><g filter="url(#e)"><path fill="#3B093F" d="M11 17.967A7.733 7.733 0 1 0 11 2.5a7.733 7.733 0 0 0 0 15.467"/></g><g filter="url(#f)"><path fill="#FFE37D" d="M12 16.967A7.733 7.733 0 1 0 12 1.5a7.733 7.733 0 0 0 0 15.467"/></g></g></g><defs><linearGradient id="a" x1="11.937" x2="-4.689" y1="9.3" y2="26.87" gradientUnits="userSpaceOnUse"><stop stop-color="#00B9B7"/><stop offset="1" stop-color="#3122F6"/></linearGradient><linearGradient id="c" x1="12.689" x2="16.8" y1="8.659" y2="5.207" gradientUnits="userSpaceOnUse"><stop stop-color="#fff"/><stop offset="1" stop-color="#FFE37D"/></linearGradient><linearGradient id="d" x1="12" x2="12" y1="7.5" y2="17" gradientUnits="userSpaceOnUse"><stop stop-color="#C8286B"/><stop offset="1" stop-color="#AA2EC9"/></linearGradient><filter id="e" width="21.467" height="21.467" x=".267" y="-.5" color-interpolation-filters="sRGB" filterUnits="userSpaceOnUse"><feFlood flood-opacity="0" result="BackgroundImageFix"/><feBlend in="SourceGraphic" in2="BackgroundImageFix" result="shape"/><feGaussianBlur result="effect1_foregroundBlur_5694_107119" stdDeviation="1.5"/></filter><filter id="f" width="19.467" height="19.467" x="2.267" y="-.5" color-interpolation-filters="sRGB" filterUnits="userSpaceOnUse"><feFlood flood-opacity="0" result="BackgroundImageFix"/><feBlend in="SourceGraphic" in2="BackgroundImageFix" result="shape"/><feGaussianBlur result="effect1_foregroundBlur_5694_107119" stdDeviation="1"/></filter></defs></svg>