<svg xmlns="http://www.w3.org/2000/svg" width="24" height="24" fill="none" viewBox="0 0 24 24"><path fill="#C5C6CA" d="M12 8a4 4 0 1 0 0 8 4 4 0 0 0 0-8"/><path fill="#4D505A" d="M12.75 3.75a.75.75 0 0 0-1.5 0v1.5a.75.75 0 0 0 1.5 0zm5.03 3.53a.75.75 0 1 0-1.06-1.06l-1.184 1.184a.75.75 0 1 0 1.06 1.06zM18 12a.75.75 0 0 1 .75-.75h1.5a.75.75 0 0 1 0 1.5h-1.5A.75.75 0 0 1 18 12m-1.404 3.536a.75.75 0 1 0-1.06 1.06l1.184 1.184a.75.75 0 0 0 1.06-1.06zM12 18a.75.75 0 0 1 .75.75v1.5a.75.75 0 0 1-1.5 0v-1.5A.75.75 0 0 1 12 18m-3.536-1.404a.75.75 0 0 0-1.06-1.06L6.22 16.72a.75.75 0 1 0 1.06 1.06zM3 12a.75.75 0 0 1 .75-.75h1.5a.75.75 0 0 1 0 1.5h-1.5A.75.75 0 0 1 3 12m4.28-5.78a.75.75 0 1 0-1.06 1.06l1.184 1.185a.75.75 0 0 0 1.06-1.061z"/></svg>