<svg xmlns="http://www.w3.org/2000/svg" width="24" height="24" fill="none" viewBox="0 0 24 24"><path fill="#101116" d="M12 3a.75.75 0 0 1 .75.75v1.5a.75.75 0 0 1-1.5 0v-1.5A.75.75 0 0 1 12 3"/><path fill="#101116" fill-rule="evenodd" d="M8 12a4 4 0 1 1 8 0 4 4 0 0 1-8 0m4-2.5a2.5 2.5 0 1 0 0 5 2.5 2.5 0 0 0 0-5" clip-rule="evenodd"/><path fill="#101116" d="M17.78 7.28a.75.75 0 1 0-1.06-1.06l-1.184 1.184a.75.75 0 1 0 1.06 1.06zM18 12a.75.75 0 0 1 .75-.75h1.5a.75.75 0 0 1 0 1.5h-1.5A.75.75 0 0 1 18 12m-1.404 3.536a.75.75 0 1 0-1.06 1.06l1.184 1.184a.75.75 0 0 0 1.06-1.06zM12 18a.75.75 0 0 1 .75.75v1.5a.75.75 0 0 1-1.5 0v-1.5A.75.75 0 0 1 12 18m-3.536-1.404a.75.75 0 0 0-1.06-1.06L6.22 16.72a.75.75 0 1 0 1.06 1.06zM3 12a.75.75 0 0 1 .75-.75h1.5a.75.75 0 0 1 0 1.5h-1.5A.75.75 0 0 1 3 12m4.28-5.78a.75.75 0 0 0-1.06 1.06l1.184 1.185a.75.75 0 0 0 1.06-1.061z"/></svg>