<svg xmlns="http://www.w3.org/2000/svg" width="24" height="24" fill="none" viewBox="0 0 24 24"><path fill="#101116" fill-rule="evenodd" d="M9 4a5 5 0 0 0-5 5v11h11a5 5 0 0 0 5-5v-1h-3.5c-.85 0-1.448-.677-1.52-1.4a4.002 4.002 0 0 0-3.58-3.58c-.723-.072-1.4-.67-1.4-1.52V4H9ZM2 9a7 7 0 0 1 7-7h1.5A1.5 1.5 0 0 1 12 3.5v3.583A6.004 6.004 0 0 1 16.917 12H20.5a1.5 1.5 0 0 1 1.5 1.5V15a7 7 0 0 1-7 7H4a2 2 0 0 1-2-2V9Z" clip-rule="evenodd"/><path fill="#101116" fill-rule="evenodd" d="M13.596 4.325a1 1 0 0 1 1.31-.53 10 10 0 0 1 5.242 5.167 1 1 0 1 1-1.83.807 8 8 0 0 0-4.193-4.133 1 1 0 0 1-.53-1.311Z" clip-rule="evenodd"/></svg>