<svg xmlns="http://www.w3.org/2000/svg" width="24" height="24" fill="none" viewBox="0 0 24 24"><g clip-path="url(#a)"><mask id="b" width="22" height="18" x="1" y="2" maskUnits="userSpaceOnUse" style="mask-type:alpha"><path fill="#FFE37D" fill-rule="evenodd" d="M6.503 17.571a7.775 7.775 0 0 0 10.996 0l.002-.002.59.59c.587.587 1.554.5 2.04-.172 2.99-4.1 2.494-9.945-1.49-13.46-3.76-3.317-9.523-3.32-13.28 0C1.377 8.042.879 13.896 3.87 17.993a1.345 1.345 0 0 0 2.04.17l.592-.592Z" clip-rule="evenodd"/></mask><g mask="url(#b)"><path fill="url(#c)" d="M6.503 6.576A7.775 7.775 0 1 0 17.5 17.57 7.775 7.775 0 0 0 6.503 6.576"/><path fill="url(#d)" d="M8.92 15.154a4.36 4.36 0 0 0 6.162 0l.002-.002 3.007 3.007c.587.587 1.554.5 2.04-.172 2.99-4.1 2.494-9.945-1.49-13.46-3.76-3.317-9.523-3.32-13.28 0C1.377 8.042.879 13.896 3.87 17.993a1.345 1.345 0 0 0 2.04.17l3.007-3.006z"/><g opacity=".5"><g filter="url(#e)"><path fill="#3B093F" d="M6.503 5.162A7.775 7.775 0 1 0 17.5 16.157 7.775 7.775 0 0 0 6.503 5.162"/></g><g filter="url(#f)"><path fill="#FFE37D" d="M6.503 6.576A7.775 7.775 0 1 0 17.5 17.57 7.775 7.775 0 0 0 6.503 6.576"/></g></g></g></g><defs><linearGradient id="c" x1="11.954" x2="11.785" y1="13.638" y2="18.972" gradientUnits="userSpaceOnUse"><stop stop-color="#fff"/><stop offset="1" stop-color="#FFE37D"/></linearGradient><linearGradient id="d" x1="13.03" x2="14.045" y1="8.03" y2="19.44" gradientUnits="userSpaceOnUse"><stop offset=".01" stop-color="#880DC2"/><stop offset="1" stop-color="#F229F7"/></linearGradient><filter id="e" width="21.55" height="21.55" x="1.226" y="-.116" color-interpolation-filters="sRGB" filterUnits="userSpaceOnUse"><feFlood flood-opacity="0" result="BackgroundImageFix"/><feBlend in="SourceGraphic" in2="BackgroundImageFix" result="shape"/><feGaussianBlur result="effect1_foregroundBlur_6408_7075" stdDeviation="1.5"/></filter><filter id="f" width="19.55" height="19.55" x="2.226" y="2.299" color-interpolation-filters="sRGB" filterUnits="userSpaceOnUse"><feFlood flood-opacity="0" result="BackgroundImageFix"/><feBlend in="SourceGraphic" in2="BackgroundImageFix" result="shape"/><feGaussianBlur result="effect1_foregroundBlur_6408_7075" stdDeviation="1"/></filter><clipPath id="a"><path fill="#fff" d="M24 0v24H0V0z"/></clipPath></defs></svg>