<svg xmlns="http://www.w3.org/2000/svg" width="24" height="24" fill="none" viewBox="0 0 24 24"><path fill="#4D505A" fill-rule="evenodd" d="M8.35 5.493a1 1 0 0 1 .97-1.243h.851c.73 0 1.43.29 1.945.805L16.81 9.75H9.414L8.35 5.493Zm.29 7.757h7.17l-5.694 5.695a2.75 2.75 0 0 1-1.945.805H5.52a1 1 0 0 1-.78-1.625l3.9-4.875Z" clip-rule="evenodd"/><path fill="#C5C6CA" fill-rule="evenodd" d="M2 6.581a.75.75 0 0 1 1.266-.544l2.166 2.052a1.5 1.5 0 0 0 1.032.411H18.5A3.5 3.5 0 0 1 22 12v1a1.5 1.5 0 0 1-1.5 1.5h-14A4.5 4.5 0 0 1 2 10V6.581Z" clip-rule="evenodd"/></svg>