<svg xmlns="http://www.w3.org/2000/svg" width="24" height="24" fill="none" viewBox="0 0 24 24"><mask id="c" width="20" height="20" x="2" y="2" maskUnits="userSpaceOnUse" style="mask-type:alpha"><path fill="url(#a)" d="M12.028 19.712a7.732 7.732 0 1 0 0-15.464 7.732 7.732 0 0 0 0 15.463Z"/><path fill="url(#b)" d="M15.586 2.004H8.41c-.352 0-.693.14-.944.389L2.389 7.469A1.33 1.33 0 0 0 2 8.414v2.232c0 .737.596 1.334 1.333 1.334h4.362a4.333 4.333 0 0 0 4.333 4.332v4.355c0 .737.596 1.333 1.333 1.333h2.23c.35 0 .691-.14.943-.389l5.077-5.077c.252-.252.389-.588.389-.944V8.41c0-.352-.14-.693-.389-.944l-5.077-5.077A1.33 1.33 0 0 0 15.59 2z"/></mask><g mask="url(#c)"><path fill="url(#d)" d="M12.028 19.712a7.732 7.732 0 1 0 0-15.464 7.732 7.732 0 0 0 0 15.463Z"/><path fill="url(#e)" d="M15.586 2.004H8.41c-.352 0-.693.14-.944.389L2.389 7.469A1.33 1.33 0 0 0 2 8.414v2.232c0 .737.596 1.334 1.333 1.334h4.362a4.333 4.333 0 0 0 4.333 4.332v4.355c0 .737.596 1.333 1.333 1.333h2.23c.35 0 .691-.14.943-.389l5.077-5.077c.252-.252.389-.588.389-.944V8.41c0-.352-.14-.693-.389-.944l-5.077-5.077A1.33 1.33 0 0 0 15.59 2z"/><g opacity=".5"><g filter="url(#f)"><path fill="#2D255E" d="M13.028 18.712a7.732 7.732 0 1 0 0-15.464 7.732 7.732 0 0 0 0 15.463Z"/></g><g filter="url(#g)"><path fill="#FFE37D" d="M12.028 19.712a7.732 7.732 0 1 0 0-15.464 7.732 7.732 0 0 0 0 15.463Z"/></g></g></g><defs><linearGradient id="a" x1="9.61" x2="5.87" y1="14.471" y2="18.351" gradientUnits="userSpaceOnUse"><stop stop-color="#fff"/><stop offset="1" stop-color="#FFE37D"/></linearGradient><linearGradient id="b" x1="10.01" x2="25.796" y1="13.676" y2=".397" gradientUnits="userSpaceOnUse"><stop offset=".01" stop-color="#9297FA"/><stop offset="1" stop-color="#3122F9"/></linearGradient><linearGradient id="d" x1="10.18" x2="7.288" y1="13.89" y2="16.89" gradientUnits="userSpaceOnUse"><stop stop-color="#fff"/><stop offset="1" stop-color="#FFE37D"/></linearGradient><linearGradient id="e" x1="10.01" x2="25.796" y1="13.676" y2=".397" gradientUnits="userSpaceOnUse"><stop offset=".01" stop-color="#9297FA"/><stop offset="1" stop-color="#3122F9"/></linearGradient><filter id="f" width="21.464" height="21.464" x="2.296" y=".248" color-interpolation-filters="sRGB" filterUnits="userSpaceOnUse"><feFlood flood-opacity="0" result="BackgroundImageFix"/><feBlend in="SourceGraphic" in2="BackgroundImageFix" result="shape"/><feGaussianBlur result="effect1_foregroundBlur_4150_91296" stdDeviation="1.5"/></filter><filter id="g" width="19.464" height="19.464" x="2.296" y="2.248" color-interpolation-filters="sRGB" filterUnits="userSpaceOnUse"><feFlood flood-opacity="0" result="BackgroundImageFix"/><feBlend in="SourceGraphic" in2="BackgroundImageFix" result="shape"/><feGaussianBlur result="effect1_foregroundBlur_4150_91296" stdDeviation="1"/></filter></defs></svg>