<svg xmlns="http://www.w3.org/2000/svg" width="24" height="24" fill="none" viewBox="0 0 24 24"><mask id="a" width="22" height="22" x="1" y="1" maskUnits="userSpaceOnUse" style="mask-type:alpha"><path fill="#FFE37D" fill-rule="evenodd" d="M11.458 2.584c0-.965 1.166-1.446 1.848-.765l8.876 8.872a1.083 1.083 0 0 1 0 1.533l-9.955 9.958a1.083 1.083 0 0 1-1.533 0L1.82 13.307c-.685-.682-.2-1.848.765-1.848h2.589a6.28 6.28 0 0 1 6.28-6.281h.003z" clip-rule="evenodd"/></mask><g mask="url(#a)"><path fill="url(#b)" d="M11.455 17.74a6.28 6.28 0 0 0 6.28-6.28 6.28 6.28 0 1 0-12.56 0 6.28 6.28 0 0 0 6.28 6.28"/><path fill="url(#c)" d="M13.306 1.82c-.682-.682-1.848-.201-1.848.764v5.354a3.52 3.52 0 0 0-3.52 3.521H2.586c-.966 0-1.45 1.166-.765 1.848l8.873 8.875a1.083 1.083 0 0 0 1.533 0l9.955-9.958a1.083 1.083 0 0 0 0-1.533z"/><g opacity=".5"><g filter="url(#d)"><path fill="#053326" d="M11.455 18.863a6.28 6.28 0 0 0 6.28-6.281 6.28 6.28 0 1 0-12.56 0 6.28 6.28 0 0 0 6.28 6.281"/></g><g filter="url(#e)"><path fill="#FFE37D" d="M11.455 17.74a6.28 6.28 0 0 0 6.28-6.28 6.28 6.28 0 1 0-12.56 0 6.28 6.28 0 0 0 6.28 6.28"/></g></g></g><defs><linearGradient id="b" x1="10.686" x2="7.657" y1="10.819" y2="8.302" gradientUnits="userSpaceOnUse"><stop stop-color="#fff"/><stop offset="1" stop-color="#FFE37D"/></linearGradient><linearGradient id="c" x1="14.857" x2="4.264" y1="14.814" y2="4.397" gradientUnits="userSpaceOnUse"><stop stop-color="#80B917"/><stop offset="1" stop-color="#0CC4E2"/></linearGradient><filter id="d" width="16.56" height="16.563" x="3.175" y="4.3" color-interpolation-filters="sRGB" filterUnits="userSpaceOnUse"><feFlood flood-opacity="0" result="BackgroundImageFix"/><feBlend in="SourceGraphic" in2="BackgroundImageFix" result="shape"/><feGaussianBlur result="effect1_foregroundBlur_4150_91293" stdDeviation="1"/></filter><filter id="e" width="16.56" height="16.563" x="3.175" y="3.178" color-interpolation-filters="sRGB" filterUnits="userSpaceOnUse"><feFlood flood-opacity="0" result="BackgroundImageFix"/><feBlend in="SourceGraphic" in2="BackgroundImageFix" result="shape"/><feGaussianBlur result="effect1_foregroundBlur_4150_91293" stdDeviation="1"/></filter></defs></svg>