<svg xmlns="http://www.w3.org/2000/svg" width="24" height="24" fill="none" viewBox="0 0 24 24"><path fill="#C5C6CA" d="M9 5H7a2 2 0 0 0-2 2v12a2 2 0 0 0 2 2h10a2 2 0 0 0 2-2V7a2 2 0 0 0-2-2H9Z"/><path fill="#4D505A" fill-rule="evenodd" d="M8 5a2 2 0 0 1 2-2h4a2 2 0 1 1 0 4h-4a2 2 0 0 1-2-2Zm-.01 7a1 1 0 0 1 1-1H9a1 1 0 1 1 0 2h-.01a1 1 0 0 1-1-1ZM12 12a1 1 0 0 1 1-1h2a1 1 0 1 1 0 2h-2a1 1 0 0 1-1-1Zm-4.01 4a1 1 0 0 1 1-1H9a1 1 0 1 1 0 2h-.01a1 1 0 0 1-1-1ZM12 16a1 1 0 0 1 1-1h2a1 1 0 1 1 0 2h-2a1 1 0 0 1-1-1Z" clip-rule="evenodd"/></svg>