<svg xmlns="http://www.w3.org/2000/svg" width="24" height="24" fill="none" viewBox="0 0 24 24"><path fill="#CACACE" d="M4 7.8c0-1.68 0-2.52.327-3.162a3 3 0 0 1 1.311-1.311C6.28 3 7.12 3 8.8 3h6.4c1.68 0 2.52 0 3.162.327a3 3 0 0 1 1.311 1.311C20 5.28 20 6.12 20 7.8v9.4c0 1.68 0 2.52-.327 3.162a3 3 0 0 1-1.311 1.311C17.72 22 16.88 22 15.2 22H8.8c-1.68 0-2.52 0-3.162-.327a3 3 0 0 1-1.311-1.311C4 19.72 4 18.88 4 17.2V7.8Z"/><path fill="#3D3D42" fill-rule="evenodd" d="M9 10a1 1 0 1 0 0-2 1 1 0 0 0 0 2Zm4-2a1 1 0 1 0 0 2h2a1 1 0 1 0 0-2h-2Zm0 4a1 1 0 1 0 0 2h2a1 1 0 1 0 0-2h-2Zm-1 5a1 1 0 0 1 1-1h2a1 1 0 1 1 0 2h-2a1 1 0 0 1-1-1Zm-2-4a1 1 0 1 1-2 0 1 1 0 0 1 2 0Zm-1 5a1 1 0 1 0 0-2 1 1 0 0 0 0 2Z" clip-rule="evenodd"/><path fill="#3D3D42" d="M9 3a1 1 0 0 1 1-1h4a1 1 0 0 1 1 1v1a1 1 0 0 1-1 1h-4a1 1 0 0 1-1-1V3Z"/></svg>