<svg width="24" height="24" viewBox="0 0 24 24" fill="none" xmlns="http://www.w3.org/2000/svg"><path d="M8 2a4 4 0 0 0-4 4v14c0 1.684 1.953 2.615 3.26 1.554l4.11-3.335a1 1 0 0 1 1.26 0l4.11 3.335c1.307 1.06 3.26.13 3.26-1.553V6a4 4 0 0 0-4-4H8Z" fill="#CACACE"/><path fill-rule="evenodd" clip-rule="evenodd" d="M9.293 7.293a1 1 0 0 1 1.414 0L12 8.586l1.293-1.293a1 1 0 1 1 1.414 1.414L13.414 10l1.293 1.293a1 1 0 0 1-1.414 1.414L12 11.414l-1.293 1.293a1 1 0 0 1-1.414-1.414L10.586 10 9.293 8.707a1 1 0 0 1 0-1.414Z" fill="#3D3D42"/></svg>