<svg xmlns="http://www.w3.org/2000/svg" width="24" height="24" fill="none" viewBox="0 0 24 24"><path fill="#C5C6CA" d="M7.75 3A2.75 2.75 0 0 0 5 5.75v14.278a1 1 0 0 0 1.562.827l4.735-3.22a1.25 1.25 0 0 1 1.406 0l4.735 3.22A1 1 0 0 0 19 20.028V5.75A2.75 2.75 0 0 0 16.25 3z"/><path fill="#4D505A" fill-rule="evenodd" d="M14.475 7.525a.75.75 0 0 1 0 1.06L13.061 10l1.414 1.414a.75.75 0 1 1-1.06 1.06L12 11.062l-1.414 1.414a.75.75 0 0 1-1.06-1.06L10.94 10 9.524 8.586a.75.75 0 0 1 1.061-1.06L12 8.938l1.414-1.414a.75.75 0 0 1 1.061 0Z" clip-rule="evenodd"/></svg>