<svg xmlns="http://www.w3.org/2000/svg" width="24" height="24" fill="none" viewBox="0 0 24 24"><path fill="#C5C6CA" d="M5.75 5A2.75 2.75 0 0 0 3 7.75v8.5A2.75 2.75 0 0 0 5.75 19h12.5A2.75 2.75 0 0 0 21 16.25V9.673a2.75 2.75 0 0 0-2.75-2.75h-5.635a.25.25 0 0 1-.223-.137l-.416-.824A1.75 1.75 0 0 0 10.414 5z"/><path fill="#4D505A" fill-rule="evenodd" d="M15.75 11a.75.75 0 0 1-.75.75h-2.5a.75.75 0 0 1 0-1.5H15a.75.75 0 0 1 .75.75M15 15.75a.75.75 0 0 0 0-1.5h-2.5a.75.75 0 0 0 0 1.5zm-5.5 0a.75.75 0 0 0 0-1.5H9a.75.75 0 0 0 0 1.5zm0-4a.75.75 0 0 0 0-1.5H9a.75.75 0 0 0 0 1.5z" clip-rule="evenodd"/></svg>