<svg xmlns="http://www.w3.org/2000/svg" width="24" height="24" fill="none" viewBox="0 0 24 24"><path fill="#C8C8CB" fill-rule="evenodd" d="M18.924 3.19a2 2 0 0 1 1.872 1.87l.388 6.206a3 3 0 0 1-.873 2.308l-6.932 6.932a3 3 0 0 1-4.243 0L3.48 14.85a3 3 0 0 1 0-4.242l6.932-6.932a3 3 0 0 1 2.309-.873l6.204.388Z" clip-rule="evenodd"/><path fill="#4F5257" fill-rule="evenodd" d="M14.5 8a1.5 1.5 0 0 1 0 3m0-3A1.5 1.5 0 0 0 13 9.5L14.5 8ZM13 9.5a1.5 1.5 0 0 0 1.5 1.5L13 9.5Z" clip-rule="evenodd"/><path fill="#4F5257" d="M16 9.5a1.5 1.5 0 1 1-3 0 1.5 1.5 0 0 1 3 0Z"/></svg>