<svg xmlns="http://www.w3.org/2000/svg" width="24" height="24" fill="none" viewBox="0 0 24 24"><g clip-path="url(#a)"><path fill="#fff" fill-rule="evenodd" d="M18.924 3.19a2 2 0 0 1 1.872 1.87l.388 6.206a3 3 0 0 1-.873 2.308l-6.932 6.932a3 3 0 0 1-4.243 0L3.48 14.85a3 3 0 0 1 0-4.242l6.932-6.932a3 3 0 0 1 2.309-.873l6.204.388ZM18.8 5.186l-6.205-.388a1 1 0 0 0-.77.29l-6.932 6.933a1 1 0 0 0 0 1.414l5.657 5.657a1 1 0 0 0 1.414 0l6.932-6.932a1 1 0 0 0 .291-.77L18.8 5.186ZM14.5 8a1.5 1.5 0 1 1 0 3 1.5 1.5 0 0 1 0-3Z" clip-rule="evenodd"/></g><defs><clipPath id="a"><path fill="#fff" d="M0 0h24v24H0z"/></clipPath></defs></svg>