<svg xmlns="http://www.w3.org/2000/svg" width="24" height="24" fill="none" viewBox="0 0 24 24"><path fill="#000" fill-rule="evenodd" d="M4 2.9A1.1 1.1 0 0 1 5.1 4v14a.9.9 0 0 0 .9.9h14a1.1 1.1 0 0 1 0 2.2H6A3.1 3.1 0 0 1 2.9 18V4A1.1 1.1 0 0 1 4 2.9ZM6.9 4A1.1 1.1 0 0 1 8 2.9h3a8.1 8.1 0 0 1 8.1 8.1v2.344l.122-.122a1.1 1.1 0 1 1 1.556 1.556l-1.647 1.646a1.6 1.6 0 0 1-2.262 0l-1.647-1.646a1.1 1.1 0 1 1 1.556-1.556l.122.122V11A5.9 5.9 0 0 0 11 5.1H8A1.1 1.1 0 0 1 6.9 4Z" clip-rule="evenodd"/></svg>