<svg width="42" height="44" viewBox="0 0 42 44" fill="none" xmlns="http://www.w3.org/2000/svg">
<path fill-rule="evenodd" clip-rule="evenodd" d="M21 18.45C23.3869 18.45 25.6761 17.4913 27.364 15.7847C29.0518 14.0781 30 11.7635 30 9.35C30 6.93653 29.0518 4.62191 27.364 2.91533C25.6761 1.20875 23.3869 0.25 21 0.25C18.6131 0.25 16.3239 1.20875 14.636 2.91533C12.9482 4.62191 12 6.93653 12 9.35C12 11.7635 12.9482 14.0781 14.636 15.7847C16.3239 17.4913 18.6131 18.45 21 18.45ZM0 45.75C-4.10938e-08 42.9616 0.543181 40.2005 1.59853 37.6244C2.65388 35.0482 4.20073 32.7075 6.15076 30.7358C8.10079 28.7641 10.4158 27.2 12.9636 26.133C15.5115 25.0659 18.2422 24.5167 21 24.5167C23.7578 24.5167 26.4885 25.0659 29.0364 26.133C31.5842 27.2 33.8992 28.7641 35.8492 30.7358C37.7993 32.7075 39.3461 35.0482 40.4015 37.6244C41.4568 40.2005 42 42.9616 42 45.75H0Z" fill="#A2A2AA"/>
</svg>
