<svg xmlns="http://www.w3.org/2000/svg" width="24" height="24" fill="none" viewBox="0 0 24 24"><path fill="#C8C8CB" fill-rule="evenodd" d="M3 3a1 1 0 0 1 1-1h1.047c.261 0 .52.05.763.147a3.11 3.11 0 0 1 1.895 2.278L7.82 5h9.914a3 3 0 0 1 2.977 3.372l-.5 4A3 3 0 0 1 17.234 15H9.766a3 3 0 0 1-2.977-2.628L6.012 6.16l-.268-1.343a1.11 1.11 0 0 0-.677-.813.055.055 0 0 0-.02-.004H4a1 1 0 0 1-1-1Z" clip-rule="evenodd"/><path fill="#4F5257" fill-rule="evenodd" d="M7 19a2 2 0 1 1 4 0 2 2 0 0 1-4 0Zm8 0a2 2 0 1 1 4 0 2 2 0 0 1-4 0Z" clip-rule="evenodd"/></svg>