<svg xmlns="http://www.w3.org/2000/svg" width="24" height="24" fill="none" viewBox="0 0 24 24"><path fill="#4D505A" d="M10.663 9.4a.75.75 0 0 1-.133.88l-3.25 3.25a.75.75 0 0 1-1.09-.032l-2-2.25a.75.75 0 0 1 .42-1.235l5.25-1a.75.75 0 0 1 .803.386Zm3.942 3.945a.75.75 0 0 1 .365.827l-1.24 5.25a.75.75 0 0 1-1.26.358l-2-2a.75.75 0 0 1-.001-1.06l3.24-3.25a.75.75 0 0 1 .896-.125M7.78 17.28a.75.75 0 1 0-1.06-1.06l-2.5 2.5a.75.75 0 1 0 1.06 1.06zm2 .94a.75.75 0 0 1 0 1.06l-.5.5a.75.75 0 0 1-1.06-1.06l.5-.5a.75.75 0 0 1 1.06 0m-4-2.94a.75.75 0 1 0-1.06-1.06l-.5.5a.75.75 0 1 0 1.06 1.06z"/><path fill="#C5C6CA" d="M18.864 4a8.75 8.75 0 0 0-5.916 2.302l-6.703 6.15a.75.75 0 0 0-.023 1.084l4.242 4.242a.75.75 0 0 0 1.083-.023l6.15-6.703A8.75 8.75 0 0 0 20 5.136V4.75a.75.75 0 0 0-.75-.75z"/></svg>