<svg xmlns="http://www.w3.org/2000/svg" width="24" height="24" fill="none" viewBox="0 0 24 24"><path fill="#101116" d="M9.25 9.25a.75.75 0 0 0 0 1.5h5.5a.75.75 0 0 0 0-1.5z"/><path fill="#101116" fill-rule="evenodd" d="M7.75 3A2.75 2.75 0 0 0 5 5.75v14.278a1 1 0 0 0 1.562.827l4.735-3.22a1.25 1.25 0 0 1 1.406 0l4.735 3.22A1 1 0 0 0 19 20.028V5.75A2.75 2.75 0 0 0 16.25 3zM6.5 5.75c0-.69.56-1.25 1.25-1.25h8.5c.69 0 1.25.56 1.25 1.25v13.333l-3.954-2.688a2.75 2.75 0 0 0-3.092 0L6.5 19.082z" clip-rule="evenodd"/></svg>