<svg xmlns="http://www.w3.org/2000/svg" width="24" height="24" fill="none" viewBox="0 0 24 24"><path fill="#4D505A" fill-rule="evenodd" d="M13.25 5.036V5a1.25 1.25 0 1 0-2.5.036L6.12 7.352a1.25 1.25 0 1 0-1.37 2.044v5.208a1.25 1.25 0 1 0 1.394 2.02l4.606 2.126a1.25 1.25 0 1 0 2.5 0l4.606-2.127a1.25 1.25 0 1 0 1.394-2.02V9.397a1.25 1.25 0 1 0-1.37-2.044l-4.63-2.316Zm4.46 3.907.04.057v3.917l-3.671-5.789 3.63 1.815Zm-.574 5.807L12 6.65l-5.136 8.1zM6.25 12.917l3.67-5.789-3.63 1.815L6.25 9zm5.451 4.619a1.25 1.25 0 0 1 .598 0l2.786-1.286h-6.17z" clip-rule="evenodd"/></svg>