<svg xmlns="http://www.w3.org/2000/svg" width="24" height="24" fill="none" viewBox="0 0 24 24"><path fill="#101116" fill-rule="evenodd" d="M13.25 5v.036l4.63 2.316a1.25 1.25 0 1 1 1.37 2.044v5.208a1.25 1.25 0 1 1-1.394 2.02l-4.606 2.125a1.25 1.25 0 0 1-2.5.001l-4.606-2.127a1.25 1.25 0 1 1-1.394-2.02V9.397a1.25 1.25 0 1 1 1.37-2.044l4.63-2.316V5a1.25 1.25 0 1 1 2.5 0m-7 7.917V9l.04-.057 3.63-1.815zm8.835 3.333L12.3 17.536a1.25 1.25 0 0 0-.598 0L8.915 16.25zm2.625-7.307.04.057v3.917l-3.671-5.789 3.63 1.815Zm-.574 5.807L12 6.65l-5.136 8.1z" clip-rule="evenodd"/></svg>