<svg xmlns="http://www.w3.org/2000/svg" width="24" height="24" fill="none" viewBox="0 0 24 24"><path fill="#D9D9D9" fill-rule="evenodd" d="M5 6.75A2.75 2.75 0 0 1 7.75 4h8.5A2.75 2.75 0 0 1 19 6.75V9a.75.75 0 0 1-1.5 0V6.75c0-.69-.56-1.25-1.25-1.25h-8.5c-.69 0-1.25.56-1.25 1.25V9A.75.75 0 0 1 5 9z" clip-rule="evenodd"/><path fill="#D9D9D9" d="M18.25 14.25A.75.75 0 0 1 19 15v2.25A2.75 2.75 0 0 1 16.25 20h-8.5A2.75 2.75 0 0 1 5 17.25V15a.75.75 0 0 1 .75-.75z"/><path fill="#4D505A" fill-rule="evenodd" d="M4 12a.75.75 0 0 1 .75-.75h14.5a.75.75 0 0 1 0 1.5H4.75A.75.75 0 0 1 4 12" clip-rule="evenodd"/></svg>