<svg xmlns="http://www.w3.org/2000/svg" width="24" height="24" fill="none" viewBox="0 0 24 24"><path fill="#101116" d="M7.75 4A2.75 2.75 0 0 0 5 6.75V9a.75.75 0 0 0 1.5 0V6.75c0-.69.56-1.25 1.25-1.25h8.5c.69 0 1.25.56 1.25 1.25V9A.75.75 0 0 0 19 9V6.75A2.75 2.75 0 0 0 16.25 4zM6.5 15A.75.75 0 0 0 5 15v2.25A2.75 2.75 0 0 0 7.75 20h8.5A2.75 2.75 0 0 0 19 17.25V15a.75.75 0 0 0-1.5 0v2.25c0 .69-.56 1.25-1.25 1.25h-8.5c-.69 0-1.25-.56-1.25-1.25zm-1.75-3.75a.75.75 0 0 0 0 1.5h14.5a.75.75 0 0 0 0-1.5z"/></svg>