<svg xmlns="http://www.w3.org/2000/svg" width="24" height="24" fill="none" viewBox="0 0 24 24"><path fill="#C5C6CA" fill-rule="evenodd" d="M4.75 5.5c-.69 0-1.25.56-1.25 1.25v10.5c0 .69.56 1.25 1.25 1.25h14.5c.69 0 1.25-.56 1.25-1.25V14a.75.75 0 0 1 1.5 0v3.25A2.75 2.75 0 0 1 19.25 20H4.75A2.75 2.75 0 0 1 2 17.25V6.75A2.75 2.75 0 0 1 4.75 4H12a.75.75 0 0 1 0 1.5z" clip-rule="evenodd"/><path fill="#4D505A" fill-rule="evenodd" d="M17.25 4a.75.75 0 0 1 .75.75A3.25 3.25 0 0 0 21.25 8a.75.75 0 0 1 0 1.5A3.25 3.25 0 0 0 18 12.75a.75.75 0 0 1-1.5 0 3.25 3.25 0 0 0-3.25-3.25.75.75 0 0 1 0-1.5 3.25 3.25 0 0 0 3.25-3.25.75.75 0 0 1 .75-.75" clip-rule="evenodd"/></svg>